<?xml version="1.0" encoding="utf-8" standalone="no"?>
<!DOCTYPE svg PUBLIC "-//W3C//DTD SVG 1.1//EN"
  "http://www.w3.org/Graphics/SVG/1.1/DTD/svg11.dtd">
<!-- Created with matplotlib (https://matplotlib.org/) -->
<svg height="216pt" version="1.1" viewBox="0 0 720 216" width="720pt" xmlns="http://www.w3.org/2000/svg" xmlns:xlink="http://www.w3.org/1999/xlink">
 <defs>
  <style type="text/css">
*{stroke-linecap:butt;stroke-linejoin:round;}
  </style>
 </defs>
 <g id="figure_1">
  <g id="patch_1">
   <path d="M 0 216 
L 720 216 
L 720 0 
L 0 0 
z
" style="fill:none;"/>
  </g>
  <g id="axes_1">
   <g id="patch_2">
    <path d="M 90 189 
L 648 189 
L 648 25.92 
L 90 25.92 
z
" style="fill:none;"/>
   </g>
   <g id="matplotlib.axis_1">
    <g id="xtick_1">
     <g id="line2d_1">
      <defs>
       <path d="M 0 0 
L 0 3.5 
" id="mfd7dee1ba9" style="stroke:#000000;stroke-width:0.8;"/>
      </defs>
      <g>
       <use style="stroke:#000000;stroke-width:0.8;" x="115.363636" xlink:href="#mfd7dee1ba9" y="189"/>
      </g>
     </g>
     <g id="text_1">
      <!-- 0 -->
      <defs>
       <path d="M 31.78125 66.40625 
Q 24.171875 66.40625 20.328125 58.90625 
Q 16.5 51.421875 16.5 36.375 
Q 16.5 21.390625 20.328125 13.890625 
Q 24.171875 6.390625 31.78125 6.390625 
Q 39.453125 6.390625 43.28125 13.890625 
Q 47.125 21.390625 47.125 36.375 
Q 47.125 51.421875 43.28125 58.90625 
Q 39.453125 66.40625 31.78125 66.40625 
z
M 31.78125 74.21875 
Q 44.046875 74.21875 50.515625 64.515625 
Q 56.984375 54.828125 56.984375 36.375 
Q 56.984375 17.96875 50.515625 8.265625 
Q 44.046875 -1.421875 31.78125 -1.421875 
Q 19.53125 -1.421875 13.0625 8.265625 
Q 6.59375 17.96875 6.59375 36.375 
Q 6.59375 54.828125 13.0625 64.515625 
Q 19.53125 74.21875 31.78125 74.21875 
z
" id="DejaVuSans-48"/>
      </defs>
      <g transform="translate(112.182386 203.598437)scale(0.1 -0.1)">
       <use xlink:href="#DejaVuSans-48"/>
      </g>
     </g>
    </g>
    <g id="xtick_2">
     <g id="line2d_2">
      <g>
       <use style="stroke:#000000;stroke-width:0.8;" x="227.840959" xlink:href="#mfd7dee1ba9" y="189"/>
      </g>
     </g>
     <g id="text_2">
      <!-- 100 -->
      <defs>
       <path d="M 12.40625 8.296875 
L 28.515625 8.296875 
L 28.515625 63.921875 
L 10.984375 60.40625 
L 10.984375 69.390625 
L 28.421875 72.90625 
L 38.28125 72.90625 
L 38.28125 8.296875 
L 54.390625 8.296875 
L 54.390625 0 
L 12.40625 0 
z
" id="DejaVuSans-49"/>
      </defs>
      <g transform="translate(218.297209 203.598437)scale(0.1 -0.1)">
       <use xlink:href="#DejaVuSans-49"/>
       <use x="63.623047" xlink:href="#DejaVuSans-48"/>
       <use x="127.246094" xlink:href="#DejaVuSans-48"/>
      </g>
     </g>
    </g>
    <g id="xtick_3">
     <g id="line2d_3">
      <g>
       <use style="stroke:#000000;stroke-width:0.8;" x="340.318283" xlink:href="#mfd7dee1ba9" y="189"/>
      </g>
     </g>
     <g id="text_3">
      <!-- 200 -->
      <defs>
       <path d="M 19.1875 8.296875 
L 53.609375 8.296875 
L 53.609375 0 
L 7.328125 0 
L 7.328125 8.296875 
Q 12.9375 14.109375 22.625 23.890625 
Q 32.328125 33.6875 34.8125 36.53125 
Q 39.546875 41.84375 41.421875 45.53125 
Q 43.3125 49.21875 43.3125 52.78125 
Q 43.3125 58.59375 39.234375 62.25 
Q 35.15625 65.921875 28.609375 65.921875 
Q 23.96875 65.921875 18.8125 64.3125 
Q 13.671875 62.703125 7.8125 59.421875 
L 7.8125 69.390625 
Q 13.765625 71.78125 18.9375 73 
Q 24.125 74.21875 28.421875 74.21875 
Q 39.75 74.21875 46.484375 68.546875 
Q 53.21875 62.890625 53.21875 53.421875 
Q 53.21875 48.921875 51.53125 44.890625 
Q 49.859375 40.875 45.40625 35.40625 
Q 44.1875 33.984375 37.640625 27.21875 
Q 31.109375 20.453125 19.1875 8.296875 
z
" id="DejaVuSans-50"/>
      </defs>
      <g transform="translate(330.774533 203.598437)scale(0.1 -0.1)">
       <use xlink:href="#DejaVuSans-50"/>
       <use x="63.623047" xlink:href="#DejaVuSans-48"/>
       <use x="127.246094" xlink:href="#DejaVuSans-48"/>
      </g>
     </g>
    </g>
    <g id="xtick_4">
     <g id="line2d_4">
      <g>
       <use style="stroke:#000000;stroke-width:0.8;" x="452.795606" xlink:href="#mfd7dee1ba9" y="189"/>
      </g>
     </g>
     <g id="text_4">
      <!-- 300 -->
      <defs>
       <path d="M 40.578125 39.3125 
Q 47.65625 37.796875 51.625 33 
Q 55.609375 28.21875 55.609375 21.1875 
Q 55.609375 10.40625 48.1875 4.484375 
Q 40.765625 -1.421875 27.09375 -1.421875 
Q 22.515625 -1.421875 17.65625 -0.515625 
Q 12.796875 0.390625 7.625 2.203125 
L 7.625 11.71875 
Q 11.71875 9.328125 16.59375 8.109375 
Q 21.484375 6.890625 26.8125 6.890625 
Q 36.078125 6.890625 40.9375 10.546875 
Q 45.796875 14.203125 45.796875 21.1875 
Q 45.796875 27.640625 41.28125 31.265625 
Q 36.765625 34.90625 28.71875 34.90625 
L 20.21875 34.90625 
L 20.21875 43.015625 
L 29.109375 43.015625 
Q 36.375 43.015625 40.234375 45.921875 
Q 44.09375 48.828125 44.09375 54.296875 
Q 44.09375 59.90625 40.109375 62.90625 
Q 36.140625 65.921875 28.71875 65.921875 
Q 24.65625 65.921875 20.015625 65.03125 
Q 15.375 64.15625 9.8125 62.3125 
L 9.8125 71.09375 
Q 15.4375 72.65625 20.34375 73.4375 
Q 25.25 74.21875 29.59375 74.21875 
Q 40.828125 74.21875 47.359375 69.109375 
Q 53.90625 64.015625 53.90625 55.328125 
Q 53.90625 49.265625 50.4375 45.09375 
Q 46.96875 40.921875 40.578125 39.3125 
z
" id="DejaVuSans-51"/>
      </defs>
      <g transform="translate(443.251856 203.598437)scale(0.1 -0.1)">
       <use xlink:href="#DejaVuSans-51"/>
       <use x="63.623047" xlink:href="#DejaVuSans-48"/>
       <use x="127.246094" xlink:href="#DejaVuSans-48"/>
      </g>
     </g>
    </g>
    <g id="xtick_5">
     <g id="line2d_5">
      <g>
       <use style="stroke:#000000;stroke-width:0.8;" x="565.272929" xlink:href="#mfd7dee1ba9" y="189"/>
      </g>
     </g>
     <g id="text_5">
      <!-- 400 -->
      <defs>
       <path d="M 37.796875 64.3125 
L 12.890625 25.390625 
L 37.796875 25.390625 
z
M 35.203125 72.90625 
L 47.609375 72.90625 
L 47.609375 25.390625 
L 58.015625 25.390625 
L 58.015625 17.1875 
L 47.609375 17.1875 
L 47.609375 0 
L 37.796875 0 
L 37.796875 17.1875 
L 4.890625 17.1875 
L 4.890625 26.703125 
z
" id="DejaVuSans-52"/>
      </defs>
      <g transform="translate(555.729179 203.598437)scale(0.1 -0.1)">
       <use xlink:href="#DejaVuSans-52"/>
       <use x="63.623047" xlink:href="#DejaVuSans-48"/>
       <use x="127.246094" xlink:href="#DejaVuSans-48"/>
      </g>
     </g>
    </g>
   </g>
   <g id="matplotlib.axis_2">
    <g id="ytick_1">
     <g id="line2d_6">
      <defs>
       <path d="M 0 0 
L -3.5 0 
" id="m18c472758a" style="stroke:#000000;stroke-width:0.8;"/>
      </defs>
      <g>
       <use style="stroke:#000000;stroke-width:0.8;" x="90" xlink:href="#m18c472758a" y="189"/>
      </g>
     </g>
     <g id="text_6">
      <!-- −2.0 -->
      <defs>
       <path d="M 10.59375 35.5 
L 73.1875 35.5 
L 73.1875 27.203125 
L 10.59375 27.203125 
z
" id="DejaVuSans-8722"/>
       <path d="M 10.6875 12.40625 
L 21 12.40625 
L 21 0 
L 10.6875 0 
z
" id="DejaVuSans-46"/>
      </defs>
      <g transform="translate(58.717187 192.799219)scale(0.1 -0.1)">
       <use xlink:href="#DejaVuSans-8722"/>
       <use x="83.789062" xlink:href="#DejaVuSans-50"/>
       <use x="147.412109" xlink:href="#DejaVuSans-46"/>
       <use x="179.199219" xlink:href="#DejaVuSans-48"/>
      </g>
     </g>
    </g>
    <g id="ytick_2">
     <g id="line2d_7">
      <g>
       <use style="stroke:#000000;stroke-width:0.8;" x="90" xlink:href="#m18c472758a" y="168.615"/>
      </g>
     </g>
     <g id="text_7">
      <!-- −1.5 -->
      <defs>
       <path d="M 10.796875 72.90625 
L 49.515625 72.90625 
L 49.515625 64.59375 
L 19.828125 64.59375 
L 19.828125 46.734375 
Q 21.96875 47.46875 24.109375 47.828125 
Q 26.265625 48.1875 28.421875 48.1875 
Q 40.625 48.1875 47.75 41.5 
Q 54.890625 34.8125 54.890625 23.390625 
Q 54.890625 11.625 47.5625 5.09375 
Q 40.234375 -1.421875 26.90625 -1.421875 
Q 22.3125 -1.421875 17.546875 -0.640625 
Q 12.796875 0.140625 7.71875 1.703125 
L 7.71875 11.625 
Q 12.109375 9.234375 16.796875 8.0625 
Q 21.484375 6.890625 26.703125 6.890625 
Q 35.15625 6.890625 40.078125 11.328125 
Q 45.015625 15.765625 45.015625 23.390625 
Q 45.015625 31 40.078125 35.4375 
Q 35.15625 39.890625 26.703125 39.890625 
Q 22.75 39.890625 18.8125 39.015625 
Q 14.890625 38.140625 10.796875 36.28125 
z
" id="DejaVuSans-53"/>
      </defs>
      <g transform="translate(58.717187 172.414219)scale(0.1 -0.1)">
       <use xlink:href="#DejaVuSans-8722"/>
       <use x="83.789062" xlink:href="#DejaVuSans-49"/>
       <use x="147.412109" xlink:href="#DejaVuSans-46"/>
       <use x="179.199219" xlink:href="#DejaVuSans-53"/>
      </g>
     </g>
    </g>
    <g id="ytick_3">
     <g id="line2d_8">
      <g>
       <use style="stroke:#000000;stroke-width:0.8;" x="90" xlink:href="#m18c472758a" y="148.23"/>
      </g>
     </g>
     <g id="text_8">
      <!-- −1.0 -->
      <g transform="translate(58.717187 152.029219)scale(0.1 -0.1)">
       <use xlink:href="#DejaVuSans-8722"/>
       <use x="83.789062" xlink:href="#DejaVuSans-49"/>
       <use x="147.412109" xlink:href="#DejaVuSans-46"/>
       <use x="179.199219" xlink:href="#DejaVuSans-48"/>
      </g>
     </g>
    </g>
    <g id="ytick_4">
     <g id="line2d_9">
      <g>
       <use style="stroke:#000000;stroke-width:0.8;" x="90" xlink:href="#m18c472758a" y="127.845"/>
      </g>
     </g>
     <g id="text_9">
      <!-- −0.5 -->
      <g transform="translate(58.717187 131.644219)scale(0.1 -0.1)">
       <use xlink:href="#DejaVuSans-8722"/>
       <use x="83.789062" xlink:href="#DejaVuSans-48"/>
       <use x="147.412109" xlink:href="#DejaVuSans-46"/>
       <use x="179.199219" xlink:href="#DejaVuSans-53"/>
      </g>
     </g>
    </g>
    <g id="ytick_5">
     <g id="line2d_10">
      <g>
       <use style="stroke:#000000;stroke-width:0.8;" x="90" xlink:href="#m18c472758a" y="107.46"/>
      </g>
     </g>
     <g id="text_10">
      <!-- 0.0 -->
      <g transform="translate(67.096875 111.259219)scale(0.1 -0.1)">
       <use xlink:href="#DejaVuSans-48"/>
       <use x="63.623047" xlink:href="#DejaVuSans-46"/>
       <use x="95.410156" xlink:href="#DejaVuSans-48"/>
      </g>
     </g>
    </g>
    <g id="ytick_6">
     <g id="line2d_11">
      <g>
       <use style="stroke:#000000;stroke-width:0.8;" x="90" xlink:href="#m18c472758a" y="87.075"/>
      </g>
     </g>
     <g id="text_11">
      <!-- 0.5 -->
      <g transform="translate(67.096875 90.874219)scale(0.1 -0.1)">
       <use xlink:href="#DejaVuSans-48"/>
       <use x="63.623047" xlink:href="#DejaVuSans-46"/>
       <use x="95.410156" xlink:href="#DejaVuSans-53"/>
      </g>
     </g>
    </g>
    <g id="ytick_7">
     <g id="line2d_12">
      <g>
       <use style="stroke:#000000;stroke-width:0.8;" x="90" xlink:href="#m18c472758a" y="66.69"/>
      </g>
     </g>
     <g id="text_12">
      <!-- 1.0 -->
      <g transform="translate(67.096875 70.489219)scale(0.1 -0.1)">
       <use xlink:href="#DejaVuSans-49"/>
       <use x="63.623047" xlink:href="#DejaVuSans-46"/>
       <use x="95.410156" xlink:href="#DejaVuSans-48"/>
      </g>
     </g>
    </g>
    <g id="ytick_8">
     <g id="line2d_13">
      <g>
       <use style="stroke:#000000;stroke-width:0.8;" x="90" xlink:href="#m18c472758a" y="46.305"/>
      </g>
     </g>
     <g id="text_13">
      <!-- 1.5 -->
      <g transform="translate(67.096875 50.104219)scale(0.1 -0.1)">
       <use xlink:href="#DejaVuSans-49"/>
       <use x="63.623047" xlink:href="#DejaVuSans-46"/>
       <use x="95.410156" xlink:href="#DejaVuSans-53"/>
      </g>
     </g>
    </g>
    <g id="ytick_9">
     <g id="line2d_14">
      <g>
       <use style="stroke:#000000;stroke-width:0.8;" x="90" xlink:href="#m18c472758a" y="25.92"/>
      </g>
     </g>
     <g id="text_14">
      <!-- 2.0 -->
      <g transform="translate(67.096875 29.719219)scale(0.1 -0.1)">
       <use xlink:href="#DejaVuSans-50"/>
       <use x="63.623047" xlink:href="#DejaVuSans-46"/>
       <use x="95.410156" xlink:href="#DejaVuSans-48"/>
      </g>
     </g>
    </g>
   </g>
   <g id="line2d_15">
    <path clip-path="url(#p4ff3dd663e)" d="M 115.363636 130.371252 
L 116.48841 117.909921 
L 117.613183 117.82725 
L 118.737956 115.168194 
L 119.862729 114.506556 
L 120.987503 115.7528 
L 122.112276 113.167169 
L 123.237049 111.326356 
L 124.361822 111.21468 
L 125.486595 123.023727 
L 127.736142 150.867464 
L 128.860915 157.492024 
L 129.985688 148.648459 
L 131.110462 134.712664 
L 132.235235 128.799903 
L 133.360008 123.891567 
L 134.484781 125.645678 
L 135.609555 112.272196 
L 136.734328 110.441659 
L 137.859101 119.012326 
L 138.983874 107.128678 
L 140.108647 114.116198 
L 141.233421 114.379144 
L 142.358194 120.002241 
L 143.482967 124.441655 
L 144.60774 140.9964 
L 145.732514 151.555175 
L 146.857287 154.373894 
L 147.98206 145.591834 
L 149.106833 139.49346 
L 150.231607 129.833005 
L 151.35638 122.632339 
L 152.481153 116.723743 
L 153.605926 121.778807 
L 154.730699 111.039769 
L 155.855473 110.051968 
L 156.980246 108.056058 
L 158.105019 115.092287 
L 160.354566 118.407018 
L 161.479339 130.964449 
L 163.728885 149.027396 
L 164.853659 154.615709 
L 165.978432 149.441659 
L 167.103205 133.505569 
L 168.227978 134.368324 
L 169.352751 121.161385 
L 170.477525 119.461701 
L 171.602298 118.61374 
L 172.727071 115.157056 
L 173.851844 115.284408 
L 174.976618 118.204363 
L 176.101391 117.756229 
L 177.226164 114.960767 
L 178.350937 123.488082 
L 179.475711 122.55965 
L 180.600484 134.787559 
L 181.725257 142.519372 
L 182.85003 155.864778 
L 183.974803 147.795605 
L 185.099577 131.141525 
L 186.22435 127.69577 
L 187.349123 126.432652 
L 188.473896 122.11903 
L 189.59867 119.889973 
L 190.723443 114.187604 
L 191.848216 113.738871 
L 192.972989 112.119629 
L 194.097763 112.269478 
L 195.222536 123.110714 
L 196.347309 114.960248 
L 197.472082 118.698176 
L 198.596855 138.740351 
L 199.721629 152.982011 
L 200.846402 154.513518 
L 201.971175 146.273546 
L 203.095948 134.931545 
L 204.220722 127.907743 
L 205.345495 131.600324 
L 206.470268 126.309578 
L 207.595041 121.674066 
L 208.719815 120.083725 
L 209.844588 113.037779 
L 210.969361 116.225517 
L 212.094134 115.612909 
L 213.218907 111.083664 
L 214.343681 115.759665 
L 215.468454 124.455713 
L 216.593227 139.842843 
L 217.718 151.045829 
L 218.842774 155.625689 
L 219.967547 147.894902 
L 221.09232 131.845785 
L 222.217093 128.475041 
L 223.341867 124.337706 
L 224.46664 119.540336 
L 225.591413 118.282037 
L 226.716186 116.288315 
L 227.840959 113.408765 
L 228.965733 109.967704 
L 230.090506 116.241072 
L 231.215279 119.270431 
L 232.340052 120.735416 
L 233.464826 131.380479 
L 235.714372 150.175722 
L 236.839145 149.417277 
L 237.963919 145.716248 
L 239.088692 129.649649 
L 240.213465 131.400908 
L 241.338238 120.390049 
L 242.463011 118.519015 
L 243.587785 117.521965 
L 244.712558 120.126851 
L 245.837331 110.536161 
L 246.962104 118.850763 
L 248.086878 112.048823 
L 249.211651 114.085785 
L 250.336424 115.005962 
L 251.461197 130.910165 
L 252.585971 137.804907 
L 253.710744 151.543768 
L 254.835517 151.161339 
L 255.96029 142.840348 
L 257.085063 135.912307 
L 258.209837 122.070085 
L 259.33461 123.271877 
L 260.459383 120.178613 
L 261.584156 114.374738 
L 262.70893 110.208063 
L 263.833703 111.448604 
L 264.958476 107.887141 
L 266.083249 114.680346 
L 267.208023 114.988961 
L 268.332796 115.7673 
L 269.457569 123.181947 
L 270.582342 139.787581 
L 271.707116 154.286865 
L 272.831889 160.099003 
L 273.956662 140.587844 
L 275.081435 137.711883 
L 276.206208 132.796812 
L 277.330982 129.165856 
L 278.455755 118.949701 
L 279.580528 110.38399 
L 280.705301 116.659255 
L 281.830075 109.968896 
L 282.954848 110.404017 
L 285.204394 112.713045 
L 287.453941 126.062194 
L 288.578714 138.360775 
L 289.703487 152.097918 
L 290.82826 150.700254 
L 291.953034 147.726355 
L 294.20258 127.002784 
L 295.327353 128.58941 
L 296.452127 118.566334 
L 297.5769 113.008441 
L 298.701673 117.799923 
L 299.826446 112.458329 
L 300.95122 110.937702 
L 302.075993 112.895765 
L 303.200766 117.876504 
L 304.325539 120.322037 
L 305.450312 128.065713 
L 306.575086 146.914638 
L 307.699859 154.979144 
L 308.824632 153.202504 
L 309.949405 140.90156 
L 311.074179 134.274403 
L 312.198952 130.278415 
L 313.323725 120.428241 
L 314.448498 118.408819 
L 315.573272 116.704543 
L 316.698045 116.939809 
L 317.822818 110.538259 
L 318.947591 108.562173 
L 320.072364 116.464058 
L 321.197138 110.512427 
L 322.321911 117.400892 
L 323.446684 128.963285 
L 325.696231 155.572129 
L 326.821004 153.814726 
L 327.945777 144.146961 
L 329.07055 133.131479 
L 330.195324 130.06218 
L 331.320097 124.9572 
L 332.44487 120.749949 
L 333.569643 113.09116 
L 334.694416 122.250106 
L 335.81919 113.868509 
L 336.943963 111.810471 
L 338.068736 115.587881 
L 339.193509 116.911651 
L 340.318283 119.554946 
L 341.443056 128.504914 
L 342.567829 142.108194 
L 343.692602 158.714931 
L 345.942149 140.890749 
L 347.066922 140.105743 
L 348.191695 126.927193 
L 350.441242 115.176565 
L 351.566015 113.506737 
L 352.690788 119.057552 
L 353.815561 109.751819 
L 354.940335 111.518869 
L 356.065108 114.926439 
L 357.189881 113.157267 
L 358.314654 124.720187 
L 359.439428 127.887182 
L 360.564201 147.724262 
L 361.688974 155.735809 
L 362.813747 153.521881 
L 363.93852 143.070512 
L 365.063294 130.987166 
L 366.188067 130.108277 
L 367.31284 114.162423 
L 368.437613 119.41464 
L 369.562387 113.676213 
L 370.68716 118.427682 
L 371.811933 108.767261 
L 372.936706 119.112468 
L 374.06148 118.391114 
L 375.186253 116.691938 
L 376.311026 117.17303 
L 377.435799 131.805207 
L 378.560572 141.464188 
L 379.685346 156.737711 
L 380.810119 143.49285 
L 381.934892 142.898212 
L 383.059665 133.177941 
L 384.184439 126.442883 
L 385.309212 125.71005 
L 386.433985 118.732402 
L 387.558758 117.526882 
L 388.683532 113.026402 
L 389.808305 111.312653 
L 390.933078 108.724081 
L 392.057851 112.468754 
L 393.182624 112.044038 
L 395.432171 125.375883 
L 396.556944 146.600528 
L 397.681717 155.58483 
L 398.806491 149.315899 
L 399.931264 147.408087 
L 401.056037 125.473411 
L 402.18081 127.28621 
L 403.305584 120.237178 
L 404.430357 117.432824 
L 405.55513 109.608732 
L 406.679903 113.565164 
L 407.804676 119.827049 
L 408.92945 111.787366 
L 410.054223 106.531129 
L 411.178996 122.105515 
L 412.303769 119.409096 
L 413.428543 129.786506 
L 414.553316 143.726842 
L 415.678089 151.938107 
L 416.802862 155.719761 
L 417.927636 140.502678 
L 419.052409 130.531191 
L 420.177182 128.227849 
L 421.301955 124.207444 
L 422.426728 124.800292 
L 423.551502 115.852516 
L 424.676275 113.904544 
L 425.801048 116.408275 
L 426.925821 114.226958 
L 428.050595 110.530614 
L 429.175368 113.021107 
L 430.300141 115.107206 
L 431.424914 134.743337 
L 432.549688 150.019482 
L 433.674461 156.386518 
L 435.924007 139.351613 
L 437.04878 126.758276 
L 438.173554 125.951685 
L 439.298327 124.677539 
L 440.4231 119.109091 
L 441.547873 111.929027 
L 442.672647 110.254848 
L 443.79742 107.588963 
L 444.922193 106.572988 
L 446.046966 118.09523 
L 447.17174 125.198237 
L 448.296513 118.721305 
L 449.421286 131.869121 
L 450.546059 148.331173 
L 451.670832 153.136802 
L 452.795606 154.853881 
L 453.920379 143.94281 
L 455.045152 131.38301 
L 456.169925 126.900868 
L 457.294699 117.957113 
L 458.419472 120.499299 
L 459.544245 115.541038 
L 460.669018 113.9923 
L 461.793792 112.102754 
L 462.918565 116.449079 
L 464.043338 106.781262 
L 465.168111 109.115882 
L 466.292884 120.693232 
L 467.417658 129.233067 
L 468.542431 150.405248 
L 469.667204 156.617635 
L 470.791977 149.750834 
L 471.916751 137.858296 
L 473.041524 133.537063 
L 475.29107 123.403426 
L 476.415844 122.68478 
L 477.540617 122.758938 
L 478.66539 109.036401 
L 479.790163 112.671932 
L 480.914937 109.274478 
L 482.03971 109.664803 
L 483.164483 106.962136 
L 484.289256 123.011383 
L 485.414029 132.06846 
L 486.538803 156.07517 
L 487.663576 156.232379 
L 488.788349 151.185188 
L 489.913122 146.720448 
L 491.037896 133.948192 
L 492.162669 118.555351 
L 493.287442 120.658368 
L 494.412215 121.779259 
L 495.536989 116.204621 
L 496.661762 113.990058 
L 497.786535 112.370161 
L 498.911308 113.445775 
L 500.036081 116.083912 
L 501.160855 109.789827 
L 502.285628 123.457198 
L 503.410401 129.505268 
L 504.535174 145.28899 
L 505.659948 159.44168 
L 506.784721 152.271519 
L 509.034267 133.086794 
L 510.159041 128.975666 
L 511.283814 120.009033 
L 512.408587 117.007178 
L 513.53336 119.781577 
L 514.658133 114.535759 
L 515.782907 112.573993 
L 516.90768 111.99117 
L 518.032453 114.262074 
L 519.157226 117.83944 
L 520.282 118.678001 
L 522.531546 153.616537 
L 523.656319 152.477624 
L 524.781093 147.957719 
L 525.905866 138.27244 
L 527.030639 132.850804 
L 528.155412 125.872047 
L 530.404959 114.72716 
L 531.529732 113.550041 
L 532.654505 114.647542 
L 533.779278 108.627674 
L 534.904052 113.983154 
L 536.028825 113.231234 
L 537.153598 115.609031 
L 538.278371 115.407947 
L 539.403145 136.887896 
L 540.527918 146.247605 
L 541.652691 154.000026 
L 542.777464 145.104056 
L 543.902237 143.151981 
L 545.027011 134.443393 
L 546.151784 123.742764 
L 547.276557 123.453952 
L 548.40133 122.420876 
L 549.526104 117.504635 
L 550.650877 110.273365 
L 551.77565 113.565751 
L 552.900423 108.293797 
L 554.025197 114.140123 
L 555.14997 116.148352 
L 556.274743 123.931928 
L 557.399516 135.35465 
L 558.524289 154.445909 
L 559.649063 155.4241 
L 560.773836 153.232261 
L 561.898609 136.552865 
L 563.023382 125.75187 
L 564.148156 118.86004 
L 565.272929 126.138884 
L 566.397702 115.13327 
L 567.522475 118.508444 
L 568.647249 111.173998 
L 569.772022 107.690894 
L 570.896795 108.575819 
L 572.021568 107.714176 
L 573.146341 115.71335 
L 574.271115 125.76806 
L 575.395888 134.023616 
L 576.520661 149.814417 
L 577.645434 158.042585 
L 578.770208 143.74165 
L 579.894981 142.47349 
L 581.019754 132.45199 
L 582.144527 123.578922 
L 583.269301 116.449114 
L 584.394074 117.169139 
L 585.518847 113.159876 
L 586.64362 114.111903 
L 587.768393 107.893568 
L 588.893167 115.190503 
L 590.01794 110.529907 
L 591.142713 119.361283 
L 592.267486 126.885483 
L 593.39226 137.932236 
L 594.517033 150.187476 
L 595.641806 160.111852 
L 596.766579 148.552008 
L 597.891353 139.976243 
L 599.016126 126.687767 
L 600.140899 129.366129 
L 601.265672 121.839454 
L 602.390445 115.973774 
L 603.515219 115.759164 
L 604.639992 120.471286 
L 605.764765 110.790527 
L 606.889538 113.687884 
L 608.014312 102.232547 
L 609.139085 114.87943 
L 610.263858 121.507632 
L 612.513405 154.8952 
L 613.638178 155.1137 
L 614.762951 150.276395 
L 615.887724 137.578489 
L 618.137271 121.523173 
L 619.262044 116.373413 
L 620.386817 117.78724 
L 621.51159 112.300675 
L 622.636364 115.077344 
L 622.636364 115.077344 
" style="fill:none;stroke:#008000;stroke-linecap:square;"/>
   </g>
   <g id="patch_3">
    <path d="M 90 189 
L 90 25.92 
" style="fill:none;stroke:#000000;stroke-linecap:square;stroke-linejoin:miter;stroke-width:0.8;"/>
   </g>
   <g id="patch_4">
    <path d="M 648 189 
L 648 25.92 
" style="fill:none;stroke:#000000;stroke-linecap:square;stroke-linejoin:miter;stroke-width:0.8;"/>
   </g>
   <g id="patch_5">
    <path d="M 90 189 
L 648 189 
" style="fill:none;stroke:#000000;stroke-linecap:square;stroke-linejoin:miter;stroke-width:0.8;"/>
   </g>
   <g id="patch_6">
    <path d="M 90 25.92 
L 648 25.92 
" style="fill:none;stroke:#000000;stroke-linecap:square;stroke-linejoin:miter;stroke-width:0.8;"/>
   </g>
  </g>
 </g>
 <defs>
  <clipPath id="p4ff3dd663e">
   <rect height="163.08" width="558" x="90" y="25.92"/>
  </clipPath>
 </defs>
</svg>
