<?xml version="1.0" encoding="utf-8" standalone="no"?>
<!DOCTYPE svg PUBLIC "-//W3C//DTD SVG 1.1//EN"
  "http://www.w3.org/Graphics/SVG/1.1/DTD/svg11.dtd">
<!-- Created with matplotlib (https://matplotlib.org/) -->
<svg height="216pt" version="1.1" viewBox="0 0 720 216" width="720pt" xmlns="http://www.w3.org/2000/svg" xmlns:xlink="http://www.w3.org/1999/xlink">
 <defs>
  <style type="text/css">
*{stroke-linecap:butt;stroke-linejoin:round;}
  </style>
 </defs>
 <g id="figure_1">
  <g id="patch_1">
   <path d="M 0 216 
L 720 216 
L 720 0 
L 0 0 
z
" style="fill:none;"/>
  </g>
  <g id="axes_1">
   <g id="patch_2">
    <path d="M 90 189 
L 648 189 
L 648 25.92 
L 90 25.92 
z
" style="fill:none;"/>
   </g>
   <g id="matplotlib.axis_1">
    <g id="xtick_1">
     <g id="line2d_1">
      <defs>
       <path d="M 0 0 
L 0 3.5 
" id="m860280da1f" style="stroke:#000000;stroke-width:0.8;"/>
      </defs>
      <g>
       <use style="stroke:#000000;stroke-width:0.8;" x="115.363636" xlink:href="#m860280da1f" y="189"/>
      </g>
     </g>
     <g id="text_1">
      <!-- 0 -->
      <defs>
       <path d="M 31.78125 66.40625 
Q 24.171875 66.40625 20.328125 58.90625 
Q 16.5 51.421875 16.5 36.375 
Q 16.5 21.390625 20.328125 13.890625 
Q 24.171875 6.390625 31.78125 6.390625 
Q 39.453125 6.390625 43.28125 13.890625 
Q 47.125 21.390625 47.125 36.375 
Q 47.125 51.421875 43.28125 58.90625 
Q 39.453125 66.40625 31.78125 66.40625 
z
M 31.78125 74.21875 
Q 44.046875 74.21875 50.515625 64.515625 
Q 56.984375 54.828125 56.984375 36.375 
Q 56.984375 17.96875 50.515625 8.265625 
Q 44.046875 -1.421875 31.78125 -1.421875 
Q 19.53125 -1.421875 13.0625 8.265625 
Q 6.59375 17.96875 6.59375 36.375 
Q 6.59375 54.828125 13.0625 64.515625 
Q 19.53125 74.21875 31.78125 74.21875 
z
" id="DejaVuSans-48"/>
      </defs>
      <g transform="translate(112.182386 203.598437)scale(0.1 -0.1)">
       <use xlink:href="#DejaVuSans-48"/>
      </g>
     </g>
    </g>
    <g id="xtick_2">
     <g id="line2d_2">
      <g>
       <use style="stroke:#000000;stroke-width:0.8;" x="202.225405" xlink:href="#m860280da1f" y="189"/>
      </g>
     </g>
     <g id="text_2">
      <!-- 100 -->
      <defs>
       <path d="M 12.40625 8.296875 
L 28.515625 8.296875 
L 28.515625 63.921875 
L 10.984375 60.40625 
L 10.984375 69.390625 
L 28.421875 72.90625 
L 38.28125 72.90625 
L 38.28125 8.296875 
L 54.390625 8.296875 
L 54.390625 0 
L 12.40625 0 
z
" id="DejaVuSans-49"/>
      </defs>
      <g transform="translate(192.681655 203.598437)scale(0.1 -0.1)">
       <use xlink:href="#DejaVuSans-49"/>
       <use x="63.623047" xlink:href="#DejaVuSans-48"/>
       <use x="127.246094" xlink:href="#DejaVuSans-48"/>
      </g>
     </g>
    </g>
    <g id="xtick_3">
     <g id="line2d_3">
      <g>
       <use style="stroke:#000000;stroke-width:0.8;" x="289.087173" xlink:href="#m860280da1f" y="189"/>
      </g>
     </g>
     <g id="text_3">
      <!-- 200 -->
      <defs>
       <path d="M 19.1875 8.296875 
L 53.609375 8.296875 
L 53.609375 0 
L 7.328125 0 
L 7.328125 8.296875 
Q 12.9375 14.109375 22.625 23.890625 
Q 32.328125 33.6875 34.8125 36.53125 
Q 39.546875 41.84375 41.421875 45.53125 
Q 43.3125 49.21875 43.3125 52.78125 
Q 43.3125 58.59375 39.234375 62.25 
Q 35.15625 65.921875 28.609375 65.921875 
Q 23.96875 65.921875 18.8125 64.3125 
Q 13.671875 62.703125 7.8125 59.421875 
L 7.8125 69.390625 
Q 13.765625 71.78125 18.9375 73 
Q 24.125 74.21875 28.421875 74.21875 
Q 39.75 74.21875 46.484375 68.546875 
Q 53.21875 62.890625 53.21875 53.421875 
Q 53.21875 48.921875 51.53125 44.890625 
Q 49.859375 40.875 45.40625 35.40625 
Q 44.1875 33.984375 37.640625 27.21875 
Q 31.109375 20.453125 19.1875 8.296875 
z
" id="DejaVuSans-50"/>
      </defs>
      <g transform="translate(279.543423 203.598437)scale(0.1 -0.1)">
       <use xlink:href="#DejaVuSans-50"/>
       <use x="63.623047" xlink:href="#DejaVuSans-48"/>
       <use x="127.246094" xlink:href="#DejaVuSans-48"/>
      </g>
     </g>
    </g>
    <g id="xtick_4">
     <g id="line2d_4">
      <g>
       <use style="stroke:#000000;stroke-width:0.8;" x="375.948941" xlink:href="#m860280da1f" y="189"/>
      </g>
     </g>
     <g id="text_4">
      <!-- 300 -->
      <defs>
       <path d="M 40.578125 39.3125 
Q 47.65625 37.796875 51.625 33 
Q 55.609375 28.21875 55.609375 21.1875 
Q 55.609375 10.40625 48.1875 4.484375 
Q 40.765625 -1.421875 27.09375 -1.421875 
Q 22.515625 -1.421875 17.65625 -0.515625 
Q 12.796875 0.390625 7.625 2.203125 
L 7.625 11.71875 
Q 11.71875 9.328125 16.59375 8.109375 
Q 21.484375 6.890625 26.8125 6.890625 
Q 36.078125 6.890625 40.9375 10.546875 
Q 45.796875 14.203125 45.796875 21.1875 
Q 45.796875 27.640625 41.28125 31.265625 
Q 36.765625 34.90625 28.71875 34.90625 
L 20.21875 34.90625 
L 20.21875 43.015625 
L 29.109375 43.015625 
Q 36.375 43.015625 40.234375 45.921875 
Q 44.09375 48.828125 44.09375 54.296875 
Q 44.09375 59.90625 40.109375 62.90625 
Q 36.140625 65.921875 28.71875 65.921875 
Q 24.65625 65.921875 20.015625 65.03125 
Q 15.375 64.15625 9.8125 62.3125 
L 9.8125 71.09375 
Q 15.4375 72.65625 20.34375 73.4375 
Q 25.25 74.21875 29.59375 74.21875 
Q 40.828125 74.21875 47.359375 69.109375 
Q 53.90625 64.015625 53.90625 55.328125 
Q 53.90625 49.265625 50.4375 45.09375 
Q 46.96875 40.921875 40.578125 39.3125 
z
" id="DejaVuSans-51"/>
      </defs>
      <g transform="translate(366.405191 203.598437)scale(0.1 -0.1)">
       <use xlink:href="#DejaVuSans-51"/>
       <use x="63.623047" xlink:href="#DejaVuSans-48"/>
       <use x="127.246094" xlink:href="#DejaVuSans-48"/>
      </g>
     </g>
    </g>
    <g id="xtick_5">
     <g id="line2d_5">
      <g>
       <use style="stroke:#000000;stroke-width:0.8;" x="462.81071" xlink:href="#m860280da1f" y="189"/>
      </g>
     </g>
     <g id="text_5">
      <!-- 400 -->
      <defs>
       <path d="M 37.796875 64.3125 
L 12.890625 25.390625 
L 37.796875 25.390625 
z
M 35.203125 72.90625 
L 47.609375 72.90625 
L 47.609375 25.390625 
L 58.015625 25.390625 
L 58.015625 17.1875 
L 47.609375 17.1875 
L 47.609375 0 
L 37.796875 0 
L 37.796875 17.1875 
L 4.890625 17.1875 
L 4.890625 26.703125 
z
" id="DejaVuSans-52"/>
      </defs>
      <g transform="translate(453.26696 203.598437)scale(0.1 -0.1)">
       <use xlink:href="#DejaVuSans-52"/>
       <use x="63.623047" xlink:href="#DejaVuSans-48"/>
       <use x="127.246094" xlink:href="#DejaVuSans-48"/>
      </g>
     </g>
    </g>
    <g id="xtick_6">
     <g id="line2d_6">
      <g>
       <use style="stroke:#000000;stroke-width:0.8;" x="549.672478" xlink:href="#m860280da1f" y="189"/>
      </g>
     </g>
     <g id="text_6">
      <!-- 500 -->
      <defs>
       <path d="M 10.796875 72.90625 
L 49.515625 72.90625 
L 49.515625 64.59375 
L 19.828125 64.59375 
L 19.828125 46.734375 
Q 21.96875 47.46875 24.109375 47.828125 
Q 26.265625 48.1875 28.421875 48.1875 
Q 40.625 48.1875 47.75 41.5 
Q 54.890625 34.8125 54.890625 23.390625 
Q 54.890625 11.625 47.5625 5.09375 
Q 40.234375 -1.421875 26.90625 -1.421875 
Q 22.3125 -1.421875 17.546875 -0.640625 
Q 12.796875 0.140625 7.71875 1.703125 
L 7.71875 11.625 
Q 12.109375 9.234375 16.796875 8.0625 
Q 21.484375 6.890625 26.703125 6.890625 
Q 35.15625 6.890625 40.078125 11.328125 
Q 45.015625 15.765625 45.015625 23.390625 
Q 45.015625 31 40.078125 35.4375 
Q 35.15625 39.890625 26.703125 39.890625 
Q 22.75 39.890625 18.8125 39.015625 
Q 14.890625 38.140625 10.796875 36.28125 
z
" id="DejaVuSans-53"/>
      </defs>
      <g transform="translate(540.128728 203.598437)scale(0.1 -0.1)">
       <use xlink:href="#DejaVuSans-53"/>
       <use x="63.623047" xlink:href="#DejaVuSans-48"/>
       <use x="127.246094" xlink:href="#DejaVuSans-48"/>
      </g>
     </g>
    </g>
    <g id="xtick_7">
     <g id="line2d_7">
      <g>
       <use style="stroke:#000000;stroke-width:0.8;" x="636.534247" xlink:href="#m860280da1f" y="189"/>
      </g>
     </g>
     <g id="text_7">
      <!-- 600 -->
      <defs>
       <path d="M 33.015625 40.375 
Q 26.375 40.375 22.484375 35.828125 
Q 18.609375 31.296875 18.609375 23.390625 
Q 18.609375 15.53125 22.484375 10.953125 
Q 26.375 6.390625 33.015625 6.390625 
Q 39.65625 6.390625 43.53125 10.953125 
Q 47.40625 15.53125 47.40625 23.390625 
Q 47.40625 31.296875 43.53125 35.828125 
Q 39.65625 40.375 33.015625 40.375 
z
M 52.59375 71.296875 
L 52.59375 62.3125 
Q 48.875 64.0625 45.09375 64.984375 
Q 41.3125 65.921875 37.59375 65.921875 
Q 27.828125 65.921875 22.671875 59.328125 
Q 17.53125 52.734375 16.796875 39.40625 
Q 19.671875 43.65625 24.015625 45.921875 
Q 28.375 48.1875 33.59375 48.1875 
Q 44.578125 48.1875 50.953125 41.515625 
Q 57.328125 34.859375 57.328125 23.390625 
Q 57.328125 12.15625 50.6875 5.359375 
Q 44.046875 -1.421875 33.015625 -1.421875 
Q 20.359375 -1.421875 13.671875 8.265625 
Q 6.984375 17.96875 6.984375 36.375 
Q 6.984375 53.65625 15.1875 63.9375 
Q 23.390625 74.21875 37.203125 74.21875 
Q 40.921875 74.21875 44.703125 73.484375 
Q 48.484375 72.75 52.59375 71.296875 
z
" id="DejaVuSans-54"/>
      </defs>
      <g transform="translate(626.990497 203.598437)scale(0.1 -0.1)">
       <use xlink:href="#DejaVuSans-54"/>
       <use x="63.623047" xlink:href="#DejaVuSans-48"/>
       <use x="127.246094" xlink:href="#DejaVuSans-48"/>
      </g>
     </g>
    </g>
   </g>
   <g id="matplotlib.axis_2">
    <g id="ytick_1">
     <g id="line2d_8">
      <defs>
       <path d="M 0 0 
L -3.5 0 
" id="mc92d4fae31" style="stroke:#000000;stroke-width:0.8;"/>
      </defs>
      <g>
       <use style="stroke:#000000;stroke-width:0.8;" x="90" xlink:href="#mc92d4fae31" y="189"/>
      </g>
     </g>
     <g id="text_8">
      <!-- −2.0 -->
      <defs>
       <path d="M 10.59375 35.5 
L 73.1875 35.5 
L 73.1875 27.203125 
L 10.59375 27.203125 
z
" id="DejaVuSans-8722"/>
       <path d="M 10.6875 12.40625 
L 21 12.40625 
L 21 0 
L 10.6875 0 
z
" id="DejaVuSans-46"/>
      </defs>
      <g transform="translate(58.717187 192.799219)scale(0.1 -0.1)">
       <use xlink:href="#DejaVuSans-8722"/>
       <use x="83.789062" xlink:href="#DejaVuSans-50"/>
       <use x="147.412109" xlink:href="#DejaVuSans-46"/>
       <use x="179.199219" xlink:href="#DejaVuSans-48"/>
      </g>
     </g>
    </g>
    <g id="ytick_2">
     <g id="line2d_9">
      <g>
       <use style="stroke:#000000;stroke-width:0.8;" x="90" xlink:href="#mc92d4fae31" y="168.615"/>
      </g>
     </g>
     <g id="text_9">
      <!-- −1.5 -->
      <g transform="translate(58.717187 172.414219)scale(0.1 -0.1)">
       <use xlink:href="#DejaVuSans-8722"/>
       <use x="83.789062" xlink:href="#DejaVuSans-49"/>
       <use x="147.412109" xlink:href="#DejaVuSans-46"/>
       <use x="179.199219" xlink:href="#DejaVuSans-53"/>
      </g>
     </g>
    </g>
    <g id="ytick_3">
     <g id="line2d_10">
      <g>
       <use style="stroke:#000000;stroke-width:0.8;" x="90" xlink:href="#mc92d4fae31" y="148.23"/>
      </g>
     </g>
     <g id="text_10">
      <!-- −1.0 -->
      <g transform="translate(58.717187 152.029219)scale(0.1 -0.1)">
       <use xlink:href="#DejaVuSans-8722"/>
       <use x="83.789062" xlink:href="#DejaVuSans-49"/>
       <use x="147.412109" xlink:href="#DejaVuSans-46"/>
       <use x="179.199219" xlink:href="#DejaVuSans-48"/>
      </g>
     </g>
    </g>
    <g id="ytick_4">
     <g id="line2d_11">
      <g>
       <use style="stroke:#000000;stroke-width:0.8;" x="90" xlink:href="#mc92d4fae31" y="127.845"/>
      </g>
     </g>
     <g id="text_11">
      <!-- −0.5 -->
      <g transform="translate(58.717187 131.644219)scale(0.1 -0.1)">
       <use xlink:href="#DejaVuSans-8722"/>
       <use x="83.789062" xlink:href="#DejaVuSans-48"/>
       <use x="147.412109" xlink:href="#DejaVuSans-46"/>
       <use x="179.199219" xlink:href="#DejaVuSans-53"/>
      </g>
     </g>
    </g>
    <g id="ytick_5">
     <g id="line2d_12">
      <g>
       <use style="stroke:#000000;stroke-width:0.8;" x="90" xlink:href="#mc92d4fae31" y="107.46"/>
      </g>
     </g>
     <g id="text_12">
      <!-- 0.0 -->
      <g transform="translate(67.096875 111.259219)scale(0.1 -0.1)">
       <use xlink:href="#DejaVuSans-48"/>
       <use x="63.623047" xlink:href="#DejaVuSans-46"/>
       <use x="95.410156" xlink:href="#DejaVuSans-48"/>
      </g>
     </g>
    </g>
    <g id="ytick_6">
     <g id="line2d_13">
      <g>
       <use style="stroke:#000000;stroke-width:0.8;" x="90" xlink:href="#mc92d4fae31" y="87.075"/>
      </g>
     </g>
     <g id="text_13">
      <!-- 0.5 -->
      <g transform="translate(67.096875 90.874219)scale(0.1 -0.1)">
       <use xlink:href="#DejaVuSans-48"/>
       <use x="63.623047" xlink:href="#DejaVuSans-46"/>
       <use x="95.410156" xlink:href="#DejaVuSans-53"/>
      </g>
     </g>
    </g>
    <g id="ytick_7">
     <g id="line2d_14">
      <g>
       <use style="stroke:#000000;stroke-width:0.8;" x="90" xlink:href="#mc92d4fae31" y="66.69"/>
      </g>
     </g>
     <g id="text_14">
      <!-- 1.0 -->
      <g transform="translate(67.096875 70.489219)scale(0.1 -0.1)">
       <use xlink:href="#DejaVuSans-49"/>
       <use x="63.623047" xlink:href="#DejaVuSans-46"/>
       <use x="95.410156" xlink:href="#DejaVuSans-48"/>
      </g>
     </g>
    </g>
    <g id="ytick_8">
     <g id="line2d_15">
      <g>
       <use style="stroke:#000000;stroke-width:0.8;" x="90" xlink:href="#mc92d4fae31" y="46.305"/>
      </g>
     </g>
     <g id="text_15">
      <!-- 1.5 -->
      <g transform="translate(67.096875 50.104219)scale(0.1 -0.1)">
       <use xlink:href="#DejaVuSans-49"/>
       <use x="63.623047" xlink:href="#DejaVuSans-46"/>
       <use x="95.410156" xlink:href="#DejaVuSans-53"/>
      </g>
     </g>
    </g>
    <g id="ytick_9">
     <g id="line2d_16">
      <g>
       <use style="stroke:#000000;stroke-width:0.8;" x="90" xlink:href="#mc92d4fae31" y="25.92"/>
      </g>
     </g>
     <g id="text_16">
      <!-- 2.0 -->
      <g transform="translate(67.096875 29.719219)scale(0.1 -0.1)">
       <use xlink:href="#DejaVuSans-50"/>
       <use x="63.623047" xlink:href="#DejaVuSans-46"/>
       <use x="95.410156" xlink:href="#DejaVuSans-48"/>
      </g>
     </g>
    </g>
   </g>
   <g id="line2d_17">
    <path clip-path="url(#p76e8b5139c)" d="M 115.363636 104.079861 
L 116.232254 104.522267 
L 117.100872 110.631758 
L 117.969489 104.450913 
L 118.838107 110.407172 
L 119.706725 106.742162 
L 120.575342 108.085756 
L 121.44396 109.748648 
L 122.312578 107.242283 
L 123.181196 103.685865 
L 124.049813 106.685392 
L 124.918431 103.981616 
L 125.787049 109.046556 
L 126.655666 105.026364 
L 127.524284 112.671663 
L 128.392902 108.511287 
L 129.261519 108.453429 
L 130.130137 114.894614 
L 130.998755 104.75616 
L 131.867372 103.424059 
L 132.73599 105.713801 
L 133.604608 106.524696 
L 134.473225 111.921413 
L 135.341843 111.357854 
L 136.210461 110.427593 
L 137.079078 112.293831 
L 137.947696 109.275331 
L 138.816314 105.234813 
L 139.684932 105.99663 
L 140.553549 100.195485 
L 141.422167 112.854564 
L 142.290785 106.461592 
L 143.159402 104.804522 
L 144.02802 106.772348 
L 144.896638 107.276096 
L 145.765255 105.817892 
L 146.633873 107.411412 
L 147.502491 107.599593 
L 148.371108 103.945327 
L 149.239726 104.431982 
L 150.108344 104.564071 
L 150.976961 109.21424 
L 151.845579 109.886514 
L 152.714197 108.012304 
L 153.582814 108.983349 
L 154.451432 111.853921 
L 155.32005 106.287399 
L 156.188667 108.254024 
L 157.057285 107.84266 
L 158.794521 107.561776 
L 159.663138 108.573568 
L 160.531756 105.200305 
L 161.400374 107.330509 
L 162.268991 110.657625 
L 163.137609 101.669401 
L 164.006227 104.256023 
L 164.874844 100.753805 
L 165.743462 108.164768 
L 166.61208 110.813031 
L 167.480697 106.68809 
L 168.349315 104.166245 
L 169.217933 113.240956 
L 170.08655 111.654235 
L 170.955168 108.91636 
L 171.823786 103.221741 
L 172.692403 107.187102 
L 173.561021 109.039871 
L 174.429639 103.751376 
L 175.298257 105.503966 
L 176.166874 104.199562 
L 177.035492 108.025223 
L 177.90411 109.476635 
L 178.772727 102.895723 
L 179.641345 106.775914 
L 180.509963 107.909142 
L 181.37858 104.388823 
L 182.247198 111.095442 
L 183.115816 106.387715 
L 183.984433 108.719008 
L 184.853051 115.314775 
L 185.721669 110.44516 
L 186.590286 113.266721 
L 187.458904 106.561638 
L 188.327522 111.839207 
L 189.196139 106.666664 
L 190.064757 106.809289 
L 190.933375 108.590758 
L 191.801993 102.779835 
L 192.67061 112.236414 
L 193.539228 108.877056 
L 194.407846 112.794633 
L 195.276463 107.032044 
L 196.145081 109.518638 
L 197.013699 103.913767 
L 197.882316 109.335819 
L 198.750934 114.007599 
L 199.619552 105.403799 
L 200.488169 105.376628 
L 201.356787 109.719536 
L 202.225405 108.290767 
L 203.094022 104.043313 
L 203.96264 104.558896 
L 204.831258 108.15632 
L 205.699875 110.435344 
L 206.568493 104.77484 
L 207.437111 104.807586 
L 208.305729 104.292547 
L 209.174346 112.341626 
L 210.042964 105.175026 
L 210.911582 106.846329 
L 211.780199 104.836924 
L 212.648817 112.980709 
L 213.517435 104.914305 
L 214.386052 104.557328 
L 215.25467 112.771956 
L 216.123288 108.875873 
L 216.991905 109.225682 
L 217.860523 114.672286 
L 218.729141 110.122723 
L 219.597758 102.17211 
L 220.466376 105.359261 
L 221.334994 110.09359 
L 222.203611 108.845726 
L 223.072229 106.516316 
L 223.940847 105.179293 
L 224.809465 106.359402 
L 225.678082 108.180469 
L 226.5467 107.742903 
L 227.415318 113.839796 
L 228.283935 110.885289 
L 229.152553 114.934287 
L 230.021171 111.775937 
L 230.889788 111.739884 
L 231.758406 105.64105 
L 232.627024 109.698287 
L 233.495641 109.071693 
L 234.364259 107.330789 
L 235.232877 110.754374 
L 236.101494 101.877681 
L 236.970112 107.132152 
L 237.83873 104.125872 
L 238.707347 107.941353 
L 239.575965 105.002369 
L 240.444583 108.442762 
L 241.3132 108.099466 
L 242.181818 109.594068 
L 243.050436 105.725368 
L 243.919054 103.234762 
L 244.787671 110.660248 
L 245.656289 108.552753 
L 246.524907 107.618035 
L 247.393524 111.092978 
L 248.262142 106.294647 
L 249.13076 104.930227 
L 249.999377 107.191518 
L 251.736613 112.767851 
L 252.60523 107.295534 
L 253.473848 107.564295 
L 254.342466 107.703706 
L 255.211083 109.523793 
L 256.079701 101.620539 
L 256.948319 110.501685 
L 257.816936 106.13817 
L 258.685554 114.151367 
L 259.554172 114.037354 
L 260.42279 106.605166 
L 261.291407 107.150442 
L 262.160025 104.683375 
L 263.028643 107.090698 
L 263.89726 102.978278 
L 264.765878 112.316488 
L 265.634496 109.304708 
L 266.503113 111.0806 
L 267.371731 106.663265 
L 268.240349 105.419793 
L 269.108966 103.235908 
L 269.977584 112.478605 
L 270.846202 112.153061 
L 271.714819 110.416062 
L 272.583437 115.327618 
L 273.452055 108.935241 
L 274.320672 112.721946 
L 275.18929 111.15602 
L 276.057908 108.870219 
L 276.926526 105.400957 
L 277.795143 107.336141 
L 278.663761 104.518055 
L 279.532379 108.135363 
L 280.400996 106.634981 
L 281.269614 104.801951 
L 282.138232 113.016536 
L 283.006849 108.928168 
L 283.875467 105.528675 
L 284.744085 109.512691 
L 285.612702 108.97185 
L 286.48132 111.705634 
L 287.349938 109.592165 
L 288.218555 105.860225 
L 289.087173 109.798602 
L 289.955791 108.858891 
L 290.824408 110.525233 
L 291.693026 103.439931 
L 292.561644 108.096932 
L 293.430262 108.234077 
L 294.298879 109.209528 
L 295.167497 102.586518 
L 296.036115 105.10615 
L 296.904732 107.158884 
L 297.77335 110.458503 
L 298.641968 106.622154 
L 299.510585 111.003067 
L 300.379203 104.954885 
L 301.247821 110.628434 
L 302.116438 103.827635 
L 302.985056 105.30397 
L 303.853674 105.938415 
L 304.722291 108.870404 
L 305.590909 116.176166 
L 306.459527 106.596619 
L 307.328144 103.69483 
L 308.196762 112.955561 
L 309.06538 107.810041 
L 309.933998 106.595836 
L 310.802615 104.598841 
L 311.671233 109.542066 
L 312.539851 113.179272 
L 313.408468 102.815 
L 314.277086 108.047771 
L 315.145704 105.87204 
L 316.014321 106.127416 
L 316.882939 109.473432 
L 317.751557 104.603618 
L 318.620174 110.348323 
L 319.488792 107.412655 
L 320.35741 106.335868 
L 321.226027 117.389258 
L 322.094645 111.302059 
L 322.963263 103.685496 
L 323.83188 109.293339 
L 324.700498 99.951076 
L 325.569116 103.488286 
L 326.437733 109.119779 
L 327.306351 113.13903 
L 328.174969 107.047903 
L 329.043587 111.757536 
L 329.912204 110.638908 
L 330.780822 113.80814 
L 331.64944 106.082105 
L 332.518057 103.355865 
L 333.386675 109.291713 
L 334.255293 111.465501 
L 335.12391 105.227685 
L 335.992528 111.035238 
L 336.861146 112.371241 
L 337.729763 102.947175 
L 338.598381 111.092829 
L 339.466999 106.732713 
L 340.335616 110.58417 
L 341.204234 107.486905 
L 342.072852 105.408771 
L 342.941469 109.35003 
L 343.810087 104.420577 
L 344.678705 109.665528 
L 345.547323 117.657565 
L 346.41594 107.783667 
L 347.284558 108.159484 
L 348.153176 103.673849 
L 349.021793 105.124581 
L 349.890411 108.88363 
L 350.759029 109.284659 
L 351.627646 108.911959 
L 352.496264 108.256004 
L 353.364882 110.804821 
L 354.233499 107.611855 
L 355.102117 109.712073 
L 355.970735 105.068242 
L 356.839352 107.704031 
L 357.70797 109.420382 
L 358.576588 104.530771 
L 360.313823 111.18917 
L 361.182441 104.393922 
L 362.051059 108.042983 
L 362.919676 108.434521 
L 363.788294 101.824707 
L 364.656912 111.270699 
L 365.525529 105.132 
L 366.394147 108.909257 
L 367.262765 104.831748 
L 368.131382 104.053373 
L 369 109.345127 
L 369.868618 106.598423 
L 370.737235 107.744212 
L 371.605853 112.970299 
L 372.474471 106.164401 
L 373.343088 108.894485 
L 374.211706 105.62182 
L 375.080324 106.740567 
L 375.948941 109.142542 
L 376.817559 105.111701 
L 377.686177 113.863527 
L 378.554795 108.501918 
L 379.423412 108.414938 
L 380.29203 107.010084 
L 381.160648 110.16516 
L 382.029265 107.612488 
L 382.897883 108.579292 
L 383.766501 108.054993 
L 384.635118 110.31968 
L 385.503736 109.296099 
L 386.372354 106.163067 
L 387.240971 107.201617 
L 388.109589 110.285612 
L 388.978207 110.960113 
L 389.846824 109.142511 
L 390.715442 113.930333 
L 391.58406 103.895629 
L 392.452677 106.534804 
L 393.321295 107.773356 
L 394.189913 103.008568 
L 395.058531 114.96693 
L 395.927148 105.073911 
L 396.795766 113.957929 
L 397.664384 106.675004 
L 398.533001 107.308117 
L 399.401619 110.434114 
L 400.270237 111.773956 
L 401.138854 104.018607 
L 402.007472 115.258928 
L 402.87609 108.554049 
L 403.744707 107.821525 
L 404.613325 104.400367 
L 406.35056 112.237074 
L 407.219178 111.428297 
L 408.087796 108.338667 
L 408.956413 108.37791 
L 409.825031 107.507722 
L 410.693649 112.980929 
L 411.562267 109.013326 
L 412.430884 106.95519 
L 413.299502 108.074812 
L 414.16812 105.348475 
L 415.036737 101.301979 
L 415.905355 110.284447 
L 416.773973 103.685125 
L 418.511208 111.425967 
L 419.379826 108.12159 
L 420.248443 110.879522 
L 421.117061 108.950765 
L 421.985679 108.26396 
L 422.854296 105.256364 
L 423.722914 108.345515 
L 424.591532 101.674813 
L 425.460149 108.481824 
L 426.328767 109.846182 
L 427.197385 110.077684 
L 428.066002 106.919718 
L 428.93462 114.385281 
L 429.803238 107.716521 
L 430.671856 106.525091 
L 431.540473 113.244688 
L 432.409091 109.00059 
L 433.277709 105.864137 
L 434.146326 114.081362 
L 435.014944 102.855673 
L 435.883562 106.755498 
L 436.752179 112.817901 
L 437.620797 104.45147 
L 438.489415 107.902889 
L 439.358032 105.08095 
L 440.22665 106.133783 
L 441.095268 108.495893 
L 441.963885 99.949435 
L 442.832503 109.571143 
L 443.701121 110.263741 
L 444.569738 104.550564 
L 445.438356 111.294893 
L 446.306974 110.570994 
L 447.175592 107.382158 
L 448.044209 102.994603 
L 448.912827 111.888548 
L 449.781445 110.180334 
L 450.650062 106.565662 
L 451.51868 112.793811 
L 452.387298 106.903733 
L 453.255915 108.190922 
L 454.124533 106.930293 
L 454.993151 102.204532 
L 455.861768 103.163564 
L 456.730386 107.085261 
L 457.599004 107.943167 
L 458.467621 104.201636 
L 459.336239 102.488649 
L 460.204857 100.081959 
L 461.073474 106.964778 
L 461.942092 106.117102 
L 462.81071 109.339 
L 463.679328 110.930489 
L 464.547945 100.911302 
L 465.416563 106.021414 
L 466.285181 105.797759 
L 467.153798 112.24827 
L 468.022416 110.660023 
L 468.891034 106.274873 
L 469.759651 108.113136 
L 470.628269 107.383498 
L 471.496887 110.798096 
L 472.365504 109.985072 
L 473.234122 107.491104 
L 474.10274 105.945505 
L 474.971357 107.340956 
L 475.839975 106.780835 
L 476.708593 108.003834 
L 477.57721 107.209163 
L 478.445828 108.789606 
L 479.314446 107.704535 
L 480.183064 109.191013 
L 481.051681 106.429065 
L 481.920299 111.302618 
L 482.788917 110.551947 
L 483.657534 107.940493 
L 484.526152 105.824967 
L 485.39477 104.582294 
L 486.263387 110.310736 
L 487.132005 108.947094 
L 488.000623 107.829334 
L 489.737858 104.780905 
L 490.606476 109.99853 
L 491.475093 107.203598 
L 492.343711 113.815055 
L 493.212329 110.724189 
L 494.080946 110.118719 
L 494.949564 103.905124 
L 495.818182 108.138945 
L 496.6868 105.916216 
L 497.555417 102.240624 
L 498.424035 112.893476 
L 499.292653 103.188068 
L 500.16127 107.528619 
L 501.898506 112.356501 
L 502.767123 112.088267 
L 503.635741 115.198244 
L 505.372976 109.112227 
L 506.241594 109.526555 
L 507.110212 103.364643 
L 507.978829 106.697351 
L 508.847447 112.841636 
L 509.716065 101.859434 
L 510.584682 107.869364 
L 511.4533 105.10379 
L 512.321918 108.745829 
L 513.190535 109.22486 
L 514.059153 110.311158 
L 515.796389 105.728629 
L 516.665006 107.107336 
L 517.533624 104.995497 
L 518.402242 108.595828 
L 519.270859 100.347251 
L 520.139477 112.283594 
L 521.008095 109.659603 
L 521.876712 105.354581 
L 522.74533 104.247082 
L 523.613948 108.566229 
L 524.482565 106.281762 
L 525.351183 111.785815 
L 527.088418 104.051657 
L 527.957036 107.636373 
L 528.825654 105.720664 
L 529.694271 106.288287 
L 530.562889 108.806524 
L 531.431507 104.784432 
L 532.300125 112.25735 
L 533.168742 105.752018 
L 534.03736 104.531285 
L 534.905978 109.603133 
L 535.774595 113.702561 
L 536.643213 105.252866 
L 537.511831 104.126469 
L 538.380448 105.506402 
L 539.249066 110.390236 
L 540.117684 112.685924 
L 541.854919 107.067378 
L 542.723537 111.69294 
L 543.592154 110.933654 
L 544.460772 105.030089 
L 545.32939 112.425872 
L 546.198007 104.237725 
L 547.066625 111.823065 
L 547.935243 110.702128 
L 548.803861 109.241789 
L 549.672478 99.946143 
L 550.541096 107.887557 
L 551.409714 109.519827 
L 552.278331 114.491131 
L 553.146949 103.479958 
L 554.015567 106.352151 
L 554.884184 104.890494 
L 555.752802 102.06673 
L 556.62142 108.910542 
L 557.490037 110.21117 
L 558.358655 101.539112 
L 559.227273 107.205645 
L 560.09589 105.23742 
L 560.964508 110.92452 
L 561.833126 107.983545 
L 562.701743 113.420286 
L 563.570361 104.017548 
L 564.438979 111.530106 
L 565.307597 109.492492 
L 566.176214 111.266714 
L 567.044832 103.145364 
L 567.91345 108.720304 
L 568.782067 112.881353 
L 569.650685 105.879705 
L 570.519303 110.48077 
L 571.38792 105.268443 
L 572.256538 105.624732 
L 573.125156 108.751698 
L 573.993773 106.162029 
L 574.862391 108.385107 
L 575.731009 105.864266 
L 576.599626 109.303166 
L 577.468244 109.321969 
L 578.336862 107.245343 
L 579.205479 106.100047 
L 580.074097 107.658011 
L 580.942715 108.071486 
L 581.811333 104.210233 
L 582.67995 103.886602 
L 583.548568 103.139469 
L 584.417186 103.15553 
L 585.285803 106.908394 
L 586.154421 102.321389 
L 587.023039 108.647633 
L 587.891656 110.348289 
L 588.760274 108.244872 
L 589.628892 109.868024 
L 590.497509 103.307576 
L 591.366127 109.512542 
L 592.234745 113.099476 
L 593.103362 108.617569 
L 593.97198 101.941296 
L 594.840598 101.708419 
L 595.709215 107.303868 
L 596.577833 104.430175 
L 597.446451 114.275596 
L 598.315068 112.636246 
L 599.183686 103.92236 
L 600.052304 113.337099 
L 600.920922 106.947368 
L 601.789539 104.108965 
L 602.658157 103.872716 
L 603.526775 107.014713 
L 604.395392 104.277978 
L 605.26401 106.442741 
L 606.132628 112.799025 
L 607.001245 100.141865 
L 607.869863 108.607618 
L 608.738481 108.886579 
L 609.607098 109.360272 
L 610.475716 110.084709 
L 612.212951 106.625928 
L 613.081569 116.408789 
L 613.950187 112.155536 
L 614.818804 109.276153 
L 615.687422 107.526702 
L 616.55604 114.179903 
L 617.424658 109.59106 
L 618.293275 110.952815 
L 619.161893 103.561093 
L 620.030511 106.760577 
L 620.899128 108.038661 
L 621.767746 114.088147 
L 622.636364 109.033967 
L 622.636364 109.033967 
" style="fill:none;stroke:#008000;stroke-linecap:square;"/>
   </g>
   <g id="patch_3">
    <path d="M 90 189 
L 90 25.92 
" style="fill:none;stroke:#000000;stroke-linecap:square;stroke-linejoin:miter;stroke-width:0.8;"/>
   </g>
   <g id="patch_4">
    <path d="M 648 189 
L 648 25.92 
" style="fill:none;stroke:#000000;stroke-linecap:square;stroke-linejoin:miter;stroke-width:0.8;"/>
   </g>
   <g id="patch_5">
    <path d="M 90 189 
L 648 189 
" style="fill:none;stroke:#000000;stroke-linecap:square;stroke-linejoin:miter;stroke-width:0.8;"/>
   </g>
   <g id="patch_6">
    <path d="M 90 25.92 
L 648 25.92 
" style="fill:none;stroke:#000000;stroke-linecap:square;stroke-linejoin:miter;stroke-width:0.8;"/>
   </g>
   <g id="text_17">
    <!-- PC1:0.26, PC2:-0.43 -->
    <defs>
     <path d="M 19.671875 64.796875 
L 19.671875 37.40625 
L 32.078125 37.40625 
Q 38.96875 37.40625 42.71875 40.96875 
Q 46.484375 44.53125 46.484375 51.125 
Q 46.484375 57.671875 42.71875 61.234375 
Q 38.96875 64.796875 32.078125 64.796875 
z
M 9.8125 72.90625 
L 32.078125 72.90625 
Q 44.34375 72.90625 50.609375 67.359375 
Q 56.890625 61.8125 56.890625 51.125 
Q 56.890625 40.328125 50.609375 34.8125 
Q 44.34375 29.296875 32.078125 29.296875 
L 19.671875 29.296875 
L 19.671875 0 
L 9.8125 0 
z
" id="DejaVuSans-80"/>
     <path d="M 64.40625 67.28125 
L 64.40625 56.890625 
Q 59.421875 61.53125 53.78125 63.8125 
Q 48.140625 66.109375 41.796875 66.109375 
Q 29.296875 66.109375 22.65625 58.46875 
Q 16.015625 50.828125 16.015625 36.375 
Q 16.015625 21.96875 22.65625 14.328125 
Q 29.296875 6.6875 41.796875 6.6875 
Q 48.140625 6.6875 53.78125 8.984375 
Q 59.421875 11.28125 64.40625 15.921875 
L 64.40625 5.609375 
Q 59.234375 2.09375 53.4375 0.328125 
Q 47.65625 -1.421875 41.21875 -1.421875 
Q 24.65625 -1.421875 15.125 8.703125 
Q 5.609375 18.84375 5.609375 36.375 
Q 5.609375 53.953125 15.125 64.078125 
Q 24.65625 74.21875 41.21875 74.21875 
Q 47.75 74.21875 53.53125 72.484375 
Q 59.328125 70.75 64.40625 67.28125 
z
" id="DejaVuSans-67"/>
     <path d="M 11.71875 12.40625 
L 22.015625 12.40625 
L 22.015625 0 
L 11.71875 0 
z
M 11.71875 51.703125 
L 22.015625 51.703125 
L 22.015625 39.3125 
L 11.71875 39.3125 
z
" id="DejaVuSans-58"/>
     <path d="M 11.71875 12.40625 
L 22.015625 12.40625 
L 22.015625 4 
L 14.015625 -11.625 
L 7.71875 -11.625 
L 11.71875 4 
z
" id="DejaVuSans-44"/>
     <path id="DejaVuSans-32"/>
     <path d="M 4.890625 31.390625 
L 31.203125 31.390625 
L 31.203125 23.390625 
L 4.890625 23.390625 
z
" id="DejaVuSans-45"/>
    </defs>
    <g transform="translate(309.010312 19.92)scale(0.12 -0.12)">
     <use xlink:href="#DejaVuSans-80"/>
     <use x="60.302734" xlink:href="#DejaVuSans-67"/>
     <use x="130.126953" xlink:href="#DejaVuSans-49"/>
     <use x="193.75" xlink:href="#DejaVuSans-58"/>
     <use x="227.441406" xlink:href="#DejaVuSans-48"/>
     <use x="291.064453" xlink:href="#DejaVuSans-46"/>
     <use x="322.851562" xlink:href="#DejaVuSans-50"/>
     <use x="386.474609" xlink:href="#DejaVuSans-54"/>
     <use x="450.097656" xlink:href="#DejaVuSans-44"/>
     <use x="481.884766" xlink:href="#DejaVuSans-32"/>
     <use x="513.671875" xlink:href="#DejaVuSans-80"/>
     <use x="573.974609" xlink:href="#DejaVuSans-67"/>
     <use x="643.798828" xlink:href="#DejaVuSans-50"/>
     <use x="707.421875" xlink:href="#DejaVuSans-58"/>
     <use x="741.113281" xlink:href="#DejaVuSans-45"/>
     <use x="777.197266" xlink:href="#DejaVuSans-48"/>
     <use x="840.820312" xlink:href="#DejaVuSans-46"/>
     <use x="872.607422" xlink:href="#DejaVuSans-52"/>
     <use x="936.230469" xlink:href="#DejaVuSans-51"/>
    </g>
   </g>
  </g>
 </g>
 <defs>
  <clipPath id="p76e8b5139c">
   <rect height="163.08" width="558" x="90" y="25.92"/>
  </clipPath>
 </defs>
</svg>
