<?xml version="1.0" encoding="utf-8" standalone="no"?>
<!DOCTYPE svg PUBLIC "-//W3C//DTD SVG 1.1//EN"
  "http://www.w3.org/Graphics/SVG/1.1/DTD/svg11.dtd">
<!-- Created with matplotlib (https://matplotlib.org/) -->
<svg height="216pt" version="1.1" viewBox="0 0 720 216" width="720pt" xmlns="http://www.w3.org/2000/svg" xmlns:xlink="http://www.w3.org/1999/xlink">
 <defs>
  <style type="text/css">
*{stroke-linecap:butt;stroke-linejoin:round;}
  </style>
 </defs>
 <g id="figure_1">
  <g id="patch_1">
   <path d="M 0 216 
L 720 216 
L 720 0 
L 0 0 
z
" style="fill:none;"/>
  </g>
  <g id="axes_1">
   <g id="patch_2">
    <path d="M 90 189 
L 648 189 
L 648 25.92 
L 90 25.92 
z
" style="fill:none;"/>
   </g>
   <g id="matplotlib.axis_1">
    <g id="xtick_1">
     <g id="line2d_1">
      <defs>
       <path d="M 0 0 
L 0 3.5 
" id="md69e2951c7" style="stroke:#000000;stroke-width:0.8;"/>
      </defs>
      <g>
       <use style="stroke:#000000;stroke-width:0.8;" x="115.363636" xlink:href="#md69e2951c7" y="189"/>
      </g>
     </g>
     <g id="text_1">
      <!-- 0 -->
      <defs>
       <path d="M 31.78125 66.40625 
Q 24.171875 66.40625 20.328125 58.90625 
Q 16.5 51.421875 16.5 36.375 
Q 16.5 21.390625 20.328125 13.890625 
Q 24.171875 6.390625 31.78125 6.390625 
Q 39.453125 6.390625 43.28125 13.890625 
Q 47.125 21.390625 47.125 36.375 
Q 47.125 51.421875 43.28125 58.90625 
Q 39.453125 66.40625 31.78125 66.40625 
z
M 31.78125 74.21875 
Q 44.046875 74.21875 50.515625 64.515625 
Q 56.984375 54.828125 56.984375 36.375 
Q 56.984375 17.96875 50.515625 8.265625 
Q 44.046875 -1.421875 31.78125 -1.421875 
Q 19.53125 -1.421875 13.0625 8.265625 
Q 6.59375 17.96875 6.59375 36.375 
Q 6.59375 54.828125 13.0625 64.515625 
Q 19.53125 74.21875 31.78125 74.21875 
z
" id="DejaVuSans-48"/>
      </defs>
      <g transform="translate(112.182386 203.598437)scale(0.1 -0.1)">
       <use xlink:href="#DejaVuSans-48"/>
      </g>
     </g>
    </g>
    <g id="xtick_2">
     <g id="line2d_2">
      <g>
       <use style="stroke:#000000;stroke-width:0.8;" x="227.344371" xlink:href="#md69e2951c7" y="189"/>
      </g>
     </g>
     <g id="text_2">
      <!-- 100 -->
      <defs>
       <path d="M 12.40625 8.296875 
L 28.515625 8.296875 
L 28.515625 63.921875 
L 10.984375 60.40625 
L 10.984375 69.390625 
L 28.421875 72.90625 
L 38.28125 72.90625 
L 38.28125 8.296875 
L 54.390625 8.296875 
L 54.390625 0 
L 12.40625 0 
z
" id="DejaVuSans-49"/>
      </defs>
      <g transform="translate(217.800621 203.598437)scale(0.1 -0.1)">
       <use xlink:href="#DejaVuSans-49"/>
       <use x="63.623047" xlink:href="#DejaVuSans-48"/>
       <use x="127.246094" xlink:href="#DejaVuSans-48"/>
      </g>
     </g>
    </g>
    <g id="xtick_3">
     <g id="line2d_3">
      <g>
       <use style="stroke:#000000;stroke-width:0.8;" x="339.325105" xlink:href="#md69e2951c7" y="189"/>
      </g>
     </g>
     <g id="text_3">
      <!-- 200 -->
      <defs>
       <path d="M 19.1875 8.296875 
L 53.609375 8.296875 
L 53.609375 0 
L 7.328125 0 
L 7.328125 8.296875 
Q 12.9375 14.109375 22.625 23.890625 
Q 32.328125 33.6875 34.8125 36.53125 
Q 39.546875 41.84375 41.421875 45.53125 
Q 43.3125 49.21875 43.3125 52.78125 
Q 43.3125 58.59375 39.234375 62.25 
Q 35.15625 65.921875 28.609375 65.921875 
Q 23.96875 65.921875 18.8125 64.3125 
Q 13.671875 62.703125 7.8125 59.421875 
L 7.8125 69.390625 
Q 13.765625 71.78125 18.9375 73 
Q 24.125 74.21875 28.421875 74.21875 
Q 39.75 74.21875 46.484375 68.546875 
Q 53.21875 62.890625 53.21875 53.421875 
Q 53.21875 48.921875 51.53125 44.890625 
Q 49.859375 40.875 45.40625 35.40625 
Q 44.1875 33.984375 37.640625 27.21875 
Q 31.109375 20.453125 19.1875 8.296875 
z
" id="DejaVuSans-50"/>
      </defs>
      <g transform="translate(329.781355 203.598437)scale(0.1 -0.1)">
       <use xlink:href="#DejaVuSans-50"/>
       <use x="63.623047" xlink:href="#DejaVuSans-48"/>
       <use x="127.246094" xlink:href="#DejaVuSans-48"/>
      </g>
     </g>
    </g>
    <g id="xtick_4">
     <g id="line2d_4">
      <g>
       <use style="stroke:#000000;stroke-width:0.8;" x="451.30584" xlink:href="#md69e2951c7" y="189"/>
      </g>
     </g>
     <g id="text_4">
      <!-- 300 -->
      <defs>
       <path d="M 40.578125 39.3125 
Q 47.65625 37.796875 51.625 33 
Q 55.609375 28.21875 55.609375 21.1875 
Q 55.609375 10.40625 48.1875 4.484375 
Q 40.765625 -1.421875 27.09375 -1.421875 
Q 22.515625 -1.421875 17.65625 -0.515625 
Q 12.796875 0.390625 7.625 2.203125 
L 7.625 11.71875 
Q 11.71875 9.328125 16.59375 8.109375 
Q 21.484375 6.890625 26.8125 6.890625 
Q 36.078125 6.890625 40.9375 10.546875 
Q 45.796875 14.203125 45.796875 21.1875 
Q 45.796875 27.640625 41.28125 31.265625 
Q 36.765625 34.90625 28.71875 34.90625 
L 20.21875 34.90625 
L 20.21875 43.015625 
L 29.109375 43.015625 
Q 36.375 43.015625 40.234375 45.921875 
Q 44.09375 48.828125 44.09375 54.296875 
Q 44.09375 59.90625 40.109375 62.90625 
Q 36.140625 65.921875 28.71875 65.921875 
Q 24.65625 65.921875 20.015625 65.03125 
Q 15.375 64.15625 9.8125 62.3125 
L 9.8125 71.09375 
Q 15.4375 72.65625 20.34375 73.4375 
Q 25.25 74.21875 29.59375 74.21875 
Q 40.828125 74.21875 47.359375 69.109375 
Q 53.90625 64.015625 53.90625 55.328125 
Q 53.90625 49.265625 50.4375 45.09375 
Q 46.96875 40.921875 40.578125 39.3125 
z
" id="DejaVuSans-51"/>
      </defs>
      <g transform="translate(441.76209 203.598437)scale(0.1 -0.1)">
       <use xlink:href="#DejaVuSans-51"/>
       <use x="63.623047" xlink:href="#DejaVuSans-48"/>
       <use x="127.246094" xlink:href="#DejaVuSans-48"/>
      </g>
     </g>
    </g>
    <g id="xtick_5">
     <g id="line2d_5">
      <g>
       <use style="stroke:#000000;stroke-width:0.8;" x="563.286574" xlink:href="#md69e2951c7" y="189"/>
      </g>
     </g>
     <g id="text_5">
      <!-- 400 -->
      <defs>
       <path d="M 37.796875 64.3125 
L 12.890625 25.390625 
L 37.796875 25.390625 
z
M 35.203125 72.90625 
L 47.609375 72.90625 
L 47.609375 25.390625 
L 58.015625 25.390625 
L 58.015625 17.1875 
L 47.609375 17.1875 
L 47.609375 0 
L 37.796875 0 
L 37.796875 17.1875 
L 4.890625 17.1875 
L 4.890625 26.703125 
z
" id="DejaVuSans-52"/>
      </defs>
      <g transform="translate(553.742824 203.598437)scale(0.1 -0.1)">
       <use xlink:href="#DejaVuSans-52"/>
       <use x="63.623047" xlink:href="#DejaVuSans-48"/>
       <use x="127.246094" xlink:href="#DejaVuSans-48"/>
      </g>
     </g>
    </g>
   </g>
   <g id="matplotlib.axis_2">
    <g id="ytick_1">
     <g id="line2d_6">
      <defs>
       <path d="M 0 0 
L -3.5 0 
" id="m7aa9c44bda" style="stroke:#000000;stroke-width:0.8;"/>
      </defs>
      <g>
       <use style="stroke:#000000;stroke-width:0.8;" x="90" xlink:href="#m7aa9c44bda" y="189"/>
      </g>
     </g>
     <g id="text_6">
      <!-- −2.0 -->
      <defs>
       <path d="M 10.59375 35.5 
L 73.1875 35.5 
L 73.1875 27.203125 
L 10.59375 27.203125 
z
" id="DejaVuSans-8722"/>
       <path d="M 10.6875 12.40625 
L 21 12.40625 
L 21 0 
L 10.6875 0 
z
" id="DejaVuSans-46"/>
      </defs>
      <g transform="translate(58.717187 192.799219)scale(0.1 -0.1)">
       <use xlink:href="#DejaVuSans-8722"/>
       <use x="83.789062" xlink:href="#DejaVuSans-50"/>
       <use x="147.412109" xlink:href="#DejaVuSans-46"/>
       <use x="179.199219" xlink:href="#DejaVuSans-48"/>
      </g>
     </g>
    </g>
    <g id="ytick_2">
     <g id="line2d_7">
      <g>
       <use style="stroke:#000000;stroke-width:0.8;" x="90" xlink:href="#m7aa9c44bda" y="168.615"/>
      </g>
     </g>
     <g id="text_7">
      <!-- −1.5 -->
      <defs>
       <path d="M 10.796875 72.90625 
L 49.515625 72.90625 
L 49.515625 64.59375 
L 19.828125 64.59375 
L 19.828125 46.734375 
Q 21.96875 47.46875 24.109375 47.828125 
Q 26.265625 48.1875 28.421875 48.1875 
Q 40.625 48.1875 47.75 41.5 
Q 54.890625 34.8125 54.890625 23.390625 
Q 54.890625 11.625 47.5625 5.09375 
Q 40.234375 -1.421875 26.90625 -1.421875 
Q 22.3125 -1.421875 17.546875 -0.640625 
Q 12.796875 0.140625 7.71875 1.703125 
L 7.71875 11.625 
Q 12.109375 9.234375 16.796875 8.0625 
Q 21.484375 6.890625 26.703125 6.890625 
Q 35.15625 6.890625 40.078125 11.328125 
Q 45.015625 15.765625 45.015625 23.390625 
Q 45.015625 31 40.078125 35.4375 
Q 35.15625 39.890625 26.703125 39.890625 
Q 22.75 39.890625 18.8125 39.015625 
Q 14.890625 38.140625 10.796875 36.28125 
z
" id="DejaVuSans-53"/>
      </defs>
      <g transform="translate(58.717187 172.414219)scale(0.1 -0.1)">
       <use xlink:href="#DejaVuSans-8722"/>
       <use x="83.789062" xlink:href="#DejaVuSans-49"/>
       <use x="147.412109" xlink:href="#DejaVuSans-46"/>
       <use x="179.199219" xlink:href="#DejaVuSans-53"/>
      </g>
     </g>
    </g>
    <g id="ytick_3">
     <g id="line2d_8">
      <g>
       <use style="stroke:#000000;stroke-width:0.8;" x="90" xlink:href="#m7aa9c44bda" y="148.23"/>
      </g>
     </g>
     <g id="text_8">
      <!-- −1.0 -->
      <g transform="translate(58.717187 152.029219)scale(0.1 -0.1)">
       <use xlink:href="#DejaVuSans-8722"/>
       <use x="83.789062" xlink:href="#DejaVuSans-49"/>
       <use x="147.412109" xlink:href="#DejaVuSans-46"/>
       <use x="179.199219" xlink:href="#DejaVuSans-48"/>
      </g>
     </g>
    </g>
    <g id="ytick_4">
     <g id="line2d_9">
      <g>
       <use style="stroke:#000000;stroke-width:0.8;" x="90" xlink:href="#m7aa9c44bda" y="127.845"/>
      </g>
     </g>
     <g id="text_9">
      <!-- −0.5 -->
      <g transform="translate(58.717187 131.644219)scale(0.1 -0.1)">
       <use xlink:href="#DejaVuSans-8722"/>
       <use x="83.789062" xlink:href="#DejaVuSans-48"/>
       <use x="147.412109" xlink:href="#DejaVuSans-46"/>
       <use x="179.199219" xlink:href="#DejaVuSans-53"/>
      </g>
     </g>
    </g>
    <g id="ytick_5">
     <g id="line2d_10">
      <g>
       <use style="stroke:#000000;stroke-width:0.8;" x="90" xlink:href="#m7aa9c44bda" y="107.46"/>
      </g>
     </g>
     <g id="text_10">
      <!-- 0.0 -->
      <g transform="translate(67.096875 111.259219)scale(0.1 -0.1)">
       <use xlink:href="#DejaVuSans-48"/>
       <use x="63.623047" xlink:href="#DejaVuSans-46"/>
       <use x="95.410156" xlink:href="#DejaVuSans-48"/>
      </g>
     </g>
    </g>
    <g id="ytick_6">
     <g id="line2d_11">
      <g>
       <use style="stroke:#000000;stroke-width:0.8;" x="90" xlink:href="#m7aa9c44bda" y="87.075"/>
      </g>
     </g>
     <g id="text_11">
      <!-- 0.5 -->
      <g transform="translate(67.096875 90.874219)scale(0.1 -0.1)">
       <use xlink:href="#DejaVuSans-48"/>
       <use x="63.623047" xlink:href="#DejaVuSans-46"/>
       <use x="95.410156" xlink:href="#DejaVuSans-53"/>
      </g>
     </g>
    </g>
    <g id="ytick_7">
     <g id="line2d_12">
      <g>
       <use style="stroke:#000000;stroke-width:0.8;" x="90" xlink:href="#m7aa9c44bda" y="66.69"/>
      </g>
     </g>
     <g id="text_12">
      <!-- 1.0 -->
      <g transform="translate(67.096875 70.489219)scale(0.1 -0.1)">
       <use xlink:href="#DejaVuSans-49"/>
       <use x="63.623047" xlink:href="#DejaVuSans-46"/>
       <use x="95.410156" xlink:href="#DejaVuSans-48"/>
      </g>
     </g>
    </g>
    <g id="ytick_8">
     <g id="line2d_13">
      <g>
       <use style="stroke:#000000;stroke-width:0.8;" x="90" xlink:href="#m7aa9c44bda" y="46.305"/>
      </g>
     </g>
     <g id="text_13">
      <!-- 1.5 -->
      <g transform="translate(67.096875 50.104219)scale(0.1 -0.1)">
       <use xlink:href="#DejaVuSans-49"/>
       <use x="63.623047" xlink:href="#DejaVuSans-46"/>
       <use x="95.410156" xlink:href="#DejaVuSans-53"/>
      </g>
     </g>
    </g>
    <g id="ytick_9">
     <g id="line2d_14">
      <g>
       <use style="stroke:#000000;stroke-width:0.8;" x="90" xlink:href="#m7aa9c44bda" y="25.92"/>
      </g>
     </g>
     <g id="text_14">
      <!-- 2.0 -->
      <g transform="translate(67.096875 29.719219)scale(0.1 -0.1)">
       <use xlink:href="#DejaVuSans-50"/>
       <use x="63.623047" xlink:href="#DejaVuSans-46"/>
       <use x="95.410156" xlink:href="#DejaVuSans-48"/>
      </g>
     </g>
    </g>
   </g>
   <g id="line2d_15">
    <path clip-path="url(#p0d186d000f)" d="M 115.363636 64.849566 
L 116.483444 110.620972 
L 117.603251 116.486432 
L 118.723058 129.912444 
L 119.842866 148.679333 
L 120.962673 104.320486 
L 122.08248 100.797436 
L 123.202288 89.409896 
L 124.322095 69.318506 
L 125.441902 92.262052 
L 126.56171 73.66963 
L 127.681517 81.863537 
L 128.801325 66.095114 
L 129.921132 108.495204 
L 131.040939 111.495766 
L 132.160747 117.574436 
L 133.280554 134.009374 
L 134.400361 147.992522 
L 135.520169 108.159049 
L 136.639976 111.583814 
L 137.759783 119.276079 
L 138.879591 137.29531 
L 139.999398 144.466788 
L 141.119205 121.800785 
L 142.239013 138.721881 
L 143.35882 139.791879 
L 144.478627 137.75284 
L 145.598435 143.142451 
L 146.718242 130.064878 
L 147.838049 148.546994 
L 148.957857 104.803285 
L 150.077664 100.098918 
L 151.197471 88.871071 
L 152.317279 68.21174 
L 153.437086 100.964154 
L 154.556893 90.223793 
L 155.676701 71.474427 
L 156.796508 90.842975 
L 157.916315 71.188948 
L 159.036123 88.991994 
L 160.15593 68.283259 
L 161.275738 98.945702 
L 162.395545 85.885284 
L 163.515352 66.178284 
L 164.63516 107.669753 
L 165.754967 106.87934 
L 166.874774 104.117873 
L 167.994582 100.361409 
L 169.114389 88.716973 
L 170.234196 69.326294 
L 171.354004 96.764087 
L 172.473811 80.565057 
L 173.593618 68.084692 
L 174.713426 104.223116 
L 175.833233 96.033113 
L 178.072848 67.301044 
L 179.192655 107.075613 
L 180.312462 107.962817 
L 181.43227 109.818423 
L 182.552077 114.539769 
L 183.671884 123.033484 
L 184.791692 142.605626 
L 185.911499 132.670919 
L 187.031306 147.302444 
L 188.151114 108.335643 
L 189.270921 110.527684 
L 190.390728 117.616615 
L 192.630343 147.402084 
L 193.750151 103.450173 
L 194.869958 99.798401 
L 195.989765 88.028091 
L 197.109573 68.555706 
L 198.22938 103.036778 
L 199.349187 95.171265 
L 200.468995 78.662719 
L 201.588802 69.689623 
L 202.708609 92.492469 
L 203.828417 73.836898 
L 204.948224 79.37336 
L 206.068031 68.377811 
L 207.187839 101.503761 
L 208.307646 92.076657 
L 209.427453 72.319222 
L 210.547261 84.28092 
L 211.667068 65.196171 
L 212.786875 110.480428 
L 213.906683 116.151986 
L 215.02649 130.516307 
L 216.146297 148.663384 
L 217.266105 104.644378 
L 218.385912 99.293894 
L 219.505719 85.937723 
L 220.625527 66.89528 
L 221.745334 107.615412 
L 223.984949 105.596037 
L 225.104756 102.569512 
L 226.224564 93.356409 
L 227.344371 76.095077 
L 228.464178 73.497568 
L 229.583986 79.386278 
L 230.703793 69.084575 
L 231.8236 98.536959 
L 234.063215 66.93601 
L 235.183022 110.567769 
L 236.30283 112.419244 
L 237.422637 121.388447 
L 238.542444 139.729807 
L 239.662252 140.573647 
L 240.782059 136.045752 
L 241.901866 144.718653 
L 243.021674 122.046616 
L 244.141481 140.788918 
L 245.261288 132.377612 
L 246.381096 148.473546 
L 247.500903 106.788637 
L 248.62071 105.006385 
L 249.740518 101.201987 
L 250.860325 90.251996 
L 251.980132 72.305507 
L 253.09994 86.048099 
L 254.219747 66.832431 
L 255.339554 107.655359 
L 256.459362 106.208153 
L 257.579169 105.64367 
L 258.698977 103.854508 
L 259.818784 98.849003 
L 260.938591 86.647473 
L 262.058399 66.926761 
L 263.178206 103.76169 
L 264.298013 96.102238 
L 266.537628 66.99439 
L 267.657435 104.281827 
L 268.777243 99.005557 
L 269.89705 85.523549 
L 271.016857 66.09393 
L 272.136665 108.760388 
L 273.256472 111.609608 
L 274.376279 117.153313 
L 276.615894 148.646309 
L 277.735701 103.553033 
L 278.855509 98.070082 
L 279.975316 86.814803 
L 281.095123 66.92468 
L 282.214931 109.372641 
L 283.334738 111.753347 
L 284.454545 119.90683 
L 285.574353 137.995734 
L 286.69416 143.265683 
L 287.813967 128.202991 
L 288.933775 148.956301 
L 290.053582 107.278704 
L 291.17339 107.584218 
L 292.293197 106.989922 
L 293.413004 106.934799 
L 295.652619 101.477779 
L 296.772426 92.170839 
L 297.892234 73.008752 
L 299.012041 83.160462 
L 300.131848 66.441025 
L 301.251656 110.361078 
L 302.371463 115.348722 
L 303.49127 129.788601 
L 304.611078 148.317363 
L 305.730885 104.651428 
L 306.850692 101.519122 
L 307.9705 91.583686 
L 309.090307 71.611535 
L 310.210114 85.160725 
L 311.329922 66.568878 
L 312.449729 110.833425 
L 313.569536 116.435606 
L 314.689344 128.674493 
L 315.809151 148.207688 
L 316.928958 106.925399 
L 318.048766 104.72452 
L 319.168573 99.820967 
L 320.28838 87.304511 
L 321.408188 67.083655 
L 322.527995 105.426601 
L 323.647803 101.27265 
L 324.76761 89.604516 
L 325.887417 69.952716 
L 327.007225 95.073356 
L 328.127032 79.01759 
L 329.246839 70.28322 
L 330.366647 93.332617 
L 331.486454 74.083042 
L 332.606261 79.027796 
L 333.726069 67.836626 
L 334.845876 98.589943 
L 335.965683 83.531632 
L 337.085491 65.621758 
L 338.205298 111.797365 
L 339.325105 116.744216 
L 340.444913 129.436971 
L 341.56472 147.743612 
L 342.684527 104.140307 
L 343.804335 99.936653 
L 344.924142 87.880998 
L 346.043949 67.282762 
L 347.163757 102.429615 
L 348.283564 92.582908 
L 349.403371 73.518938 
L 350.523179 80.622706 
L 351.642986 67.715296 
L 352.762793 101.296287 
L 353.882601 94.144539 
L 355.002408 76.13605 
L 356.122216 75.915655 
L 357.242023 74.721541 
L 358.36183 78.947717 
L 359.481638 70.192707 
L 360.601445 88.624842 
L 361.721252 68.669203 
L 362.84106 98.405135 
L 363.960867 83.435083 
L 365.080674 65.20599 
L 366.200482 111.964937 
L 367.320289 116.842215 
L 368.440096 130.96113 
L 369.559904 148.512198 
L 370.679711 103.607262 
L 371.799518 97.574805 
L 372.919326 84.203753 
L 374.039133 66.059421 
L 375.15894 110.343632 
L 376.278748 116.750876 
L 377.398555 129.551211 
L 378.518362 147.92603 
L 379.63817 107.184158 
L 380.757977 106.645659 
L 381.877784 105.970106 
L 382.997592 103.084986 
L 384.117399 96.952876 
L 385.237207 84.062861 
L 386.357014 66.064465 
L 387.476821 111.948892 
L 388.596629 115.389377 
L 389.716436 129.112326 
L 390.836243 148.332083 
L 391.956051 104.9859 
L 393.075858 99.794973 
L 394.195665 87.266428 
L 395.315473 67.382266 
L 396.43528 105.479703 
L 397.555087 101.473548 
L 398.674895 91.652252 
L 399.794702 73.23153 
L 400.914509 82.751347 
L 402.034317 66.78004 
L 403.154124 109.317056 
L 404.273931 114.02575 
L 405.393739 124.457422 
L 406.513546 144.355615 
L 407.633353 127.679299 
L 408.753161 146.158513 
L 409.872968 114.808439 
L 410.992775 126.111005 
L 412.112583 145.914654 
L 413.23239 117.035643 
L 414.352197 131.662774 
L 415.472005 147.80901 
L 416.591812 103.772594 
L 417.71162 98.711369 
L 418.831427 84.978885 
L 419.951234 66.231842 
L 421.071042 110.013536 
L 422.190849 115.076005 
L 423.310656 127.88316 
L 424.430464 148.47777 
L 425.550271 105.888205 
L 426.670078 104.94648 
L 427.789886 98.803114 
L 428.909693 85.939598 
L 430.0295 67.092357 
L 431.149308 109.576597 
L 432.269115 113.68118 
L 433.388922 120.368776 
L 434.50873 139.709342 
L 435.628537 140.414098 
L 436.748344 135.526335 
L 437.868152 146.510682 
L 438.987959 115.423759 
L 440.107766 128.224773 
L 441.227574 148.74329 
L 442.347381 106.879004 
L 443.467188 105.97866 
L 444.586996 104.577434 
L 445.706803 101.450693 
L 446.82661 89.876396 
L 447.946418 71.384603 
L 449.066225 90.624972 
L 450.186033 70.906224 
L 451.30584 86.690212 
L 452.425647 68.046085 
L 453.545455 103.732536 
L 454.665262 98.033251 
L 455.785069 84.204758 
L 456.904877 66.089374 
L 458.024684 110.695659 
L 459.144491 116.437094 
L 460.264299 129.268905 
L 461.384106 149.241006 
L 462.503913 104.662661 
L 463.623721 100.458586 
L 464.743528 88.185089 
L 465.863335 68.865327 
L 466.983143 97.977293 
L 468.10295 84.497923 
L 469.222757 64.913534 
L 470.342565 110.545774 
L 471.462372 115.854542 
L 472.582179 129.315185 
L 473.701987 148.778316 
L 474.821794 106.92504 
L 475.941601 106.779989 
L 477.061409 105.704089 
L 478.181216 100.150415 
L 479.301023 87.217593 
L 480.420831 65.893286 
L 481.540638 105.591696 
L 482.660446 102.429624 
L 483.780253 95.477757 
L 484.90006 78.824796 
L 486.019868 69.287993 
L 487.139675 95.450102 
L 488.259482 78.565438 
L 489.37929 71.020403 
L 490.499097 89.860541 
L 491.618904 68.648321 
L 492.738712 95.093905 
L 493.858519 76.1912 
L 494.978326 73.105083 
L 496.098134 82.233323 
L 497.217941 66.154201 
L 498.337748 110.15293 
L 499.457556 114.904937 
L 500.577363 128.420283 
L 501.69717 146.817858 
L 502.816978 107.476525 
L 503.936785 108.728185 
L 505.056592 111.129955 
L 506.1764 118.808347 
L 507.296207 136.453985 
L 508.416014 144.472704 
L 509.535822 120.169776 
L 510.655629 137.579561 
L 511.775436 141.68102 
L 512.895244 134.025557 
L 514.015051 148.653077 
L 515.134859 109.247673 
L 516.254666 113.684676 
L 517.374473 122.5108 
L 518.494281 140.984109 
L 519.614088 135.700098 
L 520.733895 146.059042 
L 521.853703 116.7949 
L 524.093317 149.44525 
L 525.213125 104.94631 
L 526.332932 100.944656 
L 527.452739 90.700552 
L 528.572547 69.640281 
L 529.692354 91.472271 
L 530.812161 72.002485 
L 531.931969 87.620731 
L 533.051776 68.151075 
L 534.171583 100.864401 
L 535.291391 89.511171 
L 536.411198 70.411889 
L 537.531005 90.322743 
L 538.650813 69.527344 
L 539.77062 93.514538 
L 540.890427 74.289016 
L 542.010235 78.545462 
L 543.130042 71.13723 
L 544.249849 85.618784 
L 545.369657 65.543222 
L 546.489464 110.616286 
L 547.609272 114.613604 
L 548.729079 125.571838 
L 549.848886 144.419961 
L 550.968694 124.123009 
L 552.088501 144.554089 
L 553.208308 124.729839 
L 554.328116 145.556148 
L 555.447923 123.099938 
L 556.56773 141.554466 
L 557.687538 136.682557 
L 558.807345 145.162228 
L 559.927152 123.129957 
L 561.04696 142.596049 
L 562.166767 130.450646 
L 563.286574 149.410154 
L 564.406382 103.544106 
L 565.526189 98.905749 
L 566.645996 84.625678 
L 567.765804 66.177257 
L 568.885611 111.445842 
L 570.005418 117.597242 
L 571.125226 129.904198 
L 572.245033 150.052542 
L 573.36484 104.675634 
L 574.484648 100.242013 
L 575.604455 90.94697 
L 576.724262 70.245006 
L 577.84407 91.432673 
L 578.963877 71.093233 
L 580.083685 88.00674 
L 581.203492 69.193014 
L 582.323299 100.779517 
L 583.443107 90.069286 
L 584.562914 68.574957 
L 585.682721 95.81291 
L 586.802529 80.322177 
L 587.922336 68.215314 
L 589.042143 103.162148 
L 590.161951 96.876471 
L 591.281758 81.221322 
L 592.401565 67.661279 
L 593.521373 104.521464 
L 594.64118 98.222262 
L 595.760987 85.521178 
L 596.880795 66.156398 
L 598.000602 110.966413 
L 599.120409 115.693346 
L 600.240217 127.78217 
L 601.360024 147.590495 
L 602.479831 107.160471 
L 603.599639 105.980144 
L 604.719446 102.666322 
L 605.839253 96.393452 
L 606.959061 79.014083 
L 608.078868 70.524756 
L 609.198675 92.817926 
L 610.318483 75.703024 
L 611.43829 73.76184 
L 612.558098 79.109596 
L 613.677905 68.429911 
L 614.797712 96.90679 
L 615.91752 80.16649 
L 617.037327 67.069703 
L 618.157134 104.238996 
L 619.276942 99.928257 
L 620.396749 87.583762 
L 621.516556 67.223987 
L 622.636364 102.745866 
L 622.636364 102.745866 
" style="fill:none;stroke:#ffa500;stroke-linecap:square;"/>
   </g>
   <g id="patch_3">
    <path d="M 90 189 
L 90 25.92 
" style="fill:none;stroke:#000000;stroke-linecap:square;stroke-linejoin:miter;stroke-width:0.8;"/>
   </g>
   <g id="patch_4">
    <path d="M 648 189 
L 648 25.92 
" style="fill:none;stroke:#000000;stroke-linecap:square;stroke-linejoin:miter;stroke-width:0.8;"/>
   </g>
   <g id="patch_5">
    <path d="M 90 189 
L 648 189 
" style="fill:none;stroke:#000000;stroke-linecap:square;stroke-linejoin:miter;stroke-width:0.8;"/>
   </g>
   <g id="patch_6">
    <path d="M 90 25.92 
L 648 25.92 
" style="fill:none;stroke:#000000;stroke-linecap:square;stroke-linejoin:miter;stroke-width:0.8;"/>
   </g>
   <g id="text_15">
    <!-- PC1:1.54, PC2:0.27 -->
    <defs>
     <path d="M 19.671875 64.796875 
L 19.671875 37.40625 
L 32.078125 37.40625 
Q 38.96875 37.40625 42.71875 40.96875 
Q 46.484375 44.53125 46.484375 51.125 
Q 46.484375 57.671875 42.71875 61.234375 
Q 38.96875 64.796875 32.078125 64.796875 
z
M 9.8125 72.90625 
L 32.078125 72.90625 
Q 44.34375 72.90625 50.609375 67.359375 
Q 56.890625 61.8125 56.890625 51.125 
Q 56.890625 40.328125 50.609375 34.8125 
Q 44.34375 29.296875 32.078125 29.296875 
L 19.671875 29.296875 
L 19.671875 0 
L 9.8125 0 
z
" id="DejaVuSans-80"/>
     <path d="M 64.40625 67.28125 
L 64.40625 56.890625 
Q 59.421875 61.53125 53.78125 63.8125 
Q 48.140625 66.109375 41.796875 66.109375 
Q 29.296875 66.109375 22.65625 58.46875 
Q 16.015625 50.828125 16.015625 36.375 
Q 16.015625 21.96875 22.65625 14.328125 
Q 29.296875 6.6875 41.796875 6.6875 
Q 48.140625 6.6875 53.78125 8.984375 
Q 59.421875 11.28125 64.40625 15.921875 
L 64.40625 5.609375 
Q 59.234375 2.09375 53.4375 0.328125 
Q 47.65625 -1.421875 41.21875 -1.421875 
Q 24.65625 -1.421875 15.125 8.703125 
Q 5.609375 18.84375 5.609375 36.375 
Q 5.609375 53.953125 15.125 64.078125 
Q 24.65625 74.21875 41.21875 74.21875 
Q 47.75 74.21875 53.53125 72.484375 
Q 59.328125 70.75 64.40625 67.28125 
z
" id="DejaVuSans-67"/>
     <path d="M 11.71875 12.40625 
L 22.015625 12.40625 
L 22.015625 0 
L 11.71875 0 
z
M 11.71875 51.703125 
L 22.015625 51.703125 
L 22.015625 39.3125 
L 11.71875 39.3125 
z
" id="DejaVuSans-58"/>
     <path d="M 11.71875 12.40625 
L 22.015625 12.40625 
L 22.015625 4 
L 14.015625 -11.625 
L 7.71875 -11.625 
L 11.71875 4 
z
" id="DejaVuSans-44"/>
     <path id="DejaVuSans-32"/>
     <path d="M 8.203125 72.90625 
L 55.078125 72.90625 
L 55.078125 68.703125 
L 28.609375 0 
L 18.3125 0 
L 43.21875 64.59375 
L 8.203125 64.59375 
z
" id="DejaVuSans-55"/>
    </defs>
    <g transform="translate(311.175 19.92)scale(0.12 -0.12)">
     <use xlink:href="#DejaVuSans-80"/>
     <use x="60.302734" xlink:href="#DejaVuSans-67"/>
     <use x="130.126953" xlink:href="#DejaVuSans-49"/>
     <use x="193.75" xlink:href="#DejaVuSans-58"/>
     <use x="227.441406" xlink:href="#DejaVuSans-49"/>
     <use x="291.064453" xlink:href="#DejaVuSans-46"/>
     <use x="322.851562" xlink:href="#DejaVuSans-53"/>
     <use x="386.474609" xlink:href="#DejaVuSans-52"/>
     <use x="450.097656" xlink:href="#DejaVuSans-44"/>
     <use x="481.884766" xlink:href="#DejaVuSans-32"/>
     <use x="513.671875" xlink:href="#DejaVuSans-80"/>
     <use x="573.974609" xlink:href="#DejaVuSans-67"/>
     <use x="643.798828" xlink:href="#DejaVuSans-50"/>
     <use x="707.421875" xlink:href="#DejaVuSans-58"/>
     <use x="741.113281" xlink:href="#DejaVuSans-48"/>
     <use x="804.736328" xlink:href="#DejaVuSans-46"/>
     <use x="836.523438" xlink:href="#DejaVuSans-50"/>
     <use x="900.146484" xlink:href="#DejaVuSans-55"/>
    </g>
   </g>
  </g>
 </g>
 <defs>
  <clipPath id="p0d186d000f">
   <rect height="163.08" width="558" x="90" y="25.92"/>
  </clipPath>
 </defs>
</svg>
