<?xml version="1.0" encoding="utf-8" standalone="no"?>
<!DOCTYPE svg PUBLIC "-//W3C//DTD SVG 1.1//EN"
  "http://www.w3.org/Graphics/SVG/1.1/DTD/svg11.dtd">
<!-- Created with matplotlib (https://matplotlib.org/) -->
<svg height="216pt" version="1.1" viewBox="0 0 720 216" width="720pt" xmlns="http://www.w3.org/2000/svg" xmlns:xlink="http://www.w3.org/1999/xlink">
 <defs>
  <style type="text/css">
*{stroke-linecap:butt;stroke-linejoin:round;}
  </style>
 </defs>
 <g id="figure_1">
  <g id="patch_1">
   <path d="M 0 216 
L 720 216 
L 720 0 
L 0 0 
z
" style="fill:none;"/>
  </g>
  <g id="axes_1">
   <g id="patch_2">
    <path d="M 90 189 
L 648 189 
L 648 25.92 
L 90 25.92 
z
" style="fill:none;"/>
   </g>
   <g id="matplotlib.axis_1">
    <g id="xtick_1">
     <g id="line2d_1">
      <defs>
       <path d="M 0 0 
L 0 3.5 
" id="m0cca1b17fd" style="stroke:#000000;stroke-width:0.8;"/>
      </defs>
      <g>
       <use style="stroke:#000000;stroke-width:0.8;" x="115.363636" xlink:href="#m0cca1b17fd" y="189"/>
      </g>
     </g>
     <g id="text_1">
      <!-- 0 -->
      <defs>
       <path d="M 31.78125 66.40625 
Q 24.171875 66.40625 20.328125 58.90625 
Q 16.5 51.421875 16.5 36.375 
Q 16.5 21.390625 20.328125 13.890625 
Q 24.171875 6.390625 31.78125 6.390625 
Q 39.453125 6.390625 43.28125 13.890625 
Q 47.125 21.390625 47.125 36.375 
Q 47.125 51.421875 43.28125 58.90625 
Q 39.453125 66.40625 31.78125 66.40625 
z
M 31.78125 74.21875 
Q 44.046875 74.21875 50.515625 64.515625 
Q 56.984375 54.828125 56.984375 36.375 
Q 56.984375 17.96875 50.515625 8.265625 
Q 44.046875 -1.421875 31.78125 -1.421875 
Q 19.53125 -1.421875 13.0625 8.265625 
Q 6.59375 17.96875 6.59375 36.375 
Q 6.59375 54.828125 13.0625 64.515625 
Q 19.53125 74.21875 31.78125 74.21875 
z
" id="DejaVuSans-48"/>
      </defs>
      <g transform="translate(112.182386 203.598437)scale(0.1 -0.1)">
       <use xlink:href="#DejaVuSans-48"/>
      </g>
     </g>
    </g>
    <g id="xtick_2">
     <g id="line2d_2">
      <g>
       <use style="stroke:#000000;stroke-width:0.8;" x="193.646465" xlink:href="#m0cca1b17fd" y="189"/>
      </g>
     </g>
     <g id="text_2">
      <!-- 100 -->
      <defs>
       <path d="M 12.40625 8.296875 
L 28.515625 8.296875 
L 28.515625 63.921875 
L 10.984375 60.40625 
L 10.984375 69.390625 
L 28.421875 72.90625 
L 38.28125 72.90625 
L 38.28125 8.296875 
L 54.390625 8.296875 
L 54.390625 0 
L 12.40625 0 
z
" id="DejaVuSans-49"/>
      </defs>
      <g transform="translate(184.102715 203.598437)scale(0.1 -0.1)">
       <use xlink:href="#DejaVuSans-49"/>
       <use x="63.623047" xlink:href="#DejaVuSans-48"/>
       <use x="127.246094" xlink:href="#DejaVuSans-48"/>
      </g>
     </g>
    </g>
    <g id="xtick_3">
     <g id="line2d_3">
      <g>
       <use style="stroke:#000000;stroke-width:0.8;" x="271.929293" xlink:href="#m0cca1b17fd" y="189"/>
      </g>
     </g>
     <g id="text_3">
      <!-- 200 -->
      <defs>
       <path d="M 19.1875 8.296875 
L 53.609375 8.296875 
L 53.609375 0 
L 7.328125 0 
L 7.328125 8.296875 
Q 12.9375 14.109375 22.625 23.890625 
Q 32.328125 33.6875 34.8125 36.53125 
Q 39.546875 41.84375 41.421875 45.53125 
Q 43.3125 49.21875 43.3125 52.78125 
Q 43.3125 58.59375 39.234375 62.25 
Q 35.15625 65.921875 28.609375 65.921875 
Q 23.96875 65.921875 18.8125 64.3125 
Q 13.671875 62.703125 7.8125 59.421875 
L 7.8125 69.390625 
Q 13.765625 71.78125 18.9375 73 
Q 24.125 74.21875 28.421875 74.21875 
Q 39.75 74.21875 46.484375 68.546875 
Q 53.21875 62.890625 53.21875 53.421875 
Q 53.21875 48.921875 51.53125 44.890625 
Q 49.859375 40.875 45.40625 35.40625 
Q 44.1875 33.984375 37.640625 27.21875 
Q 31.109375 20.453125 19.1875 8.296875 
z
" id="DejaVuSans-50"/>
      </defs>
      <g transform="translate(262.385543 203.598437)scale(0.1 -0.1)">
       <use xlink:href="#DejaVuSans-50"/>
       <use x="63.623047" xlink:href="#DejaVuSans-48"/>
       <use x="127.246094" xlink:href="#DejaVuSans-48"/>
      </g>
     </g>
    </g>
    <g id="xtick_4">
     <g id="line2d_4">
      <g>
       <use style="stroke:#000000;stroke-width:0.8;" x="350.212121" xlink:href="#m0cca1b17fd" y="189"/>
      </g>
     </g>
     <g id="text_4">
      <!-- 300 -->
      <defs>
       <path d="M 40.578125 39.3125 
Q 47.65625 37.796875 51.625 33 
Q 55.609375 28.21875 55.609375 21.1875 
Q 55.609375 10.40625 48.1875 4.484375 
Q 40.765625 -1.421875 27.09375 -1.421875 
Q 22.515625 -1.421875 17.65625 -0.515625 
Q 12.796875 0.390625 7.625 2.203125 
L 7.625 11.71875 
Q 11.71875 9.328125 16.59375 8.109375 
Q 21.484375 6.890625 26.8125 6.890625 
Q 36.078125 6.890625 40.9375 10.546875 
Q 45.796875 14.203125 45.796875 21.1875 
Q 45.796875 27.640625 41.28125 31.265625 
Q 36.765625 34.90625 28.71875 34.90625 
L 20.21875 34.90625 
L 20.21875 43.015625 
L 29.109375 43.015625 
Q 36.375 43.015625 40.234375 45.921875 
Q 44.09375 48.828125 44.09375 54.296875 
Q 44.09375 59.90625 40.109375 62.90625 
Q 36.140625 65.921875 28.71875 65.921875 
Q 24.65625 65.921875 20.015625 65.03125 
Q 15.375 64.15625 9.8125 62.3125 
L 9.8125 71.09375 
Q 15.4375 72.65625 20.34375 73.4375 
Q 25.25 74.21875 29.59375 74.21875 
Q 40.828125 74.21875 47.359375 69.109375 
Q 53.90625 64.015625 53.90625 55.328125 
Q 53.90625 49.265625 50.4375 45.09375 
Q 46.96875 40.921875 40.578125 39.3125 
z
" id="DejaVuSans-51"/>
      </defs>
      <g transform="translate(340.668371 203.598437)scale(0.1 -0.1)">
       <use xlink:href="#DejaVuSans-51"/>
       <use x="63.623047" xlink:href="#DejaVuSans-48"/>
       <use x="127.246094" xlink:href="#DejaVuSans-48"/>
      </g>
     </g>
    </g>
    <g id="xtick_5">
     <g id="line2d_5">
      <g>
       <use style="stroke:#000000;stroke-width:0.8;" x="428.494949" xlink:href="#m0cca1b17fd" y="189"/>
      </g>
     </g>
     <g id="text_5">
      <!-- 400 -->
      <defs>
       <path d="M 37.796875 64.3125 
L 12.890625 25.390625 
L 37.796875 25.390625 
z
M 35.203125 72.90625 
L 47.609375 72.90625 
L 47.609375 25.390625 
L 58.015625 25.390625 
L 58.015625 17.1875 
L 47.609375 17.1875 
L 47.609375 0 
L 37.796875 0 
L 37.796875 17.1875 
L 4.890625 17.1875 
L 4.890625 26.703125 
z
" id="DejaVuSans-52"/>
      </defs>
      <g transform="translate(418.951199 203.598437)scale(0.1 -0.1)">
       <use xlink:href="#DejaVuSans-52"/>
       <use x="63.623047" xlink:href="#DejaVuSans-48"/>
       <use x="127.246094" xlink:href="#DejaVuSans-48"/>
      </g>
     </g>
    </g>
    <g id="xtick_6">
     <g id="line2d_6">
      <g>
       <use style="stroke:#000000;stroke-width:0.8;" x="506.777778" xlink:href="#m0cca1b17fd" y="189"/>
      </g>
     </g>
     <g id="text_6">
      <!-- 500 -->
      <defs>
       <path d="M 10.796875 72.90625 
L 49.515625 72.90625 
L 49.515625 64.59375 
L 19.828125 64.59375 
L 19.828125 46.734375 
Q 21.96875 47.46875 24.109375 47.828125 
Q 26.265625 48.1875 28.421875 48.1875 
Q 40.625 48.1875 47.75 41.5 
Q 54.890625 34.8125 54.890625 23.390625 
Q 54.890625 11.625 47.5625 5.09375 
Q 40.234375 -1.421875 26.90625 -1.421875 
Q 22.3125 -1.421875 17.546875 -0.640625 
Q 12.796875 0.140625 7.71875 1.703125 
L 7.71875 11.625 
Q 12.109375 9.234375 16.796875 8.0625 
Q 21.484375 6.890625 26.703125 6.890625 
Q 35.15625 6.890625 40.078125 11.328125 
Q 45.015625 15.765625 45.015625 23.390625 
Q 45.015625 31 40.078125 35.4375 
Q 35.15625 39.890625 26.703125 39.890625 
Q 22.75 39.890625 18.8125 39.015625 
Q 14.890625 38.140625 10.796875 36.28125 
z
" id="DejaVuSans-53"/>
      </defs>
      <g transform="translate(497.234028 203.598437)scale(0.1 -0.1)">
       <use xlink:href="#DejaVuSans-53"/>
       <use x="63.623047" xlink:href="#DejaVuSans-48"/>
       <use x="127.246094" xlink:href="#DejaVuSans-48"/>
      </g>
     </g>
    </g>
    <g id="xtick_7">
     <g id="line2d_7">
      <g>
       <use style="stroke:#000000;stroke-width:0.8;" x="585.060606" xlink:href="#m0cca1b17fd" y="189"/>
      </g>
     </g>
     <g id="text_7">
      <!-- 600 -->
      <defs>
       <path d="M 33.015625 40.375 
Q 26.375 40.375 22.484375 35.828125 
Q 18.609375 31.296875 18.609375 23.390625 
Q 18.609375 15.53125 22.484375 10.953125 
Q 26.375 6.390625 33.015625 6.390625 
Q 39.65625 6.390625 43.53125 10.953125 
Q 47.40625 15.53125 47.40625 23.390625 
Q 47.40625 31.296875 43.53125 35.828125 
Q 39.65625 40.375 33.015625 40.375 
z
M 52.59375 71.296875 
L 52.59375 62.3125 
Q 48.875 64.0625 45.09375 64.984375 
Q 41.3125 65.921875 37.59375 65.921875 
Q 27.828125 65.921875 22.671875 59.328125 
Q 17.53125 52.734375 16.796875 39.40625 
Q 19.671875 43.65625 24.015625 45.921875 
Q 28.375 48.1875 33.59375 48.1875 
Q 44.578125 48.1875 50.953125 41.515625 
Q 57.328125 34.859375 57.328125 23.390625 
Q 57.328125 12.15625 50.6875 5.359375 
Q 44.046875 -1.421875 33.015625 -1.421875 
Q 20.359375 -1.421875 13.671875 8.265625 
Q 6.984375 17.96875 6.984375 36.375 
Q 6.984375 53.65625 15.1875 63.9375 
Q 23.390625 74.21875 37.203125 74.21875 
Q 40.921875 74.21875 44.703125 73.484375 
Q 48.484375 72.75 52.59375 71.296875 
z
" id="DejaVuSans-54"/>
      </defs>
      <g transform="translate(575.516856 203.598437)scale(0.1 -0.1)">
       <use xlink:href="#DejaVuSans-54"/>
       <use x="63.623047" xlink:href="#DejaVuSans-48"/>
       <use x="127.246094" xlink:href="#DejaVuSans-48"/>
      </g>
     </g>
    </g>
   </g>
   <g id="matplotlib.axis_2">
    <g id="ytick_1">
     <g id="line2d_8">
      <defs>
       <path d="M 0 0 
L -3.5 0 
" id="me1decde0bd" style="stroke:#000000;stroke-width:0.8;"/>
      </defs>
      <g>
       <use style="stroke:#000000;stroke-width:0.8;" x="90" xlink:href="#me1decde0bd" y="189"/>
      </g>
     </g>
     <g id="text_8">
      <!-- −2.0 -->
      <defs>
       <path d="M 10.59375 35.5 
L 73.1875 35.5 
L 73.1875 27.203125 
L 10.59375 27.203125 
z
" id="DejaVuSans-8722"/>
       <path d="M 10.6875 12.40625 
L 21 12.40625 
L 21 0 
L 10.6875 0 
z
" id="DejaVuSans-46"/>
      </defs>
      <g transform="translate(58.717187 192.799219)scale(0.1 -0.1)">
       <use xlink:href="#DejaVuSans-8722"/>
       <use x="83.789062" xlink:href="#DejaVuSans-50"/>
       <use x="147.412109" xlink:href="#DejaVuSans-46"/>
       <use x="179.199219" xlink:href="#DejaVuSans-48"/>
      </g>
     </g>
    </g>
    <g id="ytick_2">
     <g id="line2d_9">
      <g>
       <use style="stroke:#000000;stroke-width:0.8;" x="90" xlink:href="#me1decde0bd" y="168.615"/>
      </g>
     </g>
     <g id="text_9">
      <!-- −1.5 -->
      <g transform="translate(58.717187 172.414219)scale(0.1 -0.1)">
       <use xlink:href="#DejaVuSans-8722"/>
       <use x="83.789062" xlink:href="#DejaVuSans-49"/>
       <use x="147.412109" xlink:href="#DejaVuSans-46"/>
       <use x="179.199219" xlink:href="#DejaVuSans-53"/>
      </g>
     </g>
    </g>
    <g id="ytick_3">
     <g id="line2d_10">
      <g>
       <use style="stroke:#000000;stroke-width:0.8;" x="90" xlink:href="#me1decde0bd" y="148.23"/>
      </g>
     </g>
     <g id="text_10">
      <!-- −1.0 -->
      <g transform="translate(58.717187 152.029219)scale(0.1 -0.1)">
       <use xlink:href="#DejaVuSans-8722"/>
       <use x="83.789062" xlink:href="#DejaVuSans-49"/>
       <use x="147.412109" xlink:href="#DejaVuSans-46"/>
       <use x="179.199219" xlink:href="#DejaVuSans-48"/>
      </g>
     </g>
    </g>
    <g id="ytick_4">
     <g id="line2d_11">
      <g>
       <use style="stroke:#000000;stroke-width:0.8;" x="90" xlink:href="#me1decde0bd" y="127.845"/>
      </g>
     </g>
     <g id="text_11">
      <!-- −0.5 -->
      <g transform="translate(58.717187 131.644219)scale(0.1 -0.1)">
       <use xlink:href="#DejaVuSans-8722"/>
       <use x="83.789062" xlink:href="#DejaVuSans-48"/>
       <use x="147.412109" xlink:href="#DejaVuSans-46"/>
       <use x="179.199219" xlink:href="#DejaVuSans-53"/>
      </g>
     </g>
    </g>
    <g id="ytick_5">
     <g id="line2d_12">
      <g>
       <use style="stroke:#000000;stroke-width:0.8;" x="90" xlink:href="#me1decde0bd" y="107.46"/>
      </g>
     </g>
     <g id="text_12">
      <!-- 0.0 -->
      <g transform="translate(67.096875 111.259219)scale(0.1 -0.1)">
       <use xlink:href="#DejaVuSans-48"/>
       <use x="63.623047" xlink:href="#DejaVuSans-46"/>
       <use x="95.410156" xlink:href="#DejaVuSans-48"/>
      </g>
     </g>
    </g>
    <g id="ytick_6">
     <g id="line2d_13">
      <g>
       <use style="stroke:#000000;stroke-width:0.8;" x="90" xlink:href="#me1decde0bd" y="87.075"/>
      </g>
     </g>
     <g id="text_13">
      <!-- 0.5 -->
      <g transform="translate(67.096875 90.874219)scale(0.1 -0.1)">
       <use xlink:href="#DejaVuSans-48"/>
       <use x="63.623047" xlink:href="#DejaVuSans-46"/>
       <use x="95.410156" xlink:href="#DejaVuSans-53"/>
      </g>
     </g>
    </g>
    <g id="ytick_7">
     <g id="line2d_14">
      <g>
       <use style="stroke:#000000;stroke-width:0.8;" x="90" xlink:href="#me1decde0bd" y="66.69"/>
      </g>
     </g>
     <g id="text_14">
      <!-- 1.0 -->
      <g transform="translate(67.096875 70.489219)scale(0.1 -0.1)">
       <use xlink:href="#DejaVuSans-49"/>
       <use x="63.623047" xlink:href="#DejaVuSans-46"/>
       <use x="95.410156" xlink:href="#DejaVuSans-48"/>
      </g>
     </g>
    </g>
    <g id="ytick_8">
     <g id="line2d_15">
      <g>
       <use style="stroke:#000000;stroke-width:0.8;" x="90" xlink:href="#me1decde0bd" y="46.305"/>
      </g>
     </g>
     <g id="text_15">
      <!-- 1.5 -->
      <g transform="translate(67.096875 50.104219)scale(0.1 -0.1)">
       <use xlink:href="#DejaVuSans-49"/>
       <use x="63.623047" xlink:href="#DejaVuSans-46"/>
       <use x="95.410156" xlink:href="#DejaVuSans-53"/>
      </g>
     </g>
    </g>
    <g id="ytick_9">
     <g id="line2d_16">
      <g>
       <use style="stroke:#000000;stroke-width:0.8;" x="90" xlink:href="#me1decde0bd" y="25.92"/>
      </g>
     </g>
     <g id="text_16">
      <!-- 2.0 -->
      <g transform="translate(67.096875 29.719219)scale(0.1 -0.1)">
       <use xlink:href="#DejaVuSans-50"/>
       <use x="63.623047" xlink:href="#DejaVuSans-46"/>
       <use x="95.410156" xlink:href="#DejaVuSans-48"/>
      </g>
     </g>
    </g>
   </g>
   <g id="line2d_17">
    <path clip-path="url(#p8c10323e7b)" d="M 115.363636 63.307902 
L 116.146465 65.98161 
L 116.929293 62.637335 
L 117.712121 62.250593 
L 118.494949 66.90044 
L 119.277778 67.281247 
L 120.060606 62.901681 
L 120.843434 65.436959 
L 121.626263 63.210289 
L 122.409091 63.441808 
L 123.191919 68.964771 
L 123.974747 63.998687 
L 124.757576 63.424451 
L 127.106061 66.026335 
L 127.888889 60.949725 
L 128.671717 66.360133 
L 129.454545 62.949835 
L 130.237374 65.432392 
L 131.020202 63.504789 
L 131.80303 63.157885 
L 132.585859 62.47051 
L 133.368687 64.662568 
L 134.151515 62.759423 
L 134.934343 65.163969 
L 135.717172 61.271524 
L 136.5 61.686607 
L 137.282828 62.907906 
L 138.065657 62.480227 
L 139.631313 67.366777 
L 140.414141 63.438912 
L 141.19697 66.239174 
L 141.979798 64.344355 
L 142.762626 64.430204 
L 143.545455 65.551412 
L 144.328283 63.3233 
L 145.111111 62.928508 
L 145.893939 64.324012 
L 146.676768 67.197046 
L 147.459596 63.914157 
L 148.242424 63.399443 
L 149.025253 63.331446 
L 149.808081 61.216673 
L 150.590909 65.27799 
L 151.373737 63.02335 
L 152.156566 64.718239 
L 152.939394 64.173809 
L 153.722222 62.909289 
L 154.505051 64.239678 
L 155.287879 66.594979 
L 156.070707 65.648977 
L 156.853535 66.145744 
L 157.636364 64.857929 
L 158.419192 65.184297 
L 159.20202 63.007465 
L 159.984848 63.889522 
L 160.767677 65.305645 
L 161.550505 63.415559 
L 162.333333 63.788721 
L 163.116162 66.041254 
L 163.89899 65.465085 
L 164.681818 63.220552 
L 165.464646 65.150739 
L 166.247475 65.973203 
L 167.030303 64.712562 
L 167.813131 64.24794 
L 168.59596 65.594783 
L 169.378788 62.319322 
L 170.161616 64.67874 
L 170.944444 65.80058 
L 171.727273 63.751127 
L 172.510101 63.072827 
L 173.292929 63.700125 
L 174.075758 60.703934 
L 174.858586 66.201641 
L 175.641414 65.224811 
L 176.424242 66.700654 
L 177.207071 63.752307 
L 177.989899 63.625095 
L 178.772727 62.910476 
L 179.555556 65.045459 
L 180.338384 61.807549 
L 181.121212 61.334198 
L 181.90404 65.592147 
L 183.469697 63.157872 
L 184.252525 67.698556 
L 185.035354 62.496248 
L 185.818182 60.772832 
L 186.60101 63.901789 
L 187.383838 65.077873 
L 188.166667 64.34139 
L 189.732323 61.379628 
L 190.515152 65.531546 
L 192.080808 64.111554 
L 192.863636 65.585466 
L 193.646465 65.500866 
L 194.429293 64.33392 
L 195.212121 63.603219 
L 195.994949 62.080749 
L 196.777778 62.046167 
L 197.560606 60.305118 
L 198.343434 65.348032 
L 199.126263 62.645989 
L 199.909091 63.180096 
L 200.691919 63.55709 
L 201.474747 63.666486 
L 202.257576 63.282745 
L 203.823232 62.072919 
L 204.606061 65.929301 
L 205.388889 63.875423 
L 206.171717 66.515794 
L 206.954545 63.041204 
L 207.737374 64.837952 
L 208.520202 63.916584 
L 209.30303 60.734377 
L 210.085859 63.963119 
L 211.651515 63.995474 
L 212.434343 62.753244 
L 213.217172 64.839998 
L 214 65.644451 
L 214.782828 62.46886 
L 215.565657 65.032905 
L 216.348485 62.654484 
L 217.131313 63.885714 
L 217.914141 62.884821 
L 218.69697 63.48672 
L 219.479798 63.480893 
L 220.262626 60.924978 
L 221.045455 63.19899 
L 221.828283 65.120537 
L 222.611111 60.75328 
L 223.393939 64.474519 
L 224.959596 64.566994 
L 225.742424 61.99983 
L 226.525253 65.093591 
L 227.308081 65.065147 
L 228.873737 65.413082 
L 229.656566 64.471326 
L 230.439394 67.285887 
L 231.222222 64.168154 
L 232.005051 67.227157 
L 232.787879 62.543554 
L 233.570707 63.877072 
L 234.353535 62.89845 
L 235.136364 65.01822 
L 235.919192 62.980446 
L 236.70202 63.833906 
L 237.484848 62.921629 
L 238.267677 63.040679 
L 239.050505 63.336667 
L 239.833333 64.72587 
L 240.616162 66.549778 
L 241.39899 63.738038 
L 242.181818 64.559668 
L 242.964646 62.820218 
L 243.747475 59.113746 
L 244.530303 67.419553 
L 245.313131 62.387189 
L 246.09596 64.392965 
L 246.878788 62.937519 
L 247.661616 65.503385 
L 248.444444 64.240115 
L 249.227273 65.788693 
L 250.010101 61.521089 
L 250.792929 62.99994 
L 251.575758 62.563836 
L 252.358586 64.339005 
L 253.141414 64.247103 
L 254.707071 66.680952 
L 255.489899 64.390906 
L 256.272727 65.844245 
L 257.055556 64.655266 
L 257.838384 64.226597 
L 258.621212 63.001244 
L 259.40404 66.776388 
L 260.186869 63.062089 
L 260.969697 62.42985 
L 261.752525 63.580569 
L 262.535354 60.87537 
L 263.318182 61.453999 
L 264.10101 65.413656 
L 264.883838 65.038216 
L 265.666667 59.598554 
L 266.449495 64.757888 
L 267.232323 63.207284 
L 268.015152 65.616012 
L 268.79798 63.497306 
L 269.580808 62.028294 
L 270.363636 64.863823 
L 271.146465 64.210118 
L 271.929293 59.446072 
L 272.712121 66.652579 
L 273.494949 65.491596 
L 274.277778 63.759419 
L 275.060606 65.982165 
L 275.843434 62.147559 
L 276.626263 66.169079 
L 277.409091 60.268785 
L 278.191919 59.640117 
L 278.974747 61.02957 
L 279.757576 62.795232 
L 280.540404 63.327107 
L 281.323232 62.973802 
L 282.106061 65.460803 
L 282.888889 65.02846 
L 283.671717 64.801216 
L 284.454545 62.766645 
L 285.237374 64.678788 
L 286.020202 66.940225 
L 286.80303 65.630013 
L 287.585859 63.850487 
L 288.368687 61.122631 
L 289.151515 63.617749 
L 289.934343 64.831872 
L 290.717172 64.665418 
L 291.5 62.897407 
L 292.282828 63.79874 
L 293.065657 61.725974 
L 293.848485 65.469874 
L 294.631313 65.045798 
L 296.19697 62.059888 
L 296.979798 63.193318 
L 297.762626 64.576531 
L 298.545455 63.865676 
L 299.328283 65.759821 
L 300.111111 62.01262 
L 300.893939 63.623108 
L 301.676768 62.408241 
L 302.459596 66.400954 
L 303.242424 61.772261 
L 304.025253 60.211403 
L 304.808081 65.847947 
L 305.590909 63.924591 
L 306.373737 62.684963 
L 307.156566 66.225642 
L 307.939394 63.002647 
L 308.722222 63.612877 
L 309.505051 63.021311 
L 310.287879 64.156738 
L 311.070707 65.975015 
L 311.853535 64.092229 
L 312.636364 62.753312 
L 313.419192 65.2098 
L 314.20202 63.216351 
L 314.984848 62.906392 
L 315.767677 65.454305 
L 316.550505 62.703313 
L 318.89899 63.081348 
L 319.681818 65.450452 
L 321.247475 65.346363 
L 322.030303 66.219452 
L 322.813131 63.083773 
L 323.59596 64.076107 
L 324.378788 66.648465 
L 325.161616 65.283837 
L 325.944444 62.23772 
L 326.727273 64.753942 
L 327.510101 61.842081 
L 328.292929 64.869384 
L 329.075758 64.176586 
L 329.858586 62.954639 
L 330.641414 65.61614 
L 331.424242 65.798166 
L 332.207071 60.724349 
L 332.989899 62.510417 
L 333.772727 64.648906 
L 334.555556 62.716345 
L 335.338384 62.25114 
L 336.121212 62.096315 
L 336.90404 63.422352 
L 337.686869 61.353332 
L 338.469697 61.760777 
L 339.252525 65.065527 
L 340.035354 62.392148 
L 340.818182 61.497578 
L 341.60101 66.078766 
L 342.383838 64.873525 
L 343.166667 60.715751 
L 343.949495 66.42078 
L 344.732323 66.989247 
L 345.515152 64.099987 
L 346.29798 64.143335 
L 347.080808 65.115824 
L 347.863636 62.179325 
L 348.646465 65.166315 
L 349.429293 62.772267 
L 350.212121 61.540887 
L 350.994949 65.122146 
L 351.777778 63.696055 
L 352.560606 61.865745 
L 353.343434 63.826288 
L 354.126263 65.458742 
L 354.909091 63.228071 
L 355.691919 66.813438 
L 356.474747 64.328266 
L 357.257576 63.82887 
L 358.040404 65.442602 
L 358.823232 62.565304 
L 359.606061 64.441945 
L 360.388889 65.039551 
L 361.171717 62.830434 
L 361.954545 65.749616 
L 362.737374 64.83065 
L 363.520202 61.459466 
L 364.30303 63.556683 
L 365.085859 61.932939 
L 365.868687 62.707254 
L 366.651515 61.6238 
L 368.217172 65.380903 
L 369 64.545901 
L 369.782828 61.074096 
L 370.565657 64.564129 
L 371.348485 59.471958 
L 372.131313 66.023355 
L 372.914141 64.959034 
L 373.69697 60.217902 
L 374.479798 63.957449 
L 375.262626 66.17592 
L 376.045455 64.215301 
L 376.828283 65.690246 
L 377.611111 63.388182 
L 378.393939 63.832005 
L 379.176768 64.454218 
L 379.959596 64.233548 
L 380.742424 63.346112 
L 381.525253 63.10601 
L 382.308081 62.379066 
L 383.090909 61.003174 
L 383.873737 65.695813 
L 384.656566 65.227913 
L 385.439394 63.774872 
L 386.222222 62.776421 
L 387.005051 64.517434 
L 387.787879 65.60162 
L 388.570707 62.212012 
L 389.353535 61.010785 
L 390.136364 62.36884 
L 390.919192 61.911656 
L 391.70202 60.663485 
L 392.484848 63.182093 
L 393.267677 64.139164 
L 394.050505 62.653567 
L 394.833333 65.032248 
L 395.616162 62.963788 
L 396.39899 62.681647 
L 397.181818 60.914881 
L 397.964646 65.842112 
L 398.747475 62.726853 
L 399.530303 66.642241 
L 401.09596 62.12339 
L 401.878788 64.056128 
L 402.661616 64.844903 
L 403.444444 67.022119 
L 404.227273 65.734778 
L 405.010101 68.613955 
L 405.792929 63.021844 
L 406.575758 63.663447 
L 407.358586 62.849364 
L 408.141414 66.752743 
L 408.924242 60.176573 
L 409.707071 63.759627 
L 410.489899 63.832687 
L 411.272727 66.739647 
L 412.055556 63.816956 
L 412.838384 63.421682 
L 413.621212 69.298319 
L 414.40404 61.744926 
L 415.186869 66.44349 
L 415.969697 64.353624 
L 417.535354 63.100278 
L 418.318182 65.584987 
L 419.10101 64.749129 
L 419.883838 63.446312 
L 420.666667 64.849913 
L 421.449495 60.756261 
L 422.232323 66.081568 
L 423.015152 64.447674 
L 423.79798 64.627499 
L 424.580808 63.265912 
L 425.363636 61.407014 
L 426.146465 64.010349 
L 426.929293 67.039344 
L 427.712121 62.145654 
L 428.494949 65.088135 
L 429.277778 64.005325 
L 430.060606 63.765219 
L 430.843434 66.225665 
L 431.626263 63.002363 
L 432.409091 66.027457 
L 433.191919 62.139547 
L 433.974747 65.055422 
L 434.757576 64.263827 
L 435.540404 66.96252 
L 436.323232 61.314008 
L 437.106061 63.048912 
L 437.888889 66.239997 
L 438.671717 64.494499 
L 439.454545 64.081194 
L 440.237374 64.580971 
L 441.020202 62.591538 
L 441.80303 63.675562 
L 442.585859 66.576583 
L 443.368687 64.609834 
L 444.151515 63.131218 
L 444.934343 66.192702 
L 445.717172 64.727474 
L 446.5 64.350357 
L 447.282828 64.920562 
L 448.065657 65.944237 
L 448.848485 62.907338 
L 449.631313 65.648897 
L 450.414141 65.375401 
L 451.19697 70.021793 
L 451.979798 64.777082 
L 452.762626 64.612738 
L 453.545455 65.583267 
L 454.328283 62.081244 
L 455.893939 63.063999 
L 456.676768 59.537653 
L 457.459596 64.810071 
L 459.025253 65.095697 
L 459.808081 62.809327 
L 460.590909 64.051005 
L 461.373737 60.225871 
L 462.156566 62.666975 
L 462.939394 61.999786 
L 463.722222 61.677872 
L 464.505051 62.652979 
L 465.287879 65.872748 
L 466.070707 65.112877 
L 466.853535 63.841612 
L 467.636364 63.950721 
L 469.20202 63.408736 
L 469.984848 60.19017 
L 470.767677 61.670719 
L 471.550505 62.347374 
L 472.333333 64.014786 
L 473.116162 64.175045 
L 473.89899 66.664798 
L 474.681818 63.388875 
L 475.464646 62.739567 
L 476.247475 64.889993 
L 477.030303 64.45722 
L 477.813131 63.33147 
L 478.59596 65.500729 
L 480.161616 64.051554 
L 480.944444 65.096383 
L 481.727273 62.979474 
L 482.510101 64.239327 
L 483.292929 62.427295 
L 484.075758 66.019157 
L 484.858586 64.376953 
L 485.641414 64.057169 
L 486.424242 64.133676 
L 487.207071 62.33985 
L 487.989899 63.985605 
L 488.772727 62.052299 
L 489.555556 64.6265 
L 490.338384 61.611422 
L 491.121212 62.329103 
L 491.90404 62.048054 
L 492.686869 63.019643 
L 495.035354 67.000016 
L 495.818182 67.975357 
L 496.60101 60.945082 
L 497.383838 67.056744 
L 498.166667 62.989497 
L 498.949495 62.84969 
L 499.732323 61.802434 
L 500.515152 65.768532 
L 501.29798 65.884979 
L 502.080808 65.598535 
L 502.863636 64.791163 
L 503.646465 63.209719 
L 504.429293 66.180155 
L 505.212121 64.677324 
L 505.994949 64.392098 
L 506.777778 60.970574 
L 507.560606 64.704434 
L 508.343434 63.582458 
L 509.126263 64.330059 
L 509.909091 63.860225 
L 510.691919 62.787408 
L 511.474747 64.220092 
L 512.257576 63.397752 
L 513.040404 63.152218 
L 513.823232 64.769878 
L 514.606061 66.831289 
L 515.388889 65.174458 
L 516.171717 64.508776 
L 516.954545 60.786864 
L 517.737374 63.743026 
L 518.520202 63.784546 
L 519.30303 64.487575 
L 520.085859 61.601183 
L 520.868687 61.891552 
L 521.651515 64.1576 
L 522.434343 65.705479 
L 523.217172 63.967024 
L 524 65.125049 
L 524.782828 64.924134 
L 525.565657 62.011137 
L 526.348485 63.120987 
L 527.131313 65.760111 
L 527.914141 66.976807 
L 528.69697 63.351537 
L 529.479798 64.042627 
L 531.045455 63.288534 
L 531.828283 60.318745 
L 532.611111 63.106271 
L 533.393939 62.680068 
L 534.176768 63.325557 
L 534.959596 63.791914 
L 535.742424 63.43728 
L 536.525253 62.893829 
L 537.308081 65.128766 
L 538.090909 62.623451 
L 538.873737 65.485178 
L 539.656566 65.980967 
L 540.439394 62.625415 
L 541.222222 64.137616 
L 542.005051 64.799398 
L 542.787879 60.493552 
L 543.570707 64.653227 
L 544.353535 66.0297 
L 545.136364 66.685377 
L 545.919192 65.553287 
L 546.70202 62.295616 
L 547.484848 64.181171 
L 548.267677 60.79874 
L 549.050505 61.917095 
L 549.833333 64.0431 
L 550.616162 65.489531 
L 551.39899 61.627819 
L 552.181818 67.343247 
L 552.964646 64.04507 
L 553.747475 63.033282 
L 554.530303 64.86101 
L 555.313131 65.413936 
L 556.09596 64.478802 
L 556.878788 64.767329 
L 557.661616 64.669529 
L 559.227273 61.716042 
L 560.010101 64.930912 
L 560.792929 63.098929 
L 561.575758 64.858247 
L 562.358586 63.55989 
L 563.141414 63.73437 
L 563.924242 64.838902 
L 564.707071 64.248435 
L 565.489899 64.899076 
L 566.272727 62.902876 
L 567.055556 67.633094 
L 567.838384 63.723501 
L 568.621212 68.369822 
L 569.40404 65.708241 
L 570.186869 67.39011 
L 570.969697 64.234949 
L 571.752525 63.274904 
L 572.535354 61.624141 
L 573.318182 63.616331 
L 574.10101 64.548273 
L 574.883838 66.013827 
L 575.666667 63.271253 
L 576.449495 63.469358 
L 577.232323 65.694314 
L 578.015152 63.456415 
L 578.79798 63.994348 
L 579.580808 62.002602 
L 580.363636 64.710807 
L 581.146465 65.187381 
L 581.929293 62.420898 
L 582.712121 65.123252 
L 583.494949 63.077662 
L 584.277778 62.838486 
L 585.060606 61.518978 
L 585.843434 65.118437 
L 586.626263 62.325899 
L 587.409091 64.740587 
L 588.191919 65.013329 
L 588.974747 62.395922 
L 589.757576 65.932124 
L 590.540404 65.415306 
L 591.323232 64.454172 
L 592.106061 66.091682 
L 592.888889 63.040638 
L 593.671717 65.34792 
L 594.454545 65.896239 
L 595.237374 66.143858 
L 596.020202 64.102727 
L 596.80303 62.418494 
L 597.585859 64.966225 
L 598.368687 66.500359 
L 599.151515 63.960437 
L 599.934343 62.599573 
L 600.717172 61.68296 
L 601.5 65.230432 
L 602.282828 65.843829 
L 603.065657 62.951783 
L 603.848485 67.137426 
L 604.631313 63.666167 
L 605.414141 62.989507 
L 606.19697 63.091538 
L 606.979798 65.713932 
L 607.762626 65.071089 
L 608.545455 62.025408 
L 609.328283 64.956401 
L 610.111111 63.559078 
L 610.893939 63.832287 
L 611.676768 67.333121 
L 612.459596 62.422527 
L 613.242424 62.662447 
L 614.808081 63.69036 
L 615.590909 62.663019 
L 616.373737 61.430668 
L 617.156566 63.689142 
L 617.939394 65.585545 
L 619.505051 64.643093 
L 620.287879 64.624595 
L 621.070707 66.570779 
L 621.853535 64.637954 
L 622.636364 63.857153 
L 622.636364 63.857153 
" style="fill:none;stroke:#0000ff;stroke-linecap:square;"/>
   </g>
   <g id="patch_3">
    <path d="M 90 189 
L 90 25.92 
" style="fill:none;stroke:#000000;stroke-linecap:square;stroke-linejoin:miter;stroke-width:0.8;"/>
   </g>
   <g id="patch_4">
    <path d="M 648 189 
L 648 25.92 
" style="fill:none;stroke:#000000;stroke-linecap:square;stroke-linejoin:miter;stroke-width:0.8;"/>
   </g>
   <g id="patch_5">
    <path d="M 90 189 
L 648 189 
" style="fill:none;stroke:#000000;stroke-linecap:square;stroke-linejoin:miter;stroke-width:0.8;"/>
   </g>
   <g id="patch_6">
    <path d="M 90 25.92 
L 648 25.92 
" style="fill:none;stroke:#000000;stroke-linecap:square;stroke-linejoin:miter;stroke-width:0.8;"/>
   </g>
  </g>
 </g>
 <defs>
  <clipPath id="p8c10323e7b">
   <rect height="163.08" width="558" x="90" y="25.92"/>
  </clipPath>
 </defs>
</svg>
