<?xml version="1.0" encoding="utf-8" standalone="no"?>
<!DOCTYPE svg PUBLIC "-//W3C//DTD SVG 1.1//EN"
  "http://www.w3.org/Graphics/SVG/1.1/DTD/svg11.dtd">
<!-- Created with matplotlib (https://matplotlib.org/) -->
<svg height="216pt" version="1.1" viewBox="0 0 720 216" width="720pt" xmlns="http://www.w3.org/2000/svg" xmlns:xlink="http://www.w3.org/1999/xlink">
 <defs>
  <style type="text/css">
*{stroke-linecap:butt;stroke-linejoin:round;}
  </style>
 </defs>
 <g id="figure_1">
  <g id="patch_1">
   <path d="M 0 216 
L 720 216 
L 720 0 
L 0 0 
z
" style="fill:none;"/>
  </g>
  <g id="axes_1">
   <g id="patch_2">
    <path d="M 90 189 
L 648 189 
L 648 25.92 
L 90 25.92 
z
" style="fill:none;"/>
   </g>
   <g id="matplotlib.axis_1">
    <g id="xtick_1">
     <g id="line2d_1">
      <defs>
       <path d="M 0 0 
L 0 3.5 
" id="ma1746cb8a6" style="stroke:#000000;stroke-width:0.8;"/>
      </defs>
      <g>
       <use style="stroke:#000000;stroke-width:0.8;" x="115.363636" xlink:href="#ma1746cb8a6" y="189"/>
      </g>
     </g>
     <g id="text_1">
      <!-- 0 -->
      <defs>
       <path d="M 31.78125 66.40625 
Q 24.171875 66.40625 20.328125 58.90625 
Q 16.5 51.421875 16.5 36.375 
Q 16.5 21.390625 20.328125 13.890625 
Q 24.171875 6.390625 31.78125 6.390625 
Q 39.453125 6.390625 43.28125 13.890625 
Q 47.125 21.390625 47.125 36.375 
Q 47.125 51.421875 43.28125 58.90625 
Q 39.453125 66.40625 31.78125 66.40625 
z
M 31.78125 74.21875 
Q 44.046875 74.21875 50.515625 64.515625 
Q 56.984375 54.828125 56.984375 36.375 
Q 56.984375 17.96875 50.515625 8.265625 
Q 44.046875 -1.421875 31.78125 -1.421875 
Q 19.53125 -1.421875 13.0625 8.265625 
Q 6.59375 17.96875 6.59375 36.375 
Q 6.59375 54.828125 13.0625 64.515625 
Q 19.53125 74.21875 31.78125 74.21875 
z
" id="DejaVuSans-48"/>
      </defs>
      <g transform="translate(112.182386 203.598437)scale(0.1 -0.1)">
       <use xlink:href="#DejaVuSans-48"/>
      </g>
     </g>
    </g>
    <g id="xtick_2">
     <g id="line2d_2">
      <g>
       <use style="stroke:#000000;stroke-width:0.8;" x="233.334038" xlink:href="#ma1746cb8a6" y="189"/>
      </g>
     </g>
     <g id="text_2">
      <!-- 100 -->
      <defs>
       <path d="M 12.40625 8.296875 
L 28.515625 8.296875 
L 28.515625 63.921875 
L 10.984375 60.40625 
L 10.984375 69.390625 
L 28.421875 72.90625 
L 38.28125 72.90625 
L 38.28125 8.296875 
L 54.390625 8.296875 
L 54.390625 0 
L 12.40625 0 
z
" id="DejaVuSans-49"/>
      </defs>
      <g transform="translate(223.790288 203.598437)scale(0.1 -0.1)">
       <use xlink:href="#DejaVuSans-49"/>
       <use x="63.623047" xlink:href="#DejaVuSans-48"/>
       <use x="127.246094" xlink:href="#DejaVuSans-48"/>
      </g>
     </g>
    </g>
    <g id="xtick_3">
     <g id="line2d_3">
      <g>
       <use style="stroke:#000000;stroke-width:0.8;" x="351.30444" xlink:href="#ma1746cb8a6" y="189"/>
      </g>
     </g>
     <g id="text_3">
      <!-- 200 -->
      <defs>
       <path d="M 19.1875 8.296875 
L 53.609375 8.296875 
L 53.609375 0 
L 7.328125 0 
L 7.328125 8.296875 
Q 12.9375 14.109375 22.625 23.890625 
Q 32.328125 33.6875 34.8125 36.53125 
Q 39.546875 41.84375 41.421875 45.53125 
Q 43.3125 49.21875 43.3125 52.78125 
Q 43.3125 58.59375 39.234375 62.25 
Q 35.15625 65.921875 28.609375 65.921875 
Q 23.96875 65.921875 18.8125 64.3125 
Q 13.671875 62.703125 7.8125 59.421875 
L 7.8125 69.390625 
Q 13.765625 71.78125 18.9375 73 
Q 24.125 74.21875 28.421875 74.21875 
Q 39.75 74.21875 46.484375 68.546875 
Q 53.21875 62.890625 53.21875 53.421875 
Q 53.21875 48.921875 51.53125 44.890625 
Q 49.859375 40.875 45.40625 35.40625 
Q 44.1875 33.984375 37.640625 27.21875 
Q 31.109375 20.453125 19.1875 8.296875 
z
" id="DejaVuSans-50"/>
      </defs>
      <g transform="translate(341.76069 203.598437)scale(0.1 -0.1)">
       <use xlink:href="#DejaVuSans-50"/>
       <use x="63.623047" xlink:href="#DejaVuSans-48"/>
       <use x="127.246094" xlink:href="#DejaVuSans-48"/>
      </g>
     </g>
    </g>
    <g id="xtick_4">
     <g id="line2d_4">
      <g>
       <use style="stroke:#000000;stroke-width:0.8;" x="469.274841" xlink:href="#ma1746cb8a6" y="189"/>
      </g>
     </g>
     <g id="text_4">
      <!-- 300 -->
      <defs>
       <path d="M 40.578125 39.3125 
Q 47.65625 37.796875 51.625 33 
Q 55.609375 28.21875 55.609375 21.1875 
Q 55.609375 10.40625 48.1875 4.484375 
Q 40.765625 -1.421875 27.09375 -1.421875 
Q 22.515625 -1.421875 17.65625 -0.515625 
Q 12.796875 0.390625 7.625 2.203125 
L 7.625 11.71875 
Q 11.71875 9.328125 16.59375 8.109375 
Q 21.484375 6.890625 26.8125 6.890625 
Q 36.078125 6.890625 40.9375 10.546875 
Q 45.796875 14.203125 45.796875 21.1875 
Q 45.796875 27.640625 41.28125 31.265625 
Q 36.765625 34.90625 28.71875 34.90625 
L 20.21875 34.90625 
L 20.21875 43.015625 
L 29.109375 43.015625 
Q 36.375 43.015625 40.234375 45.921875 
Q 44.09375 48.828125 44.09375 54.296875 
Q 44.09375 59.90625 40.109375 62.90625 
Q 36.140625 65.921875 28.71875 65.921875 
Q 24.65625 65.921875 20.015625 65.03125 
Q 15.375 64.15625 9.8125 62.3125 
L 9.8125 71.09375 
Q 15.4375 72.65625 20.34375 73.4375 
Q 25.25 74.21875 29.59375 74.21875 
Q 40.828125 74.21875 47.359375 69.109375 
Q 53.90625 64.015625 53.90625 55.328125 
Q 53.90625 49.265625 50.4375 45.09375 
Q 46.96875 40.921875 40.578125 39.3125 
z
" id="DejaVuSans-51"/>
      </defs>
      <g transform="translate(459.731091 203.598437)scale(0.1 -0.1)">
       <use xlink:href="#DejaVuSans-51"/>
       <use x="63.623047" xlink:href="#DejaVuSans-48"/>
       <use x="127.246094" xlink:href="#DejaVuSans-48"/>
      </g>
     </g>
    </g>
    <g id="xtick_5">
     <g id="line2d_5">
      <g>
       <use style="stroke:#000000;stroke-width:0.8;" x="587.245243" xlink:href="#ma1746cb8a6" y="189"/>
      </g>
     </g>
     <g id="text_5">
      <!-- 400 -->
      <defs>
       <path d="M 37.796875 64.3125 
L 12.890625 25.390625 
L 37.796875 25.390625 
z
M 35.203125 72.90625 
L 47.609375 72.90625 
L 47.609375 25.390625 
L 58.015625 25.390625 
L 58.015625 17.1875 
L 47.609375 17.1875 
L 47.609375 0 
L 37.796875 0 
L 37.796875 17.1875 
L 4.890625 17.1875 
L 4.890625 26.703125 
z
" id="DejaVuSans-52"/>
      </defs>
      <g transform="translate(577.701493 203.598437)scale(0.1 -0.1)">
       <use xlink:href="#DejaVuSans-52"/>
       <use x="63.623047" xlink:href="#DejaVuSans-48"/>
       <use x="127.246094" xlink:href="#DejaVuSans-48"/>
      </g>
     </g>
    </g>
   </g>
   <g id="matplotlib.axis_2">
    <g id="ytick_1">
     <g id="line2d_6">
      <defs>
       <path d="M 0 0 
L -3.5 0 
" id="m9446dd5114" style="stroke:#000000;stroke-width:0.8;"/>
      </defs>
      <g>
       <use style="stroke:#000000;stroke-width:0.8;" x="90" xlink:href="#m9446dd5114" y="189"/>
      </g>
     </g>
     <g id="text_6">
      <!-- −2.0 -->
      <defs>
       <path d="M 10.59375 35.5 
L 73.1875 35.5 
L 73.1875 27.203125 
L 10.59375 27.203125 
z
" id="DejaVuSans-8722"/>
       <path d="M 10.6875 12.40625 
L 21 12.40625 
L 21 0 
L 10.6875 0 
z
" id="DejaVuSans-46"/>
      </defs>
      <g transform="translate(58.717187 192.799219)scale(0.1 -0.1)">
       <use xlink:href="#DejaVuSans-8722"/>
       <use x="83.789062" xlink:href="#DejaVuSans-50"/>
       <use x="147.412109" xlink:href="#DejaVuSans-46"/>
       <use x="179.199219" xlink:href="#DejaVuSans-48"/>
      </g>
     </g>
    </g>
    <g id="ytick_2">
     <g id="line2d_7">
      <g>
       <use style="stroke:#000000;stroke-width:0.8;" x="90" xlink:href="#m9446dd5114" y="168.615"/>
      </g>
     </g>
     <g id="text_7">
      <!-- −1.5 -->
      <defs>
       <path d="M 10.796875 72.90625 
L 49.515625 72.90625 
L 49.515625 64.59375 
L 19.828125 64.59375 
L 19.828125 46.734375 
Q 21.96875 47.46875 24.109375 47.828125 
Q 26.265625 48.1875 28.421875 48.1875 
Q 40.625 48.1875 47.75 41.5 
Q 54.890625 34.8125 54.890625 23.390625 
Q 54.890625 11.625 47.5625 5.09375 
Q 40.234375 -1.421875 26.90625 -1.421875 
Q 22.3125 -1.421875 17.546875 -0.640625 
Q 12.796875 0.140625 7.71875 1.703125 
L 7.71875 11.625 
Q 12.109375 9.234375 16.796875 8.0625 
Q 21.484375 6.890625 26.703125 6.890625 
Q 35.15625 6.890625 40.078125 11.328125 
Q 45.015625 15.765625 45.015625 23.390625 
Q 45.015625 31 40.078125 35.4375 
Q 35.15625 39.890625 26.703125 39.890625 
Q 22.75 39.890625 18.8125 39.015625 
Q 14.890625 38.140625 10.796875 36.28125 
z
" id="DejaVuSans-53"/>
      </defs>
      <g transform="translate(58.717187 172.414219)scale(0.1 -0.1)">
       <use xlink:href="#DejaVuSans-8722"/>
       <use x="83.789062" xlink:href="#DejaVuSans-49"/>
       <use x="147.412109" xlink:href="#DejaVuSans-46"/>
       <use x="179.199219" xlink:href="#DejaVuSans-53"/>
      </g>
     </g>
    </g>
    <g id="ytick_3">
     <g id="line2d_8">
      <g>
       <use style="stroke:#000000;stroke-width:0.8;" x="90" xlink:href="#m9446dd5114" y="148.23"/>
      </g>
     </g>
     <g id="text_8">
      <!-- −1.0 -->
      <g transform="translate(58.717187 152.029219)scale(0.1 -0.1)">
       <use xlink:href="#DejaVuSans-8722"/>
       <use x="83.789062" xlink:href="#DejaVuSans-49"/>
       <use x="147.412109" xlink:href="#DejaVuSans-46"/>
       <use x="179.199219" xlink:href="#DejaVuSans-48"/>
      </g>
     </g>
    </g>
    <g id="ytick_4">
     <g id="line2d_9">
      <g>
       <use style="stroke:#000000;stroke-width:0.8;" x="90" xlink:href="#m9446dd5114" y="127.845"/>
      </g>
     </g>
     <g id="text_9">
      <!-- −0.5 -->
      <g transform="translate(58.717187 131.644219)scale(0.1 -0.1)">
       <use xlink:href="#DejaVuSans-8722"/>
       <use x="83.789062" xlink:href="#DejaVuSans-48"/>
       <use x="147.412109" xlink:href="#DejaVuSans-46"/>
       <use x="179.199219" xlink:href="#DejaVuSans-53"/>
      </g>
     </g>
    </g>
    <g id="ytick_5">
     <g id="line2d_10">
      <g>
       <use style="stroke:#000000;stroke-width:0.8;" x="90" xlink:href="#m9446dd5114" y="107.46"/>
      </g>
     </g>
     <g id="text_10">
      <!-- 0.0 -->
      <g transform="translate(67.096875 111.259219)scale(0.1 -0.1)">
       <use xlink:href="#DejaVuSans-48"/>
       <use x="63.623047" xlink:href="#DejaVuSans-46"/>
       <use x="95.410156" xlink:href="#DejaVuSans-48"/>
      </g>
     </g>
    </g>
    <g id="ytick_6">
     <g id="line2d_11">
      <g>
       <use style="stroke:#000000;stroke-width:0.8;" x="90" xlink:href="#m9446dd5114" y="87.075"/>
      </g>
     </g>
     <g id="text_11">
      <!-- 0.5 -->
      <g transform="translate(67.096875 90.874219)scale(0.1 -0.1)">
       <use xlink:href="#DejaVuSans-48"/>
       <use x="63.623047" xlink:href="#DejaVuSans-46"/>
       <use x="95.410156" xlink:href="#DejaVuSans-53"/>
      </g>
     </g>
    </g>
    <g id="ytick_7">
     <g id="line2d_12">
      <g>
       <use style="stroke:#000000;stroke-width:0.8;" x="90" xlink:href="#m9446dd5114" y="66.69"/>
      </g>
     </g>
     <g id="text_12">
      <!-- 1.0 -->
      <g transform="translate(67.096875 70.489219)scale(0.1 -0.1)">
       <use xlink:href="#DejaVuSans-49"/>
       <use x="63.623047" xlink:href="#DejaVuSans-46"/>
       <use x="95.410156" xlink:href="#DejaVuSans-48"/>
      </g>
     </g>
    </g>
    <g id="ytick_8">
     <g id="line2d_13">
      <g>
       <use style="stroke:#000000;stroke-width:0.8;" x="90" xlink:href="#m9446dd5114" y="46.305"/>
      </g>
     </g>
     <g id="text_13">
      <!-- 1.5 -->
      <g transform="translate(67.096875 50.104219)scale(0.1 -0.1)">
       <use xlink:href="#DejaVuSans-49"/>
       <use x="63.623047" xlink:href="#DejaVuSans-46"/>
       <use x="95.410156" xlink:href="#DejaVuSans-53"/>
      </g>
     </g>
    </g>
    <g id="ytick_9">
     <g id="line2d_14">
      <g>
       <use style="stroke:#000000;stroke-width:0.8;" x="90" xlink:href="#m9446dd5114" y="25.92"/>
      </g>
     </g>
     <g id="text_14">
      <!-- 2.0 -->
      <g transform="translate(67.096875 29.719219)scale(0.1 -0.1)">
       <use xlink:href="#DejaVuSans-50"/>
       <use x="63.623047" xlink:href="#DejaVuSans-46"/>
       <use x="95.410156" xlink:href="#DejaVuSans-48"/>
      </g>
     </g>
    </g>
   </g>
   <g id="line2d_15">
    <path clip-path="url(#pac5be74918)" d="M 115.363636 120.881284 
L 116.54334 53.276415 
L 117.723044 118.60392 
L 118.902748 50.508521 
L 120.082452 119.656886 
L 121.262156 57.218641 
L 122.44186 116.58548 
L 123.621564 51.990263 
L 124.801268 116.149932 
L 125.980973 52.392905 
L 127.160677 119.380524 
L 128.340381 53.23162 
L 129.520085 117.692642 
L 130.699789 52.351507 
L 131.879493 117.579629 
L 133.059197 58.322007 
L 134.238901 121.660337 
L 135.418605 52.682627 
L 136.598309 122.37091 
L 137.778013 51.325606 
L 138.957717 117.108078 
L 140.137421 52.250624 
L 141.317125 114.98133 
L 142.496829 53.636586 
L 143.676533 122.162803 
L 144.856237 50.598848 
L 146.035941 115.320716 
L 147.215645 54.917153 
L 148.395349 119.863105 
L 149.575053 56.348861 
L 150.754757 119.230829 
L 151.934461 54.206607 
L 153.114165 120.548626 
L 154.293869 53.600143 
L 155.473573 116.241967 
L 156.653277 53.16634 
L 157.832981 121.145247 
L 159.012685 52.634375 
L 160.192389 120.001983 
L 161.372093 50.339408 
L 162.551797 123.017142 
L 163.731501 55.129108 
L 164.911205 121.175805 
L 166.090909 54.184077 
L 167.270613 119.17218 
L 168.450317 56.828749 
L 169.630021 118.409531 
L 170.809725 48.875674 
L 171.989429 118.941777 
L 173.169133 51.826577 
L 174.348837 119.464557 
L 175.528541 54.034529 
L 176.708245 117.111711 
L 177.887949 57.917634 
L 179.067653 122.415156 
L 180.247357 56.079918 
L 181.427061 120.471771 
L 182.606765 53.810825 
L 183.786469 121.328446 
L 184.966173 51.312261 
L 186.145877 118.230839 
L 187.325581 55.734668 
L 188.505285 118.88982 
L 189.684989 48.239083 
L 190.864693 119.804057 
L 192.044397 51.254417 
L 193.224101 124.294129 
L 194.403805 52.401202 
L 195.58351 122.707712 
L 196.763214 52.604243 
L 197.942918 117.374632 
L 199.122622 53.559976 
L 200.302326 114.646257 
L 201.48203 53.245626 
L 202.661734 117.759866 
L 203.841438 54.196063 
L 205.021142 118.294282 
L 206.200846 51.171169 
L 207.38055 115.721661 
L 208.560254 48.581798 
L 209.739958 119.944024 
L 210.919662 47.203826 
L 212.099366 117.839852 
L 213.27907 47.730719 
L 214.458774 118.327172 
L 215.638478 50.685131 
L 216.818182 121.424706 
L 217.997886 52.155075 
L 219.17759 119.086993 
L 220.357294 57.780845 
L 221.536998 123.682354 
L 222.716702 53.605226 
L 223.896406 118.276471 
L 225.07611 51.096659 
L 226.255814 117.754024 
L 227.435518 52.351582 
L 228.615222 118.96204 
L 229.794926 51.435417 
L 230.97463 117.71017 
L 232.154334 52.369246 
L 233.334038 113.035094 
L 234.513742 57.21241 
L 235.693446 122.495085 
L 236.87315 52.5236 
L 238.052854 120.748704 
L 239.232558 51.318351 
L 240.412262 117.58332 
L 241.591966 49.664491 
L 242.77167 113.37757 
L 243.951374 51.747505 
L 245.131078 120.525682 
L 246.310782 49.880094 
L 247.490486 113.109967 
L 248.67019 56.054601 
L 249.849894 121.028599 
L 251.029598 56.051289 
L 252.209302 118.575206 
L 253.389006 53.803694 
L 254.56871 117.380375 
L 255.748414 55.264254 
L 256.928118 118.677134 
L 258.107822 52.853316 
L 259.287526 118.009802 
L 260.46723 46.50675 
L 261.646934 121.829973 
L 262.826638 50.013367 
L 264.006342 117.978468 
L 265.186047 52.904793 
L 266.365751 121.22797 
L 267.545455 51.284683 
L 268.725159 120.69619 
L 269.904863 48.739227 
L 271.084567 121.470867 
L 272.264271 52.069964 
L 273.443975 119.9548 
L 274.623679 56.472861 
L 275.803383 117.439983 
L 276.983087 47.392468 
L 278.162791 118.814671 
L 279.342495 53.030766 
L 280.522199 117.856203 
L 281.701903 52.514669 
L 282.881607 117.996442 
L 284.061311 51.289289 
L 285.241015 121.285999 
L 286.420719 54.980696 
L 287.600423 125.365442 
L 288.780127 50.815515 
L 289.959831 124.135232 
L 291.139535 54.668164 
L 292.319239 125.036311 
L 293.498943 47.664238 
L 294.678647 117.99874 
L 295.858351 54.197688 
L 297.038055 118.765952 
L 298.217759 50.88449 
L 299.397463 119.268825 
L 300.577167 56.516018 
L 301.756871 117.819425 
L 302.936575 47.332453 
L 304.116279 119.24878 
L 305.295983 49.60104 
L 306.475687 122.338397 
L 307.655391 51.656007 
L 308.835095 115.398684 
L 310.014799 55.98905 
L 311.194503 118.108186 
L 312.374207 48.271508 
L 313.553911 118.311701 
L 314.733615 54.187419 
L 315.913319 120.718267 
L 317.093023 53.553818 
L 318.272727 121.391702 
L 319.452431 48.765487 
L 320.632135 113.896051 
L 321.811839 51.660988 
L 322.991543 121.16234 
L 324.171247 52.021112 
L 325.350951 121.162526 
L 326.530655 52.14486 
L 327.710359 117.971013 
L 328.890063 51.645582 
L 330.069767 120.60433 
L 331.249471 50.983941 
L 332.429175 115.696287 
L 333.608879 55.336699 
L 334.788584 116.534796 
L 335.968288 51.668564 
L 337.147992 112.477477 
L 338.327696 53.689428 
L 339.5074 123.695169 
L 340.687104 51.626329 
L 341.866808 111.6825 
L 343.046512 49.89644 
L 344.226216 115.452435 
L 345.40592 55.722196 
L 346.585624 120.183998 
L 347.765328 49.448384 
L 348.945032 120.560441 
L 350.124736 51.748977 
L 351.30444 114.1054 
L 352.484144 51.491504 
L 353.663848 123.663795 
L 354.843552 51.630438 
L 356.023256 121.927139 
L 357.20296 54.119767 
L 358.382664 119.120247 
L 359.562368 49.90144 
L 360.742072 119.031768 
L 361.921776 51.882856 
L 363.10148 117.272943 
L 364.281184 54.26902 
L 365.460888 123.574911 
L 366.640592 53.254816 
L 367.820296 116.821949 
L 369 53.341022 
L 370.179704 123.623156 
L 371.359408 51.860265 
L 372.539112 124.057665 
L 373.718816 49.765002 
L 374.89852 120.814074 
L 376.078224 52.418192 
L 377.257928 119.108476 
L 378.437632 52.496079 
L 379.617336 110.04002 
L 380.79704 51.254261 
L 381.976744 117.964197 
L 383.156448 51.246142 
L 384.336152 119.22718 
L 385.515856 49.224942 
L 386.69556 120.126347 
L 387.875264 53.566014 
L 389.054968 117.158114 
L 390.234672 57.984092 
L 391.414376 118.352835 
L 392.59408 55.927866 
L 393.773784 120.161839 
L 394.953488 53.537203 
L 396.133192 113.451668 
L 397.312896 50.744509 
L 398.4926 116.571447 
L 399.672304 53.710438 
L 400.852008 122.861729 
L 402.031712 59.813416 
L 403.211416 124.659468 
L 404.391121 51.208637 
L 405.570825 121.417505 
L 406.750529 49.541563 
L 407.930233 119.568848 
L 409.109937 50.943645 
L 410.289641 120.088547 
L 411.469345 52.253707 
L 412.649049 114.963246 
L 413.828753 49.55431 
L 415.008457 117.773837 
L 416.188161 50.847437 
L 417.367865 117.08057 
L 418.547569 59.600141 
L 419.727273 111.488944 
L 420.906977 54.45361 
L 422.086681 123.996178 
L 423.266385 55.411171 
L 424.446089 120.732679 
L 425.625793 54.517861 
L 426.805497 122.567405 
L 427.985201 53.096025 
L 429.164905 119.642839 
L 430.344609 51.890735 
L 431.524313 122.315453 
L 432.704017 52.740614 
L 433.883721 121.463676 
L 435.063425 54.13967 
L 436.243129 116.920232 
L 437.422833 55.732892 
L 438.602537 121.576674 
L 439.782241 49.73465 
L 440.961945 117.82652 
L 442.141649 54.59301 
L 443.321353 120.637362 
L 444.501057 55.052656 
L 445.680761 117.163375 
L 446.860465 53.316912 
L 448.040169 121.703822 
L 449.219873 50.862879 
L 450.399577 116.936901 
L 451.579281 56.138782 
L 452.758985 122.536388 
L 453.938689 43.649349 
L 455.118393 121.58564 
L 456.298097 55.70257 
L 457.477801 120.700058 
L 458.657505 50.426941 
L 459.837209 121.055021 
L 461.016913 51.15282 
L 462.196617 118.707338 
L 463.376321 54.239765 
L 464.556025 114.806459 
L 465.735729 50.768683 
L 466.915433 118.514807 
L 468.095137 52.214194 
L 469.274841 116.941713 
L 470.454545 49.042224 
L 471.634249 117.254358 
L 472.813953 51.509438 
L 473.993658 122.900126 
L 475.173362 52.440537 
L 476.353066 121.184128 
L 477.53277 51.796793 
L 478.712474 119.250601 
L 479.892178 56.853951 
L 481.071882 122.001961 
L 482.251586 53.639958 
L 483.43129 123.389742 
L 484.610994 50.571961 
L 485.790698 123.017562 
L 486.970402 55.497657 
L 488.150106 118.323055 
L 489.32981 50.16903 
L 490.509514 118.661974 
L 491.689218 54.142235 
L 492.868922 118.393885 
L 494.048626 53.955735 
L 495.22833 120.062511 
L 496.408034 55.797829 
L 497.587738 117.491788 
L 498.767442 55.97296 
L 499.947146 119.426392 
L 501.12685 52.012436 
L 502.306554 118.145596 
L 503.486258 55.823137 
L 504.665962 122.082136 
L 505.845666 54.878198 
L 507.02537 121.067303 
L 508.205074 52.857215 
L 509.384778 117.308573 
L 510.564482 56.15185 
L 511.744186 120.365068 
L 512.92389 52.012684 
L 514.103594 120.053392 
L 515.283298 54.845224 
L 516.463002 117.061065 
L 517.642706 46.022038 
L 518.82241 121.438959 
L 520.002114 50.084152 
L 521.181818 112.778606 
L 522.361522 57.694434 
L 523.541226 118.795131 
L 524.72093 50.770276 
L 525.900634 115.182097 
L 527.080338 55.300444 
L 528.260042 118.497532 
L 529.439746 54.427188 
L 530.61945 122.461548 
L 531.799154 53.85408 
L 532.978858 119.94061 
L 534.158562 54.578293 
L 535.338266 119.676977 
L 536.51797 53.707757 
L 537.697674 119.656825 
L 538.877378 56.268493 
L 540.057082 114.148285 
L 541.236786 52.802111 
L 542.41649 123.435211 
L 543.596195 55.64987 
L 544.775899 118.394264 
L 545.955603 52.010348 
L 547.135307 114.790235 
L 548.315011 49.445833 
L 549.494715 119.868152 
L 550.674419 54.173095 
L 551.854123 119.811755 
L 553.033827 55.367732 
L 554.213531 116.266097 
L 555.393235 53.942823 
L 556.572939 120.257255 
L 557.752643 55.690273 
L 558.932347 119.893431 
L 560.112051 54.011234 
L 561.291755 118.519934 
L 562.471459 55.75158 
L 563.651163 122.567728 
L 564.830867 56.61693 
L 566.010571 119.700267 
L 567.190275 56.76335 
L 568.369979 116.913648 
L 569.549683 52.797627 
L 570.729387 125.138083 
L 571.909091 59.549609 
L 573.088795 119.68228 
L 574.268499 50.074497 
L 575.448203 119.076133 
L 576.627907 51.91198 
L 577.807611 122.429582 
L 578.987315 50.943378 
L 580.167019 117.689094 
L 581.346723 51.754518 
L 582.526427 117.33932 
L 583.706131 49.933889 
L 584.885835 117.71618 
L 586.065539 57.095593 
L 587.245243 113.494332 
L 588.424947 51.208287 
L 589.604651 118.239963 
L 590.784355 52.004717 
L 591.964059 125.023209 
L 593.143763 48.545913 
L 594.323467 120.450977 
L 595.503171 53.640322 
L 596.682875 118.601294 
L 597.862579 50.297572 
L 599.042283 119.665223 
L 600.221987 54.65745 
L 601.401691 115.687963 
L 602.581395 53.834558 
L 603.761099 121.706686 
L 604.940803 51.783751 
L 606.120507 118.59256 
L 607.300211 55.1814 
L 608.479915 119.834541 
L 609.659619 56.44666 
L 610.839323 119.746278 
L 612.019027 53.303646 
L 613.198732 116.06607 
L 614.378436 55.170923 
L 615.55814 120.659625 
L 616.737844 48.148522 
L 617.917548 119.094346 
L 619.097252 56.572146 
L 620.276956 122.374907 
L 621.45666 50.608408 
L 622.636364 120.357701 
L 622.636364 120.357701 
" style="fill:none;stroke:#4682b4;stroke-linecap:square;"/>
   </g>
   <g id="patch_3">
    <path d="M 90 189 
L 90 25.92 
" style="fill:none;stroke:#000000;stroke-linecap:square;stroke-linejoin:miter;stroke-width:0.8;"/>
   </g>
   <g id="patch_4">
    <path d="M 648 189 
L 648 25.92 
" style="fill:none;stroke:#000000;stroke-linecap:square;stroke-linejoin:miter;stroke-width:0.8;"/>
   </g>
   <g id="patch_5">
    <path d="M 90 189 
L 648 189 
" style="fill:none;stroke:#000000;stroke-linecap:square;stroke-linejoin:miter;stroke-width:0.8;"/>
   </g>
   <g id="patch_6">
    <path d="M 90 25.92 
L 648 25.92 
" style="fill:none;stroke:#000000;stroke-linecap:square;stroke-linejoin:miter;stroke-width:0.8;"/>
   </g>
  </g>
 </g>
 <defs>
  <clipPath id="pac5be74918">
   <rect height="163.08" width="558" x="90" y="25.92"/>
  </clipPath>
 </defs>
</svg>
