<?xml version="1.0" encoding="utf-8" standalone="no"?>
<!DOCTYPE svg PUBLIC "-//W3C//DTD SVG 1.1//EN"
  "http://www.w3.org/Graphics/SVG/1.1/DTD/svg11.dtd">
<!-- Created with matplotlib (https://matplotlib.org/) -->
<svg height="216pt" version="1.1" viewBox="0 0 720 216" width="720pt" xmlns="http://www.w3.org/2000/svg" xmlns:xlink="http://www.w3.org/1999/xlink">
 <defs>
  <style type="text/css">
*{stroke-linecap:butt;stroke-linejoin:round;}
  </style>
 </defs>
 <g id="figure_1">
  <g id="patch_1">
   <path d="M 0 216 
L 720 216 
L 720 0 
L 0 0 
z
" style="fill:none;"/>
  </g>
  <g id="axes_1">
   <g id="patch_2">
    <path d="M 90 189 
L 648 189 
L 648 25.92 
L 90 25.92 
z
" style="fill:none;"/>
   </g>
   <g id="matplotlib.axis_1">
    <g id="xtick_1">
     <g id="line2d_1">
      <defs>
       <path d="M 0 0 
L 0 3.5 
" id="m7c734fe243" style="stroke:#000000;stroke-width:0.8;"/>
      </defs>
      <g>
       <use style="stroke:#000000;stroke-width:0.8;" x="115.363636" xlink:href="#m7c734fe243" y="189"/>
      </g>
     </g>
     <g id="text_1">
      <!-- 0 -->
      <defs>
       <path d="M 31.78125 66.40625 
Q 24.171875 66.40625 20.328125 58.90625 
Q 16.5 51.421875 16.5 36.375 
Q 16.5 21.390625 20.328125 13.890625 
Q 24.171875 6.390625 31.78125 6.390625 
Q 39.453125 6.390625 43.28125 13.890625 
Q 47.125 21.390625 47.125 36.375 
Q 47.125 51.421875 43.28125 58.90625 
Q 39.453125 66.40625 31.78125 66.40625 
z
M 31.78125 74.21875 
Q 44.046875 74.21875 50.515625 64.515625 
Q 56.984375 54.828125 56.984375 36.375 
Q 56.984375 17.96875 50.515625 8.265625 
Q 44.046875 -1.421875 31.78125 -1.421875 
Q 19.53125 -1.421875 13.0625 8.265625 
Q 6.59375 17.96875 6.59375 36.375 
Q 6.59375 54.828125 13.0625 64.515625 
Q 19.53125 74.21875 31.78125 74.21875 
z
" id="DejaVuSans-48"/>
      </defs>
      <g transform="translate(112.182386 203.598437)scale(0.1 -0.1)">
       <use xlink:href="#DejaVuSans-48"/>
      </g>
     </g>
    </g>
    <g id="xtick_2">
     <g id="line2d_2">
      <g>
       <use style="stroke:#000000;stroke-width:0.8;" x="184.286561" xlink:href="#m7c734fe243" y="189"/>
      </g>
     </g>
     <g id="text_2">
      <!-- 100 -->
      <defs>
       <path d="M 12.40625 8.296875 
L 28.515625 8.296875 
L 28.515625 63.921875 
L 10.984375 60.40625 
L 10.984375 69.390625 
L 28.421875 72.90625 
L 38.28125 72.90625 
L 38.28125 8.296875 
L 54.390625 8.296875 
L 54.390625 0 
L 12.40625 0 
z
" id="DejaVuSans-49"/>
      </defs>
      <g transform="translate(174.742811 203.598437)scale(0.1 -0.1)">
       <use xlink:href="#DejaVuSans-49"/>
       <use x="63.623047" xlink:href="#DejaVuSans-48"/>
       <use x="127.246094" xlink:href="#DejaVuSans-48"/>
      </g>
     </g>
    </g>
    <g id="xtick_3">
     <g id="line2d_3">
      <g>
       <use style="stroke:#000000;stroke-width:0.8;" x="253.209486" xlink:href="#m7c734fe243" y="189"/>
      </g>
     </g>
     <g id="text_3">
      <!-- 200 -->
      <defs>
       <path d="M 19.1875 8.296875 
L 53.609375 8.296875 
L 53.609375 0 
L 7.328125 0 
L 7.328125 8.296875 
Q 12.9375 14.109375 22.625 23.890625 
Q 32.328125 33.6875 34.8125 36.53125 
Q 39.546875 41.84375 41.421875 45.53125 
Q 43.3125 49.21875 43.3125 52.78125 
Q 43.3125 58.59375 39.234375 62.25 
Q 35.15625 65.921875 28.609375 65.921875 
Q 23.96875 65.921875 18.8125 64.3125 
Q 13.671875 62.703125 7.8125 59.421875 
L 7.8125 69.390625 
Q 13.765625 71.78125 18.9375 73 
Q 24.125 74.21875 28.421875 74.21875 
Q 39.75 74.21875 46.484375 68.546875 
Q 53.21875 62.890625 53.21875 53.421875 
Q 53.21875 48.921875 51.53125 44.890625 
Q 49.859375 40.875 45.40625 35.40625 
Q 44.1875 33.984375 37.640625 27.21875 
Q 31.109375 20.453125 19.1875 8.296875 
z
" id="DejaVuSans-50"/>
      </defs>
      <g transform="translate(243.665736 203.598437)scale(0.1 -0.1)">
       <use xlink:href="#DejaVuSans-50"/>
       <use x="63.623047" xlink:href="#DejaVuSans-48"/>
       <use x="127.246094" xlink:href="#DejaVuSans-48"/>
      </g>
     </g>
    </g>
    <g id="xtick_4">
     <g id="line2d_4">
      <g>
       <use style="stroke:#000000;stroke-width:0.8;" x="322.132411" xlink:href="#m7c734fe243" y="189"/>
      </g>
     </g>
     <g id="text_4">
      <!-- 300 -->
      <defs>
       <path d="M 40.578125 39.3125 
Q 47.65625 37.796875 51.625 33 
Q 55.609375 28.21875 55.609375 21.1875 
Q 55.609375 10.40625 48.1875 4.484375 
Q 40.765625 -1.421875 27.09375 -1.421875 
Q 22.515625 -1.421875 17.65625 -0.515625 
Q 12.796875 0.390625 7.625 2.203125 
L 7.625 11.71875 
Q 11.71875 9.328125 16.59375 8.109375 
Q 21.484375 6.890625 26.8125 6.890625 
Q 36.078125 6.890625 40.9375 10.546875 
Q 45.796875 14.203125 45.796875 21.1875 
Q 45.796875 27.640625 41.28125 31.265625 
Q 36.765625 34.90625 28.71875 34.90625 
L 20.21875 34.90625 
L 20.21875 43.015625 
L 29.109375 43.015625 
Q 36.375 43.015625 40.234375 45.921875 
Q 44.09375 48.828125 44.09375 54.296875 
Q 44.09375 59.90625 40.109375 62.90625 
Q 36.140625 65.921875 28.71875 65.921875 
Q 24.65625 65.921875 20.015625 65.03125 
Q 15.375 64.15625 9.8125 62.3125 
L 9.8125 71.09375 
Q 15.4375 72.65625 20.34375 73.4375 
Q 25.25 74.21875 29.59375 74.21875 
Q 40.828125 74.21875 47.359375 69.109375 
Q 53.90625 64.015625 53.90625 55.328125 
Q 53.90625 49.265625 50.4375 45.09375 
Q 46.96875 40.921875 40.578125 39.3125 
z
" id="DejaVuSans-51"/>
      </defs>
      <g transform="translate(312.588661 203.598437)scale(0.1 -0.1)">
       <use xlink:href="#DejaVuSans-51"/>
       <use x="63.623047" xlink:href="#DejaVuSans-48"/>
       <use x="127.246094" xlink:href="#DejaVuSans-48"/>
      </g>
     </g>
    </g>
    <g id="xtick_5">
     <g id="line2d_5">
      <g>
       <use style="stroke:#000000;stroke-width:0.8;" x="391.055336" xlink:href="#m7c734fe243" y="189"/>
      </g>
     </g>
     <g id="text_5">
      <!-- 400 -->
      <defs>
       <path d="M 37.796875 64.3125 
L 12.890625 25.390625 
L 37.796875 25.390625 
z
M 35.203125 72.90625 
L 47.609375 72.90625 
L 47.609375 25.390625 
L 58.015625 25.390625 
L 58.015625 17.1875 
L 47.609375 17.1875 
L 47.609375 0 
L 37.796875 0 
L 37.796875 17.1875 
L 4.890625 17.1875 
L 4.890625 26.703125 
z
" id="DejaVuSans-52"/>
      </defs>
      <g transform="translate(381.511586 203.598437)scale(0.1 -0.1)">
       <use xlink:href="#DejaVuSans-52"/>
       <use x="63.623047" xlink:href="#DejaVuSans-48"/>
       <use x="127.246094" xlink:href="#DejaVuSans-48"/>
      </g>
     </g>
    </g>
    <g id="xtick_6">
     <g id="line2d_6">
      <g>
       <use style="stroke:#000000;stroke-width:0.8;" x="459.978261" xlink:href="#m7c734fe243" y="189"/>
      </g>
     </g>
     <g id="text_6">
      <!-- 500 -->
      <defs>
       <path d="M 10.796875 72.90625 
L 49.515625 72.90625 
L 49.515625 64.59375 
L 19.828125 64.59375 
L 19.828125 46.734375 
Q 21.96875 47.46875 24.109375 47.828125 
Q 26.265625 48.1875 28.421875 48.1875 
Q 40.625 48.1875 47.75 41.5 
Q 54.890625 34.8125 54.890625 23.390625 
Q 54.890625 11.625 47.5625 5.09375 
Q 40.234375 -1.421875 26.90625 -1.421875 
Q 22.3125 -1.421875 17.546875 -0.640625 
Q 12.796875 0.140625 7.71875 1.703125 
L 7.71875 11.625 
Q 12.109375 9.234375 16.796875 8.0625 
Q 21.484375 6.890625 26.703125 6.890625 
Q 35.15625 6.890625 40.078125 11.328125 
Q 45.015625 15.765625 45.015625 23.390625 
Q 45.015625 31 40.078125 35.4375 
Q 35.15625 39.890625 26.703125 39.890625 
Q 22.75 39.890625 18.8125 39.015625 
Q 14.890625 38.140625 10.796875 36.28125 
z
" id="DejaVuSans-53"/>
      </defs>
      <g transform="translate(450.434511 203.598437)scale(0.1 -0.1)">
       <use xlink:href="#DejaVuSans-53"/>
       <use x="63.623047" xlink:href="#DejaVuSans-48"/>
       <use x="127.246094" xlink:href="#DejaVuSans-48"/>
      </g>
     </g>
    </g>
    <g id="xtick_7">
     <g id="line2d_7">
      <g>
       <use style="stroke:#000000;stroke-width:0.8;" x="528.901186" xlink:href="#m7c734fe243" y="189"/>
      </g>
     </g>
     <g id="text_7">
      <!-- 600 -->
      <defs>
       <path d="M 33.015625 40.375 
Q 26.375 40.375 22.484375 35.828125 
Q 18.609375 31.296875 18.609375 23.390625 
Q 18.609375 15.53125 22.484375 10.953125 
Q 26.375 6.390625 33.015625 6.390625 
Q 39.65625 6.390625 43.53125 10.953125 
Q 47.40625 15.53125 47.40625 23.390625 
Q 47.40625 31.296875 43.53125 35.828125 
Q 39.65625 40.375 33.015625 40.375 
z
M 52.59375 71.296875 
L 52.59375 62.3125 
Q 48.875 64.0625 45.09375 64.984375 
Q 41.3125 65.921875 37.59375 65.921875 
Q 27.828125 65.921875 22.671875 59.328125 
Q 17.53125 52.734375 16.796875 39.40625 
Q 19.671875 43.65625 24.015625 45.921875 
Q 28.375 48.1875 33.59375 48.1875 
Q 44.578125 48.1875 50.953125 41.515625 
Q 57.328125 34.859375 57.328125 23.390625 
Q 57.328125 12.15625 50.6875 5.359375 
Q 44.046875 -1.421875 33.015625 -1.421875 
Q 20.359375 -1.421875 13.671875 8.265625 
Q 6.984375 17.96875 6.984375 36.375 
Q 6.984375 53.65625 15.1875 63.9375 
Q 23.390625 74.21875 37.203125 74.21875 
Q 40.921875 74.21875 44.703125 73.484375 
Q 48.484375 72.75 52.59375 71.296875 
z
" id="DejaVuSans-54"/>
      </defs>
      <g transform="translate(519.357436 203.598437)scale(0.1 -0.1)">
       <use xlink:href="#DejaVuSans-54"/>
       <use x="63.623047" xlink:href="#DejaVuSans-48"/>
       <use x="127.246094" xlink:href="#DejaVuSans-48"/>
      </g>
     </g>
    </g>
    <g id="xtick_8">
     <g id="line2d_8">
      <g>
       <use style="stroke:#000000;stroke-width:0.8;" x="597.824111" xlink:href="#m7c734fe243" y="189"/>
      </g>
     </g>
     <g id="text_8">
      <!-- 700 -->
      <defs>
       <path d="M 8.203125 72.90625 
L 55.078125 72.90625 
L 55.078125 68.703125 
L 28.609375 0 
L 18.3125 0 
L 43.21875 64.59375 
L 8.203125 64.59375 
z
" id="DejaVuSans-55"/>
      </defs>
      <g transform="translate(588.280361 203.598437)scale(0.1 -0.1)">
       <use xlink:href="#DejaVuSans-55"/>
       <use x="63.623047" xlink:href="#DejaVuSans-48"/>
       <use x="127.246094" xlink:href="#DejaVuSans-48"/>
      </g>
     </g>
    </g>
   </g>
   <g id="matplotlib.axis_2">
    <g id="ytick_1">
     <g id="line2d_9">
      <defs>
       <path d="M 0 0 
L -3.5 0 
" id="m381bb428b3" style="stroke:#000000;stroke-width:0.8;"/>
      </defs>
      <g>
       <use style="stroke:#000000;stroke-width:0.8;" x="90" xlink:href="#m381bb428b3" y="189"/>
      </g>
     </g>
     <g id="text_9">
      <!-- −2.0 -->
      <defs>
       <path d="M 10.59375 35.5 
L 73.1875 35.5 
L 73.1875 27.203125 
L 10.59375 27.203125 
z
" id="DejaVuSans-8722"/>
       <path d="M 10.6875 12.40625 
L 21 12.40625 
L 21 0 
L 10.6875 0 
z
" id="DejaVuSans-46"/>
      </defs>
      <g transform="translate(58.717187 192.799219)scale(0.1 -0.1)">
       <use xlink:href="#DejaVuSans-8722"/>
       <use x="83.789062" xlink:href="#DejaVuSans-50"/>
       <use x="147.412109" xlink:href="#DejaVuSans-46"/>
       <use x="179.199219" xlink:href="#DejaVuSans-48"/>
      </g>
     </g>
    </g>
    <g id="ytick_2">
     <g id="line2d_10">
      <g>
       <use style="stroke:#000000;stroke-width:0.8;" x="90" xlink:href="#m381bb428b3" y="168.615"/>
      </g>
     </g>
     <g id="text_10">
      <!-- −1.5 -->
      <g transform="translate(58.717187 172.414219)scale(0.1 -0.1)">
       <use xlink:href="#DejaVuSans-8722"/>
       <use x="83.789062" xlink:href="#DejaVuSans-49"/>
       <use x="147.412109" xlink:href="#DejaVuSans-46"/>
       <use x="179.199219" xlink:href="#DejaVuSans-53"/>
      </g>
     </g>
    </g>
    <g id="ytick_3">
     <g id="line2d_11">
      <g>
       <use style="stroke:#000000;stroke-width:0.8;" x="90" xlink:href="#m381bb428b3" y="148.23"/>
      </g>
     </g>
     <g id="text_11">
      <!-- −1.0 -->
      <g transform="translate(58.717187 152.029219)scale(0.1 -0.1)">
       <use xlink:href="#DejaVuSans-8722"/>
       <use x="83.789062" xlink:href="#DejaVuSans-49"/>
       <use x="147.412109" xlink:href="#DejaVuSans-46"/>
       <use x="179.199219" xlink:href="#DejaVuSans-48"/>
      </g>
     </g>
    </g>
    <g id="ytick_4">
     <g id="line2d_12">
      <g>
       <use style="stroke:#000000;stroke-width:0.8;" x="90" xlink:href="#m381bb428b3" y="127.845"/>
      </g>
     </g>
     <g id="text_12">
      <!-- −0.5 -->
      <g transform="translate(58.717187 131.644219)scale(0.1 -0.1)">
       <use xlink:href="#DejaVuSans-8722"/>
       <use x="83.789062" xlink:href="#DejaVuSans-48"/>
       <use x="147.412109" xlink:href="#DejaVuSans-46"/>
       <use x="179.199219" xlink:href="#DejaVuSans-53"/>
      </g>
     </g>
    </g>
    <g id="ytick_5">
     <g id="line2d_13">
      <g>
       <use style="stroke:#000000;stroke-width:0.8;" x="90" xlink:href="#m381bb428b3" y="107.46"/>
      </g>
     </g>
     <g id="text_13">
      <!-- 0.0 -->
      <g transform="translate(67.096875 111.259219)scale(0.1 -0.1)">
       <use xlink:href="#DejaVuSans-48"/>
       <use x="63.623047" xlink:href="#DejaVuSans-46"/>
       <use x="95.410156" xlink:href="#DejaVuSans-48"/>
      </g>
     </g>
    </g>
    <g id="ytick_6">
     <g id="line2d_14">
      <g>
       <use style="stroke:#000000;stroke-width:0.8;" x="90" xlink:href="#m381bb428b3" y="87.075"/>
      </g>
     </g>
     <g id="text_14">
      <!-- 0.5 -->
      <g transform="translate(67.096875 90.874219)scale(0.1 -0.1)">
       <use xlink:href="#DejaVuSans-48"/>
       <use x="63.623047" xlink:href="#DejaVuSans-46"/>
       <use x="95.410156" xlink:href="#DejaVuSans-53"/>
      </g>
     </g>
    </g>
    <g id="ytick_7">
     <g id="line2d_15">
      <g>
       <use style="stroke:#000000;stroke-width:0.8;" x="90" xlink:href="#m381bb428b3" y="66.69"/>
      </g>
     </g>
     <g id="text_15">
      <!-- 1.0 -->
      <g transform="translate(67.096875 70.489219)scale(0.1 -0.1)">
       <use xlink:href="#DejaVuSans-49"/>
       <use x="63.623047" xlink:href="#DejaVuSans-46"/>
       <use x="95.410156" xlink:href="#DejaVuSans-48"/>
      </g>
     </g>
    </g>
    <g id="ytick_8">
     <g id="line2d_16">
      <g>
       <use style="stroke:#000000;stroke-width:0.8;" x="90" xlink:href="#m381bb428b3" y="46.305"/>
      </g>
     </g>
     <g id="text_16">
      <!-- 1.5 -->
      <g transform="translate(67.096875 50.104219)scale(0.1 -0.1)">
       <use xlink:href="#DejaVuSans-49"/>
       <use x="63.623047" xlink:href="#DejaVuSans-46"/>
       <use x="95.410156" xlink:href="#DejaVuSans-53"/>
      </g>
     </g>
    </g>
    <g id="ytick_9">
     <g id="line2d_17">
      <g>
       <use style="stroke:#000000;stroke-width:0.8;" x="90" xlink:href="#m381bb428b3" y="25.92"/>
      </g>
     </g>
     <g id="text_17">
      <!-- 2.0 -->
      <g transform="translate(67.096875 29.719219)scale(0.1 -0.1)">
       <use xlink:href="#DejaVuSans-50"/>
       <use x="63.623047" xlink:href="#DejaVuSans-46"/>
       <use x="95.410156" xlink:href="#DejaVuSans-48"/>
      </g>
     </g>
    </g>
   </g>
   <g id="line2d_18">
    <path clip-path="url(#p79a7767394)" d="M 115.363636 75.133113 
L 116.052866 80.13014 
L 116.742095 74.47095 
L 117.431324 89.734151 
L 118.120553 67.763031 
L 118.809783 94.347569 
L 119.499012 78.81971 
L 120.188241 74.761152 
L 120.87747 81.037244 
L 121.5667 73.952833 
L 122.255929 84.535659 
L 122.945158 69.200902 
L 123.634387 96.526563 
L 124.323617 80.123708 
L 125.012846 74.75147 
L 125.702075 78.040733 
L 126.391304 73.872739 
L 127.080534 86.928943 
L 127.769763 72.136707 
L 128.458992 97.078655 
L 129.148221 81.533624 
L 129.837451 78.844273 
L 130.52668 82.955501 
L 131.215909 72.223555 
L 131.905138 83.01184 
L 132.594368 68.170896 
L 133.283597 96.22062 
L 133.972826 79.89995 
L 134.662055 75.051979 
L 135.351285 86.136206 
L 136.040514 73.643972 
L 136.729743 84.425471 
L 137.418972 67.378022 
L 138.108202 97.737247 
L 138.797431 83.416329 
L 139.48666 77.772614 
L 140.175889 83.44451 
L 140.865119 75.180201 
L 141.554348 83.657487 
L 142.243577 71.560898 
L 142.932806 98.831 
L 143.622036 77.179028 
L 144.311265 78.17817 
L 145.000494 82.126864 
L 145.689723 71.519235 
L 146.378953 86.719635 
L 147.068182 67.883482 
L 147.757411 99.420448 
L 148.44664 83.726192 
L 149.13587 75.090375 
L 149.825099 83.233422 
L 150.514328 70.651287 
L 151.203557 89.13489 
L 151.892787 69.093662 
L 152.582016 98.27645 
L 153.271245 78.476337 
L 153.960474 72.05799 
L 154.649704 79.327259 
L 155.338933 73.598876 
L 156.028162 91.419298 
L 156.717391 68.354398 
L 157.406621 97.967538 
L 158.09585 74.682122 
L 158.785079 78.01695 
L 159.474308 75.323998 
L 160.163538 70.697837 
L 160.852767 87.338941 
L 161.541996 69.190737 
L 162.231225 95.194093 
L 162.920455 78.960691 
L 163.609684 77.679033 
L 164.298913 80.886916 
L 164.988142 74.529269 
L 165.677372 90.427994 
L 166.366601 67.104541 
L 167.05583 96.254745 
L 167.745059 79.103519 
L 168.434289 77.065272 
L 169.123518 77.666453 
L 169.812747 72.499563 
L 170.501976 87.207042 
L 171.191206 69.846278 
L 171.880435 94.846481 
L 172.569664 77.898742 
L 173.258893 77.76329 
L 173.948123 82.392565 
L 174.637352 74.047818 
L 175.326581 87.143317 
L 176.01581 68.974565 
L 176.70504 98.84347 
L 177.394269 80.367409 
L 178.083498 73.503098 
L 178.772727 79.410946 
L 179.461957 72.453961 
L 180.151186 89.40731 
L 180.840415 70.991019 
L 181.529644 95.79154 
L 182.218874 78.495326 
L 182.908103 76.840343 
L 183.597332 78.449712 
L 184.286561 73.828436 
L 184.975791 85.249287 
L 185.66502 68.447437 
L 186.354249 98.931125 
L 187.043478 80.264125 
L 187.732708 78.830465 
L 188.421937 83.792248 
L 189.111166 73.483422 
L 189.800395 85.877838 
L 190.489625 71.649922 
L 191.178854 94.933059 
L 191.868083 80.259891 
L 192.557312 74.949787 
L 193.246542 82.844123 
L 193.935771 75.559755 
L 194.625 87.765842 
L 195.314229 70.273986 
L 196.003458 95.358441 
L 196.692688 79.028081 
L 197.381917 79.815947 
L 198.071146 83.701378 
L 198.760375 73.122134 
L 199.449605 83.921406 
L 200.138834 65.634073 
L 200.828063 96.84721 
L 201.517292 80.834308 
L 202.206522 74.808654 
L 202.895751 81.01972 
L 203.58498 73.65093 
L 204.274209 88.365476 
L 204.963439 71.780013 
L 205.652668 95.656726 
L 206.341897 76.918683 
L 207.031126 73.319328 
L 207.720356 79.846876 
L 208.409585 76.039556 
L 209.098814 89.140838 
L 209.788043 68.727912 
L 210.477273 97.841871 
L 211.166502 78.917078 
L 211.855731 75.13682 
L 212.54496 80.145264 
L 213.23419 72.380572 
L 213.923419 87.712604 
L 214.612648 70.460511 
L 215.301877 94.757814 
L 215.991107 76.876681 
L 216.680336 75.603235 
L 217.369565 81.950327 
L 218.058794 70.681151 
L 218.748024 90.429368 
L 219.437253 68.442272 
L 220.126482 97.7479 
L 220.815711 79.058664 
L 221.504941 72.897656 
L 222.19417 80.023201 
L 222.883399 78.818743 
L 223.572628 85.218499 
L 224.261858 70.22765 
L 224.951087 96.49635 
L 225.640316 80.890975 
L 226.329545 74.93128 
L 227.018775 80.169818 
L 227.708004 72.527311 
L 228.397233 90.092646 
L 229.086462 69.487295 
L 229.775692 99.833263 
L 230.464921 77.243016 
L 231.15415 76.60528 
L 231.843379 76.308326 
L 232.532609 71.067302 
L 233.221838 87.218605 
L 233.911067 67.838741 
L 234.600296 98.333163 
L 235.289526 79.39992 
L 235.978755 75.961573 
L 236.667984 82.182024 
L 237.357213 72.32295 
L 238.046443 83.788969 
L 238.735672 70.555476 
L 239.424901 97.584916 
L 240.11413 80.374149 
L 240.80336 74.720569 
L 241.492589 80.192338 
L 242.181818 69.373674 
L 242.871047 88.140011 
L 243.560277 67.90129 
L 244.249506 98.386793 
L 244.938735 80.26925 
L 245.627964 73.797708 
L 246.317194 81.623524 
L 247.006423 70.179172 
L 247.695652 89.609718 
L 248.384881 71.814839 
L 249.074111 98.288377 
L 249.76334 75.793286 
L 250.452569 74.868894 
L 251.141798 77.949582 
L 251.831028 72.679683 
L 252.520257 85.28314 
L 253.209486 65.962503 
L 253.898715 97.78757 
L 254.587945 79.150086 
L 255.277174 74.374912 
L 255.966403 80.943791 
L 256.655632 72.893307 
L 257.344862 85.141517 
L 258.034091 71.058771 
L 258.72332 93.134306 
L 259.412549 78.874213 
L 260.101779 77.584861 
L 260.791008 80.436709 
L 261.480237 71.006704 
L 262.169466 89.657914 
L 262.858696 67.811538 
L 263.547925 95.45673 
L 264.237154 75.062627 
L 264.926383 73.687637 
L 265.615613 79.918273 
L 266.304842 73.476441 
L 266.994071 88.097666 
L 267.6833 70.580747 
L 268.37253 97.513061 
L 269.061759 76.711395 
L 269.750988 78.39966 
L 270.440217 81.53738 
L 271.129447 74.251739 
L 271.818676 83.119529 
L 272.507905 68.540302 
L 273.197134 97.91019 
L 273.886364 75.532715 
L 274.575593 71.460187 
L 275.264822 81.483195 
L 275.954051 74.277072 
L 276.643281 88.36854 
L 277.33251 72.833503 
L 278.021739 94.645702 
L 278.710968 78.068492 
L 279.400198 76.297629 
L 280.089427 83.101753 
L 280.778656 72.716967 
L 281.467885 86.761466 
L 282.157115 68.529193 
L 282.846344 99.495013 
L 283.535573 79.768703 
L 284.224802 78.565628 
L 284.914032 83.479976 
L 285.603261 78.136224 
L 286.29249 84.601851 
L 286.981719 67.385698 
L 287.670949 97.660549 
L 288.360178 77.53913 
L 289.049407 78.124547 
L 289.738636 79.829272 
L 290.427866 71.248685 
L 291.117095 80.263802 
L 291.806324 68.166771 
L 292.495553 95.735393 
L 293.184783 78.497063 
L 293.874012 78.938869 
L 294.563241 86.163827 
L 295.25247 70.604952 
L 295.9417 88.730066 
L 296.630929 70.83785 
L 297.320158 97.807572 
L 298.009387 75.845688 
L 298.698617 74.297898 
L 299.387846 80.10457 
L 300.077075 68.93237 
L 300.766304 85.586369 
L 301.455534 68.950519 
L 302.144763 98.990397 
L 302.833992 78.332372 
L 303.523221 79.547519 
L 304.212451 78.319104 
L 304.90168 71.97433 
L 305.590909 85.525681 
L 306.280138 72.222058 
L 306.969368 98.966297 
L 307.658597 79.679966 
L 308.347826 70.170908 
L 309.037055 84.521863 
L 309.726285 75.105148 
L 310.415514 88.185795 
L 311.104743 70.046899 
L 311.793972 93.469433 
L 312.483202 79.992441 
L 313.172431 73.18819 
L 313.86166 80.364878 
L 314.550889 75.137235 
L 315.240119 86.278442 
L 315.929348 69.358781 
L 316.618577 95.687429 
L 317.307806 81.965726 
L 317.997036 79.629173 
L 318.686265 80.332446 
L 319.375494 74.533614 
L 320.064723 88.021719 
L 320.753953 70.698399 
L 321.443182 97.658355 
L 322.132411 82.629216 
L 322.82164 73.553126 
L 323.51087 78.104228 
L 324.200099 76.957413 
L 324.889328 89.138191 
L 325.578557 68.304122 
L 326.267787 98.19738 
L 326.957016 74.954278 
L 327.646245 75.392185 
L 328.335474 83.759387 
L 329.024704 76.127178 
L 329.713933 85.944049 
L 330.403162 70.115681 
L 331.092391 97.964624 
L 331.781621 77.626568 
L 332.47085 72.290001 
L 333.160079 82.399263 
L 333.849308 72.629602 
L 334.538538 84.172023 
L 335.227767 70.499065 
L 335.916996 94.427826 
L 336.606225 76.292931 
L 337.295455 74.847661 
L 337.984684 82.324865 
L 338.673913 72.578049 
L 339.363142 86.700184 
L 340.052372 67.461379 
L 340.741601 97.92266 
L 341.43083 78.76299 
L 342.120059 78.895538 
L 342.809289 79.373006 
L 343.498518 76.432626 
L 344.187747 83.459439 
L 344.876976 68.463237 
L 345.566206 98.476466 
L 346.255435 77.56639 
L 346.944664 74.838429 
L 347.633893 82.181525 
L 348.323123 69.410253 
L 349.012352 89.562967 
L 349.701581 69.706124 
L 350.39081 102.435425 
L 351.08004 82.581768 
L 351.769269 76.06629 
L 352.458498 80.267216 
L 353.147727 72.169806 
L 353.836957 88.676969 
L 354.526186 71.307103 
L 355.215415 102.211441 
L 355.904644 76.947918 
L 356.593874 77.324429 
L 357.283103 81.411356 
L 357.972332 73.69167 
L 358.661561 84.781716 
L 359.350791 65.063699 
L 360.04002 95.743322 
L 360.729249 76.169625 
L 361.418478 77.169954 
L 362.107708 86.355125 
L 362.796937 70.766632 
L 363.486166 84.085295 
L 364.175395 69.975857 
L 364.864625 95.567334 
L 365.553854 80.905507 
L 366.243083 73.309169 
L 366.932312 79.032317 
L 367.621542 76.803105 
L 368.310771 86.765745 
L 369 69.96937 
L 369.689229 95.430839 
L 370.378458 79.555774 
L 371.067688 77.700174 
L 371.756917 79.106722 
L 372.446146 73.464607 
L 373.135375 87.175443 
L 373.824605 68.293408 
L 374.513834 97.565737 
L 375.203063 78.53972 
L 375.892292 75.840032 
L 376.581522 76.867229 
L 377.270751 73.933133 
L 377.95998 92.528424 
L 378.649209 67.467357 
L 379.338439 99.21528 
L 380.027668 80.199608 
L 380.716897 79.978819 
L 381.406126 83.885531 
L 382.095356 73.551781 
L 382.784585 89.290224 
L 383.473814 69.70444 
L 384.163043 96.787042 
L 384.852273 75.647349 
L 385.541502 79.319464 
L 386.230731 82.291652 
L 386.91996 76.376188 
L 387.60919 87.082128 
L 388.298419 66.58125 
L 388.987648 95.025148 
L 389.676877 78.30767 
L 390.366107 77.038286 
L 391.055336 88.169123 
L 391.744565 71.857164 
L 392.433794 89.133575 
L 393.123024 71.225325 
L 393.812253 90.586095 
L 394.501482 75.885326 
L 395.190711 75.831269 
L 395.879941 81.020564 
L 396.56917 72.234503 
L 397.258399 85.821737 
L 397.947628 70.084272 
L 398.636858 99.801381 
L 399.326087 77.661506 
L 400.015316 76.78928 
L 400.704545 81.865327 
L 401.393775 71.617922 
L 402.083004 88.255585 
L 402.772233 71.999682 
L 403.461462 95.349992 
L 404.150692 77.019667 
L 404.839921 77.719918 
L 405.52915 80.656107 
L 406.218379 73.149438 
L 406.907609 84.216654 
L 407.596838 72.556693 
L 408.286067 97.206951 
L 408.975296 76.92375 
L 409.664526 79.428372 
L 410.353755 81.456262 
L 411.042984 71.861514 
L 411.732213 84.804667 
L 412.421443 67.932489 
L 413.110672 98.481788 
L 413.799901 78.875806 
L 414.48913 75.277318 
L 415.17836 79.0093 
L 415.867589 71.691827 
L 416.556818 89.123229 
L 417.246047 68.170045 
L 417.935277 97.031696 
L 418.624506 79.262923 
L 419.313735 76.499732 
L 420.002964 83.888324 
L 420.692194 73.550633 
L 421.381423 87.496362 
L 422.070652 65.209692 
L 422.759881 96.69996 
L 423.449111 74.834301 
L 424.13834 75.67032 
L 424.827569 77.77129 
L 425.516798 73.573302 
L 426.206028 87.740964 
L 426.895257 69.676581 
L 427.584486 95.925003 
L 428.273715 82.348894 
L 428.962945 75.320691 
L 429.652174 83.117865 
L 430.341403 73.499285 
L 431.030632 82.834142 
L 431.719862 72.575509 
L 432.409091 95.936472 
L 433.09832 79.163378 
L 433.787549 74.198997 
L 434.476779 85.426785 
L 435.166008 75.259681 
L 435.855237 90.171902 
L 436.544466 67.875359 
L 437.233696 99.319671 
L 437.922925 79.41394 
L 438.612154 78.491891 
L 439.301383 82.240454 
L 439.990613 72.899929 
L 440.679842 88.160636 
L 441.369071 66.471124 
L 442.0583 95.059296 
L 442.74753 80.240928 
L 443.436759 77.050157 
L 444.125988 82.213729 
L 444.815217 74.738379 
L 445.504447 88.915323 
L 446.193676 71.693365 
L 446.882905 96.273899 
L 447.572134 80.420234 
L 448.261364 74.271473 
L 448.950593 84.517671 
L 449.639822 80.781229 
L 450.329051 84.901358 
L 451.018281 69.855628 
L 451.70751 100.201871 
L 452.396739 82.037154 
L 453.085968 75.531757 
L 453.775198 80.61713 
L 454.464427 72.836535 
L 455.153656 90.209342 
L 455.842885 71.911814 
L 456.532115 99.552096 
L 457.221344 80.245797 
L 457.910573 77.895192 
L 458.599802 80.54699 
L 459.289032 74.924278 
L 459.978261 88.913145 
L 460.66749 71.858353 
L 461.356719 96.993476 
L 462.045949 75.77898 
L 462.735178 74.5188 
L 463.424407 77.438096 
L 464.113636 73.640479 
L 464.802866 86.783421 
L 465.492095 69.41125 
L 466.181324 95.875926 
L 466.870553 76.175957 
L 467.559783 75.167933 
L 468.249012 81.495417 
L 468.938241 66.198005 
L 469.62747 84.032284 
L 470.3167 67.907069 
L 471.005929 96.145525 
L 471.695158 75.904029 
L 472.384387 77.506038 
L 473.073617 77.598324 
L 473.762846 75.312639 
L 474.452075 84.593893 
L 475.141304 73.792074 
L 475.830534 97.459355 
L 476.519763 78.412163 
L 477.208992 74.11478 
L 477.898221 80.840401 
L 478.587451 74.667664 
L 479.27668 88.781592 
L 479.965909 66.944609 
L 480.655138 95.0058 
L 481.344368 82.121344 
L 482.033597 76.852477 
L 482.722826 85.233906 
L 483.412055 75.998581 
L 484.101285 86.374068 
L 484.790514 66.43072 
L 485.479743 93.26348 
L 486.168972 80.933427 
L 486.858202 74.954858 
L 487.547431 82.352695 
L 488.23666 71.373044 
L 488.925889 85.687716 
L 489.615119 65.341057 
L 490.304348 99.853453 
L 490.993577 75.319866 
L 491.682806 75.351475 
L 492.372036 81.412171 
L 493.061265 76.333311 
L 493.750494 86.906889 
L 494.439723 67.937623 
L 495.128953 97.329622 
L 495.818182 82.376134 
L 496.507411 77.541721 
L 497.19664 81.985774 
L 497.88587 71.683642 
L 498.575099 84.140182 
L 499.264328 70.788455 
L 499.953557 94.190228 
L 500.642787 77.565195 
L 501.332016 77.690183 
L 502.021245 83.607466 
L 502.710474 71.449806 
L 503.399704 85.061062 
L 504.088933 68.862647 
L 504.778162 97.299031 
L 505.467391 79.797736 
L 506.156621 75.463125 
L 506.84585 78.04981 
L 507.535079 73.747728 
L 508.224308 89.817058 
L 508.913538 67.295772 
L 509.602767 97.971508 
L 510.291996 81.291802 
L 510.981225 79.091512 
L 511.670455 77.455483 
L 512.359684 71.984267 
L 513.048913 86.394222 
L 513.738142 69.552816 
L 514.427372 98.408184 
L 515.116601 79.298896 
L 515.80583 81.944193 
L 516.495059 81.188864 
L 517.184289 74.958541 
L 517.873518 84.302911 
L 518.562747 69.50413 
L 519.251976 96.062358 
L 519.941206 73.171102 
L 521.319664 80.940622 
L 522.008893 76.216644 
L 522.698123 90.510265 
L 523.387352 66.857524 
L 524.076581 99.348401 
L 524.76581 80.466651 
L 525.45504 77.039883 
L 526.144269 80.182463 
L 526.833498 75.304394 
L 527.522727 86.296696 
L 528.211957 68.361875 
L 528.901186 97.033415 
L 529.590415 74.026681 
L 530.279644 74.389793 
L 530.968874 83.344064 
L 531.658103 73.47261 
L 532.347332 87.545094 
L 533.036561 67.895078 
L 533.725791 92.857384 
L 534.41502 77.267395 
L 535.104249 74.453701 
L 535.793478 82.243397 
L 536.482708 75.493316 
L 537.171937 84.477078 
L 537.861166 69.867318 
L 538.550395 97.038391 
L 539.239625 81.592053 
L 539.928854 75.046213 
L 540.618083 83.195114 
L 541.307312 73.223883 
L 541.996542 84.7507 
L 542.685771 69.342159 
L 543.375 95.54321 
L 544.064229 82.642356 
L 544.753458 74.214728 
L 545.442688 81.8972 
L 546.131917 70.806199 
L 546.821146 86.495281 
L 547.510375 71.002352 
L 548.199605 101.031498 
L 548.888834 77.526032 
L 549.578063 77.668965 
L 550.267292 83.624964 
L 550.956522 71.567905 
L 551.645751 89.49374 
L 552.33498 66.477358 
L 553.024209 97.177773 
L 553.713439 79.507386 
L 554.402668 73.94397 
L 555.091897 79.553704 
L 555.781126 74.882173 
L 556.470356 85.595871 
L 557.159585 71.411607 
L 557.848814 93.976044 
L 558.538043 78.353616 
L 559.227273 78.802692 
L 559.916502 79.094939 
L 560.605731 76.809021 
L 561.29496 86.31903 
L 561.98419 71.296444 
L 562.673419 100.129026 
L 563.362648 77.031163 
L 564.051877 74.486032 
L 564.741107 81.943288 
L 565.430336 71.780916 
L 566.119565 85.309169 
L 566.808794 68.84623 
L 567.498024 100.115177 
L 568.187253 79.187262 
L 568.876482 70.755977 
L 569.565711 78.469538 
L 570.254941 77.674809 
L 570.94417 89.427245 
L 571.633399 70.865217 
L 572.322628 93.197845 
L 573.011858 77.580002 
L 573.701087 80.865606 
L 574.390316 86.791706 
L 575.079545 74.262416 
L 575.768775 87.130721 
L 576.458004 72.27711 
L 577.147233 98.011673 
L 577.836462 81.049228 
L 578.525692 74.825755 
L 579.214921 83.657883 
L 579.90415 76.807859 
L 580.593379 92.927739 
L 581.282609 69.509111 
L 581.971838 96.478955 
L 582.661067 77.630023 
L 583.350296 74.433647 
L 584.039526 80.940662 
L 584.728755 70.295475 
L 585.417984 83.710525 
L 586.107213 71.240323 
L 586.796443 93.756897 
L 587.485672 80.568637 
L 588.174901 76.533048 
L 588.86413 81.734962 
L 589.55336 73.787022 
L 590.242589 84.344114 
L 590.931818 71.789488 
L 591.621047 95.264514 
L 592.310277 75.081881 
L 592.999506 76.139514 
L 593.688735 75.724694 
L 594.377964 70.135438 
L 595.067194 87.075319 
L 595.756423 72.289435 
L 596.445652 99.524566 
L 597.134881 78.595898 
L 597.824111 80.469704 
L 598.51334 81.555463 
L 599.202569 70.981496 
L 599.891798 87.142306 
L 600.581028 68.820109 
L 601.270257 98.735284 
L 601.959486 78.797151 
L 602.648715 77.589582 
L 603.337945 81.476065 
L 604.027174 72.991473 
L 604.716403 88.272363 
L 605.405632 69.127094 
L 606.094862 98.384495 
L 606.784091 79.319675 
L 607.47332 79.46989 
L 608.162549 79.910193 
L 608.851779 71.112966 
L 609.541008 88.772719 
L 610.230237 69.918162 
L 610.919466 99.507491 
L 611.608696 77.120913 
L 612.297925 79.977175 
L 612.987154 77.837324 
L 613.676383 70.884056 
L 614.365613 87.501702 
L 615.054842 70.494471 
L 615.744071 94.817939 
L 616.4333 78.919857 
L 617.12253 80.260267 
L 617.811759 82.831091 
L 618.500988 76.098125 
L 619.190217 88.435766 
L 619.879447 70.643407 
L 620.568676 98.946001 
L 621.257905 81.45981 
L 621.947134 74.745268 
L 622.636364 85.896086 
L 622.636364 85.896086 
" style="fill:none;stroke:#800080;stroke-linecap:square;"/>
   </g>
   <g id="patch_3">
    <path d="M 90 189 
L 90 25.92 
" style="fill:none;stroke:#000000;stroke-linecap:square;stroke-linejoin:miter;stroke-width:0.8;"/>
   </g>
   <g id="patch_4">
    <path d="M 648 189 
L 648 25.92 
" style="fill:none;stroke:#000000;stroke-linecap:square;stroke-linejoin:miter;stroke-width:0.8;"/>
   </g>
   <g id="patch_5">
    <path d="M 90 189 
L 648 189 
" style="fill:none;stroke:#000000;stroke-linecap:square;stroke-linejoin:miter;stroke-width:0.8;"/>
   </g>
   <g id="patch_6">
    <path d="M 90 25.92 
L 648 25.92 
" style="fill:none;stroke:#000000;stroke-linecap:square;stroke-linejoin:miter;stroke-width:0.8;"/>
   </g>
   <g id="text_18">
    <!-- PC1:-0.50, PC2:0.47 -->
    <defs>
     <path d="M 19.671875 64.796875 
L 19.671875 37.40625 
L 32.078125 37.40625 
Q 38.96875 37.40625 42.71875 40.96875 
Q 46.484375 44.53125 46.484375 51.125 
Q 46.484375 57.671875 42.71875 61.234375 
Q 38.96875 64.796875 32.078125 64.796875 
z
M 9.8125 72.90625 
L 32.078125 72.90625 
Q 44.34375 72.90625 50.609375 67.359375 
Q 56.890625 61.8125 56.890625 51.125 
Q 56.890625 40.328125 50.609375 34.8125 
Q 44.34375 29.296875 32.078125 29.296875 
L 19.671875 29.296875 
L 19.671875 0 
L 9.8125 0 
z
" id="DejaVuSans-80"/>
     <path d="M 64.40625 67.28125 
L 64.40625 56.890625 
Q 59.421875 61.53125 53.78125 63.8125 
Q 48.140625 66.109375 41.796875 66.109375 
Q 29.296875 66.109375 22.65625 58.46875 
Q 16.015625 50.828125 16.015625 36.375 
Q 16.015625 21.96875 22.65625 14.328125 
Q 29.296875 6.6875 41.796875 6.6875 
Q 48.140625 6.6875 53.78125 8.984375 
Q 59.421875 11.28125 64.40625 15.921875 
L 64.40625 5.609375 
Q 59.234375 2.09375 53.4375 0.328125 
Q 47.65625 -1.421875 41.21875 -1.421875 
Q 24.65625 -1.421875 15.125 8.703125 
Q 5.609375 18.84375 5.609375 36.375 
Q 5.609375 53.953125 15.125 64.078125 
Q 24.65625 74.21875 41.21875 74.21875 
Q 47.75 74.21875 53.53125 72.484375 
Q 59.328125 70.75 64.40625 67.28125 
z
" id="DejaVuSans-67"/>
     <path d="M 11.71875 12.40625 
L 22.015625 12.40625 
L 22.015625 0 
L 11.71875 0 
z
M 11.71875 51.703125 
L 22.015625 51.703125 
L 22.015625 39.3125 
L 11.71875 39.3125 
z
" id="DejaVuSans-58"/>
     <path d="M 4.890625 31.390625 
L 31.203125 31.390625 
L 31.203125 23.390625 
L 4.890625 23.390625 
z
" id="DejaVuSans-45"/>
     <path d="M 11.71875 12.40625 
L 22.015625 12.40625 
L 22.015625 4 
L 14.015625 -11.625 
L 7.71875 -11.625 
L 11.71875 4 
z
" id="DejaVuSans-44"/>
     <path id="DejaVuSans-32"/>
    </defs>
    <g transform="translate(309.010312 19.92)scale(0.12 -0.12)">
     <use xlink:href="#DejaVuSans-80"/>
     <use x="60.302734" xlink:href="#DejaVuSans-67"/>
     <use x="130.126953" xlink:href="#DejaVuSans-49"/>
     <use x="193.75" xlink:href="#DejaVuSans-58"/>
     <use x="227.441406" xlink:href="#DejaVuSans-45"/>
     <use x="263.525391" xlink:href="#DejaVuSans-48"/>
     <use x="327.148438" xlink:href="#DejaVuSans-46"/>
     <use x="358.935547" xlink:href="#DejaVuSans-53"/>
     <use x="422.558594" xlink:href="#DejaVuSans-48"/>
     <use x="486.181641" xlink:href="#DejaVuSans-44"/>
     <use x="517.96875" xlink:href="#DejaVuSans-32"/>
     <use x="549.755859" xlink:href="#DejaVuSans-80"/>
     <use x="610.058594" xlink:href="#DejaVuSans-67"/>
     <use x="679.882812" xlink:href="#DejaVuSans-50"/>
     <use x="743.505859" xlink:href="#DejaVuSans-58"/>
     <use x="777.197266" xlink:href="#DejaVuSans-48"/>
     <use x="840.820312" xlink:href="#DejaVuSans-46"/>
     <use x="872.607422" xlink:href="#DejaVuSans-52"/>
     <use x="936.230469" xlink:href="#DejaVuSans-55"/>
    </g>
   </g>
  </g>
 </g>
 <defs>
  <clipPath id="p79a7767394">
   <rect height="163.08" width="558" x="90" y="25.92"/>
  </clipPath>
 </defs>
</svg>
