<?xml version="1.0" encoding="utf-8" standalone="no"?>
<!DOCTYPE svg PUBLIC "-//W3C//DTD SVG 1.1//EN"
  "http://www.w3.org/Graphics/SVG/1.1/DTD/svg11.dtd">
<!-- Created with matplotlib (https://matplotlib.org/) -->
<svg height="216pt" version="1.1" viewBox="0 0 720 216" width="720pt" xmlns="http://www.w3.org/2000/svg" xmlns:xlink="http://www.w3.org/1999/xlink">
 <defs>
  <style type="text/css">
*{stroke-linecap:butt;stroke-linejoin:round;}
  </style>
 </defs>
 <g id="figure_1">
  <g id="patch_1">
   <path d="M 0 216 
L 720 216 
L 720 0 
L 0 0 
z
" style="fill:none;"/>
  </g>
  <g id="axes_1">
   <g id="patch_2">
    <path d="M 90 189 
L 648 189 
L 648 25.92 
L 90 25.92 
z
" style="fill:none;"/>
   </g>
   <g id="matplotlib.axis_1">
    <g id="xtick_1">
     <g id="line2d_1">
      <defs>
       <path d="M 0 0 
L 0 3.5 
" id="md08de3b48f" style="stroke:#000000;stroke-width:0.8;"/>
      </defs>
      <g>
       <use style="stroke:#000000;stroke-width:0.8;" x="115.363636" xlink:href="#md08de3b48f" y="189"/>
      </g>
     </g>
     <g id="text_1">
      <!-- 0 -->
      <defs>
       <path d="M 31.78125 66.40625 
Q 24.171875 66.40625 20.328125 58.90625 
Q 16.5 51.421875 16.5 36.375 
Q 16.5 21.390625 20.328125 13.890625 
Q 24.171875 6.390625 31.78125 6.390625 
Q 39.453125 6.390625 43.28125 13.890625 
Q 47.125 21.390625 47.125 36.375 
Q 47.125 51.421875 43.28125 58.90625 
Q 39.453125 66.40625 31.78125 66.40625 
z
M 31.78125 74.21875 
Q 44.046875 74.21875 50.515625 64.515625 
Q 56.984375 54.828125 56.984375 36.375 
Q 56.984375 17.96875 50.515625 8.265625 
Q 44.046875 -1.421875 31.78125 -1.421875 
Q 19.53125 -1.421875 13.0625 8.265625 
Q 6.59375 17.96875 6.59375 36.375 
Q 6.59375 54.828125 13.0625 64.515625 
Q 19.53125 74.21875 31.78125 74.21875 
z
" id="DejaVuSans-48"/>
      </defs>
      <g transform="translate(112.182386 203.598437)scale(0.1 -0.1)">
       <use xlink:href="#DejaVuSans-48"/>
      </g>
     </g>
    </g>
    <g id="xtick_2">
     <g id="line2d_2">
      <g>
       <use style="stroke:#000000;stroke-width:0.8;" x="191.416519" xlink:href="#md08de3b48f" y="189"/>
      </g>
     </g>
     <g id="text_2">
      <!-- 100 -->
      <defs>
       <path d="M 12.40625 8.296875 
L 28.515625 8.296875 
L 28.515625 63.921875 
L 10.984375 60.40625 
L 10.984375 69.390625 
L 28.421875 72.90625 
L 38.28125 72.90625 
L 38.28125 8.296875 
L 54.390625 8.296875 
L 54.390625 0 
L 12.40625 0 
z
" id="DejaVuSans-49"/>
      </defs>
      <g transform="translate(181.872769 203.598437)scale(0.1 -0.1)">
       <use xlink:href="#DejaVuSans-49"/>
       <use x="63.623047" xlink:href="#DejaVuSans-48"/>
       <use x="127.246094" xlink:href="#DejaVuSans-48"/>
      </g>
     </g>
    </g>
    <g id="xtick_3">
     <g id="line2d_3">
      <g>
       <use style="stroke:#000000;stroke-width:0.8;" x="267.469402" xlink:href="#md08de3b48f" y="189"/>
      </g>
     </g>
     <g id="text_3">
      <!-- 200 -->
      <defs>
       <path d="M 19.1875 8.296875 
L 53.609375 8.296875 
L 53.609375 0 
L 7.328125 0 
L 7.328125 8.296875 
Q 12.9375 14.109375 22.625 23.890625 
Q 32.328125 33.6875 34.8125 36.53125 
Q 39.546875 41.84375 41.421875 45.53125 
Q 43.3125 49.21875 43.3125 52.78125 
Q 43.3125 58.59375 39.234375 62.25 
Q 35.15625 65.921875 28.609375 65.921875 
Q 23.96875 65.921875 18.8125 64.3125 
Q 13.671875 62.703125 7.8125 59.421875 
L 7.8125 69.390625 
Q 13.765625 71.78125 18.9375 73 
Q 24.125 74.21875 28.421875 74.21875 
Q 39.75 74.21875 46.484375 68.546875 
Q 53.21875 62.890625 53.21875 53.421875 
Q 53.21875 48.921875 51.53125 44.890625 
Q 49.859375 40.875 45.40625 35.40625 
Q 44.1875 33.984375 37.640625 27.21875 
Q 31.109375 20.453125 19.1875 8.296875 
z
" id="DejaVuSans-50"/>
      </defs>
      <g transform="translate(257.925652 203.598437)scale(0.1 -0.1)">
       <use xlink:href="#DejaVuSans-50"/>
       <use x="63.623047" xlink:href="#DejaVuSans-48"/>
       <use x="127.246094" xlink:href="#DejaVuSans-48"/>
      </g>
     </g>
    </g>
    <g id="xtick_4">
     <g id="line2d_4">
      <g>
       <use style="stroke:#000000;stroke-width:0.8;" x="343.522284" xlink:href="#md08de3b48f" y="189"/>
      </g>
     </g>
     <g id="text_4">
      <!-- 300 -->
      <defs>
       <path d="M 40.578125 39.3125 
Q 47.65625 37.796875 51.625 33 
Q 55.609375 28.21875 55.609375 21.1875 
Q 55.609375 10.40625 48.1875 4.484375 
Q 40.765625 -1.421875 27.09375 -1.421875 
Q 22.515625 -1.421875 17.65625 -0.515625 
Q 12.796875 0.390625 7.625 2.203125 
L 7.625 11.71875 
Q 11.71875 9.328125 16.59375 8.109375 
Q 21.484375 6.890625 26.8125 6.890625 
Q 36.078125 6.890625 40.9375 10.546875 
Q 45.796875 14.203125 45.796875 21.1875 
Q 45.796875 27.640625 41.28125 31.265625 
Q 36.765625 34.90625 28.71875 34.90625 
L 20.21875 34.90625 
L 20.21875 43.015625 
L 29.109375 43.015625 
Q 36.375 43.015625 40.234375 45.921875 
Q 44.09375 48.828125 44.09375 54.296875 
Q 44.09375 59.90625 40.109375 62.90625 
Q 36.140625 65.921875 28.71875 65.921875 
Q 24.65625 65.921875 20.015625 65.03125 
Q 15.375 64.15625 9.8125 62.3125 
L 9.8125 71.09375 
Q 15.4375 72.65625 20.34375 73.4375 
Q 25.25 74.21875 29.59375 74.21875 
Q 40.828125 74.21875 47.359375 69.109375 
Q 53.90625 64.015625 53.90625 55.328125 
Q 53.90625 49.265625 50.4375 45.09375 
Q 46.96875 40.921875 40.578125 39.3125 
z
" id="DejaVuSans-51"/>
      </defs>
      <g transform="translate(333.978534 203.598437)scale(0.1 -0.1)">
       <use xlink:href="#DejaVuSans-51"/>
       <use x="63.623047" xlink:href="#DejaVuSans-48"/>
       <use x="127.246094" xlink:href="#DejaVuSans-48"/>
      </g>
     </g>
    </g>
    <g id="xtick_5">
     <g id="line2d_5">
      <g>
       <use style="stroke:#000000;stroke-width:0.8;" x="419.575167" xlink:href="#md08de3b48f" y="189"/>
      </g>
     </g>
     <g id="text_5">
      <!-- 400 -->
      <defs>
       <path d="M 37.796875 64.3125 
L 12.890625 25.390625 
L 37.796875 25.390625 
z
M 35.203125 72.90625 
L 47.609375 72.90625 
L 47.609375 25.390625 
L 58.015625 25.390625 
L 58.015625 17.1875 
L 47.609375 17.1875 
L 47.609375 0 
L 37.796875 0 
L 37.796875 17.1875 
L 4.890625 17.1875 
L 4.890625 26.703125 
z
" id="DejaVuSans-52"/>
      </defs>
      <g transform="translate(410.031417 203.598437)scale(0.1 -0.1)">
       <use xlink:href="#DejaVuSans-52"/>
       <use x="63.623047" xlink:href="#DejaVuSans-48"/>
       <use x="127.246094" xlink:href="#DejaVuSans-48"/>
      </g>
     </g>
    </g>
    <g id="xtick_6">
     <g id="line2d_6">
      <g>
       <use style="stroke:#000000;stroke-width:0.8;" x="495.62805" xlink:href="#md08de3b48f" y="189"/>
      </g>
     </g>
     <g id="text_6">
      <!-- 500 -->
      <defs>
       <path d="M 10.796875 72.90625 
L 49.515625 72.90625 
L 49.515625 64.59375 
L 19.828125 64.59375 
L 19.828125 46.734375 
Q 21.96875 47.46875 24.109375 47.828125 
Q 26.265625 48.1875 28.421875 48.1875 
Q 40.625 48.1875 47.75 41.5 
Q 54.890625 34.8125 54.890625 23.390625 
Q 54.890625 11.625 47.5625 5.09375 
Q 40.234375 -1.421875 26.90625 -1.421875 
Q 22.3125 -1.421875 17.546875 -0.640625 
Q 12.796875 0.140625 7.71875 1.703125 
L 7.71875 11.625 
Q 12.109375 9.234375 16.796875 8.0625 
Q 21.484375 6.890625 26.703125 6.890625 
Q 35.15625 6.890625 40.078125 11.328125 
Q 45.015625 15.765625 45.015625 23.390625 
Q 45.015625 31 40.078125 35.4375 
Q 35.15625 39.890625 26.703125 39.890625 
Q 22.75 39.890625 18.8125 39.015625 
Q 14.890625 38.140625 10.796875 36.28125 
z
" id="DejaVuSans-53"/>
      </defs>
      <g transform="translate(486.0843 203.598437)scale(0.1 -0.1)">
       <use xlink:href="#DejaVuSans-53"/>
       <use x="63.623047" xlink:href="#DejaVuSans-48"/>
       <use x="127.246094" xlink:href="#DejaVuSans-48"/>
      </g>
     </g>
    </g>
    <g id="xtick_7">
     <g id="line2d_7">
      <g>
       <use style="stroke:#000000;stroke-width:0.8;" x="571.680932" xlink:href="#md08de3b48f" y="189"/>
      </g>
     </g>
     <g id="text_7">
      <!-- 600 -->
      <defs>
       <path d="M 33.015625 40.375 
Q 26.375 40.375 22.484375 35.828125 
Q 18.609375 31.296875 18.609375 23.390625 
Q 18.609375 15.53125 22.484375 10.953125 
Q 26.375 6.390625 33.015625 6.390625 
Q 39.65625 6.390625 43.53125 10.953125 
Q 47.40625 15.53125 47.40625 23.390625 
Q 47.40625 31.296875 43.53125 35.828125 
Q 39.65625 40.375 33.015625 40.375 
z
M 52.59375 71.296875 
L 52.59375 62.3125 
Q 48.875 64.0625 45.09375 64.984375 
Q 41.3125 65.921875 37.59375 65.921875 
Q 27.828125 65.921875 22.671875 59.328125 
Q 17.53125 52.734375 16.796875 39.40625 
Q 19.671875 43.65625 24.015625 45.921875 
Q 28.375 48.1875 33.59375 48.1875 
Q 44.578125 48.1875 50.953125 41.515625 
Q 57.328125 34.859375 57.328125 23.390625 
Q 57.328125 12.15625 50.6875 5.359375 
Q 44.046875 -1.421875 33.015625 -1.421875 
Q 20.359375 -1.421875 13.671875 8.265625 
Q 6.984375 17.96875 6.984375 36.375 
Q 6.984375 53.65625 15.1875 63.9375 
Q 23.390625 74.21875 37.203125 74.21875 
Q 40.921875 74.21875 44.703125 73.484375 
Q 48.484375 72.75 52.59375 71.296875 
z
" id="DejaVuSans-54"/>
      </defs>
      <g transform="translate(562.137182 203.598437)scale(0.1 -0.1)">
       <use xlink:href="#DejaVuSans-54"/>
       <use x="63.623047" xlink:href="#DejaVuSans-48"/>
       <use x="127.246094" xlink:href="#DejaVuSans-48"/>
      </g>
     </g>
    </g>
    <g id="xtick_8">
     <g id="line2d_8">
      <g>
       <use style="stroke:#000000;stroke-width:0.8;" x="647.733815" xlink:href="#md08de3b48f" y="189"/>
      </g>
     </g>
     <g id="text_8">
      <!-- 700 -->
      <defs>
       <path d="M 8.203125 72.90625 
L 55.078125 72.90625 
L 55.078125 68.703125 
L 28.609375 0 
L 18.3125 0 
L 43.21875 64.59375 
L 8.203125 64.59375 
z
" id="DejaVuSans-55"/>
      </defs>
      <g transform="translate(638.190065 203.598437)scale(0.1 -0.1)">
       <use xlink:href="#DejaVuSans-55"/>
       <use x="63.623047" xlink:href="#DejaVuSans-48"/>
       <use x="127.246094" xlink:href="#DejaVuSans-48"/>
      </g>
     </g>
    </g>
   </g>
   <g id="matplotlib.axis_2">
    <g id="ytick_1">
     <g id="line2d_9">
      <defs>
       <path d="M 0 0 
L -3.5 0 
" id="m176be963a5" style="stroke:#000000;stroke-width:0.8;"/>
      </defs>
      <g>
       <use style="stroke:#000000;stroke-width:0.8;" x="90" xlink:href="#m176be963a5" y="189"/>
      </g>
     </g>
     <g id="text_9">
      <!-- −2.0 -->
      <defs>
       <path d="M 10.59375 35.5 
L 73.1875 35.5 
L 73.1875 27.203125 
L 10.59375 27.203125 
z
" id="DejaVuSans-8722"/>
       <path d="M 10.6875 12.40625 
L 21 12.40625 
L 21 0 
L 10.6875 0 
z
" id="DejaVuSans-46"/>
      </defs>
      <g transform="translate(58.717187 192.799219)scale(0.1 -0.1)">
       <use xlink:href="#DejaVuSans-8722"/>
       <use x="83.789062" xlink:href="#DejaVuSans-50"/>
       <use x="147.412109" xlink:href="#DejaVuSans-46"/>
       <use x="179.199219" xlink:href="#DejaVuSans-48"/>
      </g>
     </g>
    </g>
    <g id="ytick_2">
     <g id="line2d_10">
      <g>
       <use style="stroke:#000000;stroke-width:0.8;" x="90" xlink:href="#m176be963a5" y="168.615"/>
      </g>
     </g>
     <g id="text_10">
      <!-- −1.5 -->
      <g transform="translate(58.717187 172.414219)scale(0.1 -0.1)">
       <use xlink:href="#DejaVuSans-8722"/>
       <use x="83.789062" xlink:href="#DejaVuSans-49"/>
       <use x="147.412109" xlink:href="#DejaVuSans-46"/>
       <use x="179.199219" xlink:href="#DejaVuSans-53"/>
      </g>
     </g>
    </g>
    <g id="ytick_3">
     <g id="line2d_11">
      <g>
       <use style="stroke:#000000;stroke-width:0.8;" x="90" xlink:href="#m176be963a5" y="148.23"/>
      </g>
     </g>
     <g id="text_11">
      <!-- −1.0 -->
      <g transform="translate(58.717187 152.029219)scale(0.1 -0.1)">
       <use xlink:href="#DejaVuSans-8722"/>
       <use x="83.789062" xlink:href="#DejaVuSans-49"/>
       <use x="147.412109" xlink:href="#DejaVuSans-46"/>
       <use x="179.199219" xlink:href="#DejaVuSans-48"/>
      </g>
     </g>
    </g>
    <g id="ytick_4">
     <g id="line2d_12">
      <g>
       <use style="stroke:#000000;stroke-width:0.8;" x="90" xlink:href="#m176be963a5" y="127.845"/>
      </g>
     </g>
     <g id="text_12">
      <!-- −0.5 -->
      <g transform="translate(58.717187 131.644219)scale(0.1 -0.1)">
       <use xlink:href="#DejaVuSans-8722"/>
       <use x="83.789062" xlink:href="#DejaVuSans-48"/>
       <use x="147.412109" xlink:href="#DejaVuSans-46"/>
       <use x="179.199219" xlink:href="#DejaVuSans-53"/>
      </g>
     </g>
    </g>
    <g id="ytick_5">
     <g id="line2d_13">
      <g>
       <use style="stroke:#000000;stroke-width:0.8;" x="90" xlink:href="#m176be963a5" y="107.46"/>
      </g>
     </g>
     <g id="text_13">
      <!-- 0.0 -->
      <g transform="translate(67.096875 111.259219)scale(0.1 -0.1)">
       <use xlink:href="#DejaVuSans-48"/>
       <use x="63.623047" xlink:href="#DejaVuSans-46"/>
       <use x="95.410156" xlink:href="#DejaVuSans-48"/>
      </g>
     </g>
    </g>
    <g id="ytick_6">
     <g id="line2d_14">
      <g>
       <use style="stroke:#000000;stroke-width:0.8;" x="90" xlink:href="#m176be963a5" y="87.075"/>
      </g>
     </g>
     <g id="text_14">
      <!-- 0.5 -->
      <g transform="translate(67.096875 90.874219)scale(0.1 -0.1)">
       <use xlink:href="#DejaVuSans-48"/>
       <use x="63.623047" xlink:href="#DejaVuSans-46"/>
       <use x="95.410156" xlink:href="#DejaVuSans-53"/>
      </g>
     </g>
    </g>
    <g id="ytick_7">
     <g id="line2d_15">
      <g>
       <use style="stroke:#000000;stroke-width:0.8;" x="90" xlink:href="#m176be963a5" y="66.69"/>
      </g>
     </g>
     <g id="text_15">
      <!-- 1.0 -->
      <g transform="translate(67.096875 70.489219)scale(0.1 -0.1)">
       <use xlink:href="#DejaVuSans-49"/>
       <use x="63.623047" xlink:href="#DejaVuSans-46"/>
       <use x="95.410156" xlink:href="#DejaVuSans-48"/>
      </g>
     </g>
    </g>
    <g id="ytick_8">
     <g id="line2d_16">
      <g>
       <use style="stroke:#000000;stroke-width:0.8;" x="90" xlink:href="#m176be963a5" y="46.305"/>
      </g>
     </g>
     <g id="text_16">
      <!-- 1.5 -->
      <g transform="translate(67.096875 50.104219)scale(0.1 -0.1)">
       <use xlink:href="#DejaVuSans-49"/>
       <use x="63.623047" xlink:href="#DejaVuSans-46"/>
       <use x="95.410156" xlink:href="#DejaVuSans-53"/>
      </g>
     </g>
    </g>
    <g id="ytick_9">
     <g id="line2d_17">
      <g>
       <use style="stroke:#000000;stroke-width:0.8;" x="90" xlink:href="#m176be963a5" y="25.92"/>
      </g>
     </g>
     <g id="text_17">
      <!-- 2.0 -->
      <g transform="translate(67.096875 29.719219)scale(0.1 -0.1)">
       <use xlink:href="#DejaVuSans-50"/>
       <use x="63.623047" xlink:href="#DejaVuSans-46"/>
       <use x="95.410156" xlink:href="#DejaVuSans-48"/>
      </g>
     </g>
    </g>
   </g>
   <g id="line2d_18">
    <path clip-path="url(#p36e9a5da80)" d="M 115.363636 76.278834 
L 116.124165 81.727998 
L 116.884694 78.750738 
L 117.645223 82.987112 
L 118.405752 73.383143 
L 119.16628 79.645301 
L 119.926809 81.885294 
L 120.687338 79.137258 
L 121.447867 81.008885 
L 122.208396 83.37806 
L 122.968925 81.875064 
L 123.729453 83.157389 
L 124.489982 76.788129 
L 125.250511 82.303705 
L 126.01104 80.404852 
L 126.771569 77.671022 
L 127.532098 78.814477 
L 128.292626 76.993644 
L 129.053155 80.269521 
L 129.813684 79.828285 
L 130.574213 85.637479 
L 131.334742 80.56969 
L 132.095271 74.710052 
L 132.855799 81.602278 
L 133.616328 77.759334 
L 134.376857 83.429889 
L 135.137386 77.450797 
L 135.897915 79.413873 
L 136.658444 80.973253 
L 137.418972 84.362968 
L 138.179501 78.849916 
L 138.94003 86.225193 
L 139.700559 85.978406 
L 140.461088 80.685375 
L 141.221616 85.512985 
L 141.982145 83.542753 
L 142.742674 87.652977 
L 144.263732 82.791847 
L 145.024261 84.877201 
L 145.784789 82.76764 
L 146.545318 81.557376 
L 147.305847 77.379915 
L 148.066376 78.853135 
L 148.826905 84.34718 
L 150.347962 77.334783 
L 151.108491 80.007492 
L 151.86902 82.151117 
L 152.629549 79.842348 
L 153.390078 81.734657 
L 154.150607 76.973611 
L 154.911135 81.974003 
L 155.671664 78.193341 
L 156.432193 78.073022 
L 157.192722 80.481071 
L 157.953251 80.023904 
L 159.474308 82.707839 
L 160.234837 85.382038 
L 160.995366 81.765292 
L 161.755895 78.7939 
L 162.516424 75.120567 
L 163.276952 80.785466 
L 164.037481 77.733557 
L 164.79801 86.629277 
L 166.319068 78.001622 
L 167.079597 88.073693 
L 167.840125 81.041343 
L 168.600654 76.738829 
L 169.361183 81.308198 
L 170.121712 77.457017 
L 170.882241 80.750759 
L 171.64277 79.080969 
L 172.403298 79.834666 
L 173.163827 85.129077 
L 173.924356 79.995159 
L 174.684885 80.234762 
L 175.445414 87.48831 
L 176.205942 80.822854 
L 176.966471 81.808038 
L 177.727 81.761172 
L 178.487529 81.578217 
L 180.008587 87.137565 
L 180.769115 79.585331 
L 181.529644 81.655613 
L 182.290173 83.367413 
L 183.050702 77.792036 
L 183.811231 74.251409 
L 184.57176 84.698101 
L 185.332288 77.71351 
L 186.092817 83.317341 
L 186.853346 79.646832 
L 187.613875 84.212742 
L 188.374404 79.800728 
L 189.134933 81.396821 
L 189.895461 76.932128 
L 190.65599 86.284105 
L 191.416519 80.799847 
L 192.177048 79.008737 
L 192.937577 85.116548 
L 193.698105 72.089794 
L 195.219163 82.596804 
L 195.979692 80.787055 
L 197.50075 81.809256 
L 198.261278 76.683425 
L 199.021807 87.192548 
L 199.782336 79.588072 
L 200.542865 83.926717 
L 201.303394 77.876511 
L 202.063923 75.203536 
L 202.824451 84.217572 
L 203.58498 79.194413 
L 204.345509 81.799 
L 205.106038 81.280629 
L 205.866567 77.756133 
L 206.627096 82.443039 
L 207.387624 79.533703 
L 208.148153 79.547771 
L 208.908682 82.049789 
L 209.669211 85.433125 
L 210.42974 85.912685 
L 211.190269 86.538518 
L 211.950797 85.583923 
L 212.711326 83.402309 
L 213.471855 78.769278 
L 214.232384 84.135329 
L 214.992913 78.037085 
L 215.753441 79.922707 
L 216.51397 83.008219 
L 217.274499 75.812612 
L 218.035028 81.552804 
L 218.795557 75.923745 
L 219.556086 81.793954 
L 220.316614 81.420648 
L 221.077143 77.95772 
L 221.837672 82.043211 
L 222.598201 80.559592 
L 223.35873 82.847872 
L 224.119259 84.616449 
L 224.879787 80.616918 
L 225.640316 83.754108 
L 226.400845 84.331045 
L 227.161374 79.165731 
L 227.921903 81.05708 
L 228.682432 77.420061 
L 229.44296 83.317777 
L 230.203489 76.990967 
L 230.964018 80.215169 
L 231.724547 85.288367 
L 232.485076 85.332707 
L 233.245604 84.895099 
L 234.006133 81.732858 
L 234.766662 80.258947 
L 235.527191 82.482797 
L 237.048249 75.66511 
L 237.808777 80.298137 
L 238.569306 80.361882 
L 239.329835 81.170256 
L 240.090364 79.860579 
L 240.850893 80.026191 
L 241.611422 76.5697 
L 242.37195 85.445124 
L 243.132479 84.994482 
L 243.893008 87.735004 
L 244.653537 79.477904 
L 245.414066 73.782529 
L 246.174595 80.749818 
L 246.935123 81.758149 
L 247.695652 76.768546 
L 248.456181 84.321102 
L 249.21671 85.018874 
L 249.977239 84.471926 
L 250.737767 81.138841 
L 251.498296 81.283234 
L 252.258825 78.417252 
L 253.019354 80.645058 
L 253.779883 79.358734 
L 254.540412 81.43801 
L 255.30094 81.653039 
L 256.061469 80.211766 
L 256.821998 77.482214 
L 257.582527 84.145259 
L 258.343056 76.043787 
L 259.103585 84.323626 
L 259.864113 80.488482 
L 260.624642 75.261246 
L 261.385171 78.728528 
L 262.1457 88.268917 
L 262.906229 79.181139 
L 263.666758 78.400053 
L 264.427286 77.909424 
L 265.187815 86.408775 
L 265.948344 81.270235 
L 266.708873 78.345531 
L 267.469402 82.862267 
L 268.22993 82.337326 
L 268.990459 79.186369 
L 269.750988 79.037271 
L 270.511517 80.805409 
L 271.272046 84.839785 
L 272.032575 84.175459 
L 272.793103 77.094967 
L 273.553632 82.209994 
L 274.314161 82.073102 
L 275.07469 81.558616 
L 275.835219 79.750571 
L 276.595748 81.316515 
L 277.356276 84.689096 
L 278.116805 80.631573 
L 278.877334 78.225116 
L 279.637863 77.26661 
L 280.398392 88.795583 
L 281.919449 83.004319 
L 282.679978 82.786721 
L 283.440507 86.817094 
L 284.201036 84.776437 
L 284.961565 81.907525 
L 285.722093 83.632621 
L 286.482622 75.542733 
L 288.00368 81.913077 
L 288.764209 75.128903 
L 289.524738 70.310181 
L 290.285266 81.551499 
L 291.045795 86.021091 
L 291.806324 80.643264 
L 292.566853 84.417592 
L 293.327382 78.795813 
L 294.087911 79.021713 
L 294.848439 81.758808 
L 295.608968 77.311372 
L 296.369497 80.085194 
L 297.130026 84.984929 
L 297.890555 83.214492 
L 298.651084 82.351399 
L 299.411612 83.115967 
L 300.93267 83.479844 
L 301.693199 85.421287 
L 302.453728 77.79089 
L 303.214257 79.24047 
L 303.974785 79.604369 
L 304.735314 82.428135 
L 305.495843 81.552761 
L 306.256372 83.963554 
L 307.016901 80.699637 
L 307.777429 82.142613 
L 308.537958 76.944471 
L 309.298487 80.538982 
L 310.059016 80.298118 
L 310.819545 80.493096 
L 311.580074 82.115881 
L 312.340602 81.499395 
L 313.101131 75.330312 
L 313.86166 81.605144 
L 314.622189 79.653282 
L 315.382718 83.913421 
L 316.143247 78.153788 
L 316.903775 82.23883 
L 318.424833 83.764799 
L 319.945891 77.3646 
L 320.70642 85.459161 
L 321.466948 76.934819 
L 322.227477 83.053307 
L 322.988006 77.711412 
L 323.748535 77.373772 
L 324.509064 82.942087 
L 325.269592 82.892874 
L 326.030121 85.842795 
L 326.79065 77.354676 
L 327.551179 80.466888 
L 328.311708 76.942689 
L 329.072237 83.656048 
L 329.832765 85.260512 
L 330.593294 81.998939 
L 331.353823 80.804592 
L 332.114352 80.090631 
L 332.874881 82.981613 
L 333.63541 84.579063 
L 334.395938 83.192256 
L 335.156467 80.0766 
L 335.916996 84.070186 
L 336.677525 82.858167 
L 337.438054 82.43524 
L 338.198583 81.470416 
L 338.959111 85.800399 
L 339.71964 82.519805 
L 340.480169 76.370373 
L 341.240698 80.280168 
L 342.001227 81.372696 
L 342.761755 77.147739 
L 343.522284 85.180945 
L 344.282813 82.516442 
L 345.043342 81.372404 
L 345.803871 82.051001 
L 346.5644 83.163607 
L 347.324928 85.948084 
L 348.085457 79.066408 
L 348.845986 80.132102 
L 349.606515 79.801955 
L 350.367044 85.557025 
L 351.127573 81.437089 
L 351.888101 84.698097 
L 352.64863 81.022867 
L 353.409159 81.904873 
L 354.169688 85.424549 
L 354.930217 83.661248 
L 355.690746 84.212911 
L 356.451274 83.346635 
L 357.211803 79.894623 
L 357.972332 90.754706 
L 358.732861 80.110757 
L 359.49339 83.119909 
L 360.253918 84.74006 
L 361.014447 77.093454 
L 361.774976 78.310928 
L 362.535505 81.386392 
L 363.296034 81.998502 
L 364.056563 84.329934 
L 364.817091 82.225881 
L 365.57762 77.95525 
L 366.338149 82.607229 
L 367.859207 80.130277 
L 368.619736 85.44112 
L 369.380264 85.98251 
L 370.140793 88.845552 
L 370.901322 86.079884 
L 371.661851 80.384232 
L 372.42238 88.468115 
L 373.182909 84.545626 
L 373.943437 75.444835 
L 374.703966 82.706481 
L 375.464495 79.420434 
L 376.225024 81.26252 
L 376.985553 77.971669 
L 377.746082 79.208841 
L 378.50661 85.471308 
L 379.267139 82.914166 
L 380.027668 87.431403 
L 380.788197 76.421132 
L 381.548726 72.463797 
L 382.309254 78.546254 
L 383.069783 74.867764 
L 383.830312 75.740205 
L 384.590841 80.688964 
L 385.35137 80.420865 
L 386.111899 85.639074 
L 386.872427 77.491963 
L 387.632956 81.625937 
L 388.393485 79.246708 
L 390.675072 84.276774 
L 391.4356 78.036603 
L 392.196129 84.117564 
L 392.956658 80.840593 
L 393.717187 82.150467 
L 394.477716 79.395399 
L 395.238245 83.811711 
L 395.998773 77.226736 
L 396.759302 79.30201 
L 397.519831 78.884026 
L 398.28036 82.11893 
L 399.040889 77.997939 
L 399.801417 77.766096 
L 400.561946 86.347761 
L 401.322475 84.006217 
L 402.083004 83.950978 
L 402.843533 80.619818 
L 403.604062 75.697057 
L 404.36459 83.365442 
L 405.125119 80.533252 
L 405.885648 81.169373 
L 406.646177 76.524313 
L 407.406706 80.857029 
L 408.167235 82.733508 
L 408.927763 82.721461 
L 409.688292 79.040896 
L 410.448821 85.579353 
L 411.20935 79.220694 
L 411.969879 78.586769 
L 412.730408 85.909269 
L 414.251465 79.158941 
L 415.011994 79.570975 
L 415.772523 76.848235 
L 416.533052 76.991912 
L 417.29358 75.519635 
L 418.054109 84.09829 
L 418.814638 78.681191 
L 419.575167 84.57832 
L 420.335696 81.783487 
L 421.096225 84.883534 
L 421.856753 77.939244 
L 422.617282 83.402865 
L 423.377811 79.7382 
L 424.13834 80.954519 
L 424.898869 83.603182 
L 425.659398 82.824798 
L 426.419926 89.674616 
L 427.180455 76.787943 
L 427.940984 81.774207 
L 429.462042 78.842344 
L 430.222571 84.647749 
L 430.983099 84.504133 
L 431.743628 84.094574 
L 433.264686 81.666114 
L 434.785743 83.696036 
L 435.546272 75.510171 
L 436.306801 78.340176 
L 437.06733 78.47856 
L 437.827859 77.997368 
L 438.588388 82.398564 
L 439.348916 82.793283 
L 440.109445 84.224541 
L 440.869974 82.128998 
L 441.630503 82.074856 
L 442.391032 80.184627 
L 443.151561 84.08253 
L 443.912089 82.504991 
L 444.672618 80.625297 
L 445.433147 81.818615 
L 446.193676 76.088909 
L 446.954205 78.149703 
L 447.714734 83.970622 
L 448.475262 82.107125 
L 449.235791 79.77101 
L 449.99632 82.673206 
L 450.756849 77.534367 
L 451.517378 75.867054 
L 452.277907 78.006815 
L 453.038435 86.110843 
L 453.798964 81.270008 
L 454.559493 80.012415 
L 455.320022 84.537153 
L 456.080551 76.641674 
L 456.841079 85.483223 
L 457.601608 84.007932 
L 458.362137 88.438044 
L 459.122666 81.557681 
L 459.883195 82.034657 
L 460.643724 88.514107 
L 461.404252 78.286736 
L 462.164781 80.985527 
L 462.92531 80.269466 
L 463.685839 85.373804 
L 464.446368 76.586879 
L 465.206897 82.045482 
L 465.967425 79.802373 
L 466.727954 82.897643 
L 467.488483 83.287889 
L 468.249012 80.950416 
L 469.009541 87.231949 
L 469.77007 84.520466 
L 470.530598 83.749337 
L 471.291127 80.509976 
L 472.051656 82.246097 
L 472.812185 86.911368 
L 473.572714 79.094922 
L 474.333242 87.586479 
L 475.093771 81.447829 
L 475.8543 82.109217 
L 476.614829 80.935678 
L 477.375358 81.49784 
L 478.135887 77.714378 
L 478.896415 77.904523 
L 479.656944 79.478105 
L 480.417473 76.53305 
L 481.178002 81.444472 
L 481.938531 84.834928 
L 482.69906 80.144641 
L 483.459588 83.982778 
L 484.220117 85.972367 
L 484.980646 80.687421 
L 485.741175 79.307181 
L 486.501704 80.841037 
L 487.262233 84.85061 
L 488.022761 82.655265 
L 488.78329 85.09213 
L 489.543819 85.743272 
L 490.304348 84.808589 
L 491.064877 79.788715 
L 491.825405 78.593818 
L 492.585934 80.258219 
L 493.346463 78.426624 
L 494.106992 80.847504 
L 494.867521 77.239128 
L 495.62805 77.665652 
L 496.388578 87.072882 
L 497.149107 82.077968 
L 497.909636 80.832515 
L 498.670165 77.819498 
L 499.430694 83.426192 
L 500.191223 83.316814 
L 500.951751 75.025753 
L 501.71228 81.206394 
L 502.472809 74.673556 
L 503.233338 79.924965 
L 503.993867 77.766263 
L 504.754396 82.5725 
L 505.514924 82.831136 
L 506.275453 86.221467 
L 507.035982 83.656548 
L 507.796511 77.79134 
L 508.55704 82.846977 
L 509.317568 79.664421 
L 510.078097 83.669813 
L 510.838626 82.628654 
L 511.599155 80.358727 
L 512.359684 80.55414 
L 513.120213 77.126991 
L 513.880741 82.012188 
L 514.64127 79.844634 
L 515.401799 81.570369 
L 516.162328 79.937862 
L 516.922857 80.230636 
L 517.683386 83.559234 
L 518.443914 77.416466 
L 519.204443 86.025898 
L 519.964972 80.415092 
L 520.725501 84.487275 
L 521.48603 84.038623 
L 522.246559 83.18282 
L 523.007087 84.812172 
L 523.767616 78.78551 
L 524.528145 78.14986 
L 525.288674 81.99384 
L 526.049203 81.170735 
L 526.809731 85.042904 
L 527.57026 82.38401 
L 528.330789 82.917143 
L 529.091318 86.569823 
L 529.851847 78.332937 
L 530.612376 78.907292 
L 531.372904 82.658285 
L 532.133433 82.815822 
L 532.893962 81.936232 
L 533.654491 78.914723 
L 535.175549 80.009153 
L 535.936077 82.581421 
L 536.696606 80.732341 
L 537.457135 77.168317 
L 538.217664 80.363275 
L 538.978193 85.626252 
L 539.738722 77.193582 
L 540.49925 82.27273 
L 541.259779 85.155165 
L 542.020308 83.621491 
L 542.780837 84.658027 
L 543.541366 81.962407 
L 544.301895 84.28167 
L 545.062423 81.872838 
L 545.822952 81.049429 
L 546.583481 88.409273 
L 547.34401 82.081428 
L 548.104539 81.085239 
L 548.865067 81.173458 
L 550.386125 82.207764 
L 551.146654 77.129172 
L 551.907183 73.798219 
L 552.667712 78.267212 
L 553.42824 78.460646 
L 554.188769 80.141151 
L 554.949298 82.522708 
L 555.709827 82.683625 
L 556.470356 86.751166 
L 557.230885 76.895047 
L 557.991413 79.688833 
L 558.751942 80.632632 
L 559.512471 87.502001 
L 560.273 79.08282 
L 561.033529 86.012114 
L 561.794058 79.239165 
L 562.554586 79.283019 
L 563.315115 79.729122 
L 564.075644 84.956073 
L 564.836173 74.488939 
L 565.596702 85.53999 
L 566.35723 81.138287 
L 567.117759 81.505882 
L 567.878288 76.875508 
L 568.638817 81.712344 
L 569.399346 80.911075 
L 570.159875 82.671273 
L 571.680932 75.480965 
L 572.441461 83.810946 
L 573.20199 79.385488 
L 573.962519 81.129135 
L 574.723048 78.46344 
L 575.483576 80.534325 
L 576.244105 77.768632 
L 577.004634 74.013929 
L 577.765163 78.535239 
L 578.525692 78.696303 
L 579.286221 82.050444 
L 580.046749 82.372687 
L 580.807278 80.760512 
L 581.567807 83.762503 
L 582.328336 80.595484 
L 583.088865 82.949677 
L 583.849393 78.15129 
L 584.609922 81.911057 
L 585.370451 80.98609 
L 586.13098 78.125597 
L 586.891509 84.693322 
L 587.652038 79.795756 
L 588.412566 79.217034 
L 589.173095 82.075126 
L 589.933624 82.127651 
L 590.694153 81.702565 
L 591.454682 84.711018 
L 592.215211 80.341703 
L 592.975739 84.199444 
L 593.736268 86.700299 
L 594.496797 81.053306 
L 595.257326 83.872495 
L 596.017855 71.757532 
L 596.778384 84.614685 
L 597.538912 84.767474 
L 598.299441 85.446565 
L 599.05997 83.651146 
L 599.820499 79.959488 
L 600.581028 86.400217 
L 601.341556 83.065555 
L 602.102085 84.402753 
L 602.862614 89.943331 
L 603.623143 81.098884 
L 604.383672 83.398842 
L 605.144201 79.965689 
L 606.665258 82.470539 
L 607.425787 79.619387 
L 608.186316 79.057225 
L 608.946845 81.018818 
L 609.707374 84.079243 
L 610.467902 80.540271 
L 611.228431 81.323075 
L 611.98896 87.282917 
L 612.749489 83.597155 
L 613.510018 84.763868 
L 614.270547 86.578335 
L 615.031075 85.296899 
L 615.791604 78.578571 
L 616.552133 84.352595 
L 617.312662 84.802254 
L 618.83372 80.207447 
L 619.594248 85.050051 
L 620.354777 83.354852 
L 621.115306 81.139508 
L 621.875835 80.894995 
L 622.636364 83.039988 
L 622.636364 83.039988 
" style="fill:none;stroke:#800080;stroke-linecap:square;"/>
   </g>
   <g id="patch_3">
    <path d="M 90 189 
L 90 25.92 
" style="fill:none;stroke:#000000;stroke-linecap:square;stroke-linejoin:miter;stroke-width:0.8;"/>
   </g>
   <g id="patch_4">
    <path d="M 648 189 
L 648 25.92 
" style="fill:none;stroke:#000000;stroke-linecap:square;stroke-linejoin:miter;stroke-width:0.8;"/>
   </g>
   <g id="patch_5">
    <path d="M 90 189 
L 648 189 
" style="fill:none;stroke:#000000;stroke-linecap:square;stroke-linejoin:miter;stroke-width:0.8;"/>
   </g>
   <g id="patch_6">
    <path d="M 90 25.92 
L 648 25.92 
" style="fill:none;stroke:#000000;stroke-linecap:square;stroke-linejoin:miter;stroke-width:0.8;"/>
   </g>
   <g id="text_18">
    <!-- PC1:0.39, PC2:-0.57 -->
    <defs>
     <path d="M 19.671875 64.796875 
L 19.671875 37.40625 
L 32.078125 37.40625 
Q 38.96875 37.40625 42.71875 40.96875 
Q 46.484375 44.53125 46.484375 51.125 
Q 46.484375 57.671875 42.71875 61.234375 
Q 38.96875 64.796875 32.078125 64.796875 
z
M 9.8125 72.90625 
L 32.078125 72.90625 
Q 44.34375 72.90625 50.609375 67.359375 
Q 56.890625 61.8125 56.890625 51.125 
Q 56.890625 40.328125 50.609375 34.8125 
Q 44.34375 29.296875 32.078125 29.296875 
L 19.671875 29.296875 
L 19.671875 0 
L 9.8125 0 
z
" id="DejaVuSans-80"/>
     <path d="M 64.40625 67.28125 
L 64.40625 56.890625 
Q 59.421875 61.53125 53.78125 63.8125 
Q 48.140625 66.109375 41.796875 66.109375 
Q 29.296875 66.109375 22.65625 58.46875 
Q 16.015625 50.828125 16.015625 36.375 
Q 16.015625 21.96875 22.65625 14.328125 
Q 29.296875 6.6875 41.796875 6.6875 
Q 48.140625 6.6875 53.78125 8.984375 
Q 59.421875 11.28125 64.40625 15.921875 
L 64.40625 5.609375 
Q 59.234375 2.09375 53.4375 0.328125 
Q 47.65625 -1.421875 41.21875 -1.421875 
Q 24.65625 -1.421875 15.125 8.703125 
Q 5.609375 18.84375 5.609375 36.375 
Q 5.609375 53.953125 15.125 64.078125 
Q 24.65625 74.21875 41.21875 74.21875 
Q 47.75 74.21875 53.53125 72.484375 
Q 59.328125 70.75 64.40625 67.28125 
z
" id="DejaVuSans-67"/>
     <path d="M 11.71875 12.40625 
L 22.015625 12.40625 
L 22.015625 0 
L 11.71875 0 
z
M 11.71875 51.703125 
L 22.015625 51.703125 
L 22.015625 39.3125 
L 11.71875 39.3125 
z
" id="DejaVuSans-58"/>
     <path d="M 10.984375 1.515625 
L 10.984375 10.5 
Q 14.703125 8.734375 18.5 7.8125 
Q 22.3125 6.890625 25.984375 6.890625 
Q 35.75 6.890625 40.890625 13.453125 
Q 46.046875 20.015625 46.78125 33.40625 
Q 43.953125 29.203125 39.59375 26.953125 
Q 35.25 24.703125 29.984375 24.703125 
Q 19.046875 24.703125 12.671875 31.3125 
Q 6.296875 37.9375 6.296875 49.421875 
Q 6.296875 60.640625 12.9375 67.421875 
Q 19.578125 74.21875 30.609375 74.21875 
Q 43.265625 74.21875 49.921875 64.515625 
Q 56.59375 54.828125 56.59375 36.375 
Q 56.59375 19.140625 48.40625 8.859375 
Q 40.234375 -1.421875 26.421875 -1.421875 
Q 22.703125 -1.421875 18.890625 -0.6875 
Q 15.09375 0.046875 10.984375 1.515625 
z
M 30.609375 32.421875 
Q 37.25 32.421875 41.125 36.953125 
Q 45.015625 41.5 45.015625 49.421875 
Q 45.015625 57.28125 41.125 61.84375 
Q 37.25 66.40625 30.609375 66.40625 
Q 23.96875 66.40625 20.09375 61.84375 
Q 16.21875 57.28125 16.21875 49.421875 
Q 16.21875 41.5 20.09375 36.953125 
Q 23.96875 32.421875 30.609375 32.421875 
z
" id="DejaVuSans-57"/>
     <path d="M 11.71875 12.40625 
L 22.015625 12.40625 
L 22.015625 4 
L 14.015625 -11.625 
L 7.71875 -11.625 
L 11.71875 4 
z
" id="DejaVuSans-44"/>
     <path id="DejaVuSans-32"/>
     <path d="M 4.890625 31.390625 
L 31.203125 31.390625 
L 31.203125 23.390625 
L 4.890625 23.390625 
z
" id="DejaVuSans-45"/>
    </defs>
    <g transform="translate(309.010312 19.92)scale(0.12 -0.12)">
     <use xlink:href="#DejaVuSans-80"/>
     <use x="60.302734" xlink:href="#DejaVuSans-67"/>
     <use x="130.126953" xlink:href="#DejaVuSans-49"/>
     <use x="193.75" xlink:href="#DejaVuSans-58"/>
     <use x="227.441406" xlink:href="#DejaVuSans-48"/>
     <use x="291.064453" xlink:href="#DejaVuSans-46"/>
     <use x="322.851562" xlink:href="#DejaVuSans-51"/>
     <use x="386.474609" xlink:href="#DejaVuSans-57"/>
     <use x="450.097656" xlink:href="#DejaVuSans-44"/>
     <use x="481.884766" xlink:href="#DejaVuSans-32"/>
     <use x="513.671875" xlink:href="#DejaVuSans-80"/>
     <use x="573.974609" xlink:href="#DejaVuSans-67"/>
     <use x="643.798828" xlink:href="#DejaVuSans-50"/>
     <use x="707.421875" xlink:href="#DejaVuSans-58"/>
     <use x="741.113281" xlink:href="#DejaVuSans-45"/>
     <use x="777.197266" xlink:href="#DejaVuSans-48"/>
     <use x="840.820312" xlink:href="#DejaVuSans-46"/>
     <use x="872.607422" xlink:href="#DejaVuSans-53"/>
     <use x="936.230469" xlink:href="#DejaVuSans-55"/>
    </g>
   </g>
  </g>
 </g>
 <defs>
  <clipPath id="p36e9a5da80">
   <rect height="163.08" width="558" x="90" y="25.92"/>
  </clipPath>
 </defs>
</svg>
