<?xml version="1.0" encoding="utf-8" standalone="no"?>
<!DOCTYPE svg PUBLIC "-//W3C//DTD SVG 1.1//EN"
  "http://www.w3.org/Graphics/SVG/1.1/DTD/svg11.dtd">
<!-- Created with matplotlib (https://matplotlib.org/) -->
<svg height="720pt" version="1.1" viewBox="0 0 1080 720" width="1080pt" xmlns="http://www.w3.org/2000/svg" xmlns:xlink="http://www.w3.org/1999/xlink">
 <defs>
  <style type="text/css">
*{stroke-linecap:butt;stroke-linejoin:round;}
  </style>
 </defs>
 <g id="figure_1">
  <g id="patch_1">
   <path d="M 0 720 
L 1080 720 
L 1080 0 
L 0 0 
z
" style="fill:#ffffff;"/>
  </g>
  <g id="axes_1">
   <g id="patch_2">
    <path d="M 135 630 
L 972 630 
L 972 86.4 
L 135 86.4 
z
" style="fill:#eaeaf2;"/>
   </g>
   <g id="matplotlib.axis_1">
    <g id="xtick_1">
     <g id="line2d_1">
      <path clip-path="url(#p3245fa88de)" d="M 173.045455 630 
L 173.045455 86.4 
" style="fill:none;stroke:#ffffff;stroke-linecap:round;"/>
     </g>
     <g id="text_1">
      <!-- 0.05 -->
      <defs>
       <path d="M 4.15625 35.296875 
Q 4.15625 48 6.765625 55.734375 
Q 9.375 63.484375 14.515625 67.671875 
Q 19.671875 71.875 27.484375 71.875 
Q 33.25 71.875 37.59375 69.546875 
Q 41.9375 67.234375 44.765625 62.859375 
Q 47.609375 58.5 49.21875 52.21875 
Q 50.828125 45.953125 50.828125 35.296875 
Q 50.828125 22.703125 48.234375 14.96875 
Q 45.65625 7.234375 40.5 3 
Q 35.359375 -1.21875 27.484375 -1.21875 
Q 17.140625 -1.21875 11.234375 6.203125 
Q 4.15625 15.140625 4.15625 35.296875 
z
M 13.1875 35.296875 
Q 13.1875 17.671875 17.3125 11.828125 
Q 21.4375 6 27.484375 6 
Q 33.546875 6 37.671875 11.859375 
Q 41.796875 17.71875 41.796875 35.296875 
Q 41.796875 52.984375 37.671875 58.78125 
Q 33.546875 64.59375 27.390625 64.59375 
Q 21.34375 64.59375 17.71875 59.46875 
Q 13.1875 52.9375 13.1875 35.296875 
z
" id="ArialMT-48"/>
       <path d="M 9.078125 0 
L 9.078125 10.015625 
L 19.09375 10.015625 
L 19.09375 0 
z
" id="ArialMT-46"/>
       <path d="M 4.15625 18.75 
L 13.375 19.53125 
Q 14.40625 12.796875 18.140625 9.390625 
Q 21.875 6 27.15625 6 
Q 33.5 6 37.890625 10.78125 
Q 42.28125 15.578125 42.28125 23.484375 
Q 42.28125 31 38.0625 35.34375 
Q 33.84375 39.703125 27 39.703125 
Q 22.75 39.703125 19.328125 37.765625 
Q 15.921875 35.84375 13.96875 32.765625 
L 5.71875 33.84375 
L 12.640625 70.609375 
L 48.25 70.609375 
L 48.25 62.203125 
L 19.671875 62.203125 
L 15.828125 42.96875 
Q 22.265625 47.46875 29.34375 47.46875 
Q 38.71875 47.46875 45.15625 40.96875 
Q 51.609375 34.46875 51.609375 24.265625 
Q 51.609375 14.546875 45.953125 7.46875 
Q 39.0625 -1.21875 27.15625 -1.21875 
Q 17.390625 -1.21875 11.203125 4.25 
Q 5.03125 9.71875 4.15625 18.75 
z
" id="ArialMT-53"/>
      </defs>
      <g style="fill:#262626;" transform="translate(151.638423 655.247187)scale(0.22 -0.22)">
       <use xlink:href="#ArialMT-48"/>
       <use x="55.615234" xlink:href="#ArialMT-46"/>
       <use x="83.398438" xlink:href="#ArialMT-48"/>
       <use x="139.013672" xlink:href="#ArialMT-53"/>
      </g>
     </g>
    </g>
    <g id="xtick_2">
     <g id="line2d_2">
      <path clip-path="url(#p3245fa88de)" d="M 281.746753 630 
L 281.746753 86.4 
" style="fill:none;stroke:#ffffff;stroke-linecap:round;"/>
     </g>
     <g id="text_2">
      <!-- 0.10 -->
      <defs>
       <path d="M 37.25 0 
L 28.46875 0 
L 28.46875 56 
Q 25.296875 52.984375 20.140625 49.953125 
Q 14.984375 46.921875 10.890625 45.40625 
L 10.890625 53.90625 
Q 18.265625 57.375 23.78125 62.296875 
Q 29.296875 67.234375 31.59375 71.875 
L 37.25 71.875 
z
" id="ArialMT-49"/>
      </defs>
      <g style="fill:#262626;" transform="translate(260.339722 655.247187)scale(0.22 -0.22)">
       <use xlink:href="#ArialMT-48"/>
       <use x="55.615234" xlink:href="#ArialMT-46"/>
       <use x="83.398438" xlink:href="#ArialMT-49"/>
       <use x="139.013672" xlink:href="#ArialMT-48"/>
      </g>
     </g>
    </g>
    <g id="xtick_3">
     <g id="line2d_3">
      <path clip-path="url(#p3245fa88de)" d="M 390.448052 630 
L 390.448052 86.4 
" style="fill:none;stroke:#ffffff;stroke-linecap:round;"/>
     </g>
     <g id="text_3">
      <!-- 0.15 -->
      <g style="fill:#262626;" transform="translate(369.041021 655.247187)scale(0.22 -0.22)">
       <use xlink:href="#ArialMT-48"/>
       <use x="55.615234" xlink:href="#ArialMT-46"/>
       <use x="83.398438" xlink:href="#ArialMT-49"/>
       <use x="139.013672" xlink:href="#ArialMT-53"/>
      </g>
     </g>
    </g>
    <g id="xtick_4">
     <g id="line2d_4">
      <path clip-path="url(#p3245fa88de)" d="M 499.149351 630 
L 499.149351 86.4 
" style="fill:none;stroke:#ffffff;stroke-linecap:round;"/>
     </g>
     <g id="text_4">
      <!-- 0.20 -->
      <defs>
       <path d="M 50.34375 8.453125 
L 50.34375 0 
L 3.03125 0 
Q 2.9375 3.171875 4.046875 6.109375 
Q 5.859375 10.9375 9.828125 15.625 
Q 13.8125 20.3125 21.34375 26.46875 
Q 33.015625 36.03125 37.109375 41.625 
Q 41.21875 47.21875 41.21875 52.203125 
Q 41.21875 57.421875 37.46875 61 
Q 33.734375 64.59375 27.734375 64.59375 
Q 21.390625 64.59375 17.578125 60.78125 
Q 13.765625 56.984375 13.71875 50.25 
L 4.6875 51.171875 
Q 5.609375 61.28125 11.65625 66.578125 
Q 17.71875 71.875 27.9375 71.875 
Q 38.234375 71.875 44.234375 66.15625 
Q 50.25 60.453125 50.25 52 
Q 50.25 47.703125 48.484375 43.546875 
Q 46.734375 39.40625 42.65625 34.8125 
Q 38.578125 30.21875 29.109375 22.21875 
Q 21.1875 15.578125 18.9375 13.203125 
Q 16.703125 10.84375 15.234375 8.453125 
z
" id="ArialMT-50"/>
      </defs>
      <g style="fill:#262626;" transform="translate(477.742319 655.247187)scale(0.22 -0.22)">
       <use xlink:href="#ArialMT-48"/>
       <use x="55.615234" xlink:href="#ArialMT-46"/>
       <use x="83.398438" xlink:href="#ArialMT-50"/>
       <use x="139.013672" xlink:href="#ArialMT-48"/>
      </g>
     </g>
    </g>
    <g id="xtick_5">
     <g id="line2d_5">
      <path clip-path="url(#p3245fa88de)" d="M 607.850649 630 
L 607.850649 86.4 
" style="fill:none;stroke:#ffffff;stroke-linecap:round;"/>
     </g>
     <g id="text_5">
      <!-- 0.25 -->
      <g style="fill:#262626;" transform="translate(586.443618 655.247187)scale(0.22 -0.22)">
       <use xlink:href="#ArialMT-48"/>
       <use x="55.615234" xlink:href="#ArialMT-46"/>
       <use x="83.398438" xlink:href="#ArialMT-50"/>
       <use x="139.013672" xlink:href="#ArialMT-53"/>
      </g>
     </g>
    </g>
    <g id="xtick_6">
     <g id="line2d_6">
      <path clip-path="url(#p3245fa88de)" d="M 716.551948 630 
L 716.551948 86.4 
" style="fill:none;stroke:#ffffff;stroke-linecap:round;"/>
     </g>
     <g id="text_6">
      <!-- 0.30 -->
      <defs>
       <path d="M 4.203125 18.890625 
L 12.984375 20.0625 
Q 14.5 12.59375 18.140625 9.296875 
Q 21.78125 6 27 6 
Q 33.203125 6 37.46875 10.296875 
Q 41.75 14.59375 41.75 20.953125 
Q 41.75 27 37.796875 30.921875 
Q 33.84375 34.859375 27.734375 34.859375 
Q 25.25 34.859375 21.53125 33.890625 
L 22.515625 41.609375 
Q 23.390625 41.5 23.921875 41.5 
Q 29.546875 41.5 34.03125 44.421875 
Q 38.53125 47.359375 38.53125 53.46875 
Q 38.53125 58.296875 35.25 61.46875 
Q 31.984375 64.65625 26.8125 64.65625 
Q 21.6875 64.65625 18.265625 61.421875 
Q 14.84375 58.203125 13.875 51.765625 
L 5.078125 53.328125 
Q 6.6875 62.15625 12.390625 67.015625 
Q 18.109375 71.875 26.609375 71.875 
Q 32.46875 71.875 37.390625 69.359375 
Q 42.328125 66.84375 44.9375 62.5 
Q 47.5625 58.15625 47.5625 53.265625 
Q 47.5625 48.640625 45.0625 44.828125 
Q 42.578125 41.015625 37.703125 38.765625 
Q 44.046875 37.3125 47.5625 32.6875 
Q 51.078125 28.078125 51.078125 21.140625 
Q 51.078125 11.765625 44.234375 5.25 
Q 37.40625 -1.265625 26.953125 -1.265625 
Q 17.53125 -1.265625 11.296875 4.34375 
Q 5.078125 9.96875 4.203125 18.890625 
z
" id="ArialMT-51"/>
      </defs>
      <g style="fill:#262626;" transform="translate(695.144917 655.247187)scale(0.22 -0.22)">
       <use xlink:href="#ArialMT-48"/>
       <use x="55.615234" xlink:href="#ArialMT-46"/>
       <use x="83.398438" xlink:href="#ArialMT-51"/>
       <use x="139.013672" xlink:href="#ArialMT-48"/>
      </g>
     </g>
    </g>
    <g id="xtick_7">
     <g id="line2d_7">
      <path clip-path="url(#p3245fa88de)" d="M 825.253247 630 
L 825.253247 86.4 
" style="fill:none;stroke:#ffffff;stroke-linecap:round;"/>
     </g>
     <g id="text_7">
      <!-- 0.35 -->
      <g style="fill:#262626;" transform="translate(803.846216 655.247187)scale(0.22 -0.22)">
       <use xlink:href="#ArialMT-48"/>
       <use x="55.615234" xlink:href="#ArialMT-46"/>
       <use x="83.398438" xlink:href="#ArialMT-51"/>
       <use x="139.013672" xlink:href="#ArialMT-53"/>
      </g>
     </g>
    </g>
    <g id="xtick_8">
     <g id="line2d_8">
      <path clip-path="url(#p3245fa88de)" d="M 933.954545 630 
L 933.954545 86.4 
" style="fill:none;stroke:#ffffff;stroke-linecap:round;"/>
     </g>
     <g id="text_8">
      <!-- 0.40 -->
      <defs>
       <path d="M 32.328125 0 
L 32.328125 17.140625 
L 1.265625 17.140625 
L 1.265625 25.203125 
L 33.9375 71.578125 
L 41.109375 71.578125 
L 41.109375 25.203125 
L 50.78125 25.203125 
L 50.78125 17.140625 
L 41.109375 17.140625 
L 41.109375 0 
z
M 32.328125 25.203125 
L 32.328125 57.46875 
L 9.90625 25.203125 
z
" id="ArialMT-52"/>
      </defs>
      <g style="fill:#262626;" transform="translate(912.547514 655.247187)scale(0.22 -0.22)">
       <use xlink:href="#ArialMT-48"/>
       <use x="55.615234" xlink:href="#ArialMT-46"/>
       <use x="83.398438" xlink:href="#ArialMT-52"/>
       <use x="139.013672" xlink:href="#ArialMT-48"/>
      </g>
     </g>
    </g>
    <g id="text_9">
     <!-- $\lambda$ -->
     <defs>
      <path d="M 36.71875 67.4375 
L 48.828125 0 
L 39.3125 0 
L 31.84375 40.4375 
L 5.125 0 
L -4.390625 0 
L 29.734375 52.4375 
L 28.03125 62.109375 
Q 26.953125 68.265625 21.734375 68.265625 
L 17.046875 68.265625 
L 18.5 75.984375 
L 24.21875 75.875 
Q 35.203125 75.734375 36.71875 67.4375 
z
" id="DejaVuSans-Oblique-955"/>
     </defs>
     <g style="fill:#262626;" transform="translate(546 681.514219)scale(0.25 -0.25)">
      <use transform="translate(0 0.015625)" xlink:href="#DejaVuSans-Oblique-955"/>
     </g>
    </g>
   </g>
   <g id="matplotlib.axis_2">
    <g id="ytick_1">
     <g id="line2d_9">
      <path clip-path="url(#p3245fa88de)" d="M 135 630 
L 972 630 
" style="fill:none;stroke:#ffffff;stroke-linecap:round;"/>
     </g>
     <g id="text_10">
      <!-- 0.0 -->
      <g style="fill:#262626;" transform="translate(94.92 637.873594)scale(0.22 -0.22)">
       <use xlink:href="#ArialMT-48"/>
       <use x="55.615234" xlink:href="#ArialMT-46"/>
       <use x="83.398438" xlink:href="#ArialMT-48"/>
      </g>
     </g>
    </g>
    <g id="ytick_2">
     <g id="line2d_10">
      <path clip-path="url(#p3245fa88de)" d="M 135 521.28 
L 972 521.28 
" style="fill:none;stroke:#ffffff;stroke-linecap:round;"/>
     </g>
     <g id="text_11">
      <!-- 0.2 -->
      <g style="fill:#262626;" transform="translate(94.92 529.153594)scale(0.22 -0.22)">
       <use xlink:href="#ArialMT-48"/>
       <use x="55.615234" xlink:href="#ArialMT-46"/>
       <use x="83.398438" xlink:href="#ArialMT-50"/>
      </g>
     </g>
    </g>
    <g id="ytick_3">
     <g id="line2d_11">
      <path clip-path="url(#p3245fa88de)" d="M 135 412.56 
L 972 412.56 
" style="fill:none;stroke:#ffffff;stroke-linecap:round;"/>
     </g>
     <g id="text_12">
      <!-- 0.4 -->
      <g style="fill:#262626;" transform="translate(94.92 420.433594)scale(0.22 -0.22)">
       <use xlink:href="#ArialMT-48"/>
       <use x="55.615234" xlink:href="#ArialMT-46"/>
       <use x="83.398438" xlink:href="#ArialMT-52"/>
      </g>
     </g>
    </g>
    <g id="ytick_4">
     <g id="line2d_12">
      <path clip-path="url(#p3245fa88de)" d="M 135 303.84 
L 972 303.84 
" style="fill:none;stroke:#ffffff;stroke-linecap:round;"/>
     </g>
     <g id="text_13">
      <!-- 0.6 -->
      <defs>
       <path d="M 49.75 54.046875 
L 41.015625 53.375 
Q 39.84375 58.546875 37.703125 60.890625 
Q 34.125 64.65625 28.90625 64.65625 
Q 24.703125 64.65625 21.53125 62.3125 
Q 17.390625 59.28125 14.984375 53.46875 
Q 12.59375 47.65625 12.5 36.921875 
Q 15.671875 41.75 20.265625 44.09375 
Q 24.859375 46.4375 29.890625 46.4375 
Q 38.671875 46.4375 44.84375 39.96875 
Q 51.03125 33.5 51.03125 23.25 
Q 51.03125 16.5 48.125 10.71875 
Q 45.21875 4.9375 40.140625 1.859375 
Q 35.0625 -1.21875 28.609375 -1.21875 
Q 17.625 -1.21875 10.6875 6.859375 
Q 3.765625 14.9375 3.765625 33.5 
Q 3.765625 54.25 11.421875 63.671875 
Q 18.109375 71.875 29.4375 71.875 
Q 37.890625 71.875 43.28125 67.140625 
Q 48.6875 62.40625 49.75 54.046875 
z
M 13.875 23.1875 
Q 13.875 18.65625 15.796875 14.5 
Q 17.71875 10.359375 21.1875 8.171875 
Q 24.65625 6 28.46875 6 
Q 34.03125 6 38.03125 10.484375 
Q 42.046875 14.984375 42.046875 22.703125 
Q 42.046875 30.125 38.078125 34.390625 
Q 34.125 38.671875 28.125 38.671875 
Q 22.171875 38.671875 18.015625 34.390625 
Q 13.875 30.125 13.875 23.1875 
z
" id="ArialMT-54"/>
      </defs>
      <g style="fill:#262626;" transform="translate(94.92 311.713594)scale(0.22 -0.22)">
       <use xlink:href="#ArialMT-48"/>
       <use x="55.615234" xlink:href="#ArialMT-46"/>
       <use x="83.398438" xlink:href="#ArialMT-54"/>
      </g>
     </g>
    </g>
    <g id="ytick_5">
     <g id="line2d_13">
      <path clip-path="url(#p3245fa88de)" d="M 135 195.12 
L 972 195.12 
" style="fill:none;stroke:#ffffff;stroke-linecap:round;"/>
     </g>
     <g id="text_14">
      <!-- 0.8 -->
      <defs>
       <path d="M 17.671875 38.8125 
Q 12.203125 40.828125 9.5625 44.53125 
Q 6.9375 48.25 6.9375 53.421875 
Q 6.9375 61.234375 12.546875 66.546875 
Q 18.171875 71.875 27.484375 71.875 
Q 36.859375 71.875 42.578125 66.421875 
Q 48.296875 60.984375 48.296875 53.171875 
Q 48.296875 48.1875 45.671875 44.5 
Q 43.0625 40.828125 37.75 38.8125 
Q 44.34375 36.671875 47.78125 31.875 
Q 51.21875 27.09375 51.21875 20.453125 
Q 51.21875 11.28125 44.71875 5.03125 
Q 38.234375 -1.21875 27.640625 -1.21875 
Q 17.046875 -1.21875 10.546875 5.046875 
Q 4.046875 11.328125 4.046875 20.703125 
Q 4.046875 27.6875 7.59375 32.390625 
Q 11.140625 37.109375 17.671875 38.8125 
z
M 15.921875 53.71875 
Q 15.921875 48.640625 19.1875 45.40625 
Q 22.46875 42.1875 27.6875 42.1875 
Q 32.765625 42.1875 36.015625 45.375 
Q 39.265625 48.578125 39.265625 53.21875 
Q 39.265625 58.0625 35.90625 61.359375 
Q 32.5625 64.65625 27.59375 64.65625 
Q 22.5625 64.65625 19.234375 61.421875 
Q 15.921875 58.203125 15.921875 53.71875 
z
M 13.09375 20.65625 
Q 13.09375 16.890625 14.875 13.375 
Q 16.65625 9.859375 20.171875 7.921875 
Q 23.6875 6 27.734375 6 
Q 34.03125 6 38.125 10.046875 
Q 42.234375 14.109375 42.234375 20.359375 
Q 42.234375 26.703125 38.015625 30.859375 
Q 33.796875 35.015625 27.4375 35.015625 
Q 21.234375 35.015625 17.15625 30.90625 
Q 13.09375 26.8125 13.09375 20.65625 
z
" id="ArialMT-56"/>
      </defs>
      <g style="fill:#262626;" transform="translate(94.92 202.993594)scale(0.22 -0.22)">
       <use xlink:href="#ArialMT-48"/>
       <use x="55.615234" xlink:href="#ArialMT-46"/>
       <use x="83.398438" xlink:href="#ArialMT-56"/>
      </g>
     </g>
    </g>
    <g id="ytick_6">
     <g id="line2d_14">
      <path clip-path="url(#p3245fa88de)" d="M 135 86.4 
L 972 86.4 
" style="fill:none;stroke:#ffffff;stroke-linecap:round;"/>
     </g>
     <g id="text_15">
      <!-- 1.0 -->
      <g style="fill:#262626;" transform="translate(94.92 94.273594)scale(0.22 -0.22)">
       <use xlink:href="#ArialMT-49"/>
       <use x="55.615234" xlink:href="#ArialMT-46"/>
       <use x="83.398438" xlink:href="#ArialMT-48"/>
      </g>
     </g>
    </g>
    <g id="text_16">
     <!-- Mean Recovery Rate -->
     <defs>
      <path d="M 7.421875 0 
L 7.421875 71.578125 
L 21.6875 71.578125 
L 38.625 20.90625 
Q 40.96875 13.8125 42.046875 10.296875 
Q 43.265625 14.203125 45.84375 21.78125 
L 62.984375 71.578125 
L 75.734375 71.578125 
L 75.734375 0 
L 66.609375 0 
L 66.609375 59.90625 
L 45.796875 0 
L 37.25 0 
L 16.546875 60.9375 
L 16.546875 0 
z
" id="ArialMT-77"/>
      <path d="M 42.09375 16.703125 
L 51.171875 15.578125 
Q 49.03125 7.625 43.21875 3.21875 
Q 37.40625 -1.171875 28.375 -1.171875 
Q 17 -1.171875 10.328125 5.828125 
Q 3.65625 12.84375 3.65625 25.484375 
Q 3.65625 38.578125 10.390625 45.796875 
Q 17.140625 53.03125 27.875 53.03125 
Q 38.28125 53.03125 44.875 45.953125 
Q 51.46875 38.875 51.46875 26.03125 
Q 51.46875 25.25 51.421875 23.6875 
L 12.75 23.6875 
Q 13.234375 15.140625 17.578125 10.59375 
Q 21.921875 6.0625 28.421875 6.0625 
Q 33.25 6.0625 36.671875 8.59375 
Q 40.09375 11.140625 42.09375 16.703125 
z
M 13.234375 30.90625 
L 42.1875 30.90625 
Q 41.609375 37.453125 38.875 40.71875 
Q 34.671875 45.796875 27.984375 45.796875 
Q 21.921875 45.796875 17.796875 41.75 
Q 13.671875 37.703125 13.234375 30.90625 
z
" id="ArialMT-101"/>
      <path d="M 40.4375 6.390625 
Q 35.546875 2.25 31.03125 0.53125 
Q 26.515625 -1.171875 21.34375 -1.171875 
Q 12.796875 -1.171875 8.203125 3 
Q 3.609375 7.171875 3.609375 13.671875 
Q 3.609375 17.484375 5.34375 20.625 
Q 7.078125 23.78125 9.890625 25.6875 
Q 12.703125 27.59375 16.21875 28.5625 
Q 18.796875 29.25 24.03125 29.890625 
Q 34.671875 31.15625 39.703125 32.90625 
Q 39.75 34.71875 39.75 35.203125 
Q 39.75 40.578125 37.25 42.78125 
Q 33.890625 45.75 27.25 45.75 
Q 21.046875 45.75 18.09375 43.578125 
Q 15.140625 41.40625 13.71875 35.890625 
L 5.125 37.0625 
Q 6.296875 42.578125 8.984375 45.96875 
Q 11.671875 49.359375 16.75 51.1875 
Q 21.828125 53.03125 28.515625 53.03125 
Q 35.15625 53.03125 39.296875 51.46875 
Q 43.453125 49.90625 45.40625 47.53125 
Q 47.359375 45.171875 48.140625 41.546875 
Q 48.578125 39.3125 48.578125 33.453125 
L 48.578125 21.734375 
Q 48.578125 9.46875 49.140625 6.21875 
Q 49.703125 2.984375 51.375 0 
L 42.1875 0 
Q 40.828125 2.734375 40.4375 6.390625 
z
M 39.703125 26.03125 
Q 34.90625 24.078125 25.34375 22.703125 
Q 19.921875 21.921875 17.671875 20.9375 
Q 15.4375 19.96875 14.203125 18.09375 
Q 12.984375 16.21875 12.984375 13.921875 
Q 12.984375 10.40625 15.640625 8.0625 
Q 18.3125 5.71875 23.4375 5.71875 
Q 28.515625 5.71875 32.46875 7.9375 
Q 36.421875 10.15625 38.28125 14.015625 
Q 39.703125 17 39.703125 22.796875 
z
" id="ArialMT-97"/>
      <path d="M 6.59375 0 
L 6.59375 51.859375 
L 14.5 51.859375 
L 14.5 44.484375 
Q 20.21875 53.03125 31 53.03125 
Q 35.6875 53.03125 39.625 51.34375 
Q 43.5625 49.65625 45.515625 46.921875 
Q 47.46875 44.1875 48.25 40.4375 
Q 48.734375 37.984375 48.734375 31.890625 
L 48.734375 0 
L 39.9375 0 
L 39.9375 31.546875 
Q 39.9375 36.921875 38.90625 39.578125 
Q 37.890625 42.234375 35.28125 43.8125 
Q 32.671875 45.40625 29.15625 45.40625 
Q 23.53125 45.40625 19.453125 41.84375 
Q 15.375 38.28125 15.375 28.328125 
L 15.375 0 
z
" id="ArialMT-110"/>
      <path id="ArialMT-32"/>
      <path d="M 7.859375 0 
L 7.859375 71.578125 
L 39.59375 71.578125 
Q 49.171875 71.578125 54.140625 69.640625 
Q 59.125 67.71875 62.109375 62.828125 
Q 65.09375 57.953125 65.09375 52.046875 
Q 65.09375 44.4375 60.15625 39.203125 
Q 55.21875 33.984375 44.921875 32.5625 
Q 48.6875 30.765625 50.640625 29 
Q 54.78125 25.203125 58.5 19.484375 
L 70.953125 0 
L 59.03125 0 
L 49.5625 14.890625 
Q 45.40625 21.34375 42.71875 24.75 
Q 40.046875 28.171875 37.921875 29.53125 
Q 35.796875 30.90625 33.59375 31.453125 
Q 31.984375 31.78125 28.328125 31.78125 
L 17.328125 31.78125 
L 17.328125 0 
z
M 17.328125 39.984375 
L 37.703125 39.984375 
Q 44.1875 39.984375 47.84375 41.328125 
Q 51.515625 42.671875 53.421875 45.625 
Q 55.328125 48.578125 55.328125 52.046875 
Q 55.328125 57.125 51.640625 60.390625 
Q 47.953125 63.671875 39.984375 63.671875 
L 17.328125 63.671875 
z
" id="ArialMT-82"/>
      <path d="M 40.4375 19 
L 49.078125 17.875 
Q 47.65625 8.9375 41.8125 3.875 
Q 35.984375 -1.171875 27.484375 -1.171875 
Q 16.84375 -1.171875 10.375 5.78125 
Q 3.90625 12.75 3.90625 25.734375 
Q 3.90625 34.125 6.6875 40.421875 
Q 9.46875 46.734375 15.15625 49.875 
Q 20.84375 53.03125 27.546875 53.03125 
Q 35.984375 53.03125 41.359375 48.75 
Q 46.734375 44.484375 48.25 36.625 
L 39.703125 35.296875 
Q 38.484375 40.53125 35.375 43.15625 
Q 32.28125 45.796875 27.875 45.796875 
Q 21.234375 45.796875 17.078125 41.03125 
Q 12.9375 36.28125 12.9375 25.984375 
Q 12.9375 15.53125 16.9375 10.796875 
Q 20.953125 6.0625 27.390625 6.0625 
Q 32.5625 6.0625 36.03125 9.234375 
Q 39.5 12.40625 40.4375 19 
z
" id="ArialMT-99"/>
      <path d="M 3.328125 25.921875 
Q 3.328125 40.328125 11.328125 47.265625 
Q 18.015625 53.03125 27.640625 53.03125 
Q 38.328125 53.03125 45.109375 46.015625 
Q 51.90625 39.015625 51.90625 26.65625 
Q 51.90625 16.65625 48.90625 10.90625 
Q 45.90625 5.171875 40.15625 2 
Q 34.421875 -1.171875 27.640625 -1.171875 
Q 16.75 -1.171875 10.03125 5.8125 
Q 3.328125 12.796875 3.328125 25.921875 
z
M 12.359375 25.921875 
Q 12.359375 15.96875 16.703125 11.015625 
Q 21.046875 6.0625 27.640625 6.0625 
Q 34.1875 6.0625 38.53125 11.03125 
Q 42.875 16.015625 42.875 26.21875 
Q 42.875 35.84375 38.5 40.796875 
Q 34.125 45.75 27.640625 45.75 
Q 21.046875 45.75 16.703125 40.8125 
Q 12.359375 35.890625 12.359375 25.921875 
z
" id="ArialMT-111"/>
      <path d="M 21 0 
L 1.265625 51.859375 
L 10.546875 51.859375 
L 21.6875 20.796875 
Q 23.484375 15.765625 25 10.359375 
Q 26.171875 14.453125 28.265625 20.21875 
L 39.796875 51.859375 
L 48.828125 51.859375 
L 29.203125 0 
z
" id="ArialMT-118"/>
      <path d="M 6.5 0 
L 6.5 51.859375 
L 14.40625 51.859375 
L 14.40625 44 
Q 17.4375 49.515625 20 51.265625 
Q 22.5625 53.03125 25.640625 53.03125 
Q 30.078125 53.03125 34.671875 50.203125 
L 31.640625 42.046875 
Q 28.421875 43.953125 25.203125 43.953125 
Q 22.3125 43.953125 20.015625 42.21875 
Q 17.71875 40.484375 16.75 37.40625 
Q 15.28125 32.71875 15.28125 27.15625 
L 15.28125 0 
z
" id="ArialMT-114"/>
      <path d="M 6.203125 -19.96875 
L 5.21875 -11.71875 
Q 8.109375 -12.5 10.25 -12.5 
Q 13.1875 -12.5 14.9375 -11.515625 
Q 16.703125 -10.546875 17.828125 -8.796875 
Q 18.65625 -7.46875 20.515625 -2.25 
Q 20.75 -1.515625 21.296875 -0.09375 
L 1.609375 51.859375 
L 11.078125 51.859375 
L 21.875 21.828125 
Q 23.96875 16.109375 25.640625 9.8125 
Q 27.15625 15.875 29.25 21.625 
L 40.328125 51.859375 
L 49.125 51.859375 
L 29.390625 -0.875 
Q 26.21875 -9.421875 24.46875 -12.640625 
Q 22.125 -17 19.09375 -19.015625 
Q 16.0625 -21.046875 11.859375 -21.046875 
Q 9.328125 -21.046875 6.203125 -19.96875 
z
" id="ArialMT-121"/>
      <path d="M 25.78125 7.859375 
L 27.046875 0.09375 
Q 23.34375 -0.6875 20.40625 -0.6875 
Q 15.625 -0.6875 12.984375 0.828125 
Q 10.359375 2.34375 9.28125 4.8125 
Q 8.203125 7.28125 8.203125 15.1875 
L 8.203125 45.015625 
L 1.765625 45.015625 
L 1.765625 51.859375 
L 8.203125 51.859375 
L 8.203125 64.703125 
L 16.9375 69.96875 
L 16.9375 51.859375 
L 25.78125 51.859375 
L 25.78125 45.015625 
L 16.9375 45.015625 
L 16.9375 14.703125 
Q 16.9375 10.9375 17.40625 9.859375 
Q 17.875 8.796875 18.921875 8.15625 
Q 19.96875 7.515625 21.921875 7.515625 
Q 23.390625 7.515625 25.78125 7.859375 
z
" id="ArialMT-116"/>
     </defs>
     <g style="fill:#262626;" transform="translate(86.289687 461.5175)rotate(-90)scale(0.22 -0.22)">
      <use xlink:href="#ArialMT-77"/>
      <use x="83.300781" xlink:href="#ArialMT-101"/>
      <use x="138.916016" xlink:href="#ArialMT-97"/>
      <use x="194.53125" xlink:href="#ArialMT-110"/>
      <use x="250.146484" xlink:href="#ArialMT-32"/>
      <use x="277.929688" xlink:href="#ArialMT-82"/>
      <use x="350.146484" xlink:href="#ArialMT-101"/>
      <use x="405.761719" xlink:href="#ArialMT-99"/>
      <use x="455.761719" xlink:href="#ArialMT-111"/>
      <use x="511.376953" xlink:href="#ArialMT-118"/>
      <use x="561.376953" xlink:href="#ArialMT-101"/>
      <use x="616.992188" xlink:href="#ArialMT-114"/>
      <use x="650.292969" xlink:href="#ArialMT-121"/>
      <use x="700.292969" xlink:href="#ArialMT-32"/>
      <use x="728.076172" xlink:href="#ArialMT-82"/>
      <use x="800.292969" xlink:href="#ArialMT-97"/>
      <use x="855.908203" xlink:href="#ArialMT-116"/>
      <use x="883.691406" xlink:href="#ArialMT-101"/>
     </g>
    </g>
   </g>
   <g id="line2d_15">
    <path clip-path="url(#p3245fa88de)" d="M 173.045455 548.982692 
L 188.574212 538.528846 
L 204.102968 444.444231 
L 219.631725 418.309615 
L 235.160482 407.855769 
L 250.689239 420.923077 
L 266.217996 452.284615 
L 281.746753 486.259615 
L 297.27551 530.688462 
L 312.804267 567.276923 
L 328.333024 630 
L 343.861781 630 
L 359.390538 630 
L 374.919295 630 
L 390.448052 630 
L 405.976809 630 
L 421.505566 630 
L 437.034323 630 
L 452.56308 630 
L 468.091837 630 
L 483.620594 630 
L 499.149351 630 
L 514.678108 630 
L 530.206865 630 
L 545.735622 630 
L 561.264378 630 
L 576.793135 630 
L 592.321892 630 
L 607.850649 630 
L 623.379406 630 
L 638.908163 630 
L 654.43692 630 
L 669.965677 630 
L 685.494434 630 
L 701.023191 630 
L 716.551948 630 
L 732.080705 630 
L 747.609462 630 
L 763.138219 630 
L 778.666976 630 
L 794.195733 630 
L 809.72449 630 
L 825.253247 630 
L 840.782004 630 
L 856.310761 630 
L 871.839518 630 
L 887.368275 630 
L 902.897032 630 
L 918.425788 630 
L 933.954545 630 
" style="fill:none;stroke:#4c72b0;stroke-linecap:round;stroke-width:3;"/>
    <defs>
     <path d="M 0 4 
C 1.060812 4 2.078319 3.578535 2.828427 2.828427 
C 3.578535 2.078319 4 1.060812 4 0 
C 4 -1.060812 3.578535 -2.078319 2.828427 -2.828427 
C 2.078319 -3.578535 1.060812 -4 0 -4 
C -1.060812 -4 -2.078319 -3.578535 -2.828427 -2.828427 
C -3.578535 -2.078319 -4 -1.060812 -4 0 
C -4 1.060812 -3.578535 2.078319 -2.828427 2.828427 
C -2.078319 3.578535 -1.060812 4 0 4 
z
" id="m0034f6e077" style="stroke:#4c72b0;"/>
    </defs>
    <g clip-path="url(#p3245fa88de)">
     <use style="fill:#4c72b0;stroke:#4c72b0;" x="173.045455" xlink:href="#m0034f6e077" y="548.982692"/>
     <use style="fill:#4c72b0;stroke:#4c72b0;" x="188.574212" xlink:href="#m0034f6e077" y="538.528846"/>
     <use style="fill:#4c72b0;stroke:#4c72b0;" x="204.102968" xlink:href="#m0034f6e077" y="444.444231"/>
     <use style="fill:#4c72b0;stroke:#4c72b0;" x="219.631725" xlink:href="#m0034f6e077" y="418.309615"/>
     <use style="fill:#4c72b0;stroke:#4c72b0;" x="235.160482" xlink:href="#m0034f6e077" y="407.855769"/>
     <use style="fill:#4c72b0;stroke:#4c72b0;" x="250.689239" xlink:href="#m0034f6e077" y="420.923077"/>
     <use style="fill:#4c72b0;stroke:#4c72b0;" x="266.217996" xlink:href="#m0034f6e077" y="452.284615"/>
     <use style="fill:#4c72b0;stroke:#4c72b0;" x="281.746753" xlink:href="#m0034f6e077" y="486.259615"/>
     <use style="fill:#4c72b0;stroke:#4c72b0;" x="297.27551" xlink:href="#m0034f6e077" y="530.688462"/>
     <use style="fill:#4c72b0;stroke:#4c72b0;" x="312.804267" xlink:href="#m0034f6e077" y="567.276923"/>
     <use style="fill:#4c72b0;stroke:#4c72b0;" x="328.333024" xlink:href="#m0034f6e077" y="630"/>
     <use style="fill:#4c72b0;stroke:#4c72b0;" x="343.861781" xlink:href="#m0034f6e077" y="630"/>
     <use style="fill:#4c72b0;stroke:#4c72b0;" x="359.390538" xlink:href="#m0034f6e077" y="630"/>
     <use style="fill:#4c72b0;stroke:#4c72b0;" x="374.919295" xlink:href="#m0034f6e077" y="630"/>
     <use style="fill:#4c72b0;stroke:#4c72b0;" x="390.448052" xlink:href="#m0034f6e077" y="630"/>
     <use style="fill:#4c72b0;stroke:#4c72b0;" x="405.976809" xlink:href="#m0034f6e077" y="630"/>
     <use style="fill:#4c72b0;stroke:#4c72b0;" x="421.505566" xlink:href="#m0034f6e077" y="630"/>
     <use style="fill:#4c72b0;stroke:#4c72b0;" x="437.034323" xlink:href="#m0034f6e077" y="630"/>
     <use style="fill:#4c72b0;stroke:#4c72b0;" x="452.56308" xlink:href="#m0034f6e077" y="630"/>
     <use style="fill:#4c72b0;stroke:#4c72b0;" x="468.091837" xlink:href="#m0034f6e077" y="630"/>
     <use style="fill:#4c72b0;stroke:#4c72b0;" x="483.620594" xlink:href="#m0034f6e077" y="630"/>
     <use style="fill:#4c72b0;stroke:#4c72b0;" x="499.149351" xlink:href="#m0034f6e077" y="630"/>
     <use style="fill:#4c72b0;stroke:#4c72b0;" x="514.678108" xlink:href="#m0034f6e077" y="630"/>
     <use style="fill:#4c72b0;stroke:#4c72b0;" x="530.206865" xlink:href="#m0034f6e077" y="630"/>
     <use style="fill:#4c72b0;stroke:#4c72b0;" x="545.735622" xlink:href="#m0034f6e077" y="630"/>
     <use style="fill:#4c72b0;stroke:#4c72b0;" x="561.264378" xlink:href="#m0034f6e077" y="630"/>
     <use style="fill:#4c72b0;stroke:#4c72b0;" x="576.793135" xlink:href="#m0034f6e077" y="630"/>
     <use style="fill:#4c72b0;stroke:#4c72b0;" x="592.321892" xlink:href="#m0034f6e077" y="630"/>
     <use style="fill:#4c72b0;stroke:#4c72b0;" x="607.850649" xlink:href="#m0034f6e077" y="630"/>
     <use style="fill:#4c72b0;stroke:#4c72b0;" x="623.379406" xlink:href="#m0034f6e077" y="630"/>
     <use style="fill:#4c72b0;stroke:#4c72b0;" x="638.908163" xlink:href="#m0034f6e077" y="630"/>
     <use style="fill:#4c72b0;stroke:#4c72b0;" x="654.43692" xlink:href="#m0034f6e077" y="630"/>
     <use style="fill:#4c72b0;stroke:#4c72b0;" x="669.965677" xlink:href="#m0034f6e077" y="630"/>
     <use style="fill:#4c72b0;stroke:#4c72b0;" x="685.494434" xlink:href="#m0034f6e077" y="630"/>
     <use style="fill:#4c72b0;stroke:#4c72b0;" x="701.023191" xlink:href="#m0034f6e077" y="630"/>
     <use style="fill:#4c72b0;stroke:#4c72b0;" x="716.551948" xlink:href="#m0034f6e077" y="630"/>
     <use style="fill:#4c72b0;stroke:#4c72b0;" x="732.080705" xlink:href="#m0034f6e077" y="630"/>
     <use style="fill:#4c72b0;stroke:#4c72b0;" x="747.609462" xlink:href="#m0034f6e077" y="630"/>
     <use style="fill:#4c72b0;stroke:#4c72b0;" x="763.138219" xlink:href="#m0034f6e077" y="630"/>
     <use style="fill:#4c72b0;stroke:#4c72b0;" x="778.666976" xlink:href="#m0034f6e077" y="630"/>
     <use style="fill:#4c72b0;stroke:#4c72b0;" x="794.195733" xlink:href="#m0034f6e077" y="630"/>
     <use style="fill:#4c72b0;stroke:#4c72b0;" x="809.72449" xlink:href="#m0034f6e077" y="630"/>
     <use style="fill:#4c72b0;stroke:#4c72b0;" x="825.253247" xlink:href="#m0034f6e077" y="630"/>
     <use style="fill:#4c72b0;stroke:#4c72b0;" x="840.782004" xlink:href="#m0034f6e077" y="630"/>
     <use style="fill:#4c72b0;stroke:#4c72b0;" x="856.310761" xlink:href="#m0034f6e077" y="630"/>
     <use style="fill:#4c72b0;stroke:#4c72b0;" x="871.839518" xlink:href="#m0034f6e077" y="630"/>
     <use style="fill:#4c72b0;stroke:#4c72b0;" x="887.368275" xlink:href="#m0034f6e077" y="630"/>
     <use style="fill:#4c72b0;stroke:#4c72b0;" x="902.897032" xlink:href="#m0034f6e077" y="630"/>
     <use style="fill:#4c72b0;stroke:#4c72b0;" x="918.425788" xlink:href="#m0034f6e077" y="630"/>
     <use style="fill:#4c72b0;stroke:#4c72b0;" x="933.954545" xlink:href="#m0034f6e077" y="630"/>
    </g>
   </g>
   <g id="line2d_16">
    <path clip-path="url(#p3245fa88de)" d="M 173.045455 627.386538 
L 188.574212 603.865385 
L 204.102968 580.344231 
L 219.631725 556.823077 
L 235.160482 520.234615 
L 250.689239 488.873077 
L 266.217996 386.948077 
L 281.746753 332.065385 
L 297.27551 329.451923 
L 312.804267 342.519231 
L 328.333024 352.973077 
L 343.861781 366.040385 
L 359.390538 392.175 
L 374.919295 423.536538 
L 390.448052 454.898077 
L 405.976809 478.419231 
L 421.505566 501.940385 
L 437.034323 512.394231 
L 452.56308 522.848077 
L 468.091837 546.369231 
L 483.620594 567.276923 
L 499.149351 582.957692 
L 514.678108 603.865385 
L 530.206865 609.092308 
L 545.735622 627.386538 
L 561.264378 630 
L 576.793135 630 
L 592.321892 630 
L 607.850649 630 
L 623.379406 630 
L 638.908163 630 
L 654.43692 630 
L 669.965677 630 
L 685.494434 630 
L 701.023191 630 
L 716.551948 630 
L 732.080705 630 
L 747.609462 630 
L 763.138219 630 
L 778.666976 630 
L 794.195733 630 
L 809.72449 630 
L 825.253247 630 
L 840.782004 630 
L 856.310761 630 
L 871.839518 630 
L 887.368275 630 
L 902.897032 630 
L 918.425788 630 
L 933.954545 630 
" style="fill:none;stroke:#dd8452;stroke-linecap:round;stroke-width:3;"/>
    <defs>
     <path d="M 0 4 
C 1.060812 4 2.078319 3.578535 2.828427 2.828427 
C 3.578535 2.078319 4 1.060812 4 0 
C 4 -1.060812 3.578535 -2.078319 2.828427 -2.828427 
C 2.078319 -3.578535 1.060812 -4 0 -4 
C -1.060812 -4 -2.078319 -3.578535 -2.828427 -2.828427 
C -3.578535 -2.078319 -4 -1.060812 -4 0 
C -4 1.060812 -3.578535 2.078319 -2.828427 2.828427 
C -2.078319 3.578535 -1.060812 4 0 4 
z
" id="m5cf357b479" style="stroke:#dd8452;"/>
    </defs>
    <g clip-path="url(#p3245fa88de)">
     <use style="fill:#dd8452;stroke:#dd8452;" x="173.045455" xlink:href="#m5cf357b479" y="627.386538"/>
     <use style="fill:#dd8452;stroke:#dd8452;" x="188.574212" xlink:href="#m5cf357b479" y="603.865385"/>
     <use style="fill:#dd8452;stroke:#dd8452;" x="204.102968" xlink:href="#m5cf357b479" y="580.344231"/>
     <use style="fill:#dd8452;stroke:#dd8452;" x="219.631725" xlink:href="#m5cf357b479" y="556.823077"/>
     <use style="fill:#dd8452;stroke:#dd8452;" x="235.160482" xlink:href="#m5cf357b479" y="520.234615"/>
     <use style="fill:#dd8452;stroke:#dd8452;" x="250.689239" xlink:href="#m5cf357b479" y="488.873077"/>
     <use style="fill:#dd8452;stroke:#dd8452;" x="266.217996" xlink:href="#m5cf357b479" y="386.948077"/>
     <use style="fill:#dd8452;stroke:#dd8452;" x="281.746753" xlink:href="#m5cf357b479" y="332.065385"/>
     <use style="fill:#dd8452;stroke:#dd8452;" x="297.27551" xlink:href="#m5cf357b479" y="329.451923"/>
     <use style="fill:#dd8452;stroke:#dd8452;" x="312.804267" xlink:href="#m5cf357b479" y="342.519231"/>
     <use style="fill:#dd8452;stroke:#dd8452;" x="328.333024" xlink:href="#m5cf357b479" y="352.973077"/>
     <use style="fill:#dd8452;stroke:#dd8452;" x="343.861781" xlink:href="#m5cf357b479" y="366.040385"/>
     <use style="fill:#dd8452;stroke:#dd8452;" x="359.390538" xlink:href="#m5cf357b479" y="392.175"/>
     <use style="fill:#dd8452;stroke:#dd8452;" x="374.919295" xlink:href="#m5cf357b479" y="423.536538"/>
     <use style="fill:#dd8452;stroke:#dd8452;" x="390.448052" xlink:href="#m5cf357b479" y="454.898077"/>
     <use style="fill:#dd8452;stroke:#dd8452;" x="405.976809" xlink:href="#m5cf357b479" y="478.419231"/>
     <use style="fill:#dd8452;stroke:#dd8452;" x="421.505566" xlink:href="#m5cf357b479" y="501.940385"/>
     <use style="fill:#dd8452;stroke:#dd8452;" x="437.034323" xlink:href="#m5cf357b479" y="512.394231"/>
     <use style="fill:#dd8452;stroke:#dd8452;" x="452.56308" xlink:href="#m5cf357b479" y="522.848077"/>
     <use style="fill:#dd8452;stroke:#dd8452;" x="468.091837" xlink:href="#m5cf357b479" y="546.369231"/>
     <use style="fill:#dd8452;stroke:#dd8452;" x="483.620594" xlink:href="#m5cf357b479" y="567.276923"/>
     <use style="fill:#dd8452;stroke:#dd8452;" x="499.149351" xlink:href="#m5cf357b479" y="582.957692"/>
     <use style="fill:#dd8452;stroke:#dd8452;" x="514.678108" xlink:href="#m5cf357b479" y="603.865385"/>
     <use style="fill:#dd8452;stroke:#dd8452;" x="530.206865" xlink:href="#m5cf357b479" y="609.092308"/>
     <use style="fill:#dd8452;stroke:#dd8452;" x="545.735622" xlink:href="#m5cf357b479" y="627.386538"/>
     <use style="fill:#dd8452;stroke:#dd8452;" x="561.264378" xlink:href="#m5cf357b479" y="630"/>
     <use style="fill:#dd8452;stroke:#dd8452;" x="576.793135" xlink:href="#m5cf357b479" y="630"/>
     <use style="fill:#dd8452;stroke:#dd8452;" x="592.321892" xlink:href="#m5cf357b479" y="630"/>
     <use style="fill:#dd8452;stroke:#dd8452;" x="607.850649" xlink:href="#m5cf357b479" y="630"/>
     <use style="fill:#dd8452;stroke:#dd8452;" x="623.379406" xlink:href="#m5cf357b479" y="630"/>
     <use style="fill:#dd8452;stroke:#dd8452;" x="638.908163" xlink:href="#m5cf357b479" y="630"/>
     <use style="fill:#dd8452;stroke:#dd8452;" x="654.43692" xlink:href="#m5cf357b479" y="630"/>
     <use style="fill:#dd8452;stroke:#dd8452;" x="669.965677" xlink:href="#m5cf357b479" y="630"/>
     <use style="fill:#dd8452;stroke:#dd8452;" x="685.494434" xlink:href="#m5cf357b479" y="630"/>
     <use style="fill:#dd8452;stroke:#dd8452;" x="701.023191" xlink:href="#m5cf357b479" y="630"/>
     <use style="fill:#dd8452;stroke:#dd8452;" x="716.551948" xlink:href="#m5cf357b479" y="630"/>
     <use style="fill:#dd8452;stroke:#dd8452;" x="732.080705" xlink:href="#m5cf357b479" y="630"/>
     <use style="fill:#dd8452;stroke:#dd8452;" x="747.609462" xlink:href="#m5cf357b479" y="630"/>
     <use style="fill:#dd8452;stroke:#dd8452;" x="763.138219" xlink:href="#m5cf357b479" y="630"/>
     <use style="fill:#dd8452;stroke:#dd8452;" x="778.666976" xlink:href="#m5cf357b479" y="630"/>
     <use style="fill:#dd8452;stroke:#dd8452;" x="794.195733" xlink:href="#m5cf357b479" y="630"/>
     <use style="fill:#dd8452;stroke:#dd8452;" x="809.72449" xlink:href="#m5cf357b479" y="630"/>
     <use style="fill:#dd8452;stroke:#dd8452;" x="825.253247" xlink:href="#m5cf357b479" y="630"/>
     <use style="fill:#dd8452;stroke:#dd8452;" x="840.782004" xlink:href="#m5cf357b479" y="630"/>
     <use style="fill:#dd8452;stroke:#dd8452;" x="856.310761" xlink:href="#m5cf357b479" y="630"/>
     <use style="fill:#dd8452;stroke:#dd8452;" x="871.839518" xlink:href="#m5cf357b479" y="630"/>
     <use style="fill:#dd8452;stroke:#dd8452;" x="887.368275" xlink:href="#m5cf357b479" y="630"/>
     <use style="fill:#dd8452;stroke:#dd8452;" x="902.897032" xlink:href="#m5cf357b479" y="630"/>
     <use style="fill:#dd8452;stroke:#dd8452;" x="918.425788" xlink:href="#m5cf357b479" y="630"/>
     <use style="fill:#dd8452;stroke:#dd8452;" x="933.954545" xlink:href="#m5cf357b479" y="630"/>
    </g>
   </g>
   <g id="line2d_17">
    <path clip-path="url(#p3245fa88de)" d="M 173.045455 630 
L 188.574212 630 
L 204.102968 630 
L 219.631725 630 
L 235.160482 630 
L 250.689239 630 
L 266.217996 630 
L 281.746753 630 
L 297.27551 630 
L 312.804267 630 
L 328.333024 630 
L 343.861781 630 
L 359.390538 630 
L 374.919295 630 
L 390.448052 630 
L 405.976809 630 
L 421.505566 630 
L 437.034323 630 
L 452.56308 630 
L 468.091837 630 
L 483.620594 630 
L 499.149351 630 
L 514.678108 630 
L 530.206865 630 
L 545.735622 630 
L 561.264378 630 
L 576.793135 630 
L 592.321892 630 
L 607.850649 630 
L 623.379406 630 
L 638.908163 630 
L 654.43692 630 
L 669.965677 630 
L 685.494434 630 
L 701.023191 630 
L 716.551948 630 
L 732.080705 630 
L 747.609462 630 
L 763.138219 630 
L 778.666976 630 
L 794.195733 630 
L 809.72449 630 
L 825.253247 630 
L 840.782004 630 
L 856.310761 630 
L 871.839518 630 
L 887.368275 630 
L 902.897032 630 
L 918.425788 630 
L 933.954545 630 
" style="fill:none;stroke:#55a868;stroke-linecap:round;stroke-width:3;"/>
    <defs>
     <path d="M 0 4 
C 1.060812 4 2.078319 3.578535 2.828427 2.828427 
C 3.578535 2.078319 4 1.060812 4 0 
C 4 -1.060812 3.578535 -2.078319 2.828427 -2.828427 
C 2.078319 -3.578535 1.060812 -4 0 -4 
C -1.060812 -4 -2.078319 -3.578535 -2.828427 -2.828427 
C -3.578535 -2.078319 -4 -1.060812 -4 0 
C -4 1.060812 -3.578535 2.078319 -2.828427 2.828427 
C -2.078319 3.578535 -1.060812 4 0 4 
z
" id="m5cc9284840" style="stroke:#55a868;"/>
    </defs>
    <g clip-path="url(#p3245fa88de)">
     <use style="fill:#55a868;stroke:#55a868;" x="173.045455" xlink:href="#m5cc9284840" y="630"/>
     <use style="fill:#55a868;stroke:#55a868;" x="188.574212" xlink:href="#m5cc9284840" y="630"/>
     <use style="fill:#55a868;stroke:#55a868;" x="204.102968" xlink:href="#m5cc9284840" y="630"/>
     <use style="fill:#55a868;stroke:#55a868;" x="219.631725" xlink:href="#m5cc9284840" y="630"/>
     <use style="fill:#55a868;stroke:#55a868;" x="235.160482" xlink:href="#m5cc9284840" y="630"/>
     <use style="fill:#55a868;stroke:#55a868;" x="250.689239" xlink:href="#m5cc9284840" y="630"/>
     <use style="fill:#55a868;stroke:#55a868;" x="266.217996" xlink:href="#m5cc9284840" y="630"/>
     <use style="fill:#55a868;stroke:#55a868;" x="281.746753" xlink:href="#m5cc9284840" y="630"/>
     <use style="fill:#55a868;stroke:#55a868;" x="297.27551" xlink:href="#m5cc9284840" y="630"/>
     <use style="fill:#55a868;stroke:#55a868;" x="312.804267" xlink:href="#m5cc9284840" y="630"/>
     <use style="fill:#55a868;stroke:#55a868;" x="328.333024" xlink:href="#m5cc9284840" y="630"/>
     <use style="fill:#55a868;stroke:#55a868;" x="343.861781" xlink:href="#m5cc9284840" y="630"/>
     <use style="fill:#55a868;stroke:#55a868;" x="359.390538" xlink:href="#m5cc9284840" y="630"/>
     <use style="fill:#55a868;stroke:#55a868;" x="374.919295" xlink:href="#m5cc9284840" y="630"/>
     <use style="fill:#55a868;stroke:#55a868;" x="390.448052" xlink:href="#m5cc9284840" y="630"/>
     <use style="fill:#55a868;stroke:#55a868;" x="405.976809" xlink:href="#m5cc9284840" y="630"/>
     <use style="fill:#55a868;stroke:#55a868;" x="421.505566" xlink:href="#m5cc9284840" y="630"/>
     <use style="fill:#55a868;stroke:#55a868;" x="437.034323" xlink:href="#m5cc9284840" y="630"/>
     <use style="fill:#55a868;stroke:#55a868;" x="452.56308" xlink:href="#m5cc9284840" y="630"/>
     <use style="fill:#55a868;stroke:#55a868;" x="468.091837" xlink:href="#m5cc9284840" y="630"/>
     <use style="fill:#55a868;stroke:#55a868;" x="483.620594" xlink:href="#m5cc9284840" y="630"/>
     <use style="fill:#55a868;stroke:#55a868;" x="499.149351" xlink:href="#m5cc9284840" y="630"/>
     <use style="fill:#55a868;stroke:#55a868;" x="514.678108" xlink:href="#m5cc9284840" y="630"/>
     <use style="fill:#55a868;stroke:#55a868;" x="530.206865" xlink:href="#m5cc9284840" y="630"/>
     <use style="fill:#55a868;stroke:#55a868;" x="545.735622" xlink:href="#m5cc9284840" y="630"/>
     <use style="fill:#55a868;stroke:#55a868;" x="561.264378" xlink:href="#m5cc9284840" y="630"/>
     <use style="fill:#55a868;stroke:#55a868;" x="576.793135" xlink:href="#m5cc9284840" y="630"/>
     <use style="fill:#55a868;stroke:#55a868;" x="592.321892" xlink:href="#m5cc9284840" y="630"/>
     <use style="fill:#55a868;stroke:#55a868;" x="607.850649" xlink:href="#m5cc9284840" y="630"/>
     <use style="fill:#55a868;stroke:#55a868;" x="623.379406" xlink:href="#m5cc9284840" y="630"/>
     <use style="fill:#55a868;stroke:#55a868;" x="638.908163" xlink:href="#m5cc9284840" y="630"/>
     <use style="fill:#55a868;stroke:#55a868;" x="654.43692" xlink:href="#m5cc9284840" y="630"/>
     <use style="fill:#55a868;stroke:#55a868;" x="669.965677" xlink:href="#m5cc9284840" y="630"/>
     <use style="fill:#55a868;stroke:#55a868;" x="685.494434" xlink:href="#m5cc9284840" y="630"/>
     <use style="fill:#55a868;stroke:#55a868;" x="701.023191" xlink:href="#m5cc9284840" y="630"/>
     <use style="fill:#55a868;stroke:#55a868;" x="716.551948" xlink:href="#m5cc9284840" y="630"/>
     <use style="fill:#55a868;stroke:#55a868;" x="732.080705" xlink:href="#m5cc9284840" y="630"/>
     <use style="fill:#55a868;stroke:#55a868;" x="747.609462" xlink:href="#m5cc9284840" y="630"/>
     <use style="fill:#55a868;stroke:#55a868;" x="763.138219" xlink:href="#m5cc9284840" y="630"/>
     <use style="fill:#55a868;stroke:#55a868;" x="778.666976" xlink:href="#m5cc9284840" y="630"/>
     <use style="fill:#55a868;stroke:#55a868;" x="794.195733" xlink:href="#m5cc9284840" y="630"/>
     <use style="fill:#55a868;stroke:#55a868;" x="809.72449" xlink:href="#m5cc9284840" y="630"/>
     <use style="fill:#55a868;stroke:#55a868;" x="825.253247" xlink:href="#m5cc9284840" y="630"/>
     <use style="fill:#55a868;stroke:#55a868;" x="840.782004" xlink:href="#m5cc9284840" y="630"/>
     <use style="fill:#55a868;stroke:#55a868;" x="856.310761" xlink:href="#m5cc9284840" y="630"/>
     <use style="fill:#55a868;stroke:#55a868;" x="871.839518" xlink:href="#m5cc9284840" y="630"/>
     <use style="fill:#55a868;stroke:#55a868;" x="887.368275" xlink:href="#m5cc9284840" y="630"/>
     <use style="fill:#55a868;stroke:#55a868;" x="902.897032" xlink:href="#m5cc9284840" y="630"/>
     <use style="fill:#55a868;stroke:#55a868;" x="918.425788" xlink:href="#m5cc9284840" y="630"/>
     <use style="fill:#55a868;stroke:#55a868;" x="933.954545" xlink:href="#m5cc9284840" y="630"/>
    </g>
   </g>
   <g id="line2d_18">
    <path clip-path="url(#p3245fa88de)" d="M 173.045455 630 
L 188.574212 630 
L 204.102968 630 
L 219.631725 630 
L 235.160482 630 
L 250.689239 630 
L 266.217996 630 
L 281.746753 630 
L 297.27551 630 
L 312.804267 630 
L 328.333024 630 
L 343.861781 630 
L 359.390538 630 
L 374.919295 630 
L 390.448052 630 
L 405.976809 630 
L 421.505566 630 
L 437.034323 630 
L 452.56308 630 
L 468.091837 630 
L 483.620594 630 
L 499.149351 630 
L 514.678108 630 
L 530.206865 630 
L 545.735622 630 
L 561.264378 630 
L 576.793135 630 
L 592.321892 630 
L 607.850649 630 
L 623.379406 630 
L 638.908163 630 
L 654.43692 630 
L 669.965677 630 
L 685.494434 630 
L 701.023191 630 
L 716.551948 630 
L 732.080705 630 
L 747.609462 630 
L 763.138219 630 
L 778.666976 630 
L 794.195733 630 
L 809.72449 630 
L 825.253247 630 
L 840.782004 630 
L 856.310761 630 
L 871.839518 630 
L 887.368275 630 
L 902.897032 630 
L 918.425788 630 
L 933.954545 630 
" style="fill:none;stroke:#c44e52;stroke-linecap:round;stroke-width:3;"/>
    <defs>
     <path d="M 0 4 
C 1.060812 4 2.078319 3.578535 2.828427 2.828427 
C 3.578535 2.078319 4 1.060812 4 0 
C 4 -1.060812 3.578535 -2.078319 2.828427 -2.828427 
C 2.078319 -3.578535 1.060812 -4 0 -4 
C -1.060812 -4 -2.078319 -3.578535 -2.828427 -2.828427 
C -3.578535 -2.078319 -4 -1.060812 -4 0 
C -4 1.060812 -3.578535 2.078319 -2.828427 2.828427 
C -2.078319 3.578535 -1.060812 4 0 4 
z
" id="m4603c6f793" style="stroke:#c44e52;"/>
    </defs>
    <g clip-path="url(#p3245fa88de)">
     <use style="fill:#c44e52;stroke:#c44e52;" x="173.045455" xlink:href="#m4603c6f793" y="630"/>
     <use style="fill:#c44e52;stroke:#c44e52;" x="188.574212" xlink:href="#m4603c6f793" y="630"/>
     <use style="fill:#c44e52;stroke:#c44e52;" x="204.102968" xlink:href="#m4603c6f793" y="630"/>
     <use style="fill:#c44e52;stroke:#c44e52;" x="219.631725" xlink:href="#m4603c6f793" y="630"/>
     <use style="fill:#c44e52;stroke:#c44e52;" x="235.160482" xlink:href="#m4603c6f793" y="630"/>
     <use style="fill:#c44e52;stroke:#c44e52;" x="250.689239" xlink:href="#m4603c6f793" y="630"/>
     <use style="fill:#c44e52;stroke:#c44e52;" x="266.217996" xlink:href="#m4603c6f793" y="630"/>
     <use style="fill:#c44e52;stroke:#c44e52;" x="281.746753" xlink:href="#m4603c6f793" y="630"/>
     <use style="fill:#c44e52;stroke:#c44e52;" x="297.27551" xlink:href="#m4603c6f793" y="630"/>
     <use style="fill:#c44e52;stroke:#c44e52;" x="312.804267" xlink:href="#m4603c6f793" y="630"/>
     <use style="fill:#c44e52;stroke:#c44e52;" x="328.333024" xlink:href="#m4603c6f793" y="630"/>
     <use style="fill:#c44e52;stroke:#c44e52;" x="343.861781" xlink:href="#m4603c6f793" y="630"/>
     <use style="fill:#c44e52;stroke:#c44e52;" x="359.390538" xlink:href="#m4603c6f793" y="630"/>
     <use style="fill:#c44e52;stroke:#c44e52;" x="374.919295" xlink:href="#m4603c6f793" y="630"/>
     <use style="fill:#c44e52;stroke:#c44e52;" x="390.448052" xlink:href="#m4603c6f793" y="630"/>
     <use style="fill:#c44e52;stroke:#c44e52;" x="405.976809" xlink:href="#m4603c6f793" y="630"/>
     <use style="fill:#c44e52;stroke:#c44e52;" x="421.505566" xlink:href="#m4603c6f793" y="630"/>
     <use style="fill:#c44e52;stroke:#c44e52;" x="437.034323" xlink:href="#m4603c6f793" y="630"/>
     <use style="fill:#c44e52;stroke:#c44e52;" x="452.56308" xlink:href="#m4603c6f793" y="630"/>
     <use style="fill:#c44e52;stroke:#c44e52;" x="468.091837" xlink:href="#m4603c6f793" y="630"/>
     <use style="fill:#c44e52;stroke:#c44e52;" x="483.620594" xlink:href="#m4603c6f793" y="630"/>
     <use style="fill:#c44e52;stroke:#c44e52;" x="499.149351" xlink:href="#m4603c6f793" y="630"/>
     <use style="fill:#c44e52;stroke:#c44e52;" x="514.678108" xlink:href="#m4603c6f793" y="630"/>
     <use style="fill:#c44e52;stroke:#c44e52;" x="530.206865" xlink:href="#m4603c6f793" y="630"/>
     <use style="fill:#c44e52;stroke:#c44e52;" x="545.735622" xlink:href="#m4603c6f793" y="630"/>
     <use style="fill:#c44e52;stroke:#c44e52;" x="561.264378" xlink:href="#m4603c6f793" y="630"/>
     <use style="fill:#c44e52;stroke:#c44e52;" x="576.793135" xlink:href="#m4603c6f793" y="630"/>
     <use style="fill:#c44e52;stroke:#c44e52;" x="592.321892" xlink:href="#m4603c6f793" y="630"/>
     <use style="fill:#c44e52;stroke:#c44e52;" x="607.850649" xlink:href="#m4603c6f793" y="630"/>
     <use style="fill:#c44e52;stroke:#c44e52;" x="623.379406" xlink:href="#m4603c6f793" y="630"/>
     <use style="fill:#c44e52;stroke:#c44e52;" x="638.908163" xlink:href="#m4603c6f793" y="630"/>
     <use style="fill:#c44e52;stroke:#c44e52;" x="654.43692" xlink:href="#m4603c6f793" y="630"/>
     <use style="fill:#c44e52;stroke:#c44e52;" x="669.965677" xlink:href="#m4603c6f793" y="630"/>
     <use style="fill:#c44e52;stroke:#c44e52;" x="685.494434" xlink:href="#m4603c6f793" y="630"/>
     <use style="fill:#c44e52;stroke:#c44e52;" x="701.023191" xlink:href="#m4603c6f793" y="630"/>
     <use style="fill:#c44e52;stroke:#c44e52;" x="716.551948" xlink:href="#m4603c6f793" y="630"/>
     <use style="fill:#c44e52;stroke:#c44e52;" x="732.080705" xlink:href="#m4603c6f793" y="630"/>
     <use style="fill:#c44e52;stroke:#c44e52;" x="747.609462" xlink:href="#m4603c6f793" y="630"/>
     <use style="fill:#c44e52;stroke:#c44e52;" x="763.138219" xlink:href="#m4603c6f793" y="630"/>
     <use style="fill:#c44e52;stroke:#c44e52;" x="778.666976" xlink:href="#m4603c6f793" y="630"/>
     <use style="fill:#c44e52;stroke:#c44e52;" x="794.195733" xlink:href="#m4603c6f793" y="630"/>
     <use style="fill:#c44e52;stroke:#c44e52;" x="809.72449" xlink:href="#m4603c6f793" y="630"/>
     <use style="fill:#c44e52;stroke:#c44e52;" x="825.253247" xlink:href="#m4603c6f793" y="630"/>
     <use style="fill:#c44e52;stroke:#c44e52;" x="840.782004" xlink:href="#m4603c6f793" y="630"/>
     <use style="fill:#c44e52;stroke:#c44e52;" x="856.310761" xlink:href="#m4603c6f793" y="630"/>
     <use style="fill:#c44e52;stroke:#c44e52;" x="871.839518" xlink:href="#m4603c6f793" y="630"/>
     <use style="fill:#c44e52;stroke:#c44e52;" x="887.368275" xlink:href="#m4603c6f793" y="630"/>
     <use style="fill:#c44e52;stroke:#c44e52;" x="902.897032" xlink:href="#m4603c6f793" y="630"/>
     <use style="fill:#c44e52;stroke:#c44e52;" x="918.425788" xlink:href="#m4603c6f793" y="630"/>
     <use style="fill:#c44e52;stroke:#c44e52;" x="933.954545" xlink:href="#m4603c6f793" y="630"/>
    </g>
   </g>
   <g id="line2d_19">
    <path clip-path="url(#p3245fa88de)" d="M 173.045455 630 
L 188.574212 630 
L 204.102968 630 
L 219.631725 630 
L 235.160482 630 
L 250.689239 630 
L 266.217996 630 
L 281.746753 630 
L 297.27551 630 
L 312.804267 630 
L 328.333024 630 
L 343.861781 630 
L 359.390538 630 
L 374.919295 630 
L 390.448052 630 
L 405.976809 630 
L 421.505566 630 
L 437.034323 630 
L 452.56308 630 
L 468.091837 630 
L 483.620594 630 
L 499.149351 630 
L 514.678108 630 
L 530.206865 630 
L 545.735622 630 
L 561.264378 630 
L 576.793135 630 
L 592.321892 630 
L 607.850649 630 
L 623.379406 630 
L 638.908163 630 
L 654.43692 630 
L 669.965677 630 
L 685.494434 630 
L 701.023191 630 
L 716.551948 630 
L 732.080705 630 
L 747.609462 630 
L 763.138219 630 
L 778.666976 630 
L 794.195733 630 
L 809.72449 630 
L 825.253247 630 
L 840.782004 630 
L 856.310761 630 
L 871.839518 630 
L 887.368275 630 
L 902.897032 630 
L 918.425788 630 
L 933.954545 630 
" style="fill:none;stroke:#8172b3;stroke-linecap:round;stroke-width:3;"/>
    <defs>
     <path d="M 0 4 
C 1.060812 4 2.078319 3.578535 2.828427 2.828427 
C 3.578535 2.078319 4 1.060812 4 0 
C 4 -1.060812 3.578535 -2.078319 2.828427 -2.828427 
C 2.078319 -3.578535 1.060812 -4 0 -4 
C -1.060812 -4 -2.078319 -3.578535 -2.828427 -2.828427 
C -3.578535 -2.078319 -4 -1.060812 -4 0 
C -4 1.060812 -3.578535 2.078319 -2.828427 2.828427 
C -2.078319 3.578535 -1.060812 4 0 4 
z
" id="m3863e3b5d4" style="stroke:#8172b3;"/>
    </defs>
    <g clip-path="url(#p3245fa88de)">
     <use style="fill:#8172b3;stroke:#8172b3;" x="173.045455" xlink:href="#m3863e3b5d4" y="630"/>
     <use style="fill:#8172b3;stroke:#8172b3;" x="188.574212" xlink:href="#m3863e3b5d4" y="630"/>
     <use style="fill:#8172b3;stroke:#8172b3;" x="204.102968" xlink:href="#m3863e3b5d4" y="630"/>
     <use style="fill:#8172b3;stroke:#8172b3;" x="219.631725" xlink:href="#m3863e3b5d4" y="630"/>
     <use style="fill:#8172b3;stroke:#8172b3;" x="235.160482" xlink:href="#m3863e3b5d4" y="630"/>
     <use style="fill:#8172b3;stroke:#8172b3;" x="250.689239" xlink:href="#m3863e3b5d4" y="630"/>
     <use style="fill:#8172b3;stroke:#8172b3;" x="266.217996" xlink:href="#m3863e3b5d4" y="630"/>
     <use style="fill:#8172b3;stroke:#8172b3;" x="281.746753" xlink:href="#m3863e3b5d4" y="630"/>
     <use style="fill:#8172b3;stroke:#8172b3;" x="297.27551" xlink:href="#m3863e3b5d4" y="630"/>
     <use style="fill:#8172b3;stroke:#8172b3;" x="312.804267" xlink:href="#m3863e3b5d4" y="630"/>
     <use style="fill:#8172b3;stroke:#8172b3;" x="328.333024" xlink:href="#m3863e3b5d4" y="630"/>
     <use style="fill:#8172b3;stroke:#8172b3;" x="343.861781" xlink:href="#m3863e3b5d4" y="630"/>
     <use style="fill:#8172b3;stroke:#8172b3;" x="359.390538" xlink:href="#m3863e3b5d4" y="630"/>
     <use style="fill:#8172b3;stroke:#8172b3;" x="374.919295" xlink:href="#m3863e3b5d4" y="630"/>
     <use style="fill:#8172b3;stroke:#8172b3;" x="390.448052" xlink:href="#m3863e3b5d4" y="630"/>
     <use style="fill:#8172b3;stroke:#8172b3;" x="405.976809" xlink:href="#m3863e3b5d4" y="630"/>
     <use style="fill:#8172b3;stroke:#8172b3;" x="421.505566" xlink:href="#m3863e3b5d4" y="630"/>
     <use style="fill:#8172b3;stroke:#8172b3;" x="437.034323" xlink:href="#m3863e3b5d4" y="630"/>
     <use style="fill:#8172b3;stroke:#8172b3;" x="452.56308" xlink:href="#m3863e3b5d4" y="630"/>
     <use style="fill:#8172b3;stroke:#8172b3;" x="468.091837" xlink:href="#m3863e3b5d4" y="630"/>
     <use style="fill:#8172b3;stroke:#8172b3;" x="483.620594" xlink:href="#m3863e3b5d4" y="630"/>
     <use style="fill:#8172b3;stroke:#8172b3;" x="499.149351" xlink:href="#m3863e3b5d4" y="630"/>
     <use style="fill:#8172b3;stroke:#8172b3;" x="514.678108" xlink:href="#m3863e3b5d4" y="630"/>
     <use style="fill:#8172b3;stroke:#8172b3;" x="530.206865" xlink:href="#m3863e3b5d4" y="630"/>
     <use style="fill:#8172b3;stroke:#8172b3;" x="545.735622" xlink:href="#m3863e3b5d4" y="630"/>
     <use style="fill:#8172b3;stroke:#8172b3;" x="561.264378" xlink:href="#m3863e3b5d4" y="630"/>
     <use style="fill:#8172b3;stroke:#8172b3;" x="576.793135" xlink:href="#m3863e3b5d4" y="630"/>
     <use style="fill:#8172b3;stroke:#8172b3;" x="592.321892" xlink:href="#m3863e3b5d4" y="630"/>
     <use style="fill:#8172b3;stroke:#8172b3;" x="607.850649" xlink:href="#m3863e3b5d4" y="630"/>
     <use style="fill:#8172b3;stroke:#8172b3;" x="623.379406" xlink:href="#m3863e3b5d4" y="630"/>
     <use style="fill:#8172b3;stroke:#8172b3;" x="638.908163" xlink:href="#m3863e3b5d4" y="630"/>
     <use style="fill:#8172b3;stroke:#8172b3;" x="654.43692" xlink:href="#m3863e3b5d4" y="630"/>
     <use style="fill:#8172b3;stroke:#8172b3;" x="669.965677" xlink:href="#m3863e3b5d4" y="630"/>
     <use style="fill:#8172b3;stroke:#8172b3;" x="685.494434" xlink:href="#m3863e3b5d4" y="630"/>
     <use style="fill:#8172b3;stroke:#8172b3;" x="701.023191" xlink:href="#m3863e3b5d4" y="630"/>
     <use style="fill:#8172b3;stroke:#8172b3;" x="716.551948" xlink:href="#m3863e3b5d4" y="630"/>
     <use style="fill:#8172b3;stroke:#8172b3;" x="732.080705" xlink:href="#m3863e3b5d4" y="630"/>
     <use style="fill:#8172b3;stroke:#8172b3;" x="747.609462" xlink:href="#m3863e3b5d4" y="630"/>
     <use style="fill:#8172b3;stroke:#8172b3;" x="763.138219" xlink:href="#m3863e3b5d4" y="630"/>
     <use style="fill:#8172b3;stroke:#8172b3;" x="778.666976" xlink:href="#m3863e3b5d4" y="630"/>
     <use style="fill:#8172b3;stroke:#8172b3;" x="794.195733" xlink:href="#m3863e3b5d4" y="630"/>
     <use style="fill:#8172b3;stroke:#8172b3;" x="809.72449" xlink:href="#m3863e3b5d4" y="630"/>
     <use style="fill:#8172b3;stroke:#8172b3;" x="825.253247" xlink:href="#m3863e3b5d4" y="630"/>
     <use style="fill:#8172b3;stroke:#8172b3;" x="840.782004" xlink:href="#m3863e3b5d4" y="630"/>
     <use style="fill:#8172b3;stroke:#8172b3;" x="856.310761" xlink:href="#m3863e3b5d4" y="630"/>
     <use style="fill:#8172b3;stroke:#8172b3;" x="871.839518" xlink:href="#m3863e3b5d4" y="630"/>
     <use style="fill:#8172b3;stroke:#8172b3;" x="887.368275" xlink:href="#m3863e3b5d4" y="630"/>
     <use style="fill:#8172b3;stroke:#8172b3;" x="902.897032" xlink:href="#m3863e3b5d4" y="630"/>
     <use style="fill:#8172b3;stroke:#8172b3;" x="918.425788" xlink:href="#m3863e3b5d4" y="630"/>
     <use style="fill:#8172b3;stroke:#8172b3;" x="933.954545" xlink:href="#m3863e3b5d4" y="630"/>
    </g>
   </g>
   <g id="line2d_20">
    <path clip-path="url(#p3245fa88de)" d="M 281.746753 630 
L 281.746753 86.4 
" style="fill:none;stroke:#1a1a1a;stroke-dasharray:11.1,4.8;stroke-dashoffset:0;stroke-opacity:0.8;stroke-width:3;"/>
   </g>
   <g id="patch_3">
    <path d="M 135 630 
L 135 86.4 
" style="fill:none;stroke:#ffffff;stroke-linecap:square;stroke-linejoin:miter;stroke-width:1.25;"/>
   </g>
   <g id="patch_4">
    <path d="M 972 630 
L 972 86.4 
" style="fill:none;stroke:#ffffff;stroke-linecap:square;stroke-linejoin:miter;stroke-width:1.25;"/>
   </g>
   <g id="patch_5">
    <path d="M 135 630 
L 972 630 
" style="fill:none;stroke:#ffffff;stroke-linecap:square;stroke-linejoin:miter;stroke-width:1.25;"/>
   </g>
   <g id="patch_6">
    <path d="M 135 86.4 
L 972 86.4 
" style="fill:none;stroke:#ffffff;stroke-linecap:square;stroke-linejoin:miter;stroke-width:1.25;"/>
   </g>
   <g id="legend_1">
    <g id="patch_7">
     <path d="M 735.5 292.502187 
L 956.6 292.502187 
Q 961 292.502187 961 288.102188 
L 961 101.8 
Q 961 97.4 956.6 97.4 
L 735.5 97.4 
Q 731.1 97.4 731.1 101.8 
L 731.1 288.102188 
Q 731.1 292.502187 735.5 292.502187 
z
" style="fill:#eaeaf2;stroke:#cccccc;stroke-linejoin:miter;"/>
    </g>
    <g id="line2d_21">
     <path d="M 739.9 114.247187 
L 783.9 114.247187 
" style="fill:none;stroke:#4c72b0;stroke-linecap:round;stroke-width:3;"/>
    </g>
    <g id="line2d_22">
     <g>
      <use style="fill:#4c72b0;stroke:#4c72b0;" x="761.9" xlink:href="#m0034f6e077" y="114.247187"/>
     </g>
    </g>
    <g id="text_17">
     <!-- LogMap -->
     <defs>
      <path d="M 7.328125 0 
L 7.328125 71.578125 
L 16.796875 71.578125 
L 16.796875 8.453125 
L 52.046875 8.453125 
L 52.046875 0 
z
" id="ArialMT-76"/>
      <path d="M 4.984375 -4.296875 
L 13.53125 -5.5625 
Q 14.0625 -9.515625 16.5 -11.328125 
Q 19.78125 -13.765625 25.4375 -13.765625 
Q 31.546875 -13.765625 34.859375 -11.328125 
Q 38.1875 -8.890625 39.359375 -4.5 
Q 40.046875 -1.8125 39.984375 6.78125 
Q 34.234375 0 25.640625 0 
Q 14.9375 0 9.078125 7.71875 
Q 3.21875 15.4375 3.21875 26.21875 
Q 3.21875 33.640625 5.90625 39.90625 
Q 8.59375 46.1875 13.6875 49.609375 
Q 18.796875 53.03125 25.6875 53.03125 
Q 34.859375 53.03125 40.828125 45.609375 
L 40.828125 51.859375 
L 48.921875 51.859375 
L 48.921875 7.03125 
Q 48.921875 -5.078125 46.453125 -10.125 
Q 44 -15.1875 38.640625 -18.109375 
Q 33.296875 -21.046875 25.484375 -21.046875 
Q 16.21875 -21.046875 10.5 -16.875 
Q 4.78125 -12.703125 4.984375 -4.296875 
z
M 12.25 26.859375 
Q 12.25 16.65625 16.296875 11.96875 
Q 20.359375 7.28125 26.46875 7.28125 
Q 32.515625 7.28125 36.609375 11.9375 
Q 40.71875 16.609375 40.71875 26.5625 
Q 40.71875 36.078125 36.5 40.90625 
Q 32.28125 45.75 26.3125 45.75 
Q 20.453125 45.75 16.34375 40.984375 
Q 12.25 36.234375 12.25 26.859375 
z
" id="ArialMT-103"/>
      <path d="M 6.59375 -19.875 
L 6.59375 51.859375 
L 14.59375 51.859375 
L 14.59375 45.125 
Q 17.4375 49.078125 21 51.046875 
Q 24.5625 53.03125 29.640625 53.03125 
Q 36.28125 53.03125 41.359375 49.609375 
Q 46.4375 46.1875 49.015625 39.953125 
Q 51.609375 33.734375 51.609375 26.3125 
Q 51.609375 18.359375 48.75 11.984375 
Q 45.90625 5.609375 40.453125 2.21875 
Q 35.015625 -1.171875 29 -1.171875 
Q 24.609375 -1.171875 21.109375 0.6875 
Q 17.625 2.546875 15.375 5.375 
L 15.375 -19.875 
z
M 14.546875 25.640625 
Q 14.546875 15.625 18.59375 10.84375 
Q 22.65625 6.0625 28.421875 6.0625 
Q 34.28125 6.0625 38.453125 11.015625 
Q 42.625 15.96875 42.625 26.375 
Q 42.625 36.28125 38.546875 41.203125 
Q 34.46875 46.140625 28.8125 46.140625 
Q 23.1875 46.140625 18.859375 40.890625 
Q 14.546875 35.640625 14.546875 25.640625 
z
" id="ArialMT-112"/>
     </defs>
     <g style="fill:#262626;" transform="translate(801.5 121.947187)scale(0.22 -0.22)">
      <use xlink:href="#ArialMT-76"/>
      <use x="55.615234" xlink:href="#ArialMT-111"/>
      <use x="111.230469" xlink:href="#ArialMT-103"/>
      <use x="166.845703" xlink:href="#ArialMT-77"/>
      <use x="250.146484" xlink:href="#ArialMT-97"/>
      <use x="305.761719" xlink:href="#ArialMT-112"/>
     </g>
    </g>
    <g id="line2d_23">
     <path d="M 739.9 145.892812 
L 783.9 145.892812 
" style="fill:none;stroke:#dd8452;stroke-linecap:round;stroke-width:3;"/>
    </g>
    <g id="line2d_24">
     <g>
      <use style="fill:#dd8452;stroke:#dd8452;" x="761.9" xlink:href="#m5cf357b479" y="145.892812"/>
     </g>
    </g>
    <g id="text_18">
     <!-- CubicMap -->
     <defs>
      <path d="M 58.796875 25.09375 
L 68.265625 22.703125 
Q 65.28125 11.03125 57.546875 4.90625 
Q 49.8125 -1.21875 38.625 -1.21875 
Q 27.046875 -1.21875 19.796875 3.484375 
Q 12.546875 8.203125 8.765625 17.140625 
Q 4.984375 26.078125 4.984375 36.328125 
Q 4.984375 47.515625 9.25 55.828125 
Q 13.53125 64.15625 21.40625 68.46875 
Q 29.296875 72.796875 38.765625 72.796875 
Q 49.515625 72.796875 56.828125 67.328125 
Q 64.15625 61.859375 67.046875 51.953125 
L 57.71875 49.75 
Q 55.21875 57.5625 50.484375 61.125 
Q 45.75 64.703125 38.578125 64.703125 
Q 30.328125 64.703125 24.78125 60.734375 
Q 19.234375 56.78125 16.984375 50.109375 
Q 14.75 43.453125 14.75 36.375 
Q 14.75 27.25 17.40625 20.4375 
Q 20.0625 13.625 25.671875 10.25 
Q 31.296875 6.890625 37.84375 6.890625 
Q 45.796875 6.890625 51.3125 11.46875 
Q 56.84375 16.0625 58.796875 25.09375 
z
" id="ArialMT-67"/>
      <path d="M 40.578125 0 
L 40.578125 7.625 
Q 34.515625 -1.171875 24.125 -1.171875 
Q 19.53125 -1.171875 15.546875 0.578125 
Q 11.578125 2.34375 9.640625 5 
Q 7.71875 7.671875 6.9375 11.53125 
Q 6.390625 14.109375 6.390625 19.734375 
L 6.390625 51.859375 
L 15.1875 51.859375 
L 15.1875 23.09375 
Q 15.1875 16.21875 15.71875 13.8125 
Q 16.546875 10.359375 19.234375 8.375 
Q 21.921875 6.390625 25.875 6.390625 
Q 29.828125 6.390625 33.296875 8.421875 
Q 36.765625 10.453125 38.203125 13.9375 
Q 39.65625 17.4375 39.65625 24.078125 
L 39.65625 51.859375 
L 48.4375 51.859375 
L 48.4375 0 
z
" id="ArialMT-117"/>
      <path d="M 14.703125 0 
L 6.546875 0 
L 6.546875 71.578125 
L 15.328125 71.578125 
L 15.328125 46.046875 
Q 20.90625 53.03125 29.546875 53.03125 
Q 34.328125 53.03125 38.59375 51.09375 
Q 42.875 49.171875 45.625 45.671875 
Q 48.390625 42.1875 49.953125 37.25 
Q 51.515625 32.328125 51.515625 26.703125 
Q 51.515625 13.375 44.921875 6.09375 
Q 38.328125 -1.171875 29.109375 -1.171875 
Q 19.921875 -1.171875 14.703125 6.5 
z
M 14.59375 26.3125 
Q 14.59375 17 17.140625 12.84375 
Q 21.296875 6.0625 28.375 6.0625 
Q 34.125 6.0625 38.328125 11.0625 
Q 42.53125 16.0625 42.53125 25.984375 
Q 42.53125 36.140625 38.5 40.96875 
Q 34.46875 45.796875 28.765625 45.796875 
Q 23 45.796875 18.796875 40.796875 
Q 14.59375 35.796875 14.59375 26.3125 
z
" id="ArialMT-98"/>
      <path d="M 6.640625 61.46875 
L 6.640625 71.578125 
L 15.4375 71.578125 
L 15.4375 61.46875 
z
M 6.640625 0 
L 6.640625 51.859375 
L 15.4375 51.859375 
L 15.4375 0 
z
" id="ArialMT-105"/>
     </defs>
     <g style="fill:#262626;" transform="translate(801.5 153.592812)scale(0.22 -0.22)">
      <use xlink:href="#ArialMT-67"/>
      <use x="72.216797" xlink:href="#ArialMT-117"/>
      <use x="127.832031" xlink:href="#ArialMT-98"/>
      <use x="183.447266" xlink:href="#ArialMT-105"/>
      <use x="205.664062" xlink:href="#ArialMT-99"/>
      <use x="255.664062" xlink:href="#ArialMT-77"/>
      <use x="338.964844" xlink:href="#ArialMT-97"/>
      <use x="394.580078" xlink:href="#ArialMT-112"/>
     </g>
    </g>
    <g id="line2d_25">
     <path d="M 739.9 177.0125 
L 783.9 177.0125 
" style="fill:none;stroke:#55a868;stroke-linecap:round;stroke-width:3;"/>
    </g>
    <g id="line2d_26">
     <g>
      <use style="fill:#55a868;stroke:#55a868;" x="761.9" xlink:href="#m5cc9284840" y="177.0125"/>
     </g>
    </g>
    <g id="text_19">
     <!-- TinkerBellMap -->
     <defs>
      <path d="M 25.921875 0 
L 25.921875 63.140625 
L 2.34375 63.140625 
L 2.34375 71.578125 
L 59.078125 71.578125 
L 59.078125 63.140625 
L 35.40625 63.140625 
L 35.40625 0 
z
" id="ArialMT-84"/>
      <path d="M 6.640625 0 
L 6.640625 71.578125 
L 15.4375 71.578125 
L 15.4375 30.765625 
L 36.234375 51.859375 
L 47.609375 51.859375 
L 27.78125 32.625 
L 49.609375 0 
L 38.765625 0 
L 21.625 26.515625 
L 15.4375 20.5625 
L 15.4375 0 
z
" id="ArialMT-107"/>
      <path d="M 7.328125 0 
L 7.328125 71.578125 
L 34.1875 71.578125 
Q 42.390625 71.578125 47.34375 69.40625 
Q 52.296875 67.234375 55.09375 62.71875 
Q 57.90625 58.203125 57.90625 53.265625 
Q 57.90625 48.6875 55.421875 44.625 
Q 52.9375 40.578125 47.90625 38.09375 
Q 54.390625 36.1875 57.875 31.59375 
Q 61.375 27 61.375 20.75 
Q 61.375 15.71875 59.25 11.390625 
Q 57.125 7.078125 54 4.734375 
Q 50.875 2.390625 46.15625 1.1875 
Q 41.453125 0 34.625 0 
z
M 16.796875 41.5 
L 32.28125 41.5 
Q 38.578125 41.5 41.3125 42.328125 
Q 44.921875 43.40625 46.75 45.890625 
Q 48.578125 48.390625 48.578125 52.15625 
Q 48.578125 55.71875 46.875 58.421875 
Q 45.171875 61.140625 41.984375 62.140625 
Q 38.8125 63.140625 31.109375 63.140625 
L 16.796875 63.140625 
z
M 16.796875 8.453125 
L 34.625 8.453125 
Q 39.203125 8.453125 41.0625 8.796875 
Q 44.34375 9.375 46.53125 10.734375 
Q 48.734375 12.109375 50.140625 14.71875 
Q 51.5625 17.328125 51.5625 20.75 
Q 51.5625 24.75 49.515625 27.703125 
Q 47.46875 30.671875 43.828125 31.859375 
Q 40.1875 33.0625 33.34375 33.0625 
L 16.796875 33.0625 
z
" id="ArialMT-66"/>
      <path d="M 6.390625 0 
L 6.390625 71.578125 
L 15.1875 71.578125 
L 15.1875 0 
z
" id="ArialMT-108"/>
     </defs>
     <g style="fill:#262626;" transform="translate(801.5 184.7125)scale(0.22 -0.22)">
      <use xlink:href="#ArialMT-84"/>
      <use x="57.333984" xlink:href="#ArialMT-105"/>
      <use x="79.550781" xlink:href="#ArialMT-110"/>
      <use x="135.166016" xlink:href="#ArialMT-107"/>
      <use x="185.166016" xlink:href="#ArialMT-101"/>
      <use x="240.78125" xlink:href="#ArialMT-114"/>
      <use x="274.082031" xlink:href="#ArialMT-66"/>
      <use x="340.78125" xlink:href="#ArialMT-101"/>
      <use x="396.396484" xlink:href="#ArialMT-108"/>
      <use x="418.613281" xlink:href="#ArialMT-108"/>
      <use x="440.830078" xlink:href="#ArialMT-77"/>
      <use x="524.130859" xlink:href="#ArialMT-97"/>
      <use x="579.746094" xlink:href="#ArialMT-112"/>
     </g>
    </g>
    <g id="line2d_27">
     <path d="M 739.9 208.132187 
L 783.9 208.132187 
" style="fill:none;stroke:#c44e52;stroke-linecap:round;stroke-width:3;"/>
    </g>
    <g id="line2d_28">
     <g>
      <use style="fill:#c44e52;stroke:#c44e52;" x="761.9" xlink:href="#m4603c6f793" y="208.132187"/>
     </g>
    </g>
    <g id="text_20">
     <!-- HenonMap -->
     <defs>
      <path d="M 8.015625 0 
L 8.015625 71.578125 
L 17.484375 71.578125 
L 17.484375 42.1875 
L 54.6875 42.1875 
L 54.6875 71.578125 
L 64.15625 71.578125 
L 64.15625 0 
L 54.6875 0 
L 54.6875 33.734375 
L 17.484375 33.734375 
L 17.484375 0 
z
" id="ArialMT-72"/>
     </defs>
     <g style="fill:#262626;" transform="translate(801.5 215.832187)scale(0.22 -0.22)">
      <use xlink:href="#ArialMT-72"/>
      <use x="72.216797" xlink:href="#ArialMT-101"/>
      <use x="127.832031" xlink:href="#ArialMT-110"/>
      <use x="183.447266" xlink:href="#ArialMT-111"/>
      <use x="239.0625" xlink:href="#ArialMT-110"/>
      <use x="294.677734" xlink:href="#ArialMT-77"/>
      <use x="377.978516" xlink:href="#ArialMT-97"/>
      <use x="433.59375" xlink:href="#ArialMT-112"/>
     </g>
    </g>
    <g id="line2d_29">
     <path d="M 739.9 239.251875 
L 783.9 239.251875 
" style="fill:none;stroke:#8172b3;stroke-linecap:round;stroke-width:3;"/>
    </g>
    <g id="line2d_30">
     <g>
      <use style="fill:#8172b3;stroke:#8172b3;" x="761.9" xlink:href="#m3863e3b5d4" y="239.251875"/>
     </g>
    </g>
    <g id="text_21">
     <!-- BurgersMap -->
     <defs>
      <path d="M 3.078125 15.484375 
L 11.765625 16.84375 
Q 12.5 11.625 15.84375 8.84375 
Q 19.1875 6.0625 25.203125 6.0625 
Q 31.25 6.0625 34.171875 8.515625 
Q 37.109375 10.984375 37.109375 14.3125 
Q 37.109375 17.28125 34.515625 19 
Q 32.71875 20.171875 25.53125 21.96875 
Q 15.875 24.421875 12.140625 26.203125 
Q 8.40625 27.984375 6.46875 31.125 
Q 4.546875 34.28125 4.546875 38.09375 
Q 4.546875 41.546875 6.125 44.5 
Q 7.71875 47.46875 10.453125 49.421875 
Q 12.5 50.921875 16.03125 51.96875 
Q 19.578125 53.03125 23.640625 53.03125 
Q 29.734375 53.03125 34.34375 51.265625 
Q 38.96875 49.515625 41.15625 46.5 
Q 43.359375 43.5 44.1875 38.484375 
L 35.59375 37.3125 
Q 35.015625 41.3125 32.203125 43.546875 
Q 29.390625 45.796875 24.265625 45.796875 
Q 18.21875 45.796875 15.625 43.796875 
Q 13.03125 41.796875 13.03125 39.109375 
Q 13.03125 37.40625 14.109375 36.03125 
Q 15.1875 34.625 17.484375 33.6875 
Q 18.796875 33.203125 25.25 31.453125 
Q 34.578125 28.953125 38.25 27.359375 
Q 41.9375 25.78125 44.03125 22.75 
Q 46.140625 19.734375 46.140625 15.234375 
Q 46.140625 10.84375 43.578125 6.953125 
Q 41.015625 3.078125 36.171875 0.953125 
Q 31.34375 -1.171875 25.25 -1.171875 
Q 15.140625 -1.171875 9.84375 3.03125 
Q 4.546875 7.234375 3.078125 15.484375 
z
" id="ArialMT-115"/>
     </defs>
     <g style="fill:#262626;" transform="translate(801.5 246.951875)scale(0.22 -0.22)">
      <use xlink:href="#ArialMT-66"/>
      <use x="66.699219" xlink:href="#ArialMT-117"/>
      <use x="122.314453" xlink:href="#ArialMT-114"/>
      <use x="155.615234" xlink:href="#ArialMT-103"/>
      <use x="211.230469" xlink:href="#ArialMT-101"/>
      <use x="266.845703" xlink:href="#ArialMT-114"/>
      <use x="300.146484" xlink:href="#ArialMT-115"/>
      <use x="350.146484" xlink:href="#ArialMT-77"/>
      <use x="433.447266" xlink:href="#ArialMT-97"/>
      <use x="489.0625" xlink:href="#ArialMT-112"/>
     </g>
    </g>
    <g id="line2d_31">
     <path d="M 739.9 271.602187 
L 783.9 271.602187 
" style="fill:none;stroke:#1a1a1a;stroke-dasharray:11.1,4.8;stroke-dashoffset:0;stroke-opacity:0.8;stroke-width:3;"/>
    </g>
    <g id="line2d_32"/>
    <g id="text_22">
     <!-- Optimal $\lambda$ = 0.1 -->
     <defs>
      <path d="M 4.828125 34.859375 
Q 4.828125 52.6875 14.390625 62.765625 
Q 23.96875 72.859375 39.109375 72.859375 
Q 49.03125 72.859375 56.984375 68.109375 
Q 64.9375 63.375 69.109375 54.90625 
Q 73.296875 46.4375 73.296875 35.6875 
Q 73.296875 24.8125 68.890625 16.21875 
Q 64.5 7.625 56.4375 3.203125 
Q 48.390625 -1.21875 39.0625 -1.21875 
Q 28.953125 -1.21875 20.984375 3.65625 
Q 13.03125 8.546875 8.921875 16.984375 
Q 4.828125 25.4375 4.828125 34.859375 
z
M 14.59375 34.71875 
Q 14.59375 21.78125 21.546875 14.328125 
Q 28.515625 6.890625 39.015625 6.890625 
Q 49.703125 6.890625 56.609375 14.40625 
Q 63.53125 21.921875 63.53125 35.75 
Q 63.53125 44.484375 60.578125 51 
Q 57.625 57.515625 51.921875 61.109375 
Q 46.234375 64.703125 39.15625 64.703125 
Q 29.109375 64.703125 21.84375 57.78125 
Q 14.59375 50.875 14.59375 34.71875 
z
" id="ArialMT-79"/>
      <path d="M 6.59375 0 
L 6.59375 51.859375 
L 14.453125 51.859375 
L 14.453125 44.578125 
Q 16.890625 48.390625 20.9375 50.703125 
Q 25 53.03125 30.171875 53.03125 
Q 35.9375 53.03125 39.625 50.640625 
Q 43.3125 48.25 44.828125 43.953125 
Q 50.984375 53.03125 60.84375 53.03125 
Q 68.5625 53.03125 72.703125 48.75 
Q 76.859375 44.484375 76.859375 35.59375 
L 76.859375 0 
L 68.109375 0 
L 68.109375 32.671875 
Q 68.109375 37.9375 67.25 40.25 
Q 66.40625 42.578125 64.15625 43.984375 
Q 61.921875 45.40625 58.890625 45.40625 
Q 53.421875 45.40625 49.796875 41.765625 
Q 46.1875 38.140625 46.1875 30.125 
L 46.1875 0 
L 37.40625 0 
L 37.40625 33.6875 
Q 37.40625 39.546875 35.25 42.46875 
Q 33.109375 45.40625 28.21875 45.40625 
Q 24.515625 45.40625 21.359375 43.453125 
Q 18.21875 41.5 16.796875 37.734375 
Q 15.375 33.984375 15.375 26.90625 
L 15.375 0 
z
" id="ArialMT-109"/>
      <path d="M 52.828125 42.09375 
L 5.5625 42.09375 
L 5.5625 50.296875 
L 52.828125 50.296875 
z
M 52.828125 20.359375 
L 5.5625 20.359375 
L 5.5625 28.5625 
L 52.828125 28.5625 
z
" id="ArialMT-61"/>
     </defs>
     <g style="fill:#262626;" transform="translate(801.5 279.302187)scale(0.22 -0.22)">
      <use transform="translate(0 0.015625)" xlink:href="#ArialMT-79"/>
      <use transform="translate(77.783203 0.015625)" xlink:href="#ArialMT-112"/>
      <use transform="translate(133.398438 0.015625)" xlink:href="#ArialMT-116"/>
      <use transform="translate(161.181641 0.015625)" xlink:href="#ArialMT-105"/>
      <use transform="translate(183.398438 0.015625)" xlink:href="#ArialMT-109"/>
      <use transform="translate(266.699219 0.015625)" xlink:href="#ArialMT-97"/>
      <use transform="translate(322.314453 0.015625)" xlink:href="#ArialMT-108"/>
      <use transform="translate(344.53125 0.015625)" xlink:href="#ArialMT-32"/>
      <use transform="translate(372.314453 0.015625)" xlink:href="#DejaVuSans-Oblique-955"/>
      <use transform="translate(431.494141 0.015625)" xlink:href="#ArialMT-32"/>
      <use transform="translate(459.277344 0.015625)" xlink:href="#ArialMT-61"/>
      <use transform="translate(517.675781 0.015625)" xlink:href="#ArialMT-32"/>
      <use transform="translate(545.458984 0.015625)" xlink:href="#ArialMT-48"/>
      <use transform="translate(601.074219 0.015625)" xlink:href="#ArialMT-46"/>
      <use transform="translate(628.857422 0.015625)" xlink:href="#ArialMT-49"/>
     </g>
    </g>
   </g>
  </g>
 </g>
 <defs>
  <clipPath id="p3245fa88de">
   <rect height="543.6" width="837" x="135" y="86.4"/>
  </clipPath>
 </defs>
</svg>
