<?xml version="1.0" encoding="utf-8" standalone="no"?>
<!DOCTYPE svg PUBLIC "-//W3C//DTD SVG 1.1//EN"
  "http://www.w3.org/Graphics/SVG/1.1/DTD/svg11.dtd">
<!-- Created with matplotlib (https://matplotlib.org/) -->
<svg height="216pt" version="1.1" viewBox="0 0 720 216" width="720pt" xmlns="http://www.w3.org/2000/svg" xmlns:xlink="http://www.w3.org/1999/xlink">
 <defs>
  <style type="text/css">
*{stroke-linecap:butt;stroke-linejoin:round;}
  </style>
 </defs>
 <g id="figure_1">
  <g id="patch_1">
   <path d="M 0 216 
L 720 216 
L 720 0 
L 0 0 
z
" style="fill:none;"/>
  </g>
  <g id="axes_1">
   <g id="patch_2">
    <path d="M 90 189 
L 648 189 
L 648 25.92 
L 90 25.92 
z
" style="fill:none;"/>
   </g>
   <g id="matplotlib.axis_1">
    <g id="xtick_1">
     <g id="line2d_1">
      <defs>
       <path d="M 0 0 
L 0 3.5 
" id="m2732982da4" style="stroke:#000000;stroke-width:0.8;"/>
      </defs>
      <g>
       <use style="stroke:#000000;stroke-width:0.8;" x="115.363636" xlink:href="#m2732982da4" y="189"/>
      </g>
     </g>
     <g id="text_1">
      <!-- 0 -->
      <defs>
       <path d="M 31.78125 66.40625 
Q 24.171875 66.40625 20.328125 58.90625 
Q 16.5 51.421875 16.5 36.375 
Q 16.5 21.390625 20.328125 13.890625 
Q 24.171875 6.390625 31.78125 6.390625 
Q 39.453125 6.390625 43.28125 13.890625 
Q 47.125 21.390625 47.125 36.375 
Q 47.125 51.421875 43.28125 58.90625 
Q 39.453125 66.40625 31.78125 66.40625 
z
M 31.78125 74.21875 
Q 44.046875 74.21875 50.515625 64.515625 
Q 56.984375 54.828125 56.984375 36.375 
Q 56.984375 17.96875 50.515625 8.265625 
Q 44.046875 -1.421875 31.78125 -1.421875 
Q 19.53125 -1.421875 13.0625 8.265625 
Q 6.59375 17.96875 6.59375 36.375 
Q 6.59375 54.828125 13.0625 64.515625 
Q 19.53125 74.21875 31.78125 74.21875 
z
" id="DejaVuSans-48"/>
      </defs>
      <g transform="translate(112.182386 203.598437)scale(0.1 -0.1)">
       <use xlink:href="#DejaVuSans-48"/>
      </g>
     </g>
    </g>
    <g id="xtick_2">
     <g id="line2d_2">
      <g>
       <use style="stroke:#000000;stroke-width:0.8;" x="190.182623" xlink:href="#m2732982da4" y="189"/>
      </g>
     </g>
     <g id="text_2">
      <!-- 100 -->
      <defs>
       <path d="M 12.40625 8.296875 
L 28.515625 8.296875 
L 28.515625 63.921875 
L 10.984375 60.40625 
L 10.984375 69.390625 
L 28.421875 72.90625 
L 38.28125 72.90625 
L 38.28125 8.296875 
L 54.390625 8.296875 
L 54.390625 0 
L 12.40625 0 
z
" id="DejaVuSans-49"/>
      </defs>
      <g transform="translate(180.638873 203.598437)scale(0.1 -0.1)">
       <use xlink:href="#DejaVuSans-49"/>
       <use x="63.623047" xlink:href="#DejaVuSans-48"/>
       <use x="127.246094" xlink:href="#DejaVuSans-48"/>
      </g>
     </g>
    </g>
    <g id="xtick_3">
     <g id="line2d_3">
      <g>
       <use style="stroke:#000000;stroke-width:0.8;" x="265.001609" xlink:href="#m2732982da4" y="189"/>
      </g>
     </g>
     <g id="text_3">
      <!-- 200 -->
      <defs>
       <path d="M 19.1875 8.296875 
L 53.609375 8.296875 
L 53.609375 0 
L 7.328125 0 
L 7.328125 8.296875 
Q 12.9375 14.109375 22.625 23.890625 
Q 32.328125 33.6875 34.8125 36.53125 
Q 39.546875 41.84375 41.421875 45.53125 
Q 43.3125 49.21875 43.3125 52.78125 
Q 43.3125 58.59375 39.234375 62.25 
Q 35.15625 65.921875 28.609375 65.921875 
Q 23.96875 65.921875 18.8125 64.3125 
Q 13.671875 62.703125 7.8125 59.421875 
L 7.8125 69.390625 
Q 13.765625 71.78125 18.9375 73 
Q 24.125 74.21875 28.421875 74.21875 
Q 39.75 74.21875 46.484375 68.546875 
Q 53.21875 62.890625 53.21875 53.421875 
Q 53.21875 48.921875 51.53125 44.890625 
Q 49.859375 40.875 45.40625 35.40625 
Q 44.1875 33.984375 37.640625 27.21875 
Q 31.109375 20.453125 19.1875 8.296875 
z
" id="DejaVuSans-50"/>
      </defs>
      <g transform="translate(255.457859 203.598437)scale(0.1 -0.1)">
       <use xlink:href="#DejaVuSans-50"/>
       <use x="63.623047" xlink:href="#DejaVuSans-48"/>
       <use x="127.246094" xlink:href="#DejaVuSans-48"/>
      </g>
     </g>
    </g>
    <g id="xtick_4">
     <g id="line2d_4">
      <g>
       <use style="stroke:#000000;stroke-width:0.8;" x="339.820595" xlink:href="#m2732982da4" y="189"/>
      </g>
     </g>
     <g id="text_4">
      <!-- 300 -->
      <defs>
       <path d="M 40.578125 39.3125 
Q 47.65625 37.796875 51.625 33 
Q 55.609375 28.21875 55.609375 21.1875 
Q 55.609375 10.40625 48.1875 4.484375 
Q 40.765625 -1.421875 27.09375 -1.421875 
Q 22.515625 -1.421875 17.65625 -0.515625 
Q 12.796875 0.390625 7.625 2.203125 
L 7.625 11.71875 
Q 11.71875 9.328125 16.59375 8.109375 
Q 21.484375 6.890625 26.8125 6.890625 
Q 36.078125 6.890625 40.9375 10.546875 
Q 45.796875 14.203125 45.796875 21.1875 
Q 45.796875 27.640625 41.28125 31.265625 
Q 36.765625 34.90625 28.71875 34.90625 
L 20.21875 34.90625 
L 20.21875 43.015625 
L 29.109375 43.015625 
Q 36.375 43.015625 40.234375 45.921875 
Q 44.09375 48.828125 44.09375 54.296875 
Q 44.09375 59.90625 40.109375 62.90625 
Q 36.140625 65.921875 28.71875 65.921875 
Q 24.65625 65.921875 20.015625 65.03125 
Q 15.375 64.15625 9.8125 62.3125 
L 9.8125 71.09375 
Q 15.4375 72.65625 20.34375 73.4375 
Q 25.25 74.21875 29.59375 74.21875 
Q 40.828125 74.21875 47.359375 69.109375 
Q 53.90625 64.015625 53.90625 55.328125 
Q 53.90625 49.265625 50.4375 45.09375 
Q 46.96875 40.921875 40.578125 39.3125 
z
" id="DejaVuSans-51"/>
      </defs>
      <g transform="translate(330.276845 203.598437)scale(0.1 -0.1)">
       <use xlink:href="#DejaVuSans-51"/>
       <use x="63.623047" xlink:href="#DejaVuSans-48"/>
       <use x="127.246094" xlink:href="#DejaVuSans-48"/>
      </g>
     </g>
    </g>
    <g id="xtick_5">
     <g id="line2d_5">
      <g>
       <use style="stroke:#000000;stroke-width:0.8;" x="414.639582" xlink:href="#m2732982da4" y="189"/>
      </g>
     </g>
     <g id="text_5">
      <!-- 400 -->
      <defs>
       <path d="M 37.796875 64.3125 
L 12.890625 25.390625 
L 37.796875 25.390625 
z
M 35.203125 72.90625 
L 47.609375 72.90625 
L 47.609375 25.390625 
L 58.015625 25.390625 
L 58.015625 17.1875 
L 47.609375 17.1875 
L 47.609375 0 
L 37.796875 0 
L 37.796875 17.1875 
L 4.890625 17.1875 
L 4.890625 26.703125 
z
" id="DejaVuSans-52"/>
      </defs>
      <g transform="translate(405.095832 203.598437)scale(0.1 -0.1)">
       <use xlink:href="#DejaVuSans-52"/>
       <use x="63.623047" xlink:href="#DejaVuSans-48"/>
       <use x="127.246094" xlink:href="#DejaVuSans-48"/>
      </g>
     </g>
    </g>
    <g id="xtick_6">
     <g id="line2d_6">
      <g>
       <use style="stroke:#000000;stroke-width:0.8;" x="489.458568" xlink:href="#m2732982da4" y="189"/>
      </g>
     </g>
     <g id="text_6">
      <!-- 500 -->
      <defs>
       <path d="M 10.796875 72.90625 
L 49.515625 72.90625 
L 49.515625 64.59375 
L 19.828125 64.59375 
L 19.828125 46.734375 
Q 21.96875 47.46875 24.109375 47.828125 
Q 26.265625 48.1875 28.421875 48.1875 
Q 40.625 48.1875 47.75 41.5 
Q 54.890625 34.8125 54.890625 23.390625 
Q 54.890625 11.625 47.5625 5.09375 
Q 40.234375 -1.421875 26.90625 -1.421875 
Q 22.3125 -1.421875 17.546875 -0.640625 
Q 12.796875 0.140625 7.71875 1.703125 
L 7.71875 11.625 
Q 12.109375 9.234375 16.796875 8.0625 
Q 21.484375 6.890625 26.703125 6.890625 
Q 35.15625 6.890625 40.078125 11.328125 
Q 45.015625 15.765625 45.015625 23.390625 
Q 45.015625 31 40.078125 35.4375 
Q 35.15625 39.890625 26.703125 39.890625 
Q 22.75 39.890625 18.8125 39.015625 
Q 14.890625 38.140625 10.796875 36.28125 
z
" id="DejaVuSans-53"/>
      </defs>
      <g transform="translate(479.914818 203.598437)scale(0.1 -0.1)">
       <use xlink:href="#DejaVuSans-53"/>
       <use x="63.623047" xlink:href="#DejaVuSans-48"/>
       <use x="127.246094" xlink:href="#DejaVuSans-48"/>
      </g>
     </g>
    </g>
    <g id="xtick_7">
     <g id="line2d_7">
      <g>
       <use style="stroke:#000000;stroke-width:0.8;" x="564.277554" xlink:href="#m2732982da4" y="189"/>
      </g>
     </g>
     <g id="text_7">
      <!-- 600 -->
      <defs>
       <path d="M 33.015625 40.375 
Q 26.375 40.375 22.484375 35.828125 
Q 18.609375 31.296875 18.609375 23.390625 
Q 18.609375 15.53125 22.484375 10.953125 
Q 26.375 6.390625 33.015625 6.390625 
Q 39.65625 6.390625 43.53125 10.953125 
Q 47.40625 15.53125 47.40625 23.390625 
Q 47.40625 31.296875 43.53125 35.828125 
Q 39.65625 40.375 33.015625 40.375 
z
M 52.59375 71.296875 
L 52.59375 62.3125 
Q 48.875 64.0625 45.09375 64.984375 
Q 41.3125 65.921875 37.59375 65.921875 
Q 27.828125 65.921875 22.671875 59.328125 
Q 17.53125 52.734375 16.796875 39.40625 
Q 19.671875 43.65625 24.015625 45.921875 
Q 28.375 48.1875 33.59375 48.1875 
Q 44.578125 48.1875 50.953125 41.515625 
Q 57.328125 34.859375 57.328125 23.390625 
Q 57.328125 12.15625 50.6875 5.359375 
Q 44.046875 -1.421875 33.015625 -1.421875 
Q 20.359375 -1.421875 13.671875 8.265625 
Q 6.984375 17.96875 6.984375 36.375 
Q 6.984375 53.65625 15.1875 63.9375 
Q 23.390625 74.21875 37.203125 74.21875 
Q 40.921875 74.21875 44.703125 73.484375 
Q 48.484375 72.75 52.59375 71.296875 
z
" id="DejaVuSans-54"/>
      </defs>
      <g transform="translate(554.733804 203.598437)scale(0.1 -0.1)">
       <use xlink:href="#DejaVuSans-54"/>
       <use x="63.623047" xlink:href="#DejaVuSans-48"/>
       <use x="127.246094" xlink:href="#DejaVuSans-48"/>
      </g>
     </g>
    </g>
    <g id="xtick_8">
     <g id="line2d_8">
      <g>
       <use style="stroke:#000000;stroke-width:0.8;" x="639.096541" xlink:href="#m2732982da4" y="189"/>
      </g>
     </g>
     <g id="text_8">
      <!-- 700 -->
      <defs>
       <path d="M 8.203125 72.90625 
L 55.078125 72.90625 
L 55.078125 68.703125 
L 28.609375 0 
L 18.3125 0 
L 43.21875 64.59375 
L 8.203125 64.59375 
z
" id="DejaVuSans-55"/>
      </defs>
      <g transform="translate(629.552791 203.598437)scale(0.1 -0.1)">
       <use xlink:href="#DejaVuSans-55"/>
       <use x="63.623047" xlink:href="#DejaVuSans-48"/>
       <use x="127.246094" xlink:href="#DejaVuSans-48"/>
      </g>
     </g>
    </g>
   </g>
   <g id="matplotlib.axis_2">
    <g id="ytick_1">
     <g id="line2d_9">
      <defs>
       <path d="M 0 0 
L -3.5 0 
" id="m01af374874" style="stroke:#000000;stroke-width:0.8;"/>
      </defs>
      <g>
       <use style="stroke:#000000;stroke-width:0.8;" x="90" xlink:href="#m01af374874" y="189"/>
      </g>
     </g>
     <g id="text_9">
      <!-- −2.0 -->
      <defs>
       <path d="M 10.59375 35.5 
L 73.1875 35.5 
L 73.1875 27.203125 
L 10.59375 27.203125 
z
" id="DejaVuSans-8722"/>
       <path d="M 10.6875 12.40625 
L 21 12.40625 
L 21 0 
L 10.6875 0 
z
" id="DejaVuSans-46"/>
      </defs>
      <g transform="translate(58.717187 192.799219)scale(0.1 -0.1)">
       <use xlink:href="#DejaVuSans-8722"/>
       <use x="83.789062" xlink:href="#DejaVuSans-50"/>
       <use x="147.412109" xlink:href="#DejaVuSans-46"/>
       <use x="179.199219" xlink:href="#DejaVuSans-48"/>
      </g>
     </g>
    </g>
    <g id="ytick_2">
     <g id="line2d_10">
      <g>
       <use style="stroke:#000000;stroke-width:0.8;" x="90" xlink:href="#m01af374874" y="168.615"/>
      </g>
     </g>
     <g id="text_10">
      <!-- −1.5 -->
      <g transform="translate(58.717187 172.414219)scale(0.1 -0.1)">
       <use xlink:href="#DejaVuSans-8722"/>
       <use x="83.789062" xlink:href="#DejaVuSans-49"/>
       <use x="147.412109" xlink:href="#DejaVuSans-46"/>
       <use x="179.199219" xlink:href="#DejaVuSans-53"/>
      </g>
     </g>
    </g>
    <g id="ytick_3">
     <g id="line2d_11">
      <g>
       <use style="stroke:#000000;stroke-width:0.8;" x="90" xlink:href="#m01af374874" y="148.23"/>
      </g>
     </g>
     <g id="text_11">
      <!-- −1.0 -->
      <g transform="translate(58.717187 152.029219)scale(0.1 -0.1)">
       <use xlink:href="#DejaVuSans-8722"/>
       <use x="83.789062" xlink:href="#DejaVuSans-49"/>
       <use x="147.412109" xlink:href="#DejaVuSans-46"/>
       <use x="179.199219" xlink:href="#DejaVuSans-48"/>
      </g>
     </g>
    </g>
    <g id="ytick_4">
     <g id="line2d_12">
      <g>
       <use style="stroke:#000000;stroke-width:0.8;" x="90" xlink:href="#m01af374874" y="127.845"/>
      </g>
     </g>
     <g id="text_12">
      <!-- −0.5 -->
      <g transform="translate(58.717187 131.644219)scale(0.1 -0.1)">
       <use xlink:href="#DejaVuSans-8722"/>
       <use x="83.789062" xlink:href="#DejaVuSans-48"/>
       <use x="147.412109" xlink:href="#DejaVuSans-46"/>
       <use x="179.199219" xlink:href="#DejaVuSans-53"/>
      </g>
     </g>
    </g>
    <g id="ytick_5">
     <g id="line2d_13">
      <g>
       <use style="stroke:#000000;stroke-width:0.8;" x="90" xlink:href="#m01af374874" y="107.46"/>
      </g>
     </g>
     <g id="text_13">
      <!-- 0.0 -->
      <g transform="translate(67.096875 111.259219)scale(0.1 -0.1)">
       <use xlink:href="#DejaVuSans-48"/>
       <use x="63.623047" xlink:href="#DejaVuSans-46"/>
       <use x="95.410156" xlink:href="#DejaVuSans-48"/>
      </g>
     </g>
    </g>
    <g id="ytick_6">
     <g id="line2d_14">
      <g>
       <use style="stroke:#000000;stroke-width:0.8;" x="90" xlink:href="#m01af374874" y="87.075"/>
      </g>
     </g>
     <g id="text_14">
      <!-- 0.5 -->
      <g transform="translate(67.096875 90.874219)scale(0.1 -0.1)">
       <use xlink:href="#DejaVuSans-48"/>
       <use x="63.623047" xlink:href="#DejaVuSans-46"/>
       <use x="95.410156" xlink:href="#DejaVuSans-53"/>
      </g>
     </g>
    </g>
    <g id="ytick_7">
     <g id="line2d_15">
      <g>
       <use style="stroke:#000000;stroke-width:0.8;" x="90" xlink:href="#m01af374874" y="66.69"/>
      </g>
     </g>
     <g id="text_15">
      <!-- 1.0 -->
      <g transform="translate(67.096875 70.489219)scale(0.1 -0.1)">
       <use xlink:href="#DejaVuSans-49"/>
       <use x="63.623047" xlink:href="#DejaVuSans-46"/>
       <use x="95.410156" xlink:href="#DejaVuSans-48"/>
      </g>
     </g>
    </g>
    <g id="ytick_8">
     <g id="line2d_16">
      <g>
       <use style="stroke:#000000;stroke-width:0.8;" x="90" xlink:href="#m01af374874" y="46.305"/>
      </g>
     </g>
     <g id="text_16">
      <!-- 1.5 -->
      <g transform="translate(67.096875 50.104219)scale(0.1 -0.1)">
       <use xlink:href="#DejaVuSans-49"/>
       <use x="63.623047" xlink:href="#DejaVuSans-46"/>
       <use x="95.410156" xlink:href="#DejaVuSans-53"/>
      </g>
     </g>
    </g>
    <g id="ytick_9">
     <g id="line2d_17">
      <g>
       <use style="stroke:#000000;stroke-width:0.8;" x="90" xlink:href="#m01af374874" y="25.92"/>
      </g>
     </g>
     <g id="text_17">
      <!-- 2.0 -->
      <g transform="translate(67.096875 29.719219)scale(0.1 -0.1)">
       <use xlink:href="#DejaVuSans-50"/>
       <use x="63.623047" xlink:href="#DejaVuSans-46"/>
       <use x="95.410156" xlink:href="#DejaVuSans-48"/>
      </g>
     </g>
    </g>
   </g>
   <g id="line2d_18">
    <path clip-path="url(#p62262e6363)" d="M 115.363636 111.791999 
L 116.111826 110.910352 
L 116.860016 103.528411 
L 117.608206 117.939429 
L 118.356396 101.121506 
L 119.104586 108.63308 
L 119.852776 112.760725 
L 120.600965 110.293336 
L 121.349155 108.984779 
L 122.097345 111.911694 
L 122.845535 113.042172 
L 123.593725 106.364398 
L 124.341915 108.145125 
L 125.090105 108.352462 
L 125.838294 109.236598 
L 126.586484 104.746588 
L 127.334674 106.30567 
L 128.082864 106.334359 
L 128.831054 113.465929 
L 129.579244 108.163894 
L 130.327434 105.814641 
L 131.075623 106.824384 
L 131.823813 106.213932 
L 132.572003 111.088561 
L 133.320193 103.465163 
L 134.068383 103.559029 
L 134.816573 108.238842 
L 135.564763 109.169987 
L 136.312953 112.904021 
L 137.061142 102.009332 
L 137.809332 108.279283 
L 138.557522 100.392931 
L 139.305712 104.386764 
L 140.053902 115.990337 
L 141.550282 104.461748 
L 142.298471 105.736615 
L 143.046661 108.06572 
L 143.794851 101.674687 
L 144.543041 108.567412 
L 145.291231 109.255657 
L 146.039421 114.335063 
L 146.787611 110.256355 
L 147.5358 102.6209 
L 148.28399 101.768361 
L 149.03218 113.80693 
L 149.78037 104.373702 
L 150.52856 111.975994 
L 151.27675 104.105661 
L 152.02494 107.983188 
L 152.77313 107.482413 
L 153.521319 109.686546 
L 154.269509 105.626306 
L 155.017699 106.404281 
L 155.765889 104.548013 
L 156.514079 107.015204 
L 157.262269 102.485779 
L 158.010459 111.102959 
L 158.758648 104.683495 
L 159.506838 107.828435 
L 160.255028 106.134345 
L 161.003218 107.711546 
L 161.751408 111.213936 
L 162.499598 110.778214 
L 163.247788 105.933247 
L 163.995977 105.583756 
L 164.744167 108.559173 
L 165.492357 104.825918 
L 166.240547 110.759997 
L 166.988737 108.308745 
L 167.736927 112.790833 
L 168.485117 105.468519 
L 169.233307 110.040622 
L 169.981496 102.247355 
L 170.729686 109.450076 
L 171.477876 110.989496 
L 172.226066 104.853254 
L 172.974256 101.009685 
L 173.722446 107.436782 
L 174.470636 106.888767 
L 175.218825 107.686093 
L 175.967015 103.978496 
L 176.715205 106.322388 
L 177.463395 104.271497 
L 178.211585 105.354591 
L 178.959775 109.818435 
L 179.707965 110.227242 
L 180.456154 107.363878 
L 181.204344 106.830705 
L 181.952534 109.319944 
L 182.700724 112.991479 
L 183.448914 106.371245 
L 184.945294 112.947373 
L 185.693484 107.059028 
L 186.441673 108.320518 
L 187.189863 110.229997 
L 187.938053 106.249946 
L 188.686243 107.973825 
L 189.434433 103.57022 
L 190.182623 110.235439 
L 190.930813 107.338072 
L 191.679002 109.654368 
L 192.427192 113.143511 
L 193.175382 103.536115 
L 193.923572 108.226021 
L 194.671762 111.544081 
L 195.419952 113.958047 
L 196.168142 104.71399 
L 196.916331 110.506782 
L 197.664521 108.267866 
L 198.412711 109.557444 
L 199.160901 107.561675 
L 199.909091 106.320289 
L 200.657281 108.580713 
L 201.405471 115.237788 
L 202.15366 109.023428 
L 202.90185 106.738773 
L 203.65004 110.355787 
L 204.39823 111.994403 
L 205.14642 112.117507 
L 205.89461 105.466128 
L 206.6428 109.379913 
L 207.39099 109.83117 
L 208.139179 113.413426 
L 208.887369 103.309072 
L 209.635559 107.500174 
L 210.383749 105.520123 
L 211.131939 106.609043 
L 211.880129 106.124019 
L 212.628319 108.225913 
L 213.376508 109.447409 
L 214.124698 109.390931 
L 214.872888 105.655977 
L 215.621078 112.133412 
L 216.369268 113.911556 
L 217.117458 102.921634 
L 217.865648 108.211228 
L 218.613837 103.346569 
L 219.362027 105.748078 
L 220.110217 112.971543 
L 220.858407 103.377393 
L 221.606597 110.490683 
L 222.354787 104.837797 
L 223.102977 109.458332 
L 223.851167 107.783637 
L 224.599356 103.060952 
L 225.347546 109.374447 
L 226.095736 105.617159 
L 226.843926 106.108076 
L 227.592116 102.540308 
L 228.340306 110.882916 
L 229.088496 103.633219 
L 229.836685 109.526925 
L 230.584875 105.43632 
L 231.333065 103.906204 
L 232.081255 107.190739 
L 232.829445 107.937236 
L 233.577635 104.214749 
L 234.325825 110.485144 
L 235.074014 113.519855 
L 235.822204 108.588622 
L 236.570394 105.9921 
L 237.318584 107.106426 
L 238.066774 103.80877 
L 238.814964 111.00428 
L 239.563154 106.401718 
L 240.311344 105.407762 
L 241.059533 106.013319 
L 241.807723 105.816644 
L 242.555913 100.851474 
L 243.304103 100.960497 
L 244.052293 111.302904 
L 244.800483 106.574177 
L 245.548673 112.795347 
L 246.296862 105.038645 
L 247.045052 109.203484 
L 247.793242 105.410139 
L 248.541432 107.075159 
L 249.289622 107.164833 
L 250.037812 103.475953 
L 250.786002 110.483837 
L 251.534191 110.2112 
L 252.282381 110.786755 
L 253.030571 113.451459 
L 253.778761 112.469055 
L 254.526951 110.17794 
L 255.275141 113.448411 
L 256.023331 106.306378 
L 256.771521 109.587194 
L 258.2679 105.521334 
L 259.01609 104.829709 
L 259.76428 105.622017 
L 260.51247 111.773886 
L 261.26066 109.823395 
L 262.00885 106.481351 
L 263.505229 109.913878 
L 264.253419 107.618074 
L 265.001609 106.104589 
L 265.749799 107.099475 
L 266.497989 112.608537 
L 267.246179 106.281921 
L 267.994368 105.760755 
L 268.742558 104.023064 
L 269.490748 107.572035 
L 270.238938 112.038164 
L 270.987128 100.262963 
L 271.735318 105.429711 
L 272.483508 105.51106 
L 273.231698 101.700208 
L 273.979887 103.178094 
L 274.728077 110.63311 
L 275.476267 113.89238 
L 276.224457 113.606379 
L 276.972647 108.591349 
L 277.720837 105.62667 
L 278.469027 105.738978 
L 279.217216 102.686198 
L 279.965406 112.073745 
L 280.713596 105.82343 
L 282.209976 113.646082 
L 282.958166 108.60057 
L 283.706356 107.513798 
L 284.454545 111.272864 
L 285.202735 106.247639 
L 285.950925 108.550634 
L 286.699115 104.343816 
L 287.447305 110.878274 
L 288.195495 104.446638 
L 289.691874 111.525672 
L 290.440064 106.159203 
L 291.188254 111.809025 
L 291.936444 109.039537 
L 293.432824 106.281483 
L 294.181014 103.542535 
L 294.929204 108.837332 
L 295.677393 105.153553 
L 296.425583 106.654132 
L 297.173773 109.585735 
L 297.921963 108.725542 
L 298.670153 107.474955 
L 299.418343 111.828408 
L 300.166533 108.674723 
L 300.914722 103.708862 
L 301.662912 105.325773 
L 302.411102 107.484485 
L 303.159292 106.267766 
L 303.907482 105.928298 
L 304.655672 104.56726 
L 305.403862 105.633361 
L 306.152051 106.1141 
L 306.900241 103.988781 
L 307.648431 112.477733 
L 308.396621 102.431379 
L 309.144811 109.817495 
L 309.893001 110.907356 
L 310.641191 110.787041 
L 311.389381 117.251425 
L 312.13757 103.892411 
L 312.88576 105.039836 
L 313.63395 108.306047 
L 314.38214 107.571376 
L 315.13033 110.641584 
L 315.87852 104.316704 
L 316.62671 110.992492 
L 317.374899 110.277312 
L 318.123089 120.868899 
L 318.871279 106.720866 
L 319.619469 110.016457 
L 320.367659 105.0299 
L 321.115849 107.022175 
L 321.864039 100.850211 
L 322.612228 109.370184 
L 323.360418 110.471924 
L 324.108608 106.951612 
L 324.856798 104.695218 
L 325.604988 106.182045 
L 326.353178 106.932867 
L 327.101368 105.757574 
L 327.849558 107.315967 
L 328.597747 107.523217 
L 329.345937 112.150638 
L 330.094127 102.549421 
L 330.842317 108.015859 
L 331.590507 109.311707 
L 332.338697 106.726058 
L 333.086887 112.152742 
L 333.835076 108.530812 
L 334.583266 109.035628 
L 335.331456 103.407857 
L 336.079646 110.810154 
L 336.827836 101.144538 
L 337.576026 107.144067 
L 338.324216 102.528662 
L 339.072405 98.743068 
L 339.820595 110.319416 
L 340.568785 108.034324 
L 341.316975 113.285769 
L 342.065165 110.666163 
L 342.813355 101.613408 
L 343.561545 103.605135 
L 344.309735 111.000967 
L 345.057924 107.623839 
L 345.806114 100.94219 
L 346.554304 107.620345 
L 347.302494 110.914565 
L 348.050684 107.151025 
L 348.798874 114.170324 
L 349.547064 109.624873 
L 350.295253 107.709705 
L 351.043443 107.25451 
L 351.791633 109.112156 
L 352.539823 105.845587 
L 353.288013 103.618321 
L 354.036203 112.20302 
L 354.784393 104.895279 
L 355.532582 108.510757 
L 356.280772 104.64181 
L 357.028962 107.083798 
L 357.777152 106.560579 
L 358.525342 110.252888 
L 359.273532 100.974174 
L 360.021722 104.895154 
L 360.769912 110.643557 
L 361.518101 104.022757 
L 362.266291 108.747602 
L 363.014481 102.415653 
L 364.510861 115.001432 
L 365.259051 102.585574 
L 366.007241 101.663097 
L 366.75543 110.037388 
L 367.50362 109.50658 
L 368.25181 103.970318 
L 369.74819 107.652042 
L 370.49638 113.462421 
L 371.24457 101.527406 
L 371.992759 109.13999 
L 372.740949 109.367335 
L 373.489139 112.008932 
L 374.237329 106.030683 
L 374.985519 96.255387 
L 375.733709 109.704391 
L 376.481899 101.522195 
L 377.230088 107.476153 
L 377.978278 108.026207 
L 378.726468 106.939516 
L 379.474658 110.875137 
L 380.222848 107.47245 
L 380.971038 111.423473 
L 381.719228 108.175423 
L 382.467418 99.817891 
L 383.215607 111.767 
L 383.963797 110.245084 
L 384.711987 107.831309 
L 385.460177 101.053846 
L 386.208367 106.373358 
L 386.956557 109.845512 
L 387.704747 108.504573 
L 388.452936 103.703188 
L 389.201126 108.945577 
L 389.949316 108.633734 
L 390.697506 107.852773 
L 391.445696 108.744507 
L 392.193886 109.283253 
L 392.942076 103.78747 
L 393.690265 110.227348 
L 394.438455 103.463253 
L 395.186645 109.531913 
L 395.934835 109.654272 
L 396.683025 102.151871 
L 397.431215 102.887991 
L 398.179405 108.312648 
L 398.927595 111.797078 
L 399.675784 113.285043 
L 400.423974 108.244308 
L 401.172164 106.971787 
L 401.920354 108.243664 
L 402.668544 103.049003 
L 403.416734 107.656162 
L 404.164924 109.976082 
L 404.913113 113.302925 
L 405.661303 112.436184 
L 406.409493 107.943576 
L 407.157683 102.436255 
L 407.905873 108.143149 
L 408.654063 104.429357 
L 409.402253 108.123489 
L 410.150442 102.10767 
L 410.898632 108.464817 
L 411.646822 108.246962 
L 412.395012 112.1697 
L 413.143202 107.840713 
L 413.891392 105.43512 
L 414.639582 112.937806 
L 415.387772 106.041064 
L 416.135961 108.850212 
L 416.884151 107.499802 
L 417.632341 106.620786 
L 418.380531 109.990437 
L 419.128721 101.540599 
L 419.876911 108.486033 
L 420.625101 104.817811 
L 421.37329 108.007312 
L 422.12148 108.668529 
L 422.86967 102.344273 
L 423.61786 103.879404 
L 424.36605 111.722009 
L 425.11424 104.42225 
L 425.86243 106.110957 
L 426.610619 108.773905 
L 427.358809 108.527399 
L 428.106999 115.049759 
L 428.855189 106.024984 
L 429.603379 109.227768 
L 430.351569 107.538652 
L 431.099759 111.701942 
L 431.847949 110.962477 
L 432.596138 100.25498 
L 433.344328 109.442364 
L 434.092518 110.373777 
L 434.840708 107.558175 
L 435.588898 112.374921 
L 436.337088 104.516658 
L 437.085278 103.97674 
L 437.833467 108.671048 
L 438.581657 107.698187 
L 439.329847 110.935382 
L 440.078037 99.942899 
L 440.826227 108.422238 
L 441.574417 112.104348 
L 442.322607 107.679062 
L 443.070796 105.608321 
L 443.818986 111.226993 
L 444.567176 108.23651 
L 445.315366 108.637786 
L 446.063556 108.528131 
L 446.811746 109.674996 
L 447.559936 113.199269 
L 448.308126 104.949629 
L 449.056315 109.924446 
L 449.804505 110.839305 
L 450.552695 105.005933 
L 451.300885 103.020201 
L 452.049075 111.272686 
L 452.797265 108.063773 
L 453.545455 108.022337 
L 454.293644 109.596674 
L 455.041834 104.117356 
L 455.790024 111.372681 
L 456.538214 107.532535 
L 457.286404 111.907532 
L 458.034594 110.831623 
L 458.782784 106.267722 
L 459.530973 110.922985 
L 460.279163 109.495592 
L 461.027353 104.08905 
L 461.775543 102.291775 
L 462.523733 109.247409 
L 463.271923 104.940865 
L 464.020113 108.241142 
L 464.768302 105.907173 
L 465.516492 114.064447 
L 466.264682 112.703321 
L 467.012872 102.859967 
L 467.761062 105.592511 
L 468.509252 109.967031 
L 469.257442 110.923004 
L 470.005632 102.789339 
L 470.753821 102.421377 
L 471.502011 102.922179 
L 472.250201 108.010142 
L 472.998391 112.084626 
L 473.746581 105.768894 
L 474.494771 105.952403 
L 475.242961 103.468871 
L 475.99115 107.409248 
L 476.73934 103.721285 
L 477.48753 109.001008 
L 478.23572 108.29869 
L 478.98391 102.901955 
L 479.7321 106.921217 
L 480.48029 106.003548 
L 481.228479 106.814659 
L 481.976669 109.643986 
L 483.473049 105.796261 
L 484.221239 110.27848 
L 484.969429 104.114246 
L 485.717619 107.649715 
L 486.465809 105.028679 
L 487.213998 101.532215 
L 487.962188 105.184841 
L 488.710378 106.643043 
L 489.458568 104.414943 
L 490.206758 103.685064 
L 490.954948 106.505963 
L 491.703138 102.601789 
L 492.451327 102.622266 
L 493.199517 102.11873 
L 493.947707 103.393777 
L 494.695897 102.762031 
L 495.444087 100.416028 
L 496.192277 111.110833 
L 496.940467 105.649541 
L 497.688656 102.511513 
L 498.436846 107.582083 
L 499.185036 108.126941 
L 499.933226 108.138909 
L 500.681416 109.934712 
L 501.429606 106.096223 
L 502.177796 108.862917 
L 502.925986 110.064616 
L 503.674175 109.447146 
L 504.422365 109.838904 
L 505.170555 110.818769 
L 505.918745 106.644474 
L 506.666935 106.355208 
L 508.163315 109.487351 
L 508.911504 105.370536 
L 509.659694 102.882536 
L 510.407884 107.459988 
L 511.156074 110.747971 
L 511.904264 109.184677 
L 512.652454 108.708634 
L 513.400644 104.781095 
L 514.148833 102.11518 
L 514.897023 100.092271 
L 515.645213 104.283742 
L 516.393403 109.901538 
L 517.141593 112.510571 
L 517.889783 108.66547 
L 518.637973 111.003942 
L 519.386163 110.38275 
L 520.134352 111.582831 
L 520.882542 107.414728 
L 521.630732 104.679963 
L 522.378922 111.692904 
L 523.127112 101.993765 
L 523.875302 109.905432 
L 524.623492 105.684238 
L 525.371681 103.895202 
L 526.119871 107.387739 
L 526.868061 109.472266 
L 527.616251 107.376867 
L 528.364441 102.062489 
L 529.112631 110.497045 
L 529.860821 107.384316 
L 531.3572 112.038073 
L 532.10539 110.00546 
L 532.85358 107.524918 
L 533.60177 104.427443 
L 535.09815 110.745904 
L 535.84634 107.196626 
L 536.594529 104.52974 
L 537.342719 106.239659 
L 538.090909 102.143798 
L 538.839099 107.015249 
L 539.587289 105.481467 
L 540.335479 107.660497 
L 541.083669 107.294212 
L 541.831858 102.672362 
L 542.580048 113.218185 
L 543.328238 105.414671 
L 544.076428 107.512121 
L 544.824618 105.105321 
L 545.572808 109.090455 
L 546.320998 109.153746 
L 547.069187 107.984764 
L 547.817377 106.538103 
L 548.565567 108.196829 
L 549.313757 107.674713 
L 550.061947 115.139522 
L 550.810137 105.906147 
L 551.558327 109.684207 
L 552.306516 105.65858 
L 553.054706 107.666251 
L 553.802896 107.632748 
L 554.551086 107.786918 
L 555.299276 110.703629 
L 556.795656 103.578122 
L 557.543846 106.525346 
L 558.292035 110.654516 
L 559.040225 106.850051 
L 560.536605 101.419234 
L 561.284795 103.207002 
L 562.032985 113.103615 
L 562.781175 106.246006 
L 563.529364 107.790124 
L 564.277554 111.406105 
L 565.025744 103.2627 
L 565.773934 102.681615 
L 566.522124 111.617575 
L 567.270314 105.384784 
L 568.018504 105.971554 
L 568.766693 109.648078 
L 569.514883 107.273312 
L 570.263073 104.048491 
L 571.011263 107.079423 
L 571.759453 103.346302 
L 572.507643 109.461279 
L 573.255833 106.276515 
L 574.004023 110.241264 
L 574.752212 105.24711 
L 575.500402 106.840839 
L 576.248592 110.055162 
L 576.996782 110.348952 
L 577.744972 114.057027 
L 578.493162 105.000846 
L 579.241352 105.769778 
L 579.989541 109.197907 
L 580.737731 103.024211 
L 581.485921 111.042504 
L 582.234111 106.965563 
L 582.982301 105.364358 
L 583.730491 113.185008 
L 584.478681 103.781618 
L 585.22687 112.230202 
L 585.97506 110.053129 
L 586.72325 104.451716 
L 587.47144 107.985059 
L 588.21963 100.91963 
L 588.96782 108.002014 
L 589.71601 104.958103 
L 590.4642 104.685067 
L 591.212389 105.838312 
L 591.960579 107.240317 
L 592.708769 112.923777 
L 593.456959 111.26221 
L 594.205149 105.288498 
L 594.953339 109.15528 
L 595.701529 107.824513 
L 596.449718 109.148676 
L 597.197908 108.462809 
L 597.946098 108.486752 
L 598.694288 110.888182 
L 599.442478 108.659612 
L 600.190668 105.392462 
L 600.938858 112.364224 
L 601.687047 105.639712 
L 602.435237 104.519989 
L 603.183427 104.229312 
L 603.931617 114.281727 
L 605.427997 108.12652 
L 606.176187 101.357221 
L 606.924377 100.378381 
L 607.672566 104.487577 
L 608.420756 113.03633 
L 609.168946 109.968841 
L 609.917136 106.24842 
L 610.665326 104.594408 
L 611.413516 107.597157 
L 612.161706 109.79762 
L 612.909895 105.154487 
L 613.658085 111.870182 
L 614.406275 104.947602 
L 615.154465 109.229305 
L 615.902655 107.318966 
L 616.650845 108.025131 
L 617.399035 107.987604 
L 618.147224 110.871521 
L 618.895414 107.559494 
L 619.643604 99.238006 
L 621.139984 108.682044 
L 621.888174 107.554227 
L 622.636364 105.61005 
L 622.636364 105.61005 
" style="fill:none;stroke:#ff0000;stroke-linecap:square;"/>
   </g>
   <g id="patch_3">
    <path d="M 90 189 
L 90 25.92 
" style="fill:none;stroke:#000000;stroke-linecap:square;stroke-linejoin:miter;stroke-width:0.8;"/>
   </g>
   <g id="patch_4">
    <path d="M 648 189 
L 648 25.92 
" style="fill:none;stroke:#000000;stroke-linecap:square;stroke-linejoin:miter;stroke-width:0.8;"/>
   </g>
   <g id="patch_5">
    <path d="M 90 189 
L 648 189 
" style="fill:none;stroke:#000000;stroke-linecap:square;stroke-linejoin:miter;stroke-width:0.8;"/>
   </g>
   <g id="patch_6">
    <path d="M 90 25.92 
L 648 25.92 
" style="fill:none;stroke:#000000;stroke-linecap:square;stroke-linejoin:miter;stroke-width:0.8;"/>
   </g>
  </g>
 </g>
 <defs>
  <clipPath id="p62262e6363">
   <rect height="163.08" width="558" x="90" y="25.92"/>
  </clipPath>
 </defs>
</svg>
