<?xml version="1.0" encoding="utf-8" standalone="no"?>
<!DOCTYPE svg PUBLIC "-//W3C//DTD SVG 1.1//EN"
  "http://www.w3.org/Graphics/SVG/1.1/DTD/svg11.dtd">
<!-- Created with matplotlib (https://matplotlib.org/) -->
<svg height="216pt" version="1.1" viewBox="0 0 720 216" width="720pt" xmlns="http://www.w3.org/2000/svg" xmlns:xlink="http://www.w3.org/1999/xlink">
 <defs>
  <style type="text/css">
*{stroke-linecap:butt;stroke-linejoin:round;}
  </style>
 </defs>
 <g id="figure_1">
  <g id="patch_1">
   <path d="M 0 216 
L 720 216 
L 720 0 
L 0 0 
z
" style="fill:none;"/>
  </g>
  <g id="axes_1">
   <g id="patch_2">
    <path d="M 90 189 
L 648 189 
L 648 25.92 
L 90 25.92 
z
" style="fill:none;"/>
   </g>
   <g id="matplotlib.axis_1">
    <g id="xtick_1">
     <g id="line2d_1">
      <defs>
       <path d="M 0 0 
L 0 3.5 
" id="mad1018e74c" style="stroke:#000000;stroke-width:0.8;"/>
      </defs>
      <g>
       <use style="stroke:#000000;stroke-width:0.8;" x="115.363636" xlink:href="#mad1018e74c" y="189"/>
      </g>
     </g>
     <g id="text_1">
      <!-- 0 -->
      <defs>
       <path d="M 31.78125 66.40625 
Q 24.171875 66.40625 20.328125 58.90625 
Q 16.5 51.421875 16.5 36.375 
Q 16.5 21.390625 20.328125 13.890625 
Q 24.171875 6.390625 31.78125 6.390625 
Q 39.453125 6.390625 43.28125 13.890625 
Q 47.125 21.390625 47.125 36.375 
Q 47.125 51.421875 43.28125 58.90625 
Q 39.453125 66.40625 31.78125 66.40625 
z
M 31.78125 74.21875 
Q 44.046875 74.21875 50.515625 64.515625 
Q 56.984375 54.828125 56.984375 36.375 
Q 56.984375 17.96875 50.515625 8.265625 
Q 44.046875 -1.421875 31.78125 -1.421875 
Q 19.53125 -1.421875 13.0625 8.265625 
Q 6.59375 17.96875 6.59375 36.375 
Q 6.59375 54.828125 13.0625 64.515625 
Q 19.53125 74.21875 31.78125 74.21875 
z
" id="DejaVuSans-48"/>
      </defs>
      <g transform="translate(112.182386 203.598437)scale(0.1 -0.1)">
       <use xlink:href="#DejaVuSans-48"/>
      </g>
     </g>
    </g>
    <g id="xtick_2">
     <g id="line2d_2">
      <g>
       <use style="stroke:#000000;stroke-width:0.8;" x="204.987793" xlink:href="#mad1018e74c" y="189"/>
      </g>
     </g>
     <g id="text_2">
      <!-- 50 -->
      <defs>
       <path d="M 10.796875 72.90625 
L 49.515625 72.90625 
L 49.515625 64.59375 
L 19.828125 64.59375 
L 19.828125 46.734375 
Q 21.96875 47.46875 24.109375 47.828125 
Q 26.265625 48.1875 28.421875 48.1875 
Q 40.625 48.1875 47.75 41.5 
Q 54.890625 34.8125 54.890625 23.390625 
Q 54.890625 11.625 47.5625 5.09375 
Q 40.234375 -1.421875 26.90625 -1.421875 
Q 22.3125 -1.421875 17.546875 -0.640625 
Q 12.796875 0.140625 7.71875 1.703125 
L 7.71875 11.625 
Q 12.109375 9.234375 16.796875 8.0625 
Q 21.484375 6.890625 26.703125 6.890625 
Q 35.15625 6.890625 40.078125 11.328125 
Q 45.015625 15.765625 45.015625 23.390625 
Q 45.015625 31 40.078125 35.4375 
Q 35.15625 39.890625 26.703125 39.890625 
Q 22.75 39.890625 18.8125 39.015625 
Q 14.890625 38.140625 10.796875 36.28125 
z
" id="DejaVuSans-53"/>
      </defs>
      <g transform="translate(198.625293 203.598437)scale(0.1 -0.1)">
       <use xlink:href="#DejaVuSans-53"/>
       <use x="63.623047" xlink:href="#DejaVuSans-48"/>
      </g>
     </g>
    </g>
    <g id="xtick_3">
     <g id="line2d_3">
      <g>
       <use style="stroke:#000000;stroke-width:0.8;" x="294.61195" xlink:href="#mad1018e74c" y="189"/>
      </g>
     </g>
     <g id="text_3">
      <!-- 100 -->
      <defs>
       <path d="M 12.40625 8.296875 
L 28.515625 8.296875 
L 28.515625 63.921875 
L 10.984375 60.40625 
L 10.984375 69.390625 
L 28.421875 72.90625 
L 38.28125 72.90625 
L 38.28125 8.296875 
L 54.390625 8.296875 
L 54.390625 0 
L 12.40625 0 
z
" id="DejaVuSans-49"/>
      </defs>
      <g transform="translate(285.0682 203.598437)scale(0.1 -0.1)">
       <use xlink:href="#DejaVuSans-49"/>
       <use x="63.623047" xlink:href="#DejaVuSans-48"/>
       <use x="127.246094" xlink:href="#DejaVuSans-48"/>
      </g>
     </g>
    </g>
    <g id="xtick_4">
     <g id="line2d_4">
      <g>
       <use style="stroke:#000000;stroke-width:0.8;" x="384.236107" xlink:href="#mad1018e74c" y="189"/>
      </g>
     </g>
     <g id="text_4">
      <!-- 150 -->
      <g transform="translate(374.692357 203.598437)scale(0.1 -0.1)">
       <use xlink:href="#DejaVuSans-49"/>
       <use x="63.623047" xlink:href="#DejaVuSans-53"/>
       <use x="127.246094" xlink:href="#DejaVuSans-48"/>
      </g>
     </g>
    </g>
    <g id="xtick_5">
     <g id="line2d_5">
      <g>
       <use style="stroke:#000000;stroke-width:0.8;" x="473.860263" xlink:href="#mad1018e74c" y="189"/>
      </g>
     </g>
     <g id="text_5">
      <!-- 200 -->
      <defs>
       <path d="M 19.1875 8.296875 
L 53.609375 8.296875 
L 53.609375 0 
L 7.328125 0 
L 7.328125 8.296875 
Q 12.9375 14.109375 22.625 23.890625 
Q 32.328125 33.6875 34.8125 36.53125 
Q 39.546875 41.84375 41.421875 45.53125 
Q 43.3125 49.21875 43.3125 52.78125 
Q 43.3125 58.59375 39.234375 62.25 
Q 35.15625 65.921875 28.609375 65.921875 
Q 23.96875 65.921875 18.8125 64.3125 
Q 13.671875 62.703125 7.8125 59.421875 
L 7.8125 69.390625 
Q 13.765625 71.78125 18.9375 73 
Q 24.125 74.21875 28.421875 74.21875 
Q 39.75 74.21875 46.484375 68.546875 
Q 53.21875 62.890625 53.21875 53.421875 
Q 53.21875 48.921875 51.53125 44.890625 
Q 49.859375 40.875 45.40625 35.40625 
Q 44.1875 33.984375 37.640625 27.21875 
Q 31.109375 20.453125 19.1875 8.296875 
z
" id="DejaVuSans-50"/>
      </defs>
      <g transform="translate(464.316513 203.598437)scale(0.1 -0.1)">
       <use xlink:href="#DejaVuSans-50"/>
       <use x="63.623047" xlink:href="#DejaVuSans-48"/>
       <use x="127.246094" xlink:href="#DejaVuSans-48"/>
      </g>
     </g>
    </g>
    <g id="xtick_6">
     <g id="line2d_6">
      <g>
       <use style="stroke:#000000;stroke-width:0.8;" x="563.48442" xlink:href="#mad1018e74c" y="189"/>
      </g>
     </g>
     <g id="text_6">
      <!-- 250 -->
      <g transform="translate(553.94067 203.598437)scale(0.1 -0.1)">
       <use xlink:href="#DejaVuSans-50"/>
       <use x="63.623047" xlink:href="#DejaVuSans-53"/>
       <use x="127.246094" xlink:href="#DejaVuSans-48"/>
      </g>
     </g>
    </g>
   </g>
   <g id="matplotlib.axis_2">
    <g id="ytick_1">
     <g id="line2d_7">
      <defs>
       <path d="M 0 0 
L -3.5 0 
" id="m4479debe66" style="stroke:#000000;stroke-width:0.8;"/>
      </defs>
      <g>
       <use style="stroke:#000000;stroke-width:0.8;" x="90" xlink:href="#m4479debe66" y="189"/>
      </g>
     </g>
     <g id="text_7">
      <!-- −2.0 -->
      <defs>
       <path d="M 10.59375 35.5 
L 73.1875 35.5 
L 73.1875 27.203125 
L 10.59375 27.203125 
z
" id="DejaVuSans-8722"/>
       <path d="M 10.6875 12.40625 
L 21 12.40625 
L 21 0 
L 10.6875 0 
z
" id="DejaVuSans-46"/>
      </defs>
      <g transform="translate(58.717187 192.799219)scale(0.1 -0.1)">
       <use xlink:href="#DejaVuSans-8722"/>
       <use x="83.789062" xlink:href="#DejaVuSans-50"/>
       <use x="147.412109" xlink:href="#DejaVuSans-46"/>
       <use x="179.199219" xlink:href="#DejaVuSans-48"/>
      </g>
     </g>
    </g>
    <g id="ytick_2">
     <g id="line2d_8">
      <g>
       <use style="stroke:#000000;stroke-width:0.8;" x="90" xlink:href="#m4479debe66" y="168.615"/>
      </g>
     </g>
     <g id="text_8">
      <!-- −1.5 -->
      <g transform="translate(58.717187 172.414219)scale(0.1 -0.1)">
       <use xlink:href="#DejaVuSans-8722"/>
       <use x="83.789062" xlink:href="#DejaVuSans-49"/>
       <use x="147.412109" xlink:href="#DejaVuSans-46"/>
       <use x="179.199219" xlink:href="#DejaVuSans-53"/>
      </g>
     </g>
    </g>
    <g id="ytick_3">
     <g id="line2d_9">
      <g>
       <use style="stroke:#000000;stroke-width:0.8;" x="90" xlink:href="#m4479debe66" y="148.23"/>
      </g>
     </g>
     <g id="text_9">
      <!-- −1.0 -->
      <g transform="translate(58.717187 152.029219)scale(0.1 -0.1)">
       <use xlink:href="#DejaVuSans-8722"/>
       <use x="83.789062" xlink:href="#DejaVuSans-49"/>
       <use x="147.412109" xlink:href="#DejaVuSans-46"/>
       <use x="179.199219" xlink:href="#DejaVuSans-48"/>
      </g>
     </g>
    </g>
    <g id="ytick_4">
     <g id="line2d_10">
      <g>
       <use style="stroke:#000000;stroke-width:0.8;" x="90" xlink:href="#m4479debe66" y="127.845"/>
      </g>
     </g>
     <g id="text_10">
      <!-- −0.5 -->
      <g transform="translate(58.717187 131.644219)scale(0.1 -0.1)">
       <use xlink:href="#DejaVuSans-8722"/>
       <use x="83.789062" xlink:href="#DejaVuSans-48"/>
       <use x="147.412109" xlink:href="#DejaVuSans-46"/>
       <use x="179.199219" xlink:href="#DejaVuSans-53"/>
      </g>
     </g>
    </g>
    <g id="ytick_5">
     <g id="line2d_11">
      <g>
       <use style="stroke:#000000;stroke-width:0.8;" x="90" xlink:href="#m4479debe66" y="107.46"/>
      </g>
     </g>
     <g id="text_11">
      <!-- 0.0 -->
      <g transform="translate(67.096875 111.259219)scale(0.1 -0.1)">
       <use xlink:href="#DejaVuSans-48"/>
       <use x="63.623047" xlink:href="#DejaVuSans-46"/>
       <use x="95.410156" xlink:href="#DejaVuSans-48"/>
      </g>
     </g>
    </g>
    <g id="ytick_6">
     <g id="line2d_12">
      <g>
       <use style="stroke:#000000;stroke-width:0.8;" x="90" xlink:href="#m4479debe66" y="87.075"/>
      </g>
     </g>
     <g id="text_12">
      <!-- 0.5 -->
      <g transform="translate(67.096875 90.874219)scale(0.1 -0.1)">
       <use xlink:href="#DejaVuSans-48"/>
       <use x="63.623047" xlink:href="#DejaVuSans-46"/>
       <use x="95.410156" xlink:href="#DejaVuSans-53"/>
      </g>
     </g>
    </g>
    <g id="ytick_7">
     <g id="line2d_13">
      <g>
       <use style="stroke:#000000;stroke-width:0.8;" x="90" xlink:href="#m4479debe66" y="66.69"/>
      </g>
     </g>
     <g id="text_13">
      <!-- 1.0 -->
      <g transform="translate(67.096875 70.489219)scale(0.1 -0.1)">
       <use xlink:href="#DejaVuSans-49"/>
       <use x="63.623047" xlink:href="#DejaVuSans-46"/>
       <use x="95.410156" xlink:href="#DejaVuSans-48"/>
      </g>
     </g>
    </g>
    <g id="ytick_8">
     <g id="line2d_14">
      <g>
       <use style="stroke:#000000;stroke-width:0.8;" x="90" xlink:href="#m4479debe66" y="46.305"/>
      </g>
     </g>
     <g id="text_14">
      <!-- 1.5 -->
      <g transform="translate(67.096875 50.104219)scale(0.1 -0.1)">
       <use xlink:href="#DejaVuSans-49"/>
       <use x="63.623047" xlink:href="#DejaVuSans-46"/>
       <use x="95.410156" xlink:href="#DejaVuSans-53"/>
      </g>
     </g>
    </g>
    <g id="ytick_9">
     <g id="line2d_15">
      <g>
       <use style="stroke:#000000;stroke-width:0.8;" x="90" xlink:href="#m4479debe66" y="25.92"/>
      </g>
     </g>
     <g id="text_15">
      <!-- 2.0 -->
      <g transform="translate(67.096875 29.719219)scale(0.1 -0.1)">
       <use xlink:href="#DejaVuSans-50"/>
       <use x="63.623047" xlink:href="#DejaVuSans-46"/>
       <use x="95.410156" xlink:href="#DejaVuSans-48"/>
      </g>
     </g>
    </g>
   </g>
   <g id="line2d_16">
    <path clip-path="url(#pa592aef640)" d="M 115.363636 103.567883 
L 117.156119 115.544043 
L 118.948603 125.24209 
L 120.741086 113.722761 
L 122.533569 111.089541 
L 124.326052 103.131741 
L 126.118535 103.06489 
L 127.911018 104.098853 
L 129.703501 103.299121 
L 133.288468 120.915194 
L 135.080951 113.421478 
L 138.665917 106.044038 
L 140.4584 101.284303 
L 142.250883 100.305957 
L 144.043367 105.204731 
L 145.83585 116.673016 
L 147.628333 123.218011 
L 149.420816 112.459273 
L 151.213299 107.158905 
L 153.005782 103.377848 
L 154.798265 97.828465 
L 156.590748 99.751298 
L 158.383232 100.833775 
L 160.175715 118.932424 
L 161.968198 121.588241 
L 163.760681 111.057455 
L 165.553164 107.686767 
L 167.345647 101.325368 
L 169.13813 103.802341 
L 170.930614 100.409731 
L 174.51558 121.319453 
L 176.308063 117.790328 
L 178.100546 110.296468 
L 179.893029 105.630012 
L 181.685512 107.062322 
L 183.477996 99.208515 
L 185.270479 102.279783 
L 188.855445 121.382512 
L 190.647928 115.054439 
L 192.440411 110.870682 
L 194.232894 104.471971 
L 196.025377 104.400812 
L 197.817861 104.093888 
L 199.610344 108.209251 
L 201.402827 113.104883 
L 203.19531 123.064274 
L 204.987793 111.930707 
L 206.780276 108.064442 
L 208.572759 106.149315 
L 210.365243 103.174845 
L 212.157726 101.10809 
L 213.950209 109.431438 
L 215.742692 115.978322 
L 217.535175 115.764929 
L 219.327658 114.286052 
L 221.120141 109.164857 
L 222.912624 104.970118 
L 224.705108 104.144103 
L 226.497591 100.820866 
L 228.290074 107.37114 
L 230.082557 125.858293 
L 231.87504 115.517966 
L 233.667523 114.357339 
L 235.460006 104.633655 
L 237.25249 103.324889 
L 239.044973 100.792185 
L 240.837456 101.532866 
L 242.629939 111.257704 
L 244.422422 123.923233 
L 246.214905 113.586781 
L 248.007388 115.407498 
L 249.799872 110.04808 
L 251.592355 102.026845 
L 253.384838 97.804376 
L 255.177321 101.292229 
L 256.969804 112.812134 
L 258.762287 121.280058 
L 260.55477 117.472509 
L 262.347253 108.818401 
L 264.139737 101.318369 
L 267.724703 100.535377 
L 269.517186 103.262273 
L 271.309669 115.20733 
L 273.102152 123.454488 
L 274.894635 111.609296 
L 276.687119 108.059999 
L 278.479602 101.919338 
L 280.272085 100.842359 
L 282.064568 102.177415 
L 283.857051 105.727345 
L 285.649534 121.176656 
L 287.442017 122.142993 
L 289.2345 111.685884 
L 291.026984 106.024544 
L 292.819467 103.638522 
L 294.61195 100.993594 
L 296.404433 105.001994 
L 298.196916 109.670728 
L 299.989399 123.209878 
L 301.781882 112.075295 
L 303.574366 111.241125 
L 307.159332 100.738933 
L 308.951815 100.599481 
L 310.744298 102.575452 
L 312.536781 112.08696 
L 314.329264 123.831338 
L 316.121748 113.737283 
L 317.914231 108.7805 
L 319.706714 104.823474 
L 321.499197 100.190965 
L 323.29168 99.657945 
L 325.084163 104.422137 
L 326.876646 113.753205 
L 328.669129 126.489931 
L 330.461613 115.270137 
L 332.254096 107.747582 
L 334.046579 103.525829 
L 335.839062 99.634052 
L 337.631545 101.627601 
L 339.424028 107.731449 
L 341.216511 119.229166 
L 343.008995 122.644151 
L 344.801478 108.986137 
L 346.593961 110.932995 
L 348.386444 103.210586 
L 350.178927 104.556996 
L 351.97141 100.508246 
L 353.763893 108.683499 
L 355.556376 120.624297 
L 357.34886 119.468968 
L 360.933826 105.026847 
L 362.726309 105.154714 
L 364.518792 102.959811 
L 366.311275 102.947579 
L 368.103758 111.922094 
L 369.896242 126.462018 
L 371.688725 114.213146 
L 373.481208 107.957239 
L 375.273691 107.03326 
L 377.066174 103.478902 
L 378.858657 100.796761 
L 380.65114 105.726347 
L 382.443624 111.304818 
L 384.236107 122.223352 
L 386.02859 110.558164 
L 387.821073 107.190946 
L 389.613556 105.52463 
L 391.406039 104.3579 
L 393.198522 101.190221 
L 394.991005 105.776484 
L 396.783489 112.443092 
L 398.575972 120.186419 
L 400.368455 110.511095 
L 402.160938 106.645447 
L 403.953421 103.602477 
L 407.538387 99.650994 
L 409.330871 103.732968 
L 411.123354 119.491998 
L 412.915837 118.316078 
L 414.70832 109.768525 
L 416.500803 104.294832 
L 418.293286 102.218443 
L 420.085769 105.737452 
L 421.878252 99.260955 
L 423.670736 107.398675 
L 425.463219 124.791668 
L 427.255702 115.00565 
L 429.048185 112.129158 
L 430.840668 103.034708 
L 432.633151 100.118658 
L 434.425634 98.44785 
L 436.218118 100.458265 
L 438.010601 113.759785 
L 439.803084 123.402233 
L 441.595567 114.150302 
L 443.38805 111.600684 
L 445.180533 105.315634 
L 446.973016 102.534901 
L 448.7655 102.469911 
L 450.557983 106.475717 
L 452.350466 116.464898 
L 454.142949 122.978765 
L 455.935432 111.660051 
L 457.727915 109.012225 
L 459.520398 103.419549 
L 461.312881 103.271641 
L 463.105365 100.753916 
L 464.897848 105.414233 
L 466.690331 118.078911 
L 468.482814 123.031111 
L 470.275297 110.831131 
L 472.06778 105.76891 
L 473.860263 101.382541 
L 475.652747 99.487393 
L 477.44523 104.509221 
L 479.237713 108.985347 
L 481.030196 122.834713 
L 482.822679 116.186235 
L 484.615162 113.15287 
L 486.407645 105.40263 
L 488.200128 105.217098 
L 489.992612 100.731243 
L 491.785095 103.66804 
L 493.577578 110.687887 
L 495.370061 119.152833 
L 497.162544 114.404991 
L 498.955027 107.380437 
L 500.74751 104.54677 
L 502.539994 101.092194 
L 504.332477 101.536932 
L 506.12496 104.931317 
L 507.917443 111.8212 
L 509.709926 122.464387 
L 511.502409 113.25842 
L 513.294892 112.888497 
L 516.879859 101.708384 
L 518.672342 103.978059 
L 520.464825 105.293569 
L 522.257308 117.747146 
L 524.049791 124.091208 
L 525.842274 110.202363 
L 527.634757 105.426126 
L 529.427241 102.025949 
L 531.219724 101.116352 
L 533.012207 102.97709 
L 534.80469 108.470672 
L 536.597173 120.502061 
L 538.389656 118.183202 
L 540.182139 112.457968 
L 541.974623 105.375847 
L 543.767106 105.825421 
L 545.559589 100.237229 
L 547.352072 105.662216 
L 549.144555 112.643692 
L 550.937038 123.020655 
L 552.729521 116.295122 
L 554.522004 113.180109 
L 556.314488 107.229694 
L 559.899454 103.212546 
L 561.691937 103.622649 
L 563.48442 111.081544 
L 565.276903 120.138284 
L 567.069386 115.610575 
L 568.86187 106.719361 
L 570.654353 103.453712 
L 572.446836 105.787664 
L 574.239319 100.146511 
L 576.031802 103.515545 
L 579.616768 122.418648 
L 581.409252 108.94287 
L 583.201735 109.189393 
L 584.994218 102.774527 
L 586.786701 101.579303 
L 588.579184 100.974829 
L 590.371667 109.990353 
L 592.16415 117.553239 
L 593.956633 121.677469 
L 595.749117 113.569595 
L 597.5416 108.450132 
L 599.334083 104.549656 
L 601.126566 102.862221 
L 602.919049 102.823695 
L 604.711532 109.479616 
L 606.504015 118.646939 
L 608.296499 116.364748 
L 610.088982 112.393514 
L 611.881465 109.005668 
L 613.673948 100.792117 
L 615.466431 98.945941 
L 617.258914 98.200556 
L 619.051397 114.510415 
L 620.843881 122.60574 
L 622.636364 117.135428 
L 622.636364 117.135428 
" style="fill:none;stroke:#ff0000;stroke-linecap:square;"/>
   </g>
   <g id="patch_3">
    <path d="M 90 189 
L 90 25.92 
" style="fill:none;stroke:#000000;stroke-linecap:square;stroke-linejoin:miter;stroke-width:0.8;"/>
   </g>
   <g id="patch_4">
    <path d="M 648 189 
L 648 25.92 
" style="fill:none;stroke:#000000;stroke-linecap:square;stroke-linejoin:miter;stroke-width:0.8;"/>
   </g>
   <g id="patch_5">
    <path d="M 90 189 
L 648 189 
" style="fill:none;stroke:#000000;stroke-linecap:square;stroke-linejoin:miter;stroke-width:0.8;"/>
   </g>
   <g id="patch_6">
    <path d="M 90 25.92 
L 648 25.92 
" style="fill:none;stroke:#000000;stroke-linecap:square;stroke-linejoin:miter;stroke-width:0.8;"/>
   </g>
   <g id="text_16">
    <!-- PC1:0.64, PC2:0.44 -->
    <defs>
     <path d="M 19.671875 64.796875 
L 19.671875 37.40625 
L 32.078125 37.40625 
Q 38.96875 37.40625 42.71875 40.96875 
Q 46.484375 44.53125 46.484375 51.125 
Q 46.484375 57.671875 42.71875 61.234375 
Q 38.96875 64.796875 32.078125 64.796875 
z
M 9.8125 72.90625 
L 32.078125 72.90625 
Q 44.34375 72.90625 50.609375 67.359375 
Q 56.890625 61.8125 56.890625 51.125 
Q 56.890625 40.328125 50.609375 34.8125 
Q 44.34375 29.296875 32.078125 29.296875 
L 19.671875 29.296875 
L 19.671875 0 
L 9.8125 0 
z
" id="DejaVuSans-80"/>
     <path d="M 64.40625 67.28125 
L 64.40625 56.890625 
Q 59.421875 61.53125 53.78125 63.8125 
Q 48.140625 66.109375 41.796875 66.109375 
Q 29.296875 66.109375 22.65625 58.46875 
Q 16.015625 50.828125 16.015625 36.375 
Q 16.015625 21.96875 22.65625 14.328125 
Q 29.296875 6.6875 41.796875 6.6875 
Q 48.140625 6.6875 53.78125 8.984375 
Q 59.421875 11.28125 64.40625 15.921875 
L 64.40625 5.609375 
Q 59.234375 2.09375 53.4375 0.328125 
Q 47.65625 -1.421875 41.21875 -1.421875 
Q 24.65625 -1.421875 15.125 8.703125 
Q 5.609375 18.84375 5.609375 36.375 
Q 5.609375 53.953125 15.125 64.078125 
Q 24.65625 74.21875 41.21875 74.21875 
Q 47.75 74.21875 53.53125 72.484375 
Q 59.328125 70.75 64.40625 67.28125 
z
" id="DejaVuSans-67"/>
     <path d="M 11.71875 12.40625 
L 22.015625 12.40625 
L 22.015625 0 
L 11.71875 0 
z
M 11.71875 51.703125 
L 22.015625 51.703125 
L 22.015625 39.3125 
L 11.71875 39.3125 
z
" id="DejaVuSans-58"/>
     <path d="M 33.015625 40.375 
Q 26.375 40.375 22.484375 35.828125 
Q 18.609375 31.296875 18.609375 23.390625 
Q 18.609375 15.53125 22.484375 10.953125 
Q 26.375 6.390625 33.015625 6.390625 
Q 39.65625 6.390625 43.53125 10.953125 
Q 47.40625 15.53125 47.40625 23.390625 
Q 47.40625 31.296875 43.53125 35.828125 
Q 39.65625 40.375 33.015625 40.375 
z
M 52.59375 71.296875 
L 52.59375 62.3125 
Q 48.875 64.0625 45.09375 64.984375 
Q 41.3125 65.921875 37.59375 65.921875 
Q 27.828125 65.921875 22.671875 59.328125 
Q 17.53125 52.734375 16.796875 39.40625 
Q 19.671875 43.65625 24.015625 45.921875 
Q 28.375 48.1875 33.59375 48.1875 
Q 44.578125 48.1875 50.953125 41.515625 
Q 57.328125 34.859375 57.328125 23.390625 
Q 57.328125 12.15625 50.6875 5.359375 
Q 44.046875 -1.421875 33.015625 -1.421875 
Q 20.359375 -1.421875 13.671875 8.265625 
Q 6.984375 17.96875 6.984375 36.375 
Q 6.984375 53.65625 15.1875 63.9375 
Q 23.390625 74.21875 37.203125 74.21875 
Q 40.921875 74.21875 44.703125 73.484375 
Q 48.484375 72.75 52.59375 71.296875 
z
" id="DejaVuSans-54"/>
     <path d="M 37.796875 64.3125 
L 12.890625 25.390625 
L 37.796875 25.390625 
z
M 35.203125 72.90625 
L 47.609375 72.90625 
L 47.609375 25.390625 
L 58.015625 25.390625 
L 58.015625 17.1875 
L 47.609375 17.1875 
L 47.609375 0 
L 37.796875 0 
L 37.796875 17.1875 
L 4.890625 17.1875 
L 4.890625 26.703125 
z
" id="DejaVuSans-52"/>
     <path d="M 11.71875 12.40625 
L 22.015625 12.40625 
L 22.015625 4 
L 14.015625 -11.625 
L 7.71875 -11.625 
L 11.71875 4 
z
" id="DejaVuSans-44"/>
     <path id="DejaVuSans-32"/>
    </defs>
    <g transform="translate(311.175 19.92)scale(0.12 -0.12)">
     <use xlink:href="#DejaVuSans-80"/>
     <use x="60.302734" xlink:href="#DejaVuSans-67"/>
     <use x="130.126953" xlink:href="#DejaVuSans-49"/>
     <use x="193.75" xlink:href="#DejaVuSans-58"/>
     <use x="227.441406" xlink:href="#DejaVuSans-48"/>
     <use x="291.064453" xlink:href="#DejaVuSans-46"/>
     <use x="322.851562" xlink:href="#DejaVuSans-54"/>
     <use x="386.474609" xlink:href="#DejaVuSans-52"/>
     <use x="450.097656" xlink:href="#DejaVuSans-44"/>
     <use x="481.884766" xlink:href="#DejaVuSans-32"/>
     <use x="513.671875" xlink:href="#DejaVuSans-80"/>
     <use x="573.974609" xlink:href="#DejaVuSans-67"/>
     <use x="643.798828" xlink:href="#DejaVuSans-50"/>
     <use x="707.421875" xlink:href="#DejaVuSans-58"/>
     <use x="741.113281" xlink:href="#DejaVuSans-48"/>
     <use x="804.736328" xlink:href="#DejaVuSans-46"/>
     <use x="836.523438" xlink:href="#DejaVuSans-52"/>
     <use x="900.146484" xlink:href="#DejaVuSans-52"/>
    </g>
   </g>
  </g>
 </g>
 <defs>
  <clipPath id="pa592aef640">
   <rect height="163.08" width="558" x="90" y="25.92"/>
  </clipPath>
 </defs>
</svg>
