<?xml version="1.0" encoding="utf-8" standalone="no"?>
<!DOCTYPE svg PUBLIC "-//W3C//DTD SVG 1.1//EN"
  "http://www.w3.org/Graphics/SVG/1.1/DTD/svg11.dtd">
<!-- Created with matplotlib (https://matplotlib.org/) -->
<svg height="216pt" version="1.1" viewBox="0 0 720 216" width="720pt" xmlns="http://www.w3.org/2000/svg" xmlns:xlink="http://www.w3.org/1999/xlink">
 <defs>
  <style type="text/css">
*{stroke-linecap:butt;stroke-linejoin:round;}
  </style>
 </defs>
 <g id="figure_1">
  <g id="patch_1">
   <path d="M 0 216 
L 720 216 
L 720 0 
L 0 0 
z
" style="fill:none;"/>
  </g>
  <g id="axes_1">
   <g id="patch_2">
    <path d="M 90 189 
L 648 189 
L 648 25.92 
L 90 25.92 
z
" style="fill:none;"/>
   </g>
   <g id="matplotlib.axis_1">
    <g id="xtick_1">
     <g id="line2d_1">
      <defs>
       <path d="M 0 0 
L 0 3.5 
" id="m61374c880b" style="stroke:#000000;stroke-width:0.8;"/>
      </defs>
      <g>
       <use style="stroke:#000000;stroke-width:0.8;" x="115.363636" xlink:href="#m61374c880b" y="189"/>
      </g>
     </g>
     <g id="text_1">
      <!-- 0 -->
      <defs>
       <path d="M 31.78125 66.40625 
Q 24.171875 66.40625 20.328125 58.90625 
Q 16.5 51.421875 16.5 36.375 
Q 16.5 21.390625 20.328125 13.890625 
Q 24.171875 6.390625 31.78125 6.390625 
Q 39.453125 6.390625 43.28125 13.890625 
Q 47.125 21.390625 47.125 36.375 
Q 47.125 51.421875 43.28125 58.90625 
Q 39.453125 66.40625 31.78125 66.40625 
z
M 31.78125 74.21875 
Q 44.046875 74.21875 50.515625 64.515625 
Q 56.984375 54.828125 56.984375 36.375 
Q 56.984375 17.96875 50.515625 8.265625 
Q 44.046875 -1.421875 31.78125 -1.421875 
Q 19.53125 -1.421875 13.0625 8.265625 
Q 6.59375 17.96875 6.59375 36.375 
Q 6.59375 54.828125 13.0625 64.515625 
Q 19.53125 74.21875 31.78125 74.21875 
z
" id="DejaVuSans-48"/>
      </defs>
      <g transform="translate(112.182386 203.598437)scale(0.1 -0.1)">
       <use xlink:href="#DejaVuSans-48"/>
      </g>
     </g>
    </g>
    <g id="xtick_2">
     <g id="line2d_2">
      <g>
       <use style="stroke:#000000;stroke-width:0.8;" x="229.872153" xlink:href="#m61374c880b" y="189"/>
      </g>
     </g>
     <g id="text_2">
      <!-- 100 -->
      <defs>
       <path d="M 12.40625 8.296875 
L 28.515625 8.296875 
L 28.515625 63.921875 
L 10.984375 60.40625 
L 10.984375 69.390625 
L 28.421875 72.90625 
L 38.28125 72.90625 
L 38.28125 8.296875 
L 54.390625 8.296875 
L 54.390625 0 
L 12.40625 0 
z
" id="DejaVuSans-49"/>
      </defs>
      <g transform="translate(220.328403 203.598437)scale(0.1 -0.1)">
       <use xlink:href="#DejaVuSans-49"/>
       <use x="63.623047" xlink:href="#DejaVuSans-48"/>
       <use x="127.246094" xlink:href="#DejaVuSans-48"/>
      </g>
     </g>
    </g>
    <g id="xtick_3">
     <g id="line2d_3">
      <g>
       <use style="stroke:#000000;stroke-width:0.8;" x="344.380669" xlink:href="#m61374c880b" y="189"/>
      </g>
     </g>
     <g id="text_3">
      <!-- 200 -->
      <defs>
       <path d="M 19.1875 8.296875 
L 53.609375 8.296875 
L 53.609375 0 
L 7.328125 0 
L 7.328125 8.296875 
Q 12.9375 14.109375 22.625 23.890625 
Q 32.328125 33.6875 34.8125 36.53125 
Q 39.546875 41.84375 41.421875 45.53125 
Q 43.3125 49.21875 43.3125 52.78125 
Q 43.3125 58.59375 39.234375 62.25 
Q 35.15625 65.921875 28.609375 65.921875 
Q 23.96875 65.921875 18.8125 64.3125 
Q 13.671875 62.703125 7.8125 59.421875 
L 7.8125 69.390625 
Q 13.765625 71.78125 18.9375 73 
Q 24.125 74.21875 28.421875 74.21875 
Q 39.75 74.21875 46.484375 68.546875 
Q 53.21875 62.890625 53.21875 53.421875 
Q 53.21875 48.921875 51.53125 44.890625 
Q 49.859375 40.875 45.40625 35.40625 
Q 44.1875 33.984375 37.640625 27.21875 
Q 31.109375 20.453125 19.1875 8.296875 
z
" id="DejaVuSans-50"/>
      </defs>
      <g transform="translate(334.836919 203.598437)scale(0.1 -0.1)">
       <use xlink:href="#DejaVuSans-50"/>
       <use x="63.623047" xlink:href="#DejaVuSans-48"/>
       <use x="127.246094" xlink:href="#DejaVuSans-48"/>
      </g>
     </g>
    </g>
    <g id="xtick_4">
     <g id="line2d_4">
      <g>
       <use style="stroke:#000000;stroke-width:0.8;" x="458.889185" xlink:href="#m61374c880b" y="189"/>
      </g>
     </g>
     <g id="text_4">
      <!-- 300 -->
      <defs>
       <path d="M 40.578125 39.3125 
Q 47.65625 37.796875 51.625 33 
Q 55.609375 28.21875 55.609375 21.1875 
Q 55.609375 10.40625 48.1875 4.484375 
Q 40.765625 -1.421875 27.09375 -1.421875 
Q 22.515625 -1.421875 17.65625 -0.515625 
Q 12.796875 0.390625 7.625 2.203125 
L 7.625 11.71875 
Q 11.71875 9.328125 16.59375 8.109375 
Q 21.484375 6.890625 26.8125 6.890625 
Q 36.078125 6.890625 40.9375 10.546875 
Q 45.796875 14.203125 45.796875 21.1875 
Q 45.796875 27.640625 41.28125 31.265625 
Q 36.765625 34.90625 28.71875 34.90625 
L 20.21875 34.90625 
L 20.21875 43.015625 
L 29.109375 43.015625 
Q 36.375 43.015625 40.234375 45.921875 
Q 44.09375 48.828125 44.09375 54.296875 
Q 44.09375 59.90625 40.109375 62.90625 
Q 36.140625 65.921875 28.71875 65.921875 
Q 24.65625 65.921875 20.015625 65.03125 
Q 15.375 64.15625 9.8125 62.3125 
L 9.8125 71.09375 
Q 15.4375 72.65625 20.34375 73.4375 
Q 25.25 74.21875 29.59375 74.21875 
Q 40.828125 74.21875 47.359375 69.109375 
Q 53.90625 64.015625 53.90625 55.328125 
Q 53.90625 49.265625 50.4375 45.09375 
Q 46.96875 40.921875 40.578125 39.3125 
z
" id="DejaVuSans-51"/>
      </defs>
      <g transform="translate(449.345435 203.598437)scale(0.1 -0.1)">
       <use xlink:href="#DejaVuSans-51"/>
       <use x="63.623047" xlink:href="#DejaVuSans-48"/>
       <use x="127.246094" xlink:href="#DejaVuSans-48"/>
      </g>
     </g>
    </g>
    <g id="xtick_5">
     <g id="line2d_5">
      <g>
       <use style="stroke:#000000;stroke-width:0.8;" x="573.397702" xlink:href="#m61374c880b" y="189"/>
      </g>
     </g>
     <g id="text_5">
      <!-- 400 -->
      <defs>
       <path d="M 37.796875 64.3125 
L 12.890625 25.390625 
L 37.796875 25.390625 
z
M 35.203125 72.90625 
L 47.609375 72.90625 
L 47.609375 25.390625 
L 58.015625 25.390625 
L 58.015625 17.1875 
L 47.609375 17.1875 
L 47.609375 0 
L 37.796875 0 
L 37.796875 17.1875 
L 4.890625 17.1875 
L 4.890625 26.703125 
z
" id="DejaVuSans-52"/>
      </defs>
      <g transform="translate(563.853952 203.598437)scale(0.1 -0.1)">
       <use xlink:href="#DejaVuSans-52"/>
       <use x="63.623047" xlink:href="#DejaVuSans-48"/>
       <use x="127.246094" xlink:href="#DejaVuSans-48"/>
      </g>
     </g>
    </g>
   </g>
   <g id="matplotlib.axis_2">
    <g id="ytick_1">
     <g id="line2d_6">
      <defs>
       <path d="M 0 0 
L -3.5 0 
" id="m4f0660c8ab" style="stroke:#000000;stroke-width:0.8;"/>
      </defs>
      <g>
       <use style="stroke:#000000;stroke-width:0.8;" x="90" xlink:href="#m4f0660c8ab" y="189"/>
      </g>
     </g>
     <g id="text_6">
      <!-- −2.0 -->
      <defs>
       <path d="M 10.59375 35.5 
L 73.1875 35.5 
L 73.1875 27.203125 
L 10.59375 27.203125 
z
" id="DejaVuSans-8722"/>
       <path d="M 10.6875 12.40625 
L 21 12.40625 
L 21 0 
L 10.6875 0 
z
" id="DejaVuSans-46"/>
      </defs>
      <g transform="translate(58.717187 192.799219)scale(0.1 -0.1)">
       <use xlink:href="#DejaVuSans-8722"/>
       <use x="83.789062" xlink:href="#DejaVuSans-50"/>
       <use x="147.412109" xlink:href="#DejaVuSans-46"/>
       <use x="179.199219" xlink:href="#DejaVuSans-48"/>
      </g>
     </g>
    </g>
    <g id="ytick_2">
     <g id="line2d_7">
      <g>
       <use style="stroke:#000000;stroke-width:0.8;" x="90" xlink:href="#m4f0660c8ab" y="168.615"/>
      </g>
     </g>
     <g id="text_7">
      <!-- −1.5 -->
      <defs>
       <path d="M 10.796875 72.90625 
L 49.515625 72.90625 
L 49.515625 64.59375 
L 19.828125 64.59375 
L 19.828125 46.734375 
Q 21.96875 47.46875 24.109375 47.828125 
Q 26.265625 48.1875 28.421875 48.1875 
Q 40.625 48.1875 47.75 41.5 
Q 54.890625 34.8125 54.890625 23.390625 
Q 54.890625 11.625 47.5625 5.09375 
Q 40.234375 -1.421875 26.90625 -1.421875 
Q 22.3125 -1.421875 17.546875 -0.640625 
Q 12.796875 0.140625 7.71875 1.703125 
L 7.71875 11.625 
Q 12.109375 9.234375 16.796875 8.0625 
Q 21.484375 6.890625 26.703125 6.890625 
Q 35.15625 6.890625 40.078125 11.328125 
Q 45.015625 15.765625 45.015625 23.390625 
Q 45.015625 31 40.078125 35.4375 
Q 35.15625 39.890625 26.703125 39.890625 
Q 22.75 39.890625 18.8125 39.015625 
Q 14.890625 38.140625 10.796875 36.28125 
z
" id="DejaVuSans-53"/>
      </defs>
      <g transform="translate(58.717187 172.414219)scale(0.1 -0.1)">
       <use xlink:href="#DejaVuSans-8722"/>
       <use x="83.789062" xlink:href="#DejaVuSans-49"/>
       <use x="147.412109" xlink:href="#DejaVuSans-46"/>
       <use x="179.199219" xlink:href="#DejaVuSans-53"/>
      </g>
     </g>
    </g>
    <g id="ytick_3">
     <g id="line2d_8">
      <g>
       <use style="stroke:#000000;stroke-width:0.8;" x="90" xlink:href="#m4f0660c8ab" y="148.23"/>
      </g>
     </g>
     <g id="text_8">
      <!-- −1.0 -->
      <g transform="translate(58.717187 152.029219)scale(0.1 -0.1)">
       <use xlink:href="#DejaVuSans-8722"/>
       <use x="83.789062" xlink:href="#DejaVuSans-49"/>
       <use x="147.412109" xlink:href="#DejaVuSans-46"/>
       <use x="179.199219" xlink:href="#DejaVuSans-48"/>
      </g>
     </g>
    </g>
    <g id="ytick_4">
     <g id="line2d_9">
      <g>
       <use style="stroke:#000000;stroke-width:0.8;" x="90" xlink:href="#m4f0660c8ab" y="127.845"/>
      </g>
     </g>
     <g id="text_9">
      <!-- −0.5 -->
      <g transform="translate(58.717187 131.644219)scale(0.1 -0.1)">
       <use xlink:href="#DejaVuSans-8722"/>
       <use x="83.789062" xlink:href="#DejaVuSans-48"/>
       <use x="147.412109" xlink:href="#DejaVuSans-46"/>
       <use x="179.199219" xlink:href="#DejaVuSans-53"/>
      </g>
     </g>
    </g>
    <g id="ytick_5">
     <g id="line2d_10">
      <g>
       <use style="stroke:#000000;stroke-width:0.8;" x="90" xlink:href="#m4f0660c8ab" y="107.46"/>
      </g>
     </g>
     <g id="text_10">
      <!-- 0.0 -->
      <g transform="translate(67.096875 111.259219)scale(0.1 -0.1)">
       <use xlink:href="#DejaVuSans-48"/>
       <use x="63.623047" xlink:href="#DejaVuSans-46"/>
       <use x="95.410156" xlink:href="#DejaVuSans-48"/>
      </g>
     </g>
    </g>
    <g id="ytick_6">
     <g id="line2d_11">
      <g>
       <use style="stroke:#000000;stroke-width:0.8;" x="90" xlink:href="#m4f0660c8ab" y="87.075"/>
      </g>
     </g>
     <g id="text_11">
      <!-- 0.5 -->
      <g transform="translate(67.096875 90.874219)scale(0.1 -0.1)">
       <use xlink:href="#DejaVuSans-48"/>
       <use x="63.623047" xlink:href="#DejaVuSans-46"/>
       <use x="95.410156" xlink:href="#DejaVuSans-53"/>
      </g>
     </g>
    </g>
    <g id="ytick_7">
     <g id="line2d_12">
      <g>
       <use style="stroke:#000000;stroke-width:0.8;" x="90" xlink:href="#m4f0660c8ab" y="66.69"/>
      </g>
     </g>
     <g id="text_12">
      <!-- 1.0 -->
      <g transform="translate(67.096875 70.489219)scale(0.1 -0.1)">
       <use xlink:href="#DejaVuSans-49"/>
       <use x="63.623047" xlink:href="#DejaVuSans-46"/>
       <use x="95.410156" xlink:href="#DejaVuSans-48"/>
      </g>
     </g>
    </g>
    <g id="ytick_8">
     <g id="line2d_13">
      <g>
       <use style="stroke:#000000;stroke-width:0.8;" x="90" xlink:href="#m4f0660c8ab" y="46.305"/>
      </g>
     </g>
     <g id="text_13">
      <!-- 1.5 -->
      <g transform="translate(67.096875 50.104219)scale(0.1 -0.1)">
       <use xlink:href="#DejaVuSans-49"/>
       <use x="63.623047" xlink:href="#DejaVuSans-46"/>
       <use x="95.410156" xlink:href="#DejaVuSans-53"/>
      </g>
     </g>
    </g>
    <g id="ytick_9">
     <g id="line2d_14">
      <g>
       <use style="stroke:#000000;stroke-width:0.8;" x="90" xlink:href="#m4f0660c8ab" y="25.92"/>
      </g>
     </g>
     <g id="text_14">
      <!-- 2.0 -->
      <g transform="translate(67.096875 29.719219)scale(0.1 -0.1)">
       <use xlink:href="#DejaVuSans-50"/>
       <use x="63.623047" xlink:href="#DejaVuSans-46"/>
       <use x="95.410156" xlink:href="#DejaVuSans-48"/>
      </g>
     </g>
    </g>
   </g>
   <g id="line2d_15">
    <path clip-path="url(#pc972e8c6eb)" d="M 115.363636 77.677139 
L 116.508722 84.255107 
L 117.653807 78.784179 
L 118.798892 79.390953 
L 119.943977 79.450491 
L 121.089062 77.606805 
L 122.234147 79.493646 
L 123.379233 78.424527 
L 124.524318 80.246582 
L 125.669403 78.387153 
L 126.814488 79.580145 
L 127.959573 78.010748 
L 129.104658 79.57617 
L 130.249743 76.573484 
L 131.394829 80.150173 
L 132.539914 78.628351 
L 133.684999 78.35145 
L 134.830084 80.659141 
L 135.975169 79.997939 
L 137.120254 75.634342 
L 139.410425 80.189369 
L 140.55551 78.035556 
L 141.700595 80.928719 
L 142.84568 78.254086 
L 143.990765 79.089486 
L 145.135851 75.663144 
L 146.280936 79.332721 
L 147.426021 78.317086 
L 148.571106 79.393266 
L 149.716191 78.965264 
L 150.861276 82.886991 
L 152.006362 79.292789 
L 153.151447 77.988317 
L 154.296532 79.767328 
L 155.441617 78.228758 
L 156.586702 79.956626 
L 157.731787 78.325469 
L 158.876873 77.737434 
L 160.021958 79.77285 
L 161.167043 78.020454 
L 162.312128 79.819514 
L 163.457213 79.704969 
L 164.602298 77.741125 
L 165.747384 77.176307 
L 166.892469 80.014512 
L 168.037554 79.346685 
L 169.182639 82.287322 
L 170.327724 80.173953 
L 171.472809 79.642351 
L 172.617895 78.767167 
L 173.76298 79.672058 
L 174.908065 81.42596 
L 176.05315 76.309302 
L 177.198235 77.608301 
L 178.34332 80.883276 
L 179.488405 78.592789 
L 180.633491 77.83536 
L 181.778576 76.634223 
L 182.923661 80.928596 
L 184.068746 80.226249 
L 185.213831 82.589584 
L 186.358916 79.657804 
L 187.504002 80.8979 
L 188.649087 76.613078 
L 189.794172 77.600924 
L 190.939257 80.453241 
L 192.084342 78.394935 
L 193.229427 77.408873 
L 194.374513 75.163211 
L 195.519598 79.01225 
L 196.664683 79.256292 
L 197.809768 80.090677 
L 198.954853 78.880129 
L 200.099938 76.778387 
L 201.245024 79.11861 
L 203.535194 78.13322 
L 204.680279 76.235563 
L 205.825364 79.414376 
L 206.970449 77.61444 
L 208.115535 78.60689 
L 209.26062 79.208583 
L 210.405705 79.43638 
L 211.55079 79.151548 
L 212.695875 79.526676 
L 213.84096 77.697759 
L 214.986046 79.836761 
L 216.131131 76.25282 
L 217.276216 80.29232 
L 218.421301 75.954364 
L 219.566386 80.2635 
L 220.711471 78.130284 
L 221.856557 77.941269 
L 223.001642 78.585183 
L 224.146727 76.532569 
L 225.291812 79.398692 
L 226.436897 77.203293 
L 227.581982 78.719803 
L 228.727068 79.356751 
L 229.872153 78.113549 
L 231.017238 78.362406 
L 232.162323 78.373812 
L 233.307408 79.724861 
L 234.452493 80.584301 
L 235.597578 80.05188 
L 236.742664 79.038255 
L 237.887749 78.656226 
L 239.032834 78.631484 
L 240.177919 79.911076 
L 241.323004 77.999671 
L 242.468089 76.727287 
L 243.613175 78.802119 
L 244.75826 79.55911 
L 245.903345 79.595854 
L 247.04843 76.175276 
L 248.193515 78.566471 
L 249.3386 78.739151 
L 250.483686 78.29413 
L 251.628771 80.170665 
L 252.773856 76.51911 
L 253.918941 78.750948 
L 255.064026 78.374608 
L 256.209111 78.390098 
L 257.354197 79.948649 
L 258.499282 79.762652 
L 259.644367 79.097877 
L 260.789452 79.343975 
L 261.934537 77.20643 
L 263.079622 79.463703 
L 264.224708 78.222137 
L 265.369793 80.610411 
L 266.514878 81.08583 
L 267.659963 78.730542 
L 268.805048 78.610781 
L 269.950133 78.74301 
L 271.095219 75.837196 
L 272.240304 77.173633 
L 273.385389 78.165148 
L 274.530474 79.919448 
L 275.675559 78.194675 
L 276.820644 77.632851 
L 277.96573 77.589755 
L 279.110815 77.318979 
L 280.2559 77.636759 
L 281.400985 76.10751 
L 282.54607 80.087953 
L 283.691155 79.419002 
L 284.836241 80.829906 
L 285.981326 79.285391 
L 287.126411 80.441781 
L 288.271496 77.145376 
L 289.416581 77.435716 
L 290.561666 75.968353 
L 291.706751 75.187101 
L 292.851837 80.989479 
L 293.996922 78.006219 
L 295.142007 76.987105 
L 296.287092 78.328698 
L 297.432177 78.307154 
L 298.577262 78.868055 
L 299.722348 78.4341 
L 300.867433 76.676773 
L 302.012518 77.590044 
L 303.157603 80.027318 
L 304.302688 77.328626 
L 305.447773 78.073913 
L 306.592859 78.481081 
L 307.737944 78.689635 
L 308.883029 82.169268 
L 310.028114 78.938313 
L 311.173199 80.260929 
L 312.318284 79.313757 
L 313.46337 79.446194 
L 314.608455 78.746859 
L 315.75354 78.920384 
L 316.898625 76.660346 
L 318.04371 77.192283 
L 319.188795 77.410558 
L 320.333881 79.723594 
L 321.478966 77.921466 
L 324.914221 77.747023 
L 326.059306 77.159088 
L 327.204392 77.913721 
L 328.349477 77.471601 
L 329.494562 80.276412 
L 330.639647 77.453318 
L 331.784732 78.744342 
L 332.929817 77.615965 
L 334.074903 77.825542 
L 335.219988 77.653863 
L 336.365073 79.487107 
L 337.510158 77.276772 
L 338.655243 81.297839 
L 339.800328 76.950812 
L 340.945414 78.675684 
L 342.090499 76.459183 
L 343.235584 75.545582 
L 344.380669 78.182066 
L 345.525754 78.452924 
L 346.670839 79.639712 
L 347.815924 78.553888 
L 348.96101 78.896746 
L 350.106095 79.468898 
L 351.25118 78.677795 
L 352.396265 79.714656 
L 353.54135 79.719727 
L 354.686435 78.468861 
L 355.831521 74.963383 
L 356.976606 77.312805 
L 358.121691 78.311778 
L 359.266776 77.328395 
L 360.411861 77.605068 
L 361.556946 79.951549 
L 362.702032 78.23377 
L 363.847117 78.278643 
L 364.992202 81.03559 
L 366.137287 78.07986 
L 367.282372 78.789652 
L 368.427457 79.753485 
L 369.572543 77.767697 
L 370.717628 78.208136 
L 371.862713 76.915126 
L 373.007798 81.38016 
L 374.152883 75.821615 
L 375.297968 73.01532 
L 376.443054 80.828609 
L 378.733224 74.21441 
L 379.878309 78.674161 
L 381.023394 80.035312 
L 382.168479 77.263038 
L 383.313565 76.711891 
L 384.45865 80.242705 
L 385.603735 80.334497 
L 387.893905 77.346766 
L 389.03899 80.477292 
L 390.184076 76.97986 
L 391.329161 80.445504 
L 392.474246 79.539335 
L 393.619331 75.865259 
L 394.764416 75.899541 
L 395.909501 76.476645 
L 397.054586 75.835511 
L 398.199672 78.32198 
L 399.344757 80.367334 
L 400.489842 78.690256 
L 401.634927 79.317558 
L 402.780012 76.956686 
L 403.925097 78.916133 
L 405.070183 78.354185 
L 406.215268 80.19093 
L 407.360353 77.997474 
L 408.505438 80.412246 
L 409.650523 80.534514 
L 410.795608 81.330725 
L 411.940694 79.574498 
L 413.085779 79.327284 
L 414.230864 79.98175 
L 415.375949 79.46422 
L 416.521034 79.880833 
L 417.666119 78.618915 
L 418.811205 79.108338 
L 419.95629 80.436053 
L 421.101375 78.123931 
L 422.24646 77.594987 
L 423.391545 78.880179 
L 424.53663 79.669112 
L 425.681716 80.257426 
L 426.826801 79.788685 
L 427.971886 78.253048 
L 429.116971 77.794105 
L 430.262056 79.393569 
L 431.407141 78.630414 
L 432.552227 79.144031 
L 433.697312 78.497163 
L 434.842397 80.065596 
L 435.987482 79.138687 
L 437.132567 80.500878 
L 438.277652 79.899137 
L 439.422738 81.215823 
L 440.567823 79.981649 
L 441.712908 79.171928 
L 442.857993 75.817716 
L 444.003078 78.197288 
L 445.148163 78.217705 
L 446.293249 77.320137 
L 447.438334 75.741623 
L 448.583419 77.458647 
L 449.728504 80.198661 
L 453.163759 79.269949 
L 454.308845 79.486296 
L 455.45393 80.588777 
L 456.599015 75.123752 
L 457.7441 78.837547 
L 458.889185 77.501469 
L 460.03427 78.732836 
L 461.179356 78.354402 
L 462.324441 81.553042 
L 463.469526 78.114962 
L 464.614611 79.45541 
L 465.759696 78.475095 
L 466.904781 78.349824 
L 468.049867 79.803441 
L 469.194952 76.919669 
L 470.340037 78.815924 
L 471.485122 78.328646 
L 472.630207 77.535002 
L 473.775292 76.047627 
L 474.920378 79.769194 
L 476.065463 81.859614 
L 477.210548 76.862821 
L 478.355633 77.75468 
L 479.500718 81.065634 
L 480.645803 81.363411 
L 481.790889 80.659549 
L 482.935974 80.59377 
L 484.081059 77.573898 
L 485.226144 78.828787 
L 486.371229 77.186983 
L 487.516314 75.989585 
L 488.6614 80.040559 
L 489.806485 77.595492 
L 490.95157 76.669346 
L 492.096655 79.53086 
L 493.24174 76.135757 
L 494.386825 76.537888 
L 495.531911 79.355652 
L 496.676996 79.634758 
L 497.822081 78.776927 
L 498.967166 80.650176 
L 500.112251 75.443728 
L 501.257336 76.851289 
L 502.402422 75.626954 
L 503.547507 79.190536 
L 504.692592 77.5137 
L 505.837677 78.846863 
L 506.982762 77.305432 
L 508.127847 78.136334 
L 509.272932 75.387126 
L 510.418018 78.927065 
L 511.563103 81.482222 
L 512.708188 79.436786 
L 513.853273 77.806461 
L 514.998358 80.988418 
L 516.143443 78.179779 
L 517.288529 79.551512 
L 518.433614 75.99395 
L 519.578699 78.707983 
L 520.723784 75.932283 
L 521.868869 78.722856 
L 523.013954 79.465584 
L 524.15904 79.423914 
L 525.304125 77.25685 
L 527.594295 82.583557 
L 528.73938 79.988801 
L 529.884465 78.805178 
L 531.029551 79.424826 
L 532.174636 78.205895 
L 533.319721 77.595661 
L 534.464806 77.298753 
L 535.609891 77.592941 
L 536.754976 80.308777 
L 537.900062 77.760606 
L 539.045147 79.355601 
L 540.190232 78.441378 
L 541.335317 82.233265 
L 542.480402 78.757874 
L 543.625487 77.635787 
L 544.770573 79.179246 
L 545.915658 77.373475 
L 547.060743 79.65847 
L 548.205828 80.218868 
L 549.350913 78.002902 
L 550.495998 76.925315 
L 551.641084 78.268606 
L 552.786169 81.936505 
L 553.931254 79.3636 
L 555.076339 76.127707 
L 556.221424 76.943368 
L 557.366509 78.981666 
L 558.511595 79.170548 
L 560.801765 77.610933 
L 561.94685 78.567816 
L 563.091935 79.373594 
L 564.23702 78.301734 
L 565.382105 81.497409 
L 566.527191 77.564758 
L 567.672276 80.318171 
L 568.817361 81.037179 
L 569.962446 76.950662 
L 571.107531 80.941 
L 572.252616 79.505489 
L 573.397702 81.087637 
L 574.542787 76.436286 
L 575.687872 77.807455 
L 576.832957 77.587413 
L 577.978042 76.914743 
L 579.123127 76.52608 
L 580.268213 74.554905 
L 581.413298 79.030816 
L 582.558383 77.400447 
L 583.703468 79.166757 
L 585.993638 77.039039 
L 587.138724 79.940651 
L 588.283809 81.50411 
L 589.428894 78.687006 
L 590.573979 79.233505 
L 591.719064 81.209622 
L 592.864149 77.608903 
L 594.009235 79.333011 
L 595.15432 77.906495 
L 596.299405 78.759819 
L 597.44449 78.412236 
L 598.589575 77.672189 
L 599.73466 77.431014 
L 602.024831 78.205477 
L 603.169916 78.195116 
L 604.315001 78.576885 
L 605.460086 80.267747 
L 606.605171 79.05248 
L 610.040427 79.265005 
L 611.185512 76.296411 
L 612.330597 75.109921 
L 613.475682 76.787651 
L 614.620767 79.766927 
L 615.765853 79.150408 
L 616.910938 79.533121 
L 618.056023 82.390448 
L 619.201108 78.790417 
L 620.346193 78.080238 
L 621.491278 78.432743 
L 622.636364 79.86926 
L 622.636364 79.86926 
" style="fill:none;stroke:#472d7b;stroke-linecap:square;"/>
   </g>
   <g id="patch_3">
    <path d="M 90 189 
L 90 25.92 
" style="fill:none;stroke:#000000;stroke-linecap:square;stroke-linejoin:miter;stroke-width:0.8;"/>
   </g>
   <g id="patch_4">
    <path d="M 648 189 
L 648 25.92 
" style="fill:none;stroke:#000000;stroke-linecap:square;stroke-linejoin:miter;stroke-width:0.8;"/>
   </g>
   <g id="patch_5">
    <path d="M 90 189 
L 648 189 
" style="fill:none;stroke:#000000;stroke-linecap:square;stroke-linejoin:miter;stroke-width:0.8;"/>
   </g>
   <g id="patch_6">
    <path d="M 90 25.92 
L 648 25.92 
" style="fill:none;stroke:#000000;stroke-linecap:square;stroke-linejoin:miter;stroke-width:0.8;"/>
   </g>
  </g>
 </g>
 <defs>
  <clipPath id="pc972e8c6eb">
   <rect height="163.08" width="558" x="90" y="25.92"/>
  </clipPath>
 </defs>
</svg>
