<?xml version="1.0" encoding="utf-8" standalone="no"?>
<!DOCTYPE svg PUBLIC "-//W3C//DTD SVG 1.1//EN"
  "http://www.w3.org/Graphics/SVG/1.1/DTD/svg11.dtd">
<!-- Created with matplotlib (https://matplotlib.org/) -->
<svg height="216pt" version="1.1" viewBox="0 0 720 216" width="720pt" xmlns="http://www.w3.org/2000/svg" xmlns:xlink="http://www.w3.org/1999/xlink">
 <defs>
  <style type="text/css">
*{stroke-linecap:butt;stroke-linejoin:round;}
  </style>
 </defs>
 <g id="figure_1">
  <g id="patch_1">
   <path d="M 0 216 
L 720 216 
L 720 0 
L 0 0 
z
" style="fill:none;"/>
  </g>
  <g id="axes_1">
   <g id="patch_2">
    <path d="M 90 189 
L 648 189 
L 648 25.92 
L 90 25.92 
z
" style="fill:none;"/>
   </g>
   <g id="matplotlib.axis_1">
    <g id="xtick_1">
     <g id="line2d_1">
      <defs>
       <path d="M 0 0 
L 0 3.5 
" id="m4843d01b4e" style="stroke:#000000;stroke-width:0.8;"/>
      </defs>
      <g>
       <use style="stroke:#000000;stroke-width:0.8;" x="115.363636" xlink:href="#m4843d01b4e" y="189"/>
      </g>
     </g>
     <g id="text_1">
      <!-- 0 -->
      <defs>
       <path d="M 31.78125 66.40625 
Q 24.171875 66.40625 20.328125 58.90625 
Q 16.5 51.421875 16.5 36.375 
Q 16.5 21.390625 20.328125 13.890625 
Q 24.171875 6.390625 31.78125 6.390625 
Q 39.453125 6.390625 43.28125 13.890625 
Q 47.125 21.390625 47.125 36.375 
Q 47.125 51.421875 43.28125 58.90625 
Q 39.453125 66.40625 31.78125 66.40625 
z
M 31.78125 74.21875 
Q 44.046875 74.21875 50.515625 64.515625 
Q 56.984375 54.828125 56.984375 36.375 
Q 56.984375 17.96875 50.515625 8.265625 
Q 44.046875 -1.421875 31.78125 -1.421875 
Q 19.53125 -1.421875 13.0625 8.265625 
Q 6.59375 17.96875 6.59375 36.375 
Q 6.59375 54.828125 13.0625 64.515625 
Q 19.53125 74.21875 31.78125 74.21875 
z
" id="DejaVuSans-48"/>
      </defs>
      <g transform="translate(112.182386 203.598437)scale(0.1 -0.1)">
       <use xlink:href="#DejaVuSans-48"/>
      </g>
     </g>
    </g>
    <g id="xtick_2">
     <g id="line2d_2">
      <g>
       <use style="stroke:#000000;stroke-width:0.8;" x="179.091366" xlink:href="#m4843d01b4e" y="189"/>
      </g>
     </g>
     <g id="text_2">
      <!-- 25 -->
      <defs>
       <path d="M 19.1875 8.296875 
L 53.609375 8.296875 
L 53.609375 0 
L 7.328125 0 
L 7.328125 8.296875 
Q 12.9375 14.109375 22.625 23.890625 
Q 32.328125 33.6875 34.8125 36.53125 
Q 39.546875 41.84375 41.421875 45.53125 
Q 43.3125 49.21875 43.3125 52.78125 
Q 43.3125 58.59375 39.234375 62.25 
Q 35.15625 65.921875 28.609375 65.921875 
Q 23.96875 65.921875 18.8125 64.3125 
Q 13.671875 62.703125 7.8125 59.421875 
L 7.8125 69.390625 
Q 13.765625 71.78125 18.9375 73 
Q 24.125 74.21875 28.421875 74.21875 
Q 39.75 74.21875 46.484375 68.546875 
Q 53.21875 62.890625 53.21875 53.421875 
Q 53.21875 48.921875 51.53125 44.890625 
Q 49.859375 40.875 45.40625 35.40625 
Q 44.1875 33.984375 37.640625 27.21875 
Q 31.109375 20.453125 19.1875 8.296875 
z
" id="DejaVuSans-50"/>
       <path d="M 10.796875 72.90625 
L 49.515625 72.90625 
L 49.515625 64.59375 
L 19.828125 64.59375 
L 19.828125 46.734375 
Q 21.96875 47.46875 24.109375 47.828125 
Q 26.265625 48.1875 28.421875 48.1875 
Q 40.625 48.1875 47.75 41.5 
Q 54.890625 34.8125 54.890625 23.390625 
Q 54.890625 11.625 47.5625 5.09375 
Q 40.234375 -1.421875 26.90625 -1.421875 
Q 22.3125 -1.421875 17.546875 -0.640625 
Q 12.796875 0.140625 7.71875 1.703125 
L 7.71875 11.625 
Q 12.109375 9.234375 16.796875 8.0625 
Q 21.484375 6.890625 26.703125 6.890625 
Q 35.15625 6.890625 40.078125 11.328125 
Q 45.015625 15.765625 45.015625 23.390625 
Q 45.015625 31 40.078125 35.4375 
Q 35.15625 39.890625 26.703125 39.890625 
Q 22.75 39.890625 18.8125 39.015625 
Q 14.890625 38.140625 10.796875 36.28125 
z
" id="DejaVuSans-53"/>
      </defs>
      <g transform="translate(172.728866 203.598437)scale(0.1 -0.1)">
       <use xlink:href="#DejaVuSans-50"/>
       <use x="63.623047" xlink:href="#DejaVuSans-53"/>
      </g>
     </g>
    </g>
    <g id="xtick_3">
     <g id="line2d_3">
      <g>
       <use style="stroke:#000000;stroke-width:0.8;" x="242.819095" xlink:href="#m4843d01b4e" y="189"/>
      </g>
     </g>
     <g id="text_3">
      <!-- 50 -->
      <g transform="translate(236.456595 203.598437)scale(0.1 -0.1)">
       <use xlink:href="#DejaVuSans-53"/>
       <use x="63.623047" xlink:href="#DejaVuSans-48"/>
      </g>
     </g>
    </g>
    <g id="xtick_4">
     <g id="line2d_4">
      <g>
       <use style="stroke:#000000;stroke-width:0.8;" x="306.546825" xlink:href="#m4843d01b4e" y="189"/>
      </g>
     </g>
     <g id="text_4">
      <!-- 75 -->
      <defs>
       <path d="M 8.203125 72.90625 
L 55.078125 72.90625 
L 55.078125 68.703125 
L 28.609375 0 
L 18.3125 0 
L 43.21875 64.59375 
L 8.203125 64.59375 
z
" id="DejaVuSans-55"/>
      </defs>
      <g transform="translate(300.184325 203.598437)scale(0.1 -0.1)">
       <use xlink:href="#DejaVuSans-55"/>
       <use x="63.623047" xlink:href="#DejaVuSans-53"/>
      </g>
     </g>
    </g>
    <g id="xtick_5">
     <g id="line2d_5">
      <g>
       <use style="stroke:#000000;stroke-width:0.8;" x="370.274555" xlink:href="#m4843d01b4e" y="189"/>
      </g>
     </g>
     <g id="text_5">
      <!-- 100 -->
      <defs>
       <path d="M 12.40625 8.296875 
L 28.515625 8.296875 
L 28.515625 63.921875 
L 10.984375 60.40625 
L 10.984375 69.390625 
L 28.421875 72.90625 
L 38.28125 72.90625 
L 38.28125 8.296875 
L 54.390625 8.296875 
L 54.390625 0 
L 12.40625 0 
z
" id="DejaVuSans-49"/>
      </defs>
      <g transform="translate(360.730805 203.598437)scale(0.1 -0.1)">
       <use xlink:href="#DejaVuSans-49"/>
       <use x="63.623047" xlink:href="#DejaVuSans-48"/>
       <use x="127.246094" xlink:href="#DejaVuSans-48"/>
      </g>
     </g>
    </g>
    <g id="xtick_6">
     <g id="line2d_6">
      <g>
       <use style="stroke:#000000;stroke-width:0.8;" x="434.002284" xlink:href="#m4843d01b4e" y="189"/>
      </g>
     </g>
     <g id="text_6">
      <!-- 125 -->
      <g transform="translate(424.458534 203.598437)scale(0.1 -0.1)">
       <use xlink:href="#DejaVuSans-49"/>
       <use x="63.623047" xlink:href="#DejaVuSans-50"/>
       <use x="127.246094" xlink:href="#DejaVuSans-53"/>
      </g>
     </g>
    </g>
    <g id="xtick_7">
     <g id="line2d_7">
      <g>
       <use style="stroke:#000000;stroke-width:0.8;" x="497.730014" xlink:href="#m4843d01b4e" y="189"/>
      </g>
     </g>
     <g id="text_7">
      <!-- 150 -->
      <g transform="translate(488.186264 203.598437)scale(0.1 -0.1)">
       <use xlink:href="#DejaVuSans-49"/>
       <use x="63.623047" xlink:href="#DejaVuSans-53"/>
       <use x="127.246094" xlink:href="#DejaVuSans-48"/>
      </g>
     </g>
    </g>
    <g id="xtick_8">
     <g id="line2d_8">
      <g>
       <use style="stroke:#000000;stroke-width:0.8;" x="561.457743" xlink:href="#m4843d01b4e" y="189"/>
      </g>
     </g>
     <g id="text_8">
      <!-- 175 -->
      <g transform="translate(551.913993 203.598437)scale(0.1 -0.1)">
       <use xlink:href="#DejaVuSans-49"/>
       <use x="63.623047" xlink:href="#DejaVuSans-55"/>
       <use x="127.246094" xlink:href="#DejaVuSans-53"/>
      </g>
     </g>
    </g>
    <g id="xtick_9">
     <g id="line2d_9">
      <g>
       <use style="stroke:#000000;stroke-width:0.8;" x="625.185473" xlink:href="#m4843d01b4e" y="189"/>
      </g>
     </g>
     <g id="text_9">
      <!-- 200 -->
      <g transform="translate(615.641723 203.598437)scale(0.1 -0.1)">
       <use xlink:href="#DejaVuSans-50"/>
       <use x="63.623047" xlink:href="#DejaVuSans-48"/>
       <use x="127.246094" xlink:href="#DejaVuSans-48"/>
      </g>
     </g>
    </g>
   </g>
   <g id="matplotlib.axis_2">
    <g id="ytick_1">
     <g id="line2d_10">
      <defs>
       <path d="M 0 0 
L -3.5 0 
" id="m127d62a89f" style="stroke:#000000;stroke-width:0.8;"/>
      </defs>
      <g>
       <use style="stroke:#000000;stroke-width:0.8;" x="90" xlink:href="#m127d62a89f" y="189"/>
      </g>
     </g>
     <g id="text_10">
      <!-- −2.0 -->
      <defs>
       <path d="M 10.59375 35.5 
L 73.1875 35.5 
L 73.1875 27.203125 
L 10.59375 27.203125 
z
" id="DejaVuSans-8722"/>
       <path d="M 10.6875 12.40625 
L 21 12.40625 
L 21 0 
L 10.6875 0 
z
" id="DejaVuSans-46"/>
      </defs>
      <g transform="translate(58.717187 192.799219)scale(0.1 -0.1)">
       <use xlink:href="#DejaVuSans-8722"/>
       <use x="83.789062" xlink:href="#DejaVuSans-50"/>
       <use x="147.412109" xlink:href="#DejaVuSans-46"/>
       <use x="179.199219" xlink:href="#DejaVuSans-48"/>
      </g>
     </g>
    </g>
    <g id="ytick_2">
     <g id="line2d_11">
      <g>
       <use style="stroke:#000000;stroke-width:0.8;" x="90" xlink:href="#m127d62a89f" y="168.615"/>
      </g>
     </g>
     <g id="text_11">
      <!-- −1.5 -->
      <g transform="translate(58.717187 172.414219)scale(0.1 -0.1)">
       <use xlink:href="#DejaVuSans-8722"/>
       <use x="83.789062" xlink:href="#DejaVuSans-49"/>
       <use x="147.412109" xlink:href="#DejaVuSans-46"/>
       <use x="179.199219" xlink:href="#DejaVuSans-53"/>
      </g>
     </g>
    </g>
    <g id="ytick_3">
     <g id="line2d_12">
      <g>
       <use style="stroke:#000000;stroke-width:0.8;" x="90" xlink:href="#m127d62a89f" y="148.23"/>
      </g>
     </g>
     <g id="text_12">
      <!-- −1.0 -->
      <g transform="translate(58.717187 152.029219)scale(0.1 -0.1)">
       <use xlink:href="#DejaVuSans-8722"/>
       <use x="83.789062" xlink:href="#DejaVuSans-49"/>
       <use x="147.412109" xlink:href="#DejaVuSans-46"/>
       <use x="179.199219" xlink:href="#DejaVuSans-48"/>
      </g>
     </g>
    </g>
    <g id="ytick_4">
     <g id="line2d_13">
      <g>
       <use style="stroke:#000000;stroke-width:0.8;" x="90" xlink:href="#m127d62a89f" y="127.845"/>
      </g>
     </g>
     <g id="text_13">
      <!-- −0.5 -->
      <g transform="translate(58.717187 131.644219)scale(0.1 -0.1)">
       <use xlink:href="#DejaVuSans-8722"/>
       <use x="83.789062" xlink:href="#DejaVuSans-48"/>
       <use x="147.412109" xlink:href="#DejaVuSans-46"/>
       <use x="179.199219" xlink:href="#DejaVuSans-53"/>
      </g>
     </g>
    </g>
    <g id="ytick_5">
     <g id="line2d_14">
      <g>
       <use style="stroke:#000000;stroke-width:0.8;" x="90" xlink:href="#m127d62a89f" y="107.46"/>
      </g>
     </g>
     <g id="text_14">
      <!-- 0.0 -->
      <g transform="translate(67.096875 111.259219)scale(0.1 -0.1)">
       <use xlink:href="#DejaVuSans-48"/>
       <use x="63.623047" xlink:href="#DejaVuSans-46"/>
       <use x="95.410156" xlink:href="#DejaVuSans-48"/>
      </g>
     </g>
    </g>
    <g id="ytick_6">
     <g id="line2d_15">
      <g>
       <use style="stroke:#000000;stroke-width:0.8;" x="90" xlink:href="#m127d62a89f" y="87.075"/>
      </g>
     </g>
     <g id="text_15">
      <!-- 0.5 -->
      <g transform="translate(67.096875 90.874219)scale(0.1 -0.1)">
       <use xlink:href="#DejaVuSans-48"/>
       <use x="63.623047" xlink:href="#DejaVuSans-46"/>
       <use x="95.410156" xlink:href="#DejaVuSans-53"/>
      </g>
     </g>
    </g>
    <g id="ytick_7">
     <g id="line2d_16">
      <g>
       <use style="stroke:#000000;stroke-width:0.8;" x="90" xlink:href="#m127d62a89f" y="66.69"/>
      </g>
     </g>
     <g id="text_16">
      <!-- 1.0 -->
      <g transform="translate(67.096875 70.489219)scale(0.1 -0.1)">
       <use xlink:href="#DejaVuSans-49"/>
       <use x="63.623047" xlink:href="#DejaVuSans-46"/>
       <use x="95.410156" xlink:href="#DejaVuSans-48"/>
      </g>
     </g>
    </g>
    <g id="ytick_8">
     <g id="line2d_17">
      <g>
       <use style="stroke:#000000;stroke-width:0.8;" x="90" xlink:href="#m127d62a89f" y="46.305"/>
      </g>
     </g>
     <g id="text_17">
      <!-- 1.5 -->
      <g transform="translate(67.096875 50.104219)scale(0.1 -0.1)">
       <use xlink:href="#DejaVuSans-49"/>
       <use x="63.623047" xlink:href="#DejaVuSans-46"/>
       <use x="95.410156" xlink:href="#DejaVuSans-53"/>
      </g>
     </g>
    </g>
    <g id="ytick_9">
     <g id="line2d_18">
      <g>
       <use style="stroke:#000000;stroke-width:0.8;" x="90" xlink:href="#m127d62a89f" y="25.92"/>
      </g>
     </g>
     <g id="text_18">
      <!-- 2.0 -->
      <g transform="translate(67.096875 29.719219)scale(0.1 -0.1)">
       <use xlink:href="#DejaVuSans-50"/>
       <use x="63.623047" xlink:href="#DejaVuSans-46"/>
       <use x="95.410156" xlink:href="#DejaVuSans-48"/>
      </g>
     </g>
    </g>
   </g>
   <g id="line2d_19">
    <path clip-path="url(#pe3c4825544)" d="M 115.363636 73.171216 
L 117.912746 85.270902 
L 120.461855 72.915777 
L 123.010964 85.167994 
L 125.560073 72.89896 
L 128.109182 85.227395 
L 130.658291 73.451491 
L 133.207401 85.625571 
L 135.75651 73.498466 
L 138.305619 85.436781 
L 140.854728 73.029247 
L 143.403837 84.747415 
L 145.952947 72.908037 
L 148.502056 85.764989 
L 151.051165 73.57188 
L 153.600274 85.353146 
L 156.149383 73.260169 
L 158.698492 85.111402 
L 161.247602 72.705557 
L 163.796711 85.403458 
L 166.34582 72.882263 
L 168.894929 85.261612 
L 171.444038 73.16032 
L 173.993148 85.529675 
L 176.542257 73.402606 
L 179.091366 85.57056 
L 181.640475 73.054097 
L 184.189584 85.564901 
L 186.738693 72.719957 
L 189.287803 85.952266 
L 191.836912 73.278853 
L 194.386021 85.230612 
L 196.93513 73.071913 
L 199.484239 85.86778 
L 202.033349 72.622105 
L 204.582458 85.49867 
L 207.131567 73.536803 
L 209.680676 85.737923 
L 212.229785 73.007809 
L 214.778894 85.42407 
L 217.328004 72.766992 
L 219.877113 85.556428 
L 222.426222 73.11553 
L 224.975331 85.505524 
L 227.52444 73.483791 
L 230.07355 85.350015 
L 232.622659 73.192177 
L 235.171768 85.261484 
L 237.720877 73.09422 
L 240.269986 85.841453 
L 242.819095 73.078957 
L 245.368205 85.660621 
L 247.917314 73.322829 
L 250.466423 85.030672 
L 253.015532 73.278557 
L 255.564641 85.807105 
L 258.113751 73.005333 
L 260.66286 85.149383 
L 263.211969 72.777777 
L 265.761078 85.592846 
L 268.310187 73.2224 
L 270.859296 85.75462 
L 273.408406 73.642684 
L 275.957515 85.2834 
L 278.506624 73.402446 
L 281.055733 85.29347 
L 283.604842 73.273345 
L 286.153952 85.515433 
L 288.703061 73.088608 
L 291.25217 85.054337 
L 293.801279 73.101131 
L 296.350388 85.040431 
L 298.899497 73.056657 
L 301.448607 85.616387 
L 303.997716 72.761605 
L 306.546825 85.162898 
L 309.095934 73.231866 
L 311.645043 85.330199 
L 314.194153 73.225415 
L 316.743262 85.68883 
L 319.292371 73.002951 
L 321.84148 85.410275 
L 324.390589 72.757941 
L 326.939698 85.240679 
L 329.488808 72.810107 
L 332.037917 85.582182 
L 334.587026 72.874912 
L 337.136135 85.251193 
L 339.685244 72.82389 
L 342.234354 85.190325 
L 344.783463 73.258646 
L 347.332572 85.269894 
L 349.881681 73.142554 
L 352.43079 85.366008 
L 354.979899 72.906075 
L 357.529009 85.200876 
L 360.078118 72.64667 
L 362.627227 85.571001 
L 365.176336 73.180482 
L 367.725445 85.37429 
L 370.274555 73.032729 
L 372.823664 85.41009 
L 375.372773 73.032794 
L 377.921882 85.220529 
L 380.470991 73.10084 
L 383.020101 86.020977 
L 385.56921 72.354697 
L 388.118319 85.616674 
L 390.667428 73.28986 
L 393.216537 85.302011 
L 395.765646 73.223881 
L 398.314756 86.093027 
L 400.863865 72.922976 
L 403.412974 85.950616 
L 405.962083 73.184934 
L 408.511192 85.780965 
L 411.060302 73.28032 
L 413.609411 85.539235 
L 416.15852 73.407123 
L 418.707629 85.930772 
L 421.256738 73.265677 
L 423.805847 85.498219 
L 426.354957 72.749487 
L 428.904066 85.130919 
L 431.453175 73.167048 
L 434.002284 85.500651 
L 436.551393 73.725906 
L 439.100503 85.957675 
L 441.649612 72.933581 
L 444.198721 85.505833 
L 446.74783 73.595224 
L 449.296939 85.647395 
L 451.846048 73.573466 
L 454.395158 85.800232 
L 456.944267 72.907079 
L 459.493376 85.625378 
L 462.042485 72.968178 
L 464.591594 85.76057 
L 467.140704 73.298703 
L 469.689813 85.496575 
L 472.238922 73.093519 
L 474.788031 85.677355 
L 477.33714 73.343663 
L 479.886249 86.136195 
L 482.435359 73.002874 
L 484.984468 85.212249 
L 487.533577 72.98654 
L 490.082686 85.563397 
L 492.631795 72.93109 
L 495.180905 85.219389 
L 497.730014 73.31304 
L 500.279123 85.574064 
L 502.828232 73.077488 
L 505.377341 85.511021 
L 507.92645 73.132955 
L 510.47556 85.74297 
L 513.024669 73.199787 
L 515.573778 85.718091 
L 518.122887 73.63261 
L 520.671996 85.25621 
L 523.221106 72.770176 
L 525.770215 85.42003 
L 528.319324 72.988992 
L 530.868433 85.266399 
L 533.417542 72.630354 
L 535.966651 85.579441 
L 538.515761 73.373772 
L 541.06487 85.297377 
L 543.613979 73.288963 
L 546.163088 85.601347 
L 548.712197 73.034727 
L 551.261307 85.298835 
L 553.810416 73.177154 
L 556.359525 85.169526 
L 558.908634 73.570401 
L 561.457743 85.163308 
L 564.006852 73.402503 
L 566.555962 85.594428 
L 569.105071 73.063695 
L 571.65418 85.591802 
L 574.203289 73.123277 
L 576.752398 85.523126 
L 579.301508 73.217362 
L 581.850617 85.452103 
L 584.399726 73.163646 
L 586.948835 85.57948 
L 589.497944 73.061175 
L 592.047053 85.314732 
L 594.596163 73.271883 
L 597.145272 85.45965 
L 599.694381 73.032591 
L 602.24349 85.048961 
L 604.792599 72.821603 
L 607.341709 85.682546 
L 609.890818 73.598728 
L 612.439927 86.008984 
L 614.989036 73.193496 
L 617.538145 85.513825 
L 620.087254 72.975815 
L 622.636364 85.615529 
L 622.636364 85.615529 
" style="fill:none;stroke:#3b528b;stroke-linecap:square;"/>
   </g>
   <g id="patch_3">
    <path d="M 90 189 
L 90 25.92 
" style="fill:none;stroke:#000000;stroke-linecap:square;stroke-linejoin:miter;stroke-width:0.8;"/>
   </g>
   <g id="patch_4">
    <path d="M 648 189 
L 648 25.92 
" style="fill:none;stroke:#000000;stroke-linecap:square;stroke-linejoin:miter;stroke-width:0.8;"/>
   </g>
   <g id="patch_5">
    <path d="M 90 189 
L 648 189 
" style="fill:none;stroke:#000000;stroke-linecap:square;stroke-linejoin:miter;stroke-width:0.8;"/>
   </g>
   <g id="patch_6">
    <path d="M 90 25.92 
L 648 25.92 
" style="fill:none;stroke:#000000;stroke-linecap:square;stroke-linejoin:miter;stroke-width:0.8;"/>
   </g>
  </g>
 </g>
 <defs>
  <clipPath id="pe3c4825544">
   <rect height="163.08" width="558" x="90" y="25.92"/>
  </clipPath>
 </defs>
</svg>
