<?xml version="1.0" encoding="utf-8" standalone="no"?>
<!DOCTYPE svg PUBLIC "-//W3C//DTD SVG 1.1//EN"
  "http://www.w3.org/Graphics/SVG/1.1/DTD/svg11.dtd">
<!-- Created with matplotlib (https://matplotlib.org/) -->
<svg height="216pt" version="1.1" viewBox="0 0 720 216" width="720pt" xmlns="http://www.w3.org/2000/svg" xmlns:xlink="http://www.w3.org/1999/xlink">
 <defs>
  <style type="text/css">
*{stroke-linecap:butt;stroke-linejoin:round;}
  </style>
 </defs>
 <g id="figure_1">
  <g id="patch_1">
   <path d="M 0 216 
L 720 216 
L 720 0 
L 0 0 
z
" style="fill:none;"/>
  </g>
  <g id="axes_1">
   <g id="patch_2">
    <path d="M 90 189 
L 648 189 
L 648 25.92 
L 90 25.92 
z
" style="fill:none;"/>
   </g>
   <g id="matplotlib.axis_1">
    <g id="xtick_1">
     <g id="line2d_1">
      <defs>
       <path d="M 0 0 
L 0 3.5 
" id="mecf0a14a9c" style="stroke:#000000;stroke-width:0.8;"/>
      </defs>
      <g>
       <use style="stroke:#000000;stroke-width:0.8;" x="115.363636" xlink:href="#mecf0a14a9c" y="189"/>
      </g>
     </g>
     <g id="text_1">
      <!-- 0 -->
      <defs>
       <path d="M 31.78125 66.40625 
Q 24.171875 66.40625 20.328125 58.90625 
Q 16.5 51.421875 16.5 36.375 
Q 16.5 21.390625 20.328125 13.890625 
Q 24.171875 6.390625 31.78125 6.390625 
Q 39.453125 6.390625 43.28125 13.890625 
Q 47.125 21.390625 47.125 36.375 
Q 47.125 51.421875 43.28125 58.90625 
Q 39.453125 66.40625 31.78125 66.40625 
z
M 31.78125 74.21875 
Q 44.046875 74.21875 50.515625 64.515625 
Q 56.984375 54.828125 56.984375 36.375 
Q 56.984375 17.96875 50.515625 8.265625 
Q 44.046875 -1.421875 31.78125 -1.421875 
Q 19.53125 -1.421875 13.0625 8.265625 
Q 6.59375 17.96875 6.59375 36.375 
Q 6.59375 54.828125 13.0625 64.515625 
Q 19.53125 74.21875 31.78125 74.21875 
z
" id="DejaVuSans-48"/>
      </defs>
      <g transform="translate(112.182386 203.598437)scale(0.1 -0.1)">
       <use xlink:href="#DejaVuSans-48"/>
      </g>
     </g>
    </g>
    <g id="xtick_2">
     <g id="line2d_2">
      <g>
       <use style="stroke:#000000;stroke-width:0.8;" x="188.247649" xlink:href="#mecf0a14a9c" y="189"/>
      </g>
     </g>
     <g id="text_2">
      <!-- 25 -->
      <defs>
       <path d="M 19.1875 8.296875 
L 53.609375 8.296875 
L 53.609375 0 
L 7.328125 0 
L 7.328125 8.296875 
Q 12.9375 14.109375 22.625 23.890625 
Q 32.328125 33.6875 34.8125 36.53125 
Q 39.546875 41.84375 41.421875 45.53125 
Q 43.3125 49.21875 43.3125 52.78125 
Q 43.3125 58.59375 39.234375 62.25 
Q 35.15625 65.921875 28.609375 65.921875 
Q 23.96875 65.921875 18.8125 64.3125 
Q 13.671875 62.703125 7.8125 59.421875 
L 7.8125 69.390625 
Q 13.765625 71.78125 18.9375 73 
Q 24.125 74.21875 28.421875 74.21875 
Q 39.75 74.21875 46.484375 68.546875 
Q 53.21875 62.890625 53.21875 53.421875 
Q 53.21875 48.921875 51.53125 44.890625 
Q 49.859375 40.875 45.40625 35.40625 
Q 44.1875 33.984375 37.640625 27.21875 
Q 31.109375 20.453125 19.1875 8.296875 
z
" id="DejaVuSans-50"/>
       <path d="M 10.796875 72.90625 
L 49.515625 72.90625 
L 49.515625 64.59375 
L 19.828125 64.59375 
L 19.828125 46.734375 
Q 21.96875 47.46875 24.109375 47.828125 
Q 26.265625 48.1875 28.421875 48.1875 
Q 40.625 48.1875 47.75 41.5 
Q 54.890625 34.8125 54.890625 23.390625 
Q 54.890625 11.625 47.5625 5.09375 
Q 40.234375 -1.421875 26.90625 -1.421875 
Q 22.3125 -1.421875 17.546875 -0.640625 
Q 12.796875 0.140625 7.71875 1.703125 
L 7.71875 11.625 
Q 12.109375 9.234375 16.796875 8.0625 
Q 21.484375 6.890625 26.703125 6.890625 
Q 35.15625 6.890625 40.078125 11.328125 
Q 45.015625 15.765625 45.015625 23.390625 
Q 45.015625 31 40.078125 35.4375 
Q 35.15625 39.890625 26.703125 39.890625 
Q 22.75 39.890625 18.8125 39.015625 
Q 14.890625 38.140625 10.796875 36.28125 
z
" id="DejaVuSans-53"/>
      </defs>
      <g transform="translate(181.885149 203.598437)scale(0.1 -0.1)">
       <use xlink:href="#DejaVuSans-50"/>
       <use x="63.623047" xlink:href="#DejaVuSans-53"/>
      </g>
     </g>
    </g>
    <g id="xtick_3">
     <g id="line2d_3">
      <g>
       <use style="stroke:#000000;stroke-width:0.8;" x="261.131661" xlink:href="#mecf0a14a9c" y="189"/>
      </g>
     </g>
     <g id="text_3">
      <!-- 50 -->
      <g transform="translate(254.769161 203.598437)scale(0.1 -0.1)">
       <use xlink:href="#DejaVuSans-53"/>
       <use x="63.623047" xlink:href="#DejaVuSans-48"/>
      </g>
     </g>
    </g>
    <g id="xtick_4">
     <g id="line2d_4">
      <g>
       <use style="stroke:#000000;stroke-width:0.8;" x="334.015674" xlink:href="#mecf0a14a9c" y="189"/>
      </g>
     </g>
     <g id="text_4">
      <!-- 75 -->
      <defs>
       <path d="M 8.203125 72.90625 
L 55.078125 72.90625 
L 55.078125 68.703125 
L 28.609375 0 
L 18.3125 0 
L 43.21875 64.59375 
L 8.203125 64.59375 
z
" id="DejaVuSans-55"/>
      </defs>
      <g transform="translate(327.653174 203.598437)scale(0.1 -0.1)">
       <use xlink:href="#DejaVuSans-55"/>
       <use x="63.623047" xlink:href="#DejaVuSans-53"/>
      </g>
     </g>
    </g>
    <g id="xtick_5">
     <g id="line2d_5">
      <g>
       <use style="stroke:#000000;stroke-width:0.8;" x="406.899687" xlink:href="#mecf0a14a9c" y="189"/>
      </g>
     </g>
     <g id="text_5">
      <!-- 100 -->
      <defs>
       <path d="M 12.40625 8.296875 
L 28.515625 8.296875 
L 28.515625 63.921875 
L 10.984375 60.40625 
L 10.984375 69.390625 
L 28.421875 72.90625 
L 38.28125 72.90625 
L 38.28125 8.296875 
L 54.390625 8.296875 
L 54.390625 0 
L 12.40625 0 
z
" id="DejaVuSans-49"/>
      </defs>
      <g transform="translate(397.355937 203.598437)scale(0.1 -0.1)">
       <use xlink:href="#DejaVuSans-49"/>
       <use x="63.623047" xlink:href="#DejaVuSans-48"/>
       <use x="127.246094" xlink:href="#DejaVuSans-48"/>
      </g>
     </g>
    </g>
    <g id="xtick_6">
     <g id="line2d_6">
      <g>
       <use style="stroke:#000000;stroke-width:0.8;" x="479.783699" xlink:href="#mecf0a14a9c" y="189"/>
      </g>
     </g>
     <g id="text_6">
      <!-- 125 -->
      <g transform="translate(470.239949 203.598437)scale(0.1 -0.1)">
       <use xlink:href="#DejaVuSans-49"/>
       <use x="63.623047" xlink:href="#DejaVuSans-50"/>
       <use x="127.246094" xlink:href="#DejaVuSans-53"/>
      </g>
     </g>
    </g>
    <g id="xtick_7">
     <g id="line2d_7">
      <g>
       <use style="stroke:#000000;stroke-width:0.8;" x="552.667712" xlink:href="#mecf0a14a9c" y="189"/>
      </g>
     </g>
     <g id="text_7">
      <!-- 150 -->
      <g transform="translate(543.123962 203.598437)scale(0.1 -0.1)">
       <use xlink:href="#DejaVuSans-49"/>
       <use x="63.623047" xlink:href="#DejaVuSans-53"/>
       <use x="127.246094" xlink:href="#DejaVuSans-48"/>
      </g>
     </g>
    </g>
    <g id="xtick_8">
     <g id="line2d_8">
      <g>
       <use style="stroke:#000000;stroke-width:0.8;" x="625.551724" xlink:href="#mecf0a14a9c" y="189"/>
      </g>
     </g>
     <g id="text_8">
      <!-- 175 -->
      <g transform="translate(616.007974 203.598437)scale(0.1 -0.1)">
       <use xlink:href="#DejaVuSans-49"/>
       <use x="63.623047" xlink:href="#DejaVuSans-55"/>
       <use x="127.246094" xlink:href="#DejaVuSans-53"/>
      </g>
     </g>
    </g>
   </g>
   <g id="matplotlib.axis_2">
    <g id="ytick_1">
     <g id="line2d_9">
      <defs>
       <path d="M 0 0 
L -3.5 0 
" id="m360d6ebdb2" style="stroke:#000000;stroke-width:0.8;"/>
      </defs>
      <g>
       <use style="stroke:#000000;stroke-width:0.8;" x="90" xlink:href="#m360d6ebdb2" y="189"/>
      </g>
     </g>
     <g id="text_9">
      <!-- −2.0 -->
      <defs>
       <path d="M 10.59375 35.5 
L 73.1875 35.5 
L 73.1875 27.203125 
L 10.59375 27.203125 
z
" id="DejaVuSans-8722"/>
       <path d="M 10.6875 12.40625 
L 21 12.40625 
L 21 0 
L 10.6875 0 
z
" id="DejaVuSans-46"/>
      </defs>
      <g transform="translate(58.717187 192.799219)scale(0.1 -0.1)">
       <use xlink:href="#DejaVuSans-8722"/>
       <use x="83.789062" xlink:href="#DejaVuSans-50"/>
       <use x="147.412109" xlink:href="#DejaVuSans-46"/>
       <use x="179.199219" xlink:href="#DejaVuSans-48"/>
      </g>
     </g>
    </g>
    <g id="ytick_2">
     <g id="line2d_10">
      <g>
       <use style="stroke:#000000;stroke-width:0.8;" x="90" xlink:href="#m360d6ebdb2" y="168.615"/>
      </g>
     </g>
     <g id="text_10">
      <!-- −1.5 -->
      <g transform="translate(58.717187 172.414219)scale(0.1 -0.1)">
       <use xlink:href="#DejaVuSans-8722"/>
       <use x="83.789062" xlink:href="#DejaVuSans-49"/>
       <use x="147.412109" xlink:href="#DejaVuSans-46"/>
       <use x="179.199219" xlink:href="#DejaVuSans-53"/>
      </g>
     </g>
    </g>
    <g id="ytick_3">
     <g id="line2d_11">
      <g>
       <use style="stroke:#000000;stroke-width:0.8;" x="90" xlink:href="#m360d6ebdb2" y="148.23"/>
      </g>
     </g>
     <g id="text_11">
      <!-- −1.0 -->
      <g transform="translate(58.717187 152.029219)scale(0.1 -0.1)">
       <use xlink:href="#DejaVuSans-8722"/>
       <use x="83.789062" xlink:href="#DejaVuSans-49"/>
       <use x="147.412109" xlink:href="#DejaVuSans-46"/>
       <use x="179.199219" xlink:href="#DejaVuSans-48"/>
      </g>
     </g>
    </g>
    <g id="ytick_4">
     <g id="line2d_12">
      <g>
       <use style="stroke:#000000;stroke-width:0.8;" x="90" xlink:href="#m360d6ebdb2" y="127.845"/>
      </g>
     </g>
     <g id="text_12">
      <!-- −0.5 -->
      <g transform="translate(58.717187 131.644219)scale(0.1 -0.1)">
       <use xlink:href="#DejaVuSans-8722"/>
       <use x="83.789062" xlink:href="#DejaVuSans-48"/>
       <use x="147.412109" xlink:href="#DejaVuSans-46"/>
       <use x="179.199219" xlink:href="#DejaVuSans-53"/>
      </g>
     </g>
    </g>
    <g id="ytick_5">
     <g id="line2d_13">
      <g>
       <use style="stroke:#000000;stroke-width:0.8;" x="90" xlink:href="#m360d6ebdb2" y="107.46"/>
      </g>
     </g>
     <g id="text_13">
      <!-- 0.0 -->
      <g transform="translate(67.096875 111.259219)scale(0.1 -0.1)">
       <use xlink:href="#DejaVuSans-48"/>
       <use x="63.623047" xlink:href="#DejaVuSans-46"/>
       <use x="95.410156" xlink:href="#DejaVuSans-48"/>
      </g>
     </g>
    </g>
    <g id="ytick_6">
     <g id="line2d_14">
      <g>
       <use style="stroke:#000000;stroke-width:0.8;" x="90" xlink:href="#m360d6ebdb2" y="87.075"/>
      </g>
     </g>
     <g id="text_14">
      <!-- 0.5 -->
      <g transform="translate(67.096875 90.874219)scale(0.1 -0.1)">
       <use xlink:href="#DejaVuSans-48"/>
       <use x="63.623047" xlink:href="#DejaVuSans-46"/>
       <use x="95.410156" xlink:href="#DejaVuSans-53"/>
      </g>
     </g>
    </g>
    <g id="ytick_7">
     <g id="line2d_15">
      <g>
       <use style="stroke:#000000;stroke-width:0.8;" x="90" xlink:href="#m360d6ebdb2" y="66.69"/>
      </g>
     </g>
     <g id="text_15">
      <!-- 1.0 -->
      <g transform="translate(67.096875 70.489219)scale(0.1 -0.1)">
       <use xlink:href="#DejaVuSans-49"/>
       <use x="63.623047" xlink:href="#DejaVuSans-46"/>
       <use x="95.410156" xlink:href="#DejaVuSans-48"/>
      </g>
     </g>
    </g>
    <g id="ytick_8">
     <g id="line2d_16">
      <g>
       <use style="stroke:#000000;stroke-width:0.8;" x="90" xlink:href="#m360d6ebdb2" y="46.305"/>
      </g>
     </g>
     <g id="text_16">
      <!-- 1.5 -->
      <g transform="translate(67.096875 50.104219)scale(0.1 -0.1)">
       <use xlink:href="#DejaVuSans-49"/>
       <use x="63.623047" xlink:href="#DejaVuSans-46"/>
       <use x="95.410156" xlink:href="#DejaVuSans-53"/>
      </g>
     </g>
    </g>
    <g id="ytick_9">
     <g id="line2d_17">
      <g>
       <use style="stroke:#000000;stroke-width:0.8;" x="90" xlink:href="#m360d6ebdb2" y="25.92"/>
      </g>
     </g>
     <g id="text_17">
      <!-- 2.0 -->
      <g transform="translate(67.096875 29.719219)scale(0.1 -0.1)">
       <use xlink:href="#DejaVuSans-50"/>
       <use x="63.623047" xlink:href="#DejaVuSans-46"/>
       <use x="95.410156" xlink:href="#DejaVuSans-48"/>
      </g>
     </g>
    </g>
   </g>
   <g id="line2d_18">
    <path clip-path="url(#p6f549152a8)" d="M 115.363636 73.118356 
L 118.278997 82.291209 
L 121.194357 66.505915 
L 124.109718 95.222042 
L 127.025078 78.120267 
L 129.940439 74.777951 
L 132.855799 87.082318 
L 135.77116 70.089555 
L 138.68652 96.719178 
L 141.601881 75.444989 
L 144.517241 78.197928 
L 147.432602 73.414472 
L 150.347962 87.237127 
L 153.263323 69.563184 
L 156.178683 100.118372 
L 159.094044 81.970691 
L 162.009404 79.697178 
L 164.924765 89.546617 
L 167.840125 68.541015 
L 170.755486 97.073369 
L 173.670846 79.725991 
L 176.586207 75.116105 
L 179.501567 83.483371 
L 182.416928 64.901189 
L 185.332288 97.7401 
L 188.247649 82.447865 
L 191.163009 78.386552 
L 194.07837 82.773737 
L 196.99373 69.264329 
L 199.909091 88.368469 
L 202.824451 74.357905 
L 205.739812 96.724274 
L 208.655172 72.186511 
L 211.570533 82.665536 
L 214.485893 76.813892 
L 217.401254 86.96372 
L 220.316614 73.893894 
L 223.231975 90.463964 
L 226.147335 70.501002 
L 229.062696 91.753891 
L 231.978056 70.902057 
L 234.893417 88.435944 
L 237.808777 71.994693 
L 240.724138 95.289244 
L 243.639498 82.112765 
L 246.554859 75.244133 
L 249.470219 87.587341 
L 252.38558 71.009242 
L 255.30094 97.40571 
L 258.216301 82.412668 
L 261.131661 76.862129 
L 264.047022 84.964927 
L 266.962382 70.605337 
L 269.877743 96.845476 
L 272.793103 74.832321 
L 275.708464 83.438261 
L 278.623824 67.596499 
L 281.539185 92.683539 
L 284.454545 72.094614 
L 287.369906 84.491095 
L 290.285266 69.821851 
L 293.200627 96.623138 
L 296.115987 79.049334 
L 299.031348 71.365883 
L 301.946708 81.253105 
L 304.862069 71.836817 
L 307.777429 92.957031 
L 310.69279 76.335245 
L 313.60815 82.858112 
L 316.523511 67.300697 
L 319.438871 91.072713 
L 322.354232 70.627308 
L 325.269592 83.221833 
L 328.184953 70.981544 
L 331.100313 96.734322 
L 334.015674 73.151729 
L 336.931034 84.216007 
L 339.846395 68.266472 
L 342.761755 95.897291 
L 345.677116 81.024971 
L 348.592476 72.261065 
L 351.507837 88.768759 
L 354.423197 69.682856 
L 357.338558 94.685252 
L 360.253918 77.141878 
L 363.169279 73.383591 
L 366.084639 84.860444 
L 369 70.113546 
L 371.915361 93.272983 
L 374.830721 78.771304 
L 377.746082 71.908904 
L 380.661442 85.498851 
L 383.576803 69.822791 
L 386.492163 98.854736 
L 389.407524 81.855529 
L 392.322884 71.736818 
L 395.238245 87.810329 
L 398.153605 69.724378 
L 401.068966 97.730765 
L 403.984326 78.704788 
L 406.899687 73.794952 
L 409.815047 83.300005 
L 412.730408 74.957658 
L 415.645768 89.421742 
L 418.561129 69.264258 
L 421.476489 95.708339 
L 424.39185 80.644981 
L 427.30721 74.669228 
L 430.222571 81.820303 
L 433.137931 70.380668 
L 436.053292 87.506332 
L 438.968652 72.873292 
L 441.884013 97.22186 
L 444.799373 81.315156 
L 447.714734 73.645797 
L 450.630094 84.827269 
L 453.545455 72.703175 
L 456.460815 94.875753 
L 459.376176 78.610018 
L 462.291536 80.775833 
L 465.206897 77.220112 
L 468.122257 82.61545 
L 471.037618 71.121453 
L 473.952978 88.154337 
L 476.868339 73.992429 
L 479.783699 91.227513 
L 482.69906 68.220651 
L 485.61442 94.246784 
L 488.529781 69.952384 
L 491.445141 93.091884 
L 494.360502 71.069134 
L 497.275862 91.168703 
L 500.191223 75.400765 
L 503.106583 90.916104 
L 506.021944 70.711971 
L 508.937304 97.104284 
L 511.852665 76.481926 
L 514.768025 75.329293 
L 517.683386 80.436408 
L 520.598746 76.206065 
L 523.514107 73.841995 
L 526.429467 74.389737 
L 529.344828 79.809392 
L 532.260188 81.554983 
L 535.175549 74.532538 
L 538.090909 78.051396 
L 541.00627 77.390318 
L 543.92163 74.792944 
L 546.836991 79.206161 
L 549.752351 74.289219 
L 552.667712 87.143224 
L 555.583072 66.318167 
L 558.498433 96.112113 
L 561.413793 80.692416 
L 564.329154 71.661766 
L 567.244514 87.367236 
L 570.159875 71.475119 
L 573.075235 101.523895 
L 575.990596 80.589244 
L 578.905956 72.251955 
L 581.821317 84.75962 
L 584.736677 68.837252 
L 587.652038 93.366081 
L 590.567398 82.421558 
L 593.482759 69.154733 
L 596.398119 85.028048 
L 599.31348 69.538657 
L 602.22884 98.529953 
L 605.144201 83.456083 
L 608.059561 76.369006 
L 610.974922 82.70597 
L 613.890282 72.877774 
L 616.805643 88.662677 
L 619.721003 67.195043 
L 622.636364 99.936669 
L 622.636364 99.936669 
" style="fill:none;stroke:#bddf26;stroke-linecap:square;"/>
   </g>
   <g id="patch_3">
    <path d="M 90 189 
L 90 25.92 
" style="fill:none;stroke:#000000;stroke-linecap:square;stroke-linejoin:miter;stroke-width:0.8;"/>
   </g>
   <g id="patch_4">
    <path d="M 648 189 
L 648 25.92 
" style="fill:none;stroke:#000000;stroke-linecap:square;stroke-linejoin:miter;stroke-width:0.8;"/>
   </g>
   <g id="patch_5">
    <path d="M 90 189 
L 648 189 
" style="fill:none;stroke:#000000;stroke-linecap:square;stroke-linejoin:miter;stroke-width:0.8;"/>
   </g>
   <g id="patch_6">
    <path d="M 90 25.92 
L 648 25.92 
" style="fill:none;stroke:#000000;stroke-linecap:square;stroke-linejoin:miter;stroke-width:0.8;"/>
   </g>
  </g>
 </g>
 <defs>
  <clipPath id="p6f549152a8">
   <rect height="163.08" width="558" x="90" y="25.92"/>
  </clipPath>
 </defs>
</svg>
