<?xml version="1.0" encoding="utf-8" standalone="no"?>
<!DOCTYPE svg PUBLIC "-//W3C//DTD SVG 1.1//EN"
  "http://www.w3.org/Graphics/SVG/1.1/DTD/svg11.dtd">
<svg xmlns:xlink="http://www.w3.org/1999/xlink" width="540pt" height="252pt" viewBox="0 0 540 252" xmlns="http://www.w3.org/2000/svg" version="1.1">
 <metadata>
  <rdf:RDF xmlns:dc="http://purl.org/dc/elements/1.1/" xmlns:cc="http://creativecommons.org/ns#" xmlns:rdf="http://www.w3.org/1999/02/22-rdf-syntax-ns#">
   <cc:Work>
    <dc:type rdf:resource="http://purl.org/dc/dcmitype/StillImage"/>
    <dc:date>2022-12-16T18:01:00.590112</dc:date>
    <dc:format>image/svg+xml</dc:format>
    <dc:creator>
     <cc:Agent>
      <dc:title>Matplotlib v3.6.2, https://matplotlib.org/</dc:title>
     </cc:Agent>
    </dc:creator>
   </cc:Work>
  </rdf:RDF>
 </metadata>
 <defs>
  <style type="text/css">*{stroke-linejoin: round; stroke-linecap: butt}</style>
 </defs>
 <g id="figure_1">
  <g id="patch_1">
   <path d="M 0 252 
L 540 252 
L 540 0 
L 0 0 
z
" style="fill: #ffffff"/>
  </g>
  <g id="axes_1">
   <g id="patch_2">
    <path d="M 42.082813 224.521875 
L 529.2 224.521875 
L 529.2 10.8 
L 42.082813 10.8 
z
" style="fill: #ffffff"/>
   </g>
   <g id="matplotlib.axis_1">
    <g id="xtick_1">
     <g id="line2d_1">
      <defs>
       <path id="md8c25e66eb" d="M 0 0 
L 0 3.5 
" style="stroke: #000000; stroke-width: 0.8"/>
      </defs>
      <g>
       <use xlink:href="#md8c25e66eb" x="64.224503" y="224.521875" style="stroke: #000000; stroke-width: 0.8"/>
      </g>
     </g>
     <g id="text_1">
      <!-- 0 -->
      <g transform="translate(61.043253 239.120313) scale(0.1 -0.1)">
       <defs>
        <path id="DejaVuSans-30" d="M 2034 4250 
Q 1547 4250 1301 3770 
Q 1056 3291 1056 2328 
Q 1056 1369 1301 889 
Q 1547 409 2034 409 
Q 2525 409 2770 889 
Q 3016 1369 3016 2328 
Q 3016 3291 2770 3770 
Q 2525 4250 2034 4250 
z
M 2034 4750 
Q 2819 4750 3233 4129 
Q 3647 3509 3647 2328 
Q 3647 1150 3233 529 
Q 2819 -91 2034 -91 
Q 1250 -91 836 529 
Q 422 1150 422 2328 
Q 422 3509 836 4129 
Q 1250 4750 2034 4750 
z
" transform="scale(0.015625)"/>
       </defs>
       <use xlink:href="#DejaVuSans-30"/>
      </g>
     </g>
    </g>
    <g id="xtick_2">
     <g id="line2d_2">
      <g>
       <use xlink:href="#md8c25e66eb" x="152.808981" y="224.521875" style="stroke: #000000; stroke-width: 0.8"/>
      </g>
     </g>
     <g id="text_2">
      <!-- 1000 -->
      <g transform="translate(140.083981 239.120313) scale(0.1 -0.1)">
       <defs>
        <path id="DejaVuSans-31" d="M 794 531 
L 1825 531 
L 1825 4091 
L 703 3866 
L 703 4441 
L 1819 4666 
L 2450 4666 
L 2450 531 
L 3481 531 
L 3481 0 
L 794 0 
L 794 531 
z
" transform="scale(0.015625)"/>
       </defs>
       <use xlink:href="#DejaVuSans-31"/>
       <use xlink:href="#DejaVuSans-30" x="63.623047"/>
       <use xlink:href="#DejaVuSans-30" x="127.246094"/>
       <use xlink:href="#DejaVuSans-30" x="190.869141"/>
      </g>
     </g>
    </g>
    <g id="xtick_3">
     <g id="line2d_3">
      <g>
       <use xlink:href="#md8c25e66eb" x="241.393459" y="224.521875" style="stroke: #000000; stroke-width: 0.8"/>
      </g>
     </g>
     <g id="text_3">
      <!-- 2000 -->
      <g transform="translate(228.668459 239.120313) scale(0.1 -0.1)">
       <defs>
        <path id="DejaVuSans-32" d="M 1228 531 
L 3431 531 
L 3431 0 
L 469 0 
L 469 531 
Q 828 903 1448 1529 
Q 2069 2156 2228 2338 
Q 2531 2678 2651 2914 
Q 2772 3150 2772 3378 
Q 2772 3750 2511 3984 
Q 2250 4219 1831 4219 
Q 1534 4219 1204 4116 
Q 875 4013 500 3803 
L 500 4441 
Q 881 4594 1212 4672 
Q 1544 4750 1819 4750 
Q 2544 4750 2975 4387 
Q 3406 4025 3406 3419 
Q 3406 3131 3298 2873 
Q 3191 2616 2906 2266 
Q 2828 2175 2409 1742 
Q 1991 1309 1228 531 
z
" transform="scale(0.015625)"/>
       </defs>
       <use xlink:href="#DejaVuSans-32"/>
       <use xlink:href="#DejaVuSans-30" x="63.623047"/>
       <use xlink:href="#DejaVuSans-30" x="127.246094"/>
       <use xlink:href="#DejaVuSans-30" x="190.869141"/>
      </g>
     </g>
    </g>
    <g id="xtick_4">
     <g id="line2d_4">
      <g>
       <use xlink:href="#md8c25e66eb" x="329.977938" y="224.521875" style="stroke: #000000; stroke-width: 0.8"/>
      </g>
     </g>
     <g id="text_4">
      <!-- 3000 -->
      <g transform="translate(317.252938 239.120313) scale(0.1 -0.1)">
       <defs>
        <path id="DejaVuSans-33" d="M 2597 2516 
Q 3050 2419 3304 2112 
Q 3559 1806 3559 1356 
Q 3559 666 3084 287 
Q 2609 -91 1734 -91 
Q 1441 -91 1130 -33 
Q 819 25 488 141 
L 488 750 
Q 750 597 1062 519 
Q 1375 441 1716 441 
Q 2309 441 2620 675 
Q 2931 909 2931 1356 
Q 2931 1769 2642 2001 
Q 2353 2234 1838 2234 
L 1294 2234 
L 1294 2753 
L 1863 2753 
Q 2328 2753 2575 2939 
Q 2822 3125 2822 3475 
Q 2822 3834 2567 4026 
Q 2313 4219 1838 4219 
Q 1578 4219 1281 4162 
Q 984 4106 628 3988 
L 628 4550 
Q 988 4650 1302 4700 
Q 1616 4750 1894 4750 
Q 2613 4750 3031 4423 
Q 3450 4097 3450 3541 
Q 3450 3153 3228 2886 
Q 3006 2619 2597 2516 
z
" transform="scale(0.015625)"/>
       </defs>
       <use xlink:href="#DejaVuSans-33"/>
       <use xlink:href="#DejaVuSans-30" x="63.623047"/>
       <use xlink:href="#DejaVuSans-30" x="127.246094"/>
       <use xlink:href="#DejaVuSans-30" x="190.869141"/>
      </g>
     </g>
    </g>
    <g id="xtick_5">
     <g id="line2d_5">
      <g>
       <use xlink:href="#md8c25e66eb" x="418.562416" y="224.521875" style="stroke: #000000; stroke-width: 0.8"/>
      </g>
     </g>
     <g id="text_5">
      <!-- 4000 -->
      <g transform="translate(405.837416 239.120313) scale(0.1 -0.1)">
       <defs>
        <path id="DejaVuSans-34" d="M 2419 4116 
L 825 1625 
L 2419 1625 
L 2419 4116 
z
M 2253 4666 
L 3047 4666 
L 3047 1625 
L 3713 1625 
L 3713 1100 
L 3047 1100 
L 3047 0 
L 2419 0 
L 2419 1100 
L 313 1100 
L 313 1709 
L 2253 4666 
z
" transform="scale(0.015625)"/>
       </defs>
       <use xlink:href="#DejaVuSans-34"/>
       <use xlink:href="#DejaVuSans-30" x="63.623047"/>
       <use xlink:href="#DejaVuSans-30" x="127.246094"/>
       <use xlink:href="#DejaVuSans-30" x="190.869141"/>
      </g>
     </g>
    </g>
    <g id="xtick_6">
     <g id="line2d_6">
      <g>
       <use xlink:href="#md8c25e66eb" x="507.146894" y="224.521875" style="stroke: #000000; stroke-width: 0.8"/>
      </g>
     </g>
     <g id="text_6">
      <!-- 5000 -->
      <g transform="translate(494.421894 239.120313) scale(0.1 -0.1)">
       <defs>
        <path id="DejaVuSans-35" d="M 691 4666 
L 3169 4666 
L 3169 4134 
L 1269 4134 
L 1269 2991 
Q 1406 3038 1543 3061 
Q 1681 3084 1819 3084 
Q 2600 3084 3056 2656 
Q 3513 2228 3513 1497 
Q 3513 744 3044 326 
Q 2575 -91 1722 -91 
Q 1428 -91 1123 -41 
Q 819 9 494 109 
L 494 744 
Q 775 591 1075 516 
Q 1375 441 1709 441 
Q 2250 441 2565 725 
Q 2881 1009 2881 1497 
Q 2881 1984 2565 2268 
Q 2250 2553 1709 2553 
Q 1456 2553 1204 2497 
Q 953 2441 691 2322 
L 691 4666 
z
" transform="scale(0.015625)"/>
       </defs>
       <use xlink:href="#DejaVuSans-35"/>
       <use xlink:href="#DejaVuSans-30" x="63.623047"/>
       <use xlink:href="#DejaVuSans-30" x="127.246094"/>
       <use xlink:href="#DejaVuSans-30" x="190.869141"/>
      </g>
     </g>
    </g>
   </g>
   <g id="matplotlib.axis_2">
    <g id="ytick_1">
     <g id="line2d_7">
      <defs>
       <path id="mf9cff94f98" d="M 0 0 
L -3.5 0 
" style="stroke: #000000; stroke-width: 0.8"/>
      </defs>
      <g>
       <use xlink:href="#mf9cff94f98" x="42.082813" y="205.648593" style="stroke: #000000; stroke-width: 0.8"/>
      </g>
     </g>
     <g id="text_7">
      <!-- −1.5 -->
      <g transform="translate(10.8 209.447811) scale(0.1 -0.1)">
       <defs>
        <path id="DejaVuSans-2212" d="M 678 2272 
L 4684 2272 
L 4684 1741 
L 678 1741 
L 678 2272 
z
" transform="scale(0.015625)"/>
        <path id="DejaVuSans-2e" d="M 684 794 
L 1344 794 
L 1344 0 
L 684 0 
L 684 794 
z
" transform="scale(0.015625)"/>
       </defs>
       <use xlink:href="#DejaVuSans-2212"/>
       <use xlink:href="#DejaVuSans-31" x="83.789062"/>
       <use xlink:href="#DejaVuSans-2e" x="147.412109"/>
       <use xlink:href="#DejaVuSans-35" x="179.199219"/>
      </g>
     </g>
    </g>
    <g id="ytick_2">
     <g id="line2d_8">
      <g>
       <use xlink:href="#mf9cff94f98" x="42.082813" y="175.40205" style="stroke: #000000; stroke-width: 0.8"/>
      </g>
     </g>
     <g id="text_8">
      <!-- −1.0 -->
      <g transform="translate(10.8 179.201269) scale(0.1 -0.1)">
       <use xlink:href="#DejaVuSans-2212"/>
       <use xlink:href="#DejaVuSans-31" x="83.789062"/>
       <use xlink:href="#DejaVuSans-2e" x="147.412109"/>
       <use xlink:href="#DejaVuSans-30" x="179.199219"/>
      </g>
     </g>
    </g>
    <g id="ytick_3">
     <g id="line2d_9">
      <g>
       <use xlink:href="#mf9cff94f98" x="42.082813" y="145.155507" style="stroke: #000000; stroke-width: 0.8"/>
      </g>
     </g>
     <g id="text_9">
      <!-- −0.5 -->
      <g transform="translate(10.8 148.954726) scale(0.1 -0.1)">
       <use xlink:href="#DejaVuSans-2212"/>
       <use xlink:href="#DejaVuSans-30" x="83.789062"/>
       <use xlink:href="#DejaVuSans-2e" x="147.412109"/>
       <use xlink:href="#DejaVuSans-35" x="179.199219"/>
      </g>
     </g>
    </g>
    <g id="ytick_4">
     <g id="line2d_10">
      <g>
       <use xlink:href="#mf9cff94f98" x="42.082813" y="114.908965" style="stroke: #000000; stroke-width: 0.8"/>
      </g>
     </g>
     <g id="text_10">
      <!-- 0.0 -->
      <g transform="translate(19.179688 118.708184) scale(0.1 -0.1)">
       <use xlink:href="#DejaVuSans-30"/>
       <use xlink:href="#DejaVuSans-2e" x="63.623047"/>
       <use xlink:href="#DejaVuSans-30" x="95.410156"/>
      </g>
     </g>
    </g>
    <g id="ytick_5">
     <g id="line2d_11">
      <g>
       <use xlink:href="#mf9cff94f98" x="42.082813" y="84.662422" style="stroke: #000000; stroke-width: 0.8"/>
      </g>
     </g>
     <g id="text_11">
      <!-- 0.5 -->
      <g transform="translate(19.179688 88.461641) scale(0.1 -0.1)">
       <use xlink:href="#DejaVuSans-30"/>
       <use xlink:href="#DejaVuSans-2e" x="63.623047"/>
       <use xlink:href="#DejaVuSans-35" x="95.410156"/>
      </g>
     </g>
    </g>
    <g id="ytick_6">
     <g id="line2d_12">
      <g>
       <use xlink:href="#mf9cff94f98" x="42.082813" y="54.41588" style="stroke: #000000; stroke-width: 0.8"/>
      </g>
     </g>
     <g id="text_12">
      <!-- 1.0 -->
      <g transform="translate(19.179688 58.215098) scale(0.1 -0.1)">
       <use xlink:href="#DejaVuSans-31"/>
       <use xlink:href="#DejaVuSans-2e" x="63.623047"/>
       <use xlink:href="#DejaVuSans-30" x="95.410156"/>
      </g>
     </g>
    </g>
    <g id="ytick_7">
     <g id="line2d_13">
      <g>
       <use xlink:href="#mf9cff94f98" x="42.082813" y="24.169337" style="stroke: #000000; stroke-width: 0.8"/>
      </g>
     </g>
     <g id="text_13">
      <!-- 1.5 -->
      <g transform="translate(19.179688 27.968556) scale(0.1 -0.1)">
       <use xlink:href="#DejaVuSans-31"/>
       <use xlink:href="#DejaVuSans-2e" x="63.623047"/>
       <use xlink:href="#DejaVuSans-35" x="95.410156"/>
      </g>
     </g>
    </g>
   </g>
   <g id="line2d_14">
    <path d="M 64.224503 78.051359 
L 64.401672 73.880016 
L 64.490256 70.148833 
L 64.578841 72.105969 
L 64.667425 68.917684 
L 64.75601 69.278892 
L 64.844594 72.62005 
L 64.933179 69.172649 
L 65.021763 69.623528 
L 65.110348 69.16046 
L 65.198932 67.962114 
L 65.287517 62.553642 
L 65.376101 67.666068 
L 65.55327 58.930257 
L 65.641854 61.938821 
L 65.730439 59.694002 
L 65.819023 60.215066 
L 65.907608 63.289975 
L 65.996192 61.495631 
L 66.173361 65.032275 
L 66.35053 58.61944 
L 66.439115 58.10004 
L 66.882037 85.900359 
L 66.970622 87.538265 
L 67.236375 81.84235 
L 67.32496 82.339881 
L 67.413544 84.961305 
L 67.502129 84.436371 
L 67.590713 78.645073 
L 67.679297 93.021688 
L 67.945051 82.361408 
L 68.12222 91.309501 
L 68.210804 88.587711 
L 68.299389 84.458695 
L 68.387973 85.497382 
L 68.476558 92.246332 
L 68.565142 90.768335 
L 68.653727 86.893621 
L 68.742311 92.357814 
L 68.830896 91.687008 
L 68.91948 94.104656 
L 69.008065 102.841826 
L 69.096649 100.925059 
L 69.185234 100.496848 
L 69.273818 100.918228 
L 69.628156 113.347723 
L 69.71674 109.588268 
L 69.805325 113.933309 
L 69.893909 111.245331 
L 70.071078 114.679562 
L 70.159663 111.05517 
L 70.425416 116.015908 
L 70.514001 118.248093 
L 70.868339 105.692827 
L 70.956923 104.291445 
L 71.134092 95.58336 
L 71.222677 94.45308 
L 71.48843 80.852909 
L 71.577015 82.201584 
L 71.665599 81.497501 
L 71.754183 78.522212 
L 72.197106 100.904513 
L 72.28569 94.903694 
L 72.905782 110.448912 
L 72.994366 103.666438 
L 73.082951 106.205136 
L 73.26012 93.473524 
L 73.348704 98.098265 
L 73.437289 92.109183 
L 73.525873 92.520226 
L 73.703042 100.343742 
L 73.791626 99.490212 
L 73.880211 100.650342 
L 74.234549 84.580158 
L 74.323133 85.018761 
L 74.500302 93.291765 
L 74.588887 90.963813 
L 74.677471 84.526044 
L 74.766056 85.685878 
L 74.943225 82.672905 
L 75.031809 86.090659 
L 75.120394 79.826896 
L 75.386147 85.354633 
L 75.563316 83.454834 
L 75.740485 75.130473 
L 75.829069 75.793857 
L 75.917654 80.701882 
L 76.006238 76.56738 
L 76.271992 86.285693 
L 76.803499 100.299325 
L 76.892083 93.89587 
L 76.980668 95.365358 
L 77.157837 98.316481 
L 77.246421 96.966212 
L 77.42359 88.206044 
L 77.512175 89.799475 
L 77.600759 92.169602 
L 77.689344 85.450288 
L 77.777928 89.60717 
L 77.866512 88.295437 
L 77.955097 89.277514 
L 78.043681 85.055557 
L 78.132266 85.684529 
L 78.22085 86.840679 
L 78.309435 82.689018 
L 78.486604 91.496047 
L 78.575188 89.946348 
L 79.106695 70.259102 
L 79.283864 85.081658 
L 79.372449 86.236352 
L 79.638202 72.281972 
L 79.726787 71.132213 
L 79.815371 79.783536 
L 79.903955 77.810946 
L 80.169709 73.80582 
L 80.258293 76.059145 
L 80.346878 72.779218 
L 80.435462 79.51579 
L 80.524047 78.730344 
L 80.612631 78.447635 
L 80.701216 82.795002 
L 80.7898 82.524079 
L 80.966969 80.163811 
L 81.055554 80.211031 
L 81.144138 80.359915 
L 81.232723 78.195822 
L 81.675645 96.581493 
L 81.76423 87.680495 
L 81.852814 89.427257 
L 81.941398 87.943718 
L 82.029983 94.317263 
L 82.118567 92.572909 
L 82.295736 105.210188 
L 82.384321 104.178624 
L 82.472905 97.705171 
L 82.56149 102.433925 
L 82.650074 100.640562 
L 82.738659 101.006965 
L 83.004412 106.786232 
L 83.092997 106.407223 
L 83.270166 111.024688 
L 83.447335 101.161333 
L 83.535919 102.10291 
L 83.624504 104.880693 
L 83.713088 99.938699 
L 83.801673 102.574764 
L 83.978841 100.034804 
L 84.067426 100.554983 
L 84.244595 96.393886 
L 84.333179 97.409889 
L 84.510348 105.337913 
L 84.776102 110.04753 
L 84.864686 107.464914 
L 85.307609 117.307437 
L 85.484778 110.974726 
L 85.573362 111.970041 
L 85.839116 126.550909 
L 85.9277 128.551333 
L 86.016284 128.259106 
L 86.104869 125.02717 
L 86.282038 134.391165 
L 86.370622 129.226247 
L 86.72496 139.156396 
L 86.902129 132.84912 
L 86.990714 139.048582 
L 87.167883 135.026953 
L 87.433636 149.395518 
L 87.522221 145.210793 
L 87.610805 148.853975 
L 87.69939 145.525281 
L 88.053727 153.754355 
L 88.142312 152.91991 
L 88.230896 152.546062 
L 88.49665 168.270905 
L 88.673819 160.668891 
L 88.762403 162.672312 
L 88.850988 162.106957 
L 88.939572 162.309831 
L 89.028157 166.45643 
L 89.116741 162.204564 
L 89.205326 165.01093 
L 89.382495 178.996823 
L 89.471079 177.506754 
L 89.559664 168.035509 
L 89.648248 168.292398 
L 89.825417 172.747859 
L 89.914002 170.846362 
L 90.002586 162.404239 
L 90.179755 168.083256 
L 90.445508 157.01423 
L 90.977015 172.22195 
L 91.0656 172.499725 
L 91.242769 169.107216 
L 91.331353 171.4598 
L 91.419938 169.968082 
L 91.597107 159.63567 
L 91.685691 158.736932 
L 91.774276 158.777009 
L 91.86286 159.257947 
L 92.217198 170.829026 
L 92.305782 169.579425 
L 92.482951 174.812823 
L 92.571536 173.48522 
L 92.748705 166.697884 
L 92.925874 171.524759 
L 93.014458 167.835942 
L 93.191627 169.995008 
L 93.457381 156.863175 
L 93.723134 164.405875 
L 93.811719 164.109478 
L 93.900303 163.224503 
L 93.988888 164.972178 
L 94.077472 163.419552 
L 94.254641 165.973345 
L 94.343225 166.300432 
L 94.43181 168.818061 
L 94.520394 161.085881 
L 94.608979 161.727085 
L 94.786148 170.992857 
L 94.874732 172.126986 
L 94.963317 171.607439 
L 95.051901 174.314229 
L 95.22907 170.294307 
L 95.317655 164.420359 
L 95.671993 180.531644 
L 96.026331 162.191744 
L 96.380668 179.574888 
L 96.469253 178.6897 
L 96.557837 174.369203 
L 96.646422 174.802545 
L 96.735006 179.122529 
L 96.823591 178.459549 
L 96.912175 178.719894 
L 97.00076 179.357279 
L 97.089344 182.659649 
L 97.266513 176.94205 
L 97.443682 183.541028 
L 97.532267 182.035148 
L 97.620851 172.099473 
L 97.709436 173.312158 
L 97.79802 170.067993 
L 97.886605 174.138502 
L 98.063774 162.55878 
L 98.152358 161.995614 
L 98.240942 165.084558 
L 98.418111 155.592971 
L 98.59528 167.334997 
L 98.683865 160.034993 
L 98.861034 167.340267 
L 99.038203 160.016023 
L 99.215372 164.113255 
L 99.392541 154.915577 
L 99.481125 150.488818 
L 99.56971 152.958981 
L 99.658294 150.766138 
L 100.012632 163.149328 
L 100.101217 159.455839 
L 100.189801 160.205396 
L 100.278385 160.061872 
L 100.36697 156.54174 
L 100.455554 159.935063 
L 100.544139 168.334645 
L 100.632723 167.753675 
L 100.721308 167.289929 
L 100.809892 168.011061 
L 100.898477 173.004442 
L 101.075646 165.319455 
L 101.252815 169.296978 
L 101.429984 160.461929 
L 101.518568 160.797387 
L 101.607153 160.427093 
L 101.784322 163.841195 
L 101.872906 163.956179 
L 102.050075 171.366129 
L 102.13866 167.848578 
L 102.227244 174.229827 
L 102.315828 168.115481 
L 102.404413 175.910868 
L 102.492997 175.321497 
L 102.581582 177.893446 
L 102.670166 175.829012 
L 102.758751 179.291147 
L 102.847335 178.428579 
L 102.93592 180.007616 
L 103.113089 177.888382 
L 103.201673 180.765423 
L 103.290258 177.785414 
L 103.378842 178.122279 
L 103.467427 177.239441 
L 103.73318 170.685951 
L 103.998934 183.068086 
L 104.264687 174.692339 
L 104.353271 174.941944 
L 104.441856 176.711881 
L 104.53044 176.658136 
L 104.707609 175.169918 
L 104.884778 163.426495 
L 104.973363 159.742557 
L 105.150532 148.120926 
L 105.239116 150.525412 
L 105.416285 144.683017 
L 105.50487 138.761064 
L 105.593454 142.446067 
L 105.859208 126.564707 
L 105.947792 127.631 
L 106.124961 129.652391 
L 106.213546 133.860346 
L 106.30213 132.170176 
L 106.567883 123.469553 
L 106.656468 122.691991 
L 106.833637 130.769592 
L 106.922221 131.696253 
L 107.010806 142.068496 
L 107.09939 141.514665 
L 107.187975 146.292995 
L 107.276559 145.419896 
L 107.365144 140.168972 
L 107.542313 147.090845 
L 107.630897 147.327753 
L 107.719482 152.359961 
L 107.808066 148.762912 
L 107.896651 149.349463 
L 108.07382 147.813132 
L 108.162404 144.437531 
L 108.250989 147.036205 
L 108.516742 141.446415 
L 108.693911 149.019536 
L 108.87108 155.035567 
L 108.959664 154.626228 
L 109.136833 144.689678 
L 109.225418 143.653319 
L 109.314002 144.573097 
L 109.579756 157.808613 
L 109.66834 156.317533 
L 109.756925 157.948864 
L 109.845509 157.509793 
L 109.934094 151.284317 
L 110.288432 162.159075 
L 110.377016 161.97524 
L 110.4656 162.046325 
L 110.554185 164.198351 
L 110.731354 157.600425 
L 110.819938 158.6545 
L 110.997107 148.264435 
L 111.085692 147.470347 
L 111.174276 138.452845 
L 111.262861 141.686011 
L 111.44003 130.378608 
L 111.528614 134.252319 
L 111.617199 129.852401 
L 111.705783 135.570473 
L 111.971537 125.650049 
L 112.060121 131.040295 
L 112.148706 129.603944 
L 112.591628 148.397219 
L 112.768797 145.866739 
L 112.857381 148.346363 
L 113.03455 144.330504 
L 113.123135 137.466345 
L 113.388888 142.889348 
L 113.566057 131.43708 
L 113.743226 124.888758 
L 113.831811 126.366345 
L 113.920395 123.08044 
L 114.00898 123.125972 
L 114.186149 121.234079 
L 114.274733 123.575888 
L 114.363318 119.829954 
L 114.540486 138.171118 
L 114.629071 133.214093 
L 114.717655 134.822917 
L 114.80624 134.617233 
L 114.894824 128.499703 
L 115.071993 134.417774 
L 115.160578 132.634139 
L 115.249162 124.555967 
L 115.426331 127.04771 
L 115.692085 116.882197 
L 115.780669 110.256464 
L 115.957838 115.375997 
L 116.046423 115.097183 
L 116.135007 109.671265 
L 116.223592 111.791143 
L 116.312176 110.144779 
L 116.577929 90.551854 
L 116.755098 95.282825 
L 116.843683 93.651525 
L 117.020852 83.473743 
L 117.198021 92.777963 
L 117.286605 93.554929 
L 117.37519 90.958952 
L 117.640943 96.159385 
L 117.729528 95.684205 
L 118.438204 70.813075 
L 118.526788 70.37099 
L 118.615372 66.247981 
L 118.703957 68.959849 
L 118.792541 68.600217 
L 118.881126 67.853604 
L 118.96971 70.914832 
L 119.235464 90.725165 
L 119.324048 86.252 
L 119.412633 89.250735 
L 119.501217 87.373796 
L 119.589802 81.995595 
L 119.678386 82.051222 
L 119.94414 93.484905 
L 120.032724 98.225366 
L 120.121309 97.046983 
L 120.298478 103.033291 
L 120.387062 102.475604 
L 120.564231 82.707418 
L 120.652815 88.511842 
L 120.829984 84.111339 
L 120.918569 86.202891 
L 121.007153 91.109341 
L 121.095738 88.902938 
L 121.184322 80.647615 
L 121.272907 85.866132 
L 121.450076 81.758408 
L 121.53866 82.485964 
L 121.627245 79.600464 
L 121.804414 81.645234 
L 121.892998 80.8325 
L 122.158752 74.081732 
L 122.247336 73.379701 
L 122.424505 98.225618 
L 122.51309 91.529389 
L 122.690258 100.172332 
L 122.778843 99.585372 
L 122.956012 96.856278 
L 123.221765 81.703733 
L 123.31035 81.680515 
L 123.576103 72.395256 
L 123.753272 76.479744 
L 124.019026 72.188174 
L 124.196195 60.884424 
L 124.284779 67.09106 
L 124.373364 65.826051 
L 124.727701 55.223818 
L 124.816286 55.810136 
L 124.993455 49.538619 
L 125.170624 59.45881 
L 125.259208 61.794726 
L 125.524962 57.332547 
L 125.613546 58.733455 
L 125.702131 58.239321 
L 125.967884 54.196409 
L 126.056469 51.370757 
L 126.145053 53.8454 
L 126.233638 53.028207 
L 126.322222 46.052297 
L 126.410807 47.940356 
L 126.587976 45.962002 
L 126.67656 46.333733 
L 126.765144 48.139202 
L 126.942313 34.779896 
L 127.030898 33.926393 
L 127.119482 37.965762 
L 127.208067 32.901559 
L 127.385236 44.941055 
L 127.47382 39.057461 
L 127.562405 40.473981 
L 127.916743 33.767639 
L 128.182496 41.597214 
L 128.271081 36.288885 
L 128.44825 42.084664 
L 128.536834 28.097216 
L 128.625419 29.44051 
L 128.714003 31.32336 
L 128.802587 26.616062 
L 129.156925 43.596728 
L 129.24551 43.5877 
L 129.334094 39.422315 
L 129.422679 39.587175 
L 129.511263 38.836755 
L 129.599848 35.829517 
L 129.688432 36.265968 
L 129.865601 33.492256 
L 129.954186 37.121895 
L 130.04277 35.457313 
L 130.131355 37.876242 
L 130.219939 32.912723 
L 130.397108 35.737781 
L 130.485693 41.310191 
L 130.574277 37.78513 
L 130.662862 41.449053 
L 130.928615 31.652411 
L 131.194368 41.759404 
L 131.371537 50.29802 
L 131.460122 49.496087 
L 131.725875 55.610988 
L 131.903044 48.707458 
L 131.991629 49.914562 
L 132.168798 44.852577 
L 132.257382 45.676447 
L 132.345967 41.948384 
L 132.434551 44.461806 
L 132.61172 52.305394 
L 132.788889 39.506622 
L 133.143227 57.306748 
L 133.231811 55.987178 
L 133.40898 45.373487 
L 133.497565 49.960377 
L 133.586149 48.92648 
L 133.674734 49.782108 
L 133.940487 44.72077 
L 134.029072 39.332052 
L 134.117656 40.518952 
L 134.206241 41.050695 
L 134.294825 48.22008 
L 134.38341 48.168746 
L 134.471994 49.76347 
L 134.649163 47.979651 
L 134.737748 46.002725 
L 134.826332 51.666511 
L 134.914916 48.123294 
L 135.003501 52.01772 
L 135.357839 43.885455 
L 135.535008 48.813282 
L 135.623592 36.160306 
L 135.712177 38.296417 
L 135.800761 38.444196 
L 135.889346 43.917626 
L 135.97793 32.397264 
L 136.332268 44.157788 
L 136.509437 44.685282 
L 136.863775 59.903522 
L 137.040944 52.550517 
L 137.129528 54.741729 
L 137.218113 53.594835 
L 137.395282 60.701724 
L 137.483866 53.213368 
L 137.838204 60.758924 
L 137.926789 55.589395 
L 138.015373 62.561081 
L 138.103958 61.204141 
L 138.192542 63.625925 
L 138.458296 81.001154 
L 138.54688 82.87739 
L 138.635465 81.635997 
L 138.901218 91.807781 
L 138.989802 91.274331 
L 139.078387 97.984853 
L 139.166971 97.003012 
L 139.432725 107.725872 
L 139.521309 104.197239 
L 139.609894 109.118338 
L 139.698478 100.110179 
L 139.875647 108.014799 
L 139.964232 109.204693 
L 140.052816 97.835079 
L 140.31857 109.665883 
L 140.407154 109.865522 
L 140.495739 110.524605 
L 140.672908 113.057658 
L 140.761492 110.450168 
L 140.850077 114.320573 
L 141.027245 109.373359 
L 141.204414 99.505131 
L 141.381583 109.45791 
L 141.470168 106.107305 
L 141.558752 116.902399 
L 141.647337 116.046927 
L 141.824506 117.370763 
L 141.91309 112.120113 
L 142.178844 122.880341 
L 142.267428 123.810638 
L 142.444597 129.894422 
L 142.533182 123.908332 
L 142.710351 126.889818 
L 142.88752 119.838605 
L 143.153273 126.598131 
L 143.330442 112.746827 
L 143.419026 119.120048 
L 143.507611 117.122293 
L 143.596195 112.169545 
L 143.68478 113.707081 
L 143.773364 120.180596 
L 143.950533 107.686111 
L 144.039118 104.616965 
L 144.127702 108.088539 
L 144.216287 107.656255 
L 144.304871 108.255626 
L 144.393456 113.994112 
L 144.48204 113.103258 
L 144.570625 117.190098 
L 144.836378 111.37475 
L 144.924963 110.459332 
L 145.545054 122.879417 
L 145.633638 122.682502 
L 145.899392 137.67974 
L 146.076561 141.157295 
L 146.165145 139.726124 
L 146.25373 141.950356 
L 146.342314 151.4123 
L 146.430899 147.234542 
L 146.519483 152.523319 
L 146.696652 147.370113 
L 146.873821 139.918946 
L 147.316743 156.775071 
L 147.405328 151.750204 
L 147.493912 158.002019 
L 147.671081 150.755206 
L 147.759666 151.455306 
L 147.936835 161.478361 
L 148.114004 157.820859 
L 148.202588 158.012878 
L 148.379757 154.447259 
L 148.911264 169.203306 
L 148.999849 165.596168 
L 149.088433 171.515113 
L 149.177017 171.23781 
L 149.354186 179.180145 
L 149.442771 176.619041 
L 149.531355 168.674944 
L 149.61994 170.183552 
L 149.797109 167.725044 
L 149.885693 167.379364 
L 150.062862 171.019617 
L 150.151447 164.237486 
L 150.240031 164.915946 
L 150.4172 170.928554 
L 150.505785 166.678338 
L 150.594369 172.242161 
L 150.682954 171.483938 
L 150.771538 166.154301 
L 150.948707 170.315012 
L 151.125876 174.53276 
L 151.391629 167.995635 
L 151.480214 169.346653 
L 151.568798 174.197528 
L 151.745967 172.498803 
L 151.923136 174.834552 
L 152.277474 165.46859 
L 152.454643 173.91027 
L 152.543228 174.919165 
L 152.631812 177.723392 
L 152.720397 176.564773 
L 152.808981 181.346416 
L 153.074735 178.173166 
L 153.163319 178.104302 
L 153.251903 175.460762 
L 153.340488 176.996383 
L 153.694826 169.930514 
L 153.78341 170.308097 
L 153.871995 173.166627 
L 153.960579 171.006741 
L 154.049164 174.648795 
L 154.137748 183.006702 
L 154.226333 181.747817 
L 154.314917 177.956983 
L 154.403502 179.2533 
L 154.492086 175.737438 
L 154.580671 177.346208 
L 154.75784 165.43694 
L 154.935009 173.000071 
L 155.023593 163.717707 
L 155.377931 179.119377 
L 155.466515 175.083533 
L 155.5551 180.487541 
L 155.820853 175.299715 
L 156.263776 186.021306 
L 156.440945 195.084386 
L 156.529529 191.796286 
L 156.618114 191.886812 
L 156.706698 193.587687 
L 156.795283 187.144937 
L 156.972452 196.196695 
L 157.061036 193.927043 
L 157.326789 206.076482 
L 157.415374 206.075086 
L 157.503958 214.807244 
L 157.769712 196.253242 
L 157.858296 198.953748 
L 157.946881 197.265343 
L 158.035465 192.744476 
L 158.12405 203.827473 
L 158.301219 196.482557 
L 158.389803 199.059334 
L 158.478388 198.10744 
L 158.832726 187.059361 
L 158.92131 183.841973 
L 159.098479 187.212073 
L 159.187064 179.177002 
L 159.275648 179.200963 
L 159.452817 182.558495 
L 159.541401 173.822188 
L 159.629986 173.880677 
L 159.71857 174.390687 
L 159.807155 174.276339 
L 159.895739 178.185773 
L 159.984324 177.660927 
L 160.072908 175.296828 
L 160.161493 176.921771 
L 160.250077 182.932421 
L 160.338662 173.663336 
L 160.427246 174.596955 
L 160.515831 177.426114 
L 160.958753 155.938343 
L 161.047338 159.446011 
L 161.135922 159.408485 
L 161.401675 164.329432 
L 161.49026 163.498145 
L 161.578844 168.78078 
L 161.933182 148.215035 
L 162.021767 153.056486 
L 162.110351 147.352739 
L 162.198936 148.936162 
L 162.28752 147.734197 
L 162.464689 137.963629 
L 162.553274 138.779957 
L 162.819027 131.758322 
L 162.996196 130.116487 
L 163.173365 132.658269 
L 163.26195 123.822807 
L 163.350534 124.577868 
L 163.439118 123.351614 
L 163.527703 127.356998 
L 163.616287 119.830885 
L 163.704872 124.921482 
L 163.793456 122.955259 
L 163.882041 124.4817 
L 164.147794 114.355087 
L 164.236379 113.309468 
L 164.413548 102.582116 
L 164.679301 96.083146 
L 164.767886 98.316816 
L 164.85647 96.027812 
L 164.945055 96.291311 
L 165.033639 94.993919 
L 165.210808 96.693812 
L 165.299393 88.777725 
L 165.387977 89.109273 
L 165.565146 79.189379 
L 165.65373 81.631892 
L 165.830899 72.979765 
L 165.919484 72.369081 
L 166.008068 70.363201 
L 166.185237 62.009062 
L 166.362406 58.046375 
L 166.450991 59.348663 
L 166.539575 58.701276 
L 166.62816 51.551283 
L 166.716744 53.542527 
L 166.982498 43.333665 
L 167.159667 54.727142 
L 167.248251 45.378075 
L 167.336836 46.672712 
L 167.602589 38.090261 
L 167.691173 35.608763 
L 167.779758 22.101035 
L 167.868342 23.987228 
L 167.956927 33.970367 
L 168.045511 32.094955 
L 168.134096 32.123986 
L 168.22268 33.080316 
L 168.399849 40.961221 
L 168.488434 38.446331 
L 168.577018 38.87702 
L 168.754187 35.729619 
L 169.108525 20.690765 
L 169.19711 22.547402 
L 169.462863 43.325288 
L 169.640032 50.170004 
L 169.728616 47.764104 
L 169.817201 44.55162 
L 169.905785 45.992214 
L 170.082954 52.588543 
L 170.171539 53.024105 
L 170.260123 52.172213 
L 170.437292 57.114678 
L 170.614461 51.713174 
L 170.703046 50.048432 
L 170.880215 54.123229 
L 170.968799 53.467489 
L 171.145968 46.374419 
L 171.323137 54.240962 
L 171.500306 49.243131 
L 171.677475 44.058105 
L 171.766059 46.354608 
L 171.854644 45.651928 
L 171.943228 41.749424 
L 172.120397 51.529609 
L 172.208982 62.122839 
L 172.297566 59.111083 
L 172.386151 62.774136 
L 172.474735 62.546675 
L 172.56332 65.059579 
L 172.651904 64.407293 
L 172.740489 71.074247 
L 172.917658 65.625461 
L 173.183411 73.35069 
L 173.271996 76.155422 
L 173.36058 83.84442 
L 173.626333 71.189685 
L 173.803502 85.301353 
L 173.892087 85.047157 
L 174.069256 97.524435 
L 174.15784 94.203025 
L 174.246425 98.616093 
L 174.423594 96.349328 
L 174.600763 101.820023 
L 174.777932 95.397514 
L 174.866516 88.440005 
L 174.955101 89.731726 
L 175.043685 91.411566 
L 175.309439 106.630352 
L 175.398023 109.142999 
L 175.486608 101.445397 
L 175.575192 101.983762 
L 175.663776 98.218594 
L 175.752361 99.324864 
L 175.92953 92.386375 
L 176.018114 91.79165 
L 176.195283 85.025795 
L 176.372452 90.748832 
L 176.461037 85.317079 
L 176.72679 90.775806 
L 176.815375 91.965236 
L 176.903959 89.826137 
L 176.992544 90.718952 
L 177.081128 99.390149 
L 177.169713 95.135086 
L 177.524051 101.949281 
L 177.701219 104.88377 
L 177.789804 109.702261 
L 177.878388 108.891008 
L 177.966973 111.328085 
L 178.055557 110.408011 
L 178.232726 106.965828 
L 178.321311 108.049862 
L 178.409895 104.043585 
L 178.49848 106.345733 
L 178.587064 99.430757 
L 179.118571 121.991405 
L 179.207156 116.675159 
L 179.561494 126.565972 
L 179.650078 126.864997 
L 179.827247 133.820214 
L 179.915831 131.876856 
L 180.004416 132.312247 
L 180.093 131.464869 
L 180.270169 146.167399 
L 180.358754 141.516437 
L 180.447338 143.853164 
L 180.535923 142.579962 
L 180.624507 151.010066 
L 180.713092 146.051665 
L 180.890261 153.405181 
L 180.978845 146.776415 
L 181.421768 162.344423 
L 181.510352 161.407534 
L 181.598937 166.343086 
L 181.687521 165.615807 
L 181.776105 166.083958 
L 181.953274 174.678407 
L 182.041859 169.801748 
L 182.219028 175.63821 
L 182.307612 176.623836 
L 182.484781 185.504924 
L 182.573366 180.037981 
L 182.66195 180.742695 
L 182.839119 183.539864 
L 183.016288 187.405234 
L 183.104873 178.399713 
L 183.193457 185.701473 
L 183.282042 184.923575 
L 183.459211 178.382922 
L 183.547795 184.636793 
L 183.63638 184.433279 
L 183.724964 185.997743 
L 184.079302 172.195281 
L 184.256471 173.743459 
L 184.345055 172.733679 
L 184.522224 179.562899 
L 184.699393 179.779902 
L 184.876562 181.44528 
L 184.965147 180.937847 
L 185.053731 186.111733 
L 185.762407 164.203545 
L 185.939576 172.844022 
L 186.02816 172.21731 
L 186.116745 172.592266 
L 186.293914 176.593598 
L 186.382498 177.681827 
L 186.471083 174.610286 
L 186.914005 193.628858 
L 187.00259 186.299331 
L 187.091174 186.817557 
L 187.179759 185.182861 
L 187.356928 187.428473 
L 187.445512 187.540915 
L 187.534097 192.636111 
L 187.622681 189.210686 
L 187.79985 191.824702 
L 188.065603 182.195243 
L 188.154188 183.072153 
L 188.242772 181.158223 
L 188.331357 185.660723 
L 188.774279 160.683867 
L 189.040033 170.681005 
L 189.128617 167.742719 
L 189.217202 171.239961 
L 189.482955 167.096237 
L 189.660124 169.8903 
L 189.748709 162.20982 
L 189.837293 168.847557 
L 189.925877 165.590703 
L 190.014462 166.151667 
L 190.103046 172.016188 
L 190.191631 167.822232 
L 190.280215 168.006733 
L 190.3688 168.775901 
L 190.723138 146.703102 
L 190.811722 149.377288 
L 191.077476 141.815872 
L 191.254645 139.434456 
L 191.343229 144.265837 
L 191.431814 141.475842 
L 191.520398 142.537928 
L 191.608983 141.251055 
L 191.697567 150.664912 
L 191.874736 140.343525 
L 192.051905 132.628404 
L 192.140489 132.682745 
L 192.229074 132.886524 
L 192.317658 135.454438 
L 192.583412 120.096969 
L 192.671996 122.597618 
L 192.93775 111.52221 
L 193.026334 114.72127 
L 193.114919 111.569195 
L 193.203503 111.950451 
L 193.380672 116.186963 
L 193.469257 112.314788 
L 193.557841 115.684675 
L 193.646426 114.085384 
L 193.73501 108.749372 
L 193.823595 110.167592 
L 193.912179 109.821368 
L 194.266517 100.128217 
L 194.355101 91.611207 
L 194.53227 96.413154 
L 194.620855 97.364878 
L 194.709439 101.227978 
L 194.798024 100.799293 
L 194.886608 100.375739 
L 195.063777 107.6276 
L 195.240946 98.266111 
L 195.329531 100.444712 
L 195.418115 98.033484 
L 195.5067 98.444821 
L 195.772453 114.589854 
L 196.30396 108.395733 
L 196.481129 119.132264 
L 196.569713 120.702173 
L 196.746882 126.020091 
L 196.835467 125.474232 
L 196.924051 131.875185 
L 197.10122 127.148227 
L 197.189805 125.973866 
L 197.366974 128.970493 
L 197.455558 128.745524 
L 197.544143 127.987444 
L 197.632727 131.983134 
L 197.721312 130.075714 
L 197.809896 133.009965 
L 197.987065 127.217785 
L 198.075649 127.22719 
L 198.341403 123.18505 
L 198.518572 131.944974 
L 198.784325 149.397181 
L 198.87291 148.708991 
L 199.050079 155.518752 
L 199.138663 154.157656 
L 199.227248 155.516424 
L 199.581586 144.414457 
L 199.67017 148.059025 
L 199.758755 145.315776 
L 199.847339 146.956695 
L 200.024508 140.258627 
L 200.201677 143.806839 
L 200.46743 131.165278 
L 200.556015 135.042068 
L 200.644599 135.037468 
L 200.733184 129.946951 
L 200.821768 132.770759 
L 200.910353 129.059717 
L 201.176106 144.912487 
L 201.264691 145.105972 
L 201.353275 143.028238 
L 201.44186 144.410505 
L 201.530444 151.23624 
L 201.707613 142.702575 
L 201.796198 139.700047 
L 201.973367 147.091749 
L 202.23912 140.087438 
L 202.327704 148.561684 
L 202.504873 137.016473 
L 202.593458 137.251417 
L 202.770627 142.5992 
L 202.859211 138.286058 
L 202.947796 138.318497 
L 203.03638 138.152597 
L 203.390718 146.233673 
L 203.479303 146.265 
L 203.656472 155.531276 
L 203.833641 144.873502 
L 203.922225 148.81316 
L 204.01081 147.008204 
L 204.187978 159.555933 
L 204.276563 158.306191 
L 204.542316 142.613527 
L 204.630901 142.2492 
L 204.80807 140.327605 
L 204.985239 144.565185 
L 205.162408 135.123578 
L 205.339577 128.829626 
L 205.516746 135.164531 
L 205.693915 137.63467 
L 205.782499 132.975371 
L 205.959668 140.925833 
L 206.048253 133.138732 
L 206.136837 133.346949 
L 206.225421 131.376486 
L 206.314006 125.60902 
L 206.40259 128.744398 
L 206.491175 127.410587 
L 206.668344 129.227705 
L 206.756928 130.66581 
L 206.934097 139.598179 
L 207.022682 137.004257 
L 207.111266 137.033902 
L 207.199851 136.727989 
L 207.288435 141.84432 
L 207.37702 140.201809 
L 207.642773 130.594394 
L 207.731358 131.944035 
L 207.819942 128.541741 
L 207.908527 128.977882 
L 208.17428 136.390039 
L 208.262864 131.203372 
L 208.351449 132.149777 
L 208.440033 133.533483 
L 208.528618 131.267355 
L 208.705787 134.549541 
L 208.97154 121.634205 
L 209.060125 124.373401 
L 209.148709 123.512662 
L 209.503047 115.297458 
L 209.591632 117.668829 
L 209.680216 117.578921 
L 209.768801 118.624786 
L 209.857385 117.258483 
L 210.123139 97.742038 
L 210.300307 103.659604 
L 210.388892 104.070598 
L 210.566061 105.530637 
L 210.654645 104.723928 
L 210.74323 101.981524 
L 210.831814 103.158965 
L 210.920399 108.206667 
L 211.363321 76.388599 
L 211.54049 78.377022 
L 211.629075 85.169705 
L 211.717659 83.436177 
L 211.806244 86.713216 
L 212.071997 80.63788 
L 212.160582 75.724126 
L 212.249166 77.365223 
L 212.33775 73.998942 
L 212.603504 81.446004 
L 212.869257 88.831735 
L 212.957842 82.614612 
L 213.046426 85.160855 
L 213.135011 80.156722 
L 213.223595 82.007671 
L 213.400764 95.181642 
L 213.666518 83.430123 
L 213.755102 83.552997 
L 213.932271 93.570014 
L 214.020856 91.973739 
L 214.198025 96.300745 
L 214.286609 93.973257 
L 214.463778 100.770711 
L 214.552362 100.713647 
L 214.640947 103.84971 
L 214.818116 96.034857 
L 214.9067 96.081082 
L 214.995285 99.90563 
L 215.083869 98.761059 
L 215.261038 92.016101 
L 215.349623 99.311485 
L 215.703961 82.550021 
L 215.88113 94.613677 
L 215.969714 90.007621 
L 216.058299 91.248472 
L 216.235468 88.595729 
L 216.412636 91.984997 
L 216.501221 91.536866 
L 216.589805 88.860744 
L 216.67839 92.015732 
L 216.855559 84.004826 
L 217.121312 97.867494 
L 217.298481 90.482862 
L 217.47565 94.413117 
L 217.652819 86.390682 
L 217.741404 90.315614 
L 218.095742 70.984099 
L 218.184326 73.963382 
L 218.361495 73.057831 
L 218.450079 75.402734 
L 218.627248 73.580912 
L 219.070171 96.386279 
L 219.335924 98.790164 
L 219.424509 98.747162 
L 219.513093 97.194666 
L 219.867431 115.181633 
L 219.956016 114.652576 
L 220.0446 114.896278 
L 220.310354 136.101858 
L 220.487522 137.547204 
L 220.576107 137.128942 
L 220.664691 140.573418 
L 220.930445 128.764811 
L 221.107614 130.92354 
L 221.196198 132.336254 
L 221.284783 130.90444 
L 221.461952 132.144742 
L 221.81629 147.275075 
L 221.904874 144.629194 
L 221.993459 145.601097 
L 222.259212 133.932839 
L 222.347797 138.885519 
L 222.436381 138.710029 
L 222.61355 137.138578 
L 222.702134 142.594129 
L 222.790719 142.242888 
L 223.145057 158.814028 
L 223.41081 149.806747 
L 223.587979 136.795602 
L 223.676564 141.905543 
L 223.765148 141.264841 
L 223.853733 143.688143 
L 224.030902 135.204199 
L 224.296655 143.466892 
L 224.38524 139.890476 
L 224.473824 141.607889 
L 224.562408 147.914025 
L 224.739577 140.838215 
L 224.828162 149.594567 
L 224.916746 149.301901 
L 225.005331 148.086358 
L 225.093915 135.42587 
L 225.1825 136.253405 
L 225.271084 135.96471 
L 225.359669 132.669846 
L 225.536838 140.645077 
L 225.714007 132.702967 
L 225.802591 133.979179 
L 225.891176 139.377836 
L 225.97976 138.450678 
L 226.068345 143.241151 
L 226.156929 135.494877 
L 226.245514 135.924924 
L 226.422683 139.487809 
L 226.511267 139.474972 
L 226.688436 139.126947 
L 226.77702 138.087736 
L 226.865605 139.175349 
L 226.954189 142.924479 
L 227.131358 137.371291 
L 227.219943 144.155048 
L 227.397112 133.097456 
L 227.485696 133.679051 
L 227.662865 146.310369 
L 227.75145 145.240507 
L 227.928619 146.59677 
L 228.017203 142.391323 
L 228.105788 145.637191 
L 228.194372 154.233405 
L 228.282957 153.851226 
L 228.371541 159.092199 
L 228.460126 158.734939 
L 228.54871 157.129717 
L 228.814463 163.610351 
L 229.080217 172.769878 
L 229.168801 172.311651 
L 229.257386 169.719002 
L 229.34597 170.310658 
L 229.434555 172.536652 
L 229.523139 165.65694 
L 229.611724 168.054601 
L 229.700308 164.629708 
L 230.143231 178.639098 
L 230.231815 174.561333 
L 230.3204 176.112633 
L 230.408984 171.238572 
L 230.497569 174.042947 
L 230.586153 171.588165 
L 230.674737 174.73779 
L 230.763322 174.434499 
L 230.851906 174.8681 
L 230.940491 178.090484 
L 231.029075 177.389304 
L 231.11766 174.870147 
L 231.294829 178.306488 
L 231.383413 177.931089 
L 231.471998 173.207798 
L 231.560582 179.147906 
L 231.649167 178.654232 
L 231.737751 173.461074 
L 231.91492 184.473026 
L 232.003505 184.531499 
L 232.092089 182.830424 
L 232.269258 190.12167 
L 232.357843 187.624687 
L 232.446427 181.230332 
L 232.535012 192.859509 
L 232.623596 190.594973 
L 232.71218 192.090446 
L 232.800765 190.19429 
L 232.889349 182.444551 
L 232.977934 186.577375 
L 233.066518 186.427705 
L 233.155103 189.352535 
L 233.243687 187.367022 
L 233.420856 200.029697 
L 233.598025 193.405225 
L 233.863779 196.16799 
L 233.952363 201.063337 
L 234.306701 186.982531 
L 234.572455 192.372472 
L 234.661039 190.16751 
L 235.103961 196.523973 
L 235.192546 191.024887 
L 235.369715 198.947979 
L 235.458299 197.271261 
L 235.546884 197.707807 
L 235.635468 201.665083 
L 235.724053 198.450813 
L 235.901222 205.183359 
L 235.989806 200.141275 
L 236.078391 201.63949 
L 236.25556 191.928532 
L 236.432729 196.087993 
L 236.521313 195.547043 
L 236.609898 196.039281 
L 236.787066 202.383527 
L 237.05282 195.177145 
L 237.318573 204.552377 
L 237.584327 198.151079 
L 237.761496 204.366169 
L 237.938665 193.03374 
L 238.027249 197.813588 
L 238.204418 194.400351 
L 238.293003 195.065716 
L 238.381587 194.291137 
L 238.470172 189.581497 
L 238.558756 190.303625 
L 238.647341 197.305937 
L 239.356016 171.615044 
L 239.444601 177.323997 
L 239.533185 170.542256 
L 239.710354 179.806535 
L 239.798939 178.597495 
L 239.976108 170.999562 
L 240.064692 170.816533 
L 240.153277 174.542829 
L 240.241861 168.473558 
L 240.596199 183.385911 
L 240.684784 182.60049 
L 240.773368 176.357193 
L 240.861952 179.161463 
L 240.950537 169.869875 
L 241.039121 170.445689 
L 241.127706 169.60287 
L 241.304875 163.253244 
L 241.393459 164.882421 
L 241.747797 156.162831 
L 242.102135 161.524703 
L 242.19072 158.104525 
L 242.279304 148.598747 
L 242.367889 150.369334 
L 242.456473 147.901601 
L 242.633642 134.434377 
L 242.722227 137.975734 
L 242.899395 132.362397 
L 242.98798 133.399023 
L 243.076564 132.046922 
L 243.253733 126.173224 
L 243.342318 124.08333 
L 243.519487 136.135251 
L 243.608071 133.832844 
L 243.696656 126.587682 
L 243.78524 128.552768 
L 243.873825 134.678709 
L 243.962409 134.242223 
L 244.139578 138.090469 
L 244.228163 138.275581 
L 244.671085 123.501864 
L 244.75967 124.063093 
L 244.848254 128.378515 
L 244.936838 123.805465 
L 245.114007 132.37555 
L 245.202592 130.905124 
L 245.291176 124.846136 
L 245.55693 133.241306 
L 245.645514 131.640755 
L 245.734099 126.419562 
L 245.822683 126.487855 
L 245.911268 124.46138 
L 245.999852 125.130638 
L 246.177021 120.12018 
L 246.708528 136.986372 
L 246.885697 148.260289 
L 247.417204 126.906985 
L 247.505788 127.506729 
L 247.860126 133.224898 
L 248.12588 118.71417 
L 248.303049 132.317458 
L 248.657387 124.268805 
L 248.745971 125.407827 
L 248.92314 121.61637 
L 249.011724 129.424331 
L 249.100309 127.390905 
L 249.188893 137.358805 
L 249.277478 134.848166 
L 249.366062 136.451259 
L 249.454647 135.895301 
L 249.631816 128.484687 
L 249.7204 125.057539 
L 249.808985 125.820317 
L 249.897569 132.244444 
L 249.986154 127.046104 
L 250.163323 132.2138 
L 250.340492 126.146844 
L 250.429076 123.328075 
L 250.517661 125.41828 
L 250.69483 121.172367 
L 250.871999 127.324111 
L 251.049167 118.626006 
L 251.137752 125.111237 
L 251.403505 118.205443 
L 251.49209 120.111526 
L 251.669259 128.059047 
L 251.757843 126.187667 
L 251.846428 123.410818 
L 252.023597 125.904293 
L 252.112181 125.935566 
L 252.200766 123.05868 
L 252.28935 124.296169 
L 252.732273 116.698145 
L 252.820857 116.197225 
L 252.909442 117.211492 
L 252.998026 119.574041 
L 253.08661 130.083722 
L 253.175195 128.76344 
L 253.529533 111.98949 
L 253.618117 112.414109 
L 253.706702 111.783531 
L 253.795286 109.235079 
L 253.972455 116.026529 
L 254.06104 115.048874 
L 254.149624 121.1248 
L 254.503962 107.554301 
L 254.592547 107.848964 
L 254.681131 106.830722 
L 254.769716 95.308288 
L 254.8583 96.370424 
L 254.946885 98.828867 
L 255.124053 94.489699 
L 255.212638 98.444984 
L 255.301222 97.610741 
L 255.389807 98.339872 
L 255.478391 96.530478 
L 255.566976 102.754319 
L 255.921314 83.088457 
L 256.187067 95.785488 
L 256.275652 94.717706 
L 256.364236 92.234432 
L 256.62999 76.931373 
L 256.895743 87.350465 
L 256.984328 89.004997 
L 257.072912 88.000112 
L 257.161496 89.295948 
L 257.250081 88.716111 
L 257.42725 99.226629 
L 257.515834 99.37553 
L 258.490264 71.878956 
L 258.578848 74.24613 
L 258.756017 70.33794 
L 258.844602 71.503756 
L 259.021771 76.826593 
L 259.110355 75.845494 
L 259.198939 77.174363 
L 259.287524 76.658855 
L 259.376108 82.693294 
L 259.730446 74.469901 
L 259.819031 76.532368 
L 259.907615 81.392805 
L 260.173369 65.424375 
L 260.350538 67.776622 
L 260.439122 67.84056 
L 260.970629 84.065622 
L 261.059214 81.593885 
L 261.147798 84.39809 
L 261.324967 99.278999 
L 261.413551 97.014912 
L 261.502136 99.008479 
L 261.59072 97.888383 
L 261.767889 90.23964 
L 261.856474 85.815882 
L 262.122227 90.852926 
L 262.210812 90.551195 
L 262.299396 97.038118 
L 262.387981 95.017416 
L 262.653734 111.530735 
L 262.742319 108.956846 
L 263.008072 91.530727 
L 263.096657 90.820939 
L 263.273825 102.275718 
L 263.36241 99.822328 
L 263.450994 100.825766 
L 263.716748 94.093482 
L 263.805332 94.028426 
L 263.893917 96.51811 
L 264.248255 78.745132 
L 264.602593 88.838882 
L 264.691177 79.708599 
L 264.868346 84.306895 
L 264.956931 83.561004 
L 265.045515 84.277047 
L 265.1341 89.174305 
L 265.311268 83.866199 
L 265.399853 83.070562 
L 265.488437 78.595315 
L 265.577022 81.01341 
L 265.665606 79.969524 
L 265.754191 76.463159 
L 265.842775 79.043799 
L 265.93136 74.779933 
L 266.019944 75.488755 
L 266.108529 76.025551 
L 266.197113 75.466823 
L 266.374282 82.618664 
L 266.462867 77.289392 
L 266.551451 79.856835 
L 266.640036 71.767618 
L 266.72862 73.586295 
L 266.905789 78.871432 
L 267.171543 94.694052 
L 267.260127 90.300101 
L 267.437296 92.700691 
L 267.52588 90.156698 
L 267.614465 91.390663 
L 267.703049 90.486459 
L 268.145972 75.816193 
L 268.234556 77.742627 
L 268.323141 84.24211 
L 268.411725 81.388879 
L 268.50031 81.420695 
L 268.588894 80.311408 
L 268.677479 81.545481 
L 268.766063 78.577377 
L 268.854648 78.997054 
L 269.031817 74.273684 
L 269.208986 81.773855 
L 269.386154 75.398004 
L 269.563323 83.323479 
L 269.740492 84.841911 
L 270.09483 62.085851 
L 270.449168 51.166985 
L 270.537753 51.624545 
L 270.626337 49.604492 
L 270.714922 57.727106 
L 270.803506 56.963008 
L 270.892091 56.835927 
L 271.246429 71.739655 
L 271.335013 64.813975 
L 271.423597 69.994295 
L 271.512182 69.298396 
L 271.600766 69.636244 
L 271.777935 75.67616 
L 271.86652 75.279383 
L 271.955104 71.277783 
L 272.132273 75.883918 
L 272.398027 65.105345 
L 272.486611 71.370963 
L 272.66378 67.310263 
L 272.752365 64.665269 
L 272.840949 66.163411 
L 272.929534 65.308674 
L 273.018118 68.826975 
L 273.106703 77.001919 
L 273.195287 72.974789 
L 273.283872 72.987377 
L 273.372456 71.271465 
L 273.46104 66.906708 
L 273.549625 68.248624 
L 273.638209 64.104163 
L 273.726794 64.373158 
L 273.903963 69.212592 
L 273.992547 66.706736 
L 274.081132 61.043844 
L 274.346885 71.469135 
L 274.524054 71.105675 
L 274.612639 72.576351 
L 274.701223 72.306721 
L 274.789808 72.017536 
L 274.966977 77.861815 
L 275.144146 81.769121 
L 275.321315 79.928888 
L 275.587068 84.805931 
L 275.675652 83.08127 
L 276.02999 95.860573 
L 276.295744 88.624004 
L 276.384328 88.252795 
L 276.561497 73.584404 
L 276.915835 92.905521 
L 277.00442 91.160479 
L 277.093004 86.860884 
L 277.270173 90.474558 
L 277.447342 84.289923 
L 277.535926 85.409557 
L 277.80168 89.54101 
L 277.890264 96.842022 
L 277.978849 95.171021 
L 278.067433 94.998681 
L 278.244602 97.645154 
L 278.333187 102.959776 
L 278.687525 90.119792 
L 278.776109 89.981432 
L 278.864694 86.738392 
L 279.041863 99.980839 
L 279.130447 93.671326 
L 279.307616 98.977425 
L 279.396201 95.487894 
L 279.484785 96.521912 
L 279.573369 94.517744 
L 279.661954 96.647815 
L 279.750538 93.381313 
L 280.104876 108.581956 
L 280.37063 95.334313 
L 280.459214 96.411899 
L 280.547799 101.444263 
L 280.636383 99.48906 
L 280.813552 105.879332 
L 280.902137 105.329869 
L 281.079306 95.857487 
L 281.16789 99.21525 
L 281.256475 99.11677 
L 281.345059 91.371879 
L 281.433644 96.102256 
L 281.522228 93.977526 
L 281.610812 96.72136 
L 281.699397 92.459449 
L 281.787981 93.439761 
L 281.876566 94.738307 
L 281.96515 89.657386 
L 282.142319 97.365498 
L 282.230904 102.51178 
L 282.585242 92.556693 
L 282.673826 93.278162 
L 282.93958 99.250679 
L 283.116749 87.619914 
L 283.559671 71.596028 
L 283.73684 69.626698 
L 283.914009 65.265094 
L 284.002593 69.296605 
L 284.179762 64.619586 
L 284.268347 65.625649 
L 284.356931 59.284099 
L 284.445516 62.296393 
L 284.622685 56.795767 
L 284.711269 61.878688 
L 284.799854 60.919131 
L 284.888438 58.881034 
L 284.977023 59.965086 
L 285.065607 58.979518 
L 285.242776 70.30007 
L 285.331361 69.318981 
L 285.50853 71.620826 
L 285.862867 59.091803 
L 285.951452 58.944367 
L 286.040036 65.824747 
L 286.217205 60.209922 
L 286.394374 65.803414 
L 286.482959 64.292005 
L 286.837297 78.786851 
L 286.925881 74.120091 
L 287.280219 86.425083 
L 287.457388 83.019491 
L 287.723141 99.977492 
L 287.811726 98.695995 
L 287.90031 101.154259 
L 287.988895 99.644936 
L 288.520402 107.408384 
L 288.608986 105.205943 
L 288.786155 113.910046 
L 288.87474 114.72814 
L 288.963324 112.089448 
L 289.140493 123.620038 
L 289.672 111.005454 
L 289.760584 115.144473 
L 290.026338 104.789421 
L 290.114922 102.796849 
L 290.203507 108.365405 
L 290.292091 105.08145 
L 290.380676 108.147076 
L 290.46926 105.996746 
L 290.735014 118.106654 
L 290.912183 108.942151 
L 291.000767 108.993861 
L 291.089352 111.641138 
L 291.177936 107.825844 
L 291.266521 109.368914 
L 291.355105 118.672737 
L 291.44369 118.332242 
L 291.532274 125.603679 
L 291.620859 118.07094 
L 291.798027 133.785687 
L 291.975196 118.547337 
L 292.063781 116.059301 
L 292.24095 119.529839 
L 292.329534 116.765839 
L 292.418119 117.633268 
L 292.506703 120.078764 
L 292.595288 119.835667 
L 293.126795 89.983032 
L 293.215379 92.441819 
L 293.303964 98.085641 
L 293.569717 92.478842 
L 293.746886 79.560626 
L 293.924055 91.592803 
L 294.012639 92.906107 
L 294.189808 99.634521 
L 294.278393 99.925596 
L 294.455562 93.624181 
L 294.632731 89.40321 
L 295.075653 115.4176 
L 295.164238 114.86434 
L 295.252822 113.324668 
L 295.341407 115.774461 
L 295.518576 113.81621 
L 295.60716 113.258677 
L 295.695745 107.731921 
L 295.784329 109.577725 
L 296.138667 126.560811 
L 296.227251 122.803369 
L 296.315836 127.195214 
L 296.40442 116.946544 
L 296.493005 117.862683 
L 296.670174 111.542338 
L 296.758758 113.520252 
L 296.935927 121.960845 
L 297.024512 116.261359 
L 297.201681 123.27994 
L 297.290265 122.298718 
L 297.467434 128.781117 
L 297.556019 125.775726 
L 297.644603 126.190309 
L 297.733188 127.560339 
L 297.910356 115.847803 
L 297.998941 115.042808 
L 298.17611 121.274791 
L 298.441863 116.003985 
L 298.530448 117.752086 
L 298.619032 117.661617 
L 298.796201 125.229035 
L 298.884786 126.555422 
L 298.97337 121.357592 
L 299.061955 122.853438 
L 299.239124 132.206532 
L 299.327708 131.942441 
L 299.416293 130.960844 
L 299.593462 124.948501 
L 299.770631 132.410788 
L 299.859215 128.085189 
L 299.947799 128.455307 
L 300.036384 125.927929 
L 300.124968 127.732515 
L 300.302137 121.976351 
L 300.479306 126.713639 
L 300.567891 126.507152 
L 301.187982 148.41808 
L 301.276567 146.281503 
L 301.54232 158.60582 
L 301.630905 153.887007 
L 301.896658 171.970337 
L 301.985242 173.427631 
L 302.162411 185.030405 
L 302.250996 182.403383 
L 302.33958 182.387793 
L 302.605334 201.203248 
L 302.693918 201.618385 
L 302.871087 187.496862 
L 303.048256 195.092646 
L 303.136841 194.038582 
L 303.402594 182.330875 
L 303.491179 182.294142 
L 303.668348 172.245448 
L 303.756932 176.927244 
L 303.934101 173.432376 
L 304.022685 174.857618 
L 304.11127 174.048322 
L 304.288439 162.296869 
L 304.377023 163.135983 
L 304.554192 158.683929 
L 304.819946 163.429434 
L 304.90853 164.205858 
L 304.997115 164.118235 
L 305.085699 164.293792 
L 305.262868 174.124172 
L 305.351453 170.724179 
L 305.440037 173.251646 
L 305.617206 160.959915 
L 305.88296 164.219449 
L 305.971544 160.02803 
L 306.060128 163.310538 
L 306.237297 154.788431 
L 306.768804 179.792003 
L 306.945973 163.755604 
L 307.123142 164.527703 
L 307.211727 163.74347 
L 307.300311 160.554507 
L 307.47748 165.837745 
L 307.566065 165.325741 
L 307.654649 163.792392 
L 307.920403 152.594669 
L 308.008987 154.291038 
L 308.27474 140.116847 
L 308.363325 145.502083 
L 308.451909 145.466427 
L 308.629078 147.538749 
L 308.717663 146.949718 
L 308.894832 135.547289 
L 308.983416 137.201147 
L 309.072001 142.732311 
L 309.160585 135.247696 
L 309.24917 142.519271 
L 309.514923 124.007973 
L 309.603508 126.731195 
L 309.869261 120.307726 
L 309.957846 119.232685 
L 310.04643 126.954373 
L 310.135014 118.844038 
L 310.223599 121.223193 
L 310.489352 111.047286 
L 310.666521 99.432821 
L 310.755106 98.317538 
L 310.84369 101.796207 
L 310.932275 100.86801 
L 311.020859 103.617432 
L 311.109444 102.10997 
L 311.286613 94.080472 
L 311.463782 101.491183 
L 311.552366 93.619919 
L 311.729535 99.299108 
L 311.81812 100.882915 
L 311.906704 100.209212 
L 312.172457 87.170686 
L 312.261042 89.774867 
L 312.61538 76.487728 
L 312.792549 84.72509 
L 312.881133 80.118083 
L 312.969718 83.602138 
L 313.058302 83.513724 
L 313.235471 80.029969 
L 313.324056 79.189744 
L 313.501225 69.663438 
L 313.589809 70.413128 
L 313.678394 74.944007 
L 313.855563 94.708939 
L 313.944147 90.011657 
L 314.032732 90.311352 
L 314.121316 88.811133 
L 314.298485 99.150802 
L 314.652823 84.036463 
L 314.741407 82.930764 
L 314.829992 82.938091 
L 314.918576 82.376056 
L 315.095745 91.352042 
L 315.272914 89.252148 
L 315.361499 90.677464 
L 315.538668 102.319274 
L 315.804421 86.295718 
L 315.893006 86.275267 
L 316.070175 78.550359 
L 316.247343 89.245336 
L 316.513097 83.141498 
L 316.77885 99.747824 
L 316.867435 96.538179 
L 316.956019 97.251903 
L 317.044604 100.315359 
L 317.221773 94.94577 
L 317.310357 98.683674 
L 317.398942 89.798832 
L 317.487526 92.517489 
L 317.576111 92.203768 
L 317.664695 93.564033 
L 317.75328 90.24562 
L 317.841864 92.126769 
L 318.019033 101.428817 
L 318.107618 98.560281 
L 318.196202 100.794479 
L 318.373371 98.758044 
L 318.55054 101.06283 
L 318.639124 96.34641 
L 318.727709 98.991 
L 318.816293 92.593925 
L 318.904878 94.234192 
L 319.170631 88.259002 
L 319.3478 90.511982 
L 319.436385 90.3948 
L 319.524969 90.189348 
L 319.702138 81.31258 
L 319.790723 88.218753 
L 320.056476 78.02124 
L 320.145061 79.600698 
L 320.410814 70.166464 
L 321.11949 95.04096 
L 321.208074 89.201555 
L 321.296659 89.720424 
L 321.562412 106.039771 
L 321.650997 105.025988 
L 321.739581 106.880968 
L 322.005335 104.085345 
L 322.271088 96.797658 
L 322.359672 97.902814 
L 322.71401 112.94398 
L 322.891179 104.983799 
L 322.979764 107.318908 
L 323.068348 103.484298 
L 323.156933 107.784687 
L 323.422686 90.815647 
L 323.511271 91.205014 
L 323.599855 90.797195 
L 323.68844 89.321095 
L 323.865609 93.734387 
L 323.954193 91.477022 
L 324.219947 107.881324 
L 324.308531 104.13392 
L 324.4857 111.243779 
L 324.751453 97.296524 
L 324.928622 105.161451 
L 325.017207 104.97764 
L 325.105791 103.255938 
L 325.194376 114.858266 
L 325.28296 112.848344 
L 325.371545 111.490181 
L 325.460129 116.982387 
L 325.637298 107.73047 
L 325.725883 113.626735 
L 325.814467 108.055888 
L 325.991636 114.520595 
L 326.080221 107.134382 
L 326.168805 110.328884 
L 326.25739 109.578542 
L 326.345974 106.837574 
L 326.434558 108.29938 
L 326.611727 104.628785 
L 326.700312 112.793149 
L 326.877481 103.417884 
L 326.966065 110.574195 
L 327.05465 108.631373 
L 327.231819 120.001435 
L 327.320403 119.318676 
L 327.497572 124.818444 
L 327.674741 110.874571 
L 327.763326 116.506133 
L 327.940495 111.644499 
L 328.029079 116.457827 
L 328.117664 115.393484 
L 328.206248 113.689599 
L 328.294833 115.434838 
L 328.383417 114.969544 
L 328.560586 121.403573 
L 328.64917 121.356975 
L 328.737755 118.126917 
L 328.826339 122.905924 
L 328.914924 114.091995 
L 329.092093 117.662645 
L 329.269262 109.236088 
L 329.357846 109.030711 
L 329.446431 105.180812 
L 329.535015 115.175111 
L 329.6236 113.421592 
L 329.712184 113.155708 
L 329.977938 100.358894 
L 330.066522 102.754311 
L 330.155107 101.768292 
L 330.243691 104.494978 
L 330.42086 101.115956 
L 330.509444 109.533285 
L 330.598029 105.566966 
L 330.686613 106.524035 
L 330.863782 114.90086 
L 331.129536 104.06992 
L 331.21812 105.087763 
L 331.306705 97.931099 
L 331.395289 105.15104 
L 331.483874 101.72627 
L 331.749627 83.734398 
L 332.19255 69.348136 
L 332.369719 77.665036 
L 332.724056 65.651728 
L 332.901225 69.014942 
L 333.166979 63.07363 
L 333.255563 64.225372 
L 333.432732 59.076706 
L 333.609901 68.533368 
L 333.964239 50.055459 
L 334.052824 50.415575 
L 334.141408 52.203888 
L 334.229993 49.80632 
L 334.318577 42.269197 
L 334.407162 44.29055 
L 334.495746 41.720376 
L 334.672915 45.073634 
L 334.761499 40.39404 
L 335.115837 54.561112 
L 335.204422 52.824384 
L 335.470175 72.849883 
L 335.55876 71.753175 
L 335.735929 63.835213 
L 335.824513 64.254518 
L 335.913098 67.996158 
L 336.090267 65.950963 
L 336.267436 70.29841 
L 336.444605 80.614302 
L 336.533189 79.009133 
L 336.887527 87.830421 
L 337.064696 82.322773 
L 337.15328 83.669913 
L 337.330449 87.2759 
L 337.419034 87.559783 
L 337.684787 99.903127 
L 337.773372 100.401853 
L 337.861956 97.861388 
L 337.950541 88.001475 
L 338.482048 122.153415 
L 338.659216 114.649841 
L 338.92497 116.595133 
L 339.013554 120.120835 
L 339.190723 130.911139 
L 339.279308 129.516559 
L 339.367892 134.644302 
L 339.456477 132.928644 
L 339.72223 152.870615 
L 339.810815 147.849967 
L 339.987984 151.973496 
L 340.076568 148.516139 
L 340.165153 149.931921 
L 340.253737 147.998762 
L 340.430906 152.516646 
L 340.696659 144.114288 
L 340.962413 157.028421 
L 341.050997 155.40047 
L 341.139582 156.494766 
L 341.228166 156.316867 
L 341.316751 155.120165 
L 341.405335 160.926793 
L 341.49392 156.726533 
L 341.582504 162.116362 
L 341.759673 149.709932 
L 341.936842 161.18582 
L 342.202596 155.049955 
L 342.379765 161.669253 
L 342.468349 159.619184 
L 342.556934 160.417586 
L 342.734102 155.495028 
L 342.822687 151.091245 
L 342.911271 154.043082 
L 342.999856 153.698253 
L 343.08844 154.354603 
L 343.177025 152.357663 
L 343.619947 167.97459 
L 343.708532 165.672314 
L 344.06287 182.613267 
L 344.151454 182.256434 
L 344.328623 185.887476 
L 344.417208 188.750982 
L 344.594377 185.350016 
L 344.682961 189.296377 
L 344.771545 188.89479 
L 344.86013 188.766335 
L 344.948714 188.150168 
L 345.037299 189.197057 
L 345.303052 207.477426 
L 345.391637 212.44162 
L 345.568806 204.404897 
L 345.65739 206.336459 
L 345.745975 201.361468 
L 345.923144 208.103053 
L 346.011728 205.326593 
L 346.100313 206.219415 
L 346.188897 206.194194 
L 346.277482 198.814517 
L 346.366066 201.356543 
L 346.454651 197.973195 
L 346.543235 199.780488 
L 346.63182 199.038799 
L 346.808988 188.389966 
L 346.897573 185.258455 
L 346.986157 188.933305 
L 347.074742 188.864442 
L 347.251911 189.546009 
L 347.340495 185.740592 
L 347.517664 170.253901 
L 347.606249 173.020944 
L 347.694833 170.227728 
L 347.783418 163.084481 
L 347.872002 164.921053 
L 347.960587 162.014877 
L 348.049171 162.2873 
L 348.137756 162.39783 
L 348.314925 174.333072 
L 348.403509 170.524696 
L 348.492094 170.860186 
L 348.846431 183.42295 
L 349.0236 176.934542 
L 349.200769 170.285923 
L 349.289354 167.069981 
L 349.466523 171.882913 
L 349.555107 171.00538 
L 349.643692 172.866706 
L 349.732276 170.909111 
L 349.909445 174.852175 
L 349.99803 173.252926 
L 350.263783 165.375046 
L 350.352368 167.8346 
L 350.440952 165.270281 
L 350.529537 156.720138 
L 350.618121 158.194921 
L 350.79529 160.891008 
L 350.972459 159.78371 
L 351.061043 159.811604 
L 351.149628 158.505115 
L 351.503966 149.188214 
L 351.681135 144.094288 
L 351.769719 148.443825 
L 351.858304 140.562216 
L 352.212642 148.790925 
L 352.389811 139.939991 
L 352.478395 140.657458 
L 352.56698 139.246247 
L 352.655564 139.605326 
L 352.832733 144.108364 
L 352.921317 142.352253 
L 353.009902 146.301148 
L 353.275655 133.067002 
L 353.452824 133.716057 
L 353.541409 137.395368 
L 353.629993 134.285609 
L 353.718578 136.505172 
L 353.807162 127.934789 
L 353.984331 133.568308 
L 354.1615 128.01307 
L 354.250085 135.724168 
L 354.338669 134.008841 
L 354.515838 144.340095 
L 354.693007 147.912197 
L 354.781592 143.176653 
L 354.870176 151.688388 
L 354.95876 146.465768 
L 355.047345 147.371606 
L 355.313098 160.211796 
L 355.490267 159.718413 
L 355.844605 173.104687 
L 356.021774 162.865609 
L 356.198943 165.068279 
L 356.287528 162.282975 
L 356.376112 165.81922 
L 356.464697 163.657506 
L 356.73045 167.531251 
L 356.819035 167.871797 
L 356.996203 164.217836 
L 357.084788 169.918922 
L 357.173372 164.858883 
L 357.350541 167.767454 
L 357.439126 161.609074 
L 357.52771 168.193057 
L 357.704879 165.580106 
L 357.882048 167.925336 
L 357.970633 167.446224 
L 358.059217 175.151546 
L 358.147802 174.98571 
L 358.413555 166.303886 
L 358.679309 171.398978 
L 358.767893 161.978934 
L 359.122231 180.04579 
L 359.210815 172.571675 
L 359.2994 173.659861 
L 359.387984 172.48205 
L 359.476569 177.949274 
L 359.830907 166.551975 
L 359.919491 166.713213 
L 360.09666 173.625666 
L 360.539583 155.662133 
L 360.628167 158.744219 
L 360.716752 156.419846 
L 360.805336 160.725663 
L 360.893921 159.418624 
L 361.159674 166.842122 
L 361.336843 169.837664 
L 361.956934 158.247168 
L 362.045519 162.337063 
L 362.311272 150.653637 
L 362.399857 146.65833 
L 362.66561 163.112929 
L 362.842779 154.507053 
L 362.931364 154.837786 
L 363.019948 160.044873 
L 363.108532 159.707389 
L 363.197117 153.338004 
L 363.374286 161.400508 
L 363.728624 140.753618 
L 363.817208 141.983243 
L 363.905793 149.248285 
L 363.994377 142.814067 
L 364.082962 144.694299 
L 364.4373 140.222034 
L 364.525884 141.411893 
L 364.614469 138.307947 
L 364.703053 130.504954 
L 364.880222 138.593012 
L 365.23456 121.508461 
L 365.411729 124.752417 
L 365.500313 122.179443 
L 365.588898 126.476105 
L 365.766067 122.497114 
L 365.943236 109.159564 
L 366.03182 107.632919 
L 366.120405 113.872525 
L 366.208989 108.351405 
L 366.386158 112.493478 
L 366.917665 92.456788 
L 367.094834 96.721976 
L 367.183418 96.813351 
L 367.272003 96.471533 
L 367.449172 93.084214 
L 367.537756 92.923613 
L 368.069263 76.587547 
L 368.157848 79.190729 
L 368.246432 76.480208 
L 368.335017 77.767241 
L 368.423601 75.159078 
L 368.689355 61.194043 
L 368.777939 59.647266 
L 368.866524 62.212742 
L 368.955108 59.858421 
L 369.043693 62.599392 
L 369.220861 60.902831 
L 369.309446 49.412889 
L 369.39803 51.279953 
L 369.486615 53.405828 
L 369.840953 37.617704 
L 370.018122 35.453641 
L 370.283875 37.782192 
L 370.815382 20.514631 
L 370.903967 23.50521 
L 370.992551 22.789359 
L 371.081136 23.868568 
L 371.16972 21.227142 
L 371.258304 21.939426 
L 371.524058 33.597906 
L 371.789811 26.833139 
L 372.232734 38.625599 
L 372.321318 39.076346 
L 372.409903 37.269243 
L 372.498487 39.762496 
L 372.587072 33.050797 
L 372.675656 35.271562 
L 372.764241 32.891603 
L 372.852825 35.654708 
L 373.118579 29.341699 
L 373.295747 39.371794 
L 373.384332 37.903719 
L 373.561501 45.82113 
L 373.650085 44.812863 
L 373.73867 40.68115 
L 373.915839 50.474545 
L 374.181592 63.54581 
L 374.270177 60.305876 
L 374.358761 61.108771 
L 374.624515 50.622958 
L 374.801684 41.608883 
L 374.978853 51.311557 
L 375.244606 60.29428 
L 375.421775 55.193792 
L 375.598944 60.835164 
L 375.687528 57.438382 
L 375.864697 74.524107 
L 376.130451 62.956726 
L 376.30762 60.839278 
L 376.396204 61.690326 
L 376.661958 49.756094 
L 376.750542 50.855952 
L 376.839127 57.130034 
L 376.927711 55.239012 
L 377.193465 67.046499 
L 377.282049 67.911844 
L 377.547802 86.796984 
L 377.636387 90.721168 
L 377.724971 89.977363 
L 377.813556 92.375392 
L 377.990725 99.537176 
L 378.079309 99.099797 
L 378.167894 99.176675 
L 378.256478 102.057209 
L 378.345063 92.825507 
L 378.433647 93.249665 
L 378.610816 92.29734 
L 378.699401 95.789428 
L 378.787985 94.382167 
L 378.87657 96.859336 
L 378.965154 95.705104 
L 379.142323 106.171612 
L 379.230908 102.9619 
L 379.319492 105.206672 
L 379.408076 102.253022 
L 379.67383 113.753638 
L 379.762414 113.386313 
L 380.028168 135.156381 
L 380.116752 136.043067 
L 380.205337 142.610121 
L 380.293921 140.222198 
L 380.47109 142.121062 
L 380.648259 133.263855 
L 380.736844 134.076578 
L 380.825428 131.726877 
L 380.914013 136.604951 
L 381.091182 128.724325 
L 381.179766 129.159535 
L 381.268351 127.056982 
L 381.356935 128.309698 
L 381.622688 115.872367 
L 381.711273 118.255273 
L 381.888442 130.382673 
L 381.977026 129.21759 
L 382.065611 130.85738 
L 382.154195 126.872152 
L 382.24278 114.667085 
L 382.331364 120.082527 
L 382.419949 118.749389 
L 382.597118 125.915763 
L 382.685702 123.988472 
L 382.862871 122.384998 
L 382.951456 124.427533 
L 383.04004 122.014205 
L 383.217209 123.129333 
L 383.394378 116.887519 
L 383.571547 120.974144 
L 383.660131 116.655508 
L 383.748716 119.544144 
L 383.925885 108.507676 
L 384.103054 114.56918 
L 384.191638 114.690599 
L 384.280223 113.930752 
L 384.634561 126.071536 
L 384.81173 121.993939 
L 384.988899 129.247545 
L 385.166068 122.117091 
L 385.254652 124.264746 
L 385.343237 120.828702 
L 385.431821 122.764059 
L 385.520405 115.156053 
L 385.60899 116.447494 
L 385.786159 122.774887 
L 385.874743 121.401748 
L 386.140497 127.975409 
L 386.317666 133.431102 
L 386.40625 132.739951 
L 386.494835 138.103325 
L 386.583419 137.923759 
L 386.672004 139.340964 
L 386.760588 136.08429 
L 386.849173 144.48207 
L 386.937757 141.223152 
L 387.026342 142.007632 
L 387.114926 140.490701 
L 387.292095 144.837087 
L 387.38068 144.505321 
L 387.557848 151.021789 
L 387.646433 149.540025 
L 387.735017 150.741387 
L 387.823602 149.823844 
L 388.000771 152.851388 
L 388.089355 154.703288 
L 388.443693 172.931078 
L 388.532278 165.007797 
L 388.620862 168.586739 
L 388.709447 164.757458 
L 388.9752 174.590351 
L 389.063785 174.622441 
L 389.152369 170.551335 
L 389.240954 175.141287 
L 389.418123 173.847864 
L 389.595291 184.261447 
L 389.77246 177.837321 
L 389.861045 178.705524 
L 390.126798 170.262801 
L 390.215383 171.71079 
L 390.303967 176.369076 
L 390.392552 174.410087 
L 390.481136 174.699429 
L 390.569721 182.495952 
L 390.658305 181.632632 
L 390.74689 186.452158 
L 390.924059 177.485275 
L 391.189812 184.878537 
L 391.366981 187.017408 
L 391.54415 196.490414 
L 391.721319 191.905721 
L 391.809903 190.966891 
L 391.898488 194.160773 
L 391.987072 194.100379 
L 392.075657 194.75108 
L 392.164241 190.663629 
L 392.252826 190.744522 
L 392.34141 192.008517 
L 392.429995 191.088487 
L 392.518579 188.614555 
L 392.607164 182.02144 
L 392.695748 183.94531 
L 392.784333 181.967789 
L 392.961502 183.535935 
L 393.227255 171.016342 
L 393.31584 172.622439 
L 393.404424 173.689541 
L 394.024515 150.177375 
L 394.1131 153.119549 
L 394.290269 142.988943 
L 394.556022 131.413442 
L 394.644607 132.409556 
L 394.733191 132.117939 
L 394.91036 138.619314 
L 395.087529 133.971761 
L 395.176114 140.294551 
L 395.264698 131.979444 
L 395.353283 133.311937 
L 395.441867 136.140689 
L 395.530452 148.717339 
L 395.619036 147.563991 
L 395.70762 142.924498 
L 395.796205 149.355031 
L 395.884789 147.894723 
L 395.973374 147.00703 
L 396.061958 149.468287 
L 396.239127 146.900338 
L 396.416296 157.127221 
L 396.593465 146.257251 
L 396.770634 168.552905 
L 396.859219 162.602129 
L 396.947803 170.156954 
L 397.036388 169.31398 
L 397.213557 176.700658 
L 397.47931 179.674117 
L 397.567895 173.895177 
L 397.745063 180.003246 
L 397.922232 191.225934 
L 398.187986 186.598073 
L 398.27657 191.471118 
L 398.365155 190.328009 
L 398.542324 183.307107 
L 398.719493 176.780524 
L 398.808077 180.511974 
L 398.896662 180.059291 
L 398.985246 193.60346 
L 399.162415 184.307308 
L 399.251 187.911348 
L 399.516753 177.287982 
L 399.605338 181.721795 
L 399.782506 179.376346 
L 399.871091 179.345854 
L 400.04826 172.475083 
L 400.136844 174.603048 
L 400.225429 172.461469 
L 400.314013 182.10624 
L 400.402598 179.306451 
L 400.491182 172.535726 
L 400.579767 178.087795 
L 400.668351 178.075213 
L 400.756936 174.069108 
L 400.934105 182.189052 
L 401.199858 172.97401 
L 401.465612 178.700424 
L 401.642781 170.475011 
L 402.262872 190.949958 
L 402.351456 182.675738 
L 402.440041 183.729717 
L 402.61721 179.02474 
L 402.705794 181.363775 
L 403.060132 166.977502 
L 403.148717 168.499545 
L 403.41447 162.201482 
L 403.768808 179.025996 
L 404.034561 166.192955 
L 404.21173 171.230282 
L 404.388899 186.396183 
L 404.477484 184.406998 
L 404.566068 183.568648 
L 404.654653 181.647429 
L 405.008991 165.12781 
L 405.097575 164.576092 
L 405.18616 161.317744 
L 405.451913 173.081466 
L 405.540498 172.530715 
L 405.98342 167.042594 
L 406.072004 168.689242 
L 406.160589 162.991691 
L 406.249173 164.846136 
L 406.337758 163.899481 
L 406.426342 161.108444 
L 406.514927 152.973458 
L 406.603511 157.106514 
L 406.869265 152.869228 
L 407.046434 155.120562 
L 407.135018 153.781043 
L 407.400772 158.425292 
L 407.489356 157.776333 
L 407.577941 150.490454 
L 407.75511 155.808739 
L 407.843694 153.584635 
L 407.932278 155.268847 
L 408.020863 154.544056 
L 408.109447 146.44824 
L 408.198032 148.790586 
L 408.286616 145.05016 
L 408.375201 145.518838 
L 408.463785 143.359483 
L 408.640954 153.233331 
L 408.729539 153.807618 
L 408.906708 149.112536 
L 408.995292 148.819891 
L 409.083877 152.349697 
L 409.172461 151.800873 
L 409.261046 152.621452 
L 409.34963 148.943192 
L 409.526799 152.938206 
L 409.615384 154.109509 
L 409.703968 149.014707 
L 409.792553 151.486683 
L 409.881137 150.812597 
L 410.058306 154.990507 
L 410.14689 154.326864 
L 410.235475 165.243124 
L 410.501228 152.290719 
L 410.589813 157.538905 
L 410.855566 147.746115 
L 410.944151 150.022154 
L 411.12132 140.736409 
L 411.298489 142.630508 
L 411.387073 142.257919 
L 411.475658 143.101312 
L 411.564242 148.893139 
L 411.652827 146.5105 
L 411.741411 147.279749 
L 411.91858 165.950888 
L 412.007164 166.808093 
L 412.095749 170.276541 
L 412.361502 164.307529 
L 412.450087 169.429384 
L 412.627256 157.387869 
L 412.71584 161.766722 
L 412.893009 158.10928 
L 413.070178 158.849841 
L 413.158763 155.797912 
L 413.247347 155.854302 
L 413.335932 161.046545 
L 413.601685 148.932549 
L 413.956023 128.263449 
L 414.044607 134.295734 
L 414.133192 126.062889 
L 414.221776 126.456972 
L 414.310361 129.003307 
L 414.398945 128.828382 
L 414.48753 122.220172 
L 414.576114 126.279387 
L 414.664699 122.160202 
L 414.753283 123.536316 
L 414.930452 114.029348 
L 415.019037 114.869078 
L 415.107621 113.294966 
L 415.461959 91.915005 
L 415.639128 82.06471 
L 415.727713 92.794866 
L 415.816297 91.870209 
L 415.904882 92.769629 
L 416.170635 110.507678 
L 416.259219 108.420741 
L 416.702142 95.716104 
L 416.790726 96.236293 
L 416.967895 108.287191 
L 417.233649 97.404851 
L 417.322233 96.90627 
L 417.410818 95.303542 
L 417.85374 107.562554 
L 418.119493 101.853686 
L 418.208078 101.891472 
L 418.385247 106.67105 
L 418.651 95.426378 
L 418.828169 103.150793 
L 418.916754 100.162051 
L 419.005338 102.609839 
L 419.182507 110.157055 
L 419.271092 108.842892 
L 419.359676 110.029632 
L 419.448261 106.560145 
L 419.536845 107.467704 
L 419.714014 120.017149 
L 419.802599 123.816139 
L 419.891183 116.641425 
L 419.979768 117.520727 
L 420.068352 112.282247 
L 420.156936 115.345428 
L 420.42269 108.113055 
L 420.599859 104.724913 
L 420.688443 106.228658 
L 420.777028 106.448939 
L 420.954197 110.945115 
L 421.042781 110.60452 
L 421.397119 97.788547 
L 421.485704 99.165984 
L 421.662873 94.498404 
L 421.840042 104.976556 
L 421.928626 98.082741 
L 422.105795 107.276813 
L 422.194379 107.688306 
L 422.282964 108.733508 
L 422.371548 102.616693 
L 422.814471 117.350598 
L 422.903055 116.797539 
L 422.99164 114.415908 
L 423.080224 115.116286 
L 423.168809 115.065103 
L 423.434562 124.319635 
L 423.523147 124.773498 
L 423.700316 129.340147 
L 423.966069 118.266301 
L 424.054654 119.272155 
L 424.231822 112.462486 
L 424.408991 107.900385 
L 424.58616 122.824172 
L 424.763329 118.047516 
L 424.851914 119.824396 
L 424.940498 125.315342 
L 425.117667 120.147087 
L 425.206252 125.303496 
L 425.472005 116.430132 
L 425.56059 121.130045 
L 425.649174 118.663795 
L 425.826343 128.380545 
L 426.003512 124.151835 
L 426.446434 132.757826 
L 426.535019 130.169996 
L 426.712188 135.637253 
L 426.889357 134.134401 
L 427.066526 138.663968 
L 427.332279 127.446497 
L 427.598033 141.475982 
L 427.686617 141.424946 
L 427.775202 141.090746 
L 427.863786 140.038759 
L 428.040955 134.916894 
L 428.218124 135.039891 
L 428.306708 133.968426 
L 428.483877 144.019167 
L 428.661046 142.108503 
L 428.9268 158.774807 
L 429.103969 162.56001 
L 429.281138 145.221263 
L 429.458307 131.438128 
L 429.546891 139.766667 
L 429.635476 134.208185 
L 429.72406 141.216801 
L 429.901229 136.046164 
L 429.989814 139.386574 
L 430.078398 132.008146 
L 430.166983 134.337315 
L 430.255567 139.916044 
L 430.344151 136.266232 
L 430.52132 151.694783 
L 430.698489 148.172381 
L 430.964243 141.246012 
L 431.052827 139.129804 
L 431.318581 146.449028 
L 431.407165 148.107617 
L 431.49575 147.030833 
L 431.584334 139.971332 
L 431.850088 152.448691 
L 431.938672 151.649395 
L 432.027257 155.125814 
L 432.204426 150.333024 
L 432.29301 154.743744 
L 432.470179 147.50655 
L 432.558763 148.560578 
L 432.735932 145.131183 
L 432.824517 146.682835 
L 432.913101 135.801784 
L 433.001686 137.176143 
L 433.356024 155.391961 
L 433.533193 152.91656 
L 433.887531 158.377234 
L 433.976115 157.883344 
L 434.0647 164.002396 
L 434.153284 162.84688 
L 434.241869 162.956417 
L 434.330453 168.230194 
L 434.419037 167.551841 
L 434.507622 165.825052 
L 434.773375 171.290241 
L 434.86196 172.941746 
L 435.304882 161.231952 
L 435.393467 163.48704 
L 435.482051 160.542699 
L 435.65922 168.13026 
L 435.747805 165.028321 
L 435.836389 168.009693 
L 436.013558 164.467183 
L 436.190727 170.00047 
L 436.279312 169.790365 
L 436.45648 165.574493 
L 436.810818 177.697149 
L 436.987987 166.825864 
L 437.076572 173.219742 
L 437.165156 167.353858 
L 437.253741 167.757886 
L 437.519494 178.294164 
L 437.608079 178.041695 
L 437.696663 179.491926 
L 437.785248 177.052792 
L 437.873832 178.865444 
L 437.962417 183.70525 
L 438.139586 176.853862 
L 438.316755 180.882843 
L 438.493923 179.908639 
L 438.582508 180.181293 
L 438.936846 204.263304 
L 439.114015 191.661926 
L 439.291184 197.504071 
L 439.468353 192.996737 
L 439.556937 197.082335 
L 439.911275 179.117455 
L 439.99986 179.209666 
L 440.177029 189.113486 
L 440.442782 200.445648 
L 440.619951 191.341266 
L 440.79712 196.478005 
L 440.885704 194.195052 
L 440.974289 194.263813 
L 441.062873 198.745558 
L 441.240042 195.064817 
L 441.328627 196.045601 
L 441.417211 198.504777 
L 441.505796 198.323498 
L 441.59438 198.580215 
L 441.682965 197.523776 
L 441.771549 193.434247 
L 441.860134 195.824921 
L 441.948718 204.680291 
L 442.125887 192.071031 
L 442.214472 190.57761 
L 442.303056 194.178053 
L 442.391641 190.589462 
L 442.480225 197.077547 
L 442.657394 193.54055 
L 442.745978 195.396443 
L 443.011732 189.183668 
L 443.100316 189.442401 
L 443.277485 197.895389 
L 443.36607 191.987823 
L 443.454654 192.815614 
L 443.543239 196.941631 
L 443.631823 195.814533 
L 443.720408 193.083873 
L 443.808992 193.877896 
L 443.897577 197.579006 
L 444.074746 193.19527 
L 444.340499 179.580439 
L 444.429084 177.939264 
L 444.606252 186.6159 
L 444.783421 178.354402 
L 444.872006 182.655696 
L 444.96059 171.753813 
L 445.049175 176.080917 
L 445.137759 168.604126 
L 445.226344 171.157111 
L 445.403513 168.587881 
L 445.492097 171.582399 
L 445.580682 163.088019 
L 445.669266 164.694419 
L 445.846435 159.7634 
L 446.023604 156.55476 
L 446.112189 161.551563 
L 446.289358 155.184226 
L 446.377942 156.143681 
L 446.466527 155.727662 
L 446.555111 156.72001 
L 446.643695 160.585719 
L 446.820864 148.094352 
L 446.909449 150.454655 
L 447.086618 154.474934 
L 447.175202 151.713363 
L 447.352371 140.29429 
L 447.440956 140.218412 
L 447.52954 138.835826 
L 447.795294 144.488324 
L 447.972463 156.189724 
L 448.061047 154.637076 
L 448.149632 160.17301 
L 448.238216 156.488458 
L 448.415385 164.746924 
L 448.592554 154.111618 
L 448.681138 152.478125 
L 448.858307 141.175617 
L 448.946892 139.553697 
L 449.035476 140.392841 
L 449.212645 150.398279 
L 449.478399 145.377373 
L 449.566983 145.338905 
L 449.655568 143.796301 
L 449.744152 148.230061 
L 449.832737 144.063911 
L 450.09849 151.275691 
L 450.187075 150.529324 
L 450.275659 145.680455 
L 450.364244 147.287652 
L 450.541413 142.028541 
L 450.629997 147.534851 
L 450.89575 137.370298 
L 450.984335 136.880167 
L 451.072919 134.061652 
L 451.250088 123.858706 
L 451.515842 117.00954 
L 451.693011 125.083631 
L 451.87018 122.002304 
L 451.958764 121.618476 
L 452.047349 119.689562 
L 452.224518 111.525121 
L 452.313102 116.124308 
L 453.021778 99.421761 
L 453.287531 106.414609 
L 453.376116 108.519766 
L 453.553285 103.309976 
L 453.641869 108.49927 
L 453.730454 106.864285 
L 453.819038 107.924824 
L 453.907623 110.885235 
L 454.084792 106.336404 
L 454.173376 108.445428 
L 454.261961 105.082979 
L 454.43913 108.366238 
L 454.527714 107.358976 
L 454.616299 102.139859 
L 454.704883 102.417164 
L 454.793467 100.570701 
L 455.059221 106.504364 
L 455.147805 103.340572 
L 455.324974 112.518384 
L 455.413559 111.930156 
L 455.856481 93.82488 
L 456.122235 89.147357 
L 456.210819 89.77404 
L 456.387988 101.452261 
L 456.476573 100.384232 
L 456.653742 86.232995 
L 456.742326 85.303951 
L 456.83091 87.233997 
L 456.919495 83.151928 
L 457.008079 86.231657 
L 457.096664 93.255661 
L 457.185248 90.321307 
L 457.362417 77.065534 
L 457.628171 91.920601 
L 457.80534 98.973126 
L 457.893924 94.699043 
L 457.982509 96.013049 
L 458.071093 101.31787 
L 458.336847 89.607271 
L 458.514016 81.558988 
L 458.868353 89.202277 
L 459.045522 77.338434 
L 459.222691 66.573105 
L 459.311276 69.274002 
L 459.39986 67.457975 
L 459.488445 71.759633 
L 459.754198 59.387477 
L 459.842783 59.448067 
L 459.931367 62.979702 
L 460.019952 60.342794 
L 460.108536 61.184331 
L 460.285705 68.726673 
L 460.37429 68.683151 
L 460.462874 65.89246 
L 460.551459 68.154441 
L 460.640043 62.10817 
L 460.905796 74.538242 
L 460.994381 72.639085 
L 461.348719 84.16002 
L 461.437303 82.183613 
L 461.525888 85.554741 
L 461.880226 73.732785 
L 462.145979 82.50006 
L 462.323148 88.922798 
L 462.411733 89.533144 
L 462.500317 100.21433 
L 462.766071 85.110531 
L 463.031824 75.973749 
L 463.120408 79.002829 
L 463.208993 80.703272 
L 463.474746 68.750785 
L 463.563331 69.754767 
L 463.829084 87.642184 
L 463.917669 80.126908 
L 464.006253 80.499701 
L 464.094838 81.135482 
L 464.183422 84.499956 
L 464.360591 78.477632 
L 464.449176 79.803938 
L 464.53776 77.75986 
L 464.892098 91.639298 
L 465.069267 86.548328 
L 465.157851 93.461179 
L 465.512189 80.796976 
L 465.955112 65.944111 
L 466.043696 67.179543 
L 466.132281 71.305599 
L 466.30945 63.951905 
L 466.398034 65.874098 
L 466.486619 56.873868 
L 466.663788 61.788943 
L 466.840957 59.511972 
L 467.018125 67.437357 
L 467.10671 67.919373 
L 467.195294 67.60355 
L 467.283879 63.350993 
L 467.372463 67.965554 
L 467.638217 54.6908 
L 467.815386 69.990315 
L 467.90397 67.866943 
L 468.081139 60.585905 
L 468.169724 67.718892 
L 468.258308 65.147667 
L 468.524062 69.475066 
L 468.612646 73.613235 
L 468.8784 63.417565 
L 469.055568 70.008534 
L 469.232737 73.900298 
L 469.321322 72.301515 
L 469.409906 72.901053 
L 469.498491 76.82953 
L 469.67566 74.368052 
L 469.852829 64.406158 
L 470.118582 80.461321 
L 470.207167 80.453596 
L 470.384336 76.638537 
L 470.738674 92.636072 
L 471.093011 87.128715 
L 471.27018 86.148487 
L 471.358765 82.647979 
L 471.447349 90.708771 
L 471.535934 90.621676 
L 471.624518 91.9686 
L 471.801687 81.305604 
L 471.890272 80.417326 
L 471.978856 77.166076 
L 472.333194 82.301476 
L 472.510363 93.30048 
L 472.776117 115.72964 
L 473.04187 97.922775 
L 473.130454 99.861381 
L 473.307623 94.733591 
L 473.396208 100.70906 
L 473.573377 94.395711 
L 473.750546 96.288871 
L 473.83913 94.952184 
L 473.927715 95.650843 
L 474.104884 86.975879 
L 474.282053 86.193079 
L 474.370637 81.119685 
L 474.547806 87.56468 
L 474.636391 97.754849 
L 474.724975 96.657753 
L 474.902144 83.460201 
L 474.990729 87.02307 
L 475.079313 83.777716 
L 475.256482 100.225739 
L 475.433651 93.596589 
L 475.522235 97.832037 
L 475.699404 89.631769 
L 475.787989 98.080354 
L 475.965158 93.249313 
L 476.053742 92.872101 
L 476.142327 91.574182 
L 476.230911 100.208833 
L 476.40808 88.414486 
L 476.585249 91.346422 
L 476.673834 103.058344 
L 476.762418 101.977148 
L 476.939587 92.307074 
L 477.20534 99.689116 
L 477.293925 97.409647 
L 477.382509 102.488031 
L 477.648263 87.449267 
L 477.736847 89.016346 
L 477.825432 88.541476 
L 478.002601 85.711137 
L 478.091185 87.463534 
L 478.17977 87.080497 
L 478.268354 86.367487 
L 478.356939 89.142334 
L 478.534108 82.027686 
L 478.622692 83.787152 
L 478.711277 82.557999 
L 478.799861 86.17474 
L 478.97703 83.315391 
L 479.154199 82.581135 
L 479.242783 77.700088 
L 479.331368 77.837251 
L 479.597121 73.355227 
L 479.685706 74.696351 
L 479.77429 69.156463 
L 479.862875 69.9782 
L 480.040044 71.529587 
L 480.217213 81.230378 
L 480.305797 80.565332 
L 480.394382 79.260908 
L 480.482966 80.558973 
L 480.571551 80.42915 
L 480.74872 74.221389 
L 480.837304 74.479253 
L 480.925889 76.018923 
L 481.014473 81.781097 
L 481.103058 80.767095 
L 481.191642 82.613824 
L 481.280226 87.777164 
L 481.368811 81.199683 
L 481.457395 82.587192 
L 481.54598 79.498395 
L 481.634564 80.666736 
L 481.811733 73.566678 
L 481.988902 79.820124 
L 482.077487 78.721237 
L 482.254656 65.935609 
L 482.34324 70.26835 
L 482.431825 69.207498 
L 482.786163 73.660387 
L 482.874747 75.535766 
L 482.963332 75.051359 
L 483.051916 77.073607 
L 483.140501 84.769293 
L 483.229085 80.692882 
L 483.317669 81.608752 
L 483.406254 85.744634 
L 483.672007 78.989719 
L 483.760592 72.7699 
L 483.937761 78.195195 
L 484.026345 79.450069 
L 484.203514 91.867849 
L 484.469268 82.718893 
L 484.735021 89.896825 
L 485.000775 78.248324 
L 485.355112 97.132084 
L 485.443697 95.005611 
L 485.532281 96.662237 
L 485.70945 86.435788 
L 485.798035 87.645453 
L 485.975204 99.694369 
L 486.063788 98.847185 
L 486.240957 103.752103 
L 486.329542 97.071478 
L 486.418126 103.092133 
L 486.506711 102.432343 
L 486.68388 93.47671 
L 486.861049 76.63248 
L 487.038218 80.356358 
L 487.126802 76.993949 
L 487.215387 80.420113 
L 487.303971 78.556733 
L 487.392555 73.451192 
L 487.48114 76.265208 
L 487.569724 75.915807 
L 487.746893 68.940076 
L 488.189816 59.278845 
L 488.544154 48.282095 
L 488.721323 51.113158 
L 488.987076 48.843061 
L 489.075661 51.221443 
L 489.164245 49.614709 
L 489.25283 50.064291 
L 489.695752 75.50692 
L 489.961505 59.678215 
L 490.05009 60.60837 
L 490.138674 63.308858 
L 490.227259 60.840242 
L 490.315843 65.84132 
L 490.493012 64.042012 
L 490.581597 65.414269 
L 490.670181 60.77703 
L 490.758766 64.642453 
L 490.84735 62.72371 
L 491.024519 53.844663 
L 491.201688 50.885322 
L 491.290273 56.198435 
L 491.378857 54.61821 
L 491.467441 50.56436 
L 491.556026 51.387807 
L 491.64461 51.479108 
L 491.733195 55.301142 
L 491.821779 51.889786 
L 491.998948 58.823173 
L 492.087533 57.619484 
L 492.264702 53.430224 
L 492.441871 49.653479 
L 492.61904 53.267732 
L 492.707624 46.220949 
L 492.884793 50.492513 
L 492.973378 43.815834 
L 493.061962 46.443496 
L 493.150547 46.213025 
L 493.239131 46.249121 
L 493.327716 40.267887 
L 493.4163 40.917734 
L 493.593469 36.099146 
L 493.859222 47.772883 
L 493.947807 47.422022 
L 494.124976 52.868725 
L 494.21356 52.461611 
L 494.302145 57.443118 
L 494.390729 54.555354 
L 494.479314 55.944485 
L 494.656483 47.062991 
L 494.833652 48.653651 
L 495.276574 57.634003 
L 495.365159 58.454524 
L 495.630912 66.415948 
L 495.719496 67.064502 
L 495.896665 76.679032 
L 496.073834 67.828959 
L 496.162419 71.820268 
L 496.251003 68.415804 
L 496.428172 77.248852 
L 496.516757 77.528787 
L 496.693926 70.506351 
L 496.78251 70.388408 
L 497.048264 85.16448 
L 497.402602 65.422795 
L 497.491186 68.816891 
L 497.57977 67.482948 
L 497.668355 72.5267 
L 497.756939 68.098261 
L 497.934108 75.30284 
L 498.022693 78.656361 
L 498.111277 78.499398 
L 498.199862 77.717088 
L 498.288446 77.870304 
L 498.5542 57.345991 
L 498.731369 53.346709 
L 498.819953 58.750873 
L 498.997122 48.391697 
L 499.174291 62.309524 
L 499.262876 63.391131 
L 499.440045 59.890498 
L 499.528629 60.247488 
L 499.705798 53.996299 
L 499.794382 52.233483 
L 499.971551 57.855313 
L 500.060136 57.049836 
L 500.14872 54.902799 
L 500.237305 56.301368 
L 500.325889 54.074933 
L 500.414474 57.829274 
L 500.591643 52.968828 
L 500.857396 63.246735 
L 500.945981 63.000883 
L 501.12315 66.877958 
L 501.211734 66.536751 
L 501.388903 62.953173 
L 501.477488 65.860412 
L 501.566072 63.451488 
L 501.654656 63.92011 
L 501.831825 73.710696 
L 501.92041 75.415613 
L 502.008994 69.227333 
L 502.186163 75.2701 
L 502.274748 71.071135 
L 502.363332 71.101541 
L 502.540501 77.147317 
L 502.629086 77.590394 
L 502.71767 80.341315 
L 502.894839 70.884335 
L 502.983424 74.613569 
L 503.072008 71.020339 
L 503.160593 71.489221 
L 503.249177 71.059805 
L 503.426346 64.110638 
L 503.514931 65.534983 
L 503.603515 61.320214 
L 503.692099 61.474951 
L 503.869268 58.794242 
L 504.046437 71.309456 
L 504.135022 70.605487 
L 504.223606 67.040677 
L 504.312191 68.260573 
L 504.400775 71.055292 
L 504.666529 62.722046 
L 504.755113 64.185943 
L 504.843698 63.359485 
L 505.020867 66.001804 
L 505.109451 62.833463 
L 505.198036 64.111825 
L 505.375205 50.963092 
L 505.463789 49.965124 
L 505.640958 45.251848 
L 505.818127 56.933546 
L 505.906711 56.329059 
L 505.995296 55.589727 
L 506.172465 61.779098 
L 506.261049 60.14367 
L 506.438218 54.496723 
L 506.526803 53.668345 
L 506.881141 63.332705 
L 507.05831 59.888824 
L 507.05831 59.888824 
" clip-path="url(#pc5220d6f81)" style="fill: none; stroke: #1f77b4; stroke-width: 1.5; stroke-linecap: square"/>
   </g>
   <g id="patch_3">
    <path d="M 42.082813 224.521875 
L 42.082813 10.8 
" style="fill: none; stroke: #000000; stroke-width: 0.8; stroke-linejoin: miter; stroke-linecap: square"/>
   </g>
   <g id="patch_4">
    <path d="M 529.2 224.521875 
L 529.2 10.8 
" style="fill: none; stroke: #000000; stroke-width: 0.8; stroke-linejoin: miter; stroke-linecap: square"/>
   </g>
   <g id="patch_5">
    <path d="M 42.082813 224.521875 
L 529.2 224.521875 
" style="fill: none; stroke: #000000; stroke-width: 0.8; stroke-linejoin: miter; stroke-linecap: square"/>
   </g>
   <g id="patch_6">
    <path d="M 42.082813 10.8 
L 529.2 10.8 
" style="fill: none; stroke: #000000; stroke-width: 0.8; stroke-linejoin: miter; stroke-linecap: square"/>
   </g>
  </g>
 </g>
 <defs>
  <clipPath id="pc5220d6f81">
   <rect x="42.082813" y="10.8" width="487.117188" height="213.721875"/>
  </clipPath>
 </defs>
</svg>
