<?xml version="1.0" encoding="utf-8" standalone="no"?>
<!DOCTYPE svg PUBLIC "-//W3C//DTD SVG 1.1//EN"
  "http://www.w3.org/Graphics/SVG/1.1/DTD/svg11.dtd">
<svg xmlns:xlink="http://www.w3.org/1999/xlink" width="1440pt" height="360pt" viewBox="0 0 1440 360" xmlns="http://www.w3.org/2000/svg" version="1.1">
 <metadata>
  <rdf:RDF xmlns:dc="http://purl.org/dc/elements/1.1/" xmlns:cc="http://creativecommons.org/ns#" xmlns:rdf="http://www.w3.org/1999/02/22-rdf-syntax-ns#">
   <cc:Work>
    <dc:type rdf:resource="http://purl.org/dc/dcmitype/StillImage"/>
    <dc:date>2023-01-14T11:22:50.741111</dc:date>
    <dc:format>image/svg+xml</dc:format>
    <dc:creator>
     <cc:Agent>
      <dc:title>Matplotlib v3.6.2, https://matplotlib.org/</dc:title>
     </cc:Agent>
    </dc:creator>
   </cc:Work>
  </rdf:RDF>
 </metadata>
 <defs>
  <style type="text/css">*{stroke-linejoin: round; stroke-linecap: butt}</style>
 </defs>
 <g id="figure_1">
  <g id="patch_1">
   <path d="M 0 360 
L 1440 360 
L 1440 0 
L 0 0 
z
" style="fill: #ffffff"/>
  </g>
  <g id="axes_1">
   <g id="patch_2">
    <path d="M 180 320.4 
L 1296 320.4 
L 1296 43.2 
L 180 43.2 
z
" style="fill: #ffffff"/>
   </g>
   <g id="PolyCollection_1"/>
   <g id="matplotlib.axis_1">
    <g id="xtick_1">
     <g id="line2d_1">
      <defs>
       <path id="m9fa24df933" d="M 0 0 
L 0 3.5 
" style="stroke: #000000; stroke-width: 0.8"/>
      </defs>
      <g>
       <use xlink:href="#m9fa24df933" x="230.727273" y="320.4" style="stroke: #000000; stroke-width: 0.8"/>
      </g>
     </g>
     <g id="text_1">
      <!-- 0 -->
      <g transform="translate(227.546023 334.998438) scale(0.1 -0.1)">
       <defs>
        <path id="DejaVuSans-30" d="M 2034 4250 
Q 1547 4250 1301 3770 
Q 1056 3291 1056 2328 
Q 1056 1369 1301 889 
Q 1547 409 2034 409 
Q 2525 409 2770 889 
Q 3016 1369 3016 2328 
Q 3016 3291 2770 3770 
Q 2525 4250 2034 4250 
z
M 2034 4750 
Q 2819 4750 3233 4129 
Q 3647 3509 3647 2328 
Q 3647 1150 3233 529 
Q 2819 -91 2034 -91 
Q 1250 -91 836 529 
Q 422 1150 422 2328 
Q 422 3509 836 4129 
Q 1250 4750 2034 4750 
z
" transform="scale(0.015625)"/>
       </defs>
       <use xlink:href="#DejaVuSans-30"/>
      </g>
     </g>
    </g>
    <g id="xtick_2">
     <g id="line2d_2">
      <g>
       <use xlink:href="#m9fa24df933" x="434.45126" y="320.4" style="stroke: #000000; stroke-width: 0.8"/>
      </g>
     </g>
     <g id="text_2">
      <!-- 50 -->
      <g transform="translate(428.08876 334.998438) scale(0.1 -0.1)">
       <defs>
        <path id="DejaVuSans-35" d="M 691 4666 
L 3169 4666 
L 3169 4134 
L 1269 4134 
L 1269 2991 
Q 1406 3038 1543 3061 
Q 1681 3084 1819 3084 
Q 2600 3084 3056 2656 
Q 3513 2228 3513 1497 
Q 3513 744 3044 326 
Q 2575 -91 1722 -91 
Q 1428 -91 1123 -41 
Q 819 9 494 109 
L 494 744 
Q 775 591 1075 516 
Q 1375 441 1709 441 
Q 2250 441 2565 725 
Q 2881 1009 2881 1497 
Q 2881 1984 2565 2268 
Q 2250 2553 1709 2553 
Q 1456 2553 1204 2497 
Q 953 2441 691 2322 
L 691 4666 
z
" transform="scale(0.015625)"/>
       </defs>
       <use xlink:href="#DejaVuSans-35"/>
       <use xlink:href="#DejaVuSans-30" x="63.623047"/>
      </g>
     </g>
    </g>
    <g id="xtick_3">
     <g id="line2d_3">
      <g>
       <use xlink:href="#m9fa24df933" x="638.175246" y="320.4" style="stroke: #000000; stroke-width: 0.8"/>
      </g>
     </g>
     <g id="text_3">
      <!-- 100 -->
      <g transform="translate(628.631496 334.998438) scale(0.1 -0.1)">
       <defs>
        <path id="DejaVuSans-31" d="M 794 531 
L 1825 531 
L 1825 4091 
L 703 3866 
L 703 4441 
L 1819 4666 
L 2450 4666 
L 2450 531 
L 3481 531 
L 3481 0 
L 794 0 
L 794 531 
z
" transform="scale(0.015625)"/>
       </defs>
       <use xlink:href="#DejaVuSans-31"/>
       <use xlink:href="#DejaVuSans-30" x="63.623047"/>
       <use xlink:href="#DejaVuSans-30" x="127.246094"/>
      </g>
     </g>
    </g>
    <g id="xtick_4">
     <g id="line2d_4">
      <g>
       <use xlink:href="#m9fa24df933" x="841.899233" y="320.4" style="stroke: #000000; stroke-width: 0.8"/>
      </g>
     </g>
     <g id="text_4">
      <!-- 150 -->
      <g transform="translate(832.355483 334.998438) scale(0.1 -0.1)">
       <use xlink:href="#DejaVuSans-31"/>
       <use xlink:href="#DejaVuSans-35" x="63.623047"/>
       <use xlink:href="#DejaVuSans-30" x="127.246094"/>
      </g>
     </g>
    </g>
    <g id="xtick_5">
     <g id="line2d_5">
      <g>
       <use xlink:href="#m9fa24df933" x="1045.62322" y="320.4" style="stroke: #000000; stroke-width: 0.8"/>
      </g>
     </g>
     <g id="text_5">
      <!-- 200 -->
      <g transform="translate(1036.07947 334.998438) scale(0.1 -0.1)">
       <defs>
        <path id="DejaVuSans-32" d="M 1228 531 
L 3431 531 
L 3431 0 
L 469 0 
L 469 531 
Q 828 903 1448 1529 
Q 2069 2156 2228 2338 
Q 2531 2678 2651 2914 
Q 2772 3150 2772 3378 
Q 2772 3750 2511 3984 
Q 2250 4219 1831 4219 
Q 1534 4219 1204 4116 
Q 875 4013 500 3803 
L 500 4441 
Q 881 4594 1212 4672 
Q 1544 4750 1819 4750 
Q 2544 4750 2975 4387 
Q 3406 4025 3406 3419 
Q 3406 3131 3298 2873 
Q 3191 2616 2906 2266 
Q 2828 2175 2409 1742 
Q 1991 1309 1228 531 
z
" transform="scale(0.015625)"/>
       </defs>
       <use xlink:href="#DejaVuSans-32"/>
       <use xlink:href="#DejaVuSans-30" x="63.623047"/>
       <use xlink:href="#DejaVuSans-30" x="127.246094"/>
      </g>
     </g>
    </g>
    <g id="xtick_6">
     <g id="line2d_6">
      <g>
       <use xlink:href="#m9fa24df933" x="1249.347207" y="320.4" style="stroke: #000000; stroke-width: 0.8"/>
      </g>
     </g>
     <g id="text_6">
      <!-- 250 -->
      <g transform="translate(1239.803457 334.998438) scale(0.1 -0.1)">
       <use xlink:href="#DejaVuSans-32"/>
       <use xlink:href="#DejaVuSans-35" x="63.623047"/>
       <use xlink:href="#DejaVuSans-30" x="127.246094"/>
      </g>
     </g>
    </g>
   </g>
   <g id="matplotlib.axis_2">
    <g id="ytick_1">
     <g id="line2d_7">
      <defs>
       <path id="m1153fb3670" d="M 0 0 
L -3.5 0 
" style="stroke: #000000; stroke-width: 0.8"/>
      </defs>
      <g>
       <use xlink:href="#m1153fb3670" x="180" y="308.807041" style="stroke: #000000; stroke-width: 0.8"/>
      </g>
     </g>
     <g id="text_7">
      <!-- −1.0 -->
      <g transform="translate(148.717187 312.606259) scale(0.1 -0.1)">
       <defs>
        <path id="DejaVuSans-2212" d="M 678 2272 
L 4684 2272 
L 4684 1741 
L 678 1741 
L 678 2272 
z
" transform="scale(0.015625)"/>
        <path id="DejaVuSans-2e" d="M 684 794 
L 1344 794 
L 1344 0 
L 684 0 
L 684 794 
z
" transform="scale(0.015625)"/>
       </defs>
       <use xlink:href="#DejaVuSans-2212"/>
       <use xlink:href="#DejaVuSans-31" x="83.789062"/>
       <use xlink:href="#DejaVuSans-2e" x="147.412109"/>
       <use xlink:href="#DejaVuSans-30" x="179.199219"/>
      </g>
     </g>
    </g>
    <g id="ytick_2">
     <g id="line2d_8">
      <g>
       <use xlink:href="#m1153fb3670" x="180" y="254.876424" style="stroke: #000000; stroke-width: 0.8"/>
      </g>
     </g>
     <g id="text_8">
      <!-- −0.5 -->
      <g transform="translate(148.717187 258.675643) scale(0.1 -0.1)">
       <use xlink:href="#DejaVuSans-2212"/>
       <use xlink:href="#DejaVuSans-30" x="83.789062"/>
       <use xlink:href="#DejaVuSans-2e" x="147.412109"/>
       <use xlink:href="#DejaVuSans-35" x="179.199219"/>
      </g>
     </g>
    </g>
    <g id="ytick_3">
     <g id="line2d_9">
      <g>
       <use xlink:href="#m1153fb3670" x="180" y="200.945807" style="stroke: #000000; stroke-width: 0.8"/>
      </g>
     </g>
     <g id="text_9">
      <!-- 0.0 -->
      <g transform="translate(157.096875 204.745026) scale(0.1 -0.1)">
       <use xlink:href="#DejaVuSans-30"/>
       <use xlink:href="#DejaVuSans-2e" x="63.623047"/>
       <use xlink:href="#DejaVuSans-30" x="95.410156"/>
      </g>
     </g>
    </g>
    <g id="ytick_4">
     <g id="line2d_10">
      <g>
       <use xlink:href="#m1153fb3670" x="180" y="147.015191" style="stroke: #000000; stroke-width: 0.8"/>
      </g>
     </g>
     <g id="text_10">
      <!-- 0.5 -->
      <g transform="translate(157.096875 150.814409) scale(0.1 -0.1)">
       <use xlink:href="#DejaVuSans-30"/>
       <use xlink:href="#DejaVuSans-2e" x="63.623047"/>
       <use xlink:href="#DejaVuSans-35" x="95.410156"/>
      </g>
     </g>
    </g>
    <g id="ytick_5">
     <g id="line2d_11">
      <g>
       <use xlink:href="#m1153fb3670" x="180" y="93.084574" style="stroke: #000000; stroke-width: 0.8"/>
      </g>
     </g>
     <g id="text_11">
      <!-- 1.0 -->
      <g transform="translate(157.096875 96.883793) scale(0.1 -0.1)">
       <use xlink:href="#DejaVuSans-31"/>
       <use xlink:href="#DejaVuSans-2e" x="63.623047"/>
       <use xlink:href="#DejaVuSans-30" x="95.410156"/>
      </g>
     </g>
    </g>
   </g>
   <g id="line2d_12">
    <path d="M 230.727273 265.969989 
L 234.801752 256.553662 
L 238.876232 221.775618 
L 242.950712 190.837839 
L 247.025192 205.307892 
L 251.099671 194.140554 
L 255.174151 202.897704 
L 259.248631 182.252225 
L 263.323111 237.73127 
L 267.39759 235.456474 
L 271.47207 255.248196 
L 275.54655 244.323964 
L 279.62103 199.022456 
L 283.695509 189.451419 
L 287.769989 183.421027 
L 291.844469 193.271542 
L 295.918949 184.066757 
L 299.993428 223.574415 
L 304.067908 218.780713 
L 308.142388 177.079425 
L 312.216867 195.661256 
L 316.291347 182.652028 
L 320.365827 180.571414 
L 324.440307 182.460328 
L 328.514786 206.599634 
L 332.589266 154.60636 
L 336.663746 172.2559 
L 340.738226 197.740754 
L 344.812705 215.439382 
L 348.887185 216.710293 
L 352.961665 194.5878 
L 357.036145 242.183882 
L 361.110624 217.389971 
L 365.185104 209.903723 
L 369.259584 217.752498 
L 373.334064 179.54154 
L 377.408543 170.232209 
L 381.483023 175.938532 
L 385.557503 168.689833 
L 389.631982 154.577021 
L 393.706462 171.994698 
L 397.780942 159.0983 
L 401.855422 168.404653 
L 405.929901 176.518356 
L 410.004381 181.93043 
L 414.078861 138.780018 
L 418.153341 148.384484 
L 422.22782 183.735767 
L 426.3023 187.379006 
L 430.37678 192.911931 
L 434.45126 183.707117 
L 438.525739 188.759352 
L 442.600219 204.283186 
L 446.674699 191.180017 
L 450.749179 201.406429 
L 454.823658 208.027258 
L 458.898138 213.759172 
L 462.972618 177.125128 
L 467.047097 163.416237 
L 471.121577 188.556662 
L 475.196057 205.224054 
L 479.270537 243.229813 
L 483.345016 268.424308 
L 487.419496 218.170127 
L 491.493976 255.077588 
L 495.568456 237.683145 
L 499.642935 248.282874 
L 503.717415 229.094564 
L 507.791895 254.981987 
L 511.866375 307.8 
L 515.940854 282.58857 
L 520.015334 265.969845 
L 524.089814 242.405165 
L 528.164294 262.911376 
L 532.238773 244.545227 
L 536.313253 207.777804 
L 540.387733 199.005756 
L 544.462212 176.832004 
L 548.536692 169.070258 
L 552.611172 164.755 
L 556.685652 200.397632 
L 560.760131 217.194749 
L 564.834611 183.829642 
L 568.909091 196.357466 
L 572.983571 186.352795 
L 577.05805 198.259873 
L 581.13253 215.896095 
L 585.20701 252.028001 
L 589.28149 254.461753 
L 593.355969 244.383088 
L 597.430449 208.02525 
L 601.504929 224.967272 
L 605.579409 214.388758 
L 609.653888 244.341397 
L 613.728368 266.749677 
L 617.802848 245.2932 
L 621.877327 219.963678 
L 625.951807 243.72296 
L 630.026287 248.390677 
L 634.100767 200.356081 
L 638.175246 174.334139 
L 642.249726 142.070392 
L 646.324206 117.714151 
L 650.398686 143.779866 
L 654.473165 108.87332 
L 658.547645 110.790494 
L 662.622125 141.033413 
L 666.696605 134.615128 
L 670.771084 226.603121 
L 674.845564 218.09002 
L 678.920044 224.972072 
L 682.994524 233.26818 
L 687.069003 232.872074 
L 691.143483 245.815046 
L 695.217963 210.711133 
L 699.292442 186.365978 
L 703.366922 192.319728 
L 707.441402 177.45488 
L 711.515882 192.897888 
L 715.590361 164.505682 
L 719.664841 178.797131 
L 723.739321 197.390399 
L 727.813801 213.144099 
L 731.88828 160.682624 
L 735.96276 218.280714 
L 740.03724 227.223237 
L 744.11172 218.518255 
L 748.186199 176.95393 
L 752.260679 188.801079 
L 756.335159 201.9881 
L 760.409639 157.974821 
L 764.484118 230.205177 
L 768.558598 274.643017 
L 772.633078 303.673916 
L 776.707558 255.197062 
L 780.782037 228.46856 
L 784.856517 193.18781 
L 788.930997 215.457427 
L 793.005476 190.234925 
L 797.079956 154.382736 
L 801.154436 156.153112 
L 805.228916 174.773377 
L 809.303395 262.844373 
L 813.377875 254.779599 
L 817.452355 208.671722 
L 821.526835 185.393492 
L 825.601314 130.561509 
L 829.675794 115.421377 
L 833.750274 117.900803 
L 837.824754 145.817645 
L 841.899233 134.616301 
L 845.973713 214.01561 
L 850.048193 206.900573 
L 854.122673 189.260512 
L 858.197152 179.916733 
L 862.271632 156.240494 
L 866.346112 191.056673 
L 870.420591 174.628345 
L 874.495071 189.733409 
L 878.569551 158.300519 
L 882.644031 137.033946 
L 886.71851 145.123133 
L 890.79299 151.537337 
L 894.86747 120.217422 
L 898.94195 55.8 
L 903.016429 76.67887 
L 907.090909 77.120371 
L 911.165389 151.479526 
L 915.239869 128.202216 
L 919.314348 103.879585 
L 923.388828 183.310216 
L 927.463308 154.93069 
L 931.537788 139.913083 
L 935.612267 132.56077 
L 939.686747 74.739705 
L 943.761227 105.726683 
L 947.835706 184.798415 
L 951.910186 178.88411 
L 955.984666 163.071442 
L 960.059146 165.580381 
L 964.133625 133.65 
L 968.208105 160.197053 
L 972.282585 160.481368 
L 976.357065 196.373711 
L 980.431544 196.763705 
L 984.506024 191.980002 
L 988.580504 197.956939 
L 992.654984 205.27997 
L 996.729463 200.436849 
L 1000.803943 189.037395 
L 1004.878423 201.375975 
L 1008.952903 240.842996 
L 1013.027382 245.256162 
L 1017.101862 275.584912 
L 1021.176342 286.631464 
L 1025.250821 270.358585 
L 1029.325301 272.651985 
L 1033.399781 257.418052 
L 1037.474261 215.457886 
L 1041.54874 284.611938 
L 1045.62322 228.813753 
L 1049.6977 189.080591 
L 1053.77218 166.406569 
L 1057.846659 198.732396 
L 1061.921139 229.669494 
L 1065.995619 246.042988 
L 1070.070099 229.849997 
L 1074.144578 206.235845 
L 1078.219058 192.397145 
L 1082.293538 212.929316 
L 1086.368018 218.135617 
L 1090.442497 204.417289 
L 1094.516977 223.085905 
L 1098.591457 203.325595 
L 1102.665936 207.082822 
L 1106.740416 217.429395 
L 1110.814896 226.646789 
L 1114.889376 198.4362 
L 1118.963855 159.468674 
L 1123.038335 183.600968 
L 1127.112815 197.371954 
L 1131.187295 204.165206 
L 1135.261774 232.478026 
L 1139.336254 220.839438 
L 1143.410734 178.414993 
L 1147.485214 176.646328 
L 1151.559693 97.049517 
L 1155.634173 94.872813 
L 1159.708653 80.323371 
L 1163.783133 79.441155 
L 1167.857612 107.024838 
L 1171.932092 139.840002 
L 1176.006572 162.069258 
L 1180.081051 196.396205 
L 1184.155531 268.79104 
L 1188.230011 273.697885 
L 1192.304491 252.810952 
L 1196.37897 206.702586 
L 1200.45345 204.261408 
L 1204.52793 206.163048 
L 1208.60241 240.250227 
L 1212.676889 251.492901 
L 1216.751369 239.004422 
L 1220.825849 246.249947 
L 1224.900329 225.52092 
L 1228.974808 226.870042 
L 1233.049288 155.429275 
L 1241.198248 174.483173 
L 1245.272727 213.649335 
L 1245.272727 213.649335 
" clip-path="url(#p30f3b8e484)" style="fill: none; stroke: #2e8b57; stroke-width: 5; stroke-linecap: square"/>
   </g>
   <g id="patch_3">
    <path d="M 180 320.4 
L 180 43.2 
" style="fill: none; stroke: #000000; stroke-width: 0.8; stroke-linejoin: miter; stroke-linecap: square"/>
   </g>
   <g id="patch_4">
    <path d="M 1296 320.4 
L 1296 43.2 
" style="fill: none; stroke: #000000; stroke-width: 0.8; stroke-linejoin: miter; stroke-linecap: square"/>
   </g>
   <g id="patch_5">
    <path d="M 180 320.4 
L 1296 320.4 
" style="fill: none; stroke: #000000; stroke-width: 0.8; stroke-linejoin: miter; stroke-linecap: square"/>
   </g>
   <g id="patch_6">
    <path d="M 180 43.2 
L 1296 43.2 
" style="fill: none; stroke: #000000; stroke-width: 0.8; stroke-linejoin: miter; stroke-linecap: square"/>
   </g>
  </g>
 </g>
 <defs>
  <clipPath id="p30f3b8e484">
   <rect x="180" y="43.2" width="1116" height="277.2"/>
  </clipPath>
 </defs>
</svg>
