<?xml version="1.0" encoding="utf-8" standalone="no"?>
<!DOCTYPE svg PUBLIC "-//W3C//DTD SVG 1.1//EN"
  "http://www.w3.org/Graphics/SVG/1.1/DTD/svg11.dtd">
<svg xmlns:xlink="http://www.w3.org/1999/xlink" width="1440pt" height="360pt" viewBox="0 0 1440 360" xmlns="http://www.w3.org/2000/svg" version="1.1">
 <metadata>
  <rdf:RDF xmlns:dc="http://purl.org/dc/elements/1.1/" xmlns:cc="http://creativecommons.org/ns#" xmlns:rdf="http://www.w3.org/1999/02/22-rdf-syntax-ns#">
   <cc:Work>
    <dc:type rdf:resource="http://purl.org/dc/dcmitype/StillImage"/>
    <dc:date>2023-01-12T19:16:14.807534</dc:date>
    <dc:format>image/svg+xml</dc:format>
    <dc:creator>
     <cc:Agent>
      <dc:title>Matplotlib v3.6.2, https://matplotlib.org/</dc:title>
     </cc:Agent>
    </dc:creator>
   </cc:Work>
  </rdf:RDF>
 </metadata>
 <defs>
  <style type="text/css">*{stroke-linejoin: round; stroke-linecap: butt}</style>
 </defs>
 <g id="figure_1">
  <g id="patch_1">
   <path d="M 0 360 
L 1440 360 
L 1440 0 
L 0 0 
z
" style="fill: #ffffff"/>
  </g>
  <g id="axes_1">
   <g id="patch_2">
    <path d="M 180 320.4 
L 1296 320.4 
L 1296 43.2 
L 180 43.2 
z
" style="fill: #ffffff"/>
   </g>
   <g id="matplotlib.axis_1">
    <g id="xtick_1">
     <g id="line2d_1">
      <defs>
       <path id="m6283c4b349" d="M 0 0 
L 0 3.5 
" style="stroke: #000000; stroke-width: 0.8"/>
      </defs>
      <g>
       <use xlink:href="#m6283c4b349" x="230.727273" y="320.4" style="stroke: #000000; stroke-width: 0.8"/>
      </g>
     </g>
     <g id="text_1">
      <!-- 0 -->
      <g transform="translate(227.546023 334.998438) scale(0.1 -0.1)">
       <defs>
        <path id="DejaVuSans-30" d="M 2034 4250 
Q 1547 4250 1301 3770 
Q 1056 3291 1056 2328 
Q 1056 1369 1301 889 
Q 1547 409 2034 409 
Q 2525 409 2770 889 
Q 3016 1369 3016 2328 
Q 3016 3291 2770 3770 
Q 2525 4250 2034 4250 
z
M 2034 4750 
Q 2819 4750 3233 4129 
Q 3647 3509 3647 2328 
Q 3647 1150 3233 529 
Q 2819 -91 2034 -91 
Q 1250 -91 836 529 
Q 422 1150 422 2328 
Q 422 3509 836 4129 
Q 1250 4750 2034 4750 
z
" transform="scale(0.015625)"/>
       </defs>
       <use xlink:href="#DejaVuSans-30"/>
      </g>
     </g>
    </g>
    <g id="xtick_2">
     <g id="line2d_2">
      <g>
       <use xlink:href="#m6283c4b349" x="433.676954" y="320.4" style="stroke: #000000; stroke-width: 0.8"/>
      </g>
     </g>
     <g id="text_2">
      <!-- 1000 -->
      <g transform="translate(420.951954 334.998438) scale(0.1 -0.1)">
       <defs>
        <path id="DejaVuSans-31" d="M 794 531 
L 1825 531 
L 1825 4091 
L 703 3866 
L 703 4441 
L 1819 4666 
L 2450 4666 
L 2450 531 
L 3481 531 
L 3481 0 
L 794 0 
L 794 531 
z
" transform="scale(0.015625)"/>
       </defs>
       <use xlink:href="#DejaVuSans-31"/>
       <use xlink:href="#DejaVuSans-30" x="63.623047"/>
       <use xlink:href="#DejaVuSans-30" x="127.246094"/>
       <use xlink:href="#DejaVuSans-30" x="190.869141"/>
      </g>
     </g>
    </g>
    <g id="xtick_3">
     <g id="line2d_3">
      <g>
       <use xlink:href="#m6283c4b349" x="636.626634" y="320.4" style="stroke: #000000; stroke-width: 0.8"/>
      </g>
     </g>
     <g id="text_3">
      <!-- 2000 -->
      <g transform="translate(623.901634 334.998438) scale(0.1 -0.1)">
       <defs>
        <path id="DejaVuSans-32" d="M 1228 531 
L 3431 531 
L 3431 0 
L 469 0 
L 469 531 
Q 828 903 1448 1529 
Q 2069 2156 2228 2338 
Q 2531 2678 2651 2914 
Q 2772 3150 2772 3378 
Q 2772 3750 2511 3984 
Q 2250 4219 1831 4219 
Q 1534 4219 1204 4116 
Q 875 4013 500 3803 
L 500 4441 
Q 881 4594 1212 4672 
Q 1544 4750 1819 4750 
Q 2544 4750 2975 4387 
Q 3406 4025 3406 3419 
Q 3406 3131 3298 2873 
Q 3191 2616 2906 2266 
Q 2828 2175 2409 1742 
Q 1991 1309 1228 531 
z
" transform="scale(0.015625)"/>
       </defs>
       <use xlink:href="#DejaVuSans-32"/>
       <use xlink:href="#DejaVuSans-30" x="63.623047"/>
       <use xlink:href="#DejaVuSans-30" x="127.246094"/>
       <use xlink:href="#DejaVuSans-30" x="190.869141"/>
      </g>
     </g>
    </g>
    <g id="xtick_4">
     <g id="line2d_4">
      <g>
       <use xlink:href="#m6283c4b349" x="839.576315" y="320.4" style="stroke: #000000; stroke-width: 0.8"/>
      </g>
     </g>
     <g id="text_4">
      <!-- 3000 -->
      <g transform="translate(826.851315 334.998438) scale(0.1 -0.1)">
       <defs>
        <path id="DejaVuSans-33" d="M 2597 2516 
Q 3050 2419 3304 2112 
Q 3559 1806 3559 1356 
Q 3559 666 3084 287 
Q 2609 -91 1734 -91 
Q 1441 -91 1130 -33 
Q 819 25 488 141 
L 488 750 
Q 750 597 1062 519 
Q 1375 441 1716 441 
Q 2309 441 2620 675 
Q 2931 909 2931 1356 
Q 2931 1769 2642 2001 
Q 2353 2234 1838 2234 
L 1294 2234 
L 1294 2753 
L 1863 2753 
Q 2328 2753 2575 2939 
Q 2822 3125 2822 3475 
Q 2822 3834 2567 4026 
Q 2313 4219 1838 4219 
Q 1578 4219 1281 4162 
Q 984 4106 628 3988 
L 628 4550 
Q 988 4650 1302 4700 
Q 1616 4750 1894 4750 
Q 2613 4750 3031 4423 
Q 3450 4097 3450 3541 
Q 3450 3153 3228 2886 
Q 3006 2619 2597 2516 
z
" transform="scale(0.015625)"/>
       </defs>
       <use xlink:href="#DejaVuSans-33"/>
       <use xlink:href="#DejaVuSans-30" x="63.623047"/>
       <use xlink:href="#DejaVuSans-30" x="127.246094"/>
       <use xlink:href="#DejaVuSans-30" x="190.869141"/>
      </g>
     </g>
    </g>
    <g id="xtick_5">
     <g id="line2d_5">
      <g>
       <use xlink:href="#m6283c4b349" x="1042.525996" y="320.4" style="stroke: #000000; stroke-width: 0.8"/>
      </g>
     </g>
     <g id="text_5">
      <!-- 4000 -->
      <g transform="translate(1029.800996 334.998438) scale(0.1 -0.1)">
       <defs>
        <path id="DejaVuSans-34" d="M 2419 4116 
L 825 1625 
L 2419 1625 
L 2419 4116 
z
M 2253 4666 
L 3047 4666 
L 3047 1625 
L 3713 1625 
L 3713 1100 
L 3047 1100 
L 3047 0 
L 2419 0 
L 2419 1100 
L 313 1100 
L 313 1709 
L 2253 4666 
z
" transform="scale(0.015625)"/>
       </defs>
       <use xlink:href="#DejaVuSans-34"/>
       <use xlink:href="#DejaVuSans-30" x="63.623047"/>
       <use xlink:href="#DejaVuSans-30" x="127.246094"/>
       <use xlink:href="#DejaVuSans-30" x="190.869141"/>
      </g>
     </g>
    </g>
    <g id="xtick_6">
     <g id="line2d_6">
      <g>
       <use xlink:href="#m6283c4b349" x="1245.475677" y="320.4" style="stroke: #000000; stroke-width: 0.8"/>
      </g>
     </g>
     <g id="text_6">
      <!-- 5000 -->
      <g transform="translate(1232.750677 334.998438) scale(0.1 -0.1)">
       <defs>
        <path id="DejaVuSans-35" d="M 691 4666 
L 3169 4666 
L 3169 4134 
L 1269 4134 
L 1269 2991 
Q 1406 3038 1543 3061 
Q 1681 3084 1819 3084 
Q 2600 3084 3056 2656 
Q 3513 2228 3513 1497 
Q 3513 744 3044 326 
Q 2575 -91 1722 -91 
Q 1428 -91 1123 -41 
Q 819 9 494 109 
L 494 744 
Q 775 591 1075 516 
Q 1375 441 1709 441 
Q 2250 441 2565 725 
Q 2881 1009 2881 1497 
Q 2881 1984 2565 2268 
Q 2250 2553 1709 2553 
Q 1456 2553 1204 2497 
Q 953 2441 691 2322 
L 691 4666 
z
" transform="scale(0.015625)"/>
       </defs>
       <use xlink:href="#DejaVuSans-35"/>
       <use xlink:href="#DejaVuSans-30" x="63.623047"/>
       <use xlink:href="#DejaVuSans-30" x="127.246094"/>
       <use xlink:href="#DejaVuSans-30" x="190.869141"/>
      </g>
     </g>
    </g>
   </g>
   <g id="matplotlib.axis_2">
    <g id="ytick_1">
     <g id="line2d_7">
      <defs>
       <path id="mf53f4eaf76" d="M 0 0 
L -3.5 0 
" style="stroke: #000000; stroke-width: 0.8"/>
      </defs>
      <g>
       <use xlink:href="#mf53f4eaf76" x="180" y="301.127823" style="stroke: #000000; stroke-width: 0.8"/>
      </g>
     </g>
     <g id="text_7">
      <!-- −1.5 -->
      <g transform="translate(148.717187 304.927042) scale(0.1 -0.1)">
       <defs>
        <path id="DejaVuSans-2212" d="M 678 2272 
L 4684 2272 
L 4684 1741 
L 678 1741 
L 678 2272 
z
" transform="scale(0.015625)"/>
        <path id="DejaVuSans-2e" d="M 684 794 
L 1344 794 
L 1344 0 
L 684 0 
L 684 794 
z
" transform="scale(0.015625)"/>
       </defs>
       <use xlink:href="#DejaVuSans-2212"/>
       <use xlink:href="#DejaVuSans-31" x="83.789062"/>
       <use xlink:href="#DejaVuSans-2e" x="147.412109"/>
       <use xlink:href="#DejaVuSans-35" x="179.199219"/>
      </g>
     </g>
    </g>
    <g id="ytick_2">
     <g id="line2d_8">
      <g>
       <use xlink:href="#mf53f4eaf76" x="180" y="261.341649" style="stroke: #000000; stroke-width: 0.8"/>
      </g>
     </g>
     <g id="text_8">
      <!-- −1.0 -->
      <g transform="translate(148.717187 265.140868) scale(0.1 -0.1)">
       <use xlink:href="#DejaVuSans-2212"/>
       <use xlink:href="#DejaVuSans-31" x="83.789062"/>
       <use xlink:href="#DejaVuSans-2e" x="147.412109"/>
       <use xlink:href="#DejaVuSans-30" x="179.199219"/>
      </g>
     </g>
    </g>
    <g id="ytick_3">
     <g id="line2d_9">
      <g>
       <use xlink:href="#mf53f4eaf76" x="180" y="221.555475" style="stroke: #000000; stroke-width: 0.8"/>
      </g>
     </g>
     <g id="text_9">
      <!-- −0.5 -->
      <g transform="translate(148.717187 225.354693) scale(0.1 -0.1)">
       <use xlink:href="#DejaVuSans-2212"/>
       <use xlink:href="#DejaVuSans-30" x="83.789062"/>
       <use xlink:href="#DejaVuSans-2e" x="147.412109"/>
       <use xlink:href="#DejaVuSans-35" x="179.199219"/>
      </g>
     </g>
    </g>
    <g id="ytick_4">
     <g id="line2d_10">
      <g>
       <use xlink:href="#mf53f4eaf76" x="180" y="181.7693" style="stroke: #000000; stroke-width: 0.8"/>
      </g>
     </g>
     <g id="text_10">
      <!-- 0.0 -->
      <g transform="translate(157.096875 185.568519) scale(0.1 -0.1)">
       <use xlink:href="#DejaVuSans-30"/>
       <use xlink:href="#DejaVuSans-2e" x="63.623047"/>
       <use xlink:href="#DejaVuSans-30" x="95.410156"/>
      </g>
     </g>
    </g>
    <g id="ytick_5">
     <g id="line2d_11">
      <g>
       <use xlink:href="#mf53f4eaf76" x="180" y="141.983126" style="stroke: #000000; stroke-width: 0.8"/>
      </g>
     </g>
     <g id="text_11">
      <!-- 0.5 -->
      <g transform="translate(157.096875 145.782344) scale(0.1 -0.1)">
       <use xlink:href="#DejaVuSans-30"/>
       <use xlink:href="#DejaVuSans-2e" x="63.623047"/>
       <use xlink:href="#DejaVuSans-35" x="95.410156"/>
      </g>
     </g>
    </g>
    <g id="ytick_6">
     <g id="line2d_12">
      <g>
       <use xlink:href="#mf53f4eaf76" x="180" y="102.196951" style="stroke: #000000; stroke-width: 0.8"/>
      </g>
     </g>
     <g id="text_12">
      <!-- 1.0 -->
      <g transform="translate(157.096875 105.99617) scale(0.1 -0.1)">
       <use xlink:href="#DejaVuSans-31"/>
       <use xlink:href="#DejaVuSans-2e" x="63.623047"/>
       <use xlink:href="#DejaVuSans-30" x="95.410156"/>
      </g>
     </g>
    </g>
    <g id="ytick_7">
     <g id="line2d_13">
      <g>
       <use xlink:href="#mf53f4eaf76" x="180" y="62.410777" style="stroke: #000000; stroke-width: 0.8"/>
      </g>
     </g>
     <g id="text_13">
      <!-- 1.5 -->
      <g transform="translate(157.096875 66.209995) scale(0.1 -0.1)">
       <use xlink:href="#DejaVuSans-31"/>
       <use xlink:href="#DejaVuSans-2e" x="63.623047"/>
       <use xlink:href="#DejaVuSans-35" x="95.410156"/>
      </g>
     </g>
    </g>
   </g>
   <g id="line2d_14">
    <path d="M 230.727273 112.318109 
L 231.539071 108.10655 
L 233.568568 98.328004 
L 234.380367 94.762131 
L 237.627562 81.758033 
L 239.657059 74.383028 
L 241.483606 69.239606 
L 243.513103 64.557852 
L 243.919002 63.63547 
L 245.542599 60.505876 
L 246.354398 59.360919 
L 246.760298 58.870563 
L 247.977996 57.673625 
L 249.195694 56.807425 
L 249.804543 56.673728 
L 250.210442 56.378492 
L 250.413392 56.420629 
L 250.819291 56.280989 
L 251.22519 56.249755 
L 251.63109 56.509765 
L 251.83404 56.458559 
L 252.036989 56.548567 
L 252.239939 56.4859 
L 252.645838 56.782657 
L 252.848788 56.804542 
L 254.878285 58.755186 
L 255.284184 59.313003 
L 255.690083 59.978931 
L 256.704832 61.605233 
L 258.328429 65.011303 
L 258.531379 65.295297 
L 258.937278 66.516587 
L 260.966775 71.558763 
L 261.778574 74.272597 
L 262.996272 78.390264 
L 263.402171 80.06959 
L 266.446417 92.159786 
L 269.693611 107.387051 
L 272.129008 120.043924 
L 272.534907 122.079527 
L 273.752605 129.151942 
L 274.361454 132.641718 
L 281.464693 175.103262 
L 282.885341 183.946064 
L 284.508938 193.882063 
L 285.929586 202.739984 
L 287.756133 213.968382 
L 289.176781 222.257041 
L 289.98858 226.789119 
L 294.047573 249.064588 
L 295.062322 253.891386 
L 296.482969 261.3436 
L 297.700667 267.421621 
L 298.512466 271.208367 
L 301.962611 284.636843 
L 304.195057 291.970127 
L 304.398007 292.41621 
L 304.803906 293.676478 
L 305.006856 294.034034 
L 306.224554 297.552639 
L 307.239302 299.495882 
L 309.471749 303.926486 
L 310.689447 305.309464 
L 311.095346 305.870018 
L 311.501246 306.053673 
L 312.110095 306.610598 
L 312.718944 306.937765 
L 313.327793 306.996675 
L 313.733692 307.359849 
L 313.936642 307.168887 
L 314.139592 307.134603 
L 314.342541 306.930758 
L 315.15434 306.997614 
L 315.35729 307.082349 
L 316.372038 306.930093 
L 316.574988 306.587948 
L 316.777937 306.463919 
L 317.183837 305.852624 
L 317.995635 305.169358 
L 318.807434 303.865311 
L 320.431032 301.315366 
L 320.836931 300.474635 
L 321.24283 299.844788 
L 322.257579 297.481892 
L 323.881176 292.856143 
L 324.287076 291.791409 
L 327.331321 281.459521 
L 328.346069 277.325226 
L 330.375566 268.719328 
L 334.23161 250.414456 
L 335.246358 245.280788 
L 338.290604 228.571688 
L 339.711251 220.520975 
L 342.552547 203.137362 
L 343.973195 194.316313 
L 347.01744 175.655667 
L 348.235138 168.168234 
L 351.482333 148.103571 
L 355.541326 124.651615 
L 357.976723 111.909766 
L 361.223918 96.102739 
L 362.644565 90.182739 
L 364.065213 84.452325 
L 366.703559 74.674418 
L 366.906509 74.228898 
L 368.124207 70.222881 
L 369.341905 66.947372 
L 371.980251 61.56172 
L 373.603848 59.297824 
L 374.009747 58.770105 
L 374.415647 58.195823 
L 374.821546 57.975108 
L 376.039244 56.531109 
L 376.648093 56.148418 
L 377.256942 56.098645 
L 377.459892 55.903138 
L 378.271691 56.058332 
L 378.47464 55.952118 
L 378.67759 55.991658 
L 379.083489 55.83207 
L 379.692338 55.876167 
L 380.301188 56.477245 
L 380.707087 56.604663 
L 381.721835 57.710837 
L 382.736584 59.362324 
L 385.577879 64.784874 
L 386.998527 68.505596 
L 387.404426 69.593125 
L 387.810326 70.760805 
L 388.419175 72.180289 
L 389.839823 76.54348 
L 390.448672 78.586748 
L 391.057521 80.794946 
L 393.289967 89.791221 
L 394.710615 96.113875 
L 396.740112 105.729885 
L 401.407954 130.265677 
L 406.684646 161.825274 
L 407.496445 166.415098 
L 414.802633 211.854773 
L 415.614432 216.533564 
L 419.064577 236.505869 
L 419.876375 240.760316 
L 421.702922 250.441473 
L 423.12357 257.463858 
L 424.544218 264.516339 
L 425.558966 268.741304 
L 426.776664 274.172397 
L 428.400262 280.365853 
L 429.41501 284.24023 
L 430.023859 286.71758 
L 431.241557 290.554192 
L 432.459255 294.395823 
L 432.865155 295.619252 
L 433.271054 296.513257 
L 434.082853 298.601445 
L 435.9094 302.357586 
L 437.938897 305.639868 
L 439.765444 307.099642 
L 440.374293 307.384969 
L 441.389041 307.309957 
L 441.591991 307.439711 
L 442.20084 307.234758 
L 443.215589 307.020824 
L 443.824438 306.533385 
L 444.027387 306.477424 
L 444.433287 306.144182 
L 444.636236 305.768463 
L 444.839186 305.773315 
L 445.042136 305.465309 
L 445.245085 305.370539 
L 445.853934 304.552758 
L 447.274582 302.473919 
L 448.49228 300.371509 
L 450.521777 295.450037 
L 453.566022 286.502019 
L 454.98667 281.125368 
L 455.392569 279.749784 
L 456.001418 277.34452 
L 456.407318 275.838692 
L 457.219117 272.467042 
L 461.48106 252.737785 
L 466.960701 222.624515 
L 474.875739 174.606968 
L 477.311135 159.59226 
L 479.543581 146.206328 
L 480.55833 140.212123 
L 481.573078 134.565987 
L 486.240921 109.152297 
L 487.255669 104.196391 
L 488.473367 98.391327 
L 492.126462 82.686177 
L 494.358908 74.63882 
L 495.170707 72.21145 
L 496.591355 68.019074 
L 498.823801 62.702811 
L 500.041499 60.766097 
L 500.447399 60.21462 
L 501.056248 59.305212 
L 501.259197 59.186562 
L 501.665097 58.481061 
L 501.868046 58.302751 
L 502.273946 57.72562 
L 502.882795 57.207473 
L 503.085744 57.193643 
L 503.288694 57.032953 
L 503.491644 57.068471 
L 503.897543 56.880112 
L 504.303443 56.380087 
L 504.709342 56.391282 
L 506.535889 56.283539 
L 506.941788 56.731871 
L 507.550637 56.909797 
L 508.362436 57.822664 
L 508.971285 58.224177 
L 510.797832 60.336932 
L 512.827329 64.567672 
L 513.233228 65.636042 
L 513.639128 66.275024 
L 515.465675 70.847506 
L 516.683373 74.501201 
L 517.495172 77.253315 
L 519.118769 83.628872 
L 520.133518 87.672586 
L 521.351216 92.892442 
L 523.786612 104.180595 
L 524.80136 108.949369 
L 525.816109 114.235009 
L 526.830857 119.474002 
L 528.048555 126.125524 
L 529.469203 134.470281 
L 531.29575 145.285409 
L 533.934096 161.419738 
L 535.557693 171.152882 
L 538.804888 191.57025 
L 539.819637 198.093403 
L 546.516976 238.276216 
L 548.140574 246.942274 
L 549.358272 253.388755 
L 550.981869 261.161968 
L 552.402517 267.593259 
L 553.417265 272.024523 
L 554.634963 277.109928 
L 557.476259 287.359385 
L 558.896907 291.938902 
L 560.317554 295.874854 
L 560.926403 297.420319 
L 561.535253 298.999629 
L 562.347051 300.993736 
L 562.752951 301.75463 
L 564.173598 304.157668 
L 564.579498 304.461727 
L 564.985397 305.099799 
L 566.406045 306.548638 
L 566.811944 306.800539 
L 568.232592 307.692356 
L 568.638491 307.683653 
L 568.841441 307.8 
L 569.45029 307.648704 
L 569.65324 307.788707 
L 570.465038 307.38359 
L 571.073888 306.991036 
L 571.479787 306.719851 
L 571.682737 306.437286 
L 571.885686 306.401691 
L 572.900435 305.433825 
L 573.306334 305.061294 
L 573.915183 304.115428 
L 575.74173 300.833141 
L 575.94468 300.58996 
L 579.191875 292.336848 
L 579.597774 290.962276 
L 580.206623 289.283522 
L 580.815472 287.278427 
L 581.221372 285.894783 
L 583.250868 278.14961 
L 584.265617 273.878633 
L 586.903963 261.732648 
L 587.512812 259.073559 
L 588.933459 251.896223 
L 589.948208 246.72151 
L 591.368856 238.976931 
L 594.007201 224.091405 
L 595.630799 214.67513 
L 598.066195 199.744093 
L 600.298642 185.926453 
L 603.951736 163.61615 
L 604.763535 158.902529 
L 606.995981 145.956752 
L 611.866773 119.177581 
L 615.722817 99.741942 
L 617.752314 90.837246 
L 621.202459 77.556229 
L 624.855553 66.509981 
L 627.087999 61.680226 
L 627.899798 60.382472 
L 628.305698 59.872865 
L 630.538144 57.255147 
L 630.944043 56.880603 
L 631.755842 56.316762 
L 632.161741 56.281438 
L 632.364691 56.314735 
L 632.567641 56.214059 
L 634.394188 56.719356 
L 634.597138 56.871489 
L 634.800087 56.813321 
L 636.220735 57.667089 
L 636.829584 58.47206 
L 637.032534 58.550505 
L 638.250232 60.059318 
L 639.062031 61.604583 
L 639.873829 63.330446 
L 640.076779 63.652989 
L 640.482678 64.63971 
L 640.685628 64.912604 
L 642.309225 68.95982 
L 643.323974 71.849772 
L 645.96232 80.701487 
L 646.571169 83.080138 
L 646.977068 84.504044 
L 651.239011 102.882415 
L 654.283257 118.820241 
L 655.906854 127.9126 
L 660.574697 155.505174 
L 661.995345 164.397867 
L 663.213043 171.565743 
L 665.242539 184.30633 
L 666.054338 189.329609 
L 670.722181 218.233763 
L 672.548728 228.593829 
L 674.781174 241.158807 
L 676.607722 251.073725 
L 679.651967 266.02289 
L 683.102111 280.707968 
L 684.522759 285.814864 
L 685.943407 290.414816 
L 686.349306 291.331058 
L 688.581753 297.608402 
L 689.596501 299.725769 
L 690.4083 301.352406 
L 692.640746 304.90554 
L 693.452545 306.138071 
L 693.858444 306.295085 
L 694.467293 306.708936 
L 694.873193 306.911405 
L 695.279092 307.053599 
L 695.684992 307.027039 
L 696.49679 307.366217 
L 697.105639 307.300463 
L 698.120388 307.032684 
L 698.323337 306.84242 
L 698.526287 306.856433 
L 698.932186 306.510243 
L 699.338086 306.229004 
L 700.555784 304.975069 
L 700.758734 304.893399 
L 702.179381 303.081956 
L 704.005928 299.778998 
L 705.629526 295.874865 
L 709.28262 284.567295 
L 713.341614 268.044063 
L 716.994708 250.839215 
L 718.212406 244.549033 
L 722.474349 220.478372 
L 730.592337 172.586669 
L 732.012984 164.102589 
L 733.839532 153.181809 
L 737.086726 133.760786 
L 739.319173 121.065454 
L 740.333921 115.747388 
L 741.551619 109.530446 
L 743.987016 97.685213 
L 745.610613 89.918378 
L 746.422412 87.017045 
L 748.654858 78.612459 
L 749.466657 75.683579 
L 749.872556 74.36087 
L 750.684355 71.759125 
L 752.916802 66.019074 
L 753.93155 63.734871 
L 754.337449 62.895798 
L 755.758097 60.014943 
L 756.569896 58.864564 
L 756.772845 58.745435 
L 757.787594 57.439839 
L 759.208242 56.605859 
L 759.411191 56.599526 
L 759.817091 56.282358 
L 760.02004 56.287205 
L 760.22299 56.426023 
L 760.42594 56.38709 
L 760.831839 56.63666 
L 761.440688 56.454241 
L 762.049537 56.653226 
L 763.064286 57.038323 
L 764.484933 57.993353 
L 766.71738 60.843226 
L 768.138028 63.452113 
L 768.746877 64.694459 
L 771.588172 72.098503 
L 772.602921 75.347862 
L 773.617669 78.633313 
L 774.835367 82.895518 
L 778.894361 100.299446 
L 780.112059 106.68395 
L 783.156304 122.153136 
L 785.185801 133.533844 
L 786.809398 143.130708 
L 793.709687 185.437825 
L 797.362782 207.701679 
L 805.683719 254.817929 
L 806.089618 256.685626 
L 806.901417 260.956389 
L 811.569259 280.979418 
L 812.989907 285.979148 
L 815.019404 292.394882 
L 815.425303 293.226267 
L 817.4548 298.612015 
L 818.875448 301.487103 
L 820.904945 304.7441 
L 821.310844 305.335917 
L 821.919693 306.151624 
L 823.137391 306.873711 
L 823.54329 307.308884 
L 824.15214 307.2326 
L 824.963938 307.559424 
L 826.993435 307.008485 
L 827.196385 306.765134 
L 827.399334 306.701049 
L 827.805234 306.21739 
L 828.414083 305.563861 
L 829.428831 304.423193 
L 829.631781 304.045707 
L 829.834731 303.987905 
L 830.03768 303.80282 
L 831.052429 302.016148 
L 832.473076 299.461864 
L 832.878976 298.600013 
L 835.314372 292.048958 
L 837.343869 285.506051 
L 840.388114 273.398507 
L 842.417611 264.712485 
L 843.635309 258.931958 
L 844.244158 255.805914 
L 850.738548 219.620924 
L 853.376894 203.792172 
L 854.188692 198.897534 
L 856.218189 186.356383 
L 857.029988 181.575822 
L 859.871283 163.456559 
L 861.90078 151.540202 
L 863.524378 141.810118 
L 864.945025 133.875828 
L 865.756824 129.279207 
L 870.018767 107.143765 
L 873.671862 89.980005 
L 877.122006 76.697403 
L 878.948553 71.113691 
L 879.354453 70.123454 
L 879.760352 68.975348 
L 880.166251 67.970352 
L 881.789849 63.826376 
L 884.225245 59.403983 
L 885.848842 57.512703 
L 886.254742 57.260403 
L 887.67539 56.165097 
L 888.081289 56.044032 
L 888.487188 55.993325 
L 888.690138 55.931771 
L 888.893088 56.006619 
L 889.298987 55.984272 
L 889.501937 56.062919 
L 889.907836 56.059001 
L 890.922585 56.460974 
L 892.546182 57.956671 
L 893.155031 58.789453 
L 893.96683 59.947275 
L 894.778628 61.307279 
L 895.996327 63.71292 
L 896.808125 65.55552 
L 897.822874 67.78656 
L 899.243521 71.797137 
L 900.46122 75.724481 
L 902.896616 84.361736 
L 903.911364 88.418532 
L 905.332012 94.509835 
L 906.955609 102.385005 
L 908.579207 110.443009 
L 910.608704 120.990911 
L 912.029351 128.628966 
L 916.494244 154.511144 
L 917.914892 163.704181 
L 918.726691 168.356118 
L 920.756188 180.525478 
L 921.973886 187.838418 
L 923.800433 199.286068 
L 925.82993 212.000098 
L 927.047628 218.779653 
L 931.106621 242.24575 
L 934.556766 260.507626 
L 936.180363 267.636526 
L 937.803961 274.55121 
L 939.833458 282.674097 
L 940.848206 286.011238 
L 941.457055 288.173332 
L 942.065904 290.080856 
L 945.110149 298.531743 
L 945.313099 298.879168 
L 945.921948 300.413125 
L 946.327847 300.959996 
L 946.936696 302.112509 
L 947.139646 302.243157 
L 947.951445 303.677742 
L 948.154395 303.944383 
L 948.357344 304.467125 
L 948.763244 304.756908 
L 949.372093 305.481845 
L 950.79274 306.641036 
L 952.619287 307.463718 
L 952.822237 307.411977 
L 953.228137 307.60177 
L 954.039935 307.50364 
L 954.445835 307.136762 
L 954.648784 307.013337 
L 955.054684 306.970339 
L 955.460583 306.471076 
L 955.866482 306.130305 
L 956.272382 305.685466 
L 957.08418 304.570771 
L 957.49008 304.200534 
L 957.895979 303.681187 
L 958.301879 303.140662 
L 958.910728 302.081819 
L 961.346124 296.62292 
L 964.390369 287.564088 
L 969.058212 270.092327 
L 971.696557 257.131124 
L 972.305407 254.197143 
L 973.523105 247.830676 
L 974.537853 242.448025 
L 981.641092 201.376701 
L 983.873538 187.695157 
L 992.600375 134.294798 
L 993.412173 129.596284 
L 994.629871 122.649384 
L 998.282966 103.147956 
L 1000.109513 94.160415 
L 1001.530161 88.190739 
L 1002.950808 82.567799 
L 1004.371456 77.267517 
L 1005.386205 74.07061 
L 1006.603903 70.355269 
L 1008.633399 64.929616 
L 1012.286494 58.640487 
L 1014.72189 56.392958 
L 1015.127789 56.336261 
L 1016.142538 56.385304 
L 1016.345487 56.249228 
L 1016.548437 56.389521 
L 1016.954336 56.338057 
L 1017.360236 56.503526 
L 1017.563185 56.429801 
L 1018.577934 56.849729 
L 1018.983833 57.320289 
L 1019.592682 57.907852 
L 1020.201531 58.614616 
L 1020.404481 59.026909 
L 1020.607431 59.168525 
L 1020.81038 59.45255 
L 1021.01333 59.530066 
L 1021.419229 60.200821 
L 1021.825129 60.972791 
L 1022.433978 62.27865 
L 1023.042827 63.318147 
L 1023.245776 63.613502 
L 1023.854625 65.099879 
L 1024.057575 65.392147 
L 1025.478223 69.296697 
L 1028.116569 77.439484 
L 1029.537217 82.710111 
L 1031.160814 89.426877 
L 1036.437506 114.262317 
L 1039.88765 132.92703 
L 1045.164342 164.277896 
L 1051.861681 205.963589 
L 1058.356071 243.739191 
L 1060.588518 255.104553 
L 1062.009165 262.063111 
L 1064.444562 273.286513 
L 1065.25636 276.409436 
L 1067.082907 283.568909 
L 1071.344851 296.584978 
L 1071.75075 297.515114 
L 1072.15665 298.45529 
L 1072.968448 300.277588 
L 1073.374348 300.976075 
L 1074.389096 303.002722 
L 1074.794995 303.763449 
L 1074.997945 303.918233 
L 1075.200895 304.351577 
L 1075.809744 304.805437 
L 1076.824492 306.033471 
L 1078.651039 307.334601 
L 1079.056939 307.329153 
L 1079.259888 307.234091 
L 1079.868737 307.479502 
L 1080.071687 307.351308 
L 1080.477586 307.391541 
L 1081.086435 307.127286 
L 1081.898234 306.731825 
L 1082.101184 306.702828 
L 1082.304134 306.374118 
L 1082.507083 306.265732 
L 1083.115932 305.437133 
L 1083.521832 305.142384 
L 1084.53658 303.737408 
L 1084.73953 303.65666 
L 1085.754278 302.095152 
L 1086.769027 300.250244 
L 1087.174926 299.245772 
L 1088.392624 296.873067 
L 1090.422121 291.340773 
L 1092.654567 283.716853 
L 1097.32241 264.422231 
L 1098.134209 260.763032 
L 1099.148957 256.065741 
L 1102.193202 240.219028 
L 1104.628598 226.422498 
L 1106.455146 215.660566 
L 1107.672844 208.386932 
L 1114.573133 166.176338 
L 1117.211479 150.654978 
L 1118.023277 145.516214 
L 1119.646875 135.859899 
L 1121.067523 127.879583 
L 1126.750114 98.169174 
L 1128.373711 91.106154 
L 1129.591409 86.104806 
L 1130.200258 83.563114 
L 1132.432705 75.8025 
L 1133.244503 73.327633 
L 1133.853352 71.169683 
L 1135.071051 67.940054 
L 1135.6799 66.613335 
L 1136.085799 65.459987 
L 1137.506447 62.205472 
L 1138.115296 61.273567 
L 1138.521195 60.693753 
L 1138.927095 60.177036 
L 1139.332994 59.549234 
L 1139.535944 59.538986 
L 1140.347742 58.546602 
L 1141.97134 57.361226 
L 1142.377239 57.113579 
L 1142.580189 57.064753 
L 1142.783138 56.808142 
L 1143.391987 56.694474 
L 1143.797887 56.368486 
L 1144.406736 56.209308 
L 1144.812635 56.368794 
L 1145.015585 56.680246 
L 1145.624434 56.939639 
L 1146.030333 57.255167 
L 1146.233283 57.140457 
L 1147.045082 57.902664 
L 1147.653931 58.635539 
L 1148.871629 59.934466 
L 1149.074579 60.433778 
L 1149.480478 60.932552 
L 1151.104075 63.983973 
L 1151.915874 65.8563 
L 1152.321773 66.926352 
L 1153.133572 68.666165 
L 1155.163069 74.823338 
L 1155.771918 76.966098 
L 1156.380767 79.01555 
L 1158.816163 88.590356 
L 1160.236811 94.710172 
L 1163.686956 110.964524 
L 1165.919402 122.882627 
L 1166.528251 126.282188 
L 1167.948899 134.261878 
L 1169.369547 142.733589 
L 1169.978396 146.315689 
L 1171.601993 156.260879 
L 1172.819691 163.599491 
L 1174.443289 173.771588 
L 1180.328829 209.651063 
L 1181.140628 214.500291 
L 1183.981924 230.852191 
L 1189.867464 261.832339 
L 1190.679263 265.265721 
L 1193.317609 276.680242 
L 1195.144156 283.785593 
L 1196.564804 288.540256 
L 1197.173653 290.469745 
L 1197.782502 292.532549 
L 1199.811999 297.86298 
L 1201.841496 302.404129 
L 1202.653294 304.131986 
L 1203.262143 304.788775 
L 1203.668043 305.258555 
L 1205.900489 307.107284 
L 1206.509338 307.331539 
L 1206.712288 307.239558 
L 1207.929986 307.449701 
L 1208.944734 307.216712 
L 1209.553583 306.776024 
L 1209.959483 306.675161 
L 1210.365382 306.35456 
L 1210.771282 306.089395 
L 1211.98898 304.854063 
L 1212.394879 304.296424 
L 1212.597829 304.173238 
L 1213.409627 302.76029 
L 1214.018476 301.609548 
L 1215.033225 299.671446 
L 1216.656822 295.551168 
L 1217.671571 292.59029 
L 1218.483369 290.403155 
L 1219.295168 287.841887 
L 1219.701067 286.668341 
L 1222.542363 275.986557 
L 1224.16596 269.001705 
L 1225.789558 261.577173 
L 1227.616105 252.337095 
L 1228.630853 246.909306 
L 1229.442652 242.588438 
L 1232.283948 226.4901 
L 1233.298696 220.538732 
L 1234.719344 211.82944 
L 1237.15474 197.349647 
L 1238.169488 191.145461 
L 1241.213734 172.575766 
L 1245.272727 148.166569 
L 1245.272727 148.166569 
" clip-path="url(#p832834b250)" style="fill: none; stroke: #b8860b; stroke-width: 1.5; stroke-linecap: square"/>
   </g>
   <g id="patch_3">
    <path d="M 180 320.4 
L 180 43.2 
" style="fill: none; stroke: #000000; stroke-width: 0.8; stroke-linejoin: miter; stroke-linecap: square"/>
   </g>
   <g id="patch_4">
    <path d="M 1296 320.4 
L 1296 43.2 
" style="fill: none; stroke: #000000; stroke-width: 0.8; stroke-linejoin: miter; stroke-linecap: square"/>
   </g>
   <g id="patch_5">
    <path d="M 180 320.4 
L 1296 320.4 
" style="fill: none; stroke: #000000; stroke-width: 0.8; stroke-linejoin: miter; stroke-linecap: square"/>
   </g>
   <g id="patch_6">
    <path d="M 180 43.2 
L 1296 43.2 
" style="fill: none; stroke: #000000; stroke-width: 0.8; stroke-linejoin: miter; stroke-linecap: square"/>
   </g>
   <g id="text_14">
    <!-- 2.490353237027808 [-1.4287169  -0.75982331] -->
    <g transform="translate(591.57 37.2) scale(0.12 -0.12)">
     <defs>
      <path id="DejaVuSans-39" d="M 703 97 
L 703 672 
Q 941 559 1184 500 
Q 1428 441 1663 441 
Q 2288 441 2617 861 
Q 2947 1281 2994 2138 
Q 2813 1869 2534 1725 
Q 2256 1581 1919 1581 
Q 1219 1581 811 2004 
Q 403 2428 403 3163 
Q 403 3881 828 4315 
Q 1253 4750 1959 4750 
Q 2769 4750 3195 4129 
Q 3622 3509 3622 2328 
Q 3622 1225 3098 567 
Q 2575 -91 1691 -91 
Q 1453 -91 1209 -44 
Q 966 3 703 97 
z
M 1959 2075 
Q 2384 2075 2632 2365 
Q 2881 2656 2881 3163 
Q 2881 3666 2632 3958 
Q 2384 4250 1959 4250 
Q 1534 4250 1286 3958 
Q 1038 3666 1038 3163 
Q 1038 2656 1286 2365 
Q 1534 2075 1959 2075 
z
" transform="scale(0.015625)"/>
      <path id="DejaVuSans-37" d="M 525 4666 
L 3525 4666 
L 3525 4397 
L 1831 0 
L 1172 0 
L 2766 4134 
L 525 4134 
L 525 4666 
z
" transform="scale(0.015625)"/>
      <path id="DejaVuSans-38" d="M 2034 2216 
Q 1584 2216 1326 1975 
Q 1069 1734 1069 1313 
Q 1069 891 1326 650 
Q 1584 409 2034 409 
Q 2484 409 2743 651 
Q 3003 894 3003 1313 
Q 3003 1734 2745 1975 
Q 2488 2216 2034 2216 
z
M 1403 2484 
Q 997 2584 770 2862 
Q 544 3141 544 3541 
Q 544 4100 942 4425 
Q 1341 4750 2034 4750 
Q 2731 4750 3128 4425 
Q 3525 4100 3525 3541 
Q 3525 3141 3298 2862 
Q 3072 2584 2669 2484 
Q 3125 2378 3379 2068 
Q 3634 1759 3634 1313 
Q 3634 634 3220 271 
Q 2806 -91 2034 -91 
Q 1263 -91 848 271 
Q 434 634 434 1313 
Q 434 1759 690 2068 
Q 947 2378 1403 2484 
z
M 1172 3481 
Q 1172 3119 1398 2916 
Q 1625 2713 2034 2713 
Q 2441 2713 2670 2916 
Q 2900 3119 2900 3481 
Q 2900 3844 2670 4047 
Q 2441 4250 2034 4250 
Q 1625 4250 1398 4047 
Q 1172 3844 1172 3481 
z
" transform="scale(0.015625)"/>
      <path id="DejaVuSans-20" transform="scale(0.015625)"/>
      <path id="DejaVuSans-5b" d="M 550 4863 
L 1875 4863 
L 1875 4416 
L 1125 4416 
L 1125 -397 
L 1875 -397 
L 1875 -844 
L 550 -844 
L 550 4863 
z
" transform="scale(0.015625)"/>
      <path id="DejaVuSans-2d" d="M 313 2009 
L 1997 2009 
L 1997 1497 
L 313 1497 
L 313 2009 
z
" transform="scale(0.015625)"/>
      <path id="DejaVuSans-36" d="M 2113 2584 
Q 1688 2584 1439 2293 
Q 1191 2003 1191 1497 
Q 1191 994 1439 701 
Q 1688 409 2113 409 
Q 2538 409 2786 701 
Q 3034 994 3034 1497 
Q 3034 2003 2786 2293 
Q 2538 2584 2113 2584 
z
M 3366 4563 
L 3366 3988 
Q 3128 4100 2886 4159 
Q 2644 4219 2406 4219 
Q 1781 4219 1451 3797 
Q 1122 3375 1075 2522 
Q 1259 2794 1537 2939 
Q 1816 3084 2150 3084 
Q 2853 3084 3261 2657 
Q 3669 2231 3669 1497 
Q 3669 778 3244 343 
Q 2819 -91 2113 -91 
Q 1303 -91 875 529 
Q 447 1150 447 2328 
Q 447 3434 972 4092 
Q 1497 4750 2381 4750 
Q 2619 4750 2861 4703 
Q 3103 4656 3366 4563 
z
" transform="scale(0.015625)"/>
      <path id="DejaVuSans-5d" d="M 1947 4863 
L 1947 -844 
L 622 -844 
L 622 -397 
L 1369 -397 
L 1369 4416 
L 622 4416 
L 622 4863 
L 1947 4863 
z
" transform="scale(0.015625)"/>
     </defs>
     <use xlink:href="#DejaVuSans-32"/>
     <use xlink:href="#DejaVuSans-2e" x="63.623047"/>
     <use xlink:href="#DejaVuSans-34" x="95.410156"/>
     <use xlink:href="#DejaVuSans-39" x="159.033203"/>
     <use xlink:href="#DejaVuSans-30" x="222.65625"/>
     <use xlink:href="#DejaVuSans-33" x="286.279297"/>
     <use xlink:href="#DejaVuSans-35" x="349.902344"/>
     <use xlink:href="#DejaVuSans-33" x="413.525391"/>
     <use xlink:href="#DejaVuSans-32" x="477.148438"/>
     <use xlink:href="#DejaVuSans-33" x="540.771484"/>
     <use xlink:href="#DejaVuSans-37" x="604.394531"/>
     <use xlink:href="#DejaVuSans-30" x="668.017578"/>
     <use xlink:href="#DejaVuSans-32" x="731.640625"/>
     <use xlink:href="#DejaVuSans-37" x="795.263672"/>
     <use xlink:href="#DejaVuSans-38" x="858.886719"/>
     <use xlink:href="#DejaVuSans-30" x="922.509766"/>
     <use xlink:href="#DejaVuSans-38" x="986.132812"/>
     <use xlink:href="#DejaVuSans-20" x="1049.755859"/>
     <use xlink:href="#DejaVuSans-5b" x="1081.542969"/>
     <use xlink:href="#DejaVuSans-2d" x="1120.556641"/>
     <use xlink:href="#DejaVuSans-31" x="1156.640625"/>
     <use xlink:href="#DejaVuSans-2e" x="1220.263672"/>
     <use xlink:href="#DejaVuSans-34" x="1252.050781"/>
     <use xlink:href="#DejaVuSans-32" x="1315.673828"/>
     <use xlink:href="#DejaVuSans-38" x="1379.296875"/>
     <use xlink:href="#DejaVuSans-37" x="1442.919922"/>
     <use xlink:href="#DejaVuSans-31" x="1506.542969"/>
     <use xlink:href="#DejaVuSans-36" x="1570.166016"/>
     <use xlink:href="#DejaVuSans-39" x="1633.789062"/>
     <use xlink:href="#DejaVuSans-20" x="1697.412109"/>
     <use xlink:href="#DejaVuSans-20" x="1729.199219"/>
     <use xlink:href="#DejaVuSans-2d" x="1760.986328"/>
     <use xlink:href="#DejaVuSans-30" x="1797.070312"/>
     <use xlink:href="#DejaVuSans-2e" x="1860.693359"/>
     <use xlink:href="#DejaVuSans-37" x="1892.480469"/>
     <use xlink:href="#DejaVuSans-35" x="1956.103516"/>
     <use xlink:href="#DejaVuSans-39" x="2019.726562"/>
     <use xlink:href="#DejaVuSans-38" x="2083.349609"/>
     <use xlink:href="#DejaVuSans-32" x="2146.972656"/>
     <use xlink:href="#DejaVuSans-33" x="2210.595703"/>
     <use xlink:href="#DejaVuSans-33" x="2274.21875"/>
     <use xlink:href="#DejaVuSans-31" x="2337.841797"/>
     <use xlink:href="#DejaVuSans-5d" x="2401.464844"/>
    </g>
   </g>
  </g>
 </g>
 <defs>
  <clipPath id="p832834b250">
   <rect x="180" y="43.2" width="1116" height="277.2"/>
  </clipPath>
 </defs>
</svg>
