<?xml version="1.0" encoding="utf-8" standalone="no"?>
<!DOCTYPE svg PUBLIC "-//W3C//DTD SVG 1.1//EN"
  "http://www.w3.org/Graphics/SVG/1.1/DTD/svg11.dtd">
<svg xmlns:xlink="http://www.w3.org/1999/xlink" width="1440pt" height="360pt" viewBox="0 0 1440 360" xmlns="http://www.w3.org/2000/svg" version="1.1">
 <metadata>
  <rdf:RDF xmlns:dc="http://purl.org/dc/elements/1.1/" xmlns:cc="http://creativecommons.org/ns#" xmlns:rdf="http://www.w3.org/1999/02/22-rdf-syntax-ns#">
   <cc:Work>
    <dc:type rdf:resource="http://purl.org/dc/dcmitype/StillImage"/>
    <dc:date>2023-01-14T11:01:23.203146</dc:date>
    <dc:format>image/svg+xml</dc:format>
    <dc:creator>
     <cc:Agent>
      <dc:title>Matplotlib v3.6.2, https://matplotlib.org/</dc:title>
     </cc:Agent>
    </dc:creator>
   </cc:Work>
  </rdf:RDF>
 </metadata>
 <defs>
  <style type="text/css">*{stroke-linejoin: round; stroke-linecap: butt}</style>
 </defs>
 <g id="figure_1">
  <g id="patch_1">
   <path d="M 0 360 
L 1440 360 
L 1440 0 
L 0 0 
z
" style="fill: #ffffff"/>
  </g>
  <g id="axes_1">
   <g id="patch_2">
    <path d="M 180 320.4 
L 1296 320.4 
L 1296 43.2 
L 180 43.2 
z
" style="fill: #ffffff"/>
   </g>
   <g id="PolyCollection_1"/>
   <g id="matplotlib.axis_1">
    <g id="xtick_1">
     <g id="line2d_1">
      <defs>
       <path id="m2d27da9ef8" d="M 0 0 
L 0 3.5 
" style="stroke: #000000; stroke-width: 0.8"/>
      </defs>
      <g>
       <use xlink:href="#m2d27da9ef8" x="230.727273" y="320.4" style="stroke: #000000; stroke-width: 0.8"/>
      </g>
     </g>
     <g id="text_1">
      <!-- 0 -->
      <g transform="translate(227.546023 334.998438) scale(0.1 -0.1)">
       <defs>
        <path id="DejaVuSans-30" d="M 2034 4250 
Q 1547 4250 1301 3770 
Q 1056 3291 1056 2328 
Q 1056 1369 1301 889 
Q 1547 409 2034 409 
Q 2525 409 2770 889 
Q 3016 1369 3016 2328 
Q 3016 3291 2770 3770 
Q 2525 4250 2034 4250 
z
M 2034 4750 
Q 2819 4750 3233 4129 
Q 3647 3509 3647 2328 
Q 3647 1150 3233 529 
Q 2819 -91 2034 -91 
Q 1250 -91 836 529 
Q 422 1150 422 2328 
Q 422 3509 836 4129 
Q 1250 4750 2034 4750 
z
" transform="scale(0.015625)"/>
       </defs>
       <use xlink:href="#DejaVuSans-30"/>
      </g>
     </g>
    </g>
    <g id="xtick_2">
     <g id="line2d_2">
      <g>
       <use xlink:href="#m2d27da9ef8" x="433.676954" y="320.4" style="stroke: #000000; stroke-width: 0.8"/>
      </g>
     </g>
     <g id="text_2">
      <!-- 1000 -->
      <g transform="translate(420.951954 334.998438) scale(0.1 -0.1)">
       <defs>
        <path id="DejaVuSans-31" d="M 794 531 
L 1825 531 
L 1825 4091 
L 703 3866 
L 703 4441 
L 1819 4666 
L 2450 4666 
L 2450 531 
L 3481 531 
L 3481 0 
L 794 0 
L 794 531 
z
" transform="scale(0.015625)"/>
       </defs>
       <use xlink:href="#DejaVuSans-31"/>
       <use xlink:href="#DejaVuSans-30" x="63.623047"/>
       <use xlink:href="#DejaVuSans-30" x="127.246094"/>
       <use xlink:href="#DejaVuSans-30" x="190.869141"/>
      </g>
     </g>
    </g>
    <g id="xtick_3">
     <g id="line2d_3">
      <g>
       <use xlink:href="#m2d27da9ef8" x="636.626634" y="320.4" style="stroke: #000000; stroke-width: 0.8"/>
      </g>
     </g>
     <g id="text_3">
      <!-- 2000 -->
      <g transform="translate(623.901634 334.998438) scale(0.1 -0.1)">
       <defs>
        <path id="DejaVuSans-32" d="M 1228 531 
L 3431 531 
L 3431 0 
L 469 0 
L 469 531 
Q 828 903 1448 1529 
Q 2069 2156 2228 2338 
Q 2531 2678 2651 2914 
Q 2772 3150 2772 3378 
Q 2772 3750 2511 3984 
Q 2250 4219 1831 4219 
Q 1534 4219 1204 4116 
Q 875 4013 500 3803 
L 500 4441 
Q 881 4594 1212 4672 
Q 1544 4750 1819 4750 
Q 2544 4750 2975 4387 
Q 3406 4025 3406 3419 
Q 3406 3131 3298 2873 
Q 3191 2616 2906 2266 
Q 2828 2175 2409 1742 
Q 1991 1309 1228 531 
z
" transform="scale(0.015625)"/>
       </defs>
       <use xlink:href="#DejaVuSans-32"/>
       <use xlink:href="#DejaVuSans-30" x="63.623047"/>
       <use xlink:href="#DejaVuSans-30" x="127.246094"/>
       <use xlink:href="#DejaVuSans-30" x="190.869141"/>
      </g>
     </g>
    </g>
    <g id="xtick_4">
     <g id="line2d_4">
      <g>
       <use xlink:href="#m2d27da9ef8" x="839.576315" y="320.4" style="stroke: #000000; stroke-width: 0.8"/>
      </g>
     </g>
     <g id="text_4">
      <!-- 3000 -->
      <g transform="translate(826.851315 334.998438) scale(0.1 -0.1)">
       <defs>
        <path id="DejaVuSans-33" d="M 2597 2516 
Q 3050 2419 3304 2112 
Q 3559 1806 3559 1356 
Q 3559 666 3084 287 
Q 2609 -91 1734 -91 
Q 1441 -91 1130 -33 
Q 819 25 488 141 
L 488 750 
Q 750 597 1062 519 
Q 1375 441 1716 441 
Q 2309 441 2620 675 
Q 2931 909 2931 1356 
Q 2931 1769 2642 2001 
Q 2353 2234 1838 2234 
L 1294 2234 
L 1294 2753 
L 1863 2753 
Q 2328 2753 2575 2939 
Q 2822 3125 2822 3475 
Q 2822 3834 2567 4026 
Q 2313 4219 1838 4219 
Q 1578 4219 1281 4162 
Q 984 4106 628 3988 
L 628 4550 
Q 988 4650 1302 4700 
Q 1616 4750 1894 4750 
Q 2613 4750 3031 4423 
Q 3450 4097 3450 3541 
Q 3450 3153 3228 2886 
Q 3006 2619 2597 2516 
z
" transform="scale(0.015625)"/>
       </defs>
       <use xlink:href="#DejaVuSans-33"/>
       <use xlink:href="#DejaVuSans-30" x="63.623047"/>
       <use xlink:href="#DejaVuSans-30" x="127.246094"/>
       <use xlink:href="#DejaVuSans-30" x="190.869141"/>
      </g>
     </g>
    </g>
    <g id="xtick_5">
     <g id="line2d_5">
      <g>
       <use xlink:href="#m2d27da9ef8" x="1042.525996" y="320.4" style="stroke: #000000; stroke-width: 0.8"/>
      </g>
     </g>
     <g id="text_5">
      <!-- 4000 -->
      <g transform="translate(1029.800996 334.998438) scale(0.1 -0.1)">
       <defs>
        <path id="DejaVuSans-34" d="M 2419 4116 
L 825 1625 
L 2419 1625 
L 2419 4116 
z
M 2253 4666 
L 3047 4666 
L 3047 1625 
L 3713 1625 
L 3713 1100 
L 3047 1100 
L 3047 0 
L 2419 0 
L 2419 1100 
L 313 1100 
L 313 1709 
L 2253 4666 
z
" transform="scale(0.015625)"/>
       </defs>
       <use xlink:href="#DejaVuSans-34"/>
       <use xlink:href="#DejaVuSans-30" x="63.623047"/>
       <use xlink:href="#DejaVuSans-30" x="127.246094"/>
       <use xlink:href="#DejaVuSans-30" x="190.869141"/>
      </g>
     </g>
    </g>
    <g id="xtick_6">
     <g id="line2d_6">
      <g>
       <use xlink:href="#m2d27da9ef8" x="1245.475677" y="320.4" style="stroke: #000000; stroke-width: 0.8"/>
      </g>
     </g>
     <g id="text_6">
      <!-- 5000 -->
      <g transform="translate(1232.750677 334.998438) scale(0.1 -0.1)">
       <defs>
        <path id="DejaVuSans-35" d="M 691 4666 
L 3169 4666 
L 3169 4134 
L 1269 4134 
L 1269 2991 
Q 1406 3038 1543 3061 
Q 1681 3084 1819 3084 
Q 2600 3084 3056 2656 
Q 3513 2228 3513 1497 
Q 3513 744 3044 326 
Q 2575 -91 1722 -91 
Q 1428 -91 1123 -41 
Q 819 9 494 109 
L 494 744 
Q 775 591 1075 516 
Q 1375 441 1709 441 
Q 2250 441 2565 725 
Q 2881 1009 2881 1497 
Q 2881 1984 2565 2268 
Q 2250 2553 1709 2553 
Q 1456 2553 1204 2497 
Q 953 2441 691 2322 
L 691 4666 
z
" transform="scale(0.015625)"/>
       </defs>
       <use xlink:href="#DejaVuSans-35"/>
       <use xlink:href="#DejaVuSans-30" x="63.623047"/>
       <use xlink:href="#DejaVuSans-30" x="127.246094"/>
       <use xlink:href="#DejaVuSans-30" x="190.869141"/>
      </g>
     </g>
    </g>
   </g>
   <g id="matplotlib.axis_2">
    <g id="ytick_1">
     <g id="line2d_7">
      <defs>
       <path id="m8c43bcce99" d="M 0 0 
L -3.5 0 
" style="stroke: #000000; stroke-width: 0.8"/>
      </defs>
      <g>
       <use xlink:href="#m8c43bcce99" x="180" y="276.634563" style="stroke: #000000; stroke-width: 0.8"/>
      </g>
     </g>
     <g id="text_7">
      <!-- −1.0 -->
      <g transform="translate(148.717187 280.433782) scale(0.1 -0.1)">
       <defs>
        <path id="DejaVuSans-2212" d="M 678 2272 
L 4684 2272 
L 4684 1741 
L 678 1741 
L 678 2272 
z
" transform="scale(0.015625)"/>
        <path id="DejaVuSans-2e" d="M 684 794 
L 1344 794 
L 1344 0 
L 684 0 
L 684 794 
z
" transform="scale(0.015625)"/>
       </defs>
       <use xlink:href="#DejaVuSans-2212"/>
       <use xlink:href="#DejaVuSans-31" x="83.789062"/>
       <use xlink:href="#DejaVuSans-2e" x="147.412109"/>
       <use xlink:href="#DejaVuSans-30" x="179.199219"/>
      </g>
     </g>
    </g>
    <g id="ytick_2">
     <g id="line2d_8">
      <g>
       <use xlink:href="#m8c43bcce99" x="180" y="229.073385" style="stroke: #000000; stroke-width: 0.8"/>
      </g>
     </g>
     <g id="text_8">
      <!-- −0.5 -->
      <g transform="translate(148.717187 232.872603) scale(0.1 -0.1)">
       <use xlink:href="#DejaVuSans-2212"/>
       <use xlink:href="#DejaVuSans-30" x="83.789062"/>
       <use xlink:href="#DejaVuSans-2e" x="147.412109"/>
       <use xlink:href="#DejaVuSans-35" x="179.199219"/>
      </g>
     </g>
    </g>
    <g id="ytick_3">
     <g id="line2d_9">
      <g>
       <use xlink:href="#m8c43bcce99" x="180" y="181.512206" style="stroke: #000000; stroke-width: 0.8"/>
      </g>
     </g>
     <g id="text_9">
      <!-- 0.0 -->
      <g transform="translate(157.096875 185.311425) scale(0.1 -0.1)">
       <use xlink:href="#DejaVuSans-30"/>
       <use xlink:href="#DejaVuSans-2e" x="63.623047"/>
       <use xlink:href="#DejaVuSans-30" x="95.410156"/>
      </g>
     </g>
    </g>
    <g id="ytick_4">
     <g id="line2d_10">
      <g>
       <use xlink:href="#m8c43bcce99" x="180" y="133.951027" style="stroke: #000000; stroke-width: 0.8"/>
      </g>
     </g>
     <g id="text_10">
      <!-- 0.5 -->
      <g transform="translate(157.096875 137.750246) scale(0.1 -0.1)">
       <use xlink:href="#DejaVuSans-30"/>
       <use xlink:href="#DejaVuSans-2e" x="63.623047"/>
       <use xlink:href="#DejaVuSans-35" x="95.410156"/>
      </g>
     </g>
    </g>
    <g id="ytick_5">
     <g id="line2d_11">
      <g>
       <use xlink:href="#m8c43bcce99" x="180" y="86.389848" style="stroke: #000000; stroke-width: 0.8"/>
      </g>
     </g>
     <g id="text_11">
      <!-- 1.0 -->
      <g transform="translate(157.096875 90.189067) scale(0.1 -0.1)">
       <use xlink:href="#DejaVuSans-31"/>
       <use xlink:href="#DejaVuSans-2e" x="63.623047"/>
       <use xlink:href="#DejaVuSans-30" x="95.410156"/>
      </g>
     </g>
    </g>
   </g>
   <g id="line2d_12">
    <path d="M 230.727273 103.758885 
L 231.742021 98.810675 
L 233.974468 89.248665 
L 234.786266 86.069888 
L 236.003964 81.210789 
L 238.236411 73.068741 
L 240.062958 67.614359 
L 241.077706 65.456705 
L 242.092455 63.085024 
L 245.33965 58.404737 
L 246.151448 57.514776 
L 246.557348 57.339204 
L 246.963247 56.82122 
L 247.572096 56.298999 
L 247.775046 56.35613 
L 247.977996 56.220651 
L 249.398643 56.372942 
L 249.804543 56.135443 
L 250.819291 56.751091 
L 251.022241 56.992574 
L 251.63109 57.208426 
L 252.036989 57.456141 
L 252.239939 57.467893 
L 252.645838 58.010685 
L 252.848788 58.074877 
L 253.660587 59.36001 
L 253.863536 59.331337 
L 254.269436 60.079535 
L 254.472385 60.201268 
L 255.690083 62.409548 
L 258.12548 68.763219 
L 259.140228 71.952672 
L 259.546127 73.171364 
L 260.966775 77.756488 
L 264.21397 90.46193 
L 267.461165 105.016613 
L 269.287712 114.320339 
L 273.143756 135.690418 
L 274.767353 145.204365 
L 275.376203 148.763233 
L 277.405699 160.90411 
L 278.420448 166.758434 
L 279.435196 173.421663 
L 280.449945 179.552277 
L 283.08829 195.86522 
L 283.900089 200.422278 
L 284.914838 206.486228 
L 285.523687 209.850794 
L 286.335485 214.604758 
L 288.973831 229.720077 
L 289.58268 233.439366 
L 290.800378 239.771506 
L 291.612177 244.078733 
L 294.250523 257.747347 
L 294.859372 260.653807 
L 295.671171 264.415855 
L 296.888869 270.183677 
L 297.497718 272.823003 
L 298.512466 277.114086 
L 299.730164 281.457697 
L 300.339013 283.952888 
L 301.962611 289.471126 
L 302.57146 291.333178 
L 303.180309 293.265279 
L 304.600957 296.827394 
L 306.224554 300.880565 
L 306.427504 301.108963 
L 307.442252 303.074391 
L 308.051101 303.913572 
L 308.254051 303.930679 
L 308.65995 304.377673 
L 308.8629 304.362385 
L 309.06585 304.719014 
L 309.268799 304.786289 
L 310.283548 305.998685 
L 310.689447 306.043099 
L 310.892397 306.355957 
L 311.298296 306.49838 
L 311.704195 306.705274 
L 312.110095 306.7401 
L 312.313044 306.689212 
L 312.718944 306.491461 
L 313.327793 306.971862 
L 313.733692 306.697575 
L 314.95139 306.828955 
L 315.15434 306.719905 
L 315.966139 305.71324 
L 316.169088 305.561718 
L 317.183837 303.862256 
L 317.792686 302.779213 
L 317.995635 302.725415 
L 318.401535 302.082134 
L 320.025132 299.259174 
L 322.460528 292.868336 
L 323.272327 290.564738 
L 323.678227 289.387668 
L 324.692975 286.190186 
L 325.504774 283.405506 
L 329.563767 267.07704 
L 330.375566 263.270981 
L 334.23161 244.361378 
L 339.711251 212.338351 
L 341.131899 203.514931 
L 341.740748 199.883299 
L 346.61154 170.365331 
L 348.641037 157.903219 
L 349.655786 152.026575 
L 354.120679 125.888433 
L 357.773773 106.600504 
L 358.788521 101.673339 
L 359.60032 97.781867 
L 360.615068 93.282248 
L 361.426867 89.889043 
L 364.268163 78.754273 
L 366.703559 70.431951 
L 368.530106 65.429078 
L 369.544854 63.323138 
L 371.777301 59.168932 
L 372.38615 58.285319 
L 373.400898 57.326024 
L 373.806798 56.833197 
L 374.415647 56.578613 
L 374.618596 56.637413 
L 375.024496 56.46372 
L 375.227445 56.539647 
L 375.430395 56.365236 
L 376.039244 56.512853 
L 376.648093 56.362842 
L 376.851043 56.549724 
L 377.865791 56.539817 
L 378.068741 56.688096 
L 378.88054 56.799028 
L 379.286439 57.183311 
L 379.489389 57.237114 
L 380.504137 58.274705 
L 380.910037 59.169364 
L 382.330684 61.329672 
L 383.548382 63.824029 
L 383.954282 64.642364 
L 387.201477 73.526515 
L 390.042772 83.547333 
L 391.26047 88.485628 
L 392.275219 92.63266 
L 396.740112 113.615837 
L 398.972558 126.156405 
L 400.799105 136.51122 
L 401.813854 142.158381 
L 413.179036 210.592189 
L 418.049828 238.400007 
L 418.861627 242.588423 
L 420.079325 248.99024 
L 424.341268 269.326184 
L 427.385513 281.808032 
L 429.009111 287.509964 
L 429.61796 289.519638 
L 431.038608 293.256818 
L 432.662205 297.54846 
L 433.068105 298.329412 
L 433.879903 300.274481 
L 434.285803 300.961291 
L 435.097601 302.128253 
L 435.70645 302.936847 
L 436.315299 304.026377 
L 436.924148 305.273924 
L 437.735947 306.035614 
L 437.938897 306.252579 
L 438.141847 306.154396 
L 438.547746 306.580683 
L 438.953645 306.630614 
L 439.156595 306.536548 
L 439.765444 306.750764 
L 439.968394 306.651861 
L 440.171343 306.817591 
L 440.374293 306.669423 
L 441.186092 306.611637 
L 441.389041 306.537298 
L 441.591991 306.607529 
L 441.99789 306.42407 
L 442.40379 306.521949 
L 442.60674 306.476292 
L 443.621488 305.676063 
L 443.824438 305.643815 
L 444.433287 305.023362 
L 445.448035 303.630799 
L 445.853934 302.996152 
L 446.259834 302.449507 
L 447.477532 300.335694 
L 448.69523 297.590044 
L 449.101129 296.350133 
L 452.348324 286.587151 
L 452.754224 285.106228 
L 453.160123 283.658293 
L 456.001418 271.868386 
L 459.654513 255.600075 
L 461.886959 243.375719 
L 462.495808 240.386998 
L 468.990198 202.953826 
L 475.687538 162.053213 
L 476.702286 155.990001 
L 479.949481 136.133521 
L 482.181927 123.685919 
L 483.805525 114.615014 
L 484.211424 112.619614 
L 485.632072 105.255267 
L 486.443871 101.343934 
L 487.255669 97.448846 
L 489.691065 87.213899 
L 490.096965 85.846989 
L 490.705814 83.266042 
L 491.923512 79.054043 
L 492.532361 76.928285 
L 493.953009 72.474294 
L 495.779556 67.599192 
L 496.591355 65.658764 
L 497.809053 62.695611 
L 498.620851 61.149049 
L 499.2297 60.146962 
L 499.6356 59.816165 
L 500.041499 59.362668 
L 500.447399 59.099329 
L 501.056248 58.380615 
L 501.462147 58.07584 
L 501.868046 57.467512 
L 502.882795 57.138133 
L 503.288694 56.905566 
L 503.491644 56.804852 
L 503.694593 56.965991 
L 504.709342 57.042671 
L 504.912292 57.195066 
L 505.115241 57.13604 
L 505.318191 57.268815 
L 505.72409 57.108515 
L 505.92704 57.053312 
L 506.12999 57.144997 
L 506.535889 57.135716 
L 506.941788 57.443538 
L 507.144738 57.784763 
L 507.550637 58.051915 
L 507.753587 58.148275 
L 508.159486 58.811963 
L 509.174235 59.843091 
L 509.783084 61.328927 
L 510.188983 61.718524 
L 510.594883 62.025874 
L 511.406681 63.53248 
L 514.653876 72.142926 
L 517.292222 80.899845 
L 520.945316 96.262893 
L 522.771863 104.584569 
L 527.033807 126.480274 
L 530.078052 144.062263 
L 532.310498 157.186239 
L 534.745895 172.432923 
L 535.557693 177.488614 
L 537.79014 190.66692 
L 544.28453 229.882469 
L 549.155322 256.177224 
L 551.184819 266.064375 
L 551.793668 268.842604 
L 552.605467 272.734367 
L 554.026114 278.772314 
L 556.46151 287.287951 
L 557.679209 291.303767 
L 558.288058 293.13079 
L 561.941152 302.139214 
L 562.550001 303.081667 
L 562.9559 303.526797 
L 563.15885 303.586813 
L 564.173598 304.645709 
L 564.782447 305.062967 
L 565.188347 305.577863 
L 565.391296 305.616623 
L 565.797196 305.94557 
L 566.000145 305.778967 
L 566.203095 305.897956 
L 567.014894 305.838945 
L 568.029642 306.262821 
L 569.65324 305.760062 
L 570.870938 304.860848 
L 571.073888 304.805517 
L 572.088636 303.581426 
L 572.291586 303.40289 
L 572.697485 302.81101 
L 572.900435 302.683935 
L 574.524032 299.927175 
L 576.14763 296.227297 
L 576.756479 294.373287 
L 577.974177 290.815513 
L 579.394824 286.299199 
L 579.800724 285.071414 
L 581.627271 278.620011 
L 582.43907 275.42308 
L 584.265617 268.044572 
L 586.092164 259.228223 
L 586.701013 256.128426 
L 587.512812 251.896493 
L 588.933459 244.199744 
L 589.948208 239.029683 
L 590.760007 234.389391 
L 591.977705 227.673074 
L 593.398352 219.330585 
L 594.413101 212.97698 
L 595.02195 209.215869 
L 597.051447 196.507939 
L 599.689793 179.623467 
L 600.298642 175.85851 
L 602.328138 163.506956 
L 603.342887 157.441359 
L 604.560585 150.147584 
L 605.981233 141.604648 
L 609.431377 121.521586 
L 615.113968 94.106928 
L 616.534616 88.498812 
L 617.143465 86.03179 
L 618.564113 80.538579 
L 622.014257 69.684428 
L 623.434905 65.915844 
L 623.840805 64.922862 
L 626.47915 59.769515 
L 627.899798 57.808609 
L 628.508647 57.326482 
L 628.711597 57.187435 
L 628.914547 56.822869 
L 630.335194 56.080133 
L 630.741094 56.191428 
L 630.944043 56.187793 
L 631.146993 56.376089 
L 631.349943 56.288323 
L 631.958792 56.512701 
L 632.77059 56.665459 
L 632.97354 56.865526 
L 633.17649 56.769752 
L 633.582389 57.005615 
L 633.988289 57.205362 
L 634.394188 57.665518 
L 634.800087 57.854627 
L 635.003037 58.147278 
L 635.408936 58.332173 
L 636.017785 59.234956 
L 636.626634 60.348414 
L 637.235483 61.680074 
L 638.453182 64.08563 
L 638.656131 64.797237 
L 639.062031 65.521985 
L 642.106276 73.218326 
L 642.918075 75.808512 
L 644.744622 82.360276 
L 645.150521 83.785424 
L 648.600666 99.243153 
L 649.615414 104.601344 
L 650.630162 109.645114 
L 653.674408 125.866033 
L 659.154049 157.987537 
L 671.33103 230.509422 
L 674.781174 249.413364 
L 675.795923 254.404378 
L 676.607722 258.461708 
L 677.62247 263.470658 
L 679.043118 270.182044 
L 680.057866 274.50638 
L 680.463765 276.012138 
L 681.681464 280.603638 
L 683.305061 286.125314 
L 684.11686 288.754162 
L 684.928658 291.172472 
L 685.740457 293.537436 
L 686.958155 296.742812 
L 687.972904 299.028171 
L 688.784702 300.519344 
L 689.190602 300.967001 
L 690.0024 302.766384 
L 691.220099 304.692571 
L 691.423048 304.847331 
L 691.828948 305.509201 
L 692.437797 306.078554 
L 692.843696 306.269331 
L 693.452545 306.539589 
L 693.655495 306.510832 
L 694.264344 306.971641 
L 694.670243 307.176151 
L 695.887941 306.591695 
L 696.293841 306.61679 
L 697.105639 306.319217 
L 697.511539 305.801354 
L 698.120388 305.561887 
L 700.149885 302.789498 
L 700.555784 301.982985 
L 701.164633 301.099725 
L 702.382331 298.696829 
L 702.99118 297.073967 
L 703.19413 296.672142 
L 704.005928 294.094462 
L 704.411828 293.174216 
L 707.659023 282.84332 
L 712.935714 260.887793 
L 716.791758 239.779102 
L 720.647802 217.756342 
L 724.300897 195.710061 
L 725.315645 189.581462 
L 727.953991 173.418435 
L 735.666079 126.764783 
L 741.754569 95.570756 
L 742.160468 93.703576 
L 742.769317 90.891335 
L 743.784066 87.024889 
L 744.798814 83.582604 
L 745.610613 80.670765 
L 746.422412 77.938899 
L 746.625361 77.405153 
L 747.031261 75.896523 
L 748.857808 70.354402 
L 750.481405 65.770748 
L 750.684355 65.417008 
L 751.090254 64.289686 
L 751.699103 63.24089 
L 752.307952 62.508285 
L 752.713852 61.74339 
L 753.119751 61.054744 
L 753.525651 60.390569 
L 753.93155 59.839328 
L 754.1345 59.692499 
L 754.946298 58.573831 
L 755.352198 58.282848 
L 755.758097 57.922495 
L 756.366946 57.561317 
L 756.772845 57.387044 
L 757.381695 56.95656 
L 757.584644 56.659057 
L 757.787594 56.616066 
L 757.990544 56.709236 
L 758.193493 56.585433 
L 758.396443 56.624201 
L 758.599393 56.340009 
L 758.802342 56.279009 
L 760.22299 56.851219 
L 760.628889 57.147639 
L 761.237738 57.408099 
L 762.455437 58.855839 
L 763.064286 59.825388 
L 763.470185 60.201261 
L 764.079034 60.877097 
L 765.093782 62.959966 
L 765.702631 64.285006 
L 766.31148 65.366732 
L 768.138028 70.142142 
L 771.994072 83.396331 
L 774.835367 95.071992 
L 775.241266 96.923549 
L 775.850115 99.544536 
L 777.676663 108.175484 
L 779.50321 117.485172 
L 781.126807 126.10696 
L 783.359254 139.168654 
L 784.779901 148.180163 
L 787.824147 166.827355 
L 795.739184 214.932483 
L 797.159832 222.921118 
L 800.407027 240.924068 
L 802.639473 252.716971 
L 803.248322 255.917161 
L 804.060121 260.129786 
L 805.886668 269.207497 
L 806.089618 269.767047 
L 806.901417 273.258883 
L 807.307316 274.758847 
L 808.119115 277.772467 
L 808.525014 279.41163 
L 809.539762 283.007988 
L 810.148612 285.163093 
L 813.395806 294.868285 
L 814.410555 297.208815 
L 814.816454 298.424074 
L 815.425303 299.744472 
L 816.643001 302.423991 
L 816.845951 302.638548 
L 817.048901 303.092774 
L 817.25185 303.231909 
L 817.4548 303.66389 
L 817.65775 303.762356 
L 818.266599 304.874343 
L 819.078397 305.671152 
L 819.281347 305.726212 
L 819.687247 306.359908 
L 820.093146 306.407463 
L 820.296096 306.628298 
L 820.701995 306.680091 
L 820.904945 306.613251 
L 821.310844 306.813794 
L 822.122643 306.942366 
L 822.934441 307.394642 
L 823.137391 307.039211 
L 823.340341 307.216124 
L 823.54329 307.139128 
L 823.74624 307.182394 
L 824.15214 306.864989 
L 824.558039 306.674048 
L 824.963938 306.357775 
L 826.993435 304.307204 
L 827.399334 303.513797 
L 829.834731 298.354812 
L 830.24063 297.112009 
L 830.44358 296.780378 
L 831.255378 294.753794 
L 831.458328 294.379394 
L 833.893724 286.336082 
L 834.705523 283.547885 
L 836.32912 277.481084 
L 841.199913 255.417459 
L 843.432359 243.892009 
L 844.447108 238.24399 
L 845.258906 233.933848 
L 849.11495 211.844867 
L 862.10373 132.297509 
L 866.568623 108.703786 
L 867.380422 104.967011 
L 868.19222 101.02481 
L 869.206969 96.098307 
L 869.815818 93.385198 
L 870.627616 90.42138 
L 871.642365 86.128507 
L 873.874811 77.415595 
L 876.919057 68.575286 
L 878.948553 63.951417 
L 879.557402 62.750058 
L 880.166251 61.67831 
L 881.992799 58.819895 
L 882.398698 58.505825 
L 882.804597 57.916806 
L 883.210497 57.655948 
L 883.413446 57.410504 
L 883.819346 57.368718 
L 884.631144 56.860056 
L 884.834094 56.822486 
L 885.239993 56.510686 
L 885.442943 56.573781 
L 885.645893 56.466539 
L 886.051792 56.490025 
L 886.457692 56.477043 
L 887.26949 56.590516 
L 888.284239 57.406183 
L 889.501937 58.286062 
L 890.110786 59.039192 
L 890.313735 59.132346 
L 890.516685 59.502896 
L 890.922585 59.784161 
L 891.328484 60.457912 
L 891.531434 60.577534 
L 892.952081 63.04786 
L 893.155031 63.326144 
L 896.808125 73.432787 
L 899.243521 82.03858 
L 900.25827 86.194506 
L 901.070069 89.708681 
L 903.708414 101.422952 
L 906.143811 113.934086 
L 906.955609 118.461132 
L 907.767408 122.483978 
L 910.405754 137.685377 
L 911.623452 144.499589 
L 916.494244 174.524875 
L 925.82993 230.61323 
L 928.062376 243.064013 
L 930.091873 253.691547 
L 933.744967 270.614796 
L 934.353816 273.15475 
L 935.368565 277.13432 
L 936.383313 280.894212 
L 938.00691 287.082934 
L 941.254105 296.177361 
L 941.660005 297.090137 
L 942.268854 298.590099 
L 943.689502 301.59988 
L 944.70425 303.339715 
L 944.9072 303.459941 
L 945.718998 304.458954 
L 946.124898 304.851835 
L 946.936696 305.641084 
L 947.342596 306.160602 
L 947.951445 306.645868 
L 948.560294 306.920673 
L 948.763244 306.683145 
L 949.169143 306.827946 
L 949.575042 306.609795 
L 949.777992 306.555022 
L 950.183891 306.698267 
L 950.386841 306.714743 
L 951.807489 305.881866 
L 952.619287 305.269509 
L 953.025187 305.11479 
L 953.634036 304.332695 
L 955.257633 302.103793 
L 956.678281 299.082069 
L 957.08418 298.3339 
L 957.69303 296.695575 
L 958.098929 295.933821 
L 958.504828 295.070538 
L 962.157922 283.575629 
L 962.766772 281.393362 
L 963.375621 279.328849 
L 965.405117 271.352574 
L 966.216916 267.57574 
L 968.449363 257.336548 
L 969.667061 251.391642 
L 970.27591 248.588983 
L 971.493608 242.049821 
L 973.523105 230.971032 
L 985.497136 158.679123 
L 986.511884 152.630782 
L 987.323683 147.753402 
L 989.962029 132.196249 
L 993.209224 114.273839 
L 993.818073 111.233597 
L 995.035771 105.293945 
L 997.674117 92.621001 
L 999.906563 83.20666 
L 1001.327211 78.238353 
L 1002.544909 73.762805 
L 1003.559657 70.507426 
L 1004.574406 68.069735 
L 1005.995054 64.169813 
L 1007.821601 60.762746 
L 1008.2275 60.369343 
L 1008.836349 59.49309 
L 1009.039299 58.960678 
L 1009.648148 58.406236 
L 1010.256997 57.493624 
L 1010.459947 57.152694 
L 1010.662896 57.188078 
L 1011.677645 56.290509 
L 1012.286494 56.037069 
L 1013.301242 55.8 
L 1013.504192 55.951757 
L 1013.910091 55.841889 
L 1014.31599 56.068436 
L 1014.51894 56.020147 
L 1015.127789 56.483262 
L 1015.533689 56.301126 
L 1015.939588 56.583931 
L 1016.142538 56.724708 
L 1016.345487 56.720734 
L 1016.751387 57.262456 
L 1016.954336 57.256119 
L 1017.563185 57.961219 
L 1017.969085 58.646816 
L 1019.592682 60.650845 
L 1020.81038 63.22241 
L 1021.825129 65.561734 
L 1022.231028 66.442238 
L 1024.869374 73.766597 
L 1027.710669 83.67881 
L 1031.363764 99.166071 
L 1032.581462 104.932794 
L 1033.190311 107.801899 
L 1036.031606 122.57814 
L 1045.976141 182.119756 
L 1053.891178 230.27233 
L 1055.717725 240.528731 
L 1056.935423 247.195014 
L 1058.96492 257.038793 
L 1061.603266 268.771623 
L 1066.068159 286.920866 
L 1067.082907 290.328572 
L 1068.909455 295.232952 
L 1069.721253 296.920982 
L 1070.938951 299.670879 
L 1071.141901 299.802408 
L 1072.765499 302.665113 
L 1073.374348 303.898408 
L 1073.577297 304.051063 
L 1073.983197 304.988453 
L 1076.012693 306.435999 
L 1076.418593 306.547212 
L 1077.230392 306.548466 
L 1077.636291 306.303933 
L 1078.24514 306.407161 
L 1078.651039 306.313383 
L 1079.056939 306.528855 
L 1079.462838 306.022083 
L 1079.665788 306.005333 
L 1079.868737 305.805804 
L 1080.071687 305.824338 
L 1080.274637 305.624877 
L 1080.477586 305.658473 
L 1081.086435 305.017407 
L 1081.289385 304.589776 
L 1082.304134 303.627278 
L 1082.912983 302.516568 
L 1084.73953 298.972353 
L 1085.145429 298.132591 
L 1086.363127 295.629299 
L 1087.377876 292.429066 
L 1090.219171 283.730502 
L 1092.045718 276.849975 
L 1092.857517 273.554913 
L 1093.872265 269.180677 
L 1098.946007 243.717905 
L 1100.772555 233.556442 
L 1102.193202 225.865262 
L 1103.207951 219.934399 
L 1104.831548 210.232012 
L 1110.10824 177.21948 
L 1110.717089 173.231528 
L 1114.573133 148.826336 
L 1116.60263 137.1091 
L 1117.820328 130.48782 
L 1123.502919 100.579937 
L 1124.517667 95.810408 
L 1124.923567 94.292831 
L 1126.750114 86.645918 
L 1130.809107 72.515173 
L 1133.244503 66.047338 
L 1133.650403 65.287339 
L 1134.259252 63.505595 
L 1135.6799 60.388839 
L 1137.303497 58.330854 
L 1138.115296 57.431611 
L 1138.724145 57.173006 
L 1138.927095 56.951156 
L 1139.535944 56.789442 
L 1139.738893 56.629375 
L 1140.144793 56.788853 
L 1140.550692 56.552234 
L 1140.753642 56.597163 
L 1140.956591 56.46924 
L 1141.159541 56.549133 
L 1141.362491 56.338858 
L 1141.76839 56.582605 
L 1141.97134 56.624555 
L 1142.377239 56.984845 
L 1142.580189 57.02844 
L 1142.783138 56.892546 
L 1142.986088 57.061348 
L 1143.189038 57.082567 
L 1143.391987 57.288636 
L 1143.594937 57.237835 
L 1145.624434 59.849696 
L 1145.827384 59.965707 
L 1148.46573 64.832173 
L 1150.089327 68.490507 
L 1151.307025 71.990162 
L 1151.712924 72.847688 
L 1156.380767 89.789709 
L 1161.251559 112.606508 
L 1162.063358 116.602474 
L 1162.875157 120.872832 
L 1165.919402 138.856456 
L 1167.34005 147.170387 
L 1171.196094 169.85064 
L 1172.210842 176.051661 
L 1175.458037 195.98057 
L 1176.269836 201.049258 
L 1178.299333 213.210615 
L 1179.71998 221.946336 
L 1182.561276 238.412587 
L 1184.387823 248.39032 
L 1186.01142 256.522518 
L 1186.823219 260.517792 
L 1187.837968 265.633804 
L 1191.288112 279.590739 
L 1193.114659 285.720846 
L 1194.129408 288.994495 
L 1194.332357 289.496531 
L 1195.144156 292.693913 
L 1195.753005 294.207885 
L 1196.564804 296.255651 
L 1196.970703 297.180349 
L 1197.985452 299.293784 
L 1198.594301 300.472782 
L 1201.232647 304.823122 
L 1203.059194 306.905953 
L 1203.465093 307.037534 
L 1203.870992 307.346642 
L 1204.073942 307.383047 
L 1204.276892 307.717 
L 1205.69754 307.737876 
L 1205.900489 307.797501 
L 1206.306389 307.499332 
L 1206.509338 307.529376 
L 1206.915238 307.065263 
L 1207.727036 306.684006 
L 1208.538835 306.253361 
L 1208.944734 305.704221 
L 1209.147684 305.368793 
L 1209.350634 305.280848 
L 1209.959483 304.328778 
L 1210.568332 303.347265 
L 1211.177181 301.954185 
L 1211.98898 300.322424 
L 1213.206678 297.242961 
L 1215.033225 292.0098 
L 1217.87452 282.518003 
L 1218.483369 280.331673 
L 1220.309917 272.537007 
L 1221.527615 267.256015 
L 1222.948262 260.820193 
L 1226.601357 242.598123 
L 1231.878048 212.291509 
L 1234.516394 196.004421 
L 1236.95179 181.666728 
L 1241.619633 152.607178 
L 1242.837331 145.597804 
L 1244.460929 135.655152 
L 1245.272727 130.699442 
L 1245.272727 130.699442 
" clip-path="url(#p0c13eb5152)" style="fill: none; stroke: #6495ed; stroke-width: 5; stroke-linecap: square"/>
   </g>
   <g id="patch_3">
    <path d="M 180 320.4 
L 180 43.2 
" style="fill: none; stroke: #000000; stroke-width: 0.8; stroke-linejoin: miter; stroke-linecap: square"/>
   </g>
   <g id="patch_4">
    <path d="M 1296 320.4 
L 1296 43.2 
" style="fill: none; stroke: #000000; stroke-width: 0.8; stroke-linejoin: miter; stroke-linecap: square"/>
   </g>
   <g id="patch_5">
    <path d="M 180 320.4 
L 1296 320.4 
" style="fill: none; stroke: #000000; stroke-width: 0.8; stroke-linejoin: miter; stroke-linecap: square"/>
   </g>
   <g id="patch_6">
    <path d="M 180 43.2 
L 1296 43.2 
" style="fill: none; stroke: #000000; stroke-width: 0.8; stroke-linejoin: miter; stroke-linecap: square"/>
   </g>
  </g>
 </g>
 <defs>
  <clipPath id="p0c13eb5152">
   <rect x="180" y="43.2" width="1116" height="277.2"/>
  </clipPath>
 </defs>
</svg>
