<?xml version="1.0" encoding="utf-8" standalone="no"?>
<!DOCTYPE svg PUBLIC "-//W3C//DTD SVG 1.1//EN"
  "http://www.w3.org/Graphics/SVG/1.1/DTD/svg11.dtd">
<svg xmlns:xlink="http://www.w3.org/1999/xlink" width="1440pt" height="360pt" viewBox="0 0 1440 360" xmlns="http://www.w3.org/2000/svg" version="1.1">
 <metadata>
  <rdf:RDF xmlns:dc="http://purl.org/dc/elements/1.1/" xmlns:cc="http://creativecommons.org/ns#" xmlns:rdf="http://www.w3.org/1999/02/22-rdf-syntax-ns#">
   <cc:Work>
    <dc:type rdf:resource="http://purl.org/dc/dcmitype/StillImage"/>
    <dc:date>2023-01-14T12:42:37.746601</dc:date>
    <dc:format>image/svg+xml</dc:format>
    <dc:creator>
     <cc:Agent>
      <dc:title>Matplotlib v3.6.2, https://matplotlib.org/</dc:title>
     </cc:Agent>
    </dc:creator>
   </cc:Work>
  </rdf:RDF>
 </metadata>
 <defs>
  <style type="text/css">*{stroke-linejoin: round; stroke-linecap: butt}</style>
 </defs>
 <g id="figure_1">
  <g id="patch_1">
   <path d="M 0 360 
L 1440 360 
L 1440 0 
L 0 0 
z
" style="fill: #ffffff"/>
  </g>
  <g id="axes_1">
   <g id="patch_2">
    <path d="M 180 320.4 
L 1296 320.4 
L 1296 43.2 
L 180 43.2 
z
" style="fill: #ffffff"/>
   </g>
   <g id="PolyCollection_1"/>
   <g id="matplotlib.axis_1">
    <g id="xtick_1">
     <g id="line2d_1">
      <defs>
       <path id="m00d8f0a7c1" d="M 0 0 
L 0 3.5 
" style="stroke: #000000; stroke-width: 0.8"/>
      </defs>
      <g>
       <use xlink:href="#m00d8f0a7c1" x="230.727273" y="320.4" style="stroke: #000000; stroke-width: 0.8"/>
      </g>
     </g>
     <g id="text_1">
      <!-- 0 -->
      <g transform="translate(227.546023 334.998438) scale(0.1 -0.1)">
       <defs>
        <path id="DejaVuSans-30" d="M 2034 4250 
Q 1547 4250 1301 3770 
Q 1056 3291 1056 2328 
Q 1056 1369 1301 889 
Q 1547 409 2034 409 
Q 2525 409 2770 889 
Q 3016 1369 3016 2328 
Q 3016 3291 2770 3770 
Q 2525 4250 2034 4250 
z
M 2034 4750 
Q 2819 4750 3233 4129 
Q 3647 3509 3647 2328 
Q 3647 1150 3233 529 
Q 2819 -91 2034 -91 
Q 1250 -91 836 529 
Q 422 1150 422 2328 
Q 422 3509 836 4129 
Q 1250 4750 2034 4750 
z
" transform="scale(0.015625)"/>
       </defs>
       <use xlink:href="#DejaVuSans-30"/>
      </g>
     </g>
    </g>
    <g id="xtick_2">
     <g id="line2d_2">
      <g>
       <use xlink:href="#m00d8f0a7c1" x="434.45126" y="320.4" style="stroke: #000000; stroke-width: 0.8"/>
      </g>
     </g>
     <g id="text_2">
      <!-- 50 -->
      <g transform="translate(428.08876 334.998438) scale(0.1 -0.1)">
       <defs>
        <path id="DejaVuSans-35" d="M 691 4666 
L 3169 4666 
L 3169 4134 
L 1269 4134 
L 1269 2991 
Q 1406 3038 1543 3061 
Q 1681 3084 1819 3084 
Q 2600 3084 3056 2656 
Q 3513 2228 3513 1497 
Q 3513 744 3044 326 
Q 2575 -91 1722 -91 
Q 1428 -91 1123 -41 
Q 819 9 494 109 
L 494 744 
Q 775 591 1075 516 
Q 1375 441 1709 441 
Q 2250 441 2565 725 
Q 2881 1009 2881 1497 
Q 2881 1984 2565 2268 
Q 2250 2553 1709 2553 
Q 1456 2553 1204 2497 
Q 953 2441 691 2322 
L 691 4666 
z
" transform="scale(0.015625)"/>
       </defs>
       <use xlink:href="#DejaVuSans-35"/>
       <use xlink:href="#DejaVuSans-30" x="63.623047"/>
      </g>
     </g>
    </g>
    <g id="xtick_3">
     <g id="line2d_3">
      <g>
       <use xlink:href="#m00d8f0a7c1" x="638.175246" y="320.4" style="stroke: #000000; stroke-width: 0.8"/>
      </g>
     </g>
     <g id="text_3">
      <!-- 100 -->
      <g transform="translate(628.631496 334.998438) scale(0.1 -0.1)">
       <defs>
        <path id="DejaVuSans-31" d="M 794 531 
L 1825 531 
L 1825 4091 
L 703 3866 
L 703 4441 
L 1819 4666 
L 2450 4666 
L 2450 531 
L 3481 531 
L 3481 0 
L 794 0 
L 794 531 
z
" transform="scale(0.015625)"/>
       </defs>
       <use xlink:href="#DejaVuSans-31"/>
       <use xlink:href="#DejaVuSans-30" x="63.623047"/>
       <use xlink:href="#DejaVuSans-30" x="127.246094"/>
      </g>
     </g>
    </g>
    <g id="xtick_4">
     <g id="line2d_4">
      <g>
       <use xlink:href="#m00d8f0a7c1" x="841.899233" y="320.4" style="stroke: #000000; stroke-width: 0.8"/>
      </g>
     </g>
     <g id="text_4">
      <!-- 150 -->
      <g transform="translate(832.355483 334.998438) scale(0.1 -0.1)">
       <use xlink:href="#DejaVuSans-31"/>
       <use xlink:href="#DejaVuSans-35" x="63.623047"/>
       <use xlink:href="#DejaVuSans-30" x="127.246094"/>
      </g>
     </g>
    </g>
    <g id="xtick_5">
     <g id="line2d_5">
      <g>
       <use xlink:href="#m00d8f0a7c1" x="1045.62322" y="320.4" style="stroke: #000000; stroke-width: 0.8"/>
      </g>
     </g>
     <g id="text_5">
      <!-- 200 -->
      <g transform="translate(1036.07947 334.998438) scale(0.1 -0.1)">
       <defs>
        <path id="DejaVuSans-32" d="M 1228 531 
L 3431 531 
L 3431 0 
L 469 0 
L 469 531 
Q 828 903 1448 1529 
Q 2069 2156 2228 2338 
Q 2531 2678 2651 2914 
Q 2772 3150 2772 3378 
Q 2772 3750 2511 3984 
Q 2250 4219 1831 4219 
Q 1534 4219 1204 4116 
Q 875 4013 500 3803 
L 500 4441 
Q 881 4594 1212 4672 
Q 1544 4750 1819 4750 
Q 2544 4750 2975 4387 
Q 3406 4025 3406 3419 
Q 3406 3131 3298 2873 
Q 3191 2616 2906 2266 
Q 2828 2175 2409 1742 
Q 1991 1309 1228 531 
z
" transform="scale(0.015625)"/>
       </defs>
       <use xlink:href="#DejaVuSans-32"/>
       <use xlink:href="#DejaVuSans-30" x="63.623047"/>
       <use xlink:href="#DejaVuSans-30" x="127.246094"/>
      </g>
     </g>
    </g>
    <g id="xtick_6">
     <g id="line2d_6">
      <g>
       <use xlink:href="#m00d8f0a7c1" x="1249.347207" y="320.4" style="stroke: #000000; stroke-width: 0.8"/>
      </g>
     </g>
     <g id="text_6">
      <!-- 250 -->
      <g transform="translate(1239.803457 334.998438) scale(0.1 -0.1)">
       <use xlink:href="#DejaVuSans-32"/>
       <use xlink:href="#DejaVuSans-35" x="63.623047"/>
       <use xlink:href="#DejaVuSans-30" x="127.246094"/>
      </g>
     </g>
    </g>
   </g>
   <g id="matplotlib.axis_2">
    <g id="ytick_1">
     <g id="line2d_7">
      <defs>
       <path id="m1f97870652" d="M 0 0 
L -3.5 0 
" style="stroke: #000000; stroke-width: 0.8"/>
      </defs>
      <g>
       <use xlink:href="#m1f97870652" x="180" y="312.671644" style="stroke: #000000; stroke-width: 0.8"/>
      </g>
     </g>
     <g id="text_7">
      <!-- −1.5 -->
      <g transform="translate(148.717187 316.470862) scale(0.1 -0.1)">
       <defs>
        <path id="DejaVuSans-2212" d="M 678 2272 
L 4684 2272 
L 4684 1741 
L 678 1741 
L 678 2272 
z
" transform="scale(0.015625)"/>
        <path id="DejaVuSans-2e" d="M 684 794 
L 1344 794 
L 1344 0 
L 684 0 
L 684 794 
z
" transform="scale(0.015625)"/>
       </defs>
       <use xlink:href="#DejaVuSans-2212"/>
       <use xlink:href="#DejaVuSans-31" x="83.789062"/>
       <use xlink:href="#DejaVuSans-2e" x="147.412109"/>
       <use xlink:href="#DejaVuSans-35" x="179.199219"/>
      </g>
     </g>
    </g>
    <g id="ytick_2">
     <g id="line2d_8">
      <g>
       <use xlink:href="#m1f97870652" x="180" y="270.358799" style="stroke: #000000; stroke-width: 0.8"/>
      </g>
     </g>
     <g id="text_8">
      <!-- −1.0 -->
      <g transform="translate(148.717187 274.158018) scale(0.1 -0.1)">
       <use xlink:href="#DejaVuSans-2212"/>
       <use xlink:href="#DejaVuSans-31" x="83.789062"/>
       <use xlink:href="#DejaVuSans-2e" x="147.412109"/>
       <use xlink:href="#DejaVuSans-30" x="179.199219"/>
      </g>
     </g>
    </g>
    <g id="ytick_3">
     <g id="line2d_9">
      <g>
       <use xlink:href="#m1f97870652" x="180" y="228.045954" style="stroke: #000000; stroke-width: 0.8"/>
      </g>
     </g>
     <g id="text_9">
      <!-- −0.5 -->
      <g transform="translate(148.717187 231.845173) scale(0.1 -0.1)">
       <use xlink:href="#DejaVuSans-2212"/>
       <use xlink:href="#DejaVuSans-30" x="83.789062"/>
       <use xlink:href="#DejaVuSans-2e" x="147.412109"/>
       <use xlink:href="#DejaVuSans-35" x="179.199219"/>
      </g>
     </g>
    </g>
    <g id="ytick_4">
     <g id="line2d_10">
      <g>
       <use xlink:href="#m1f97870652" x="180" y="185.733109" style="stroke: #000000; stroke-width: 0.8"/>
      </g>
     </g>
     <g id="text_10">
      <!-- 0.0 -->
      <g transform="translate(157.096875 189.532328) scale(0.1 -0.1)">
       <use xlink:href="#DejaVuSans-30"/>
       <use xlink:href="#DejaVuSans-2e" x="63.623047"/>
       <use xlink:href="#DejaVuSans-30" x="95.410156"/>
      </g>
     </g>
    </g>
    <g id="ytick_5">
     <g id="line2d_11">
      <g>
       <use xlink:href="#m1f97870652" x="180" y="143.420264" style="stroke: #000000; stroke-width: 0.8"/>
      </g>
     </g>
     <g id="text_11">
      <!-- 0.5 -->
      <g transform="translate(157.096875 147.219483) scale(0.1 -0.1)">
       <use xlink:href="#DejaVuSans-30"/>
       <use xlink:href="#DejaVuSans-2e" x="63.623047"/>
       <use xlink:href="#DejaVuSans-35" x="95.410156"/>
      </g>
     </g>
    </g>
    <g id="ytick_6">
     <g id="line2d_12">
      <g>
       <use xlink:href="#m1f97870652" x="180" y="101.107419" style="stroke: #000000; stroke-width: 0.8"/>
      </g>
     </g>
     <g id="text_12">
      <!-- 1.0 -->
      <g transform="translate(157.096875 104.906638) scale(0.1 -0.1)">
       <use xlink:href="#DejaVuSans-31"/>
       <use xlink:href="#DejaVuSans-2e" x="63.623047"/>
       <use xlink:href="#DejaVuSans-30" x="95.410156"/>
      </g>
     </g>
    </g>
    <g id="ytick_7">
     <g id="line2d_13">
      <g>
       <use xlink:href="#m1f97870652" x="180" y="58.794574" style="stroke: #000000; stroke-width: 0.8"/>
      </g>
     </g>
     <g id="text_13">
      <!-- 1.5 -->
      <g transform="translate(157.096875 62.593793) scale(0.1 -0.1)">
       <use xlink:href="#DejaVuSans-31"/>
       <use xlink:href="#DejaVuSans-2e" x="63.623047"/>
       <use xlink:href="#DejaVuSans-35" x="95.410156"/>
      </g>
     </g>
    </g>
   </g>
   <g id="line2d_14">
    <path d="M 230.727273 197.931056 
L 234.801752 166.18605 
L 238.876232 142.341358 
L 242.950712 129.428596 
L 247.025192 114.519418 
L 251.099671 94.010781 
L 255.174151 81.345435 
L 259.248631 89.791077 
L 263.323111 79.388495 
L 267.39759 84.581706 
L 271.47207 104.76068 
L 275.54655 128.891144 
L 279.62103 123.345069 
L 283.695509 131.005935 
L 287.769989 131.505966 
L 291.844469 147.827189 
L 295.918949 190.106184 
L 299.993428 223.646401 
L 304.067908 241.031876 
L 308.142388 238.675053 
L 312.216867 221.747503 
L 316.291347 233.965576 
L 320.365827 236.371356 
L 324.440307 249.938435 
L 328.514786 257.991279 
L 332.589266 265.411939 
L 336.663746 285.361153 
L 340.738226 279.619294 
L 344.812705 271.012158 
L 348.887185 259.363729 
L 352.961665 236.241537 
L 357.036145 201.602938 
L 361.110624 143.968726 
L 365.185104 112.751218 
L 369.259584 97.742914 
L 373.334064 80.577914 
L 377.408543 66.886731 
L 381.483023 72.413986 
L 385.557503 95.56712 
L 389.631982 72.52216 
L 393.706462 92.382019 
L 397.780942 98.815495 
L 401.855422 129.99829 
L 405.929901 148.686831 
L 410.004381 159.287728 
L 414.078861 173.490358 
L 418.153341 177.639796 
L 422.22782 210.677849 
L 426.3023 235.058392 
L 430.37678 230.432408 
L 434.45126 270.641901 
L 438.525739 273.368637 
L 442.600219 270.710862 
L 446.674699 293.399806 
L 450.749179 292.48408 
L 454.823658 295.300716 
L 458.898138 298.76238 
L 462.972618 292.088503 
L 467.047097 292.453034 
L 471.121577 276.45267 
L 475.196057 268.641828 
L 479.270537 262.891685 
L 483.345016 254.339972 
L 487.419496 233.129453 
L 491.493976 207.523899 
L 495.568456 163.718176 
L 499.642935 140.304598 
L 503.717415 123.738473 
L 507.791895 116.556964 
L 511.866375 89.656426 
L 515.940854 89.237633 
L 520.015334 78.277216 
L 524.089814 86.986439 
L 528.164294 92.504468 
L 532.238773 99.163797 
L 536.313253 110.415958 
L 540.387733 109.870046 
L 544.462212 122.603691 
L 548.536692 120.691796 
L 552.611172 131.974476 
L 556.685652 162.60621 
L 560.760131 160.717343 
L 564.834611 172.23905 
L 568.909091 206.255585 
L 572.983571 230.284923 
L 577.05805 225.571021 
L 581.13253 257.195227 
L 585.20701 280.094985 
L 589.28149 279.706021 
L 593.355969 303.011276 
L 597.430449 276.377343 
L 601.504929 294.272972 
L 605.579409 292.731101 
L 609.653888 263.340685 
L 613.728368 257.129626 
L 617.802848 246.5927 
L 621.877327 207.988574 
L 625.951807 195.924509 
L 634.100767 165.795008 
L 638.175246 146.512317 
L 642.249726 120.551552 
L 646.324206 113.147016 
L 650.398686 104.633389 
L 654.473165 79.57277 
L 658.547645 100.117245 
L 662.622125 101.534686 
L 666.696605 81.44696 
L 670.771084 81.270256 
L 674.845564 100.519913 
L 678.920044 75.010008 
L 682.994524 79.555543 
L 687.069003 66.64387 
L 691.143483 62.014252 
L 695.217963 69.047171 
L 699.292442 61.483746 
L 703.366922 69.004072 
L 707.441402 92.492861 
L 711.515882 138.091964 
L 715.590361 139.602854 
L 719.664841 145.869632 
L 723.739321 189.832613 
L 727.813801 197.52393 
L 731.88828 221.553582 
L 735.96276 261.588821 
L 740.03724 255.104896 
L 744.11172 276.125896 
L 748.186199 285.786379 
L 752.260679 294.717271 
L 756.335159 288.039807 
L 760.409639 287.815542 
L 764.484118 291.128056 
L 768.558598 272.809424 
L 772.633078 240.98911 
L 776.707558 225.170899 
L 780.782037 198.640971 
L 784.856517 196.887513 
L 788.930997 174.765587 
L 793.005476 133.444337 
L 797.079956 106.404575 
L 801.154436 95.231149 
L 805.228916 80.132851 
L 809.303395 79.181779 
L 813.377875 94.768566 
L 817.452355 104.594265 
L 821.526835 127.61632 
L 825.601314 167.3965 
L 829.675794 197.594755 
L 833.750274 247.525809 
L 837.824754 260.593524 
L 841.899233 267.337132 
L 845.973713 302.385137 
L 850.048193 286.456005 
L 854.122673 284.295499 
L 858.197152 257.869301 
L 862.271632 258.220915 
L 866.346112 224.357535 
L 870.420591 214.926103 
L 874.495071 210.442188 
L 878.569551 178.119233 
L 886.71851 153.012404 
L 890.79299 114.850856 
L 894.86747 85.298807 
L 898.94195 88.216758 
L 903.016429 79.470672 
L 907.090909 77.673216 
L 911.165389 92.243139 
L 915.239869 93.291235 
L 919.314348 99.662349 
L 927.463308 137.104931 
L 931.537788 153.250976 
L 935.612267 163.243453 
L 939.686747 213.712603 
L 943.761227 224.118611 
L 947.835706 243.693864 
L 951.910186 259.266506 
L 955.984666 272.50003 
L 960.059146 268.26084 
L 964.133625 268.366874 
L 968.208105 270.893244 
L 972.282585 291.206757 
L 976.357065 299.64552 
L 980.431544 300.581571 
L 984.506024 291.423977 
L 988.580504 288.22768 
L 992.654984 266.309492 
L 996.729463 235.082722 
L 1000.803943 193.677901 
L 1004.878423 168.811373 
L 1008.952903 129.934933 
L 1013.027382 106.693211 
L 1017.101862 87.234779 
L 1021.176342 55.8 
L 1025.250821 75.955005 
L 1029.325301 99.058527 
L 1033.399781 131.520949 
L 1037.474261 129.080751 
L 1041.54874 122.823374 
L 1045.62322 154.512491 
L 1049.6977 184.007219 
L 1053.77218 208.367427 
L 1057.846659 235.452604 
L 1061.921139 243.843291 
L 1065.995619 273.396823 
L 1070.070099 290.388041 
L 1074.144578 281.460276 
L 1078.219058 285.546647 
L 1082.293538 297.228634 
L 1086.368018 298.999967 
L 1090.442497 290.239442 
L 1094.516977 263.853426 
L 1098.591457 274.609833 
L 1102.665936 286.464779 
L 1106.740416 251.767334 
L 1110.814896 224.591971 
L 1114.889376 178.815169 
L 1118.963855 161.979178 
L 1123.038335 131.760485 
L 1127.112815 119.00457 
L 1131.187295 110.089084 
L 1135.261774 97.591639 
L 1139.336254 102.804469 
L 1143.410734 127.228015 
L 1147.485214 121.36711 
L 1151.559693 119.803389 
L 1155.634173 113.21465 
L 1159.708653 122.070012 
L 1163.783133 128.729534 
L 1167.857612 142.754918 
L 1171.932092 176.652723 
L 1176.006572 213.491355 
L 1180.081051 234.425821 
L 1184.155531 261.777944 
L 1188.230011 275.500014 
L 1192.304491 305.653344 
L 1196.37897 307.8 
L 1200.45345 288.201295 
L 1208.60241 263.006593 
L 1212.676889 235.386189 
L 1216.751369 230.544767 
L 1220.825849 178.526267 
L 1224.900329 165.091382 
L 1228.974808 128.350827 
L 1233.049288 100.778904 
L 1237.123768 105.031479 
L 1241.198248 89.63288 
L 1245.272727 92.299568 
L 1245.272727 92.299568 
" clip-path="url(#p3853955d56)" style="fill: none; stroke: #000000; stroke-width: 5; stroke-linecap: square"/>
   </g>
   <g id="patch_3">
    <path d="M 180 320.4 
L 180 43.2 
" style="fill: none; stroke: #000000; stroke-width: 0.8; stroke-linejoin: miter; stroke-linecap: square"/>
   </g>
   <g id="patch_4">
    <path d="M 1296 320.4 
L 1296 43.2 
" style="fill: none; stroke: #000000; stroke-width: 0.8; stroke-linejoin: miter; stroke-linecap: square"/>
   </g>
   <g id="patch_5">
    <path d="M 180 320.4 
L 1296 320.4 
" style="fill: none; stroke: #000000; stroke-width: 0.8; stroke-linejoin: miter; stroke-linecap: square"/>
   </g>
   <g id="patch_6">
    <path d="M 180 43.2 
L 1296 43.2 
" style="fill: none; stroke: #000000; stroke-width: 0.8; stroke-linejoin: miter; stroke-linecap: square"/>
   </g>
  </g>
 </g>
 <defs>
  <clipPath id="p3853955d56">
   <rect x="180" y="43.2" width="1116" height="277.2"/>
  </clipPath>
 </defs>
</svg>
