<?xml version="1.0" encoding="utf-8" standalone="no"?>
<!DOCTYPE svg PUBLIC "-//W3C//DTD SVG 1.1//EN"
  "http://www.w3.org/Graphics/SVG/1.1/DTD/svg11.dtd">
<svg xmlns:xlink="http://www.w3.org/1999/xlink" width="1440pt" height="360pt" viewBox="0 0 1440 360" xmlns="http://www.w3.org/2000/svg" version="1.1">
 <metadata>
  <rdf:RDF xmlns:dc="http://purl.org/dc/elements/1.1/" xmlns:cc="http://creativecommons.org/ns#" xmlns:rdf="http://www.w3.org/1999/02/22-rdf-syntax-ns#">
   <cc:Work>
    <dc:type rdf:resource="http://purl.org/dc/dcmitype/StillImage"/>
    <dc:date>2023-01-15T09:25:26.204781</dc:date>
    <dc:format>image/svg+xml</dc:format>
    <dc:creator>
     <cc:Agent>
      <dc:title>Matplotlib v3.6.2, https://matplotlib.org/</dc:title>
     </cc:Agent>
    </dc:creator>
   </cc:Work>
  </rdf:RDF>
 </metadata>
 <defs>
  <style type="text/css">*{stroke-linejoin: round; stroke-linecap: butt}</style>
 </defs>
 <g id="figure_1">
  <g id="patch_1">
   <path d="M 0 360 
L 1440 360 
L 1440 0 
L 0 0 
z
" style="fill: #ffffff"/>
  </g>
  <g id="axes_1">
   <g id="patch_2">
    <path d="M 180 320.4 
L 1296 320.4 
L 1296 43.2 
L 180 43.2 
z
" style="fill: #ffffff"/>
   </g>
   <g id="PolyCollection_1"/>
   <g id="matplotlib.axis_1">
    <g id="xtick_1">
     <g id="line2d_1">
      <defs>
       <path id="m4f19e9993f" d="M 0 0 
L 0 3.5 
" style="stroke: #000000; stroke-width: 0.8"/>
      </defs>
      <g>
       <use xlink:href="#m4f19e9993f" x="230.727273" y="320.4" style="stroke: #000000; stroke-width: 0.8"/>
      </g>
     </g>
     <g id="text_1">
      <!-- 0 -->
      <g transform="translate(227.546023 334.998438) scale(0.1 -0.1)">
       <defs>
        <path id="DejaVuSans-30" d="M 2034 4250 
Q 1547 4250 1301 3770 
Q 1056 3291 1056 2328 
Q 1056 1369 1301 889 
Q 1547 409 2034 409 
Q 2525 409 2770 889 
Q 3016 1369 3016 2328 
Q 3016 3291 2770 3770 
Q 2525 4250 2034 4250 
z
M 2034 4750 
Q 2819 4750 3233 4129 
Q 3647 3509 3647 2328 
Q 3647 1150 3233 529 
Q 2819 -91 2034 -91 
Q 1250 -91 836 529 
Q 422 1150 422 2328 
Q 422 3509 836 4129 
Q 1250 4750 2034 4750 
z
" transform="scale(0.015625)"/>
       </defs>
       <use xlink:href="#DejaVuSans-30"/>
      </g>
     </g>
    </g>
    <g id="xtick_2">
     <g id="line2d_2">
      <g>
       <use xlink:href="#m4f19e9993f" x="434.042995" y="320.4" style="stroke: #000000; stroke-width: 0.8"/>
      </g>
     </g>
     <g id="text_2">
      <!-- 100 -->
      <g transform="translate(424.499245 334.998438) scale(0.1 -0.1)">
       <defs>
        <path id="DejaVuSans-31" d="M 794 531 
L 1825 531 
L 1825 4091 
L 703 3866 
L 703 4441 
L 1819 4666 
L 2450 4666 
L 2450 531 
L 3481 531 
L 3481 0 
L 794 0 
L 794 531 
z
" transform="scale(0.015625)"/>
       </defs>
       <use xlink:href="#DejaVuSans-31"/>
       <use xlink:href="#DejaVuSans-30" x="63.623047"/>
       <use xlink:href="#DejaVuSans-30" x="127.246094"/>
      </g>
     </g>
    </g>
    <g id="xtick_3">
     <g id="line2d_3">
      <g>
       <use xlink:href="#m4f19e9993f" x="637.358717" y="320.4" style="stroke: #000000; stroke-width: 0.8"/>
      </g>
     </g>
     <g id="text_3">
      <!-- 200 -->
      <g transform="translate(627.814967 334.998438) scale(0.1 -0.1)">
       <defs>
        <path id="DejaVuSans-32" d="M 1228 531 
L 3431 531 
L 3431 0 
L 469 0 
L 469 531 
Q 828 903 1448 1529 
Q 2069 2156 2228 2338 
Q 2531 2678 2651 2914 
Q 2772 3150 2772 3378 
Q 2772 3750 2511 3984 
Q 2250 4219 1831 4219 
Q 1534 4219 1204 4116 
Q 875 4013 500 3803 
L 500 4441 
Q 881 4594 1212 4672 
Q 1544 4750 1819 4750 
Q 2544 4750 2975 4387 
Q 3406 4025 3406 3419 
Q 3406 3131 3298 2873 
Q 3191 2616 2906 2266 
Q 2828 2175 2409 1742 
Q 1991 1309 1228 531 
z
" transform="scale(0.015625)"/>
       </defs>
       <use xlink:href="#DejaVuSans-32"/>
       <use xlink:href="#DejaVuSans-30" x="63.623047"/>
       <use xlink:href="#DejaVuSans-30" x="127.246094"/>
      </g>
     </g>
    </g>
    <g id="xtick_4">
     <g id="line2d_4">
      <g>
       <use xlink:href="#m4f19e9993f" x="840.67444" y="320.4" style="stroke: #000000; stroke-width: 0.8"/>
      </g>
     </g>
     <g id="text_4">
      <!-- 300 -->
      <g transform="translate(831.13069 334.998438) scale(0.1 -0.1)">
       <defs>
        <path id="DejaVuSans-33" d="M 2597 2516 
Q 3050 2419 3304 2112 
Q 3559 1806 3559 1356 
Q 3559 666 3084 287 
Q 2609 -91 1734 -91 
Q 1441 -91 1130 -33 
Q 819 25 488 141 
L 488 750 
Q 750 597 1062 519 
Q 1375 441 1716 441 
Q 2309 441 2620 675 
Q 2931 909 2931 1356 
Q 2931 1769 2642 2001 
Q 2353 2234 1838 2234 
L 1294 2234 
L 1294 2753 
L 1863 2753 
Q 2328 2753 2575 2939 
Q 2822 3125 2822 3475 
Q 2822 3834 2567 4026 
Q 2313 4219 1838 4219 
Q 1578 4219 1281 4162 
Q 984 4106 628 3988 
L 628 4550 
Q 988 4650 1302 4700 
Q 1616 4750 1894 4750 
Q 2613 4750 3031 4423 
Q 3450 4097 3450 3541 
Q 3450 3153 3228 2886 
Q 3006 2619 2597 2516 
z
" transform="scale(0.015625)"/>
       </defs>
       <use xlink:href="#DejaVuSans-33"/>
       <use xlink:href="#DejaVuSans-30" x="63.623047"/>
       <use xlink:href="#DejaVuSans-30" x="127.246094"/>
      </g>
     </g>
    </g>
    <g id="xtick_5">
     <g id="line2d_5">
      <g>
       <use xlink:href="#m4f19e9993f" x="1043.990162" y="320.4" style="stroke: #000000; stroke-width: 0.8"/>
      </g>
     </g>
     <g id="text_5">
      <!-- 400 -->
      <g transform="translate(1034.446412 334.998438) scale(0.1 -0.1)">
       <defs>
        <path id="DejaVuSans-34" d="M 2419 4116 
L 825 1625 
L 2419 1625 
L 2419 4116 
z
M 2253 4666 
L 3047 4666 
L 3047 1625 
L 3713 1625 
L 3713 1100 
L 3047 1100 
L 3047 0 
L 2419 0 
L 2419 1100 
L 313 1100 
L 313 1709 
L 2253 4666 
z
" transform="scale(0.015625)"/>
       </defs>
       <use xlink:href="#DejaVuSans-34"/>
       <use xlink:href="#DejaVuSans-30" x="63.623047"/>
       <use xlink:href="#DejaVuSans-30" x="127.246094"/>
      </g>
     </g>
    </g>
    <g id="xtick_6">
     <g id="line2d_6">
      <g>
       <use xlink:href="#m4f19e9993f" x="1247.305884" y="320.4" style="stroke: #000000; stroke-width: 0.8"/>
      </g>
     </g>
     <g id="text_6">
      <!-- 500 -->
      <g transform="translate(1237.762134 334.998438) scale(0.1 -0.1)">
       <defs>
        <path id="DejaVuSans-35" d="M 691 4666 
L 3169 4666 
L 3169 4134 
L 1269 4134 
L 1269 2991 
Q 1406 3038 1543 3061 
Q 1681 3084 1819 3084 
Q 2600 3084 3056 2656 
Q 3513 2228 3513 1497 
Q 3513 744 3044 326 
Q 2575 -91 1722 -91 
Q 1428 -91 1123 -41 
Q 819 9 494 109 
L 494 744 
Q 775 591 1075 516 
Q 1375 441 1709 441 
Q 2250 441 2565 725 
Q 2881 1009 2881 1497 
Q 2881 1984 2565 2268 
Q 2250 2553 1709 2553 
Q 1456 2553 1204 2497 
Q 953 2441 691 2322 
L 691 4666 
z
" transform="scale(0.015625)"/>
       </defs>
       <use xlink:href="#DejaVuSans-35"/>
       <use xlink:href="#DejaVuSans-30" x="63.623047"/>
       <use xlink:href="#DejaVuSans-30" x="127.246094"/>
      </g>
     </g>
    </g>
   </g>
   <g id="matplotlib.axis_2">
    <g id="ytick_1">
     <g id="line2d_7">
      <defs>
       <path id="m643a67cd93" d="M 0 0 
L -3.5 0 
" style="stroke: #000000; stroke-width: 0.8"/>
      </defs>
      <g>
       <use xlink:href="#m643a67cd93" x="180" y="288.735111" style="stroke: #000000; stroke-width: 0.8"/>
      </g>
     </g>
     <g id="text_7">
      <!-- −1.0 -->
      <g transform="translate(148.717187 292.53433) scale(0.1 -0.1)">
       <defs>
        <path id="DejaVuSans-2212" d="M 678 2272 
L 4684 2272 
L 4684 1741 
L 678 1741 
L 678 2272 
z
" transform="scale(0.015625)"/>
        <path id="DejaVuSans-2e" d="M 684 794 
L 1344 794 
L 1344 0 
L 684 0 
L 684 794 
z
" transform="scale(0.015625)"/>
       </defs>
       <use xlink:href="#DejaVuSans-2212"/>
       <use xlink:href="#DejaVuSans-31" x="83.789062"/>
       <use xlink:href="#DejaVuSans-2e" x="147.412109"/>
       <use xlink:href="#DejaVuSans-30" x="179.199219"/>
      </g>
     </g>
    </g>
    <g id="ytick_2">
     <g id="line2d_8">
      <g>
       <use xlink:href="#m643a67cd93" x="180" y="235.945819" style="stroke: #000000; stroke-width: 0.8"/>
      </g>
     </g>
     <g id="text_8">
      <!-- −0.5 -->
      <g transform="translate(148.717187 239.745038) scale(0.1 -0.1)">
       <use xlink:href="#DejaVuSans-2212"/>
       <use xlink:href="#DejaVuSans-30" x="83.789062"/>
       <use xlink:href="#DejaVuSans-2e" x="147.412109"/>
       <use xlink:href="#DejaVuSans-35" x="179.199219"/>
      </g>
     </g>
    </g>
    <g id="ytick_3">
     <g id="line2d_9">
      <g>
       <use xlink:href="#m643a67cd93" x="180" y="183.156526" style="stroke: #000000; stroke-width: 0.8"/>
      </g>
     </g>
     <g id="text_9">
      <!-- 0.0 -->
      <g transform="translate(157.096875 186.955745) scale(0.1 -0.1)">
       <use xlink:href="#DejaVuSans-30"/>
       <use xlink:href="#DejaVuSans-2e" x="63.623047"/>
       <use xlink:href="#DejaVuSans-30" x="95.410156"/>
      </g>
     </g>
    </g>
    <g id="ytick_4">
     <g id="line2d_10">
      <g>
       <use xlink:href="#m643a67cd93" x="180" y="130.367234" style="stroke: #000000; stroke-width: 0.8"/>
      </g>
     </g>
     <g id="text_10">
      <!-- 0.5 -->
      <g transform="translate(157.096875 134.166452) scale(0.1 -0.1)">
       <use xlink:href="#DejaVuSans-30"/>
       <use xlink:href="#DejaVuSans-2e" x="63.623047"/>
       <use xlink:href="#DejaVuSans-35" x="95.410156"/>
      </g>
     </g>
    </g>
    <g id="ytick_5">
     <g id="line2d_11">
      <g>
       <use xlink:href="#m643a67cd93" x="180" y="77.577941" style="stroke: #000000; stroke-width: 0.8"/>
      </g>
     </g>
     <g id="text_11">
      <!-- 1.0 -->
      <g transform="translate(157.096875 81.37716) scale(0.1 -0.1)">
       <use xlink:href="#DejaVuSans-31"/>
       <use xlink:href="#DejaVuSans-2e" x="63.623047"/>
       <use xlink:href="#DejaVuSans-30" x="95.410156"/>
      </g>
     </g>
    </g>
   </g>
   <g id="line2d_12">
    <path d="M 230.727273 222.540794 
L 232.76043 231.082825 
L 234.793587 218.32479 
L 236.826744 216.057197 
L 238.859902 199.800262 
L 240.893059 202.1191 
L 242.926216 191.374829 
L 244.959373 184.210121 
L 246.992531 181.353851 
L 249.025688 188.038813 
L 251.058845 193.610894 
L 253.092002 200.985266 
L 255.125159 171.993637 
L 257.158317 156.167715 
L 259.191474 154.780961 
L 261.224631 138.938073 
L 263.257788 136.516997 
L 265.290946 138.90853 
L 267.324103 168.94301 
L 269.35726 172.135579 
L 271.390417 211.046084 
L 273.423574 184.644907 
L 275.456732 203.440458 
L 277.489889 184.022244 
L 279.523046 209.81868 
L 281.556203 213.757191 
L 283.589361 195.208646 
L 285.622518 188.717906 
L 287.655675 196.595547 
L 289.688832 168.268493 
L 291.721989 172.86553 
L 293.755147 148.902639 
L 295.788304 156.626872 
L 297.821461 157.153758 
L 299.854618 158.52046 
L 301.887776 187.95636 
L 303.920933 199.257382 
L 305.95409 206.632354 
L 307.987247 186.147814 
L 310.020404 184.408452 
L 312.053562 150.373067 
L 314.086719 160.791118 
L 316.119876 169.388518 
L 318.153033 192.543483 
L 320.186191 187.610062 
L 322.219348 190.96388 
L 324.252505 193.961718 
L 326.285662 238.050809 
L 328.318819 218.512528 
L 330.351977 248.263059 
L 332.385134 210.814676 
L 334.418291 200.291265 
L 336.451448 212.688427 
L 338.484606 194.492726 
L 340.517763 181.748569 
L 342.55092 194.709505 
L 344.584077 206.791905 
L 346.617234 188.680461 
L 348.650392 222.844461 
L 350.683549 204.786111 
L 352.716706 223.617916 
L 354.749863 210.172012 
L 356.783021 188.148174 
L 358.816178 171.401486 
L 360.849335 171.54495 
L 362.882492 181.765795 
L 364.915649 193.209392 
L 366.948807 178.445477 
L 368.981964 212.019667 
L 371.015121 213.4082 
L 373.048278 207.056401 
L 375.081436 213.108433 
L 377.114593 205.8425 
L 379.14775 230.054197 
L 381.180907 251.261646 
L 383.214064 248.732577 
L 385.247222 269.3902 
L 387.280379 260.898796 
L 389.313536 224.302806 
L 391.346693 200.767897 
L 393.379851 204.571744 
L 395.413008 181.537318 
L 397.446165 178.392193 
L 399.479322 172.416821 
L 401.51248 148.379369 
L 403.545637 158.410109 
L 405.578794 152.953966 
L 407.611951 186.778288 
L 409.645108 202.323501 
L 413.711423 166.603066 
L 415.74458 171.422806 
L 417.777737 158.373234 
L 419.810895 149.879905 
L 421.844052 172.015909 
L 423.877209 123.00254 
L 425.910366 145.237114 
L 427.943523 162.643717 
L 429.976681 148.25103 
L 432.009838 159.974621 
L 434.042995 153.463572 
L 436.076152 164.612732 
L 438.10931 165.204468 
L 440.142467 125.228572 
L 442.175624 117.915731 
L 444.208781 142.107209 
L 446.241938 144.257233 
L 448.275096 152.131842 
L 450.308253 166.525448 
L 452.34141 145.317152 
L 454.374567 120.337764 
L 458.440882 142.821949 
L 460.474039 122.418817 
L 462.507196 119.705756 
L 464.540353 111.017954 
L 466.573511 150.247869 
L 468.606668 177.71476 
L 470.639825 194.175285 
L 472.672982 224.782567 
L 474.70614 231.243692 
L 476.739297 247.248263 
L 478.772454 238.112898 
L 480.805611 256.500665 
L 482.838768 252.273197 
L 484.871926 253.209723 
L 486.905083 266.302919 
L 488.93824 244.817017 
L 490.971397 230.744552 
L 493.004555 230.455444 
L 495.037712 250.830056 
L 497.070869 225.010883 
L 499.104026 263.645232 
L 501.137183 250.765734 
L 503.170341 239.142152 
L 505.203498 239.584561 
L 507.236655 233.445682 
L 509.269812 233.651113 
L 511.30297 186.167234 
L 513.336127 182.464901 
L 515.369284 146.085238 
L 517.402441 196.057971 
L 519.435598 160.306766 
L 521.468756 147.707146 
L 523.501913 164.665694 
L 525.53507 194.907536 
L 529.601385 211.27722 
L 531.634542 229.261841 
L 533.667699 221.972166 
L 535.700856 217.61448 
L 537.734013 208.003725 
L 539.767171 208.101576 
L 541.800328 191.379335 
L 543.833485 159.47841 
L 545.866642 159.061402 
L 547.8998 170.606233 
L 549.932957 180.414823 
L 551.966114 198.570023 
L 553.999271 213.113978 
L 556.032428 195.613596 
L 558.065586 233.354597 
L 560.098743 195.478826 
L 562.1319 217.856668 
L 564.165057 200.274872 
L 566.198215 214.118603 
L 568.231372 194.05948 
L 570.264529 205.118491 
L 572.297686 189.943162 
L 574.330844 152.573249 
L 576.364001 173.973861 
L 578.397158 165.014984 
L 580.430315 183.953871 
L 582.463472 235.854605 
L 584.49663 277.179211 
L 586.529787 268.167237 
L 588.562944 224.467192 
L 590.596101 212.439169 
L 592.629259 179.684316 
L 594.662416 170.728288 
L 598.72873 226.618096 
L 600.761887 223.949046 
L 602.795045 214.487762 
L 604.828202 199.362015 
L 606.861359 172.786296 
L 608.894516 224.072177 
L 610.927674 228.88627 
L 612.960831 227.299643 
L 614.993988 235.804397 
L 617.027145 249.684651 
L 619.060302 249.363377 
L 621.09346 217.456719 
L 623.126617 190.855716 
L 625.159774 170.468169 
L 627.192931 154.855787 
L 629.226089 143.056871 
L 631.259246 124.550265 
L 633.292403 130.444103 
L 635.32556 130.896236 
L 637.358717 103.640071 
L 639.391875 118.423477 
L 641.425032 135.644163 
L 643.458189 96.412935 
L 645.491346 95.021426 
L 647.524504 120.542603 
L 649.557661 134.476907 
L 651.590818 160.922527 
L 653.623975 154.433484 
L 655.657132 153.788398 
L 657.69029 140.567364 
L 659.723447 151.740703 
L 661.756604 175.91719 
L 663.789761 189.956288 
L 665.822919 213.029109 
L 667.856076 207.905429 
L 669.889233 215.923866 
L 671.92239 221.493406 
L 673.955547 247.113199 
L 675.988705 240.399002 
L 678.021862 242.404778 
L 680.055019 214.835442 
L 682.088176 176.098953 
L 684.121334 173.371333 
L 686.154491 178.021445 
L 688.187648 181.407848 
L 690.220805 171.689323 
L 692.253962 194.645677 
L 694.28712 207.469117 
L 696.320277 228.661223 
L 698.353434 247.714806 
L 700.386591 233.971216 
L 702.419749 252.432351 
L 704.452906 268.208632 
L 706.486063 235.72008 
L 708.51922 194.913606 
L 710.552377 199.717626 
L 712.585535 178.970849 
L 714.618692 191.270283 
L 716.651849 182.31716 
L 718.685006 181.770747 
L 720.718164 188.3117 
L 722.751321 217.49834 
L 724.784478 239.726587 
L 726.817635 224.885046 
L 728.850792 218.823604 
L 730.88395 235.190407 
L 732.917107 239.697743 
L 734.950264 242.272399 
L 736.983421 276.521637 
L 739.016579 240.739717 
L 741.049736 246.341266 
L 743.082893 227.707579 
L 745.11605 211.988076 
L 747.149208 225.218106 
L 749.182365 236.092108 
L 751.215522 274.548116 
L 753.248679 245.122092 
L 755.281836 280.415765 
L 757.314994 261.621104 
L 759.348151 261.514711 
L 761.381308 249.613491 
L 763.414465 239.929934 
L 765.447623 262.643086 
L 767.48078 234.151962 
L 769.513937 233.566503 
L 771.547094 233.304489 
L 773.580251 217.702326 
L 775.613409 231.33786 
L 777.646566 257.918166 
L 779.679723 239.585308 
L 781.71288 236.666289 
L 783.746038 215.114321 
L 785.779195 201.828234 
L 787.812352 174.133953 
L 789.845509 161.688082 
L 791.878666 168.803072 
L 793.911824 148.569106 
L 795.944981 161.534964 
L 797.978138 194.697582 
L 800.011295 202.34886 
L 802.044453 186.552457 
L 804.07761 218.10151 
L 806.110767 252.516103 
L 808.143924 226.834594 
L 810.177081 222.721386 
L 812.210239 214.644387 
L 814.243396 226.947308 
L 816.276553 197.694452 
L 818.30971 205.165149 
L 820.342868 182.572762 
L 822.376025 189.376736 
L 824.409182 146.475323 
L 826.442339 142.882348 
L 828.475496 138.498784 
L 830.508654 106.43922 
L 832.541811 107.495337 
L 834.574968 106.375996 
L 836.608125 107.22253 
L 838.641283 101.307305 
L 840.67444 68.949345 
L 842.707597 69.287432 
L 844.740754 74.581252 
L 846.773911 55.8 
L 848.807069 74.76173 
L 850.840226 127.547033 
L 852.873383 107.346939 
L 854.90654 125.88068 
L 856.939698 154.459874 
L 858.972855 146.717439 
L 861.006012 156.993982 
L 863.039169 149.180553 
L 865.072326 171.612079 
L 867.105484 149.279961 
L 869.138641 123.664422 
L 871.171798 177.7958 
L 873.204955 179.047202 
L 875.238113 206.43465 
L 877.27127 218.479732 
L 879.304427 237.246174 
L 881.337584 239.418672 
L 883.370741 216.212202 
L 885.403899 223.518894 
L 887.437056 227.757493 
L 889.470213 243.45126 
L 891.50337 234.130186 
L 893.536528 233.158258 
L 895.569685 206.946598 
L 897.602842 175.383961 
L 899.635999 176.606504 
L 901.669156 178.542465 
L 903.702314 201.614422 
L 905.735471 210.767093 
L 907.768628 199.586908 
L 909.801785 171.170146 
L 911.834943 155.018559 
L 913.8681 198.203467 
L 915.901257 197.822802 
L 917.934414 204.120522 
L 919.967572 201.929413 
L 922.000729 174.200413 
L 924.033886 189.412595 
L 926.067043 194.279097 
L 928.1002 231.336796 
L 930.133358 252.883042 
L 932.166515 282.234024 
L 934.199672 300.680267 
L 936.232829 307.8 
L 938.265987 292.826634 
L 940.299144 287.758233 
L 942.332301 279.475112 
L 944.365458 273.818599 
L 946.398615 279.434085 
L 948.431773 289.78828 
L 950.46493 269.8873 
L 952.498087 262.998504 
L 954.531244 250.671582 
L 956.564402 228.325955 
L 958.597559 258.335301 
L 960.630716 280.065971 
L 962.663873 262.859223 
L 964.69703 270.171972 
L 966.730188 260.786062 
L 968.763345 254.598478 
L 970.796502 260.530043 
L 972.829659 295.967891 
L 974.862817 275.599221 
L 976.895974 291.211531 
L 978.929131 272.498657 
L 980.962288 265.881084 
L 982.995445 258.133407 
L 985.028603 248.015178 
L 987.06176 282.418783 
L 989.094917 302.404748 
L 991.128074 299.158022 
L 993.161232 277.237802 
L 995.194389 271.770018 
L 997.227546 254.652112 
L 999.260703 287.2107 
L 1001.29386 282.827026 
L 1003.327018 281.381098 
L 1005.360175 261.271201 
L 1007.393332 250.267688 
L 1009.426489 220.92493 
L 1011.459647 215.725707 
L 1013.492804 215.169048 
L 1015.525961 210.505549 
L 1017.559118 215.256411 
L 1019.592275 233.479246 
L 1021.625433 226.888369 
L 1023.65859 204.864675 
L 1025.691747 171.568566 
L 1027.724904 207.452748 
L 1029.758062 176.935819 
L 1031.791219 189.618553 
L 1033.824376 173.791765 
L 1035.857533 169.969225 
L 1037.89069 190.614056 
L 1039.923848 153.438184 
L 1041.957005 159.401555 
L 1046.023319 133.72728 
L 1048.056477 129.789441 
L 1050.089634 139.858216 
L 1052.122791 114.144784 
L 1054.155948 131.266574 
L 1056.189105 123.191683 
L 1058.222263 140.76933 
L 1060.25542 175.727335 
L 1062.288577 182.493518 
L 1064.321734 198.613083 
L 1066.354892 173.297543 
L 1068.388049 183.642398 
L 1070.421206 195.182483 
L 1072.454363 180.176177 
L 1074.48752 204.817032 
L 1076.520678 211.358571 
L 1078.553835 191.591938 
L 1080.586992 195.426562 
L 1082.620149 181.041474 
L 1084.653307 159.006347 
L 1086.686464 158.010141 
L 1088.719621 169.095814 
L 1090.752778 187.530329 
L 1092.785936 184.638304 
L 1094.819093 185.207493 
L 1096.85225 179.444541 
L 1098.885407 212.56233 
L 1100.918564 216.375738 
L 1102.951722 176.529627 
L 1104.984879 199.403204 
L 1107.018036 134.837721 
L 1109.051193 123.245986 
L 1111.084351 178.048886 
L 1113.117508 184.383433 
L 1115.150665 178.120335 
L 1117.183822 196.861973 
L 1119.216979 188.638152 
L 1121.250137 158.20118 
L 1123.283294 201.571647 
L 1125.316451 191.130032 
L 1127.349608 194.231519 
L 1129.382766 169.023193 
L 1131.415923 142.058354 
L 1133.44908 158.680134 
L 1135.482237 128.412673 
L 1137.515394 141.777037 
L 1139.548552 151.507483 
L 1141.581709 162.50803 
L 1143.614866 175.72426 
L 1147.681181 160.787746 
L 1149.714338 173.489022 
L 1151.747495 137.879575 
L 1153.780652 155.877594 
L 1155.813809 143.311625 
L 1157.846967 183.525825 
L 1159.880124 170.382107 
L 1161.913281 164.375451 
L 1163.946438 151.0206 
L 1165.979596 185.743574 
L 1168.012753 181.129542 
L 1172.079067 225.579867 
L 1174.112224 233.869054 
L 1176.145382 235.875368 
L 1178.178539 244.863931 
L 1180.211696 252.329571 
L 1182.244853 262.445759 
L 1184.278011 223.369897 
L 1186.311168 215.705847 
L 1188.344325 213.116598 
L 1190.377482 211.709826 
L 1192.410639 205.288131 
L 1194.443797 215.641629 
L 1196.476954 201.977142 
L 1198.510111 235.195249 
L 1200.543268 186.783784 
L 1202.576426 169.673318 
L 1204.609583 169.785473 
L 1206.64274 163.90416 
L 1208.675897 150.589246 
L 1210.709054 140.860416 
L 1212.742212 148.183393 
L 1214.775369 167.791719 
L 1216.808526 162.698908 
L 1218.841683 175.71815 
L 1220.874841 212.737519 
L 1222.907998 182.582991 
L 1224.941155 200.100042 
L 1226.974312 240.406476 
L 1229.007469 228.946402 
L 1231.040627 197.078467 
L 1233.073784 145.941801 
L 1235.106941 113.711871 
L 1237.140098 115.177018 
L 1239.173256 122.218622 
L 1241.206413 109.808176 
L 1243.23957 108.284424 
L 1245.272727 78.16648 
L 1245.272727 78.16648 
" clip-path="url(#p9abbd4ec10)" style="fill: none; stroke: #2e8b57; stroke-width: 5; stroke-linecap: square"/>
   </g>
   <g id="patch_3">
    <path d="M 180 320.4 
L 180 43.2 
" style="fill: none; stroke: #000000; stroke-width: 0.8; stroke-linejoin: miter; stroke-linecap: square"/>
   </g>
   <g id="patch_4">
    <path d="M 1296 320.4 
L 1296 43.2 
" style="fill: none; stroke: #000000; stroke-width: 0.8; stroke-linejoin: miter; stroke-linecap: square"/>
   </g>
   <g id="patch_5">
    <path d="M 180 320.4 
L 1296 320.4 
" style="fill: none; stroke: #000000; stroke-width: 0.8; stroke-linejoin: miter; stroke-linecap: square"/>
   </g>
   <g id="patch_6">
    <path d="M 180 43.2 
L 1296 43.2 
" style="fill: none; stroke: #000000; stroke-width: 0.8; stroke-linejoin: miter; stroke-linecap: square"/>
   </g>
  </g>
 </g>
 <defs>
  <clipPath id="p9abbd4ec10">
   <rect x="180" y="43.2" width="1116" height="277.2"/>
  </clipPath>
 </defs>
</svg>
