<?xml version="1.0" encoding="utf-8" standalone="no"?>
<!DOCTYPE svg PUBLIC "-//W3C//DTD SVG 1.1//EN"
  "http://www.w3.org/Graphics/SVG/1.1/DTD/svg11.dtd">
<svg xmlns:xlink="http://www.w3.org/1999/xlink" width="1440pt" height="360pt" viewBox="0 0 1440 360" xmlns="http://www.w3.org/2000/svg" version="1.1">
 <metadata>
  <rdf:RDF xmlns:dc="http://purl.org/dc/elements/1.1/" xmlns:cc="http://creativecommons.org/ns#" xmlns:rdf="http://www.w3.org/1999/02/22-rdf-syntax-ns#">
   <cc:Work>
    <dc:type rdf:resource="http://purl.org/dc/dcmitype/StillImage"/>
    <dc:date>2023-01-14T11:29:29.497854</dc:date>
    <dc:format>image/svg+xml</dc:format>
    <dc:creator>
     <cc:Agent>
      <dc:title>Matplotlib v3.6.2, https://matplotlib.org/</dc:title>
     </cc:Agent>
    </dc:creator>
   </cc:Work>
  </rdf:RDF>
 </metadata>
 <defs>
  <style type="text/css">*{stroke-linejoin: round; stroke-linecap: butt}</style>
 </defs>
 <g id="figure_1">
  <g id="patch_1">
   <path d="M 0 360 
L 1440 360 
L 1440 0 
L 0 0 
z
" style="fill: #ffffff"/>
  </g>
  <g id="axes_1">
   <g id="patch_2">
    <path d="M 180 320.4 
L 1296 320.4 
L 1296 43.2 
L 180 43.2 
z
" style="fill: #ffffff"/>
   </g>
   <g id="PolyCollection_1"/>
   <g id="matplotlib.axis_1">
    <g id="xtick_1">
     <g id="line2d_1">
      <defs>
       <path id="m859358e221" d="M 0 0 
L 0 3.5 
" style="stroke: #000000; stroke-width: 0.8"/>
      </defs>
      <g>
       <use xlink:href="#m859358e221" x="230.727273" y="320.4" style="stroke: #000000; stroke-width: 0.8"/>
      </g>
     </g>
     <g id="text_1">
      <!-- 0 -->
      <g transform="translate(227.546023 334.998438) scale(0.1 -0.1)">
       <defs>
        <path id="DejaVuSans-30" d="M 2034 4250 
Q 1547 4250 1301 3770 
Q 1056 3291 1056 2328 
Q 1056 1369 1301 889 
Q 1547 409 2034 409 
Q 2525 409 2770 889 
Q 3016 1369 3016 2328 
Q 3016 3291 2770 3770 
Q 2525 4250 2034 4250 
z
M 2034 4750 
Q 2819 4750 3233 4129 
Q 3647 3509 3647 2328 
Q 3647 1150 3233 529 
Q 2819 -91 2034 -91 
Q 1250 -91 836 529 
Q 422 1150 422 2328 
Q 422 3509 836 4129 
Q 1250 4750 2034 4750 
z
" transform="scale(0.015625)"/>
       </defs>
       <use xlink:href="#DejaVuSans-30"/>
      </g>
     </g>
    </g>
    <g id="xtick_2">
     <g id="line2d_2">
      <g>
       <use xlink:href="#m859358e221" x="434.45126" y="320.4" style="stroke: #000000; stroke-width: 0.8"/>
      </g>
     </g>
     <g id="text_2">
      <!-- 50 -->
      <g transform="translate(428.08876 334.998438) scale(0.1 -0.1)">
       <defs>
        <path id="DejaVuSans-35" d="M 691 4666 
L 3169 4666 
L 3169 4134 
L 1269 4134 
L 1269 2991 
Q 1406 3038 1543 3061 
Q 1681 3084 1819 3084 
Q 2600 3084 3056 2656 
Q 3513 2228 3513 1497 
Q 3513 744 3044 326 
Q 2575 -91 1722 -91 
Q 1428 -91 1123 -41 
Q 819 9 494 109 
L 494 744 
Q 775 591 1075 516 
Q 1375 441 1709 441 
Q 2250 441 2565 725 
Q 2881 1009 2881 1497 
Q 2881 1984 2565 2268 
Q 2250 2553 1709 2553 
Q 1456 2553 1204 2497 
Q 953 2441 691 2322 
L 691 4666 
z
" transform="scale(0.015625)"/>
       </defs>
       <use xlink:href="#DejaVuSans-35"/>
       <use xlink:href="#DejaVuSans-30" x="63.623047"/>
      </g>
     </g>
    </g>
    <g id="xtick_3">
     <g id="line2d_3">
      <g>
       <use xlink:href="#m859358e221" x="638.175246" y="320.4" style="stroke: #000000; stroke-width: 0.8"/>
      </g>
     </g>
     <g id="text_3">
      <!-- 100 -->
      <g transform="translate(628.631496 334.998438) scale(0.1 -0.1)">
       <defs>
        <path id="DejaVuSans-31" d="M 794 531 
L 1825 531 
L 1825 4091 
L 703 3866 
L 703 4441 
L 1819 4666 
L 2450 4666 
L 2450 531 
L 3481 531 
L 3481 0 
L 794 0 
L 794 531 
z
" transform="scale(0.015625)"/>
       </defs>
       <use xlink:href="#DejaVuSans-31"/>
       <use xlink:href="#DejaVuSans-30" x="63.623047"/>
       <use xlink:href="#DejaVuSans-30" x="127.246094"/>
      </g>
     </g>
    </g>
    <g id="xtick_4">
     <g id="line2d_4">
      <g>
       <use xlink:href="#m859358e221" x="841.899233" y="320.4" style="stroke: #000000; stroke-width: 0.8"/>
      </g>
     </g>
     <g id="text_4">
      <!-- 150 -->
      <g transform="translate(832.355483 334.998438) scale(0.1 -0.1)">
       <use xlink:href="#DejaVuSans-31"/>
       <use xlink:href="#DejaVuSans-35" x="63.623047"/>
       <use xlink:href="#DejaVuSans-30" x="127.246094"/>
      </g>
     </g>
    </g>
    <g id="xtick_5">
     <g id="line2d_5">
      <g>
       <use xlink:href="#m859358e221" x="1045.62322" y="320.4" style="stroke: #000000; stroke-width: 0.8"/>
      </g>
     </g>
     <g id="text_5">
      <!-- 200 -->
      <g transform="translate(1036.07947 334.998438) scale(0.1 -0.1)">
       <defs>
        <path id="DejaVuSans-32" d="M 1228 531 
L 3431 531 
L 3431 0 
L 469 0 
L 469 531 
Q 828 903 1448 1529 
Q 2069 2156 2228 2338 
Q 2531 2678 2651 2914 
Q 2772 3150 2772 3378 
Q 2772 3750 2511 3984 
Q 2250 4219 1831 4219 
Q 1534 4219 1204 4116 
Q 875 4013 500 3803 
L 500 4441 
Q 881 4594 1212 4672 
Q 1544 4750 1819 4750 
Q 2544 4750 2975 4387 
Q 3406 4025 3406 3419 
Q 3406 3131 3298 2873 
Q 3191 2616 2906 2266 
Q 2828 2175 2409 1742 
Q 1991 1309 1228 531 
z
" transform="scale(0.015625)"/>
       </defs>
       <use xlink:href="#DejaVuSans-32"/>
       <use xlink:href="#DejaVuSans-30" x="63.623047"/>
       <use xlink:href="#DejaVuSans-30" x="127.246094"/>
      </g>
     </g>
    </g>
    <g id="xtick_6">
     <g id="line2d_6">
      <g>
       <use xlink:href="#m859358e221" x="1249.347207" y="320.4" style="stroke: #000000; stroke-width: 0.8"/>
      </g>
     </g>
     <g id="text_6">
      <!-- 250 -->
      <g transform="translate(1239.803457 334.998438) scale(0.1 -0.1)">
       <use xlink:href="#DejaVuSans-32"/>
       <use xlink:href="#DejaVuSans-35" x="63.623047"/>
       <use xlink:href="#DejaVuSans-30" x="127.246094"/>
      </g>
     </g>
    </g>
   </g>
   <g id="matplotlib.axis_2">
    <g id="ytick_1">
     <g id="line2d_7">
      <defs>
       <path id="m3971327201" d="M 0 0 
L -3.5 0 
" style="stroke: #000000; stroke-width: 0.8"/>
      </defs>
      <g>
       <use xlink:href="#m3971327201" x="180" y="280.18341" style="stroke: #000000; stroke-width: 0.8"/>
      </g>
     </g>
     <g id="text_7">
      <!-- −1.0 -->
      <g transform="translate(148.717187 283.982629) scale(0.1 -0.1)">
       <defs>
        <path id="DejaVuSans-2212" d="M 678 2272 
L 4684 2272 
L 4684 1741 
L 678 1741 
L 678 2272 
z
" transform="scale(0.015625)"/>
        <path id="DejaVuSans-2e" d="M 684 794 
L 1344 794 
L 1344 0 
L 684 0 
L 684 794 
z
" transform="scale(0.015625)"/>
       </defs>
       <use xlink:href="#DejaVuSans-2212"/>
       <use xlink:href="#DejaVuSans-31" x="83.789062"/>
       <use xlink:href="#DejaVuSans-2e" x="147.412109"/>
       <use xlink:href="#DejaVuSans-30" x="179.199219"/>
      </g>
     </g>
    </g>
    <g id="ytick_2">
     <g id="line2d_8">
      <g>
       <use xlink:href="#m3971327201" x="180" y="236.283346" style="stroke: #000000; stroke-width: 0.8"/>
      </g>
     </g>
     <g id="text_8">
      <!-- −0.5 -->
      <g transform="translate(148.717187 240.082564) scale(0.1 -0.1)">
       <use xlink:href="#DejaVuSans-2212"/>
       <use xlink:href="#DejaVuSans-30" x="83.789062"/>
       <use xlink:href="#DejaVuSans-2e" x="147.412109"/>
       <use xlink:href="#DejaVuSans-35" x="179.199219"/>
      </g>
     </g>
    </g>
    <g id="ytick_3">
     <g id="line2d_9">
      <g>
       <use xlink:href="#m3971327201" x="180" y="192.383281" style="stroke: #000000; stroke-width: 0.8"/>
      </g>
     </g>
     <g id="text_9">
      <!-- 0.0 -->
      <g transform="translate(157.096875 196.1825) scale(0.1 -0.1)">
       <use xlink:href="#DejaVuSans-30"/>
       <use xlink:href="#DejaVuSans-2e" x="63.623047"/>
       <use xlink:href="#DejaVuSans-30" x="95.410156"/>
      </g>
     </g>
    </g>
    <g id="ytick_4">
     <g id="line2d_10">
      <g>
       <use xlink:href="#m3971327201" x="180" y="148.483217" style="stroke: #000000; stroke-width: 0.8"/>
      </g>
     </g>
     <g id="text_10">
      <!-- 0.5 -->
      <g transform="translate(157.096875 152.282436) scale(0.1 -0.1)">
       <use xlink:href="#DejaVuSans-30"/>
       <use xlink:href="#DejaVuSans-2e" x="63.623047"/>
       <use xlink:href="#DejaVuSans-35" x="95.410156"/>
      </g>
     </g>
    </g>
    <g id="ytick_5">
     <g id="line2d_11">
      <g>
       <use xlink:href="#m3971327201" x="180" y="104.583153" style="stroke: #000000; stroke-width: 0.8"/>
      </g>
     </g>
     <g id="text_11">
      <!-- 1.0 -->
      <g transform="translate(157.096875 108.382371) scale(0.1 -0.1)">
       <use xlink:href="#DejaVuSans-31"/>
       <use xlink:href="#DejaVuSans-2e" x="63.623047"/>
       <use xlink:href="#DejaVuSans-30" x="95.410156"/>
      </g>
     </g>
    </g>
    <g id="ytick_6">
     <g id="line2d_12">
      <g>
       <use xlink:href="#m3971327201" x="180" y="60.683088" style="stroke: #000000; stroke-width: 0.8"/>
      </g>
     </g>
     <g id="text_12">
      <!-- 1.5 -->
      <g transform="translate(157.096875 64.482307) scale(0.1 -0.1)">
       <use xlink:href="#DejaVuSans-31"/>
       <use xlink:href="#DejaVuSans-2e" x="63.623047"/>
       <use xlink:href="#DejaVuSans-35" x="95.410156"/>
      </g>
     </g>
    </g>
   </g>
   <g id="line2d_13">
    <path d="M 230.727273 270.563159 
L 234.801752 262.163785 
L 238.876232 261.333882 
L 242.950712 266.249603 
L 247.025192 277.813284 
L 251.099671 280.082876 
L 255.174151 296.192361 
L 259.248631 273.942959 
L 263.323111 293.883356 
L 267.39759 288.155867 
L 271.47207 297.482419 
L 275.54655 289.462489 
L 279.62103 279.665844 
L 283.695509 288.534389 
L 287.769989 261.128588 
L 291.844469 281.560421 
L 295.918949 288.367891 
L 299.993428 307.8 
L 304.067908 286.907425 
L 308.142388 285.517691 
L 312.216867 265.035898 
L 316.291347 232.487296 
L 320.365827 217.431535 
L 324.440307 242.776994 
L 328.514786 247.384601 
L 332.589266 250.989607 
L 336.663746 252.236206 
L 340.738226 274.72827 
L 344.812705 292.812146 
L 348.887185 302.679359 
L 352.961665 282.052004 
L 357.036145 293.244698 
L 361.110624 274.455521 
L 365.185104 274.631979 
L 369.259584 281.151996 
L 373.334064 279.200196 
L 377.408543 288.200359 
L 381.483023 305.277075 
L 385.557503 279.430995 
L 389.631982 277.159087 
L 393.706462 296.635812 
L 397.780942 269.856989 
L 401.855422 274.900563 
L 405.929901 271.970545 
L 410.004381 256.00442 
L 414.078861 255.662303 
L 418.153341 250.571078 
L 422.22782 265.249612 
L 426.3023 246.924632 
L 430.37678 270.768586 
L 434.45126 264.469342 
L 438.525739 295.278548 
L 442.600219 288.643706 
L 446.674699 260.179076 
L 450.749179 266.148223 
L 454.823658 285.131097 
L 458.898138 284.329789 
L 462.972618 267.163492 
L 467.047097 268.688089 
L 471.121577 255.357937 
L 475.196057 252.261394 
L 479.270537 271.442488 
L 483.345016 279.594702 
L 487.419496 260.716728 
L 491.493976 243.034042 
L 495.568456 221.452762 
L 499.642935 211.241089 
L 503.717415 241.455153 
L 511.866375 264.072473 
L 515.940854 251.994119 
L 520.015334 246.01169 
L 524.089814 239.184758 
L 528.164294 226.775873 
L 532.238773 209.469207 
L 536.313253 183.025551 
L 540.387733 187.9836 
L 544.462212 171.249666 
L 548.536692 190.455031 
L 552.611172 223.263807 
L 556.685652 202.928036 
L 560.760131 211.213654 
L 564.834611 197.50086 
L 568.909091 203.682127 
L 572.983571 231.005252 
L 577.05805 247.069509 
L 581.13253 242.041221 
L 585.20701 265.182833 
L 589.28149 303.882602 
L 593.355969 301.527866 
L 597.430449 279.324087 
L 601.504929 276.492401 
L 605.579409 294.80154 
L 609.653888 276.18143 
L 613.728368 272.809899 
L 617.802848 255.062681 
L 621.877327 297.515424 
L 625.951807 281.673297 
L 630.026287 292.571185 
L 638.175246 302.902273 
L 642.249726 303.276256 
L 646.324206 277.567601 
L 650.398686 297.20396 
L 654.473165 301.090882 
L 658.547645 280.238439 
L 662.622125 262.99718 
L 666.696605 256.470908 
L 670.771084 258.984692 
L 674.845564 267.241475 
L 678.920044 269.493627 
L 682.994524 251.952338 
L 687.069003 257.220534 
L 691.143483 229.361008 
L 695.217963 248.486399 
L 699.292442 248.727211 
L 703.366922 252.529624 
L 707.441402 249.972576 
L 711.515882 237.010316 
L 715.590361 252.387088 
L 719.664841 295.197512 
L 723.739321 279.794172 
L 727.813801 252.707059 
L 731.88828 253.02935 
L 735.96276 263.208439 
L 740.03724 266.990863 
L 744.11172 261.39023 
L 748.186199 288.779525 
L 752.260679 267.649363 
L 756.335159 236.03463 
L 760.409639 243.494259 
L 764.484118 201.925598 
L 768.558598 207.358831 
L 772.633078 216.540333 
L 776.707558 211.905288 
L 780.782037 190.695592 
L 784.856517 176.221417 
L 788.930997 143.028925 
L 793.005476 115.240791 
L 797.079956 104.19514 
L 801.154436 94.832629 
L 805.228916 107.786896 
L 809.303395 75.263393 
L 813.377875 68.49977 
L 817.452355 91.981807 
L 821.526835 86.142529 
L 825.601314 86.915007 
L 833.750274 104.928708 
L 837.824754 88.613478 
L 841.899233 79.506764 
L 845.973713 95.129505 
L 850.048193 96.260975 
L 854.122673 96.344464 
L 862.271632 91.969155 
L 866.346112 93.084156 
L 870.420591 90.689649 
L 874.495071 123.973594 
L 878.569551 108.643265 
L 882.644031 88.975259 
L 886.71851 92.00596 
L 890.79299 102.426896 
L 894.86747 84.42426 
L 898.94195 82.820284 
L 903.016429 88.087159 
L 907.090909 112.112101 
L 911.165389 112.901715 
L 915.239869 109.513638 
L 919.314348 93.71126 
L 923.388828 87.597789 
L 927.463308 118.896535 
L 935.612267 82.131555 
L 939.686747 95.099946 
L 943.761227 106.312139 
L 947.835706 106.661171 
L 951.910186 96.278714 
L 955.984666 109.564912 
L 960.059146 91.771363 
L 964.133625 104.53971 
L 968.208105 76.191342 
L 972.282585 103.554818 
L 976.357065 104.879624 
L 980.431544 109.927753 
L 984.506024 101.961549 
L 988.580504 129.415095 
L 992.654984 117.73342 
L 996.729463 94.388134 
L 1000.803943 120.754217 
L 1004.878423 101.58731 
L 1008.952903 79.355996 
L 1013.027382 74.19002 
L 1017.101862 95.462666 
L 1021.176342 93.492221 
L 1025.250821 87.384167 
L 1029.325301 75.534409 
L 1033.399781 89.019222 
L 1037.474261 95.738403 
L 1041.54874 75.640479 
L 1045.62322 101.057273 
L 1049.6977 123.229119 
L 1053.77218 111.681975 
L 1057.846659 109.115151 
L 1061.921139 110.398207 
L 1065.995619 126.882788 
L 1070.070099 107.470363 
L 1078.219058 73.606804 
L 1082.293538 55.8 
L 1086.368018 72.089992 
L 1090.442497 81.622589 
L 1094.516977 100.253765 
L 1098.591457 92.998024 
L 1102.665936 80.553251 
L 1106.740416 90.254015 
L 1110.814896 88.281922 
L 1114.889376 100.556802 
L 1118.963855 97.234734 
L 1123.038335 96.325762 
L 1127.112815 86.291562 
L 1131.187295 93.930418 
L 1135.261774 78.34696 
L 1139.336254 98.978498 
L 1143.410734 115.932112 
L 1147.485214 105.136959 
L 1151.559693 86.674993 
L 1155.634173 80.808252 
L 1159.708653 71.530706 
L 1163.783133 76.258924 
L 1167.857612 75.916338 
L 1171.932092 84.758079 
L 1176.006572 93.999588 
L 1180.081051 110.701612 
L 1184.155531 95.518516 
L 1188.230011 87.392571 
L 1192.304491 104.097563 
L 1196.37897 148.631184 
L 1200.45345 159.529712 
L 1204.52793 171.588413 
L 1208.60241 198.744728 
L 1212.676889 220.544361 
L 1216.751369 260.849623 
L 1220.825849 290.761584 
L 1224.900329 292.991973 
L 1228.974808 261.4845 
L 1233.049288 275.847683 
L 1237.123768 261.7162 
L 1241.198248 307.571772 
L 1245.272727 281.339993 
L 1245.272727 281.339993 
" clip-path="url(#p7d5c02a060)" style="fill: none; stroke: #f08080; stroke-width: 5; stroke-linecap: square"/>
   </g>
   <g id="patch_3">
    <path d="M 180 320.4 
L 180 43.2 
" style="fill: none; stroke: #000000; stroke-width: 0.8; stroke-linejoin: miter; stroke-linecap: square"/>
   </g>
   <g id="patch_4">
    <path d="M 1296 320.4 
L 1296 43.2 
" style="fill: none; stroke: #000000; stroke-width: 0.8; stroke-linejoin: miter; stroke-linecap: square"/>
   </g>
   <g id="patch_5">
    <path d="M 180 320.4 
L 1296 320.4 
" style="fill: none; stroke: #000000; stroke-width: 0.8; stroke-linejoin: miter; stroke-linecap: square"/>
   </g>
   <g id="patch_6">
    <path d="M 180 43.2 
L 1296 43.2 
" style="fill: none; stroke: #000000; stroke-width: 0.8; stroke-linejoin: miter; stroke-linecap: square"/>
   </g>
  </g>
 </g>
 <defs>
  <clipPath id="p7d5c02a060">
   <rect x="180" y="43.2" width="1116" height="277.2"/>
  </clipPath>
 </defs>
</svg>
