<?xml version="1.0" encoding="utf-8" standalone="no"?>
<!DOCTYPE svg PUBLIC "-//W3C//DTD SVG 1.1//EN"
  "http://www.w3.org/Graphics/SVG/1.1/DTD/svg11.dtd">
<!-- Created with matplotlib (https://matplotlib.org/) -->
<svg height="720pt" version="1.1" viewBox="0 0 1080 720" width="1080pt" xmlns="http://www.w3.org/2000/svg" xmlns:xlink="http://www.w3.org/1999/xlink">
 <defs>
  <style type="text/css">
*{stroke-linecap:butt;stroke-linejoin:round;}
  </style>
 </defs>
 <g id="figure_1">
  <g id="patch_1">
   <path d="M 0 720 
L 1080 720 
L 1080 0 
L 0 0 
z
" style="fill:#ffffff;"/>
  </g>
  <g id="axes_1">
   <g id="patch_2">
    <path d="M 135 630 
L 972 630 
L 972 86.4 
L 135 86.4 
z
" style="fill:#ffffff;"/>
   </g>
   <g id="matplotlib.axis_1">
    <g id="xtick_1">
     <g id="line2d_1">
      <defs>
       <path d="M 0 0 
L 0 3.5 
" id="m965d84d62f" style="stroke:#000000;stroke-width:0.8;"/>
      </defs>
      <g>
       <use style="stroke:#000000;stroke-width:0.8;" x="173.045455" xlink:href="#m965d84d62f" y="630"/>
      </g>
     </g>
     <g id="text_1">
      <!-- 0.05 -->
      <defs>
       <path d="M 31.78125 66.40625 
Q 24.171875 66.40625 20.328125 58.90625 
Q 16.5 51.421875 16.5 36.375 
Q 16.5 21.390625 20.328125 13.890625 
Q 24.171875 6.390625 31.78125 6.390625 
Q 39.453125 6.390625 43.28125 13.890625 
Q 47.125 21.390625 47.125 36.375 
Q 47.125 51.421875 43.28125 58.90625 
Q 39.453125 66.40625 31.78125 66.40625 
z
M 31.78125 74.21875 
Q 44.046875 74.21875 50.515625 64.515625 
Q 56.984375 54.828125 56.984375 36.375 
Q 56.984375 17.96875 50.515625 8.265625 
Q 44.046875 -1.421875 31.78125 -1.421875 
Q 19.53125 -1.421875 13.0625 8.265625 
Q 6.59375 17.96875 6.59375 36.375 
Q 6.59375 54.828125 13.0625 64.515625 
Q 19.53125 74.21875 31.78125 74.21875 
z
" id="DejaVuSans-48"/>
       <path d="M 10.6875 12.40625 
L 21 12.40625 
L 21 0 
L 10.6875 0 
z
" id="DejaVuSans-46"/>
       <path d="M 10.796875 72.90625 
L 49.515625 72.90625 
L 49.515625 64.59375 
L 19.828125 64.59375 
L 19.828125 46.734375 
Q 21.96875 47.46875 24.109375 47.828125 
Q 26.265625 48.1875 28.421875 48.1875 
Q 40.625 48.1875 47.75 41.5 
Q 54.890625 34.8125 54.890625 23.390625 
Q 54.890625 11.625 47.5625 5.09375 
Q 40.234375 -1.421875 26.90625 -1.421875 
Q 22.3125 -1.421875 17.546875 -0.640625 
Q 12.796875 0.140625 7.71875 1.703125 
L 7.71875 11.625 
Q 12.109375 9.234375 16.796875 8.0625 
Q 21.484375 6.890625 26.703125 6.890625 
Q 35.15625 6.890625 40.078125 11.328125 
Q 45.015625 15.765625 45.015625 23.390625 
Q 45.015625 31 40.078125 35.4375 
Q 35.15625 39.890625 26.703125 39.890625 
Q 22.75 39.890625 18.8125 39.015625 
Q 14.890625 38.140625 10.796875 36.28125 
z
" id="DejaVuSans-53"/>
      </defs>
      <g transform="translate(153.006392 650.677187)scale(0.18 -0.18)">
       <use xlink:href="#DejaVuSans-48"/>
       <use x="63.623047" xlink:href="#DejaVuSans-46"/>
       <use x="95.410156" xlink:href="#DejaVuSans-48"/>
       <use x="159.033203" xlink:href="#DejaVuSans-53"/>
      </g>
     </g>
    </g>
    <g id="xtick_2">
     <g id="line2d_2">
      <g>
       <use style="stroke:#000000;stroke-width:0.8;" x="281.746753" xlink:href="#m965d84d62f" y="630"/>
      </g>
     </g>
     <g id="text_2">
      <!-- 0.10 -->
      <defs>
       <path d="M 12.40625 8.296875 
L 28.515625 8.296875 
L 28.515625 63.921875 
L 10.984375 60.40625 
L 10.984375 69.390625 
L 28.421875 72.90625 
L 38.28125 72.90625 
L 38.28125 8.296875 
L 54.390625 8.296875 
L 54.390625 0 
L 12.40625 0 
z
" id="DejaVuSans-49"/>
      </defs>
      <g transform="translate(261.707691 650.677187)scale(0.18 -0.18)">
       <use xlink:href="#DejaVuSans-48"/>
       <use x="63.623047" xlink:href="#DejaVuSans-46"/>
       <use x="95.410156" xlink:href="#DejaVuSans-49"/>
       <use x="159.033203" xlink:href="#DejaVuSans-48"/>
      </g>
     </g>
    </g>
    <g id="xtick_3">
     <g id="line2d_3">
      <g>
       <use style="stroke:#000000;stroke-width:0.8;" x="390.448052" xlink:href="#m965d84d62f" y="630"/>
      </g>
     </g>
     <g id="text_3">
      <!-- 0.15 -->
      <g transform="translate(370.408989 650.677187)scale(0.18 -0.18)">
       <use xlink:href="#DejaVuSans-48"/>
       <use x="63.623047" xlink:href="#DejaVuSans-46"/>
       <use x="95.410156" xlink:href="#DejaVuSans-49"/>
       <use x="159.033203" xlink:href="#DejaVuSans-53"/>
      </g>
     </g>
    </g>
    <g id="xtick_4">
     <g id="line2d_4">
      <g>
       <use style="stroke:#000000;stroke-width:0.8;" x="499.149351" xlink:href="#m965d84d62f" y="630"/>
      </g>
     </g>
     <g id="text_4">
      <!-- 0.20 -->
      <defs>
       <path d="M 19.1875 8.296875 
L 53.609375 8.296875 
L 53.609375 0 
L 7.328125 0 
L 7.328125 8.296875 
Q 12.9375 14.109375 22.625 23.890625 
Q 32.328125 33.6875 34.8125 36.53125 
Q 39.546875 41.84375 41.421875 45.53125 
Q 43.3125 49.21875 43.3125 52.78125 
Q 43.3125 58.59375 39.234375 62.25 
Q 35.15625 65.921875 28.609375 65.921875 
Q 23.96875 65.921875 18.8125 64.3125 
Q 13.671875 62.703125 7.8125 59.421875 
L 7.8125 69.390625 
Q 13.765625 71.78125 18.9375 73 
Q 24.125 74.21875 28.421875 74.21875 
Q 39.75 74.21875 46.484375 68.546875 
Q 53.21875 62.890625 53.21875 53.421875 
Q 53.21875 48.921875 51.53125 44.890625 
Q 49.859375 40.875 45.40625 35.40625 
Q 44.1875 33.984375 37.640625 27.21875 
Q 31.109375 20.453125 19.1875 8.296875 
z
" id="DejaVuSans-50"/>
      </defs>
      <g transform="translate(479.110288 650.677187)scale(0.18 -0.18)">
       <use xlink:href="#DejaVuSans-48"/>
       <use x="63.623047" xlink:href="#DejaVuSans-46"/>
       <use x="95.410156" xlink:href="#DejaVuSans-50"/>
       <use x="159.033203" xlink:href="#DejaVuSans-48"/>
      </g>
     </g>
    </g>
    <g id="xtick_5">
     <g id="line2d_5">
      <g>
       <use style="stroke:#000000;stroke-width:0.8;" x="607.850649" xlink:href="#m965d84d62f" y="630"/>
      </g>
     </g>
     <g id="text_5">
      <!-- 0.25 -->
      <g transform="translate(587.811587 650.677187)scale(0.18 -0.18)">
       <use xlink:href="#DejaVuSans-48"/>
       <use x="63.623047" xlink:href="#DejaVuSans-46"/>
       <use x="95.410156" xlink:href="#DejaVuSans-50"/>
       <use x="159.033203" xlink:href="#DejaVuSans-53"/>
      </g>
     </g>
    </g>
    <g id="xtick_6">
     <g id="line2d_6">
      <g>
       <use style="stroke:#000000;stroke-width:0.8;" x="716.551948" xlink:href="#m965d84d62f" y="630"/>
      </g>
     </g>
     <g id="text_6">
      <!-- 0.30 -->
      <defs>
       <path d="M 40.578125 39.3125 
Q 47.65625 37.796875 51.625 33 
Q 55.609375 28.21875 55.609375 21.1875 
Q 55.609375 10.40625 48.1875 4.484375 
Q 40.765625 -1.421875 27.09375 -1.421875 
Q 22.515625 -1.421875 17.65625 -0.515625 
Q 12.796875 0.390625 7.625 2.203125 
L 7.625 11.71875 
Q 11.71875 9.328125 16.59375 8.109375 
Q 21.484375 6.890625 26.8125 6.890625 
Q 36.078125 6.890625 40.9375 10.546875 
Q 45.796875 14.203125 45.796875 21.1875 
Q 45.796875 27.640625 41.28125 31.265625 
Q 36.765625 34.90625 28.71875 34.90625 
L 20.21875 34.90625 
L 20.21875 43.015625 
L 29.109375 43.015625 
Q 36.375 43.015625 40.234375 45.921875 
Q 44.09375 48.828125 44.09375 54.296875 
Q 44.09375 59.90625 40.109375 62.90625 
Q 36.140625 65.921875 28.71875 65.921875 
Q 24.65625 65.921875 20.015625 65.03125 
Q 15.375 64.15625 9.8125 62.3125 
L 9.8125 71.09375 
Q 15.4375 72.65625 20.34375 73.4375 
Q 25.25 74.21875 29.59375 74.21875 
Q 40.828125 74.21875 47.359375 69.109375 
Q 53.90625 64.015625 53.90625 55.328125 
Q 53.90625 49.265625 50.4375 45.09375 
Q 46.96875 40.921875 40.578125 39.3125 
z
" id="DejaVuSans-51"/>
      </defs>
      <g transform="translate(696.512886 650.677187)scale(0.18 -0.18)">
       <use xlink:href="#DejaVuSans-48"/>
       <use x="63.623047" xlink:href="#DejaVuSans-46"/>
       <use x="95.410156" xlink:href="#DejaVuSans-51"/>
       <use x="159.033203" xlink:href="#DejaVuSans-48"/>
      </g>
     </g>
    </g>
    <g id="xtick_7">
     <g id="line2d_7">
      <g>
       <use style="stroke:#000000;stroke-width:0.8;" x="825.253247" xlink:href="#m965d84d62f" y="630"/>
      </g>
     </g>
     <g id="text_7">
      <!-- 0.35 -->
      <g transform="translate(805.214184 650.677187)scale(0.18 -0.18)">
       <use xlink:href="#DejaVuSans-48"/>
       <use x="63.623047" xlink:href="#DejaVuSans-46"/>
       <use x="95.410156" xlink:href="#DejaVuSans-51"/>
       <use x="159.033203" xlink:href="#DejaVuSans-53"/>
      </g>
     </g>
    </g>
    <g id="xtick_8">
     <g id="line2d_8">
      <g>
       <use style="stroke:#000000;stroke-width:0.8;" x="933.954545" xlink:href="#m965d84d62f" y="630"/>
      </g>
     </g>
     <g id="text_8">
      <!-- 0.40 -->
      <defs>
       <path d="M 37.796875 64.3125 
L 12.890625 25.390625 
L 37.796875 25.390625 
z
M 35.203125 72.90625 
L 47.609375 72.90625 
L 47.609375 25.390625 
L 58.015625 25.390625 
L 58.015625 17.1875 
L 47.609375 17.1875 
L 47.609375 0 
L 37.796875 0 
L 37.796875 17.1875 
L 4.890625 17.1875 
L 4.890625 26.703125 
z
" id="DejaVuSans-52"/>
      </defs>
      <g transform="translate(913.915483 650.677187)scale(0.18 -0.18)">
       <use xlink:href="#DejaVuSans-48"/>
       <use x="63.623047" xlink:href="#DejaVuSans-46"/>
       <use x="95.410156" xlink:href="#DejaVuSans-52"/>
       <use x="159.033203" xlink:href="#DejaVuSans-48"/>
      </g>
     </g>
    </g>
    <g id="text_9">
     <!-- $\lambda$ -->
     <defs>
      <path d="M 36.71875 67.4375 
L 48.828125 0 
L 39.3125 0 
L 31.84375 40.4375 
L 5.125 0 
L -4.390625 0 
L 29.734375 52.4375 
L 28.03125 62.109375 
Q 26.953125 68.265625 21.734375 68.265625 
L 17.046875 68.265625 
L 18.5 75.984375 
L 24.21875 75.875 
Q 35.203125 75.734375 36.71875 67.4375 
z
" id="DejaVuSans-Oblique-955"/>
     </defs>
     <g transform="translate(548.1 672.097813)scale(0.18 -0.18)">
      <use transform="translate(0 0.015625)" xlink:href="#DejaVuSans-Oblique-955"/>
     </g>
    </g>
   </g>
   <g id="matplotlib.axis_2">
    <g id="ytick_1">
     <g id="line2d_9">
      <defs>
       <path d="M 0 0 
L -3.5 0 
" id="m8cfa471d05" style="stroke:#000000;stroke-width:0.8;"/>
      </defs>
      <g>
       <use style="stroke:#000000;stroke-width:0.8;" x="135" xlink:href="#m8cfa471d05" y="605.290909"/>
      </g>
     </g>
     <g id="text_10">
      <!-- 0 -->
      <g transform="translate(116.5475 612.129503)scale(0.18 -0.18)">
       <use xlink:href="#DejaVuSans-48"/>
      </g>
     </g>
    </g>
    <g id="ytick_2">
     <g id="line2d_10">
      <g>
       <use style="stroke:#000000;stroke-width:0.8;" x="135" xlink:href="#m8cfa471d05" y="542.337811"/>
      </g>
     </g>
     <g id="text_11">
      <!-- 20 -->
      <g transform="translate(105.095 549.176405)scale(0.18 -0.18)">
       <use xlink:href="#DejaVuSans-50"/>
       <use x="63.623047" xlink:href="#DejaVuSans-48"/>
      </g>
     </g>
    </g>
    <g id="ytick_3">
     <g id="line2d_11">
      <g>
       <use style="stroke:#000000;stroke-width:0.8;" x="135" xlink:href="#m8cfa471d05" y="479.384713"/>
      </g>
     </g>
     <g id="text_12">
      <!-- 40 -->
      <g transform="translate(105.095 486.223307)scale(0.18 -0.18)">
       <use xlink:href="#DejaVuSans-52"/>
       <use x="63.623047" xlink:href="#DejaVuSans-48"/>
      </g>
     </g>
    </g>
    <g id="ytick_4">
     <g id="line2d_12">
      <g>
       <use style="stroke:#000000;stroke-width:0.8;" x="135" xlink:href="#m8cfa471d05" y="416.431616"/>
      </g>
     </g>
     <g id="text_13">
      <!-- 60 -->
      <defs>
       <path d="M 33.015625 40.375 
Q 26.375 40.375 22.484375 35.828125 
Q 18.609375 31.296875 18.609375 23.390625 
Q 18.609375 15.53125 22.484375 10.953125 
Q 26.375 6.390625 33.015625 6.390625 
Q 39.65625 6.390625 43.53125 10.953125 
Q 47.40625 15.53125 47.40625 23.390625 
Q 47.40625 31.296875 43.53125 35.828125 
Q 39.65625 40.375 33.015625 40.375 
z
M 52.59375 71.296875 
L 52.59375 62.3125 
Q 48.875 64.0625 45.09375 64.984375 
Q 41.3125 65.921875 37.59375 65.921875 
Q 27.828125 65.921875 22.671875 59.328125 
Q 17.53125 52.734375 16.796875 39.40625 
Q 19.671875 43.65625 24.015625 45.921875 
Q 28.375 48.1875 33.59375 48.1875 
Q 44.578125 48.1875 50.953125 41.515625 
Q 57.328125 34.859375 57.328125 23.390625 
Q 57.328125 12.15625 50.6875 5.359375 
Q 44.046875 -1.421875 33.015625 -1.421875 
Q 20.359375 -1.421875 13.671875 8.265625 
Q 6.984375 17.96875 6.984375 36.375 
Q 6.984375 53.65625 15.1875 63.9375 
Q 23.390625 74.21875 37.203125 74.21875 
Q 40.921875 74.21875 44.703125 73.484375 
Q 48.484375 72.75 52.59375 71.296875 
z
" id="DejaVuSans-54"/>
      </defs>
      <g transform="translate(105.095 423.270209)scale(0.18 -0.18)">
       <use xlink:href="#DejaVuSans-54"/>
       <use x="63.623047" xlink:href="#DejaVuSans-48"/>
      </g>
     </g>
    </g>
    <g id="ytick_5">
     <g id="line2d_13">
      <g>
       <use style="stroke:#000000;stroke-width:0.8;" x="135" xlink:href="#m8cfa471d05" y="353.478518"/>
      </g>
     </g>
     <g id="text_14">
      <!-- 80 -->
      <defs>
       <path d="M 31.78125 34.625 
Q 24.75 34.625 20.71875 30.859375 
Q 16.703125 27.09375 16.703125 20.515625 
Q 16.703125 13.921875 20.71875 10.15625 
Q 24.75 6.390625 31.78125 6.390625 
Q 38.8125 6.390625 42.859375 10.171875 
Q 46.921875 13.96875 46.921875 20.515625 
Q 46.921875 27.09375 42.890625 30.859375 
Q 38.875 34.625 31.78125 34.625 
z
M 21.921875 38.8125 
Q 15.578125 40.375 12.03125 44.71875 
Q 8.5 49.078125 8.5 55.328125 
Q 8.5 64.0625 14.71875 69.140625 
Q 20.953125 74.21875 31.78125 74.21875 
Q 42.671875 74.21875 48.875 69.140625 
Q 55.078125 64.0625 55.078125 55.328125 
Q 55.078125 49.078125 51.53125 44.71875 
Q 48 40.375 41.703125 38.8125 
Q 48.828125 37.15625 52.796875 32.3125 
Q 56.78125 27.484375 56.78125 20.515625 
Q 56.78125 9.90625 50.3125 4.234375 
Q 43.84375 -1.421875 31.78125 -1.421875 
Q 19.734375 -1.421875 13.25 4.234375 
Q 6.78125 9.90625 6.78125 20.515625 
Q 6.78125 27.484375 10.78125 32.3125 
Q 14.796875 37.15625 21.921875 38.8125 
z
M 18.3125 54.390625 
Q 18.3125 48.734375 21.84375 45.5625 
Q 25.390625 42.390625 31.78125 42.390625 
Q 38.140625 42.390625 41.71875 45.5625 
Q 45.3125 48.734375 45.3125 54.390625 
Q 45.3125 60.0625 41.71875 63.234375 
Q 38.140625 66.40625 31.78125 66.40625 
Q 25.390625 66.40625 21.84375 63.234375 
Q 18.3125 60.0625 18.3125 54.390625 
z
" id="DejaVuSans-56"/>
      </defs>
      <g transform="translate(105.095 360.317111)scale(0.18 -0.18)">
       <use xlink:href="#DejaVuSans-56"/>
       <use x="63.623047" xlink:href="#DejaVuSans-48"/>
      </g>
     </g>
    </g>
    <g id="ytick_6">
     <g id="line2d_14">
      <g>
       <use style="stroke:#000000;stroke-width:0.8;" x="135" xlink:href="#m8cfa471d05" y="290.52542"/>
      </g>
     </g>
     <g id="text_15">
      <!-- 100 -->
      <g transform="translate(93.6425 297.364014)scale(0.18 -0.18)">
       <use xlink:href="#DejaVuSans-49"/>
       <use x="63.623047" xlink:href="#DejaVuSans-48"/>
       <use x="127.246094" xlink:href="#DejaVuSans-48"/>
      </g>
     </g>
    </g>
    <g id="ytick_7">
     <g id="line2d_15">
      <g>
       <use style="stroke:#000000;stroke-width:0.8;" x="135" xlink:href="#m8cfa471d05" y="227.572322"/>
      </g>
     </g>
     <g id="text_16">
      <!-- 120 -->
      <g transform="translate(93.6425 234.410916)scale(0.18 -0.18)">
       <use xlink:href="#DejaVuSans-49"/>
       <use x="63.623047" xlink:href="#DejaVuSans-50"/>
       <use x="127.246094" xlink:href="#DejaVuSans-48"/>
      </g>
     </g>
    </g>
    <g id="ytick_8">
     <g id="line2d_16">
      <g>
       <use style="stroke:#000000;stroke-width:0.8;" x="135" xlink:href="#m8cfa471d05" y="164.619224"/>
      </g>
     </g>
     <g id="text_17">
      <!-- 140 -->
      <g transform="translate(93.6425 171.457818)scale(0.18 -0.18)">
       <use xlink:href="#DejaVuSans-49"/>
       <use x="63.623047" xlink:href="#DejaVuSans-52"/>
       <use x="127.246094" xlink:href="#DejaVuSans-48"/>
      </g>
     </g>
    </g>
    <g id="ytick_9">
     <g id="line2d_17">
      <g>
       <use style="stroke:#000000;stroke-width:0.8;" x="135" xlink:href="#m8cfa471d05" y="101.666126"/>
      </g>
     </g>
     <g id="text_18">
      <!-- 160 -->
      <g transform="translate(93.6425 108.50472)scale(0.18 -0.18)">
       <use xlink:href="#DejaVuSans-49"/>
       <use x="63.623047" xlink:href="#DejaVuSans-54"/>
       <use x="127.246094" xlink:href="#DejaVuSans-48"/>
      </g>
     </g>
    </g>
    <g id="text_19">
     <!-- Successful identifications -->
     <defs>
      <path d="M 53.515625 70.515625 
L 53.515625 60.890625 
Q 47.90625 63.578125 42.921875 64.890625 
Q 37.9375 66.21875 33.296875 66.21875 
Q 25.25 66.21875 20.875 63.09375 
Q 16.5 59.96875 16.5 54.203125 
Q 16.5 49.359375 19.40625 46.890625 
Q 22.3125 44.4375 30.421875 42.921875 
L 36.375 41.703125 
Q 47.40625 39.59375 52.65625 34.296875 
Q 57.90625 29 57.90625 20.125 
Q 57.90625 9.515625 50.796875 4.046875 
Q 43.703125 -1.421875 29.984375 -1.421875 
Q 24.8125 -1.421875 18.96875 -0.25 
Q 13.140625 0.921875 6.890625 3.21875 
L 6.890625 13.375 
Q 12.890625 10.015625 18.65625 8.296875 
Q 24.421875 6.59375 29.984375 6.59375 
Q 38.421875 6.59375 43.015625 9.90625 
Q 47.609375 13.234375 47.609375 19.390625 
Q 47.609375 24.75 44.3125 27.78125 
Q 41.015625 30.8125 33.5 32.328125 
L 27.484375 33.5 
Q 16.453125 35.6875 11.515625 40.375 
Q 6.59375 45.0625 6.59375 53.421875 
Q 6.59375 63.09375 13.40625 68.65625 
Q 20.21875 74.21875 32.171875 74.21875 
Q 37.3125 74.21875 42.625 73.28125 
Q 47.953125 72.359375 53.515625 70.515625 
z
" id="DejaVuSans-83"/>
      <path d="M 8.5 21.578125 
L 8.5 54.6875 
L 17.484375 54.6875 
L 17.484375 21.921875 
Q 17.484375 14.15625 20.5 10.265625 
Q 23.53125 6.390625 29.59375 6.390625 
Q 36.859375 6.390625 41.078125 11.03125 
Q 45.3125 15.671875 45.3125 23.6875 
L 45.3125 54.6875 
L 54.296875 54.6875 
L 54.296875 0 
L 45.3125 0 
L 45.3125 8.40625 
Q 42.046875 3.421875 37.71875 1 
Q 33.40625 -1.421875 27.6875 -1.421875 
Q 18.265625 -1.421875 13.375 4.4375 
Q 8.5 10.296875 8.5 21.578125 
z
M 31.109375 56 
z
" id="DejaVuSans-117"/>
      <path d="M 48.78125 52.59375 
L 48.78125 44.1875 
Q 44.96875 46.296875 41.140625 47.34375 
Q 37.3125 48.390625 33.40625 48.390625 
Q 24.65625 48.390625 19.8125 42.84375 
Q 14.984375 37.3125 14.984375 27.296875 
Q 14.984375 17.28125 19.8125 11.734375 
Q 24.65625 6.203125 33.40625 6.203125 
Q 37.3125 6.203125 41.140625 7.25 
Q 44.96875 8.296875 48.78125 10.40625 
L 48.78125 2.09375 
Q 45.015625 0.34375 40.984375 -0.53125 
Q 36.96875 -1.421875 32.421875 -1.421875 
Q 20.0625 -1.421875 12.78125 6.34375 
Q 5.515625 14.109375 5.515625 27.296875 
Q 5.515625 40.671875 12.859375 48.328125 
Q 20.21875 56 33.015625 56 
Q 37.15625 56 41.109375 55.140625 
Q 45.0625 54.296875 48.78125 52.59375 
z
" id="DejaVuSans-99"/>
      <path d="M 56.203125 29.59375 
L 56.203125 25.203125 
L 14.890625 25.203125 
Q 15.484375 15.921875 20.484375 11.0625 
Q 25.484375 6.203125 34.421875 6.203125 
Q 39.59375 6.203125 44.453125 7.46875 
Q 49.3125 8.734375 54.109375 11.28125 
L 54.109375 2.78125 
Q 49.265625 0.734375 44.1875 -0.34375 
Q 39.109375 -1.421875 33.890625 -1.421875 
Q 20.796875 -1.421875 13.15625 6.1875 
Q 5.515625 13.8125 5.515625 26.8125 
Q 5.515625 40.234375 12.765625 48.109375 
Q 20.015625 56 32.328125 56 
Q 43.359375 56 49.78125 48.890625 
Q 56.203125 41.796875 56.203125 29.59375 
z
M 47.21875 32.234375 
Q 47.125 39.59375 43.09375 43.984375 
Q 39.0625 48.390625 32.421875 48.390625 
Q 24.90625 48.390625 20.390625 44.140625 
Q 15.875 39.890625 15.1875 32.171875 
z
" id="DejaVuSans-101"/>
      <path d="M 44.28125 53.078125 
L 44.28125 44.578125 
Q 40.484375 46.53125 36.375 47.5 
Q 32.28125 48.484375 27.875 48.484375 
Q 21.1875 48.484375 17.84375 46.4375 
Q 14.5 44.390625 14.5 40.28125 
Q 14.5 37.15625 16.890625 35.375 
Q 19.28125 33.59375 26.515625 31.984375 
L 29.59375 31.296875 
Q 39.15625 29.25 43.1875 25.515625 
Q 47.21875 21.78125 47.21875 15.09375 
Q 47.21875 7.46875 41.1875 3.015625 
Q 35.15625 -1.421875 24.609375 -1.421875 
Q 20.21875 -1.421875 15.453125 -0.5625 
Q 10.6875 0.296875 5.421875 2 
L 5.421875 11.28125 
Q 10.40625 8.6875 15.234375 7.390625 
Q 20.0625 6.109375 24.8125 6.109375 
Q 31.15625 6.109375 34.5625 8.28125 
Q 37.984375 10.453125 37.984375 14.40625 
Q 37.984375 18.0625 35.515625 20.015625 
Q 33.0625 21.96875 24.703125 23.78125 
L 21.578125 24.515625 
Q 13.234375 26.265625 9.515625 29.90625 
Q 5.8125 33.546875 5.8125 39.890625 
Q 5.8125 47.609375 11.28125 51.796875 
Q 16.75 56 26.8125 56 
Q 31.78125 56 36.171875 55.265625 
Q 40.578125 54.546875 44.28125 53.078125 
z
" id="DejaVuSans-115"/>
      <path d="M 37.109375 75.984375 
L 37.109375 68.5 
L 28.515625 68.5 
Q 23.6875 68.5 21.796875 66.546875 
Q 19.921875 64.59375 19.921875 59.515625 
L 19.921875 54.6875 
L 34.71875 54.6875 
L 34.71875 47.703125 
L 19.921875 47.703125 
L 19.921875 0 
L 10.890625 0 
L 10.890625 47.703125 
L 2.296875 47.703125 
L 2.296875 54.6875 
L 10.890625 54.6875 
L 10.890625 58.5 
Q 10.890625 67.625 15.140625 71.796875 
Q 19.390625 75.984375 28.609375 75.984375 
z
" id="DejaVuSans-102"/>
      <path d="M 9.421875 75.984375 
L 18.40625 75.984375 
L 18.40625 0 
L 9.421875 0 
z
" id="DejaVuSans-108"/>
      <path id="DejaVuSans-32"/>
      <path d="M 9.421875 54.6875 
L 18.40625 54.6875 
L 18.40625 0 
L 9.421875 0 
z
M 9.421875 75.984375 
L 18.40625 75.984375 
L 18.40625 64.59375 
L 9.421875 64.59375 
z
" id="DejaVuSans-105"/>
      <path d="M 45.40625 46.390625 
L 45.40625 75.984375 
L 54.390625 75.984375 
L 54.390625 0 
L 45.40625 0 
L 45.40625 8.203125 
Q 42.578125 3.328125 38.25 0.953125 
Q 33.9375 -1.421875 27.875 -1.421875 
Q 17.96875 -1.421875 11.734375 6.484375 
Q 5.515625 14.40625 5.515625 27.296875 
Q 5.515625 40.1875 11.734375 48.09375 
Q 17.96875 56 27.875 56 
Q 33.9375 56 38.25 53.625 
Q 42.578125 51.265625 45.40625 46.390625 
z
M 14.796875 27.296875 
Q 14.796875 17.390625 18.875 11.75 
Q 22.953125 6.109375 30.078125 6.109375 
Q 37.203125 6.109375 41.296875 11.75 
Q 45.40625 17.390625 45.40625 27.296875 
Q 45.40625 37.203125 41.296875 42.84375 
Q 37.203125 48.484375 30.078125 48.484375 
Q 22.953125 48.484375 18.875 42.84375 
Q 14.796875 37.203125 14.796875 27.296875 
z
" id="DejaVuSans-100"/>
      <path d="M 54.890625 33.015625 
L 54.890625 0 
L 45.90625 0 
L 45.90625 32.71875 
Q 45.90625 40.484375 42.875 44.328125 
Q 39.84375 48.1875 33.796875 48.1875 
Q 26.515625 48.1875 22.3125 43.546875 
Q 18.109375 38.921875 18.109375 30.90625 
L 18.109375 0 
L 9.078125 0 
L 9.078125 54.6875 
L 18.109375 54.6875 
L 18.109375 46.1875 
Q 21.34375 51.125 25.703125 53.5625 
Q 30.078125 56 35.796875 56 
Q 45.21875 56 50.046875 50.171875 
Q 54.890625 44.34375 54.890625 33.015625 
z
" id="DejaVuSans-110"/>
      <path d="M 18.3125 70.21875 
L 18.3125 54.6875 
L 36.8125 54.6875 
L 36.8125 47.703125 
L 18.3125 47.703125 
L 18.3125 18.015625 
Q 18.3125 11.328125 20.140625 9.421875 
Q 21.96875 7.515625 27.59375 7.515625 
L 36.8125 7.515625 
L 36.8125 0 
L 27.59375 0 
Q 17.1875 0 13.234375 3.875 
Q 9.28125 7.765625 9.28125 18.015625 
L 9.28125 47.703125 
L 2.6875 47.703125 
L 2.6875 54.6875 
L 9.28125 54.6875 
L 9.28125 70.21875 
z
" id="DejaVuSans-116"/>
      <path d="M 34.28125 27.484375 
Q 23.390625 27.484375 19.1875 25 
Q 14.984375 22.515625 14.984375 16.5 
Q 14.984375 11.71875 18.140625 8.90625 
Q 21.296875 6.109375 26.703125 6.109375 
Q 34.1875 6.109375 38.703125 11.40625 
Q 43.21875 16.703125 43.21875 25.484375 
L 43.21875 27.484375 
z
M 52.203125 31.203125 
L 52.203125 0 
L 43.21875 0 
L 43.21875 8.296875 
Q 40.140625 3.328125 35.546875 0.953125 
Q 30.953125 -1.421875 24.3125 -1.421875 
Q 15.921875 -1.421875 10.953125 3.296875 
Q 6 8.015625 6 15.921875 
Q 6 25.140625 12.171875 29.828125 
Q 18.359375 34.515625 30.609375 34.515625 
L 43.21875 34.515625 
L 43.21875 35.40625 
Q 43.21875 41.609375 39.140625 45 
Q 35.0625 48.390625 27.6875 48.390625 
Q 23 48.390625 18.546875 47.265625 
Q 14.109375 46.140625 10.015625 43.890625 
L 10.015625 52.203125 
Q 14.9375 54.109375 19.578125 55.046875 
Q 24.21875 56 28.609375 56 
Q 40.484375 56 46.34375 49.84375 
Q 52.203125 43.703125 52.203125 31.203125 
z
" id="DejaVuSans-97"/>
      <path d="M 30.609375 48.390625 
Q 23.390625 48.390625 19.1875 42.75 
Q 14.984375 37.109375 14.984375 27.296875 
Q 14.984375 17.484375 19.15625 11.84375 
Q 23.34375 6.203125 30.609375 6.203125 
Q 37.796875 6.203125 41.984375 11.859375 
Q 46.1875 17.53125 46.1875 27.296875 
Q 46.1875 37.015625 41.984375 42.703125 
Q 37.796875 48.390625 30.609375 48.390625 
z
M 30.609375 56 
Q 42.328125 56 49.015625 48.375 
Q 55.71875 40.765625 55.71875 27.296875 
Q 55.71875 13.875 49.015625 6.21875 
Q 42.328125 -1.421875 30.609375 -1.421875 
Q 18.84375 -1.421875 12.171875 6.21875 
Q 5.515625 13.875 5.515625 27.296875 
Q 5.515625 40.765625 12.171875 48.375 
Q 18.84375 56 30.609375 56 
z
" id="DejaVuSans-111"/>
     </defs>
     <g transform="translate(85.483125 484.873438)rotate(-90)scale(0.2 -0.2)">
      <use xlink:href="#DejaVuSans-83"/>
      <use x="63.476562" xlink:href="#DejaVuSans-117"/>
      <use x="126.855469" xlink:href="#DejaVuSans-99"/>
      <use x="181.835938" xlink:href="#DejaVuSans-99"/>
      <use x="236.816406" xlink:href="#DejaVuSans-101"/>
      <use x="298.339844" xlink:href="#DejaVuSans-115"/>
      <use x="350.439453" xlink:href="#DejaVuSans-115"/>
      <use x="402.539062" xlink:href="#DejaVuSans-102"/>
      <use x="437.744141" xlink:href="#DejaVuSans-117"/>
      <use x="501.123047" xlink:href="#DejaVuSans-108"/>
      <use x="528.90625" xlink:href="#DejaVuSans-32"/>
      <use x="560.693359" xlink:href="#DejaVuSans-105"/>
      <use x="588.476562" xlink:href="#DejaVuSans-100"/>
      <use x="651.953125" xlink:href="#DejaVuSans-101"/>
      <use x="713.476562" xlink:href="#DejaVuSans-110"/>
      <use x="776.855469" xlink:href="#DejaVuSans-116"/>
      <use x="816.064453" xlink:href="#DejaVuSans-105"/>
      <use x="843.847656" xlink:href="#DejaVuSans-102"/>
      <use x="879.052734" xlink:href="#DejaVuSans-105"/>
      <use x="906.835938" xlink:href="#DejaVuSans-99"/>
      <use x="961.816406" xlink:href="#DejaVuSans-97"/>
      <use x="1023.095703" xlink:href="#DejaVuSans-116"/>
      <use x="1062.304688" xlink:href="#DejaVuSans-105"/>
      <use x="1090.087891" xlink:href="#DejaVuSans-111"/>
      <use x="1151.269531" xlink:href="#DejaVuSans-110"/>
      <use x="1214.648438" xlink:href="#DejaVuSans-115"/>
     </g>
    </g>
   </g>
   <g id="line2d_18">
    <path clip-path="url(#p40c1900242)" d="M 173.045455 514.008917 
L 188.574212 425.87458 
L 204.102968 340.887898 
L 219.631725 268.491836 
L 235.160482 246.458251 
L 250.689239 243.310596 
L 266.217996 243.310596 
L 281.746753 237.015287 
L 297.27551 268.491836 
L 312.804267 296.82073 
L 328.333024 322.001969 
L 343.861781 353.478518 
L 359.390538 372.364447 
L 374.919295 400.693341 
L 390.448052 425.87458 
L 405.976809 438.4652 
L 421.505566 444.76051 
L 437.034323 454.203474 
L 452.56308 460.498784 
L 468.091837 476.237058 
L 483.620594 488.827678 
L 499.149351 491.975333 
L 514.678108 495.122988 
L 530.206865 495.122988 
L 545.735622 504.565953 
L 561.264378 514.008917 
L 576.793135 520.304227 
L 592.321892 532.894847 
L 607.850649 536.042501 
L 623.379406 545.485466 
L 638.908163 554.928431 
L 654.43692 558.076086 
L 669.965677 558.076086 
L 685.494434 570.666705 
L 701.023191 580.10967 
L 716.551948 583.257325 
L 732.080705 583.257325 
L 747.609462 586.40498 
L 763.138219 586.40498 
L 778.666976 592.70029 
L 794.195733 595.847944 
L 809.72449 595.847944 
L 825.253247 598.995599 
L 840.782004 602.143254 
L 856.310761 605.290909 
L 871.839518 605.290909 
L 887.368275 605.290909 
L 902.897032 605.290909 
L 918.425788 605.290909 
L 933.954545 605.290909 
" style="fill:none;stroke:#1f77b4;stroke-linecap:square;stroke-width:1.5;"/>
    <defs>
     <path d="M 0 3 
C 0.795609 3 1.55874 2.683901 2.12132 2.12132 
C 2.683901 1.55874 3 0.795609 3 0 
C 3 -0.795609 2.683901 -1.55874 2.12132 -2.12132 
C 1.55874 -2.683901 0.795609 -3 0 -3 
C -0.795609 -3 -1.55874 -2.683901 -2.12132 -2.12132 
C -2.683901 -1.55874 -3 -0.795609 -3 0 
C -3 0.795609 -2.683901 1.55874 -2.12132 2.12132 
C -1.55874 2.683901 -0.795609 3 0 3 
z
" id="medb786b4ff" style="stroke:#1f77b4;"/>
    </defs>
    <g clip-path="url(#p40c1900242)">
     <use style="fill:#1f77b4;stroke:#1f77b4;" x="173.045455" xlink:href="#medb786b4ff" y="514.008917"/>
     <use style="fill:#1f77b4;stroke:#1f77b4;" x="188.574212" xlink:href="#medb786b4ff" y="425.87458"/>
     <use style="fill:#1f77b4;stroke:#1f77b4;" x="204.102968" xlink:href="#medb786b4ff" y="340.887898"/>
     <use style="fill:#1f77b4;stroke:#1f77b4;" x="219.631725" xlink:href="#medb786b4ff" y="268.491836"/>
     <use style="fill:#1f77b4;stroke:#1f77b4;" x="235.160482" xlink:href="#medb786b4ff" y="246.458251"/>
     <use style="fill:#1f77b4;stroke:#1f77b4;" x="250.689239" xlink:href="#medb786b4ff" y="243.310596"/>
     <use style="fill:#1f77b4;stroke:#1f77b4;" x="266.217996" xlink:href="#medb786b4ff" y="243.310596"/>
     <use style="fill:#1f77b4;stroke:#1f77b4;" x="281.746753" xlink:href="#medb786b4ff" y="237.015287"/>
     <use style="fill:#1f77b4;stroke:#1f77b4;" x="297.27551" xlink:href="#medb786b4ff" y="268.491836"/>
     <use style="fill:#1f77b4;stroke:#1f77b4;" x="312.804267" xlink:href="#medb786b4ff" y="296.82073"/>
     <use style="fill:#1f77b4;stroke:#1f77b4;" x="328.333024" xlink:href="#medb786b4ff" y="322.001969"/>
     <use style="fill:#1f77b4;stroke:#1f77b4;" x="343.861781" xlink:href="#medb786b4ff" y="353.478518"/>
     <use style="fill:#1f77b4;stroke:#1f77b4;" x="359.390538" xlink:href="#medb786b4ff" y="372.364447"/>
     <use style="fill:#1f77b4;stroke:#1f77b4;" x="374.919295" xlink:href="#medb786b4ff" y="400.693341"/>
     <use style="fill:#1f77b4;stroke:#1f77b4;" x="390.448052" xlink:href="#medb786b4ff" y="425.87458"/>
     <use style="fill:#1f77b4;stroke:#1f77b4;" x="405.976809" xlink:href="#medb786b4ff" y="438.4652"/>
     <use style="fill:#1f77b4;stroke:#1f77b4;" x="421.505566" xlink:href="#medb786b4ff" y="444.76051"/>
     <use style="fill:#1f77b4;stroke:#1f77b4;" x="437.034323" xlink:href="#medb786b4ff" y="454.203474"/>
     <use style="fill:#1f77b4;stroke:#1f77b4;" x="452.56308" xlink:href="#medb786b4ff" y="460.498784"/>
     <use style="fill:#1f77b4;stroke:#1f77b4;" x="468.091837" xlink:href="#medb786b4ff" y="476.237058"/>
     <use style="fill:#1f77b4;stroke:#1f77b4;" x="483.620594" xlink:href="#medb786b4ff" y="488.827678"/>
     <use style="fill:#1f77b4;stroke:#1f77b4;" x="499.149351" xlink:href="#medb786b4ff" y="491.975333"/>
     <use style="fill:#1f77b4;stroke:#1f77b4;" x="514.678108" xlink:href="#medb786b4ff" y="495.122988"/>
     <use style="fill:#1f77b4;stroke:#1f77b4;" x="530.206865" xlink:href="#medb786b4ff" y="495.122988"/>
     <use style="fill:#1f77b4;stroke:#1f77b4;" x="545.735622" xlink:href="#medb786b4ff" y="504.565953"/>
     <use style="fill:#1f77b4;stroke:#1f77b4;" x="561.264378" xlink:href="#medb786b4ff" y="514.008917"/>
     <use style="fill:#1f77b4;stroke:#1f77b4;" x="576.793135" xlink:href="#medb786b4ff" y="520.304227"/>
     <use style="fill:#1f77b4;stroke:#1f77b4;" x="592.321892" xlink:href="#medb786b4ff" y="532.894847"/>
     <use style="fill:#1f77b4;stroke:#1f77b4;" x="607.850649" xlink:href="#medb786b4ff" y="536.042501"/>
     <use style="fill:#1f77b4;stroke:#1f77b4;" x="623.379406" xlink:href="#medb786b4ff" y="545.485466"/>
     <use style="fill:#1f77b4;stroke:#1f77b4;" x="638.908163" xlink:href="#medb786b4ff" y="554.928431"/>
     <use style="fill:#1f77b4;stroke:#1f77b4;" x="654.43692" xlink:href="#medb786b4ff" y="558.076086"/>
     <use style="fill:#1f77b4;stroke:#1f77b4;" x="669.965677" xlink:href="#medb786b4ff" y="558.076086"/>
     <use style="fill:#1f77b4;stroke:#1f77b4;" x="685.494434" xlink:href="#medb786b4ff" y="570.666705"/>
     <use style="fill:#1f77b4;stroke:#1f77b4;" x="701.023191" xlink:href="#medb786b4ff" y="580.10967"/>
     <use style="fill:#1f77b4;stroke:#1f77b4;" x="716.551948" xlink:href="#medb786b4ff" y="583.257325"/>
     <use style="fill:#1f77b4;stroke:#1f77b4;" x="732.080705" xlink:href="#medb786b4ff" y="583.257325"/>
     <use style="fill:#1f77b4;stroke:#1f77b4;" x="747.609462" xlink:href="#medb786b4ff" y="586.40498"/>
     <use style="fill:#1f77b4;stroke:#1f77b4;" x="763.138219" xlink:href="#medb786b4ff" y="586.40498"/>
     <use style="fill:#1f77b4;stroke:#1f77b4;" x="778.666976" xlink:href="#medb786b4ff" y="592.70029"/>
     <use style="fill:#1f77b4;stroke:#1f77b4;" x="794.195733" xlink:href="#medb786b4ff" y="595.847944"/>
     <use style="fill:#1f77b4;stroke:#1f77b4;" x="809.72449" xlink:href="#medb786b4ff" y="595.847944"/>
     <use style="fill:#1f77b4;stroke:#1f77b4;" x="825.253247" xlink:href="#medb786b4ff" y="598.995599"/>
     <use style="fill:#1f77b4;stroke:#1f77b4;" x="840.782004" xlink:href="#medb786b4ff" y="602.143254"/>
     <use style="fill:#1f77b4;stroke:#1f77b4;" x="856.310761" xlink:href="#medb786b4ff" y="605.290909"/>
     <use style="fill:#1f77b4;stroke:#1f77b4;" x="871.839518" xlink:href="#medb786b4ff" y="605.290909"/>
     <use style="fill:#1f77b4;stroke:#1f77b4;" x="887.368275" xlink:href="#medb786b4ff" y="605.290909"/>
     <use style="fill:#1f77b4;stroke:#1f77b4;" x="902.897032" xlink:href="#medb786b4ff" y="605.290909"/>
     <use style="fill:#1f77b4;stroke:#1f77b4;" x="918.425788" xlink:href="#medb786b4ff" y="605.290909"/>
     <use style="fill:#1f77b4;stroke:#1f77b4;" x="933.954545" xlink:href="#medb786b4ff" y="605.290909"/>
    </g>
   </g>
   <g id="line2d_19">
    <path clip-path="url(#p40c1900242)" d="M 173.045455 303.116039 
L 188.574212 255.901216 
L 204.102968 237.015287 
L 219.631725 227.572322 
L 235.160482 214.981702 
L 250.689239 211.834047 
L 266.217996 196.095773 
L 281.746753 180.357499 
L 297.27551 158.323914 
L 312.804267 145.733295 
L 328.333024 142.58564 
L 343.861781 142.58564 
L 359.390538 133.142675 
L 374.919295 136.29033 
L 390.448052 129.99502 
L 405.976809 123.69971 
L 421.505566 123.69971 
L 437.034323 117.404401 
L 452.56308 117.404401 
L 468.091837 117.404401 
L 483.620594 117.404401 
L 499.149351 117.404401 
L 514.678108 117.404401 
L 530.206865 114.256746 
L 545.735622 114.256746 
L 561.264378 111.109091 
L 576.793135 111.109091 
L 592.321892 114.256746 
L 607.850649 114.256746 
L 623.379406 117.404401 
L 638.908163 117.404401 
L 654.43692 114.256746 
L 669.965677 114.256746 
L 685.494434 114.256746 
L 701.023191 114.256746 
L 716.551948 114.256746 
L 732.080705 123.69971 
L 747.609462 129.99502 
L 763.138219 136.29033 
L 778.666976 139.437985 
L 794.195733 152.028605 
L 809.72449 161.471569 
L 825.253247 174.062189 
L 840.782004 196.095773 
L 856.310761 265.344181 
L 871.839518 362.921482 
L 887.368275 403.840996 
L 902.897032 447.908164 
L 918.425788 491.975333 
L 933.954545 514.008917 
" style="fill:none;stroke:#ff7f0e;stroke-linecap:square;stroke-width:1.5;"/>
    <defs>
     <path d="M 0 3 
C 0.795609 3 1.55874 2.683901 2.12132 2.12132 
C 2.683901 1.55874 3 0.795609 3 0 
C 3 -0.795609 2.683901 -1.55874 2.12132 -2.12132 
C 1.55874 -2.683901 0.795609 -3 0 -3 
C -0.795609 -3 -1.55874 -2.683901 -2.12132 -2.12132 
C -2.683901 -1.55874 -3 -0.795609 -3 0 
C -3 0.795609 -2.683901 1.55874 -2.12132 2.12132 
C -1.55874 2.683901 -0.795609 3 0 3 
z
" id="m6a33584835" style="stroke:#ff7f0e;"/>
    </defs>
    <g clip-path="url(#p40c1900242)">
     <use style="fill:#ff7f0e;stroke:#ff7f0e;" x="173.045455" xlink:href="#m6a33584835" y="303.116039"/>
     <use style="fill:#ff7f0e;stroke:#ff7f0e;" x="188.574212" xlink:href="#m6a33584835" y="255.901216"/>
     <use style="fill:#ff7f0e;stroke:#ff7f0e;" x="204.102968" xlink:href="#m6a33584835" y="237.015287"/>
     <use style="fill:#ff7f0e;stroke:#ff7f0e;" x="219.631725" xlink:href="#m6a33584835" y="227.572322"/>
     <use style="fill:#ff7f0e;stroke:#ff7f0e;" x="235.160482" xlink:href="#m6a33584835" y="214.981702"/>
     <use style="fill:#ff7f0e;stroke:#ff7f0e;" x="250.689239" xlink:href="#m6a33584835" y="211.834047"/>
     <use style="fill:#ff7f0e;stroke:#ff7f0e;" x="266.217996" xlink:href="#m6a33584835" y="196.095773"/>
     <use style="fill:#ff7f0e;stroke:#ff7f0e;" x="281.746753" xlink:href="#m6a33584835" y="180.357499"/>
     <use style="fill:#ff7f0e;stroke:#ff7f0e;" x="297.27551" xlink:href="#m6a33584835" y="158.323914"/>
     <use style="fill:#ff7f0e;stroke:#ff7f0e;" x="312.804267" xlink:href="#m6a33584835" y="145.733295"/>
     <use style="fill:#ff7f0e;stroke:#ff7f0e;" x="328.333024" xlink:href="#m6a33584835" y="142.58564"/>
     <use style="fill:#ff7f0e;stroke:#ff7f0e;" x="343.861781" xlink:href="#m6a33584835" y="142.58564"/>
     <use style="fill:#ff7f0e;stroke:#ff7f0e;" x="359.390538" xlink:href="#m6a33584835" y="133.142675"/>
     <use style="fill:#ff7f0e;stroke:#ff7f0e;" x="374.919295" xlink:href="#m6a33584835" y="136.29033"/>
     <use style="fill:#ff7f0e;stroke:#ff7f0e;" x="390.448052" xlink:href="#m6a33584835" y="129.99502"/>
     <use style="fill:#ff7f0e;stroke:#ff7f0e;" x="405.976809" xlink:href="#m6a33584835" y="123.69971"/>
     <use style="fill:#ff7f0e;stroke:#ff7f0e;" x="421.505566" xlink:href="#m6a33584835" y="123.69971"/>
     <use style="fill:#ff7f0e;stroke:#ff7f0e;" x="437.034323" xlink:href="#m6a33584835" y="117.404401"/>
     <use style="fill:#ff7f0e;stroke:#ff7f0e;" x="452.56308" xlink:href="#m6a33584835" y="117.404401"/>
     <use style="fill:#ff7f0e;stroke:#ff7f0e;" x="468.091837" xlink:href="#m6a33584835" y="117.404401"/>
     <use style="fill:#ff7f0e;stroke:#ff7f0e;" x="483.620594" xlink:href="#m6a33584835" y="117.404401"/>
     <use style="fill:#ff7f0e;stroke:#ff7f0e;" x="499.149351" xlink:href="#m6a33584835" y="117.404401"/>
     <use style="fill:#ff7f0e;stroke:#ff7f0e;" x="514.678108" xlink:href="#m6a33584835" y="117.404401"/>
     <use style="fill:#ff7f0e;stroke:#ff7f0e;" x="530.206865" xlink:href="#m6a33584835" y="114.256746"/>
     <use style="fill:#ff7f0e;stroke:#ff7f0e;" x="545.735622" xlink:href="#m6a33584835" y="114.256746"/>
     <use style="fill:#ff7f0e;stroke:#ff7f0e;" x="561.264378" xlink:href="#m6a33584835" y="111.109091"/>
     <use style="fill:#ff7f0e;stroke:#ff7f0e;" x="576.793135" xlink:href="#m6a33584835" y="111.109091"/>
     <use style="fill:#ff7f0e;stroke:#ff7f0e;" x="592.321892" xlink:href="#m6a33584835" y="114.256746"/>
     <use style="fill:#ff7f0e;stroke:#ff7f0e;" x="607.850649" xlink:href="#m6a33584835" y="114.256746"/>
     <use style="fill:#ff7f0e;stroke:#ff7f0e;" x="623.379406" xlink:href="#m6a33584835" y="117.404401"/>
     <use style="fill:#ff7f0e;stroke:#ff7f0e;" x="638.908163" xlink:href="#m6a33584835" y="117.404401"/>
     <use style="fill:#ff7f0e;stroke:#ff7f0e;" x="654.43692" xlink:href="#m6a33584835" y="114.256746"/>
     <use style="fill:#ff7f0e;stroke:#ff7f0e;" x="669.965677" xlink:href="#m6a33584835" y="114.256746"/>
     <use style="fill:#ff7f0e;stroke:#ff7f0e;" x="685.494434" xlink:href="#m6a33584835" y="114.256746"/>
     <use style="fill:#ff7f0e;stroke:#ff7f0e;" x="701.023191" xlink:href="#m6a33584835" y="114.256746"/>
     <use style="fill:#ff7f0e;stroke:#ff7f0e;" x="716.551948" xlink:href="#m6a33584835" y="114.256746"/>
     <use style="fill:#ff7f0e;stroke:#ff7f0e;" x="732.080705" xlink:href="#m6a33584835" y="123.69971"/>
     <use style="fill:#ff7f0e;stroke:#ff7f0e;" x="747.609462" xlink:href="#m6a33584835" y="129.99502"/>
     <use style="fill:#ff7f0e;stroke:#ff7f0e;" x="763.138219" xlink:href="#m6a33584835" y="136.29033"/>
     <use style="fill:#ff7f0e;stroke:#ff7f0e;" x="778.666976" xlink:href="#m6a33584835" y="139.437985"/>
     <use style="fill:#ff7f0e;stroke:#ff7f0e;" x="794.195733" xlink:href="#m6a33584835" y="152.028605"/>
     <use style="fill:#ff7f0e;stroke:#ff7f0e;" x="809.72449" xlink:href="#m6a33584835" y="161.471569"/>
     <use style="fill:#ff7f0e;stroke:#ff7f0e;" x="825.253247" xlink:href="#m6a33584835" y="174.062189"/>
     <use style="fill:#ff7f0e;stroke:#ff7f0e;" x="840.782004" xlink:href="#m6a33584835" y="196.095773"/>
     <use style="fill:#ff7f0e;stroke:#ff7f0e;" x="856.310761" xlink:href="#m6a33584835" y="265.344181"/>
     <use style="fill:#ff7f0e;stroke:#ff7f0e;" x="871.839518" xlink:href="#m6a33584835" y="362.921482"/>
     <use style="fill:#ff7f0e;stroke:#ff7f0e;" x="887.368275" xlink:href="#m6a33584835" y="403.840996"/>
     <use style="fill:#ff7f0e;stroke:#ff7f0e;" x="902.897032" xlink:href="#m6a33584835" y="447.908164"/>
     <use style="fill:#ff7f0e;stroke:#ff7f0e;" x="918.425788" xlink:href="#m6a33584835" y="491.975333"/>
     <use style="fill:#ff7f0e;stroke:#ff7f0e;" x="933.954545" xlink:href="#m6a33584835" y="514.008917"/>
    </g>
   </g>
   <g id="line2d_20">
    <path clip-path="url(#p40c1900242)" d="M 173.045455 605.290909 
L 188.574212 605.290909 
L 204.102968 605.290909 
L 219.631725 605.290909 
L 235.160482 605.290909 
L 250.689239 605.290909 
L 266.217996 605.290909 
L 281.746753 605.290909 
L 297.27551 605.290909 
L 312.804267 605.290909 
L 328.333024 605.290909 
L 343.861781 605.290909 
L 359.390538 605.290909 
L 374.919295 605.290909 
L 390.448052 605.290909 
L 405.976809 605.290909 
L 421.505566 605.290909 
L 437.034323 605.290909 
L 452.56308 605.290909 
L 468.091837 605.290909 
L 483.620594 605.290909 
L 499.149351 605.290909 
L 514.678108 605.290909 
L 530.206865 605.290909 
L 545.735622 605.290909 
L 561.264378 605.290909 
L 576.793135 605.290909 
L 592.321892 605.290909 
L 607.850649 605.290909 
L 623.379406 602.143254 
L 638.908163 598.995599 
L 654.43692 583.257325 
L 669.965677 576.962015 
L 685.494434 573.81436 
L 701.023191 573.81436 
L 716.551948 580.10967 
L 732.080705 576.962015 
L 747.609462 561.223741 
L 763.138219 558.076086 
L 778.666976 561.223741 
L 794.195733 561.223741 
L 809.72449 564.371395 
L 825.253247 561.223741 
L 840.782004 564.371395 
L 856.310761 567.51905 
L 871.839518 570.666705 
L 887.368275 573.81436 
L 902.897032 576.962015 
L 918.425788 583.257325 
L 933.954545 592.70029 
" style="fill:none;stroke:#2ca02c;stroke-linecap:square;stroke-width:1.5;"/>
    <defs>
     <path d="M 0 3 
C 0.795609 3 1.55874 2.683901 2.12132 2.12132 
C 2.683901 1.55874 3 0.795609 3 0 
C 3 -0.795609 2.683901 -1.55874 2.12132 -2.12132 
C 1.55874 -2.683901 0.795609 -3 0 -3 
C -0.795609 -3 -1.55874 -2.683901 -2.12132 -2.12132 
C -2.683901 -1.55874 -3 -0.795609 -3 0 
C -3 0.795609 -2.683901 1.55874 -2.12132 2.12132 
C -1.55874 2.683901 -0.795609 3 0 3 
z
" id="m9957c7c4a6" style="stroke:#2ca02c;"/>
    </defs>
    <g clip-path="url(#p40c1900242)">
     <use style="fill:#2ca02c;stroke:#2ca02c;" x="173.045455" xlink:href="#m9957c7c4a6" y="605.290909"/>
     <use style="fill:#2ca02c;stroke:#2ca02c;" x="188.574212" xlink:href="#m9957c7c4a6" y="605.290909"/>
     <use style="fill:#2ca02c;stroke:#2ca02c;" x="204.102968" xlink:href="#m9957c7c4a6" y="605.290909"/>
     <use style="fill:#2ca02c;stroke:#2ca02c;" x="219.631725" xlink:href="#m9957c7c4a6" y="605.290909"/>
     <use style="fill:#2ca02c;stroke:#2ca02c;" x="235.160482" xlink:href="#m9957c7c4a6" y="605.290909"/>
     <use style="fill:#2ca02c;stroke:#2ca02c;" x="250.689239" xlink:href="#m9957c7c4a6" y="605.290909"/>
     <use style="fill:#2ca02c;stroke:#2ca02c;" x="266.217996" xlink:href="#m9957c7c4a6" y="605.290909"/>
     <use style="fill:#2ca02c;stroke:#2ca02c;" x="281.746753" xlink:href="#m9957c7c4a6" y="605.290909"/>
     <use style="fill:#2ca02c;stroke:#2ca02c;" x="297.27551" xlink:href="#m9957c7c4a6" y="605.290909"/>
     <use style="fill:#2ca02c;stroke:#2ca02c;" x="312.804267" xlink:href="#m9957c7c4a6" y="605.290909"/>
     <use style="fill:#2ca02c;stroke:#2ca02c;" x="328.333024" xlink:href="#m9957c7c4a6" y="605.290909"/>
     <use style="fill:#2ca02c;stroke:#2ca02c;" x="343.861781" xlink:href="#m9957c7c4a6" y="605.290909"/>
     <use style="fill:#2ca02c;stroke:#2ca02c;" x="359.390538" xlink:href="#m9957c7c4a6" y="605.290909"/>
     <use style="fill:#2ca02c;stroke:#2ca02c;" x="374.919295" xlink:href="#m9957c7c4a6" y="605.290909"/>
     <use style="fill:#2ca02c;stroke:#2ca02c;" x="390.448052" xlink:href="#m9957c7c4a6" y="605.290909"/>
     <use style="fill:#2ca02c;stroke:#2ca02c;" x="405.976809" xlink:href="#m9957c7c4a6" y="605.290909"/>
     <use style="fill:#2ca02c;stroke:#2ca02c;" x="421.505566" xlink:href="#m9957c7c4a6" y="605.290909"/>
     <use style="fill:#2ca02c;stroke:#2ca02c;" x="437.034323" xlink:href="#m9957c7c4a6" y="605.290909"/>
     <use style="fill:#2ca02c;stroke:#2ca02c;" x="452.56308" xlink:href="#m9957c7c4a6" y="605.290909"/>
     <use style="fill:#2ca02c;stroke:#2ca02c;" x="468.091837" xlink:href="#m9957c7c4a6" y="605.290909"/>
     <use style="fill:#2ca02c;stroke:#2ca02c;" x="483.620594" xlink:href="#m9957c7c4a6" y="605.290909"/>
     <use style="fill:#2ca02c;stroke:#2ca02c;" x="499.149351" xlink:href="#m9957c7c4a6" y="605.290909"/>
     <use style="fill:#2ca02c;stroke:#2ca02c;" x="514.678108" xlink:href="#m9957c7c4a6" y="605.290909"/>
     <use style="fill:#2ca02c;stroke:#2ca02c;" x="530.206865" xlink:href="#m9957c7c4a6" y="605.290909"/>
     <use style="fill:#2ca02c;stroke:#2ca02c;" x="545.735622" xlink:href="#m9957c7c4a6" y="605.290909"/>
     <use style="fill:#2ca02c;stroke:#2ca02c;" x="561.264378" xlink:href="#m9957c7c4a6" y="605.290909"/>
     <use style="fill:#2ca02c;stroke:#2ca02c;" x="576.793135" xlink:href="#m9957c7c4a6" y="605.290909"/>
     <use style="fill:#2ca02c;stroke:#2ca02c;" x="592.321892" xlink:href="#m9957c7c4a6" y="605.290909"/>
     <use style="fill:#2ca02c;stroke:#2ca02c;" x="607.850649" xlink:href="#m9957c7c4a6" y="605.290909"/>
     <use style="fill:#2ca02c;stroke:#2ca02c;" x="623.379406" xlink:href="#m9957c7c4a6" y="602.143254"/>
     <use style="fill:#2ca02c;stroke:#2ca02c;" x="638.908163" xlink:href="#m9957c7c4a6" y="598.995599"/>
     <use style="fill:#2ca02c;stroke:#2ca02c;" x="654.43692" xlink:href="#m9957c7c4a6" y="583.257325"/>
     <use style="fill:#2ca02c;stroke:#2ca02c;" x="669.965677" xlink:href="#m9957c7c4a6" y="576.962015"/>
     <use style="fill:#2ca02c;stroke:#2ca02c;" x="685.494434" xlink:href="#m9957c7c4a6" y="573.81436"/>
     <use style="fill:#2ca02c;stroke:#2ca02c;" x="701.023191" xlink:href="#m9957c7c4a6" y="573.81436"/>
     <use style="fill:#2ca02c;stroke:#2ca02c;" x="716.551948" xlink:href="#m9957c7c4a6" y="580.10967"/>
     <use style="fill:#2ca02c;stroke:#2ca02c;" x="732.080705" xlink:href="#m9957c7c4a6" y="576.962015"/>
     <use style="fill:#2ca02c;stroke:#2ca02c;" x="747.609462" xlink:href="#m9957c7c4a6" y="561.223741"/>
     <use style="fill:#2ca02c;stroke:#2ca02c;" x="763.138219" xlink:href="#m9957c7c4a6" y="558.076086"/>
     <use style="fill:#2ca02c;stroke:#2ca02c;" x="778.666976" xlink:href="#m9957c7c4a6" y="561.223741"/>
     <use style="fill:#2ca02c;stroke:#2ca02c;" x="794.195733" xlink:href="#m9957c7c4a6" y="561.223741"/>
     <use style="fill:#2ca02c;stroke:#2ca02c;" x="809.72449" xlink:href="#m9957c7c4a6" y="564.371395"/>
     <use style="fill:#2ca02c;stroke:#2ca02c;" x="825.253247" xlink:href="#m9957c7c4a6" y="561.223741"/>
     <use style="fill:#2ca02c;stroke:#2ca02c;" x="840.782004" xlink:href="#m9957c7c4a6" y="564.371395"/>
     <use style="fill:#2ca02c;stroke:#2ca02c;" x="856.310761" xlink:href="#m9957c7c4a6" y="567.51905"/>
     <use style="fill:#2ca02c;stroke:#2ca02c;" x="871.839518" xlink:href="#m9957c7c4a6" y="570.666705"/>
     <use style="fill:#2ca02c;stroke:#2ca02c;" x="887.368275" xlink:href="#m9957c7c4a6" y="573.81436"/>
     <use style="fill:#2ca02c;stroke:#2ca02c;" x="902.897032" xlink:href="#m9957c7c4a6" y="576.962015"/>
     <use style="fill:#2ca02c;stroke:#2ca02c;" x="918.425788" xlink:href="#m9957c7c4a6" y="583.257325"/>
     <use style="fill:#2ca02c;stroke:#2ca02c;" x="933.954545" xlink:href="#m9957c7c4a6" y="592.70029"/>
    </g>
   </g>
   <g id="line2d_21">
    <path clip-path="url(#p40c1900242)" d="M 173.045455 595.847944 
L 188.574212 589.552635 
L 204.102968 510.861262 
L 219.631725 419.57927 
L 235.160482 369.216792 
L 250.689239 325.149624 
L 266.217996 277.9348 
L 281.746753 255.901216 
L 297.27551 243.310596 
L 312.804267 233.867632 
L 328.333024 227.572322 
L 343.861781 221.277012 
L 359.390538 218.129357 
L 374.919295 202.391083 
L 390.448052 199.243428 
L 405.976809 196.095773 
L 421.505566 199.243428 
L 437.034323 199.243428 
L 452.56308 196.095773 
L 468.091837 192.948118 
L 483.620594 192.948118 
L 499.149351 208.686393 
L 514.678108 287.377765 
L 530.206865 366.069137 
L 545.735622 451.055819 
L 561.264378 517.156572 
L 576.793135 551.780776 
L 592.321892 586.40498 
L 607.850649 598.995599 
L 623.379406 602.143254 
L 638.908163 602.143254 
L 654.43692 605.290909 
L 669.965677 605.290909 
L 685.494434 605.290909 
L 701.023191 605.290909 
L 716.551948 605.290909 
L 732.080705 605.290909 
L 747.609462 605.290909 
L 763.138219 605.290909 
L 778.666976 605.290909 
L 794.195733 605.290909 
L 809.72449 605.290909 
L 825.253247 605.290909 
L 840.782004 605.290909 
L 856.310761 605.290909 
L 871.839518 605.290909 
L 887.368275 605.290909 
L 902.897032 605.290909 
L 918.425788 605.290909 
L 933.954545 605.290909 
" style="fill:none;stroke:#d62728;stroke-linecap:square;stroke-width:1.5;"/>
    <defs>
     <path d="M 0 3 
C 0.795609 3 1.55874 2.683901 2.12132 2.12132 
C 2.683901 1.55874 3 0.795609 3 0 
C 3 -0.795609 2.683901 -1.55874 2.12132 -2.12132 
C 1.55874 -2.683901 0.795609 -3 0 -3 
C -0.795609 -3 -1.55874 -2.683901 -2.12132 -2.12132 
C -2.683901 -1.55874 -3 -0.795609 -3 0 
C -3 0.795609 -2.683901 1.55874 -2.12132 2.12132 
C -1.55874 2.683901 -0.795609 3 0 3 
z
" id="m4919f61478" style="stroke:#d62728;"/>
    </defs>
    <g clip-path="url(#p40c1900242)">
     <use style="fill:#d62728;stroke:#d62728;" x="173.045455" xlink:href="#m4919f61478" y="595.847944"/>
     <use style="fill:#d62728;stroke:#d62728;" x="188.574212" xlink:href="#m4919f61478" y="589.552635"/>
     <use style="fill:#d62728;stroke:#d62728;" x="204.102968" xlink:href="#m4919f61478" y="510.861262"/>
     <use style="fill:#d62728;stroke:#d62728;" x="219.631725" xlink:href="#m4919f61478" y="419.57927"/>
     <use style="fill:#d62728;stroke:#d62728;" x="235.160482" xlink:href="#m4919f61478" y="369.216792"/>
     <use style="fill:#d62728;stroke:#d62728;" x="250.689239" xlink:href="#m4919f61478" y="325.149624"/>
     <use style="fill:#d62728;stroke:#d62728;" x="266.217996" xlink:href="#m4919f61478" y="277.9348"/>
     <use style="fill:#d62728;stroke:#d62728;" x="281.746753" xlink:href="#m4919f61478" y="255.901216"/>
     <use style="fill:#d62728;stroke:#d62728;" x="297.27551" xlink:href="#m4919f61478" y="243.310596"/>
     <use style="fill:#d62728;stroke:#d62728;" x="312.804267" xlink:href="#m4919f61478" y="233.867632"/>
     <use style="fill:#d62728;stroke:#d62728;" x="328.333024" xlink:href="#m4919f61478" y="227.572322"/>
     <use style="fill:#d62728;stroke:#d62728;" x="343.861781" xlink:href="#m4919f61478" y="221.277012"/>
     <use style="fill:#d62728;stroke:#d62728;" x="359.390538" xlink:href="#m4919f61478" y="218.129357"/>
     <use style="fill:#d62728;stroke:#d62728;" x="374.919295" xlink:href="#m4919f61478" y="202.391083"/>
     <use style="fill:#d62728;stroke:#d62728;" x="390.448052" xlink:href="#m4919f61478" y="199.243428"/>
     <use style="fill:#d62728;stroke:#d62728;" x="405.976809" xlink:href="#m4919f61478" y="196.095773"/>
     <use style="fill:#d62728;stroke:#d62728;" x="421.505566" xlink:href="#m4919f61478" y="199.243428"/>
     <use style="fill:#d62728;stroke:#d62728;" x="437.034323" xlink:href="#m4919f61478" y="199.243428"/>
     <use style="fill:#d62728;stroke:#d62728;" x="452.56308" xlink:href="#m4919f61478" y="196.095773"/>
     <use style="fill:#d62728;stroke:#d62728;" x="468.091837" xlink:href="#m4919f61478" y="192.948118"/>
     <use style="fill:#d62728;stroke:#d62728;" x="483.620594" xlink:href="#m4919f61478" y="192.948118"/>
     <use style="fill:#d62728;stroke:#d62728;" x="499.149351" xlink:href="#m4919f61478" y="208.686393"/>
     <use style="fill:#d62728;stroke:#d62728;" x="514.678108" xlink:href="#m4919f61478" y="287.377765"/>
     <use style="fill:#d62728;stroke:#d62728;" x="530.206865" xlink:href="#m4919f61478" y="366.069137"/>
     <use style="fill:#d62728;stroke:#d62728;" x="545.735622" xlink:href="#m4919f61478" y="451.055819"/>
     <use style="fill:#d62728;stroke:#d62728;" x="561.264378" xlink:href="#m4919f61478" y="517.156572"/>
     <use style="fill:#d62728;stroke:#d62728;" x="576.793135" xlink:href="#m4919f61478" y="551.780776"/>
     <use style="fill:#d62728;stroke:#d62728;" x="592.321892" xlink:href="#m4919f61478" y="586.40498"/>
     <use style="fill:#d62728;stroke:#d62728;" x="607.850649" xlink:href="#m4919f61478" y="598.995599"/>
     <use style="fill:#d62728;stroke:#d62728;" x="623.379406" xlink:href="#m4919f61478" y="602.143254"/>
     <use style="fill:#d62728;stroke:#d62728;" x="638.908163" xlink:href="#m4919f61478" y="602.143254"/>
     <use style="fill:#d62728;stroke:#d62728;" x="654.43692" xlink:href="#m4919f61478" y="605.290909"/>
     <use style="fill:#d62728;stroke:#d62728;" x="669.965677" xlink:href="#m4919f61478" y="605.290909"/>
     <use style="fill:#d62728;stroke:#d62728;" x="685.494434" xlink:href="#m4919f61478" y="605.290909"/>
     <use style="fill:#d62728;stroke:#d62728;" x="701.023191" xlink:href="#m4919f61478" y="605.290909"/>
     <use style="fill:#d62728;stroke:#d62728;" x="716.551948" xlink:href="#m4919f61478" y="605.290909"/>
     <use style="fill:#d62728;stroke:#d62728;" x="732.080705" xlink:href="#m4919f61478" y="605.290909"/>
     <use style="fill:#d62728;stroke:#d62728;" x="747.609462" xlink:href="#m4919f61478" y="605.290909"/>
     <use style="fill:#d62728;stroke:#d62728;" x="763.138219" xlink:href="#m4919f61478" y="605.290909"/>
     <use style="fill:#d62728;stroke:#d62728;" x="778.666976" xlink:href="#m4919f61478" y="605.290909"/>
     <use style="fill:#d62728;stroke:#d62728;" x="794.195733" xlink:href="#m4919f61478" y="605.290909"/>
     <use style="fill:#d62728;stroke:#d62728;" x="809.72449" xlink:href="#m4919f61478" y="605.290909"/>
     <use style="fill:#d62728;stroke:#d62728;" x="825.253247" xlink:href="#m4919f61478" y="605.290909"/>
     <use style="fill:#d62728;stroke:#d62728;" x="840.782004" xlink:href="#m4919f61478" y="605.290909"/>
     <use style="fill:#d62728;stroke:#d62728;" x="856.310761" xlink:href="#m4919f61478" y="605.290909"/>
     <use style="fill:#d62728;stroke:#d62728;" x="871.839518" xlink:href="#m4919f61478" y="605.290909"/>
     <use style="fill:#d62728;stroke:#d62728;" x="887.368275" xlink:href="#m4919f61478" y="605.290909"/>
     <use style="fill:#d62728;stroke:#d62728;" x="902.897032" xlink:href="#m4919f61478" y="605.290909"/>
     <use style="fill:#d62728;stroke:#d62728;" x="918.425788" xlink:href="#m4919f61478" y="605.290909"/>
     <use style="fill:#d62728;stroke:#d62728;" x="933.954545" xlink:href="#m4919f61478" y="605.290909"/>
    </g>
   </g>
   <g id="line2d_22">
    <path clip-path="url(#p40c1900242)" d="M 173.045455 605.290909 
L 188.574212 605.290909 
L 204.102968 605.290909 
L 219.631725 605.290909 
L 235.160482 605.290909 
L 250.689239 605.290909 
L 266.217996 605.290909 
L 281.746753 605.290909 
L 297.27551 605.290909 
L 312.804267 605.290909 
L 328.333024 605.290909 
L 343.861781 605.290909 
L 359.390538 605.290909 
L 374.919295 605.290909 
L 390.448052 605.290909 
L 405.976809 605.290909 
L 421.505566 605.290909 
L 437.034323 602.143254 
L 452.56308 602.143254 
L 468.091837 595.847944 
L 483.620594 564.371395 
L 499.149351 520.304227 
L 514.678108 498.270643 
L 530.206865 501.418298 
L 545.735622 495.122988 
L 561.264378 495.122988 
L 576.793135 510.861262 
L 592.321892 507.713607 
L 607.850649 507.713607 
L 623.379406 514.008917 
L 638.908163 526.599537 
L 654.43692 532.894847 
L 669.965677 539.190156 
L 685.494434 548.633121 
L 701.023191 558.076086 
L 716.551948 567.51905 
L 732.080705 576.962015 
L 747.609462 580.10967 
L 763.138219 580.10967 
L 778.666976 586.40498 
L 794.195733 605.290909 
L 809.72449 605.290909 
L 825.253247 605.290909 
L 840.782004 605.290909 
L 856.310761 605.290909 
L 871.839518 605.290909 
L 887.368275 605.290909 
L 902.897032 605.290909 
L 918.425788 605.290909 
L 933.954545 605.290909 
" style="fill:none;stroke:#9467bd;stroke-linecap:square;stroke-width:1.5;"/>
    <defs>
     <path d="M 0 3 
C 0.795609 3 1.55874 2.683901 2.12132 2.12132 
C 2.683901 1.55874 3 0.795609 3 0 
C 3 -0.795609 2.683901 -1.55874 2.12132 -2.12132 
C 1.55874 -2.683901 0.795609 -3 0 -3 
C -0.795609 -3 -1.55874 -2.683901 -2.12132 -2.12132 
C -2.683901 -1.55874 -3 -0.795609 -3 0 
C -3 0.795609 -2.683901 1.55874 -2.12132 2.12132 
C -1.55874 2.683901 -0.795609 3 0 3 
z
" id="mae1a41035b" style="stroke:#9467bd;"/>
    </defs>
    <g clip-path="url(#p40c1900242)">
     <use style="fill:#9467bd;stroke:#9467bd;" x="173.045455" xlink:href="#mae1a41035b" y="605.290909"/>
     <use style="fill:#9467bd;stroke:#9467bd;" x="188.574212" xlink:href="#mae1a41035b" y="605.290909"/>
     <use style="fill:#9467bd;stroke:#9467bd;" x="204.102968" xlink:href="#mae1a41035b" y="605.290909"/>
     <use style="fill:#9467bd;stroke:#9467bd;" x="219.631725" xlink:href="#mae1a41035b" y="605.290909"/>
     <use style="fill:#9467bd;stroke:#9467bd;" x="235.160482" xlink:href="#mae1a41035b" y="605.290909"/>
     <use style="fill:#9467bd;stroke:#9467bd;" x="250.689239" xlink:href="#mae1a41035b" y="605.290909"/>
     <use style="fill:#9467bd;stroke:#9467bd;" x="266.217996" xlink:href="#mae1a41035b" y="605.290909"/>
     <use style="fill:#9467bd;stroke:#9467bd;" x="281.746753" xlink:href="#mae1a41035b" y="605.290909"/>
     <use style="fill:#9467bd;stroke:#9467bd;" x="297.27551" xlink:href="#mae1a41035b" y="605.290909"/>
     <use style="fill:#9467bd;stroke:#9467bd;" x="312.804267" xlink:href="#mae1a41035b" y="605.290909"/>
     <use style="fill:#9467bd;stroke:#9467bd;" x="328.333024" xlink:href="#mae1a41035b" y="605.290909"/>
     <use style="fill:#9467bd;stroke:#9467bd;" x="343.861781" xlink:href="#mae1a41035b" y="605.290909"/>
     <use style="fill:#9467bd;stroke:#9467bd;" x="359.390538" xlink:href="#mae1a41035b" y="605.290909"/>
     <use style="fill:#9467bd;stroke:#9467bd;" x="374.919295" xlink:href="#mae1a41035b" y="605.290909"/>
     <use style="fill:#9467bd;stroke:#9467bd;" x="390.448052" xlink:href="#mae1a41035b" y="605.290909"/>
     <use style="fill:#9467bd;stroke:#9467bd;" x="405.976809" xlink:href="#mae1a41035b" y="605.290909"/>
     <use style="fill:#9467bd;stroke:#9467bd;" x="421.505566" xlink:href="#mae1a41035b" y="605.290909"/>
     <use style="fill:#9467bd;stroke:#9467bd;" x="437.034323" xlink:href="#mae1a41035b" y="602.143254"/>
     <use style="fill:#9467bd;stroke:#9467bd;" x="452.56308" xlink:href="#mae1a41035b" y="602.143254"/>
     <use style="fill:#9467bd;stroke:#9467bd;" x="468.091837" xlink:href="#mae1a41035b" y="595.847944"/>
     <use style="fill:#9467bd;stroke:#9467bd;" x="483.620594" xlink:href="#mae1a41035b" y="564.371395"/>
     <use style="fill:#9467bd;stroke:#9467bd;" x="499.149351" xlink:href="#mae1a41035b" y="520.304227"/>
     <use style="fill:#9467bd;stroke:#9467bd;" x="514.678108" xlink:href="#mae1a41035b" y="498.270643"/>
     <use style="fill:#9467bd;stroke:#9467bd;" x="530.206865" xlink:href="#mae1a41035b" y="501.418298"/>
     <use style="fill:#9467bd;stroke:#9467bd;" x="545.735622" xlink:href="#mae1a41035b" y="495.122988"/>
     <use style="fill:#9467bd;stroke:#9467bd;" x="561.264378" xlink:href="#mae1a41035b" y="495.122988"/>
     <use style="fill:#9467bd;stroke:#9467bd;" x="576.793135" xlink:href="#mae1a41035b" y="510.861262"/>
     <use style="fill:#9467bd;stroke:#9467bd;" x="592.321892" xlink:href="#mae1a41035b" y="507.713607"/>
     <use style="fill:#9467bd;stroke:#9467bd;" x="607.850649" xlink:href="#mae1a41035b" y="507.713607"/>
     <use style="fill:#9467bd;stroke:#9467bd;" x="623.379406" xlink:href="#mae1a41035b" y="514.008917"/>
     <use style="fill:#9467bd;stroke:#9467bd;" x="638.908163" xlink:href="#mae1a41035b" y="526.599537"/>
     <use style="fill:#9467bd;stroke:#9467bd;" x="654.43692" xlink:href="#mae1a41035b" y="532.894847"/>
     <use style="fill:#9467bd;stroke:#9467bd;" x="669.965677" xlink:href="#mae1a41035b" y="539.190156"/>
     <use style="fill:#9467bd;stroke:#9467bd;" x="685.494434" xlink:href="#mae1a41035b" y="548.633121"/>
     <use style="fill:#9467bd;stroke:#9467bd;" x="701.023191" xlink:href="#mae1a41035b" y="558.076086"/>
     <use style="fill:#9467bd;stroke:#9467bd;" x="716.551948" xlink:href="#mae1a41035b" y="567.51905"/>
     <use style="fill:#9467bd;stroke:#9467bd;" x="732.080705" xlink:href="#mae1a41035b" y="576.962015"/>
     <use style="fill:#9467bd;stroke:#9467bd;" x="747.609462" xlink:href="#mae1a41035b" y="580.10967"/>
     <use style="fill:#9467bd;stroke:#9467bd;" x="763.138219" xlink:href="#mae1a41035b" y="580.10967"/>
     <use style="fill:#9467bd;stroke:#9467bd;" x="778.666976" xlink:href="#mae1a41035b" y="586.40498"/>
     <use style="fill:#9467bd;stroke:#9467bd;" x="794.195733" xlink:href="#mae1a41035b" y="605.290909"/>
     <use style="fill:#9467bd;stroke:#9467bd;" x="809.72449" xlink:href="#mae1a41035b" y="605.290909"/>
     <use style="fill:#9467bd;stroke:#9467bd;" x="825.253247" xlink:href="#mae1a41035b" y="605.290909"/>
     <use style="fill:#9467bd;stroke:#9467bd;" x="840.782004" xlink:href="#mae1a41035b" y="605.290909"/>
     <use style="fill:#9467bd;stroke:#9467bd;" x="856.310761" xlink:href="#mae1a41035b" y="605.290909"/>
     <use style="fill:#9467bd;stroke:#9467bd;" x="871.839518" xlink:href="#mae1a41035b" y="605.290909"/>
     <use style="fill:#9467bd;stroke:#9467bd;" x="887.368275" xlink:href="#mae1a41035b" y="605.290909"/>
     <use style="fill:#9467bd;stroke:#9467bd;" x="902.897032" xlink:href="#mae1a41035b" y="605.290909"/>
     <use style="fill:#9467bd;stroke:#9467bd;" x="918.425788" xlink:href="#mae1a41035b" y="605.290909"/>
     <use style="fill:#9467bd;stroke:#9467bd;" x="933.954545" xlink:href="#mae1a41035b" y="605.290909"/>
    </g>
   </g>
   <g id="patch_3">
    <path d="M 135 630 
L 135 86.4 
" style="fill:none;stroke:#000000;stroke-linecap:square;stroke-linejoin:miter;stroke-width:0.8;"/>
   </g>
   <g id="patch_4">
    <path d="M 972 630 
L 972 86.4 
" style="fill:none;stroke:#000000;stroke-linecap:square;stroke-linejoin:miter;stroke-width:0.8;"/>
   </g>
   <g id="patch_5">
    <path d="M 135 630 
L 972 630 
" style="fill:none;stroke:#000000;stroke-linecap:square;stroke-linejoin:miter;stroke-width:0.8;"/>
   </g>
   <g id="patch_6">
    <path d="M 135 86.4 
L 972 86.4 
" style="fill:none;stroke:#000000;stroke-linecap:square;stroke-linejoin:miter;stroke-width:0.8;"/>
   </g>
   <g id="legend_1">
    <g id="patch_7">
     <path d="M 851.794063 175.929688 
L 964.3 175.929688 
Q 966.5 175.929688 966.5 173.729687 
L 966.5 94.1 
Q 966.5 91.9 964.3 91.9 
L 851.794063 91.9 
Q 849.594063 91.9 849.594063 94.1 
L 849.594063 173.729687 
Q 849.594063 175.929688 851.794063 175.929688 
z
" style="fill:#ffffff;opacity:0.8;stroke:#cccccc;stroke-linejoin:miter;"/>
    </g>
    <g id="line2d_23">
     <path d="M 853.994063 100.808281 
L 875.994063 100.808281 
" style="fill:none;stroke:#1f77b4;stroke-linecap:square;stroke-width:1.5;"/>
    </g>
    <g id="line2d_24">
     <g>
      <use style="fill:#1f77b4;stroke:#1f77b4;" x="864.994063" xlink:href="#medb786b4ff" y="100.808281"/>
     </g>
    </g>
    <g id="text_20">
     <!-- LogMap -->
     <defs>
      <path d="M 9.8125 72.90625 
L 19.671875 72.90625 
L 19.671875 8.296875 
L 55.171875 8.296875 
L 55.171875 0 
L 9.8125 0 
z
" id="DejaVuSans-76"/>
      <path d="M 45.40625 27.984375 
Q 45.40625 37.75 41.375 43.109375 
Q 37.359375 48.484375 30.078125 48.484375 
Q 22.859375 48.484375 18.828125 43.109375 
Q 14.796875 37.75 14.796875 27.984375 
Q 14.796875 18.265625 18.828125 12.890625 
Q 22.859375 7.515625 30.078125 7.515625 
Q 37.359375 7.515625 41.375 12.890625 
Q 45.40625 18.265625 45.40625 27.984375 
z
M 54.390625 6.78125 
Q 54.390625 -7.171875 48.1875 -13.984375 
Q 42 -20.796875 29.203125 -20.796875 
Q 24.46875 -20.796875 20.265625 -20.09375 
Q 16.0625 -19.390625 12.109375 -17.921875 
L 12.109375 -9.1875 
Q 16.0625 -11.328125 19.921875 -12.34375 
Q 23.78125 -13.375 27.78125 -13.375 
Q 36.625 -13.375 41.015625 -8.765625 
Q 45.40625 -4.15625 45.40625 5.171875 
L 45.40625 9.625 
Q 42.625 4.78125 38.28125 2.390625 
Q 33.9375 0 27.875 0 
Q 17.828125 0 11.671875 7.65625 
Q 5.515625 15.328125 5.515625 27.984375 
Q 5.515625 40.671875 11.671875 48.328125 
Q 17.828125 56 27.875 56 
Q 33.9375 56 38.28125 53.609375 
Q 42.625 51.21875 45.40625 46.390625 
L 45.40625 54.6875 
L 54.390625 54.6875 
z
" id="DejaVuSans-103"/>
      <path d="M 9.8125 72.90625 
L 24.515625 72.90625 
L 43.109375 23.296875 
L 61.8125 72.90625 
L 76.515625 72.90625 
L 76.515625 0 
L 66.890625 0 
L 66.890625 64.015625 
L 48.09375 14.015625 
L 38.1875 14.015625 
L 19.390625 64.015625 
L 19.390625 0 
L 9.8125 0 
z
" id="DejaVuSans-77"/>
      <path d="M 18.109375 8.203125 
L 18.109375 -20.796875 
L 9.078125 -20.796875 
L 9.078125 54.6875 
L 18.109375 54.6875 
L 18.109375 46.390625 
Q 20.953125 51.265625 25.265625 53.625 
Q 29.59375 56 35.59375 56 
Q 45.5625 56 51.78125 48.09375 
Q 58.015625 40.1875 58.015625 27.296875 
Q 58.015625 14.40625 51.78125 6.484375 
Q 45.5625 -1.421875 35.59375 -1.421875 
Q 29.59375 -1.421875 25.265625 0.953125 
Q 20.953125 3.328125 18.109375 8.203125 
z
M 48.6875 27.296875 
Q 48.6875 37.203125 44.609375 42.84375 
Q 40.53125 48.484375 33.40625 48.484375 
Q 26.265625 48.484375 22.1875 42.84375 
Q 18.109375 37.203125 18.109375 27.296875 
Q 18.109375 17.390625 22.1875 11.75 
Q 26.265625 6.109375 33.40625 6.109375 
Q 40.53125 6.109375 44.609375 11.75 
Q 48.6875 17.390625 48.6875 27.296875 
z
" id="DejaVuSans-112"/>
     </defs>
     <g transform="translate(884.794062 104.658281)scale(0.11 -0.11)">
      <use xlink:href="#DejaVuSans-76"/>
      <use x="53.962891" xlink:href="#DejaVuSans-111"/>
      <use x="115.144531" xlink:href="#DejaVuSans-103"/>
      <use x="178.621094" xlink:href="#DejaVuSans-77"/>
      <use x="264.900391" xlink:href="#DejaVuSans-97"/>
      <use x="326.179688" xlink:href="#DejaVuSans-112"/>
     </g>
    </g>
    <g id="line2d_25">
     <path d="M 853.994063 116.954219 
L 875.994063 116.954219 
" style="fill:none;stroke:#ff7f0e;stroke-linecap:square;stroke-width:1.5;"/>
    </g>
    <g id="line2d_26">
     <g>
      <use style="fill:#ff7f0e;stroke:#ff7f0e;" x="864.994063" xlink:href="#m6a33584835" y="116.954219"/>
     </g>
    </g>
    <g id="text_21">
     <!-- CubicMap -->
     <defs>
      <path d="M 64.40625 67.28125 
L 64.40625 56.890625 
Q 59.421875 61.53125 53.78125 63.8125 
Q 48.140625 66.109375 41.796875 66.109375 
Q 29.296875 66.109375 22.65625 58.46875 
Q 16.015625 50.828125 16.015625 36.375 
Q 16.015625 21.96875 22.65625 14.328125 
Q 29.296875 6.6875 41.796875 6.6875 
Q 48.140625 6.6875 53.78125 8.984375 
Q 59.421875 11.28125 64.40625 15.921875 
L 64.40625 5.609375 
Q 59.234375 2.09375 53.4375 0.328125 
Q 47.65625 -1.421875 41.21875 -1.421875 
Q 24.65625 -1.421875 15.125 8.703125 
Q 5.609375 18.84375 5.609375 36.375 
Q 5.609375 53.953125 15.125 64.078125 
Q 24.65625 74.21875 41.21875 74.21875 
Q 47.75 74.21875 53.53125 72.484375 
Q 59.328125 70.75 64.40625 67.28125 
z
" id="DejaVuSans-67"/>
      <path d="M 48.6875 27.296875 
Q 48.6875 37.203125 44.609375 42.84375 
Q 40.53125 48.484375 33.40625 48.484375 
Q 26.265625 48.484375 22.1875 42.84375 
Q 18.109375 37.203125 18.109375 27.296875 
Q 18.109375 17.390625 22.1875 11.75 
Q 26.265625 6.109375 33.40625 6.109375 
Q 40.53125 6.109375 44.609375 11.75 
Q 48.6875 17.390625 48.6875 27.296875 
z
M 18.109375 46.390625 
Q 20.953125 51.265625 25.265625 53.625 
Q 29.59375 56 35.59375 56 
Q 45.5625 56 51.78125 48.09375 
Q 58.015625 40.1875 58.015625 27.296875 
Q 58.015625 14.40625 51.78125 6.484375 
Q 45.5625 -1.421875 35.59375 -1.421875 
Q 29.59375 -1.421875 25.265625 0.953125 
Q 20.953125 3.328125 18.109375 8.203125 
L 18.109375 0 
L 9.078125 0 
L 9.078125 75.984375 
L 18.109375 75.984375 
z
" id="DejaVuSans-98"/>
     </defs>
     <g transform="translate(884.794062 120.804219)scale(0.11 -0.11)">
      <use xlink:href="#DejaVuSans-67"/>
      <use x="69.824219" xlink:href="#DejaVuSans-117"/>
      <use x="133.203125" xlink:href="#DejaVuSans-98"/>
      <use x="196.679688" xlink:href="#DejaVuSans-105"/>
      <use x="224.462891" xlink:href="#DejaVuSans-99"/>
      <use x="279.443359" xlink:href="#DejaVuSans-77"/>
      <use x="365.722656" xlink:href="#DejaVuSans-97"/>
      <use x="427.001953" xlink:href="#DejaVuSans-112"/>
     </g>
    </g>
    <g id="line2d_27">
     <path d="M 853.994063 133.100156 
L 875.994063 133.100156 
" style="fill:none;stroke:#2ca02c;stroke-linecap:square;stroke-width:1.5;"/>
    </g>
    <g id="line2d_28">
     <g>
      <use style="fill:#2ca02c;stroke:#2ca02c;" x="864.994063" xlink:href="#m9957c7c4a6" y="133.100156"/>
     </g>
    </g>
    <g id="text_22">
     <!-- TinkerBellMap -->
     <defs>
      <path d="M -0.296875 72.90625 
L 61.375 72.90625 
L 61.375 64.59375 
L 35.5 64.59375 
L 35.5 0 
L 25.59375 0 
L 25.59375 64.59375 
L -0.296875 64.59375 
z
" id="DejaVuSans-84"/>
      <path d="M 9.078125 75.984375 
L 18.109375 75.984375 
L 18.109375 31.109375 
L 44.921875 54.6875 
L 56.390625 54.6875 
L 27.390625 29.109375 
L 57.625 0 
L 45.90625 0 
L 18.109375 26.703125 
L 18.109375 0 
L 9.078125 0 
z
" id="DejaVuSans-107"/>
      <path d="M 41.109375 46.296875 
Q 39.59375 47.171875 37.8125 47.578125 
Q 36.03125 48 33.890625 48 
Q 26.265625 48 22.1875 43.046875 
Q 18.109375 38.09375 18.109375 28.8125 
L 18.109375 0 
L 9.078125 0 
L 9.078125 54.6875 
L 18.109375 54.6875 
L 18.109375 46.1875 
Q 20.953125 51.171875 25.484375 53.578125 
Q 30.03125 56 36.53125 56 
Q 37.453125 56 38.578125 55.875 
Q 39.703125 55.765625 41.0625 55.515625 
z
" id="DejaVuSans-114"/>
      <path d="M 19.671875 34.8125 
L 19.671875 8.109375 
L 35.5 8.109375 
Q 43.453125 8.109375 47.28125 11.40625 
Q 51.125 14.703125 51.125 21.484375 
Q 51.125 28.328125 47.28125 31.5625 
Q 43.453125 34.8125 35.5 34.8125 
z
M 19.671875 64.796875 
L 19.671875 42.828125 
L 34.28125 42.828125 
Q 41.5 42.828125 45.03125 45.53125 
Q 48.578125 48.25 48.578125 53.8125 
Q 48.578125 59.328125 45.03125 62.0625 
Q 41.5 64.796875 34.28125 64.796875 
z
M 9.8125 72.90625 
L 35.015625 72.90625 
Q 46.296875 72.90625 52.390625 68.21875 
Q 58.5 63.53125 58.5 54.890625 
Q 58.5 48.1875 55.375 44.234375 
Q 52.25 40.28125 46.1875 39.3125 
Q 53.46875 37.75 57.5 32.78125 
Q 61.53125 27.828125 61.53125 20.40625 
Q 61.53125 10.640625 54.890625 5.3125 
Q 48.25 0 35.984375 0 
L 9.8125 0 
z
" id="DejaVuSans-66"/>
     </defs>
     <g transform="translate(884.794062 136.950156)scale(0.11 -0.11)">
      <use xlink:href="#DejaVuSans-84"/>
      <use x="57.958984" xlink:href="#DejaVuSans-105"/>
      <use x="85.742188" xlink:href="#DejaVuSans-110"/>
      <use x="149.121094" xlink:href="#DejaVuSans-107"/>
      <use x="203.40625" xlink:href="#DejaVuSans-101"/>
      <use x="264.929688" xlink:href="#DejaVuSans-114"/>
      <use x="306.042969" xlink:href="#DejaVuSans-66"/>
      <use x="374.646484" xlink:href="#DejaVuSans-101"/>
      <use x="436.169922" xlink:href="#DejaVuSans-108"/>
      <use x="463.953125" xlink:href="#DejaVuSans-108"/>
      <use x="491.736328" xlink:href="#DejaVuSans-77"/>
      <use x="578.015625" xlink:href="#DejaVuSans-97"/>
      <use x="639.294922" xlink:href="#DejaVuSans-112"/>
     </g>
    </g>
    <g id="line2d_29">
     <path d="M 853.994063 149.246094 
L 875.994063 149.246094 
" style="fill:none;stroke:#d62728;stroke-linecap:square;stroke-width:1.5;"/>
    </g>
    <g id="line2d_30">
     <g>
      <use style="fill:#d62728;stroke:#d62728;" x="864.994063" xlink:href="#m4919f61478" y="149.246094"/>
     </g>
    </g>
    <g id="text_23">
     <!-- HenonMap -->
     <defs>
      <path d="M 9.8125 72.90625 
L 19.671875 72.90625 
L 19.671875 43.015625 
L 55.515625 43.015625 
L 55.515625 72.90625 
L 65.375 72.90625 
L 65.375 0 
L 55.515625 0 
L 55.515625 34.71875 
L 19.671875 34.71875 
L 19.671875 0 
L 9.8125 0 
z
" id="DejaVuSans-72"/>
     </defs>
     <g transform="translate(884.794062 153.096094)scale(0.11 -0.11)">
      <use xlink:href="#DejaVuSans-72"/>
      <use x="75.195312" xlink:href="#DejaVuSans-101"/>
      <use x="136.71875" xlink:href="#DejaVuSans-110"/>
      <use x="200.097656" xlink:href="#DejaVuSans-111"/>
      <use x="261.279297" xlink:href="#DejaVuSans-110"/>
      <use x="324.658203" xlink:href="#DejaVuSans-77"/>
      <use x="410.9375" xlink:href="#DejaVuSans-97"/>
      <use x="472.216797" xlink:href="#DejaVuSans-112"/>
     </g>
    </g>
    <g id="line2d_31">
     <path d="M 853.994063 165.392031 
L 875.994063 165.392031 
" style="fill:none;stroke:#9467bd;stroke-linecap:square;stroke-width:1.5;"/>
    </g>
    <g id="line2d_32">
     <g>
      <use style="fill:#9467bd;stroke:#9467bd;" x="864.994063" xlink:href="#mae1a41035b" y="165.392031"/>
     </g>
    </g>
    <g id="text_24">
     <!-- BurgersMap -->
     <g transform="translate(884.794062 169.242031)scale(0.11 -0.11)">
      <use xlink:href="#DejaVuSans-66"/>
      <use x="68.603516" xlink:href="#DejaVuSans-117"/>
      <use x="131.982422" xlink:href="#DejaVuSans-114"/>
      <use x="171.345703" xlink:href="#DejaVuSans-103"/>
      <use x="234.822266" xlink:href="#DejaVuSans-101"/>
      <use x="296.345703" xlink:href="#DejaVuSans-114"/>
      <use x="337.458984" xlink:href="#DejaVuSans-115"/>
      <use x="389.558594" xlink:href="#DejaVuSans-77"/>
      <use x="475.837891" xlink:href="#DejaVuSans-97"/>
      <use x="537.117188" xlink:href="#DejaVuSans-112"/>
     </g>
    </g>
   </g>
  </g>
 </g>
 <defs>
  <clipPath id="p40c1900242">
   <rect height="543.6" width="837" x="135" y="86.4"/>
  </clipPath>
 </defs>
</svg>
